<?xml version="1.0" encoding="utf-8" standalone="no"?>
<!DOCTYPE svg PUBLIC "-//W3C//DTD SVG 1.1//EN"
  "http://www.w3.org/Graphics/SVG/1.1/DTD/svg11.dtd">
<svg xmlns:xlink="http://www.w3.org/1999/xlink" width="432pt" height="288pt" viewBox="0 0 432 288" xmlns="http://www.w3.org/2000/svg" version="1.1">
 <metadata>
  <rdf:RDF xmlns:dc="http://purl.org/dc/elements/1.1/" xmlns:cc="http://creativecommons.org/ns#" xmlns:rdf="http://www.w3.org/1999/02/22-rdf-syntax-ns#">
   <cc:Work>
    <dc:type rdf:resource="http://purl.org/dc/dcmitype/StillImage"/>
    <dc:date>2022-06-23T04:36:02.882349</dc:date>
    <dc:format>image/svg+xml</dc:format>
    <dc:creator>
     <cc:Agent>
      <dc:title>Matplotlib v3.5.2, https://matplotlib.org/</dc:title>
     </cc:Agent>
    </dc:creator>
   </cc:Work>
  </rdf:RDF>
 </metadata>
 <defs>
  <style type="text/css">*{stroke-linejoin: round; stroke-linecap: butt}</style>
 </defs>
 <g id="figure_1">
  <g id="patch_1">
   <path d="M 0 288 
L 432 288 
L 432 0 
L 0 0 
z
" style="fill: #ffffff"/>
  </g>
  <g id="axes_1">
   <g id="patch_2">
    <path d="M 44.3 237.6 
L 421.2 237.6 
L 421.2 10.8 
L 44.3 10.8 
z
" style="fill: #eaeaf2"/>
   </g>
   <g id="matplotlib.axis_1">
    <g id="xtick_1">
     <g id="line2d_1">
      <path d="M 61.431818 237.6 
L 61.431818 10.8 
" clip-path="url(#p7a42270e8b)" style="fill: none; stroke: #ffffff; stroke-linecap: round"/>
     </g>
     <g id="text_1">
      <!-- 0.0 -->
      <g style="fill: #262626" transform="translate(52.685099 255.458281)scale(0.11 -0.11)">
       <defs>
        <path id="DejaVuSans-30" d="M 2034 4250 
Q 1547 4250 1301 3770 
Q 1056 3291 1056 2328 
Q 1056 1369 1301 889 
Q 1547 409 2034 409 
Q 2525 409 2770 889 
Q 3016 1369 3016 2328 
Q 3016 3291 2770 3770 
Q 2525 4250 2034 4250 
z
M 2034 4750 
Q 2819 4750 3233 4129 
Q 3647 3509 3647 2328 
Q 3647 1150 3233 529 
Q 2819 -91 2034 -91 
Q 1250 -91 836 529 
Q 422 1150 422 2328 
Q 422 3509 836 4129 
Q 1250 4750 2034 4750 
z
" transform="scale(0.015625)"/>
        <path id="DejaVuSans-2e" d="M 684 794 
L 1344 794 
L 1344 0 
L 684 0 
L 684 794 
z
" transform="scale(0.015625)"/>
       </defs>
       <use xlink:href="#DejaVuSans-30"/>
       <use xlink:href="#DejaVuSans-2e" x="63.623047"/>
       <use xlink:href="#DejaVuSans-30" x="95.410156"/>
      </g>
     </g>
    </g>
    <g id="xtick_2">
     <g id="line2d_2">
      <path d="M 129.959091 237.6 
L 129.959091 10.8 
" clip-path="url(#p7a42270e8b)" style="fill: none; stroke: #ffffff; stroke-linecap: round"/>
     </g>
     <g id="text_2">
      <!-- 0.2 -->
      <g style="fill: #262626" transform="translate(121.212372 255.458281)scale(0.11 -0.11)">
       <defs>
        <path id="DejaVuSans-32" d="M 1228 531 
L 3431 531 
L 3431 0 
L 469 0 
L 469 531 
Q 828 903 1448 1529 
Q 2069 2156 2228 2338 
Q 2531 2678 2651 2914 
Q 2772 3150 2772 3378 
Q 2772 3750 2511 3984 
Q 2250 4219 1831 4219 
Q 1534 4219 1204 4116 
Q 875 4013 500 3803 
L 500 4441 
Q 881 4594 1212 4672 
Q 1544 4750 1819 4750 
Q 2544 4750 2975 4387 
Q 3406 4025 3406 3419 
Q 3406 3131 3298 2873 
Q 3191 2616 2906 2266 
Q 2828 2175 2409 1742 
Q 1991 1309 1228 531 
z
" transform="scale(0.015625)"/>
       </defs>
       <use xlink:href="#DejaVuSans-30"/>
       <use xlink:href="#DejaVuSans-2e" x="63.623047"/>
       <use xlink:href="#DejaVuSans-32" x="95.410156"/>
      </g>
     </g>
    </g>
    <g id="xtick_3">
     <g id="line2d_3">
      <path d="M 198.486364 237.6 
L 198.486364 10.8 
" clip-path="url(#p7a42270e8b)" style="fill: none; stroke: #ffffff; stroke-linecap: round"/>
     </g>
     <g id="text_3">
      <!-- 0.4 -->
      <g style="fill: #262626" transform="translate(189.739645 255.458281)scale(0.11 -0.11)">
       <defs>
        <path id="DejaVuSans-34" d="M 2419 4116 
L 825 1625 
L 2419 1625 
L 2419 4116 
z
M 2253 4666 
L 3047 4666 
L 3047 1625 
L 3713 1625 
L 3713 1100 
L 3047 1100 
L 3047 0 
L 2419 0 
L 2419 1100 
L 313 1100 
L 313 1709 
L 2253 4666 
z
" transform="scale(0.015625)"/>
       </defs>
       <use xlink:href="#DejaVuSans-30"/>
       <use xlink:href="#DejaVuSans-2e" x="63.623047"/>
       <use xlink:href="#DejaVuSans-34" x="95.410156"/>
      </g>
     </g>
    </g>
    <g id="xtick_4">
     <g id="line2d_4">
      <path d="M 267.013636 237.6 
L 267.013636 10.8 
" clip-path="url(#p7a42270e8b)" style="fill: none; stroke: #ffffff; stroke-linecap: round"/>
     </g>
     <g id="text_4">
      <!-- 0.6 -->
      <g style="fill: #262626" transform="translate(258.266918 255.458281)scale(0.11 -0.11)">
       <defs>
        <path id="DejaVuSans-36" d="M 2113 2584 
Q 1688 2584 1439 2293 
Q 1191 2003 1191 1497 
Q 1191 994 1439 701 
Q 1688 409 2113 409 
Q 2538 409 2786 701 
Q 3034 994 3034 1497 
Q 3034 2003 2786 2293 
Q 2538 2584 2113 2584 
z
M 3366 4563 
L 3366 3988 
Q 3128 4100 2886 4159 
Q 2644 4219 2406 4219 
Q 1781 4219 1451 3797 
Q 1122 3375 1075 2522 
Q 1259 2794 1537 2939 
Q 1816 3084 2150 3084 
Q 2853 3084 3261 2657 
Q 3669 2231 3669 1497 
Q 3669 778 3244 343 
Q 2819 -91 2113 -91 
Q 1303 -91 875 529 
Q 447 1150 447 2328 
Q 447 3434 972 4092 
Q 1497 4750 2381 4750 
Q 2619 4750 2861 4703 
Q 3103 4656 3366 4563 
z
" transform="scale(0.015625)"/>
       </defs>
       <use xlink:href="#DejaVuSans-30"/>
       <use xlink:href="#DejaVuSans-2e" x="63.623047"/>
       <use xlink:href="#DejaVuSans-36" x="95.410156"/>
      </g>
     </g>
    </g>
    <g id="xtick_5">
     <g id="line2d_5">
      <path d="M 335.540909 237.6 
L 335.540909 10.8 
" clip-path="url(#p7a42270e8b)" style="fill: none; stroke: #ffffff; stroke-linecap: round"/>
     </g>
     <g id="text_5">
      <!-- 0.8 -->
      <g style="fill: #262626" transform="translate(326.79419 255.458281)scale(0.11 -0.11)">
       <defs>
        <path id="DejaVuSans-38" d="M 2034 2216 
Q 1584 2216 1326 1975 
Q 1069 1734 1069 1313 
Q 1069 891 1326 650 
Q 1584 409 2034 409 
Q 2484 409 2743 651 
Q 3003 894 3003 1313 
Q 3003 1734 2745 1975 
Q 2488 2216 2034 2216 
z
M 1403 2484 
Q 997 2584 770 2862 
Q 544 3141 544 3541 
Q 544 4100 942 4425 
Q 1341 4750 2034 4750 
Q 2731 4750 3128 4425 
Q 3525 4100 3525 3541 
Q 3525 3141 3298 2862 
Q 3072 2584 2669 2484 
Q 3125 2378 3379 2068 
Q 3634 1759 3634 1313 
Q 3634 634 3220 271 
Q 2806 -91 2034 -91 
Q 1263 -91 848 271 
Q 434 634 434 1313 
Q 434 1759 690 2068 
Q 947 2378 1403 2484 
z
M 1172 3481 
Q 1172 3119 1398 2916 
Q 1625 2713 2034 2713 
Q 2441 2713 2670 2916 
Q 2900 3119 2900 3481 
Q 2900 3844 2670 4047 
Q 2441 4250 2034 4250 
Q 1625 4250 1398 4047 
Q 1172 3844 1172 3481 
z
" transform="scale(0.015625)"/>
       </defs>
       <use xlink:href="#DejaVuSans-30"/>
       <use xlink:href="#DejaVuSans-2e" x="63.623047"/>
       <use xlink:href="#DejaVuSans-38" x="95.410156"/>
      </g>
     </g>
    </g>
    <g id="xtick_6">
     <g id="line2d_6">
      <path d="M 404.068182 237.6 
L 404.068182 10.8 
" clip-path="url(#p7a42270e8b)" style="fill: none; stroke: #ffffff; stroke-linecap: round"/>
     </g>
     <g id="text_6">
      <!-- 1.0 -->
      <g style="fill: #262626" transform="translate(395.321463 255.458281)scale(0.11 -0.11)">
       <defs>
        <path id="DejaVuSans-31" d="M 794 531 
L 1825 531 
L 1825 4091 
L 703 3866 
L 703 4441 
L 1819 4666 
L 2450 4666 
L 2450 531 
L 3481 531 
L 3481 0 
L 794 0 
L 794 531 
z
" transform="scale(0.015625)"/>
       </defs>
       <use xlink:href="#DejaVuSans-31"/>
       <use xlink:href="#DejaVuSans-2e" x="63.623047"/>
       <use xlink:href="#DejaVuSans-30" x="95.410156"/>
      </g>
     </g>
    </g>
    <g id="text_7">
     <!-- Normalised Stiffness $C_1$ -->
     <g style="fill: #262626" transform="translate(161.95 270.864062)scale(0.12 -0.12)">
      <defs>
       <path id="DejaVuSans-4e" d="M 628 4666 
L 1478 4666 
L 3547 763 
L 3547 4666 
L 4159 4666 
L 4159 0 
L 3309 0 
L 1241 3903 
L 1241 0 
L 628 0 
L 628 4666 
z
" transform="scale(0.015625)"/>
       <path id="DejaVuSans-6f" d="M 1959 3097 
Q 1497 3097 1228 2736 
Q 959 2375 959 1747 
Q 959 1119 1226 758 
Q 1494 397 1959 397 
Q 2419 397 2687 759 
Q 2956 1122 2956 1747 
Q 2956 2369 2687 2733 
Q 2419 3097 1959 3097 
z
M 1959 3584 
Q 2709 3584 3137 3096 
Q 3566 2609 3566 1747 
Q 3566 888 3137 398 
Q 2709 -91 1959 -91 
Q 1206 -91 779 398 
Q 353 888 353 1747 
Q 353 2609 779 3096 
Q 1206 3584 1959 3584 
z
" transform="scale(0.015625)"/>
       <path id="DejaVuSans-72" d="M 2631 2963 
Q 2534 3019 2420 3045 
Q 2306 3072 2169 3072 
Q 1681 3072 1420 2755 
Q 1159 2438 1159 1844 
L 1159 0 
L 581 0 
L 581 3500 
L 1159 3500 
L 1159 2956 
Q 1341 3275 1631 3429 
Q 1922 3584 2338 3584 
Q 2397 3584 2469 3576 
Q 2541 3569 2628 3553 
L 2631 2963 
z
" transform="scale(0.015625)"/>
       <path id="DejaVuSans-6d" d="M 3328 2828 
Q 3544 3216 3844 3400 
Q 4144 3584 4550 3584 
Q 5097 3584 5394 3201 
Q 5691 2819 5691 2113 
L 5691 0 
L 5113 0 
L 5113 2094 
Q 5113 2597 4934 2840 
Q 4756 3084 4391 3084 
Q 3944 3084 3684 2787 
Q 3425 2491 3425 1978 
L 3425 0 
L 2847 0 
L 2847 2094 
Q 2847 2600 2669 2842 
Q 2491 3084 2119 3084 
Q 1678 3084 1418 2786 
Q 1159 2488 1159 1978 
L 1159 0 
L 581 0 
L 581 3500 
L 1159 3500 
L 1159 2956 
Q 1356 3278 1631 3431 
Q 1906 3584 2284 3584 
Q 2666 3584 2933 3390 
Q 3200 3197 3328 2828 
z
" transform="scale(0.015625)"/>
       <path id="DejaVuSans-61" d="M 2194 1759 
Q 1497 1759 1228 1600 
Q 959 1441 959 1056 
Q 959 750 1161 570 
Q 1363 391 1709 391 
Q 2188 391 2477 730 
Q 2766 1069 2766 1631 
L 2766 1759 
L 2194 1759 
z
M 3341 1997 
L 3341 0 
L 2766 0 
L 2766 531 
Q 2569 213 2275 61 
Q 1981 -91 1556 -91 
Q 1019 -91 701 211 
Q 384 513 384 1019 
Q 384 1609 779 1909 
Q 1175 2209 1959 2209 
L 2766 2209 
L 2766 2266 
Q 2766 2663 2505 2880 
Q 2244 3097 1772 3097 
Q 1472 3097 1187 3025 
Q 903 2953 641 2809 
L 641 3341 
Q 956 3463 1253 3523 
Q 1550 3584 1831 3584 
Q 2591 3584 2966 3190 
Q 3341 2797 3341 1997 
z
" transform="scale(0.015625)"/>
       <path id="DejaVuSans-6c" d="M 603 4863 
L 1178 4863 
L 1178 0 
L 603 0 
L 603 4863 
z
" transform="scale(0.015625)"/>
       <path id="DejaVuSans-69" d="M 603 3500 
L 1178 3500 
L 1178 0 
L 603 0 
L 603 3500 
z
M 603 4863 
L 1178 4863 
L 1178 4134 
L 603 4134 
L 603 4863 
z
" transform="scale(0.015625)"/>
       <path id="DejaVuSans-73" d="M 2834 3397 
L 2834 2853 
Q 2591 2978 2328 3040 
Q 2066 3103 1784 3103 
Q 1356 3103 1142 2972 
Q 928 2841 928 2578 
Q 928 2378 1081 2264 
Q 1234 2150 1697 2047 
L 1894 2003 
Q 2506 1872 2764 1633 
Q 3022 1394 3022 966 
Q 3022 478 2636 193 
Q 2250 -91 1575 -91 
Q 1294 -91 989 -36 
Q 684 19 347 128 
L 347 722 
Q 666 556 975 473 
Q 1284 391 1588 391 
Q 1994 391 2212 530 
Q 2431 669 2431 922 
Q 2431 1156 2273 1281 
Q 2116 1406 1581 1522 
L 1381 1569 
Q 847 1681 609 1914 
Q 372 2147 372 2553 
Q 372 3047 722 3315 
Q 1072 3584 1716 3584 
Q 2034 3584 2315 3537 
Q 2597 3491 2834 3397 
z
" transform="scale(0.015625)"/>
       <path id="DejaVuSans-65" d="M 3597 1894 
L 3597 1613 
L 953 1613 
Q 991 1019 1311 708 
Q 1631 397 2203 397 
Q 2534 397 2845 478 
Q 3156 559 3463 722 
L 3463 178 
Q 3153 47 2828 -22 
Q 2503 -91 2169 -91 
Q 1331 -91 842 396 
Q 353 884 353 1716 
Q 353 2575 817 3079 
Q 1281 3584 2069 3584 
Q 2775 3584 3186 3129 
Q 3597 2675 3597 1894 
z
M 3022 2063 
Q 3016 2534 2758 2815 
Q 2500 3097 2075 3097 
Q 1594 3097 1305 2825 
Q 1016 2553 972 2059 
L 3022 2063 
z
" transform="scale(0.015625)"/>
       <path id="DejaVuSans-64" d="M 2906 2969 
L 2906 4863 
L 3481 4863 
L 3481 0 
L 2906 0 
L 2906 525 
Q 2725 213 2448 61 
Q 2172 -91 1784 -91 
Q 1150 -91 751 415 
Q 353 922 353 1747 
Q 353 2572 751 3078 
Q 1150 3584 1784 3584 
Q 2172 3584 2448 3432 
Q 2725 3281 2906 2969 
z
M 947 1747 
Q 947 1113 1208 752 
Q 1469 391 1925 391 
Q 2381 391 2643 752 
Q 2906 1113 2906 1747 
Q 2906 2381 2643 2742 
Q 2381 3103 1925 3103 
Q 1469 3103 1208 2742 
Q 947 2381 947 1747 
z
" transform="scale(0.015625)"/>
       <path id="DejaVuSans-20" transform="scale(0.015625)"/>
       <path id="DejaVuSans-53" d="M 3425 4513 
L 3425 3897 
Q 3066 4069 2747 4153 
Q 2428 4238 2131 4238 
Q 1616 4238 1336 4038 
Q 1056 3838 1056 3469 
Q 1056 3159 1242 3001 
Q 1428 2844 1947 2747 
L 2328 2669 
Q 3034 2534 3370 2195 
Q 3706 1856 3706 1288 
Q 3706 609 3251 259 
Q 2797 -91 1919 -91 
Q 1588 -91 1214 -16 
Q 841 59 441 206 
L 441 856 
Q 825 641 1194 531 
Q 1563 422 1919 422 
Q 2459 422 2753 634 
Q 3047 847 3047 1241 
Q 3047 1584 2836 1778 
Q 2625 1972 2144 2069 
L 1759 2144 
Q 1053 2284 737 2584 
Q 422 2884 422 3419 
Q 422 4038 858 4394 
Q 1294 4750 2059 4750 
Q 2388 4750 2728 4690 
Q 3069 4631 3425 4513 
z
" transform="scale(0.015625)"/>
       <path id="DejaVuSans-74" d="M 1172 4494 
L 1172 3500 
L 2356 3500 
L 2356 3053 
L 1172 3053 
L 1172 1153 
Q 1172 725 1289 603 
Q 1406 481 1766 481 
L 2356 481 
L 2356 0 
L 1766 0 
Q 1100 0 847 248 
Q 594 497 594 1153 
L 594 3053 
L 172 3053 
L 172 3500 
L 594 3500 
L 594 4494 
L 1172 4494 
z
" transform="scale(0.015625)"/>
       <path id="DejaVuSans-66" d="M 2375 4863 
L 2375 4384 
L 1825 4384 
Q 1516 4384 1395 4259 
Q 1275 4134 1275 3809 
L 1275 3500 
L 2222 3500 
L 2222 3053 
L 1275 3053 
L 1275 0 
L 697 0 
L 697 3053 
L 147 3053 
L 147 3500 
L 697 3500 
L 697 3744 
Q 697 4328 969 4595 
Q 1241 4863 1831 4863 
L 2375 4863 
z
" transform="scale(0.015625)"/>
       <path id="DejaVuSans-6e" d="M 3513 2113 
L 3513 0 
L 2938 0 
L 2938 2094 
Q 2938 2591 2744 2837 
Q 2550 3084 2163 3084 
Q 1697 3084 1428 2787 
Q 1159 2491 1159 1978 
L 1159 0 
L 581 0 
L 581 3500 
L 1159 3500 
L 1159 2956 
Q 1366 3272 1645 3428 
Q 1925 3584 2291 3584 
Q 2894 3584 3203 3211 
Q 3513 2838 3513 2113 
z
" transform="scale(0.015625)"/>
       <path id="DejaVuSans-Oblique-43" d="M 4447 4306 
L 4319 3641 
Q 4019 3944 3683 4091 
Q 3347 4238 2956 4238 
Q 2422 4238 2017 3981 
Q 1613 3725 1319 3200 
Q 1131 2863 1032 2486 
Q 934 2109 934 1728 
Q 934 1091 1264 756 
Q 1594 422 2222 422 
Q 2656 422 3056 561 
Q 3456 700 3834 978 
L 3688 231 
Q 3316 72 2936 -9 
Q 2556 -91 2175 -91 
Q 1278 -91 773 396 
Q 269 884 269 1753 
Q 269 2309 461 2846 
Q 653 3384 1013 3828 
Q 1394 4300 1883 4525 
Q 2372 4750 3022 4750 
Q 3422 4750 3780 4639 
Q 4138 4528 4447 4306 
z
" transform="scale(0.015625)"/>
      </defs>
      <use xlink:href="#DejaVuSans-4e" transform="translate(0 0.015625)"/>
      <use xlink:href="#DejaVuSans-6f" transform="translate(74.804688 0.015625)"/>
      <use xlink:href="#DejaVuSans-72" transform="translate(135.986328 0.015625)"/>
      <use xlink:href="#DejaVuSans-6d" transform="translate(177.099609 0.015625)"/>
      <use xlink:href="#DejaVuSans-61" transform="translate(274.511719 0.015625)"/>
      <use xlink:href="#DejaVuSans-6c" transform="translate(335.791016 0.015625)"/>
      <use xlink:href="#DejaVuSans-69" transform="translate(363.574219 0.015625)"/>
      <use xlink:href="#DejaVuSans-73" transform="translate(391.357422 0.015625)"/>
      <use xlink:href="#DejaVuSans-65" transform="translate(443.457031 0.015625)"/>
      <use xlink:href="#DejaVuSans-64" transform="translate(504.980469 0.015625)"/>
      <use xlink:href="#DejaVuSans-20" transform="translate(568.457031 0.015625)"/>
      <use xlink:href="#DejaVuSans-53" transform="translate(600.244141 0.015625)"/>
      <use xlink:href="#DejaVuSans-74" transform="translate(663.720703 0.015625)"/>
      <use xlink:href="#DejaVuSans-69" transform="translate(702.929688 0.015625)"/>
      <use xlink:href="#DejaVuSans-66" transform="translate(730.712891 0.015625)"/>
      <use xlink:href="#DejaVuSans-66" transform="translate(765.917969 0.015625)"/>
      <use xlink:href="#DejaVuSans-6e" transform="translate(801.123047 0.015625)"/>
      <use xlink:href="#DejaVuSans-65" transform="translate(864.501953 0.015625)"/>
      <use xlink:href="#DejaVuSans-73" transform="translate(926.025391 0.015625)"/>
      <use xlink:href="#DejaVuSans-73" transform="translate(978.125 0.015625)"/>
      <use xlink:href="#DejaVuSans-20" transform="translate(1030.224609 0.015625)"/>
      <use xlink:href="#DejaVuSans-Oblique-43" transform="translate(1062.011719 0.015625)"/>
      <use xlink:href="#DejaVuSans-31" transform="translate(1131.835938 -16.390625)scale(0.7)"/>
     </g>
    </g>
   </g>
   <g id="matplotlib.axis_2">
    <g id="ytick_1">
     <g id="line2d_7">
      <path d="M 44.3 227.290909 
L 421.2 227.290909 
" clip-path="url(#p7a42270e8b)" style="fill: none; stroke: #ffffff; stroke-linecap: round"/>
     </g>
     <g id="text_8">
      <!-- 0 -->
      <g style="fill: #262626" transform="translate(27.80125 231.47005)scale(0.11 -0.11)">
       <use xlink:href="#DejaVuSans-30"/>
      </g>
     </g>
    </g>
    <g id="ytick_2">
     <g id="line2d_8">
      <path d="M 44.3 190.745222 
L 421.2 190.745222 
" clip-path="url(#p7a42270e8b)" style="fill: none; stroke: #ffffff; stroke-linecap: round"/>
     </g>
     <g id="text_9">
      <!-- 1 -->
      <g style="fill: #262626" transform="translate(27.80125 194.924362)scale(0.11 -0.11)">
       <use xlink:href="#DejaVuSans-31"/>
      </g>
     </g>
    </g>
    <g id="ytick_3">
     <g id="line2d_9">
      <path d="M 44.3 154.199534 
L 421.2 154.199534 
" clip-path="url(#p7a42270e8b)" style="fill: none; stroke: #ffffff; stroke-linecap: round"/>
     </g>
     <g id="text_10">
      <!-- 2 -->
      <g style="fill: #262626" transform="translate(27.80125 158.378675)scale(0.11 -0.11)">
       <use xlink:href="#DejaVuSans-32"/>
      </g>
     </g>
    </g>
    <g id="ytick_4">
     <g id="line2d_10">
      <path d="M 44.3 117.653847 
L 421.2 117.653847 
" clip-path="url(#p7a42270e8b)" style="fill: none; stroke: #ffffff; stroke-linecap: round"/>
     </g>
     <g id="text_11">
      <!-- 3 -->
      <g style="fill: #262626" transform="translate(27.80125 121.832988)scale(0.11 -0.11)">
       <defs>
        <path id="DejaVuSans-33" d="M 2597 2516 
Q 3050 2419 3304 2112 
Q 3559 1806 3559 1356 
Q 3559 666 3084 287 
Q 2609 -91 1734 -91 
Q 1441 -91 1130 -33 
Q 819 25 488 141 
L 488 750 
Q 750 597 1062 519 
Q 1375 441 1716 441 
Q 2309 441 2620 675 
Q 2931 909 2931 1356 
Q 2931 1769 2642 2001 
Q 2353 2234 1838 2234 
L 1294 2234 
L 1294 2753 
L 1863 2753 
Q 2328 2753 2575 2939 
Q 2822 3125 2822 3475 
Q 2822 3834 2567 4026 
Q 2313 4219 1838 4219 
Q 1578 4219 1281 4162 
Q 984 4106 628 3988 
L 628 4550 
Q 988 4650 1302 4700 
Q 1616 4750 1894 4750 
Q 2613 4750 3031 4423 
Q 3450 4097 3450 3541 
Q 3450 3153 3228 2886 
Q 3006 2619 2597 2516 
z
" transform="scale(0.015625)"/>
       </defs>
       <use xlink:href="#DejaVuSans-33"/>
      </g>
     </g>
    </g>
    <g id="ytick_5">
     <g id="line2d_11">
      <path d="M 44.3 81.10816 
L 421.2 81.10816 
" clip-path="url(#p7a42270e8b)" style="fill: none; stroke: #ffffff; stroke-linecap: round"/>
     </g>
     <g id="text_12">
      <!-- 4 -->
      <g style="fill: #262626" transform="translate(27.80125 85.2873)scale(0.11 -0.11)">
       <use xlink:href="#DejaVuSans-34"/>
      </g>
     </g>
    </g>
    <g id="ytick_6">
     <g id="line2d_12">
      <path d="M 44.3 44.562472 
L 421.2 44.562472 
" clip-path="url(#p7a42270e8b)" style="fill: none; stroke: #ffffff; stroke-linecap: round"/>
     </g>
     <g id="text_13">
      <!-- 5 -->
      <g style="fill: #262626" transform="translate(27.80125 48.741613)scale(0.11 -0.11)">
       <defs>
        <path id="DejaVuSans-35" d="M 691 4666 
L 3169 4666 
L 3169 4134 
L 1269 4134 
L 1269 2991 
Q 1406 3038 1543 3061 
Q 1681 3084 1819 3084 
Q 2600 3084 3056 2656 
Q 3513 2228 3513 1497 
Q 3513 744 3044 326 
Q 2575 -91 1722 -91 
Q 1428 -91 1123 -41 
Q 819 9 494 109 
L 494 744 
Q 775 591 1075 516 
Q 1375 441 1709 441 
Q 2250 441 2565 725 
Q 2881 1009 2881 1497 
Q 2881 1984 2565 2268 
Q 2250 2553 1709 2553 
Q 1456 2553 1204 2497 
Q 953 2441 691 2322 
L 691 4666 
z
" transform="scale(0.015625)"/>
       </defs>
       <use xlink:href="#DejaVuSans-35"/>
      </g>
     </g>
    </g>
    <g id="text_14">
     <!-- Probability Density -->
     <g style="fill: #262626" transform="translate(21.305625 180.631875)rotate(-90)scale(0.12 -0.12)">
      <defs>
       <path id="DejaVuSans-50" d="M 1259 4147 
L 1259 2394 
L 2053 2394 
Q 2494 2394 2734 2622 
Q 2975 2850 2975 3272 
Q 2975 3691 2734 3919 
Q 2494 4147 2053 4147 
L 1259 4147 
z
M 628 4666 
L 2053 4666 
Q 2838 4666 3239 4311 
Q 3641 3956 3641 3272 
Q 3641 2581 3239 2228 
Q 2838 1875 2053 1875 
L 1259 1875 
L 1259 0 
L 628 0 
L 628 4666 
z
" transform="scale(0.015625)"/>
       <path id="DejaVuSans-62" d="M 3116 1747 
Q 3116 2381 2855 2742 
Q 2594 3103 2138 3103 
Q 1681 3103 1420 2742 
Q 1159 2381 1159 1747 
Q 1159 1113 1420 752 
Q 1681 391 2138 391 
Q 2594 391 2855 752 
Q 3116 1113 3116 1747 
z
M 1159 2969 
Q 1341 3281 1617 3432 
Q 1894 3584 2278 3584 
Q 2916 3584 3314 3078 
Q 3713 2572 3713 1747 
Q 3713 922 3314 415 
Q 2916 -91 2278 -91 
Q 1894 -91 1617 61 
Q 1341 213 1159 525 
L 1159 0 
L 581 0 
L 581 4863 
L 1159 4863 
L 1159 2969 
z
" transform="scale(0.015625)"/>
       <path id="DejaVuSans-79" d="M 2059 -325 
Q 1816 -950 1584 -1140 
Q 1353 -1331 966 -1331 
L 506 -1331 
L 506 -850 
L 844 -850 
Q 1081 -850 1212 -737 
Q 1344 -625 1503 -206 
L 1606 56 
L 191 3500 
L 800 3500 
L 1894 763 
L 2988 3500 
L 3597 3500 
L 2059 -325 
z
" transform="scale(0.015625)"/>
       <path id="DejaVuSans-44" d="M 1259 4147 
L 1259 519 
L 2022 519 
Q 2988 519 3436 956 
Q 3884 1394 3884 2338 
Q 3884 3275 3436 3711 
Q 2988 4147 2022 4147 
L 1259 4147 
z
M 628 4666 
L 1925 4666 
Q 3281 4666 3915 4102 
Q 4550 3538 4550 2338 
Q 4550 1131 3912 565 
Q 3275 0 1925 0 
L 628 0 
L 628 4666 
z
" transform="scale(0.015625)"/>
      </defs>
      <use xlink:href="#DejaVuSans-50"/>
      <use xlink:href="#DejaVuSans-72" x="58.552734"/>
      <use xlink:href="#DejaVuSans-6f" x="97.416016"/>
      <use xlink:href="#DejaVuSans-62" x="158.597656"/>
      <use xlink:href="#DejaVuSans-61" x="222.074219"/>
      <use xlink:href="#DejaVuSans-62" x="283.353516"/>
      <use xlink:href="#DejaVuSans-69" x="346.830078"/>
      <use xlink:href="#DejaVuSans-6c" x="374.613281"/>
      <use xlink:href="#DejaVuSans-69" x="402.396484"/>
      <use xlink:href="#DejaVuSans-74" x="430.179688"/>
      <use xlink:href="#DejaVuSans-79" x="469.388672"/>
      <use xlink:href="#DejaVuSans-20" x="528.568359"/>
      <use xlink:href="#DejaVuSans-44" x="560.355469"/>
      <use xlink:href="#DejaVuSans-65" x="637.357422"/>
      <use xlink:href="#DejaVuSans-6e" x="698.880859"/>
      <use xlink:href="#DejaVuSans-73" x="762.259766"/>
      <use xlink:href="#DejaVuSans-69" x="814.359375"/>
      <use xlink:href="#DejaVuSans-74" x="842.142578"/>
      <use xlink:href="#DejaVuSans-79" x="881.351562"/>
     </g>
    </g>
   </g>
   <g id="PolyCollection_1">
    <defs>
     <path id="mea7dbde504" d="M 61.431818 -60.709091 
L 61.431818 -60.709091 
L 61.774798 -60.709091 
L 62.117777 -60.709091 
L 62.460756 -60.709091 
L 62.803736 -60.709091 
L 63.146715 -60.709091 
L 63.489694 -60.709091 
L 63.832674 -60.709091 
L 64.175653 -60.709091 
L 64.518632 -60.709091 
L 64.861611 -60.709091 
L 65.204591 -60.709091 
L 65.54757 -60.709091 
L 65.89055 -60.709091 
L 66.233529 -60.709091 
L 66.576508 -60.709091 
L 66.919488 -60.709091 
L 67.262467 -60.709091 
L 67.605447 -60.709091 
L 67.948426 -60.709091 
L 68.291405 -60.709091 
L 68.634385 -60.709091 
L 68.977364 -60.709091 
L 69.320343 -60.709091 
L 69.663323 -60.709091 
L 70.006302 -60.709091 
L 70.349281 -60.709091 
L 70.69226 -60.709091 
L 71.03524 -60.709091 
L 71.378219 -60.709091 
L 71.721198 -60.709091 
L 72.064178 -60.709091 
L 72.407157 -60.709091 
L 72.750136 -60.709091 
L 73.093115 -60.709091 
L 73.436094 -60.709091 
L 73.779075 -60.709091 
L 74.122054 -60.709091 
L 74.465033 -60.709091 
L 74.808012 -60.709091 
L 75.150991 -60.709091 
L 75.493971 -60.709091 
L 75.836951 -60.709091 
L 76.17993 -60.709091 
L 76.522909 -60.709091 
L 76.865888 -60.709091 
L 77.208867 -60.709091 
L 77.551847 -60.709091 
L 77.894827 -60.709091 
L 78.237806 -60.709091 
L 78.580785 -60.709091 
L 78.923764 -60.709091 
L 79.266744 -60.709091 
L 79.609723 -60.709091 
L 79.952702 -60.709091 
L 80.295682 -60.709091 
L 80.638661 -60.709091 
L 80.981641 -60.709092 
L 81.32462 -60.709092 
L 81.667599 -60.709092 
L 82.010578 -60.709092 
L 82.353558 -60.709092 
L 82.696538 -60.709092 
L 83.039517 -60.709092 
L 83.382496 -60.709092 
L 83.725475 -60.709092 
L 84.068454 -60.709092 
L 84.411433 -60.709092 
L 84.754412 -60.709093 
L 85.097392 -60.709093 
L 85.440371 -60.709093 
L 85.783352 -60.709093 
L 86.126331 -60.709093 
L 86.469311 -60.709093 
L 86.81229 -60.709094 
L 87.155269 -60.709094 
L 87.498248 -60.709094 
L 87.841227 -60.709094 
L 88.184206 -60.709095 
L 88.527185 -60.709095 
L 88.870165 -60.709095 
L 89.213144 -60.709096 
L 89.556123 -60.709096 
L 89.899102 -60.709097 
L 90.242084 -60.709097 
L 90.585063 -60.709098 
L 90.928042 -60.709098 
L 91.271021 -60.709099 
L 91.614 -60.7091 
L 91.956979 -60.7091 
L 92.299959 -60.709101 
L 92.642938 -60.709102 
L 92.985917 -60.709103 
L 93.328896 -60.709104 
L 93.671875 -60.709105 
L 94.014854 -60.709107 
L 94.357836 -60.709108 
L 94.700815 -60.709109 
L 95.043794 -60.709111 
L 95.386773 -60.709112 
L 95.729752 -60.709114 
L 96.072732 -60.709116 
L 96.415711 -60.709118 
L 96.75869 -60.709121 
L 97.101669 -60.709123 
L 97.444648 -60.709126 
L 97.787627 -60.709129 
L 98.130606 -60.709132 
L 98.473586 -60.709135 
L 98.816567 -60.709139 
L 99.159546 -60.709142 
L 99.502526 -60.709147 
L 99.845505 -60.709151 
L 100.188484 -60.709156 
L 100.531463 -60.709161 
L 100.874442 -60.709167 
L 101.217421 -60.709173 
L 101.5604 -60.70918 
L 101.90338 -60.709187 
L 102.246359 -60.709194 
L 102.589338 -60.709202 
L 102.932317 -60.709211 
L 103.275299 -60.709221 
L 103.618278 -60.709231 
L 103.961257 -60.709242 
L 104.304236 -60.709253 
L 104.647215 -60.709266 
L 104.990194 -60.70928 
L 105.333173 -60.709294 
L 105.676153 -60.70931 
L 106.019132 -60.709327 
L 106.362111 -60.709345 
L 106.70509 -60.709364 
L 107.048069 -60.709385 
L 107.391048 -60.709408 
L 107.734027 -60.709432 
L 108.077007 -60.709458 
L 108.419986 -60.709485 
L 108.762965 -60.709515 
L 109.105944 -60.709547 
L 109.448923 -60.709581 
L 109.791907 -60.709617 
L 110.134886 -60.709657 
L 110.477866 -60.709699 
L 110.820845 -60.709744 
L 111.163824 -60.709792 
L 111.506803 -60.709843 
L 111.849782 -60.709898 
L 112.192761 -60.709957 
L 112.53574 -60.71002 
L 112.87872 -60.710088 
L 113.221699 -60.71016 
L 113.564678 -60.710237 
L 113.907657 -60.71032 
L 114.250636 -60.710408 
L 114.593615 -60.710503 
L 114.936594 -60.710603 
L 115.279574 -60.710711 
L 115.622553 -60.710826 
L 115.965532 -60.710949 
L 116.308511 -60.711079 
L 116.65149 -60.711219 
L 116.994469 -60.711368 
L 117.337448 -60.711528 
L 117.680428 -60.711697 
L 118.023407 -60.711878 
L 118.366386 -60.712071 
L 118.70937 -60.712277 
L 119.052349 -60.712496 
L 119.395328 -60.71273 
L 119.738307 -60.712978 
L 120.081287 -60.713243 
L 120.424266 -60.713525 
L 120.767245 -60.713826 
L 121.110224 -60.714145 
L 121.453203 -60.714486 
L 121.796182 -60.714848 
L 122.139161 -60.715232 
L 122.482141 -60.715642 
L 122.82512 -60.716077 
L 123.168099 -60.71654 
L 123.511078 -60.717032 
L 123.854057 -60.717554 
L 124.197036 -60.718109 
L 124.540015 -60.718699 
L 124.882995 -60.719325 
L 125.225974 -60.719989 
L 125.568953 -60.720695 
L 125.911932 -60.721444 
L 126.254911 -60.722238 
L 126.59789 -60.723081 
L 126.940869 -60.723974 
L 127.283854 -60.724922 
L 127.626833 -60.725927 
L 127.969812 -60.726991 
L 128.312791 -60.728119 
L 128.65577 -60.729315 
L 128.998749 -60.730581 
L 129.341728 -60.731922 
L 129.684708 -60.733341 
L 130.027687 -60.734844 
L 130.370666 -60.736434 
L 130.713645 -60.738117 
L 131.056624 -60.739897 
L 131.399603 -60.741779 
L 131.742582 -60.74377 
L 132.085562 -60.745875 
L 132.428541 -60.748099 
L 132.77152 -60.75045 
L 133.114499 -60.752934 
L 133.457478 -60.755557 
L 133.800457 -60.758328 
L 134.143436 -60.761253 
L 134.486416 -60.764341 
L 134.829395 -60.7676 
L 135.172374 -60.771039 
L 135.515353 -60.774667 
L 135.858332 -60.778494 
L 136.201316 -60.782529 
L 136.544295 -60.786783 
L 136.887275 -60.791267 
L 137.230254 -60.795993 
L 137.573233 -60.800971 
L 137.916212 -60.806216 
L 138.259191 -60.811739 
L 138.60217 -60.817555 
L 138.945149 -60.823677 
L 139.288129 -60.830121 
L 139.631108 -60.836901 
L 139.974087 -60.844034 
L 140.317066 -60.851537 
L 140.660045 -60.859427 
L 141.003024 -60.867722 
L 141.346003 -60.876441 
L 141.688983 -60.885604 
L 142.031962 -60.895231 
L 142.374941 -60.905344 
L 142.71792 -60.915965 
L 143.060899 -60.927117 
L 143.403878 -60.938824 
L 143.746857 -60.951112 
L 144.089837 -60.964005 
L 144.432816 -60.977532 
L 144.775795 -60.99172 
L 145.118779 -61.006598 
L 145.461758 -61.022196 
L 145.804737 -61.038547 
L 146.147716 -61.055681 
L 146.490696 -61.073634 
L 146.833675 -61.092439 
L 147.176654 -61.112135 
L 147.519633 -61.132757 
L 147.862612 -61.154344 
L 148.205591 -61.176939 
L 148.54857 -61.200581 
L 148.89155 -61.225314 
L 149.234529 -61.251184 
L 149.577508 -61.278236 
L 149.920487 -61.306517 
L 150.263466 -61.336079 
L 150.606445 -61.366972 
L 150.949424 -61.399248 
L 151.292404 -61.432963 
L 151.635383 -61.468173 
L 151.978362 -61.504936 
L 152.321341 -61.543312 
L 152.66432 -61.583364 
L 153.007299 -61.625154 
L 153.350278 -61.668751 
L 153.693258 -61.71422 
L 154.036237 -61.761632 
L 154.379216 -61.811061 
L 154.722195 -61.86258 
L 155.065174 -61.916265 
L 155.408153 -61.972195 
L 155.751132 -62.030452 
L 156.094111 -62.091119 
L 156.437091 -62.154282 
L 156.78007 -62.220028 
L 157.123049 -62.28845 
L 157.466028 -62.359638 
L 157.809007 -62.43369 
L 158.151997 -62.510706 
L 158.494976 -62.59078 
L 158.837955 -62.67402 
L 159.180934 -62.760533 
L 159.523913 -62.850424 
L 159.866892 -62.943806 
L 160.209871 -63.040793 
L 160.55285 -63.141503 
L 160.89583 -63.246054 
L 161.238809 -63.354567 
L 161.581788 -63.467169 
L 161.924767 -63.583989 
L 162.267746 -63.705156 
L 162.610725 -63.830803 
L 162.953704 -63.961068 
L 163.296684 -64.096092 
L 163.639663 -64.236014 
L 163.982642 -64.38098 
L 164.325621 -64.531138 
L 164.6686 -64.686641 
L 165.011579 -64.847641 
L 165.354558 -65.014294 
L 165.697538 -65.186761 
L 166.040517 -65.365204 
L 166.383496 -65.549787 
L 166.726475 -65.74068 
L 167.069454 -65.938053 
L 167.412433 -66.14208 
L 167.755412 -66.352935 
L 168.098392 -66.570798 
L 168.441371 -66.795853 
L 168.78435 -67.028283 
L 169.127329 -67.268272 
L 169.470308 -67.516012 
L 169.813287 -67.771691 
L 170.156266 -68.035509 
L 170.499246 -68.307657 
L 170.842225 -68.588336 
L 171.185204 -68.877742 
L 171.528183 -69.176087 
L 171.871162 -69.483567 
L 172.214141 -69.800392 
L 172.55712 -70.126766 
L 172.900099 -70.462907 
L 173.243079 -70.80902 
L 173.586058 -71.165319 
L 173.929037 -71.532014 
L 174.272016 -71.909332 
L 174.614995 -72.297471 
L 174.957974 -72.696667 
L 175.300953 -73.107124 
L 175.643943 -73.529086 
L 175.986922 -73.96273 
L 176.329901 -74.408304 
L 176.67288 -74.866023 
L 177.015859 -75.336091 
L 177.358838 -75.81875 
L 177.701818 -76.314208 
L 178.044797 -76.822678 
L 178.387776 -77.344383 
L 178.730755 -77.879542 
L 179.073734 -78.428359 
L 179.416713 -78.991055 
L 179.759692 -79.567843 
L 180.102672 -80.158934 
L 180.445651 -80.764525 
L 180.78863 -81.384829 
L 181.131609 -82.020052 
L 181.474588 -82.67039 
L 181.817567 -83.336032 
L 182.160546 -84.017182 
L 182.503526 -84.714029 
L 182.846505 -85.426749 
L 183.189484 -86.155532 
L 183.532463 -86.900556 
L 183.875442 -87.661993 
L 184.218421 -88.440001 
L 184.5614 -89.234753 
L 184.90438 -90.046405 
L 185.247359 -90.87511 
L 185.590338 -91.720998 
L 185.933317 -92.58422 
L 186.276296 -93.464911 
L 186.619275 -94.363177 
L 186.962254 -95.27916 
L 187.305234 -96.212957 
L 187.648213 -97.164664 
L 187.991192 -98.134386 
L 188.334171 -99.122211 
L 188.67715 -100.128195 
L 189.020129 -101.152424 
L 189.363108 -102.194954 
L 189.706087 -103.25584 
L 190.049067 -104.335083 
L 190.392046 -105.432764 
L 190.735025 -106.548865 
L 191.078004 -107.683407 
L 191.420983 -108.836395 
L 191.763962 -110.00778 
L 192.106941 -111.197564 
L 192.449921 -112.405719 
L 192.7929 -113.632163 
L 193.135889 -114.876892 
L 193.478868 -116.13974 
L 193.821847 -117.420672 
L 194.164826 -118.719553 
L 194.507806 -120.036318 
L 194.850785 -121.370809 
L 195.193764 -122.72288 
L 195.536743 -124.09239 
L 195.879722 -125.479174 
L 196.222701 -126.883031 
L 196.56568 -128.303757 
L 196.90866 -129.741165 
L 197.251639 -131.195001 
L 197.594618 -132.665035 
L 197.937597 -134.151005 
L 198.280576 -135.65265 
L 198.623555 -137.169666 
L 198.966534 -138.701781 
L 199.309514 -140.248639 
L 199.652493 -141.809909 
L 199.995472 -143.385267 
L 200.338451 -144.97434 
L 200.68143 -146.576745 
L 201.024409 -148.19208 
L 201.367388 -149.819953 
L 201.710368 -151.459937 
L 202.053347 -153.111571 
L 202.396326 -154.77441 
L 202.739305 -156.448001 
L 203.082284 -158.131821 
L 203.425263 -159.825391 
L 203.768242 -161.528206 
L 204.111222 -163.239743 
L 204.454201 -164.959427 
L 204.79718 -166.686691 
L 205.140159 -168.420995 
L 205.483138 -170.161765 
L 205.826117 -171.908372 
L 206.169096 -173.660208 
L 206.512075 -175.416652 
L 206.855055 -177.17707 
L 207.198034 -178.940807 
L 207.541013 -180.707211 
L 207.883992 -182.475593 
L 208.226971 -184.245281 
L 208.56995 -186.015571 
L 208.912929 -187.785774 
L 209.255909 -189.55514 
L 209.598888 -191.322981 
L 209.941867 -193.088531 
L 210.284846 -194.851075 
L 210.627825 -196.609837 
L 210.970814 -198.364121 
L 211.313794 -200.113063 
L 211.656773 -201.855941 
L 211.999752 -203.591971 
L 212.342731 -205.320368 
L 212.68571 -207.040348 
L 213.028689 -208.751109 
L 213.371668 -210.451868 
L 213.714648 -212.141822 
L 214.057627 -213.820136 
L 214.400606 -215.486042 
L 214.743585 -217.138738 
L 215.086564 -218.777372 
L 215.429543 -220.401194 
L 215.772522 -222.009349 
L 216.115502 -223.601053 
L 216.458481 -225.175506 
L 216.80146 -226.731905 
L 217.144439 -228.269466 
L 217.487418 -229.787352 
L 217.830397 -231.284815 
L 218.173376 -232.761053 
L 218.516356 -234.215299 
L 218.859335 -235.646768 
L 219.202314 -237.054694 
L 219.545293 -238.438346 
L 219.888272 -239.796973 
L 220.231251 -241.129827 
L 220.57423 -242.436158 
L 220.91721 -243.715251 
L 221.260189 -244.966445 
L 221.603168 -246.189042 
L 221.946147 -247.382311 
L 222.289126 -248.545607 
L 222.632105 -249.678284 
L 222.975084 -250.779699 
L 223.318063 -251.849223 
L 223.661043 -252.88623 
L 224.004022 -253.890161 
L 224.347001 -254.86046 
L 224.68998 -255.796498 
L 225.032959 -256.697754 
L 225.375938 -257.563756 
L 225.718917 -258.393947 
L 226.061897 -259.187839 
L 226.404876 -259.945031 
L 226.747855 -260.665 
L 227.090834 -261.347381 
L 227.433813 -261.991737 
L 227.776792 -262.597703 
L 228.119771 -263.164948 
L 228.462761 -263.693071 
L 228.80574 -264.18181 
L 229.148719 -264.630852 
L 229.491698 -265.039901 
L 229.834677 -265.408764 
L 230.177656 -265.737181 
L 230.520636 -266.025029 
L 230.863615 -266.27203 
L 231.206594 -266.478114 
L 231.549573 -266.643124 
L 231.892552 -266.76699 
L 232.235531 -266.849591 
L 232.57851 -266.890909 
L 232.92149 -266.890909 
L 233.264469 -266.849591 
L 233.607448 -266.76699 
L 233.950427 -266.643124 
L 234.293406 -266.478114 
L 234.636385 -266.27203 
L 234.979364 -266.025029 
L 235.322344 -265.737181 
L 235.665323 -265.408764 
L 236.008302 -265.039901 
L 236.351281 -264.630852 
L 236.69426 -264.18181 
L 237.037239 -263.693071 
L 237.380218 -263.164948 
L 237.723198 -262.597756 
L 238.066177 -261.991772 
L 238.409156 -261.347416 
L 238.752135 -260.665052 
L 239.095114 -259.945048 
L 239.438093 -259.187891 
L 239.781072 -258.393964 
L 240.124051 -257.563791 
L 240.467031 -256.697806 
L 240.81001 -255.796533 
L 241.152989 -254.860495 
L 241.495968 -253.890213 
L 241.838947 -252.886282 
L 242.181926 -251.84924 
L 242.524905 -250.779716 
L 242.867885 -249.678319 
L 243.210864 -248.545642 
L 243.553843 -247.382329 
L 243.896822 -246.189077 
L 244.239801 -244.966497 
L 244.58278 -243.715304 
L 244.925759 -242.436175 
L 245.268739 -241.129862 
L 245.611718 -239.797026 
L 245.954697 -238.438398 
L 246.297676 -237.054747 
L 246.640655 -235.646803 
L 246.983634 -234.215333 
L 247.326613 -232.761105 
L 247.669593 -231.28485 
L 248.012572 -229.787405 
L 248.355551 -228.2695 
L 248.69853 -226.731957 
L 249.041509 -225.175558 
L 249.384488 -223.601123 
L 249.727467 -222.009401 
L 250.070446 -220.401246 
L 250.413426 -218.777407 
L 250.756405 -217.138773 
L 251.099384 -215.486094 
L 251.442363 -213.820188 
L 251.785342 -212.141874 
L 252.128321 -210.45192 
L 252.4713 -208.751179 
L 252.81428 -207.0404 
L 253.157259 -205.32042 
L 253.500238 -203.592023 
L 253.843217 -201.855994 
L 254.186196 -200.113133 
L 254.529175 -198.364173 
L 254.872175 -196.609837 
L 255.215154 -194.851075 
L 255.558133 -193.088531 
L 255.901112 -191.322981 
L 256.244091 -189.55514 
L 256.587071 -187.785774 
L 256.93005 -186.015571 
L 257.273029 -184.245281 
L 257.616008 -182.475593 
L 257.958987 -180.707211 
L 258.301966 -178.940807 
L 258.644945 -177.17707 
L 258.987925 -175.416652 
L 259.330904 -173.660208 
L 259.673883 -171.908372 
L 260.016862 -170.161765 
L 260.359841 -168.420995 
L 260.70282 -166.686691 
L 261.045799 -164.959427 
L 261.388778 -163.239743 
L 261.731758 -161.528206 
L 262.074737 -159.825391 
L 262.417716 -158.131821 
L 262.760695 -156.448001 
L 263.103674 -154.77441 
L 263.446653 -153.111571 
L 263.789632 -151.459937 
L 264.132612 -149.819953 
L 264.475591 -148.19208 
L 264.81857 -146.576745 
L 265.161549 -144.97434 
L 265.504528 -143.385267 
L 265.847507 -141.809909 
L 266.190486 -140.248639 
L 266.533466 -138.701781 
L 266.876445 -137.169666 
L 267.219424 -135.65265 
L 267.562403 -134.151005 
L 267.905382 -132.665035 
L 268.248361 -131.195001 
L 268.59134 -129.741165 
L 268.93432 -128.303757 
L 269.277299 -126.883031 
L 269.620278 -125.479174 
L 269.963257 -124.09239 
L 270.306236 -122.72288 
L 270.649215 -121.370809 
L 270.992194 -120.036318 
L 271.335174 -118.719553 
L 271.678153 -117.420672 
L 272.021132 -116.13974 
L 272.364111 -114.876892 
L 272.70709 -113.632189 
L 273.050069 -112.405758 
L 273.393048 -111.197612 
L 273.736027 -110.007828 
L 274.079007 -108.836416 
L 274.421986 -107.683455 
L 274.764965 -106.548908 
L 275.107944 -105.432799 
L 275.450923 -104.335123 
L 275.793902 -103.255861 
L 276.136881 -102.194985 
L 276.479861 -101.152463 
L 276.82284 -100.128225 
L 277.165819 -99.122229 
L 277.508798 -98.134416 
L 277.851777 -97.164699 
L 278.194756 -96.212981 
L 278.537735 -95.279187 
L 278.880715 -94.36321 
L 279.223694 -93.464935 
L 279.566673 -92.584251 
L 279.909652 -91.721026 
L 280.252631 -90.875138 
L 280.59561 -90.046433 
L 280.938589 -89.234779 
L 281.281569 -88.440027 
L 281.624548 -87.662017 
L 281.967527 -86.90058 
L 282.310506 -86.155553 
L 282.653485 -85.426771 
L 282.996464 -84.714053 
L 283.339443 -84.017206 
L 283.682422 -83.336054 
L 284.025402 -82.670411 
L 284.368381 -82.020071 
L 284.71136 -81.384848 
L 285.054339 -80.764543 
L 285.397318 -80.158953 
L 285.740297 -79.56786 
L 286.083276 -78.991073 
L 286.426256 -78.428376 
L 286.769235 -77.879558 
L 287.112214 -77.3444 
L 287.455193 -76.822693 
L 287.798172 -76.314223 
L 288.141151 -75.818764 
L 288.48413 -75.336113 
L 288.82711 -74.86603 
L 289.170089 -74.408317 
L 289.513068 -73.962748 
L 289.856067 -73.529073 
L 290.199047 -73.107124 
L 290.542026 -72.696667 
L 290.885005 -72.297471 
L 291.227984 -71.909332 
L 291.570963 -71.532014 
L 291.913942 -71.165319 
L 292.256921 -70.80902 
L 292.599901 -70.462907 
L 292.94288 -70.126766 
L 293.285859 -69.800392 
L 293.628838 -69.483567 
L 293.971817 -69.176087 
L 294.314796 -68.877742 
L 294.657775 -68.588336 
L 295.000754 -68.307657 
L 295.343734 -68.035509 
L 295.686713 -67.771691 
L 296.029692 -67.516012 
L 296.372671 -67.268272 
L 296.71565 -67.028283 
L 297.058629 -66.795853 
L 297.401608 -66.570798 
L 297.744588 -66.352935 
L 298.087567 -66.14208 
L 298.430546 -65.938053 
L 298.773525 -65.74068 
L 299.116504 -65.549787 
L 299.459483 -65.365204 
L 299.802462 -65.186761 
L 300.145442 -65.014294 
L 300.488421 -64.847641 
L 300.8314 -64.686641 
L 301.174379 -64.531138 
L 301.517358 -64.38098 
L 301.860337 -64.236014 
L 302.203316 -64.096092 
L 302.546296 -63.961068 
L 302.889275 -63.830803 
L 303.232254 -63.705156 
L 303.575233 -63.583989 
L 303.918212 -63.467169 
L 304.261191 -63.354567 
L 304.60417 -63.246054 
L 304.94715 -63.141503 
L 305.290129 -63.040793 
L 305.633108 -62.943806 
L 305.976087 -62.850424 
L 306.319066 -62.760533 
L 306.662045 -62.67402 
L 307.005024 -62.59078 
L 307.348003 -62.510706 
L 307.690983 -62.433692 
L 308.033962 -62.35964 
L 308.376941 -62.288451 
L 308.71992 -62.220031 
L 309.062899 -62.154284 
L 309.405878 -62.091121 
L 309.748857 -62.030454 
L 310.091837 -61.972197 
L 310.434816 -61.916266 
L 310.777795 -61.862581 
L 311.120774 -61.811063 
L 311.463753 -61.761634 
L 311.806732 -61.714221 
L 312.149711 -61.668752 
L 312.492691 -61.625156 
L 312.83567 -61.583365 
L 313.178649 -61.543313 
L 313.521628 -61.504937 
L 313.864607 -61.468174 
L 314.207586 -61.432964 
L 314.550565 -61.399249 
L 314.893545 -61.366973 
L 315.236524 -61.33608 
L 315.579503 -61.306518 
L 315.922482 -61.278236 
L 316.265461 -61.251184 
L 316.60844 -61.225315 
L 316.951419 -61.200581 
L 317.294398 -61.176939 
L 317.637378 -61.154345 
L 317.980357 -61.132757 
L 318.323336 -61.112135 
L 318.666315 -61.09244 
L 319.009294 -61.073634 
L 319.352273 -61.055682 
L 319.695252 -61.038547 
L 320.038232 -61.022197 
L 320.381211 -61.006598 
L 320.72419 -60.99172 
L 321.067169 -60.977533 
L 321.410148 -60.964006 
L 321.753127 -60.951113 
L 322.096106 -60.938825 
L 322.439086 -60.927118 
L 322.782065 -60.915966 
L 323.125044 -60.905345 
L 323.468023 -60.895232 
L 323.811002 -60.885604 
L 324.153981 -60.876441 
L 324.49696 -60.867722 
L 324.83996 -60.859427 
L 325.182939 -60.851537 
L 325.525918 -60.844034 
L 325.868897 -60.836901 
L 326.211877 -60.830121 
L 326.554856 -60.823677 
L 326.897835 -60.817555 
L 327.240814 -60.811739 
L 327.583793 -60.806216 
L 327.926772 -60.800971 
L 328.269751 -60.795993 
L 328.61273 -60.791267 
L 328.95571 -60.786783 
L 329.298689 -60.782529 
L 329.641668 -60.778494 
L 329.984647 -60.774667 
L 330.327626 -60.771039 
L 330.670605 -60.7676 
L 331.013584 -60.764341 
L 331.356564 -60.761253 
L 331.699543 -60.758328 
L 332.042522 -60.755557 
L 332.385501 -60.752934 
L 332.72848 -60.75045 
L 333.071459 -60.748099 
L 333.414438 -60.745875 
L 333.757418 -60.74377 
L 334.100397 -60.741779 
L 334.443376 -60.739897 
L 334.786355 -60.738117 
L 335.129334 -60.736434 
L 335.472313 -60.734844 
L 335.815292 -60.733341 
L 336.158272 -60.731922 
L 336.501251 -60.730581 
L 336.84423 -60.729315 
L 337.187209 -60.728119 
L 337.530188 -60.726991 
L 337.873167 -60.725927 
L 338.216146 -60.724922 
L 338.559126 -60.723974 
L 338.902105 -60.723081 
L 339.245084 -60.722238 
L 339.588063 -60.721444 
L 339.931042 -60.720695 
L 340.274021 -60.719989 
L 340.617 -60.719325 
L 340.959979 -60.718699 
L 341.302959 -60.718109 
L 341.645938 -60.717554 
L 341.988917 -60.717032 
L 342.331896 -60.71654 
L 342.674875 -60.716077 
L 343.017854 -60.715642 
L 343.360833 -60.715232 
L 343.703813 -60.714848 
L 344.046792 -60.714486 
L 344.389771 -60.714145 
L 344.73275 -60.713826 
L 345.075729 -60.713525 
L 345.418708 -60.713243 
L 345.761687 -60.712978 
L 346.104667 -60.71273 
L 346.447646 -60.712496 
L 346.790625 -60.712277 
L 347.133604 -60.712071 
L 347.476583 -60.711878 
L 347.819562 -60.711697 
L 348.162541 -60.711528 
L 348.505521 -60.711368 
L 348.8485 -60.711219 
L 349.191479 -60.71108 
L 349.534458 -60.710949 
L 349.877437 -60.710826 
L 350.220416 -60.710711 
L 350.563395 -60.710603 
L 350.906374 -60.710503 
L 351.249354 -60.710408 
L 351.592333 -60.71032 
L 351.935312 -60.710237 
L 352.278291 -60.71016 
L 352.62127 -60.710088 
L 352.964249 -60.71002 
L 353.307228 -60.709957 
L 353.650208 -60.709898 
L 353.993187 -60.709843 
L 354.336166 -60.709792 
L 354.679145 -60.709744 
L 355.022124 -60.709699 
L 355.365103 -60.709657 
L 355.708082 -60.709617 
L 356.051062 -60.709581 
L 356.394041 -60.709547 
L 356.73702 -60.709515 
L 357.079999 -60.709485 
L 357.422978 -60.709458 
L 357.765957 -60.709432 
L 358.108936 -60.709408 
L 358.451916 -60.709385 
L 358.794895 -60.709364 
L 359.137874 -60.709345 
L 359.480853 -60.709327 
L 359.823832 -60.70931 
L 360.166832 -60.709294 
L 360.509811 -60.70928 
L 360.85279 -60.709266 
L 361.195769 -60.709253 
L 361.538748 -60.709242 
L 361.881727 -60.709231 
L 362.224706 -60.709221 
L 362.567686 -60.709211 
L 362.910665 -60.709202 
L 363.253644 -60.709194 
L 363.596623 -60.709187 
L 363.939602 -60.70918 
L 364.282581 -60.709173 
L 364.62556 -60.709167 
L 364.96854 -60.709161 
L 365.311519 -60.709156 
L 365.654498 -60.709151 
L 365.997477 -60.709147 
L 366.340456 -60.709142 
L 366.683435 -60.709139 
L 367.026414 -60.709135 
L 367.369394 -60.709132 
L 367.712373 -60.709129 
L 368.055352 -60.709126 
L 368.398331 -60.709123 
L 368.74131 -60.709121 
L 369.084289 -60.709118 
L 369.427268 -60.709116 
L 369.770248 -60.709114 
L 370.113227 -60.709112 
L 370.456206 -60.709111 
L 370.799185 -60.709109 
L 371.142164 -60.709108 
L 371.485143 -60.709107 
L 371.828122 -60.709105 
L 372.171102 -60.709104 
L 372.514081 -60.709103 
L 372.85706 -60.709102 
L 373.200039 -60.709101 
L 373.543018 -60.7091 
L 373.885997 -60.7091 
L 374.228976 -60.709099 
L 374.571955 -60.709098 
L 374.914935 -60.709098 
L 375.257914 -60.709097 
L 375.600893 -60.709097 
L 375.943872 -60.709096 
L 376.286851 -60.709096 
L 376.62983 -60.709095 
L 376.972809 -60.709095 
L 377.315789 -60.709095 
L 377.658768 -60.709094 
L 378.001747 -60.709094 
L 378.344726 -60.709094 
L 378.687705 -60.709094 
L 379.030684 -60.709093 
L 379.373663 -60.709093 
L 379.716643 -60.709093 
L 380.059622 -60.709093 
L 380.402601 -60.709093 
L 380.74558 -60.709093 
L 381.088559 -60.709092 
L 381.431538 -60.709092 
L 381.774517 -60.709092 
L 382.117497 -60.709092 
L 382.460476 -60.709092 
L 382.803455 -60.709092 
L 383.146434 -60.709092 
L 383.489413 -60.709092 
L 383.832392 -60.709092 
L 384.175371 -60.709092 
L 384.51835 -60.709092 
L 384.86133 -60.709091 
L 385.204309 -60.709091 
L 385.547288 -60.709091 
L 385.890267 -60.709091 
L 386.233246 -60.709091 
L 386.576225 -60.709091 
L 386.919204 -60.709091 
L 387.262184 -60.709091 
L 387.605163 -60.709091 
L 387.948142 -60.709091 
L 388.291121 -60.709091 
L 388.6341 -60.709091 
L 388.977079 -60.709091 
L 389.320058 -60.709091 
L 389.663038 -60.709091 
L 390.006017 -60.709091 
L 390.348996 -60.709091 
L 390.691975 -60.709091 
L 391.034954 -60.709091 
L 391.377933 -60.709091 
L 391.720912 -60.709091 
L 392.063892 -60.709091 
L 392.406871 -60.709091 
L 392.74985 -60.709091 
L 393.092829 -60.709091 
L 393.435808 -60.709091 
L 393.778787 -60.709091 
L 394.121766 -60.709091 
L 394.464746 -60.709091 
L 394.807725 -60.709091 
L 395.150724 -60.709091 
L 395.493703 -60.709091 
L 395.836682 -60.709091 
L 396.179662 -60.709091 
L 396.522641 -60.709091 
L 396.86562 -60.709091 
L 397.208599 -60.709091 
L 397.551578 -60.709091 
L 397.894557 -60.709091 
L 398.237536 -60.709091 
L 398.580516 -60.709091 
L 398.923495 -60.709091 
L 399.266474 -60.709091 
L 399.609453 -60.709091 
L 399.952432 -60.709091 
L 400.295411 -60.709091 
L 400.63839 -60.709091 
L 400.98137 -60.709091 
L 401.324349 -60.709091 
L 401.667328 -60.709091 
L 402.010307 -60.709091 
L 402.353286 -60.709091 
L 402.696265 -60.709091 
L 403.039244 -60.709091 
L 403.382224 -60.709091 
L 403.725203 -60.709091 
L 404.068182 -60.709091 
L 404.068182 -60.709091 
L 404.068182 -60.709091 
L 403.725203 -60.709091 
L 403.382224 -60.709091 
L 403.039244 -60.709091 
L 402.696265 -60.709091 
L 402.353286 -60.709091 
L 402.010307 -60.709091 
L 401.667328 -60.709091 
L 401.324349 -60.709091 
L 400.98137 -60.709091 
L 400.63839 -60.709091 
L 400.295411 -60.709091 
L 399.952432 -60.709091 
L 399.609453 -60.709091 
L 399.266474 -60.709091 
L 398.923495 -60.709091 
L 398.580516 -60.709091 
L 398.237536 -60.709091 
L 397.894557 -60.709091 
L 397.551578 -60.709091 
L 397.208599 -60.709091 
L 396.86562 -60.709091 
L 396.522641 -60.709091 
L 396.179662 -60.709091 
L 395.836682 -60.709091 
L 395.493703 -60.709091 
L 395.150724 -60.709091 
L 394.807725 -60.709091 
L 394.464746 -60.709091 
L 394.121766 -60.709091 
L 393.778787 -60.709091 
L 393.435808 -60.709091 
L 393.092829 -60.709091 
L 392.74985 -60.709091 
L 392.406871 -60.709091 
L 392.063892 -60.709091 
L 391.720912 -60.709091 
L 391.377933 -60.709091 
L 391.034954 -60.709091 
L 390.691975 -60.709091 
L 390.348996 -60.709091 
L 390.006017 -60.709091 
L 389.663038 -60.709091 
L 389.320058 -60.709091 
L 388.977079 -60.709091 
L 388.6341 -60.709091 
L 388.291121 -60.709091 
L 387.948142 -60.709091 
L 387.605163 -60.709091 
L 387.262184 -60.709091 
L 386.919204 -60.709091 
L 386.576225 -60.709091 
L 386.233246 -60.709091 
L 385.890267 -60.709091 
L 385.547288 -60.709091 
L 385.204309 -60.709091 
L 384.86133 -60.709091 
L 384.51835 -60.709091 
L 384.175371 -60.709091 
L 383.832392 -60.709091 
L 383.489413 -60.709091 
L 383.146434 -60.709091 
L 382.803455 -60.709091 
L 382.460476 -60.709091 
L 382.117497 -60.709091 
L 381.774517 -60.709091 
L 381.431538 -60.709091 
L 381.088559 -60.709091 
L 380.74558 -60.709091 
L 380.402601 -60.709091 
L 380.059622 -60.709091 
L 379.716643 -60.709091 
L 379.373663 -60.709091 
L 379.030684 -60.709091 
L 378.687705 -60.709091 
L 378.344726 -60.709091 
L 378.001747 -60.709091 
L 377.658768 -60.709091 
L 377.315789 -60.709091 
L 376.972809 -60.709091 
L 376.62983 -60.709091 
L 376.286851 -60.709091 
L 375.943872 -60.709091 
L 375.600893 -60.709091 
L 375.257914 -60.709091 
L 374.914935 -60.709091 
L 374.571955 -60.709091 
L 374.228976 -60.709091 
L 373.885997 -60.709091 
L 373.543018 -60.709091 
L 373.200039 -60.709091 
L 372.85706 -60.709091 
L 372.514081 -60.709091 
L 372.171102 -60.709091 
L 371.828122 -60.709091 
L 371.485143 -60.709091 
L 371.142164 -60.709091 
L 370.799185 -60.709091 
L 370.456206 -60.709091 
L 370.113227 -60.709091 
L 369.770248 -60.709091 
L 369.427268 -60.709091 
L 369.084289 -60.709091 
L 368.74131 -60.709091 
L 368.398331 -60.709091 
L 368.055352 -60.709091 
L 367.712373 -60.709091 
L 367.369394 -60.709091 
L 367.026414 -60.709091 
L 366.683435 -60.709091 
L 366.340456 -60.709091 
L 365.997477 -60.709091 
L 365.654498 -60.709091 
L 365.311519 -60.709091 
L 364.96854 -60.709091 
L 364.62556 -60.709091 
L 364.282581 -60.709091 
L 363.939602 -60.709091 
L 363.596623 -60.709091 
L 363.253644 -60.709091 
L 362.910665 -60.709091 
L 362.567686 -60.709091 
L 362.224706 -60.709091 
L 361.881727 -60.709091 
L 361.538748 -60.709091 
L 361.195769 -60.709091 
L 360.85279 -60.709091 
L 360.509811 -60.709091 
L 360.166832 -60.709091 
L 359.823832 -60.709091 
L 359.480853 -60.709091 
L 359.137874 -60.709091 
L 358.794895 -60.709091 
L 358.451916 -60.709091 
L 358.108936 -60.709091 
L 357.765957 -60.709091 
L 357.422978 -60.709091 
L 357.079999 -60.709091 
L 356.73702 -60.709091 
L 356.394041 -60.709091 
L 356.051062 -60.709091 
L 355.708082 -60.709091 
L 355.365103 -60.709091 
L 355.022124 -60.709091 
L 354.679145 -60.709091 
L 354.336166 -60.709091 
L 353.993187 -60.709091 
L 353.650208 -60.709091 
L 353.307228 -60.709091 
L 352.964249 -60.709091 
L 352.62127 -60.709091 
L 352.278291 -60.709091 
L 351.935312 -60.709091 
L 351.592333 -60.709091 
L 351.249354 -60.709091 
L 350.906374 -60.709091 
L 350.563395 -60.709091 
L 350.220416 -60.709091 
L 349.877437 -60.709091 
L 349.534458 -60.709091 
L 349.191479 -60.709091 
L 348.8485 -60.709091 
L 348.505521 -60.709091 
L 348.162541 -60.709091 
L 347.819562 -60.709091 
L 347.476583 -60.709091 
L 347.133604 -60.709091 
L 346.790625 -60.709091 
L 346.447646 -60.709091 
L 346.104667 -60.709091 
L 345.761687 -60.709091 
L 345.418708 -60.709091 
L 345.075729 -60.709091 
L 344.73275 -60.709091 
L 344.389771 -60.709091 
L 344.046792 -60.709091 
L 343.703813 -60.709091 
L 343.360833 -60.709091 
L 343.017854 -60.709091 
L 342.674875 -60.709091 
L 342.331896 -60.709091 
L 341.988917 -60.709091 
L 341.645938 -60.709091 
L 341.302959 -60.709091 
L 340.959979 -60.709091 
L 340.617 -60.709091 
L 340.274021 -60.709091 
L 339.931042 -60.709091 
L 339.588063 -60.709091 
L 339.245084 -60.709091 
L 338.902105 -60.709091 
L 338.559126 -60.709091 
L 338.216146 -60.709091 
L 337.873167 -60.709091 
L 337.530188 -60.709091 
L 337.187209 -60.709091 
L 336.84423 -60.709091 
L 336.501251 -60.709091 
L 336.158272 -60.709091 
L 335.815292 -60.709091 
L 335.472313 -60.709091 
L 335.129334 -60.709091 
L 334.786355 -60.709091 
L 334.443376 -60.709091 
L 334.100397 -60.709091 
L 333.757418 -60.709091 
L 333.414438 -60.709091 
L 333.071459 -60.709091 
L 332.72848 -60.709091 
L 332.385501 -60.709091 
L 332.042522 -60.709091 
L 331.699543 -60.709091 
L 331.356564 -60.709091 
L 331.013584 -60.709091 
L 330.670605 -60.709091 
L 330.327626 -60.709091 
L 329.984647 -60.709091 
L 329.641668 -60.709091 
L 329.298689 -60.709091 
L 328.95571 -60.709091 
L 328.61273 -60.709091 
L 328.269751 -60.709091 
L 327.926772 -60.709091 
L 327.583793 -60.709091 
L 327.240814 -60.709091 
L 326.897835 -60.709091 
L 326.554856 -60.709091 
L 326.211877 -60.709091 
L 325.868897 -60.709091 
L 325.525918 -60.709091 
L 325.182939 -60.709091 
L 324.83996 -60.709091 
L 324.49696 -60.709091 
L 324.153981 -60.709091 
L 323.811002 -60.709091 
L 323.468023 -60.709091 
L 323.125044 -60.709091 
L 322.782065 -60.709091 
L 322.439086 -60.709091 
L 322.096106 -60.709091 
L 321.753127 -60.709091 
L 321.410148 -60.709091 
L 321.067169 -60.709091 
L 320.72419 -60.709091 
L 320.381211 -60.709091 
L 320.038232 -60.709091 
L 319.695252 -60.709091 
L 319.352273 -60.709091 
L 319.009294 -60.709091 
L 318.666315 -60.709091 
L 318.323336 -60.709091 
L 317.980357 -60.709091 
L 317.637378 -60.709091 
L 317.294398 -60.709091 
L 316.951419 -60.709091 
L 316.60844 -60.709091 
L 316.265461 -60.709091 
L 315.922482 -60.709091 
L 315.579503 -60.709091 
L 315.236524 -60.709091 
L 314.893545 -60.709091 
L 314.550565 -60.709091 
L 314.207586 -60.709091 
L 313.864607 -60.709091 
L 313.521628 -60.709091 
L 313.178649 -60.709091 
L 312.83567 -60.709091 
L 312.492691 -60.709091 
L 312.149711 -60.709091 
L 311.806732 -60.709091 
L 311.463753 -60.709091 
L 311.120774 -60.709091 
L 310.777795 -60.709091 
L 310.434816 -60.709091 
L 310.091837 -60.709091 
L 309.748857 -60.709091 
L 309.405878 -60.709091 
L 309.062899 -60.709091 
L 308.71992 -60.709091 
L 308.376941 -60.709091 
L 308.033962 -60.709091 
L 307.690983 -60.709091 
L 307.348003 -60.709091 
L 307.005024 -60.709091 
L 306.662045 -60.709091 
L 306.319066 -60.709091 
L 305.976087 -60.709091 
L 305.633108 -60.709091 
L 305.290129 -60.709091 
L 304.94715 -60.709091 
L 304.60417 -60.709091 
L 304.261191 -60.709091 
L 303.918212 -60.709091 
L 303.575233 -60.709091 
L 303.232254 -60.709091 
L 302.889275 -60.709091 
L 302.546296 -60.709091 
L 302.203316 -60.709091 
L 301.860337 -60.709091 
L 301.517358 -60.709091 
L 301.174379 -60.709091 
L 300.8314 -60.709091 
L 300.488421 -60.709091 
L 300.145442 -60.709091 
L 299.802462 -60.709091 
L 299.459483 -60.709091 
L 299.116504 -60.709091 
L 298.773525 -60.709091 
L 298.430546 -60.709091 
L 298.087567 -60.709091 
L 297.744588 -60.709091 
L 297.401608 -60.709091 
L 297.058629 -60.709091 
L 296.71565 -60.709091 
L 296.372671 -60.709091 
L 296.029692 -60.709091 
L 295.686713 -60.709091 
L 295.343734 -60.709091 
L 295.000754 -60.709091 
L 294.657775 -60.709091 
L 294.314796 -60.709091 
L 293.971817 -60.709091 
L 293.628838 -60.709091 
L 293.285859 -60.709091 
L 292.94288 -60.709091 
L 292.599901 -60.709091 
L 292.256921 -60.709091 
L 291.913942 -60.709091 
L 291.570963 -60.709091 
L 291.227984 -60.709091 
L 290.885005 -60.709091 
L 290.542026 -60.709091 
L 290.199047 -60.709091 
L 289.856067 -60.709091 
L 289.513068 -60.709091 
L 289.170089 -60.709091 
L 288.82711 -60.709091 
L 288.48413 -60.709091 
L 288.141151 -60.709091 
L 287.798172 -60.709091 
L 287.455193 -60.709091 
L 287.112214 -60.709091 
L 286.769235 -60.709091 
L 286.426256 -60.709091 
L 286.083276 -60.709091 
L 285.740297 -60.709091 
L 285.397318 -60.709091 
L 285.054339 -60.709091 
L 284.71136 -60.709091 
L 284.368381 -60.709091 
L 284.025402 -60.709091 
L 283.682422 -60.709091 
L 283.339443 -60.709091 
L 282.996464 -60.709091 
L 282.653485 -60.709091 
L 282.310506 -60.709091 
L 281.967527 -60.709091 
L 281.624548 -60.709091 
L 281.281569 -60.709091 
L 280.938589 -60.709091 
L 280.59561 -60.709091 
L 280.252631 -60.709091 
L 279.909652 -60.709091 
L 279.566673 -60.709091 
L 279.223694 -60.709091 
L 278.880715 -60.709091 
L 278.537735 -60.709091 
L 278.194756 -60.709091 
L 277.851777 -60.709091 
L 277.508798 -60.709091 
L 277.165819 -60.709091 
L 276.82284 -60.709091 
L 276.479861 -60.709091 
L 276.136881 -60.709091 
L 275.793902 -60.709091 
L 275.450923 -60.709091 
L 275.107944 -60.709091 
L 274.764965 -60.709091 
L 274.421986 -60.709091 
L 274.079007 -60.709091 
L 273.736027 -60.709091 
L 273.393048 -60.709091 
L 273.050069 -60.709091 
L 272.70709 -60.709091 
L 272.364111 -60.709091 
L 272.021132 -60.709091 
L 271.678153 -60.709091 
L 271.335174 -60.709091 
L 270.992194 -60.709091 
L 270.649215 -60.709091 
L 270.306236 -60.709091 
L 269.963257 -60.709091 
L 269.620278 -60.709091 
L 269.277299 -60.709091 
L 268.93432 -60.709091 
L 268.59134 -60.709091 
L 268.248361 -60.709091 
L 267.905382 -60.709091 
L 267.562403 -60.709091 
L 267.219424 -60.709091 
L 266.876445 -60.709091 
L 266.533466 -60.709091 
L 266.190486 -60.709091 
L 265.847507 -60.709091 
L 265.504528 -60.709091 
L 265.161549 -60.709091 
L 264.81857 -60.709091 
L 264.475591 -60.709091 
L 264.132612 -60.709091 
L 263.789632 -60.709091 
L 263.446653 -60.709091 
L 263.103674 -60.709091 
L 262.760695 -60.709091 
L 262.417716 -60.709091 
L 262.074737 -60.709091 
L 261.731758 -60.709091 
L 261.388778 -60.709091 
L 261.045799 -60.709091 
L 260.70282 -60.709091 
L 260.359841 -60.709091 
L 260.016862 -60.709091 
L 259.673883 -60.709091 
L 259.330904 -60.709091 
L 258.987925 -60.709091 
L 258.644945 -60.709091 
L 258.301966 -60.709091 
L 257.958987 -60.709091 
L 257.616008 -60.709091 
L 257.273029 -60.709091 
L 256.93005 -60.709091 
L 256.587071 -60.709091 
L 256.244091 -60.709091 
L 255.901112 -60.709091 
L 255.558133 -60.709091 
L 255.215154 -60.709091 
L 254.872175 -60.709091 
L 254.529175 -60.709091 
L 254.186196 -60.709091 
L 253.843217 -60.709091 
L 253.500238 -60.709091 
L 253.157259 -60.709091 
L 252.81428 -60.709091 
L 252.4713 -60.709091 
L 252.128321 -60.709091 
L 251.785342 -60.709091 
L 251.442363 -60.709091 
L 251.099384 -60.709091 
L 250.756405 -60.709091 
L 250.413426 -60.709091 
L 250.070446 -60.709091 
L 249.727467 -60.709091 
L 249.384488 -60.709091 
L 249.041509 -60.709091 
L 248.69853 -60.709091 
L 248.355551 -60.709091 
L 248.012572 -60.709091 
L 247.669593 -60.709091 
L 247.326613 -60.709091 
L 246.983634 -60.709091 
L 246.640655 -60.709091 
L 246.297676 -60.709091 
L 245.954697 -60.709091 
L 245.611718 -60.709091 
L 245.268739 -60.709091 
L 244.925759 -60.709091 
L 244.58278 -60.709091 
L 244.239801 -60.709091 
L 243.896822 -60.709091 
L 243.553843 -60.709091 
L 243.210864 -60.709091 
L 242.867885 -60.709091 
L 242.524905 -60.709091 
L 242.181926 -60.709091 
L 241.838947 -60.709091 
L 241.495968 -60.709091 
L 241.152989 -60.709091 
L 240.81001 -60.709091 
L 240.467031 -60.709091 
L 240.124051 -60.709091 
L 239.781072 -60.709091 
L 239.438093 -60.709091 
L 239.095114 -60.709091 
L 238.752135 -60.709091 
L 238.409156 -60.709091 
L 238.066177 -60.709091 
L 237.723198 -60.709091 
L 237.380218 -60.709091 
L 237.037239 -60.709091 
L 236.69426 -60.709091 
L 236.351281 -60.709091 
L 236.008302 -60.709091 
L 235.665323 -60.709091 
L 235.322344 -60.709091 
L 234.979364 -60.709091 
L 234.636385 -60.709091 
L 234.293406 -60.709091 
L 233.950427 -60.709091 
L 233.607448 -60.709091 
L 233.264469 -60.709091 
L 232.92149 -60.709091 
L 232.57851 -60.709091 
L 232.235531 -60.709091 
L 231.892552 -60.709091 
L 231.549573 -60.709091 
L 231.206594 -60.709091 
L 230.863615 -60.709091 
L 230.520636 -60.709091 
L 230.177656 -60.709091 
L 229.834677 -60.709091 
L 229.491698 -60.709091 
L 229.148719 -60.709091 
L 228.80574 -60.709091 
L 228.462761 -60.709091 
L 228.119771 -60.709091 
L 227.776792 -60.709091 
L 227.433813 -60.709091 
L 227.090834 -60.709091 
L 226.747855 -60.709091 
L 226.404876 -60.709091 
L 226.061897 -60.709091 
L 225.718917 -60.709091 
L 225.375938 -60.709091 
L 225.032959 -60.709091 
L 224.68998 -60.709091 
L 224.347001 -60.709091 
L 224.004022 -60.709091 
L 223.661043 -60.709091 
L 223.318063 -60.709091 
L 222.975084 -60.709091 
L 222.632105 -60.709091 
L 222.289126 -60.709091 
L 221.946147 -60.709091 
L 221.603168 -60.709091 
L 221.260189 -60.709091 
L 220.91721 -60.709091 
L 220.57423 -60.709091 
L 220.231251 -60.709091 
L 219.888272 -60.709091 
L 219.545293 -60.709091 
L 219.202314 -60.709091 
L 218.859335 -60.709091 
L 218.516356 -60.709091 
L 218.173376 -60.709091 
L 217.830397 -60.709091 
L 217.487418 -60.709091 
L 217.144439 -60.709091 
L 216.80146 -60.709091 
L 216.458481 -60.709091 
L 216.115502 -60.709091 
L 215.772522 -60.709091 
L 215.429543 -60.709091 
L 215.086564 -60.709091 
L 214.743585 -60.709091 
L 214.400606 -60.709091 
L 214.057627 -60.709091 
L 213.714648 -60.709091 
L 213.371668 -60.709091 
L 213.028689 -60.709091 
L 212.68571 -60.709091 
L 212.342731 -60.709091 
L 211.999752 -60.709091 
L 211.656773 -60.709091 
L 211.313794 -60.709091 
L 210.970814 -60.709091 
L 210.627825 -60.709091 
L 210.284846 -60.709091 
L 209.941867 -60.709091 
L 209.598888 -60.709091 
L 209.255909 -60.709091 
L 208.912929 -60.709091 
L 208.56995 -60.709091 
L 208.226971 -60.709091 
L 207.883992 -60.709091 
L 207.541013 -60.709091 
L 207.198034 -60.709091 
L 206.855055 -60.709091 
L 206.512075 -60.709091 
L 206.169096 -60.709091 
L 205.826117 -60.709091 
L 205.483138 -60.709091 
L 205.140159 -60.709091 
L 204.79718 -60.709091 
L 204.454201 -60.709091 
L 204.111222 -60.709091 
L 203.768242 -60.709091 
L 203.425263 -60.709091 
L 203.082284 -60.709091 
L 202.739305 -60.709091 
L 202.396326 -60.709091 
L 202.053347 -60.709091 
L 201.710368 -60.709091 
L 201.367388 -60.709091 
L 201.024409 -60.709091 
L 200.68143 -60.709091 
L 200.338451 -60.709091 
L 199.995472 -60.709091 
L 199.652493 -60.709091 
L 199.309514 -60.709091 
L 198.966534 -60.709091 
L 198.623555 -60.709091 
L 198.280576 -60.709091 
L 197.937597 -60.709091 
L 197.594618 -60.709091 
L 197.251639 -60.709091 
L 196.90866 -60.709091 
L 196.56568 -60.709091 
L 196.222701 -60.709091 
L 195.879722 -60.709091 
L 195.536743 -60.709091 
L 195.193764 -60.709091 
L 194.850785 -60.709091 
L 194.507806 -60.709091 
L 194.164826 -60.709091 
L 193.821847 -60.709091 
L 193.478868 -60.709091 
L 193.135889 -60.709091 
L 192.7929 -60.709091 
L 192.449921 -60.709091 
L 192.106941 -60.709091 
L 191.763962 -60.709091 
L 191.420983 -60.709091 
L 191.078004 -60.709091 
L 190.735025 -60.709091 
L 190.392046 -60.709091 
L 190.049067 -60.709091 
L 189.706087 -60.709091 
L 189.363108 -60.709091 
L 189.020129 -60.709091 
L 188.67715 -60.709091 
L 188.334171 -60.709091 
L 187.991192 -60.709091 
L 187.648213 -60.709091 
L 187.305234 -60.709091 
L 186.962254 -60.709091 
L 186.619275 -60.709091 
L 186.276296 -60.709091 
L 185.933317 -60.709091 
L 185.590338 -60.709091 
L 185.247359 -60.709091 
L 184.90438 -60.709091 
L 184.5614 -60.709091 
L 184.218421 -60.709091 
L 183.875442 -60.709091 
L 183.532463 -60.709091 
L 183.189484 -60.709091 
L 182.846505 -60.709091 
L 182.503526 -60.709091 
L 182.160546 -60.709091 
L 181.817567 -60.709091 
L 181.474588 -60.709091 
L 181.131609 -60.709091 
L 180.78863 -60.709091 
L 180.445651 -60.709091 
L 180.102672 -60.709091 
L 179.759692 -60.709091 
L 179.416713 -60.709091 
L 179.073734 -60.709091 
L 178.730755 -60.709091 
L 178.387776 -60.709091 
L 178.044797 -60.709091 
L 177.701818 -60.709091 
L 177.358838 -60.709091 
L 177.015859 -60.709091 
L 176.67288 -60.709091 
L 176.329901 -60.709091 
L 175.986922 -60.709091 
L 175.643943 -60.709091 
L 175.300953 -60.709091 
L 174.957974 -60.709091 
L 174.614995 -60.709091 
L 174.272016 -60.709091 
L 173.929037 -60.709091 
L 173.586058 -60.709091 
L 173.243079 -60.709091 
L 172.900099 -60.709091 
L 172.55712 -60.709091 
L 172.214141 -60.709091 
L 171.871162 -60.709091 
L 171.528183 -60.709091 
L 171.185204 -60.709091 
L 170.842225 -60.709091 
L 170.499246 -60.709091 
L 170.156266 -60.709091 
L 169.813287 -60.709091 
L 169.470308 -60.709091 
L 169.127329 -60.709091 
L 168.78435 -60.709091 
L 168.441371 -60.709091 
L 168.098392 -60.709091 
L 167.755412 -60.709091 
L 167.412433 -60.709091 
L 167.069454 -60.709091 
L 166.726475 -60.709091 
L 166.383496 -60.709091 
L 166.040517 -60.709091 
L 165.697538 -60.709091 
L 165.354558 -60.709091 
L 165.011579 -60.709091 
L 164.6686 -60.709091 
L 164.325621 -60.709091 
L 163.982642 -60.709091 
L 163.639663 -60.709091 
L 163.296684 -60.709091 
L 162.953704 -60.709091 
L 162.610725 -60.709091 
L 162.267746 -60.709091 
L 161.924767 -60.709091 
L 161.581788 -60.709091 
L 161.238809 -60.709091 
L 160.89583 -60.709091 
L 160.55285 -60.709091 
L 160.209871 -60.709091 
L 159.866892 -60.709091 
L 159.523913 -60.709091 
L 159.180934 -60.709091 
L 158.837955 -60.709091 
L 158.494976 -60.709091 
L 158.151997 -60.709091 
L 157.809007 -60.709091 
L 157.466028 -60.709091 
L 157.123049 -60.709091 
L 156.78007 -60.709091 
L 156.437091 -60.709091 
L 156.094111 -60.709091 
L 155.751132 -60.709091 
L 155.408153 -60.709091 
L 155.065174 -60.709091 
L 154.722195 -60.709091 
L 154.379216 -60.709091 
L 154.036237 -60.709091 
L 153.693258 -60.709091 
L 153.350278 -60.709091 
L 153.007299 -60.709091 
L 152.66432 -60.709091 
L 152.321341 -60.709091 
L 151.978362 -60.709091 
L 151.635383 -60.709091 
L 151.292404 -60.709091 
L 150.949424 -60.709091 
L 150.606445 -60.709091 
L 150.263466 -60.709091 
L 149.920487 -60.709091 
L 149.577508 -60.709091 
L 149.234529 -60.709091 
L 148.89155 -60.709091 
L 148.54857 -60.709091 
L 148.205591 -60.709091 
L 147.862612 -60.709091 
L 147.519633 -60.709091 
L 147.176654 -60.709091 
L 146.833675 -60.709091 
L 146.490696 -60.709091 
L 146.147716 -60.709091 
L 145.804737 -60.709091 
L 145.461758 -60.709091 
L 145.118779 -60.709091 
L 144.775795 -60.709091 
L 144.432816 -60.709091 
L 144.089837 -60.709091 
L 143.746857 -60.709091 
L 143.403878 -60.709091 
L 143.060899 -60.709091 
L 142.71792 -60.709091 
L 142.374941 -60.709091 
L 142.031962 -60.709091 
L 141.688983 -60.709091 
L 141.346003 -60.709091 
L 141.003024 -60.709091 
L 140.660045 -60.709091 
L 140.317066 -60.709091 
L 139.974087 -60.709091 
L 139.631108 -60.709091 
L 139.288129 -60.709091 
L 138.945149 -60.709091 
L 138.60217 -60.709091 
L 138.259191 -60.709091 
L 137.916212 -60.709091 
L 137.573233 -60.709091 
L 137.230254 -60.709091 
L 136.887275 -60.709091 
L 136.544295 -60.709091 
L 136.201316 -60.709091 
L 135.858332 -60.709091 
L 135.515353 -60.709091 
L 135.172374 -60.709091 
L 134.829395 -60.709091 
L 134.486416 -60.709091 
L 134.143436 -60.709091 
L 133.800457 -60.709091 
L 133.457478 -60.709091 
L 133.114499 -60.709091 
L 132.77152 -60.709091 
L 132.428541 -60.709091 
L 132.085562 -60.709091 
L 131.742582 -60.709091 
L 131.399603 -60.709091 
L 131.056624 -60.709091 
L 130.713645 -60.709091 
L 130.370666 -60.709091 
L 130.027687 -60.709091 
L 129.684708 -60.709091 
L 129.341728 -60.709091 
L 128.998749 -60.709091 
L 128.65577 -60.709091 
L 128.312791 -60.709091 
L 127.969812 -60.709091 
L 127.626833 -60.709091 
L 127.283854 -60.709091 
L 126.940869 -60.709091 
L 126.59789 -60.709091 
L 126.254911 -60.709091 
L 125.911932 -60.709091 
L 125.568953 -60.709091 
L 125.225974 -60.709091 
L 124.882995 -60.709091 
L 124.540015 -60.709091 
L 124.197036 -60.709091 
L 123.854057 -60.709091 
L 123.511078 -60.709091 
L 123.168099 -60.709091 
L 122.82512 -60.709091 
L 122.482141 -60.709091 
L 122.139161 -60.709091 
L 121.796182 -60.709091 
L 121.453203 -60.709091 
L 121.110224 -60.709091 
L 120.767245 -60.709091 
L 120.424266 -60.709091 
L 120.081287 -60.709091 
L 119.738307 -60.709091 
L 119.395328 -60.709091 
L 119.052349 -60.709091 
L 118.70937 -60.709091 
L 118.366386 -60.709091 
L 118.023407 -60.709091 
L 117.680428 -60.709091 
L 117.337448 -60.709091 
L 116.994469 -60.709091 
L 116.65149 -60.709091 
L 116.308511 -60.709091 
L 115.965532 -60.709091 
L 115.622553 -60.709091 
L 115.279574 -60.709091 
L 114.936594 -60.709091 
L 114.593615 -60.709091 
L 114.250636 -60.709091 
L 113.907657 -60.709091 
L 113.564678 -60.709091 
L 113.221699 -60.709091 
L 112.87872 -60.709091 
L 112.53574 -60.709091 
L 112.192761 -60.709091 
L 111.849782 -60.709091 
L 111.506803 -60.709091 
L 111.163824 -60.709091 
L 110.820845 -60.709091 
L 110.477866 -60.709091 
L 110.134886 -60.709091 
L 109.791907 -60.709091 
L 109.448923 -60.709091 
L 109.105944 -60.709091 
L 108.762965 -60.709091 
L 108.419986 -60.709091 
L 108.077007 -60.709091 
L 107.734027 -60.709091 
L 107.391048 -60.709091 
L 107.048069 -60.709091 
L 106.70509 -60.709091 
L 106.362111 -60.709091 
L 106.019132 -60.709091 
L 105.676153 -60.709091 
L 105.333173 -60.709091 
L 104.990194 -60.709091 
L 104.647215 -60.709091 
L 104.304236 -60.709091 
L 103.961257 -60.709091 
L 103.618278 -60.709091 
L 103.275299 -60.709091 
L 102.932317 -60.709091 
L 102.589338 -60.709091 
L 102.246359 -60.709091 
L 101.90338 -60.709091 
L 101.5604 -60.709091 
L 101.217421 -60.709091 
L 100.874442 -60.709091 
L 100.531463 -60.709091 
L 100.188484 -60.709091 
L 99.845505 -60.709091 
L 99.502526 -60.709091 
L 99.159546 -60.709091 
L 98.816567 -60.709091 
L 98.473586 -60.709091 
L 98.130606 -60.709091 
L 97.787627 -60.709091 
L 97.444648 -60.709091 
L 97.101669 -60.709091 
L 96.75869 -60.709091 
L 96.415711 -60.709091 
L 96.072732 -60.709091 
L 95.729752 -60.709091 
L 95.386773 -60.709091 
L 95.043794 -60.709091 
L 94.700815 -60.709091 
L 94.357836 -60.709091 
L 94.014854 -60.709091 
L 93.671875 -60.709091 
L 93.328896 -60.709091 
L 92.985917 -60.709091 
L 92.642938 -60.709091 
L 92.299959 -60.709091 
L 91.956979 -60.709091 
L 91.614 -60.709091 
L 91.271021 -60.709091 
L 90.928042 -60.709091 
L 90.585063 -60.709091 
L 90.242084 -60.709091 
L 89.899102 -60.709091 
L 89.556123 -60.709091 
L 89.213144 -60.709091 
L 88.870165 -60.709091 
L 88.527185 -60.709091 
L 88.184206 -60.709091 
L 87.841227 -60.709091 
L 87.498248 -60.709091 
L 87.155269 -60.709091 
L 86.81229 -60.709091 
L 86.469311 -60.709091 
L 86.126331 -60.709091 
L 85.783352 -60.709091 
L 85.440371 -60.709091 
L 85.097392 -60.709091 
L 84.754412 -60.709091 
L 84.411433 -60.709091 
L 84.068454 -60.709091 
L 83.725475 -60.709091 
L 83.382496 -60.709091 
L 83.039517 -60.709091 
L 82.696538 -60.709091 
L 82.353558 -60.709091 
L 82.010578 -60.709091 
L 81.667599 -60.709091 
L 81.32462 -60.709091 
L 80.981641 -60.709091 
L 80.638661 -60.709091 
L 80.295682 -60.709091 
L 79.952702 -60.709091 
L 79.609723 -60.709091 
L 79.266744 -60.709091 
L 78.923764 -60.709091 
L 78.580785 -60.709091 
L 78.237806 -60.709091 
L 77.894827 -60.709091 
L 77.551847 -60.709091 
L 77.208867 -60.709091 
L 76.865888 -60.709091 
L 76.522909 -60.709091 
L 76.17993 -60.709091 
L 75.836951 -60.709091 
L 75.493971 -60.709091 
L 75.150991 -60.709091 
L 74.808012 -60.709091 
L 74.465033 -60.709091 
L 74.122054 -60.709091 
L 73.779075 -60.709091 
L 73.436094 -60.709091 
L 73.093115 -60.709091 
L 72.750136 -60.709091 
L 72.407157 -60.709091 
L 72.064178 -60.709091 
L 71.721198 -60.709091 
L 71.378219 -60.709091 
L 71.03524 -60.709091 
L 70.69226 -60.709091 
L 70.349281 -60.709091 
L 70.006302 -60.709091 
L 69.663323 -60.709091 
L 69.320343 -60.709091 
L 68.977364 -60.709091 
L 68.634385 -60.709091 
L 68.291405 -60.709091 
L 67.948426 -60.709091 
L 67.605447 -60.709091 
L 67.262467 -60.709091 
L 66.919488 -60.709091 
L 66.576508 -60.709091 
L 66.233529 -60.709091 
L 65.89055 -60.709091 
L 65.54757 -60.709091 
L 65.204591 -60.709091 
L 64.861611 -60.709091 
L 64.518632 -60.709091 
L 64.175653 -60.709091 
L 63.832674 -60.709091 
L 63.489694 -60.709091 
L 63.146715 -60.709091 
L 62.803736 -60.709091 
L 62.460756 -60.709091 
L 62.117777 -60.709091 
L 61.774798 -60.709091 
L 61.431818 -60.709091 
z
" style="stroke: #1f77b4; stroke-opacity: 0.2"/>
    </defs>
    <g clip-path="url(#p7a42270e8b)">
     <use xlink:href="#mea7dbde504" x="0" y="288" style="fill: #1f77b4; fill-opacity: 0.2; stroke: #1f77b4; stroke-opacity: 0.2"/>
    </g>
   </g>
   <g id="line2d_13">
    <path d="M 61.431818 227.290909 
L 138.60217 227.182445 
L 146.147716 226.944319 
L 151.292404 226.567037 
L 155.065174 226.083735 
L 158.151997 225.489294 
L 160.89583 224.753946 
L 163.296684 223.903908 
L 165.697538 222.813239 
L 167.755412 221.647065 
L 169.813287 220.228309 
L 171.871162 218.516433 
L 173.929037 216.467986 
L 175.643943 214.470914 
L 177.358838 212.18125 
L 179.073734 209.571641 
L 180.78863 206.615171 
L 182.846505 202.573251 
L 184.90438 197.953595 
L 186.962254 192.72084 
L 189.020129 186.847576 
L 191.078004 180.316593 
L 193.478868 171.86026 
L 195.879722 162.520826 
L 198.623555 150.830334 
L 201.710368 136.540063 
L 205.483138 117.838235 
L 215.772522 65.990651 
L 218.173376 55.238947 
L 220.231251 46.870173 
L 222.289126 39.454393 
L 224.004022 34.109839 
L 225.375938 30.436244 
L 226.747855 27.335 
L 228.119771 24.835052 
L 229.148719 23.369148 
L 230.177656 22.262819 
L 231.206594 21.521886 
L 231.892552 21.23301 
L 232.57851 21.109091 
L 233.264469 21.150409 
L 233.950427 21.356876 
L 234.979364 21.974971 
L 236.008302 22.960099 
L 237.037239 24.306929 
L 238.066177 26.008228 
L 239.438093 28.812109 
L 240.81001 32.203467 
L 242.181926 36.15076 
L 243.896822 41.810923 
L 245.611718 48.202974 
L 247.669593 56.71515 
L 250.070446 67.598754 
L 253.157259 82.67958 
L 259.330904 114.339792 
L 263.789632 136.540063 
L 266.876445 150.830334 
L 269.620278 162.520826 
L 272.021132 171.86026 
L 274.421986 180.316545 
L 276.479861 186.847537 
L 278.537735 192.720813 
L 280.59561 197.953567 
L 282.653485 202.573229 
L 284.71136 206.615152 
L 286.769235 210.120442 
L 288.82711 213.13397 
L 290.885005 215.702529 
L 292.94288 217.873234 
L 295.000754 219.692343 
L 297.058629 221.204147 
L 299.116504 222.450213 
L 301.517358 223.61902 
L 303.918212 224.532831 
L 306.662045 225.32598 
L 309.748857 225.969546 
L 313.178649 226.456687 
L 317.637378 226.845655 
L 323.468023 227.104768 
L 332.385501 227.247066 
L 353.650208 227.290102 
L 404.068182 227.290909 
L 404.068182 227.290909 
" clip-path="url(#p7a42270e8b)" style="fill: none; stroke: #1f77b4; stroke-width: 1.5; stroke-linecap: round"/>
   </g>
   <g id="patch_3">
    <path d="M 44.3 237.6 
L 44.3 10.8 
" style="fill: none; stroke: #ffffff; stroke-width: 1.25; stroke-linejoin: miter; stroke-linecap: square"/>
   </g>
   <g id="patch_4">
    <path d="M 421.2 237.6 
L 421.2 10.8 
" style="fill: none; stroke: #ffffff; stroke-width: 1.25; stroke-linejoin: miter; stroke-linecap: square"/>
   </g>
   <g id="patch_5">
    <path d="M 44.3 237.6 
L 421.2 237.6 
" style="fill: none; stroke: #ffffff; stroke-width: 1.25; stroke-linejoin: miter; stroke-linecap: square"/>
   </g>
   <g id="patch_6">
    <path d="M 44.3 10.8 
L 421.2 10.8 
" style="fill: none; stroke: #ffffff; stroke-width: 1.25; stroke-linejoin: miter; stroke-linecap: square"/>
   </g>
  </g>
 </g>
 <defs>
  <clipPath id="p7a42270e8b">
   <rect x="44.3" y="10.8" width="376.9" height="226.8"/>
  </clipPath>
 </defs>
</svg>
