<?xml version="1.0" encoding="utf-8" standalone="no"?>
<!DOCTYPE svg PUBLIC "-//W3C//DTD SVG 1.1//EN"
  "http://www.w3.org/Graphics/SVG/1.1/DTD/svg11.dtd">
<svg xmlns:xlink="http://www.w3.org/1999/xlink" width="505.854844pt" height="271.805078pt" viewBox="0 0 505.854844 271.805078" xmlns="http://www.w3.org/2000/svg" version="1.1">
 <metadata>
  <rdf:RDF xmlns:dc="http://purl.org/dc/elements/1.1/" xmlns:cc="http://creativecommons.org/ns#" xmlns:rdf="http://www.w3.org/1999/02/22-rdf-syntax-ns#">
   <cc:Work>
    <dc:type rdf:resource="http://purl.org/dc/dcmitype/StillImage"/>
    <dc:date>2022-06-23T13:52:56.993870</dc:date>
    <dc:format>image/svg+xml</dc:format>
    <dc:creator>
     <cc:Agent>
      <dc:title>Matplotlib v3.5.2, https://matplotlib.org/</dc:title>
     </cc:Agent>
    </dc:creator>
   </cc:Work>
  </rdf:RDF>
 </metadata>
 <defs>
  <style type="text/css">*{stroke-linejoin: round; stroke-linecap: butt}</style>
 </defs>
 <g id="figure_1">
  <g id="patch_1">
   <path d="M 0 271.805078 
L 505.854844 271.805078 
L 505.854844 0 
L 0 0 
L 0 271.805078 
z
" style="fill: none"/>
  </g>
  <g id="axes_1">
   <g id="patch_2">
    <path d="M 59.024844 228.819141 
L 393.824844 228.819141 
L 393.824844 11.379141 
L 59.024844 11.379141 
z
" style="fill: #eaeaf2"/>
   </g>
   <g id="matplotlib.axis_1">
    <g id="xtick_1">
     <g id="line2d_1">
      <path d="M 74.243026 228.819141 
L 74.243026 11.379141 
" clip-path="url(#p7f890afa1e)" style="fill: none; stroke: #ffffff; stroke-linecap: round"/>
     </g>
     <g id="text_1">
      <!-- 0.0 -->
      <g style="fill: #262626" transform="translate(65.496307 246.677422)scale(0.11 -0.11)">
       <defs>
        <path id="DejaVuSans-30" d="M 2034 4250 
Q 1547 4250 1301 3770 
Q 1056 3291 1056 2328 
Q 1056 1369 1301 889 
Q 1547 409 2034 409 
Q 2525 409 2770 889 
Q 3016 1369 3016 2328 
Q 3016 3291 2770 3770 
Q 2525 4250 2034 4250 
z
M 2034 4750 
Q 2819 4750 3233 4129 
Q 3647 3509 3647 2328 
Q 3647 1150 3233 529 
Q 2819 -91 2034 -91 
Q 1250 -91 836 529 
Q 422 1150 422 2328 
Q 422 3509 836 4129 
Q 1250 4750 2034 4750 
z
" transform="scale(0.015625)"/>
        <path id="DejaVuSans-2e" d="M 684 794 
L 1344 794 
L 1344 0 
L 684 0 
L 684 794 
z
" transform="scale(0.015625)"/>
       </defs>
       <use xlink:href="#DejaVuSans-30"/>
       <use xlink:href="#DejaVuSans-2e" x="63.623047"/>
       <use xlink:href="#DejaVuSans-30" x="95.410156"/>
      </g>
     </g>
    </g>
    <g id="xtick_2">
     <g id="line2d_2">
      <path d="M 135.115753 228.819141 
L 135.115753 11.379141 
" clip-path="url(#p7f890afa1e)" style="fill: none; stroke: #ffffff; stroke-linecap: round"/>
     </g>
     <g id="text_2">
      <!-- 0.2 -->
      <g style="fill: #262626" transform="translate(126.369034 246.677422)scale(0.11 -0.11)">
       <defs>
        <path id="DejaVuSans-32" d="M 1228 531 
L 3431 531 
L 3431 0 
L 469 0 
L 469 531 
Q 828 903 1448 1529 
Q 2069 2156 2228 2338 
Q 2531 2678 2651 2914 
Q 2772 3150 2772 3378 
Q 2772 3750 2511 3984 
Q 2250 4219 1831 4219 
Q 1534 4219 1204 4116 
Q 875 4013 500 3803 
L 500 4441 
Q 881 4594 1212 4672 
Q 1544 4750 1819 4750 
Q 2544 4750 2975 4387 
Q 3406 4025 3406 3419 
Q 3406 3131 3298 2873 
Q 3191 2616 2906 2266 
Q 2828 2175 2409 1742 
Q 1991 1309 1228 531 
z
" transform="scale(0.015625)"/>
       </defs>
       <use xlink:href="#DejaVuSans-30"/>
       <use xlink:href="#DejaVuSans-2e" x="63.623047"/>
       <use xlink:href="#DejaVuSans-32" x="95.410156"/>
      </g>
     </g>
    </g>
    <g id="xtick_3">
     <g id="line2d_3">
      <path d="M 195.98848 228.819141 
L 195.98848 11.379141 
" clip-path="url(#p7f890afa1e)" style="fill: none; stroke: #ffffff; stroke-linecap: round"/>
     </g>
     <g id="text_3">
      <!-- 0.4 -->
      <g style="fill: #262626" transform="translate(187.241761 246.677422)scale(0.11 -0.11)">
       <defs>
        <path id="DejaVuSans-34" d="M 2419 4116 
L 825 1625 
L 2419 1625 
L 2419 4116 
z
M 2253 4666 
L 3047 4666 
L 3047 1625 
L 3713 1625 
L 3713 1100 
L 3047 1100 
L 3047 0 
L 2419 0 
L 2419 1100 
L 313 1100 
L 313 1709 
L 2253 4666 
z
" transform="scale(0.015625)"/>
       </defs>
       <use xlink:href="#DejaVuSans-30"/>
       <use xlink:href="#DejaVuSans-2e" x="63.623047"/>
       <use xlink:href="#DejaVuSans-34" x="95.410156"/>
      </g>
     </g>
    </g>
    <g id="xtick_4">
     <g id="line2d_4">
      <path d="M 256.861207 228.819141 
L 256.861207 11.379141 
" clip-path="url(#p7f890afa1e)" style="fill: none; stroke: #ffffff; stroke-linecap: round"/>
     </g>
     <g id="text_4">
      <!-- 0.6 -->
      <g style="fill: #262626" transform="translate(248.114489 246.677422)scale(0.11 -0.11)">
       <defs>
        <path id="DejaVuSans-36" d="M 2113 2584 
Q 1688 2584 1439 2293 
Q 1191 2003 1191 1497 
Q 1191 994 1439 701 
Q 1688 409 2113 409 
Q 2538 409 2786 701 
Q 3034 994 3034 1497 
Q 3034 2003 2786 2293 
Q 2538 2584 2113 2584 
z
M 3366 4563 
L 3366 3988 
Q 3128 4100 2886 4159 
Q 2644 4219 2406 4219 
Q 1781 4219 1451 3797 
Q 1122 3375 1075 2522 
Q 1259 2794 1537 2939 
Q 1816 3084 2150 3084 
Q 2853 3084 3261 2657 
Q 3669 2231 3669 1497 
Q 3669 778 3244 343 
Q 2819 -91 2113 -91 
Q 1303 -91 875 529 
Q 447 1150 447 2328 
Q 447 3434 972 4092 
Q 1497 4750 2381 4750 
Q 2619 4750 2861 4703 
Q 3103 4656 3366 4563 
z
" transform="scale(0.015625)"/>
       </defs>
       <use xlink:href="#DejaVuSans-30"/>
       <use xlink:href="#DejaVuSans-2e" x="63.623047"/>
       <use xlink:href="#DejaVuSans-36" x="95.410156"/>
      </g>
     </g>
    </g>
    <g id="xtick_5">
     <g id="line2d_5">
      <path d="M 317.733935 228.819141 
L 317.733935 11.379141 
" clip-path="url(#p7f890afa1e)" style="fill: none; stroke: #ffffff; stroke-linecap: round"/>
     </g>
     <g id="text_5">
      <!-- 0.8 -->
      <g style="fill: #262626" transform="translate(308.987216 246.677422)scale(0.11 -0.11)">
       <defs>
        <path id="DejaVuSans-38" d="M 2034 2216 
Q 1584 2216 1326 1975 
Q 1069 1734 1069 1313 
Q 1069 891 1326 650 
Q 1584 409 2034 409 
Q 2484 409 2743 651 
Q 3003 894 3003 1313 
Q 3003 1734 2745 1975 
Q 2488 2216 2034 2216 
z
M 1403 2484 
Q 997 2584 770 2862 
Q 544 3141 544 3541 
Q 544 4100 942 4425 
Q 1341 4750 2034 4750 
Q 2731 4750 3128 4425 
Q 3525 4100 3525 3541 
Q 3525 3141 3298 2862 
Q 3072 2584 2669 2484 
Q 3125 2378 3379 2068 
Q 3634 1759 3634 1313 
Q 3634 634 3220 271 
Q 2806 -91 2034 -91 
Q 1263 -91 848 271 
Q 434 634 434 1313 
Q 434 1759 690 2068 
Q 947 2378 1403 2484 
z
M 1172 3481 
Q 1172 3119 1398 2916 
Q 1625 2713 2034 2713 
Q 2441 2713 2670 2916 
Q 2900 3119 2900 3481 
Q 2900 3844 2670 4047 
Q 2441 4250 2034 4250 
Q 1625 4250 1398 4047 
Q 1172 3844 1172 3481 
z
" transform="scale(0.015625)"/>
       </defs>
       <use xlink:href="#DejaVuSans-30"/>
       <use xlink:href="#DejaVuSans-2e" x="63.623047"/>
       <use xlink:href="#DejaVuSans-38" x="95.410156"/>
      </g>
     </g>
    </g>
    <g id="xtick_6">
     <g id="line2d_6">
      <path d="M 378.606662 228.819141 
L 378.606662 11.379141 
" clip-path="url(#p7f890afa1e)" style="fill: none; stroke: #ffffff; stroke-linecap: round"/>
     </g>
     <g id="text_6">
      <!-- 1.0 -->
      <g style="fill: #262626" transform="translate(369.859943 246.677422)scale(0.11 -0.11)">
       <defs>
        <path id="DejaVuSans-31" d="M 794 531 
L 1825 531 
L 1825 4091 
L 703 3866 
L 703 4441 
L 1819 4666 
L 2450 4666 
L 2450 531 
L 3481 531 
L 3481 0 
L 794 0 
L 794 531 
z
" transform="scale(0.015625)"/>
       </defs>
       <use xlink:href="#DejaVuSans-31"/>
       <use xlink:href="#DejaVuSans-2e" x="63.623047"/>
       <use xlink:href="#DejaVuSans-30" x="95.410156"/>
      </g>
     </g>
    </g>
    <g id="text_7">
     <!-- Normalised Beam Angle $\omega$ -->
     <g style="fill: #262626" transform="translate(147.164844 262.085078)scale(0.12 -0.12)">
      <defs>
       <path id="DejaVuSans-4e" d="M 628 4666 
L 1478 4666 
L 3547 763 
L 3547 4666 
L 4159 4666 
L 4159 0 
L 3309 0 
L 1241 3903 
L 1241 0 
L 628 0 
L 628 4666 
z
" transform="scale(0.015625)"/>
       <path id="DejaVuSans-6f" d="M 1959 3097 
Q 1497 3097 1228 2736 
Q 959 2375 959 1747 
Q 959 1119 1226 758 
Q 1494 397 1959 397 
Q 2419 397 2687 759 
Q 2956 1122 2956 1747 
Q 2956 2369 2687 2733 
Q 2419 3097 1959 3097 
z
M 1959 3584 
Q 2709 3584 3137 3096 
Q 3566 2609 3566 1747 
Q 3566 888 3137 398 
Q 2709 -91 1959 -91 
Q 1206 -91 779 398 
Q 353 888 353 1747 
Q 353 2609 779 3096 
Q 1206 3584 1959 3584 
z
" transform="scale(0.015625)"/>
       <path id="DejaVuSans-72" d="M 2631 2963 
Q 2534 3019 2420 3045 
Q 2306 3072 2169 3072 
Q 1681 3072 1420 2755 
Q 1159 2438 1159 1844 
L 1159 0 
L 581 0 
L 581 3500 
L 1159 3500 
L 1159 2956 
Q 1341 3275 1631 3429 
Q 1922 3584 2338 3584 
Q 2397 3584 2469 3576 
Q 2541 3569 2628 3553 
L 2631 2963 
z
" transform="scale(0.015625)"/>
       <path id="DejaVuSans-6d" d="M 3328 2828 
Q 3544 3216 3844 3400 
Q 4144 3584 4550 3584 
Q 5097 3584 5394 3201 
Q 5691 2819 5691 2113 
L 5691 0 
L 5113 0 
L 5113 2094 
Q 5113 2597 4934 2840 
Q 4756 3084 4391 3084 
Q 3944 3084 3684 2787 
Q 3425 2491 3425 1978 
L 3425 0 
L 2847 0 
L 2847 2094 
Q 2847 2600 2669 2842 
Q 2491 3084 2119 3084 
Q 1678 3084 1418 2786 
Q 1159 2488 1159 1978 
L 1159 0 
L 581 0 
L 581 3500 
L 1159 3500 
L 1159 2956 
Q 1356 3278 1631 3431 
Q 1906 3584 2284 3584 
Q 2666 3584 2933 3390 
Q 3200 3197 3328 2828 
z
" transform="scale(0.015625)"/>
       <path id="DejaVuSans-61" d="M 2194 1759 
Q 1497 1759 1228 1600 
Q 959 1441 959 1056 
Q 959 750 1161 570 
Q 1363 391 1709 391 
Q 2188 391 2477 730 
Q 2766 1069 2766 1631 
L 2766 1759 
L 2194 1759 
z
M 3341 1997 
L 3341 0 
L 2766 0 
L 2766 531 
Q 2569 213 2275 61 
Q 1981 -91 1556 -91 
Q 1019 -91 701 211 
Q 384 513 384 1019 
Q 384 1609 779 1909 
Q 1175 2209 1959 2209 
L 2766 2209 
L 2766 2266 
Q 2766 2663 2505 2880 
Q 2244 3097 1772 3097 
Q 1472 3097 1187 3025 
Q 903 2953 641 2809 
L 641 3341 
Q 956 3463 1253 3523 
Q 1550 3584 1831 3584 
Q 2591 3584 2966 3190 
Q 3341 2797 3341 1997 
z
" transform="scale(0.015625)"/>
       <path id="DejaVuSans-6c" d="M 603 4863 
L 1178 4863 
L 1178 0 
L 603 0 
L 603 4863 
z
" transform="scale(0.015625)"/>
       <path id="DejaVuSans-69" d="M 603 3500 
L 1178 3500 
L 1178 0 
L 603 0 
L 603 3500 
z
M 603 4863 
L 1178 4863 
L 1178 4134 
L 603 4134 
L 603 4863 
z
" transform="scale(0.015625)"/>
       <path id="DejaVuSans-73" d="M 2834 3397 
L 2834 2853 
Q 2591 2978 2328 3040 
Q 2066 3103 1784 3103 
Q 1356 3103 1142 2972 
Q 928 2841 928 2578 
Q 928 2378 1081 2264 
Q 1234 2150 1697 2047 
L 1894 2003 
Q 2506 1872 2764 1633 
Q 3022 1394 3022 966 
Q 3022 478 2636 193 
Q 2250 -91 1575 -91 
Q 1294 -91 989 -36 
Q 684 19 347 128 
L 347 722 
Q 666 556 975 473 
Q 1284 391 1588 391 
Q 1994 391 2212 530 
Q 2431 669 2431 922 
Q 2431 1156 2273 1281 
Q 2116 1406 1581 1522 
L 1381 1569 
Q 847 1681 609 1914 
Q 372 2147 372 2553 
Q 372 3047 722 3315 
Q 1072 3584 1716 3584 
Q 2034 3584 2315 3537 
Q 2597 3491 2834 3397 
z
" transform="scale(0.015625)"/>
       <path id="DejaVuSans-65" d="M 3597 1894 
L 3597 1613 
L 953 1613 
Q 991 1019 1311 708 
Q 1631 397 2203 397 
Q 2534 397 2845 478 
Q 3156 559 3463 722 
L 3463 178 
Q 3153 47 2828 -22 
Q 2503 -91 2169 -91 
Q 1331 -91 842 396 
Q 353 884 353 1716 
Q 353 2575 817 3079 
Q 1281 3584 2069 3584 
Q 2775 3584 3186 3129 
Q 3597 2675 3597 1894 
z
M 3022 2063 
Q 3016 2534 2758 2815 
Q 2500 3097 2075 3097 
Q 1594 3097 1305 2825 
Q 1016 2553 972 2059 
L 3022 2063 
z
" transform="scale(0.015625)"/>
       <path id="DejaVuSans-64" d="M 2906 2969 
L 2906 4863 
L 3481 4863 
L 3481 0 
L 2906 0 
L 2906 525 
Q 2725 213 2448 61 
Q 2172 -91 1784 -91 
Q 1150 -91 751 415 
Q 353 922 353 1747 
Q 353 2572 751 3078 
Q 1150 3584 1784 3584 
Q 2172 3584 2448 3432 
Q 2725 3281 2906 2969 
z
M 947 1747 
Q 947 1113 1208 752 
Q 1469 391 1925 391 
Q 2381 391 2643 752 
Q 2906 1113 2906 1747 
Q 2906 2381 2643 2742 
Q 2381 3103 1925 3103 
Q 1469 3103 1208 2742 
Q 947 2381 947 1747 
z
" transform="scale(0.015625)"/>
       <path id="DejaVuSans-20" transform="scale(0.015625)"/>
       <path id="DejaVuSans-42" d="M 1259 2228 
L 1259 519 
L 2272 519 
Q 2781 519 3026 730 
Q 3272 941 3272 1375 
Q 3272 1813 3026 2020 
Q 2781 2228 2272 2228 
L 1259 2228 
z
M 1259 4147 
L 1259 2741 
L 2194 2741 
Q 2656 2741 2882 2914 
Q 3109 3088 3109 3444 
Q 3109 3797 2882 3972 
Q 2656 4147 2194 4147 
L 1259 4147 
z
M 628 4666 
L 2241 4666 
Q 2963 4666 3353 4366 
Q 3744 4066 3744 3513 
Q 3744 3084 3544 2831 
Q 3344 2578 2956 2516 
Q 3422 2416 3680 2098 
Q 3938 1781 3938 1306 
Q 3938 681 3513 340 
Q 3088 0 2303 0 
L 628 0 
L 628 4666 
z
" transform="scale(0.015625)"/>
       <path id="DejaVuSans-41" d="M 2188 4044 
L 1331 1722 
L 3047 1722 
L 2188 4044 
z
M 1831 4666 
L 2547 4666 
L 4325 0 
L 3669 0 
L 3244 1197 
L 1141 1197 
L 716 0 
L 50 0 
L 1831 4666 
z
" transform="scale(0.015625)"/>
       <path id="DejaVuSans-6e" d="M 3513 2113 
L 3513 0 
L 2938 0 
L 2938 2094 
Q 2938 2591 2744 2837 
Q 2550 3084 2163 3084 
Q 1697 3084 1428 2787 
Q 1159 2491 1159 1978 
L 1159 0 
L 581 0 
L 581 3500 
L 1159 3500 
L 1159 2956 
Q 1366 3272 1645 3428 
Q 1925 3584 2291 3584 
Q 2894 3584 3203 3211 
Q 3513 2838 3513 2113 
z
" transform="scale(0.015625)"/>
       <path id="DejaVuSans-67" d="M 2906 1791 
Q 2906 2416 2648 2759 
Q 2391 3103 1925 3103 
Q 1463 3103 1205 2759 
Q 947 2416 947 1791 
Q 947 1169 1205 825 
Q 1463 481 1925 481 
Q 2391 481 2648 825 
Q 2906 1169 2906 1791 
z
M 3481 434 
Q 3481 -459 3084 -895 
Q 2688 -1331 1869 -1331 
Q 1566 -1331 1297 -1286 
Q 1028 -1241 775 -1147 
L 775 -588 
Q 1028 -725 1275 -790 
Q 1522 -856 1778 -856 
Q 2344 -856 2625 -561 
Q 2906 -266 2906 331 
L 2906 616 
Q 2728 306 2450 153 
Q 2172 0 1784 0 
Q 1141 0 747 490 
Q 353 981 353 1791 
Q 353 2603 747 3093 
Q 1141 3584 1784 3584 
Q 2172 3584 2450 3431 
Q 2728 3278 2906 2969 
L 2906 3500 
L 3481 3500 
L 3481 434 
z
" transform="scale(0.015625)"/>
       <path id="DejaVuSans-Oblique-3c9" d="M 1369 -91 
Q 72 -91 434 1766 
Q 575 2500 1256 3500 
L 1875 3500 
Q 1231 2500 1088 1750 
Q 819 397 1519 397 
Q 2166 397 2478 2078 
L 3009 2078 
Q 2669 388 3316 397 
Q 4013 403 4275 1750 
Q 4419 2500 4169 3500 
L 4788 3500 
Q 5075 2500 4934 1766 
Q 4578 -94 3278 -91 
Q 2428 -88 2503 844 
Q 2194 -91 1369 -91 
z
" transform="scale(0.015625)"/>
      </defs>
      <use xlink:href="#DejaVuSans-4e" transform="translate(0 0.015625)"/>
      <use xlink:href="#DejaVuSans-6f" transform="translate(74.804688 0.015625)"/>
      <use xlink:href="#DejaVuSans-72" transform="translate(135.986328 0.015625)"/>
      <use xlink:href="#DejaVuSans-6d" transform="translate(177.099609 0.015625)"/>
      <use xlink:href="#DejaVuSans-61" transform="translate(274.511719 0.015625)"/>
      <use xlink:href="#DejaVuSans-6c" transform="translate(335.791016 0.015625)"/>
      <use xlink:href="#DejaVuSans-69" transform="translate(363.574219 0.015625)"/>
      <use xlink:href="#DejaVuSans-73" transform="translate(391.357422 0.015625)"/>
      <use xlink:href="#DejaVuSans-65" transform="translate(443.457031 0.015625)"/>
      <use xlink:href="#DejaVuSans-64" transform="translate(504.980469 0.015625)"/>
      <use xlink:href="#DejaVuSans-20" transform="translate(568.457031 0.015625)"/>
      <use xlink:href="#DejaVuSans-42" transform="translate(600.244141 0.015625)"/>
      <use xlink:href="#DejaVuSans-65" transform="translate(668.847656 0.015625)"/>
      <use xlink:href="#DejaVuSans-61" transform="translate(730.371094 0.015625)"/>
      <use xlink:href="#DejaVuSans-6d" transform="translate(791.650391 0.015625)"/>
      <use xlink:href="#DejaVuSans-20" transform="translate(889.0625 0.015625)"/>
      <use xlink:href="#DejaVuSans-41" transform="translate(920.849609 0.015625)"/>
      <use xlink:href="#DejaVuSans-6e" transform="translate(989.257812 0.015625)"/>
      <use xlink:href="#DejaVuSans-67" transform="translate(1052.636719 0.015625)"/>
      <use xlink:href="#DejaVuSans-6c" transform="translate(1116.113281 0.015625)"/>
      <use xlink:href="#DejaVuSans-65" transform="translate(1143.896484 0.015625)"/>
      <use xlink:href="#DejaVuSans-20" transform="translate(1205.419922 0.015625)"/>
      <use xlink:href="#DejaVuSans-Oblique-3c9" transform="translate(1237.207031 0.015625)"/>
     </g>
    </g>
   </g>
   <g id="matplotlib.axis_2">
    <g id="ytick_1">
     <g id="line2d_7">
      <path d="M 59.024844 228.819141 
L 393.824844 228.819141 
" clip-path="url(#p7f890afa1e)" style="fill: none; stroke: #ffffff; stroke-linecap: round"/>
     </g>
     <g id="text_8">
      <!-- −1.6 -->
      <g style="fill: #262626" transform="translate(22.81375 232.998281)scale(0.11 -0.11)">
       <defs>
        <path id="DejaVuSans-2212" d="M 678 2272 
L 4684 2272 
L 4684 1741 
L 678 1741 
L 678 2272 
z
" transform="scale(0.015625)"/>
       </defs>
       <use xlink:href="#DejaVuSans-2212"/>
       <use xlink:href="#DejaVuSans-31" x="83.789062"/>
       <use xlink:href="#DejaVuSans-2e" x="147.412109"/>
       <use xlink:href="#DejaVuSans-36" x="179.199219"/>
      </g>
     </g>
    </g>
    <g id="ytick_2">
     <g id="line2d_8">
      <path d="M 59.024844 185.331141 
L 393.824844 185.331141 
" clip-path="url(#p7f890afa1e)" style="fill: none; stroke: #ffffff; stroke-linecap: round"/>
     </g>
     <g id="text_9">
      <!-- −1.4 -->
      <g style="fill: #262626" transform="translate(22.81375 189.510281)scale(0.11 -0.11)">
       <use xlink:href="#DejaVuSans-2212"/>
       <use xlink:href="#DejaVuSans-31" x="83.789062"/>
       <use xlink:href="#DejaVuSans-2e" x="147.412109"/>
       <use xlink:href="#DejaVuSans-34" x="179.199219"/>
      </g>
     </g>
    </g>
    <g id="ytick_3">
     <g id="line2d_9">
      <path d="M 59.024844 141.843141 
L 393.824844 141.843141 
" clip-path="url(#p7f890afa1e)" style="fill: none; stroke: #ffffff; stroke-linecap: round"/>
     </g>
     <g id="text_10">
      <!-- −1.2 -->
      <g style="fill: #262626" transform="translate(22.81375 146.022281)scale(0.11 -0.11)">
       <use xlink:href="#DejaVuSans-2212"/>
       <use xlink:href="#DejaVuSans-31" x="83.789062"/>
       <use xlink:href="#DejaVuSans-2e" x="147.412109"/>
       <use xlink:href="#DejaVuSans-32" x="179.199219"/>
      </g>
     </g>
    </g>
    <g id="ytick_4">
     <g id="line2d_10">
      <path d="M 59.024844 98.355141 
L 393.824844 98.355141 
" clip-path="url(#p7f890afa1e)" style="fill: none; stroke: #ffffff; stroke-linecap: round"/>
     </g>
     <g id="text_11">
      <!-- −1.0 -->
      <g style="fill: #262626" transform="translate(22.81375 102.534281)scale(0.11 -0.11)">
       <use xlink:href="#DejaVuSans-2212"/>
       <use xlink:href="#DejaVuSans-31" x="83.789062"/>
       <use xlink:href="#DejaVuSans-2e" x="147.412109"/>
       <use xlink:href="#DejaVuSans-30" x="179.199219"/>
      </g>
     </g>
    </g>
    <g id="ytick_5">
     <g id="line2d_11">
      <path d="M 59.024844 54.867141 
L 393.824844 54.867141 
" clip-path="url(#p7f890afa1e)" style="fill: none; stroke: #ffffff; stroke-linecap: round"/>
     </g>
     <g id="text_12">
      <!-- −0.8 -->
      <g style="fill: #262626" transform="translate(22.81375 59.046281)scale(0.11 -0.11)">
       <use xlink:href="#DejaVuSans-2212"/>
       <use xlink:href="#DejaVuSans-30" x="83.789062"/>
       <use xlink:href="#DejaVuSans-2e" x="147.412109"/>
       <use xlink:href="#DejaVuSans-38" x="179.199219"/>
      </g>
     </g>
    </g>
    <g id="ytick_6">
     <g id="line2d_12">
      <path d="M 59.024844 11.379141 
L 393.824844 11.379141 
" clip-path="url(#p7f890afa1e)" style="fill: none; stroke: #ffffff; stroke-linecap: round"/>
     </g>
     <g id="text_13">
      <!-- −0.6 -->
      <g style="fill: #262626" transform="translate(22.81375 15.558281)scale(0.11 -0.11)">
       <use xlink:href="#DejaVuSans-2212"/>
       <use xlink:href="#DejaVuSans-30" x="83.789062"/>
       <use xlink:href="#DejaVuSans-2e" x="147.412109"/>
       <use xlink:href="#DejaVuSans-36" x="179.199219"/>
      </g>
     </g>
    </g>
    <g id="text_14">
     <!-- Average Posterior Entropy (APE) -->
     <g style="fill: #262626" transform="translate(16.318125 216.476016)rotate(-90)scale(0.12 -0.12)">
      <defs>
       <path id="DejaVuSans-76" d="M 191 3500 
L 800 3500 
L 1894 563 
L 2988 3500 
L 3597 3500 
L 2284 0 
L 1503 0 
L 191 3500 
z
" transform="scale(0.015625)"/>
       <path id="DejaVuSans-50" d="M 1259 4147 
L 1259 2394 
L 2053 2394 
Q 2494 2394 2734 2622 
Q 2975 2850 2975 3272 
Q 2975 3691 2734 3919 
Q 2494 4147 2053 4147 
L 1259 4147 
z
M 628 4666 
L 2053 4666 
Q 2838 4666 3239 4311 
Q 3641 3956 3641 3272 
Q 3641 2581 3239 2228 
Q 2838 1875 2053 1875 
L 1259 1875 
L 1259 0 
L 628 0 
L 628 4666 
z
" transform="scale(0.015625)"/>
       <path id="DejaVuSans-74" d="M 1172 4494 
L 1172 3500 
L 2356 3500 
L 2356 3053 
L 1172 3053 
L 1172 1153 
Q 1172 725 1289 603 
Q 1406 481 1766 481 
L 2356 481 
L 2356 0 
L 1766 0 
Q 1100 0 847 248 
Q 594 497 594 1153 
L 594 3053 
L 172 3053 
L 172 3500 
L 594 3500 
L 594 4494 
L 1172 4494 
z
" transform="scale(0.015625)"/>
       <path id="DejaVuSans-45" d="M 628 4666 
L 3578 4666 
L 3578 4134 
L 1259 4134 
L 1259 2753 
L 3481 2753 
L 3481 2222 
L 1259 2222 
L 1259 531 
L 3634 531 
L 3634 0 
L 628 0 
L 628 4666 
z
" transform="scale(0.015625)"/>
       <path id="DejaVuSans-70" d="M 1159 525 
L 1159 -1331 
L 581 -1331 
L 581 3500 
L 1159 3500 
L 1159 2969 
Q 1341 3281 1617 3432 
Q 1894 3584 2278 3584 
Q 2916 3584 3314 3078 
Q 3713 2572 3713 1747 
Q 3713 922 3314 415 
Q 2916 -91 2278 -91 
Q 1894 -91 1617 61 
Q 1341 213 1159 525 
z
M 3116 1747 
Q 3116 2381 2855 2742 
Q 2594 3103 2138 3103 
Q 1681 3103 1420 2742 
Q 1159 2381 1159 1747 
Q 1159 1113 1420 752 
Q 1681 391 2138 391 
Q 2594 391 2855 752 
Q 3116 1113 3116 1747 
z
" transform="scale(0.015625)"/>
       <path id="DejaVuSans-79" d="M 2059 -325 
Q 1816 -950 1584 -1140 
Q 1353 -1331 966 -1331 
L 506 -1331 
L 506 -850 
L 844 -850 
Q 1081 -850 1212 -737 
Q 1344 -625 1503 -206 
L 1606 56 
L 191 3500 
L 800 3500 
L 1894 763 
L 2988 3500 
L 3597 3500 
L 2059 -325 
z
" transform="scale(0.015625)"/>
       <path id="DejaVuSans-28" d="M 1984 4856 
Q 1566 4138 1362 3434 
Q 1159 2731 1159 2009 
Q 1159 1288 1364 580 
Q 1569 -128 1984 -844 
L 1484 -844 
Q 1016 -109 783 600 
Q 550 1309 550 2009 
Q 550 2706 781 3412 
Q 1013 4119 1484 4856 
L 1984 4856 
z
" transform="scale(0.015625)"/>
       <path id="DejaVuSans-29" d="M 513 4856 
L 1013 4856 
Q 1481 4119 1714 3412 
Q 1947 2706 1947 2009 
Q 1947 1309 1714 600 
Q 1481 -109 1013 -844 
L 513 -844 
Q 928 -128 1133 580 
Q 1338 1288 1338 2009 
Q 1338 2731 1133 3434 
Q 928 4138 513 4856 
z
" transform="scale(0.015625)"/>
      </defs>
      <use xlink:href="#DejaVuSans-41"/>
      <use xlink:href="#DejaVuSans-76" x="62.533203"/>
      <use xlink:href="#DejaVuSans-65" x="121.712891"/>
      <use xlink:href="#DejaVuSans-72" x="183.236328"/>
      <use xlink:href="#DejaVuSans-61" x="224.349609"/>
      <use xlink:href="#DejaVuSans-67" x="285.628906"/>
      <use xlink:href="#DejaVuSans-65" x="349.105469"/>
      <use xlink:href="#DejaVuSans-20" x="410.628906"/>
      <use xlink:href="#DejaVuSans-50" x="442.416016"/>
      <use xlink:href="#DejaVuSans-6f" x="499.09375"/>
      <use xlink:href="#DejaVuSans-73" x="560.275391"/>
      <use xlink:href="#DejaVuSans-74" x="612.375"/>
      <use xlink:href="#DejaVuSans-65" x="651.583984"/>
      <use xlink:href="#DejaVuSans-72" x="713.107422"/>
      <use xlink:href="#DejaVuSans-69" x="754.220703"/>
      <use xlink:href="#DejaVuSans-6f" x="782.003906"/>
      <use xlink:href="#DejaVuSans-72" x="843.185547"/>
      <use xlink:href="#DejaVuSans-20" x="884.298828"/>
      <use xlink:href="#DejaVuSans-45" x="916.085938"/>
      <use xlink:href="#DejaVuSans-6e" x="979.269531"/>
      <use xlink:href="#DejaVuSans-74" x="1042.648438"/>
      <use xlink:href="#DejaVuSans-72" x="1081.857422"/>
      <use xlink:href="#DejaVuSans-6f" x="1120.720703"/>
      <use xlink:href="#DejaVuSans-70" x="1181.902344"/>
      <use xlink:href="#DejaVuSans-79" x="1245.378906"/>
      <use xlink:href="#DejaVuSans-20" x="1304.558594"/>
      <use xlink:href="#DejaVuSans-28" x="1336.345703"/>
      <use xlink:href="#DejaVuSans-41" x="1375.359375"/>
      <use xlink:href="#DejaVuSans-50" x="1443.767578"/>
      <use xlink:href="#DejaVuSans-45" x="1504.070312"/>
      <use xlink:href="#DejaVuSans-29" x="1567.253906"/>
     </g>
    </g>
   </g>
   <g id="line2d_13">
    <path d="M 74.243026 69.993629 
L 80.454528 71.733846 
L 86.666031 74.862772 
L 92.877534 79.293743 
L 99.089036 84.619033 
L 105.300538 90.701135 
L 111.512043 97.290152 
L 117.723542 104.230652 
L 123.935047 111.359536 
L 130.146551 118.419965 
L 136.358051 125.422714 
L 142.569555 132.088355 
L 148.78106 138.509182 
L 154.99256 144.405716 
L 161.204059 149.850402 
L 167.415568 154.624991 
L 173.627068 158.989247 
L 179.838568 162.792673 
L 186.050077 166.054887 
L 192.261577 168.684742 
L 198.473076 170.845468 
L 204.684585 172.583478 
L 210.896085 173.646108 
L 217.107585 174.32393 
L 223.319094 174.480911 
L 229.530594 174.187146 
L 235.742093 173.555702 
L 241.953593 172.396229 
L 248.165093 170.788923 
L 254.376611 168.766982 
L 260.588111 166.180803 
L 266.799611 163.225833 
L 273.011111 159.656632 
L 279.22261 155.707339 
L 285.43411 151.116074 
L 291.64561 146.238854 
L 297.857128 140.781881 
L 304.068628 134.908339 
L 310.280128 128.571863 
L 316.491627 122.018153 
L 322.703127 115.233789 
L 328.914627 108.325029 
L 335.126145 101.451894 
L 341.337645 94.780425 
L 347.549145 88.542187 
L 353.760645 82.871087 
L 359.972144 77.981562 
L 366.183644 74.137687 
L 372.395162 71.500533 
L 378.606662 70.051835 
" clip-path="url(#p7f890afa1e)" style="fill: none; stroke: #4c72b0; stroke-width: 1.5; stroke-linecap: round"/>
   </g>
   <g id="line2d_14">
    <path d="M 74.243026 69.836564 
L 80.454528 71.113903 
L 86.666031 73.414478 
L 92.877534 76.774671 
L 99.089036 81.025729 
L 105.300538 85.94992 
L 111.512043 91.402405 
L 117.723542 97.160917 
L 123.935047 103.183552 
L 130.146551 109.215478 
L 136.358051 115.177035 
L 142.569555 121.021196 
L 148.78106 126.547568 
L 154.99256 131.724762 
L 161.204059 136.511554 
L 167.415568 140.867128 
L 173.627068 144.758889 
L 179.838568 148.068197 
L 186.050077 151.007439 
L 192.261577 153.379277 
L 198.473076 155.307802 
L 204.684585 156.817666 
L 210.896085 157.784681 
L 217.107585 158.377397 
L 223.319094 158.563607 
L 229.530594 158.33205 
L 235.742093 157.644218 
L 241.953593 156.661763 
L 248.165093 155.165857 
L 254.376611 153.346243 
L 260.588111 151.111941 
L 266.799611 148.477478 
L 273.011111 145.356722 
L 279.22261 141.783147 
L 285.43411 137.76158 
L 291.64561 133.42859 
L 297.857128 128.684696 
L 304.068628 123.571593 
L 310.280128 118.093582 
L 316.491627 112.43201 
L 322.703127 106.614779 
L 328.914627 100.760044 
L 335.126145 94.990134 
L 341.337645 89.49289 
L 347.549145 84.379333 
L 353.760645 79.774989 
L 359.972144 75.91558 
L 366.183644 73.008877 
L 372.395162 71.045903 
L 378.606662 69.919251 
" clip-path="url(#p7f890afa1e)" style="fill: none; stroke: #dd8452; stroke-width: 1.5; stroke-linecap: round"/>
   </g>
   <g id="line2d_15">
    <path d="M 74.243026 69.766412 
L 80.454528 70.723952 
L 86.666031 72.455392 
L 92.877534 75.00795 
L 99.089036 78.339938 
L 105.300538 82.362144 
L 111.512043 86.833547 
L 117.723542 91.64568 
L 123.935047 96.670377 
L 130.146551 101.76624 
L 136.358051 106.908952 
L 142.569555 111.846756 
L 148.78106 116.694766 
L 154.99256 121.205155 
L 161.204059 125.420578 
L 167.415568 129.227058 
L 173.627068 132.657869 
L 179.838568 135.706236 
L 186.050077 138.283195 
L 192.261577 140.424812 
L 198.473076 142.170111 
L 204.684585 143.558761 
L 210.896085 144.481536 
L 217.107585 145.01834 
L 223.319094 145.18536 
L 229.530594 144.974344 
L 235.742093 144.416902 
L 241.953593 143.507996 
L 248.165093 142.217859 
L 254.376611 140.542235 
L 260.588111 138.569555 
L 266.799611 136.109269 
L 273.011111 133.367754 
L 279.22261 130.207733 
L 285.43411 126.708677 
L 291.64561 122.866529 
L 297.857128 118.719476 
L 304.068628 114.247331 
L 310.280128 109.575737 
L 316.491627 104.712294 
L 322.703127 99.74194 
L 328.914627 94.785807 
L 335.126145 89.98425 
L 341.337645 85.397174 
L 347.549145 81.14118 
L 353.760645 77.466209 
L 359.972144 74.497227 
L 366.183644 72.228147 
L 372.395162 70.701806 
L 378.606662 69.833783 
" clip-path="url(#p7f890afa1e)" style="fill: none; stroke: #55a868; stroke-width: 1.5; stroke-linecap: round"/>
   </g>
   <g id="line2d_16">
    <path d="M 74.243026 69.739066 
L 80.454528 70.481806 
L 86.666031 71.816619 
L 92.877534 73.792431 
L 99.089036 76.422221 
L 105.300538 79.643575 
L 111.512043 83.28826 
L 117.723542 87.305005 
L 123.935047 91.537572 
L 130.146551 95.871459 
L 136.358051 100.196256 
L 142.569555 104.471884 
L 148.78106 108.571189 
L 154.99256 112.55144 
L 161.204059 116.210225 
L 167.415568 119.526194 
L 173.627068 122.594636 
L 179.838568 125.276404 
L 186.050077 127.660332 
L 192.261577 129.605653 
L 198.473076 131.153518 
L 204.684585 132.388746 
L 210.896085 133.225672 
L 217.107585 133.776929 
L 223.319094 133.958598 
L 229.530594 133.807412 
L 235.742093 133.262899 
L 241.953593 132.480669 
L 248.165093 131.333016 
L 254.376611 129.858396 
L 260.588111 128.047149 
L 266.799611 125.975229 
L 273.011111 123.462403 
L 279.22261 120.689832 
L 285.43411 117.608443 
L 291.64561 114.224716 
L 297.857128 110.610623 
L 304.068628 106.699126 
L 310.280128 102.679593 
L 316.491627 98.495406 
L 322.703127 94.291222 
L 328.914627 90.018338 
L 335.126145 85.996206 
L 341.337645 82.201939 
L 347.549145 78.733757 
L 353.760645 75.785686 
L 359.972144 73.429908 
L 366.183644 71.656211 
L 372.395162 70.462474 
L 378.606662 69.764195 
" clip-path="url(#p7f890afa1e)" style="fill: none; stroke: #c44e52; stroke-width: 1.5; stroke-linecap: round"/>
   </g>
   <g id="line2d_17">
    <path d="M 74.243026 69.734387 
L 80.454528 70.324743 
L 86.666031 71.374815 
L 92.877534 72.930055 
L 99.089036 75.02507 
L 105.300538 77.564218 
L 111.512043 80.564556 
L 117.723542 83.85693 
L 123.935047 87.416425 
L 130.146551 91.076106 
L 136.358051 94.779219 
L 142.569555 98.405005 
L 148.78106 102.046608 
L 154.99256 105.419691 
L 161.204059 108.559035 
L 167.415568 111.547788 
L 173.627068 114.163335 
L 179.838568 116.618574 
L 186.050077 118.699641 
L 192.261577 120.422855 
L 198.473076 121.886349 
L 204.684585 122.99945 
L 210.896085 123.787327 
L 217.107585 124.25012 
L 223.319094 124.427739 
L 229.530594 124.330209 
L 235.742093 123.900751 
L 241.953593 123.167621 
L 248.165093 122.156162 
L 254.376611 120.826025 
L 260.588111 119.223946 
L 266.799611 117.344148 
L 273.011111 115.123774 
L 279.22261 112.742363 
L 285.43411 110.008471 
L 291.64561 107.098691 
L 297.857128 103.867252 
L 304.068628 100.486048 
L 310.280128 97.037038 
L 316.491627 93.431595 
L 322.703127 89.792004 
L 328.914627 86.211324 
L 335.126145 82.86919 
L 341.337645 79.688459 
L 347.549145 76.899626 
L 353.760645 74.517631 
L 359.972144 72.640867 
L 366.183644 71.22163 
L 372.395162 70.259934 
L 378.606662 69.72487 
" clip-path="url(#p7f890afa1e)" style="fill: none; stroke: #8172b3; stroke-width: 1.5; stroke-linecap: round"/>
   </g>
   <g id="line2d_18">
    <path d="M 74.243026 69.753925 
L 80.454528 70.22739 
L 86.666031 71.077338 
L 92.877534 72.309254 
L 99.089036 73.987953 
L 105.300538 76.038145 
L 111.512043 78.473946 
L 117.723542 81.230289 
L 123.935047 84.160254 
L 130.146551 87.231708 
L 136.358051 90.350463 
L 142.569555 93.515649 
L 148.78106 96.558141 
L 154.99256 99.576748 
L 161.204059 102.309378 
L 167.415568 104.844634 
L 173.627068 107.19274 
L 179.838568 109.345633 
L 186.050077 111.22725 
L 192.261577 112.782409 
L 198.473076 114.083552 
L 204.684585 115.118242 
L 210.896085 115.844013 
L 217.107585 116.239666 
L 223.319094 116.455094 
L 229.530594 116.371308 
L 235.742093 115.990999 
L 241.953593 115.378217 
L 248.165093 114.44602 
L 254.376611 113.301856 
L 260.588111 111.816339 
L 266.799611 110.154141 
L 273.011111 108.213199 
L 279.22261 106.101746 
L 285.43411 103.643502 
L 291.64561 101.03048 
L 297.857128 98.305008 
L 304.068628 95.379453 
L 310.280128 92.333762 
L 316.491627 89.264298 
L 322.703127 86.228283 
L 328.914627 83.152854 
L 335.126145 80.365283 
L 341.337645 77.758192 
L 347.549145 75.454494 
L 353.760645 73.531782 
L 359.972144 72.015467 
L 366.183644 70.893524 
L 372.395162 70.142676 
L 378.606662 69.711544 
" clip-path="url(#p7f890afa1e)" style="fill: none; stroke: #937860; stroke-width: 1.5; stroke-linecap: round"/>
   </g>
   <g id="line2d_19">
    <path d="M 74.243026 69.77201 
L 80.454528 70.156289 
L 86.666031 70.851803 
L 92.877534 71.838325 
L 99.089036 73.198788 
L 105.300538 74.885504 
L 111.512043 76.862333 
L 117.723542 79.109341 
L 123.935047 81.577109 
L 130.146551 84.188999 
L 136.358051 86.803211 
L 142.569555 89.485973 
L 148.78106 92.123696 
L 154.99256 94.652013 
L 161.204059 97.048867 
L 167.415568 99.363935 
L 173.627068 101.39787 
L 179.838568 103.286261 
L 186.050077 104.940888 
L 192.261577 106.341446 
L 198.473076 107.516714 
L 204.684585 108.473569 
L 210.896085 109.120866 
L 217.107585 109.553396 
L 223.319094 109.701196 
L 229.530594 109.679584 
L 235.742093 109.313185 
L 241.953593 108.761426 
L 248.165093 107.95068 
L 254.376611 106.921888 
L 260.588111 105.641832 
L 266.799611 104.098531 
L 273.011111 102.426088 
L 279.22261 100.487247 
L 285.43411 98.416298 
L 291.64561 96.082467 
L 297.857128 93.681813 
L 304.068628 91.16435 
L 310.280128 88.542355 
L 316.491627 85.88878 
L 322.703127 83.291769 
L 328.914627 80.746134 
L 335.126145 78.37867 
L 341.337645 76.222318 
L 347.549145 74.33823 
L 353.760645 72.758282 
L 359.972144 71.544585 
L 366.183644 70.640894 
L 372.395162 70.050871 
L 378.606662 69.741688 
" clip-path="url(#p7f890afa1e)" style="fill: none; stroke: #da8bc3; stroke-width: 1.5; stroke-linecap: round"/>
   </g>
   <g id="line2d_20">
    <path d="M 74.243026 69.767877 
L 80.454528 70.079884 
L 86.666031 70.642701 
L 92.877534 71.468497 
L 99.089036 72.57015 
L 105.300538 73.932231 
L 111.512043 75.583235 
L 117.723542 77.448877 
L 123.935047 79.490887 
L 130.146551 81.682779 
L 136.358051 83.906115 
L 142.569555 86.158331 
L 148.78106 88.460328 
L 154.99256 90.644343 
L 161.204059 92.746071 
L 167.415568 94.747974 
L 173.627068 96.551197 
L 179.838568 98.206574 
L 186.050077 99.688332 
L 192.261577 100.956142 
L 198.473076 102.00148 
L 204.684585 102.856435 
L 210.896085 103.456554 
L 217.107585 103.866603 
L 223.319094 104.048287 
L 229.530594 103.964559 
L 235.742093 103.659576 
L 241.953593 103.16912 
L 248.165093 102.444643 
L 254.376611 101.508838 
L 260.588111 100.386891 
L 266.799611 99.002 
L 273.011111 97.51281 
L 279.22261 95.836546 
L 285.43411 93.954567 
L 291.64561 91.903737 
L 297.857128 89.854746 
L 304.068628 87.659344 
L 310.280128 85.383738 
L 316.491627 83.162391 
L 322.703127 80.897728 
L 328.914627 78.745935 
L 335.126145 76.812698 
L 341.337645 75.01586 
L 347.549145 73.442105 
L 353.760645 72.165662 
L 359.972144 71.179322 
L 366.183644 70.464646 
L 372.395162 70.002908 
L 378.606662 69.756879 
" clip-path="url(#p7f890afa1e)" style="fill: none; stroke: #8c8c8c; stroke-width: 1.5; stroke-linecap: round"/>
   </g>
   <g id="line2d_21">
    <path d="M 74.243026 69.717027 
L 80.454528 69.983747 
L 86.666031 70.441461 
L 92.877534 71.121932 
L 99.089036 72.039737 
L 105.300538 73.16778 
L 111.512043 74.533411 
L 117.723542 76.073916 
L 123.935047 77.780484 
L 130.146551 79.620092 
L 136.358051 81.545873 
L 142.569555 83.469708 
L 148.78106 85.41297 
L 154.99256 87.372357 
L 161.204059 89.161814 
L 167.415568 90.893659 
L 173.627068 92.524943 
L 179.838568 93.960107 
L 186.050077 95.293858 
L 192.261577 96.421291 
L 198.473076 97.387031 
L 204.684585 98.145612 
L 210.896085 98.664218 
L 217.107585 99.029027 
L 223.319094 99.165468 
L 229.530594 99.134749 
L 235.742093 98.872429 
L 241.953593 98.412652 
L 248.165093 97.738818 
L 254.376611 96.90129 
L 260.588111 95.883984 
L 266.799611 94.717019 
L 273.011111 93.338939 
L 279.22261 91.857033 
L 285.43411 90.218257 
L 291.64561 88.481878 
L 297.857128 86.651488 
L 304.068628 84.753055 
L 310.280128 82.797623 
L 316.491627 80.875549 
L 322.703127 78.966984 
L 328.914627 77.169967 
L 335.126145 75.514276 
L 341.337645 74.040966 
L 347.549145 72.743746 
L 353.760645 71.700622 
L 359.972144 70.88452 
L 366.183644 70.309619 
L 372.395162 69.926128 
L 378.606662 69.740162 
" clip-path="url(#p7f890afa1e)" style="fill: none; stroke: #ccb974; stroke-width: 1.5; stroke-linecap: round"/>
   </g>
   <g id="line2d_22">
    <path d="M 74.243026 69.635549 
L 80.454528 69.863603 
L 86.666031 70.235696 
L 92.877534 70.811662 
L 99.089036 71.580243 
L 105.300538 72.533834 
L 111.512043 73.659582 
L 117.723542 74.961484 
L 123.935047 76.392181 
L 130.146551 77.944849 
L 136.358051 79.537219 
L 142.569555 81.226375 
L 148.78106 82.89654 
L 154.99256 84.533204 
L 161.204059 86.128616 
L 167.415568 87.668348 
L 173.627068 89.069525 
L 179.838568 90.344424 
L 186.050077 91.567296 
L 192.261577 92.5786 
L 198.473076 93.438854 
L 204.684585 94.117787 
L 210.896085 94.589321 
L 217.107585 94.881182 
L 223.319094 95.007534 
L 229.530594 95.006459 
L 235.742093 94.707801 
L 241.953593 94.322798 
L 248.165093 93.716481 
L 254.376611 92.981106 
L 260.588111 92.076254 
L 266.799611 91.008207 
L 273.011111 89.836891 
L 279.22261 88.48025 
L 285.43411 87.082274 
L 291.64561 85.532514 
L 297.857128 83.950568 
L 304.068628 82.318401 
L 310.280128 80.668789 
L 316.491627 78.998519 
L 322.703127 77.399588 
L 328.914627 75.890499 
L 335.126145 74.509541 
L 341.337645 73.279073 
L 347.549145 72.212718 
L 353.760645 71.326002 
L 359.972144 70.643932 
L 366.183644 70.160604 
L 372.395162 69.843029 
L 378.606662 69.68046 
" clip-path="url(#p7f890afa1e)" style="fill: none; stroke: #64b5cd; stroke-width: 1.5; stroke-linecap: round"/>
   </g>
   <g id="patch_3">
    <path d="M 59.024844 228.819141 
L 59.024844 11.379141 
" style="fill: none; stroke: #ffffff; stroke-width: 1.25; stroke-linejoin: miter; stroke-linecap: square"/>
   </g>
   <g id="patch_4">
    <path d="M 393.824844 228.819141 
L 393.824844 11.379141 
" style="fill: none; stroke: #ffffff; stroke-width: 1.25; stroke-linejoin: miter; stroke-linecap: square"/>
   </g>
   <g id="patch_5">
    <path d="M 59.024844 228.819141 
L 393.824844 228.819141 
" style="fill: none; stroke: #ffffff; stroke-width: 1.25; stroke-linejoin: miter; stroke-linecap: square"/>
   </g>
   <g id="patch_6">
    <path d="M 59.024844 11.379141 
L 393.824844 11.379141 
" style="fill: none; stroke: #ffffff; stroke-width: 1.25; stroke-linejoin: miter; stroke-linecap: square"/>
   </g>
   <g id="legend_1">
    <g id="patch_7">
     <path d="M 401.524844 181.861953 
L 496.454844 181.861953 
Q 498.654844 181.861953 498.654844 179.661953 
L 498.654844 19.079141 
Q 498.654844 16.879141 496.454844 16.879141 
L 401.524844 16.879141 
Q 399.324844 16.879141 399.324844 19.079141 
L 399.324844 179.661953 
Q 399.324844 181.861953 401.524844 181.861953 
z
" style="fill: #eaeaf2; opacity: 0.8; stroke: #cccccc; stroke-linejoin: miter"/>
    </g>
    <g id="line2d_23">
     <path d="M 403.724844 25.787422 
L 414.724844 25.787422 
L 425.724844 25.787422 
" style="fill: none; stroke: #4c72b0; stroke-width: 1.5; stroke-linecap: round"/>
    </g>
    <g id="text_15">
     <!-- $\mu_\theta$ = 0.300 -->
     <g style="fill: #262626" transform="translate(434.524844 29.637422)scale(0.11 -0.11)">
      <defs>
       <path id="DejaVuSans-Oblique-3bc" d="M -84 -1331 
L 856 3500 
L 1434 3500 
L 1009 1322 
Q 997 1256 987 1175 
Q 978 1094 978 1013 
Q 978 722 1161 565 
Q 1344 409 1684 409 
Q 2147 409 2431 671 
Q 2716 934 2816 1459 
L 3213 3500 
L 3788 3500 
L 3266 809 
Q 3253 750 3248 706 
Q 3244 663 3244 628 
Q 3244 531 3283 486 
Q 3322 441 3406 441 
Q 3438 441 3492 456 
Q 3547 472 3647 513 
L 3559 50 
Q 3422 -19 3297 -55 
Q 3172 -91 3053 -91 
Q 2847 -91 2730 40 
Q 2613 172 2613 403 
Q 2438 153 2195 31 
Q 1953 -91 1625 -91 
Q 1334 -91 1117 43 
Q 900 178 831 397 
L 494 -1331 
L -84 -1331 
z
" transform="scale(0.015625)"/>
       <path id="DejaVuSans-Oblique-3b8" d="M 2913 2219 
L 925 2219 
Q 791 1284 928 888 
Q 1100 400 1566 400 
Q 2034 400 2391 891 
Q 2703 1322 2913 2219 
z
M 3009 2750 
Q 3094 3638 2984 3950 
Q 2813 4444 2353 4444 
Q 1875 4444 1525 3956 
Q 1250 3563 1034 2750 
L 3009 2750 
z
M 2444 4913 
Q 3194 4913 3494 4250 
Q 3794 3591 3566 2422 
Q 3341 1256 2781 594 
Q 2225 -72 1475 -72 
Q 722 -72 425 594 
Q 128 1256 353 2422 
Q 581 3591 1134 4250 
Q 1691 4913 2444 4913 
z
" transform="scale(0.015625)"/>
       <path id="DejaVuSans-3d" d="M 678 2906 
L 4684 2906 
L 4684 2381 
L 678 2381 
L 678 2906 
z
M 678 1631 
L 4684 1631 
L 4684 1100 
L 678 1100 
L 678 1631 
z
" transform="scale(0.015625)"/>
       <path id="DejaVuSans-33" d="M 2597 2516 
Q 3050 2419 3304 2112 
Q 3559 1806 3559 1356 
Q 3559 666 3084 287 
Q 2609 -91 1734 -91 
Q 1441 -91 1130 -33 
Q 819 25 488 141 
L 488 750 
Q 750 597 1062 519 
Q 1375 441 1716 441 
Q 2309 441 2620 675 
Q 2931 909 2931 1356 
Q 2931 1769 2642 2001 
Q 2353 2234 1838 2234 
L 1294 2234 
L 1294 2753 
L 1863 2753 
Q 2328 2753 2575 2939 
Q 2822 3125 2822 3475 
Q 2822 3834 2567 4026 
Q 2313 4219 1838 4219 
Q 1578 4219 1281 4162 
Q 984 4106 628 3988 
L 628 4550 
Q 988 4650 1302 4700 
Q 1616 4750 1894 4750 
Q 2613 4750 3031 4423 
Q 3450 4097 3450 3541 
Q 3450 3153 3228 2886 
Q 3006 2619 2597 2516 
z
" transform="scale(0.015625)"/>
      </defs>
      <use xlink:href="#DejaVuSans-Oblique-3bc" transform="translate(0 0.78125)"/>
      <use xlink:href="#DejaVuSans-Oblique-3b8" transform="translate(63.623047 -15.625)scale(0.7)"/>
      <use xlink:href="#DejaVuSans-20" transform="translate(109.18457 0.78125)"/>
      <use xlink:href="#DejaVuSans-3d" transform="translate(140.97168 0.78125)"/>
      <use xlink:href="#DejaVuSans-20" transform="translate(224.760742 0.78125)"/>
      <use xlink:href="#DejaVuSans-30" transform="translate(256.547852 0.78125)"/>
      <use xlink:href="#DejaVuSans-2e" transform="translate(320.170898 0.78125)"/>
      <use xlink:href="#DejaVuSans-33" transform="translate(351.958008 0.78125)"/>
      <use xlink:href="#DejaVuSans-30" transform="translate(415.581055 0.78125)"/>
      <use xlink:href="#DejaVuSans-30" transform="translate(479.204102 0.78125)"/>
     </g>
    </g>
    <g id="line2d_24">
     <path d="M 403.724844 41.955703 
L 414.724844 41.955703 
L 425.724844 41.955703 
" style="fill: none; stroke: #dd8452; stroke-width: 1.5; stroke-linecap: round"/>
    </g>
    <g id="text_16">
     <!-- $\mu_\theta$ = 0.344 -->
     <g style="fill: #262626" transform="translate(434.524844 45.805703)scale(0.11 -0.11)">
      <use xlink:href="#DejaVuSans-Oblique-3bc" transform="translate(0 0.78125)"/>
      <use xlink:href="#DejaVuSans-Oblique-3b8" transform="translate(63.623047 -15.625)scale(0.7)"/>
      <use xlink:href="#DejaVuSans-20" transform="translate(109.18457 0.78125)"/>
      <use xlink:href="#DejaVuSans-3d" transform="translate(140.97168 0.78125)"/>
      <use xlink:href="#DejaVuSans-20" transform="translate(224.760742 0.78125)"/>
      <use xlink:href="#DejaVuSans-30" transform="translate(256.547852 0.78125)"/>
      <use xlink:href="#DejaVuSans-2e" transform="translate(320.170898 0.78125)"/>
      <use xlink:href="#DejaVuSans-33" transform="translate(351.958008 0.78125)"/>
      <use xlink:href="#DejaVuSans-34" transform="translate(415.581055 0.78125)"/>
      <use xlink:href="#DejaVuSans-34" transform="translate(479.204102 0.78125)"/>
     </g>
    </g>
    <g id="line2d_25">
     <path d="M 403.724844 58.123984 
L 414.724844 58.123984 
L 425.724844 58.123984 
" style="fill: none; stroke: #55a868; stroke-width: 1.5; stroke-linecap: round"/>
    </g>
    <g id="text_17">
     <!-- $\mu_\theta$ = 0.389 -->
     <g style="fill: #262626" transform="translate(434.524844 61.973984)scale(0.11 -0.11)">
      <defs>
       <path id="DejaVuSans-39" d="M 703 97 
L 703 672 
Q 941 559 1184 500 
Q 1428 441 1663 441 
Q 2288 441 2617 861 
Q 2947 1281 2994 2138 
Q 2813 1869 2534 1725 
Q 2256 1581 1919 1581 
Q 1219 1581 811 2004 
Q 403 2428 403 3163 
Q 403 3881 828 4315 
Q 1253 4750 1959 4750 
Q 2769 4750 3195 4129 
Q 3622 3509 3622 2328 
Q 3622 1225 3098 567 
Q 2575 -91 1691 -91 
Q 1453 -91 1209 -44 
Q 966 3 703 97 
z
M 1959 2075 
Q 2384 2075 2632 2365 
Q 2881 2656 2881 3163 
Q 2881 3666 2632 3958 
Q 2384 4250 1959 4250 
Q 1534 4250 1286 3958 
Q 1038 3666 1038 3163 
Q 1038 2656 1286 2365 
Q 1534 2075 1959 2075 
z
" transform="scale(0.015625)"/>
      </defs>
      <use xlink:href="#DejaVuSans-Oblique-3bc" transform="translate(0 0.78125)"/>
      <use xlink:href="#DejaVuSans-Oblique-3b8" transform="translate(63.623047 -15.625)scale(0.7)"/>
      <use xlink:href="#DejaVuSans-20" transform="translate(109.18457 0.78125)"/>
      <use xlink:href="#DejaVuSans-3d" transform="translate(140.97168 0.78125)"/>
      <use xlink:href="#DejaVuSans-20" transform="translate(224.760742 0.78125)"/>
      <use xlink:href="#DejaVuSans-30" transform="translate(256.547852 0.78125)"/>
      <use xlink:href="#DejaVuSans-2e" transform="translate(320.170898 0.78125)"/>
      <use xlink:href="#DejaVuSans-33" transform="translate(351.958008 0.78125)"/>
      <use xlink:href="#DejaVuSans-38" transform="translate(415.581055 0.78125)"/>
      <use xlink:href="#DejaVuSans-39" transform="translate(479.204102 0.78125)"/>
     </g>
    </g>
    <g id="line2d_26">
     <path d="M 403.724844 74.292266 
L 414.724844 74.292266 
L 425.724844 74.292266 
" style="fill: none; stroke: #c44e52; stroke-width: 1.5; stroke-linecap: round"/>
    </g>
    <g id="text_18">
     <!-- $\mu_\theta$ = 0.433 -->
     <g style="fill: #262626" transform="translate(434.524844 78.142266)scale(0.11 -0.11)">
      <use xlink:href="#DejaVuSans-Oblique-3bc" transform="translate(0 0.78125)"/>
      <use xlink:href="#DejaVuSans-Oblique-3b8" transform="translate(63.623047 -15.625)scale(0.7)"/>
      <use xlink:href="#DejaVuSans-20" transform="translate(109.18457 0.78125)"/>
      <use xlink:href="#DejaVuSans-3d" transform="translate(140.97168 0.78125)"/>
      <use xlink:href="#DejaVuSans-20" transform="translate(224.760742 0.78125)"/>
      <use xlink:href="#DejaVuSans-30" transform="translate(256.547852 0.78125)"/>
      <use xlink:href="#DejaVuSans-2e" transform="translate(320.170898 0.78125)"/>
      <use xlink:href="#DejaVuSans-34" transform="translate(351.958008 0.78125)"/>
      <use xlink:href="#DejaVuSans-33" transform="translate(415.581055 0.78125)"/>
      <use xlink:href="#DejaVuSans-33" transform="translate(479.204102 0.78125)"/>
     </g>
    </g>
    <g id="line2d_27">
     <path d="M 403.724844 90.460547 
L 414.724844 90.460547 
L 425.724844 90.460547 
" style="fill: none; stroke: #8172b3; stroke-width: 1.5; stroke-linecap: round"/>
    </g>
    <g id="text_19">
     <!-- $\mu_\theta$ = 0.478 -->
     <g style="fill: #262626" transform="translate(434.524844 94.310547)scale(0.11 -0.11)">
      <defs>
       <path id="DejaVuSans-37" d="M 525 4666 
L 3525 4666 
L 3525 4397 
L 1831 0 
L 1172 0 
L 2766 4134 
L 525 4134 
L 525 4666 
z
" transform="scale(0.015625)"/>
      </defs>
      <use xlink:href="#DejaVuSans-Oblique-3bc" transform="translate(0 0.78125)"/>
      <use xlink:href="#DejaVuSans-Oblique-3b8" transform="translate(63.623047 -15.625)scale(0.7)"/>
      <use xlink:href="#DejaVuSans-20" transform="translate(109.18457 0.78125)"/>
      <use xlink:href="#DejaVuSans-3d" transform="translate(140.97168 0.78125)"/>
      <use xlink:href="#DejaVuSans-20" transform="translate(224.760742 0.78125)"/>
      <use xlink:href="#DejaVuSans-30" transform="translate(256.547852 0.78125)"/>
      <use xlink:href="#DejaVuSans-2e" transform="translate(320.170898 0.78125)"/>
      <use xlink:href="#DejaVuSans-34" transform="translate(351.958008 0.78125)"/>
      <use xlink:href="#DejaVuSans-37" transform="translate(415.581055 0.78125)"/>
      <use xlink:href="#DejaVuSans-38" transform="translate(479.204102 0.78125)"/>
     </g>
    </g>
    <g id="line2d_28">
     <path d="M 403.724844 106.628828 
L 414.724844 106.628828 
L 425.724844 106.628828 
" style="fill: none; stroke: #937860; stroke-width: 1.5; stroke-linecap: round"/>
    </g>
    <g id="text_20">
     <!-- $\mu_\theta$ = 0.522 -->
     <g style="fill: #262626" transform="translate(434.524844 110.478828)scale(0.11 -0.11)">
      <defs>
       <path id="DejaVuSans-35" d="M 691 4666 
L 3169 4666 
L 3169 4134 
L 1269 4134 
L 1269 2991 
Q 1406 3038 1543 3061 
Q 1681 3084 1819 3084 
Q 2600 3084 3056 2656 
Q 3513 2228 3513 1497 
Q 3513 744 3044 326 
Q 2575 -91 1722 -91 
Q 1428 -91 1123 -41 
Q 819 9 494 109 
L 494 744 
Q 775 591 1075 516 
Q 1375 441 1709 441 
Q 2250 441 2565 725 
Q 2881 1009 2881 1497 
Q 2881 1984 2565 2268 
Q 2250 2553 1709 2553 
Q 1456 2553 1204 2497 
Q 953 2441 691 2322 
L 691 4666 
z
" transform="scale(0.015625)"/>
      </defs>
      <use xlink:href="#DejaVuSans-Oblique-3bc" transform="translate(0 0.78125)"/>
      <use xlink:href="#DejaVuSans-Oblique-3b8" transform="translate(63.623047 -15.625)scale(0.7)"/>
      <use xlink:href="#DejaVuSans-20" transform="translate(109.18457 0.78125)"/>
      <use xlink:href="#DejaVuSans-3d" transform="translate(140.97168 0.78125)"/>
      <use xlink:href="#DejaVuSans-20" transform="translate(224.760742 0.78125)"/>
      <use xlink:href="#DejaVuSans-30" transform="translate(256.547852 0.78125)"/>
      <use xlink:href="#DejaVuSans-2e" transform="translate(320.170898 0.78125)"/>
      <use xlink:href="#DejaVuSans-35" transform="translate(351.958008 0.78125)"/>
      <use xlink:href="#DejaVuSans-32" transform="translate(415.581055 0.78125)"/>
      <use xlink:href="#DejaVuSans-32" transform="translate(479.204102 0.78125)"/>
     </g>
    </g>
    <g id="line2d_29">
     <path d="M 403.724844 122.797109 
L 414.724844 122.797109 
L 425.724844 122.797109 
" style="fill: none; stroke: #da8bc3; stroke-width: 1.5; stroke-linecap: round"/>
    </g>
    <g id="text_21">
     <!-- $\mu_\theta$ = 0.567 -->
     <g style="fill: #262626" transform="translate(434.524844 126.647109)scale(0.11 -0.11)">
      <use xlink:href="#DejaVuSans-Oblique-3bc" transform="translate(0 0.78125)"/>
      <use xlink:href="#DejaVuSans-Oblique-3b8" transform="translate(63.623047 -15.625)scale(0.7)"/>
      <use xlink:href="#DejaVuSans-20" transform="translate(109.18457 0.78125)"/>
      <use xlink:href="#DejaVuSans-3d" transform="translate(140.97168 0.78125)"/>
      <use xlink:href="#DejaVuSans-20" transform="translate(224.760742 0.78125)"/>
      <use xlink:href="#DejaVuSans-30" transform="translate(256.547852 0.78125)"/>
      <use xlink:href="#DejaVuSans-2e" transform="translate(320.170898 0.78125)"/>
      <use xlink:href="#DejaVuSans-35" transform="translate(351.958008 0.78125)"/>
      <use xlink:href="#DejaVuSans-36" transform="translate(415.581055 0.78125)"/>
      <use xlink:href="#DejaVuSans-37" transform="translate(479.204102 0.78125)"/>
     </g>
    </g>
    <g id="line2d_30">
     <path d="M 403.724844 138.965391 
L 414.724844 138.965391 
L 425.724844 138.965391 
" style="fill: none; stroke: #8c8c8c; stroke-width: 1.5; stroke-linecap: round"/>
    </g>
    <g id="text_22">
     <!-- $\mu_\theta$ = 0.611 -->
     <g style="fill: #262626" transform="translate(434.524844 142.815391)scale(0.11 -0.11)">
      <use xlink:href="#DejaVuSans-Oblique-3bc" transform="translate(0 0.78125)"/>
      <use xlink:href="#DejaVuSans-Oblique-3b8" transform="translate(63.623047 -15.625)scale(0.7)"/>
      <use xlink:href="#DejaVuSans-20" transform="translate(109.18457 0.78125)"/>
      <use xlink:href="#DejaVuSans-3d" transform="translate(140.97168 0.78125)"/>
      <use xlink:href="#DejaVuSans-20" transform="translate(224.760742 0.78125)"/>
      <use xlink:href="#DejaVuSans-30" transform="translate(256.547852 0.78125)"/>
      <use xlink:href="#DejaVuSans-2e" transform="translate(320.170898 0.78125)"/>
      <use xlink:href="#DejaVuSans-36" transform="translate(351.958008 0.78125)"/>
      <use xlink:href="#DejaVuSans-31" transform="translate(415.581055 0.78125)"/>
      <use xlink:href="#DejaVuSans-31" transform="translate(479.204102 0.78125)"/>
     </g>
    </g>
    <g id="line2d_31">
     <path d="M 403.724844 155.133672 
L 414.724844 155.133672 
L 425.724844 155.133672 
" style="fill: none; stroke: #ccb974; stroke-width: 1.5; stroke-linecap: round"/>
    </g>
    <g id="text_23">
     <!-- $\mu_\theta$ = 0.656 -->
     <g style="fill: #262626" transform="translate(434.524844 158.983672)scale(0.11 -0.11)">
      <use xlink:href="#DejaVuSans-Oblique-3bc" transform="translate(0 0.78125)"/>
      <use xlink:href="#DejaVuSans-Oblique-3b8" transform="translate(63.623047 -15.625)scale(0.7)"/>
      <use xlink:href="#DejaVuSans-20" transform="translate(109.18457 0.78125)"/>
      <use xlink:href="#DejaVuSans-3d" transform="translate(140.97168 0.78125)"/>
      <use xlink:href="#DejaVuSans-20" transform="translate(224.760742 0.78125)"/>
      <use xlink:href="#DejaVuSans-30" transform="translate(256.547852 0.78125)"/>
      <use xlink:href="#DejaVuSans-2e" transform="translate(320.170898 0.78125)"/>
      <use xlink:href="#DejaVuSans-36" transform="translate(351.958008 0.78125)"/>
      <use xlink:href="#DejaVuSans-35" transform="translate(415.581055 0.78125)"/>
      <use xlink:href="#DejaVuSans-36" transform="translate(479.204102 0.78125)"/>
     </g>
    </g>
    <g id="line2d_32">
     <path d="M 403.724844 171.301953 
L 414.724844 171.301953 
L 425.724844 171.301953 
" style="fill: none; stroke: #64b5cd; stroke-width: 1.5; stroke-linecap: round"/>
    </g>
    <g id="text_24">
     <!-- $\mu_\theta$ = 0.700 -->
     <g style="fill: #262626" transform="translate(434.524844 175.151953)scale(0.11 -0.11)">
      <use xlink:href="#DejaVuSans-Oblique-3bc" transform="translate(0 0.78125)"/>
      <use xlink:href="#DejaVuSans-Oblique-3b8" transform="translate(63.623047 -15.625)scale(0.7)"/>
      <use xlink:href="#DejaVuSans-20" transform="translate(109.18457 0.78125)"/>
      <use xlink:href="#DejaVuSans-3d" transform="translate(140.97168 0.78125)"/>
      <use xlink:href="#DejaVuSans-20" transform="translate(224.760742 0.78125)"/>
      <use xlink:href="#DejaVuSans-30" transform="translate(256.547852 0.78125)"/>
      <use xlink:href="#DejaVuSans-2e" transform="translate(320.170898 0.78125)"/>
      <use xlink:href="#DejaVuSans-37" transform="translate(344.208008 0.78125)"/>
      <use xlink:href="#DejaVuSans-30" transform="translate(407.831055 0.78125)"/>
      <use xlink:href="#DejaVuSans-30" transform="translate(471.454102 0.78125)"/>
     </g>
    </g>
   </g>
  </g>
 </g>
 <defs>
  <clipPath id="p7f890afa1e">
   <rect x="59.024844" y="11.379141" width="334.8" height="217.44"/>
  </clipPath>
 </defs>
</svg>
