<?xml version="1.0" encoding="utf-8" standalone="no"?>
<!DOCTYPE svg PUBLIC "-//W3C//DTD SVG 1.1//EN"
  "http://www.w3.org/Graphics/SVG/1.1/DTD/svg11.dtd">
<svg xmlns:xlink="http://www.w3.org/1999/xlink" width="505.084844pt" height="271.805078pt" viewBox="0 0 505.084844 271.805078" xmlns="http://www.w3.org/2000/svg" version="1.1">
 <metadata>
  <rdf:RDF xmlns:dc="http://purl.org/dc/elements/1.1/" xmlns:cc="http://creativecommons.org/ns#" xmlns:rdf="http://www.w3.org/1999/02/22-rdf-syntax-ns#">
   <cc:Work>
    <dc:type rdf:resource="http://purl.org/dc/dcmitype/StillImage"/>
    <dc:date>2022-06-23T13:52:56.037651</dc:date>
    <dc:format>image/svg+xml</dc:format>
    <dc:creator>
     <cc:Agent>
      <dc:title>Matplotlib v3.5.2, https://matplotlib.org/</dc:title>
     </cc:Agent>
    </dc:creator>
   </cc:Work>
  </rdf:RDF>
 </metadata>
 <defs>
  <style type="text/css">*{stroke-linejoin: round; stroke-linecap: butt}</style>
 </defs>
 <g id="figure_1">
  <g id="patch_1">
   <path d="M 0 271.805078 
L 505.084844 271.805078 
L 505.084844 0 
L 0 0 
L 0 271.805078 
z
" style="fill: none"/>
  </g>
  <g id="axes_1">
   <g id="patch_2">
    <path d="M 59.024844 228.819141 
L 393.824844 228.819141 
L 393.824844 11.379141 
L 59.024844 11.379141 
z
" style="fill: #eaeaf2"/>
   </g>
   <g id="matplotlib.axis_1">
    <g id="xtick_1">
     <g id="line2d_1">
      <path d="M 74.243026 228.819141 
L 74.243026 11.379141 
" clip-path="url(#pf66561aba7)" style="fill: none; stroke: #ffffff; stroke-linecap: round"/>
     </g>
     <g id="text_1">
      <!-- 0.0 -->
      <g style="fill: #262626" transform="translate(65.496307 246.677422)scale(0.11 -0.11)">
       <defs>
        <path id="DejaVuSans-30" d="M 2034 4250 
Q 1547 4250 1301 3770 
Q 1056 3291 1056 2328 
Q 1056 1369 1301 889 
Q 1547 409 2034 409 
Q 2525 409 2770 889 
Q 3016 1369 3016 2328 
Q 3016 3291 2770 3770 
Q 2525 4250 2034 4250 
z
M 2034 4750 
Q 2819 4750 3233 4129 
Q 3647 3509 3647 2328 
Q 3647 1150 3233 529 
Q 2819 -91 2034 -91 
Q 1250 -91 836 529 
Q 422 1150 422 2328 
Q 422 3509 836 4129 
Q 1250 4750 2034 4750 
z
" transform="scale(0.015625)"/>
        <path id="DejaVuSans-2e" d="M 684 794 
L 1344 794 
L 1344 0 
L 684 0 
L 684 794 
z
" transform="scale(0.015625)"/>
       </defs>
       <use xlink:href="#DejaVuSans-30"/>
       <use xlink:href="#DejaVuSans-2e" x="63.623047"/>
       <use xlink:href="#DejaVuSans-30" x="95.410156"/>
      </g>
     </g>
    </g>
    <g id="xtick_2">
     <g id="line2d_2">
      <path d="M 135.115753 228.819141 
L 135.115753 11.379141 
" clip-path="url(#pf66561aba7)" style="fill: none; stroke: #ffffff; stroke-linecap: round"/>
     </g>
     <g id="text_2">
      <!-- 0.2 -->
      <g style="fill: #262626" transform="translate(126.369034 246.677422)scale(0.11 -0.11)">
       <defs>
        <path id="DejaVuSans-32" d="M 1228 531 
L 3431 531 
L 3431 0 
L 469 0 
L 469 531 
Q 828 903 1448 1529 
Q 2069 2156 2228 2338 
Q 2531 2678 2651 2914 
Q 2772 3150 2772 3378 
Q 2772 3750 2511 3984 
Q 2250 4219 1831 4219 
Q 1534 4219 1204 4116 
Q 875 4013 500 3803 
L 500 4441 
Q 881 4594 1212 4672 
Q 1544 4750 1819 4750 
Q 2544 4750 2975 4387 
Q 3406 4025 3406 3419 
Q 3406 3131 3298 2873 
Q 3191 2616 2906 2266 
Q 2828 2175 2409 1742 
Q 1991 1309 1228 531 
z
" transform="scale(0.015625)"/>
       </defs>
       <use xlink:href="#DejaVuSans-30"/>
       <use xlink:href="#DejaVuSans-2e" x="63.623047"/>
       <use xlink:href="#DejaVuSans-32" x="95.410156"/>
      </g>
     </g>
    </g>
    <g id="xtick_3">
     <g id="line2d_3">
      <path d="M 195.98848 228.819141 
L 195.98848 11.379141 
" clip-path="url(#pf66561aba7)" style="fill: none; stroke: #ffffff; stroke-linecap: round"/>
     </g>
     <g id="text_3">
      <!-- 0.4 -->
      <g style="fill: #262626" transform="translate(187.241761 246.677422)scale(0.11 -0.11)">
       <defs>
        <path id="DejaVuSans-34" d="M 2419 4116 
L 825 1625 
L 2419 1625 
L 2419 4116 
z
M 2253 4666 
L 3047 4666 
L 3047 1625 
L 3713 1625 
L 3713 1100 
L 3047 1100 
L 3047 0 
L 2419 0 
L 2419 1100 
L 313 1100 
L 313 1709 
L 2253 4666 
z
" transform="scale(0.015625)"/>
       </defs>
       <use xlink:href="#DejaVuSans-30"/>
       <use xlink:href="#DejaVuSans-2e" x="63.623047"/>
       <use xlink:href="#DejaVuSans-34" x="95.410156"/>
      </g>
     </g>
    </g>
    <g id="xtick_4">
     <g id="line2d_4">
      <path d="M 256.861207 228.819141 
L 256.861207 11.379141 
" clip-path="url(#pf66561aba7)" style="fill: none; stroke: #ffffff; stroke-linecap: round"/>
     </g>
     <g id="text_4">
      <!-- 0.6 -->
      <g style="fill: #262626" transform="translate(248.114489 246.677422)scale(0.11 -0.11)">
       <defs>
        <path id="DejaVuSans-36" d="M 2113 2584 
Q 1688 2584 1439 2293 
Q 1191 2003 1191 1497 
Q 1191 994 1439 701 
Q 1688 409 2113 409 
Q 2538 409 2786 701 
Q 3034 994 3034 1497 
Q 3034 2003 2786 2293 
Q 2538 2584 2113 2584 
z
M 3366 4563 
L 3366 3988 
Q 3128 4100 2886 4159 
Q 2644 4219 2406 4219 
Q 1781 4219 1451 3797 
Q 1122 3375 1075 2522 
Q 1259 2794 1537 2939 
Q 1816 3084 2150 3084 
Q 2853 3084 3261 2657 
Q 3669 2231 3669 1497 
Q 3669 778 3244 343 
Q 2819 -91 2113 -91 
Q 1303 -91 875 529 
Q 447 1150 447 2328 
Q 447 3434 972 4092 
Q 1497 4750 2381 4750 
Q 2619 4750 2861 4703 
Q 3103 4656 3366 4563 
z
" transform="scale(0.015625)"/>
       </defs>
       <use xlink:href="#DejaVuSans-30"/>
       <use xlink:href="#DejaVuSans-2e" x="63.623047"/>
       <use xlink:href="#DejaVuSans-36" x="95.410156"/>
      </g>
     </g>
    </g>
    <g id="xtick_5">
     <g id="line2d_5">
      <path d="M 317.733935 228.819141 
L 317.733935 11.379141 
" clip-path="url(#pf66561aba7)" style="fill: none; stroke: #ffffff; stroke-linecap: round"/>
     </g>
     <g id="text_5">
      <!-- 0.8 -->
      <g style="fill: #262626" transform="translate(308.987216 246.677422)scale(0.11 -0.11)">
       <defs>
        <path id="DejaVuSans-38" d="M 2034 2216 
Q 1584 2216 1326 1975 
Q 1069 1734 1069 1313 
Q 1069 891 1326 650 
Q 1584 409 2034 409 
Q 2484 409 2743 651 
Q 3003 894 3003 1313 
Q 3003 1734 2745 1975 
Q 2488 2216 2034 2216 
z
M 1403 2484 
Q 997 2584 770 2862 
Q 544 3141 544 3541 
Q 544 4100 942 4425 
Q 1341 4750 2034 4750 
Q 2731 4750 3128 4425 
Q 3525 4100 3525 3541 
Q 3525 3141 3298 2862 
Q 3072 2584 2669 2484 
Q 3125 2378 3379 2068 
Q 3634 1759 3634 1313 
Q 3634 634 3220 271 
Q 2806 -91 2034 -91 
Q 1263 -91 848 271 
Q 434 634 434 1313 
Q 434 1759 690 2068 
Q 947 2378 1403 2484 
z
M 1172 3481 
Q 1172 3119 1398 2916 
Q 1625 2713 2034 2713 
Q 2441 2713 2670 2916 
Q 2900 3119 2900 3481 
Q 2900 3844 2670 4047 
Q 2441 4250 2034 4250 
Q 1625 4250 1398 4047 
Q 1172 3844 1172 3481 
z
" transform="scale(0.015625)"/>
       </defs>
       <use xlink:href="#DejaVuSans-30"/>
       <use xlink:href="#DejaVuSans-2e" x="63.623047"/>
       <use xlink:href="#DejaVuSans-38" x="95.410156"/>
      </g>
     </g>
    </g>
    <g id="xtick_6">
     <g id="line2d_6">
      <path d="M 378.606662 228.819141 
L 378.606662 11.379141 
" clip-path="url(#pf66561aba7)" style="fill: none; stroke: #ffffff; stroke-linecap: round"/>
     </g>
     <g id="text_6">
      <!-- 1.0 -->
      <g style="fill: #262626" transform="translate(369.859943 246.677422)scale(0.11 -0.11)">
       <defs>
        <path id="DejaVuSans-31" d="M 794 531 
L 1825 531 
L 1825 4091 
L 703 3866 
L 703 4441 
L 1819 4666 
L 2450 4666 
L 2450 531 
L 3481 531 
L 3481 0 
L 794 0 
L 794 531 
z
" transform="scale(0.015625)"/>
       </defs>
       <use xlink:href="#DejaVuSans-31"/>
       <use xlink:href="#DejaVuSans-2e" x="63.623047"/>
       <use xlink:href="#DejaVuSans-30" x="95.410156"/>
      </g>
     </g>
    </g>
    <g id="text_7">
     <!-- Normalised Beam Angle $\omega$ -->
     <g style="fill: #262626" transform="translate(147.164844 262.085078)scale(0.12 -0.12)">
      <defs>
       <path id="DejaVuSans-4e" d="M 628 4666 
L 1478 4666 
L 3547 763 
L 3547 4666 
L 4159 4666 
L 4159 0 
L 3309 0 
L 1241 3903 
L 1241 0 
L 628 0 
L 628 4666 
z
" transform="scale(0.015625)"/>
       <path id="DejaVuSans-6f" d="M 1959 3097 
Q 1497 3097 1228 2736 
Q 959 2375 959 1747 
Q 959 1119 1226 758 
Q 1494 397 1959 397 
Q 2419 397 2687 759 
Q 2956 1122 2956 1747 
Q 2956 2369 2687 2733 
Q 2419 3097 1959 3097 
z
M 1959 3584 
Q 2709 3584 3137 3096 
Q 3566 2609 3566 1747 
Q 3566 888 3137 398 
Q 2709 -91 1959 -91 
Q 1206 -91 779 398 
Q 353 888 353 1747 
Q 353 2609 779 3096 
Q 1206 3584 1959 3584 
z
" transform="scale(0.015625)"/>
       <path id="DejaVuSans-72" d="M 2631 2963 
Q 2534 3019 2420 3045 
Q 2306 3072 2169 3072 
Q 1681 3072 1420 2755 
Q 1159 2438 1159 1844 
L 1159 0 
L 581 0 
L 581 3500 
L 1159 3500 
L 1159 2956 
Q 1341 3275 1631 3429 
Q 1922 3584 2338 3584 
Q 2397 3584 2469 3576 
Q 2541 3569 2628 3553 
L 2631 2963 
z
" transform="scale(0.015625)"/>
       <path id="DejaVuSans-6d" d="M 3328 2828 
Q 3544 3216 3844 3400 
Q 4144 3584 4550 3584 
Q 5097 3584 5394 3201 
Q 5691 2819 5691 2113 
L 5691 0 
L 5113 0 
L 5113 2094 
Q 5113 2597 4934 2840 
Q 4756 3084 4391 3084 
Q 3944 3084 3684 2787 
Q 3425 2491 3425 1978 
L 3425 0 
L 2847 0 
L 2847 2094 
Q 2847 2600 2669 2842 
Q 2491 3084 2119 3084 
Q 1678 3084 1418 2786 
Q 1159 2488 1159 1978 
L 1159 0 
L 581 0 
L 581 3500 
L 1159 3500 
L 1159 2956 
Q 1356 3278 1631 3431 
Q 1906 3584 2284 3584 
Q 2666 3584 2933 3390 
Q 3200 3197 3328 2828 
z
" transform="scale(0.015625)"/>
       <path id="DejaVuSans-61" d="M 2194 1759 
Q 1497 1759 1228 1600 
Q 959 1441 959 1056 
Q 959 750 1161 570 
Q 1363 391 1709 391 
Q 2188 391 2477 730 
Q 2766 1069 2766 1631 
L 2766 1759 
L 2194 1759 
z
M 3341 1997 
L 3341 0 
L 2766 0 
L 2766 531 
Q 2569 213 2275 61 
Q 1981 -91 1556 -91 
Q 1019 -91 701 211 
Q 384 513 384 1019 
Q 384 1609 779 1909 
Q 1175 2209 1959 2209 
L 2766 2209 
L 2766 2266 
Q 2766 2663 2505 2880 
Q 2244 3097 1772 3097 
Q 1472 3097 1187 3025 
Q 903 2953 641 2809 
L 641 3341 
Q 956 3463 1253 3523 
Q 1550 3584 1831 3584 
Q 2591 3584 2966 3190 
Q 3341 2797 3341 1997 
z
" transform="scale(0.015625)"/>
       <path id="DejaVuSans-6c" d="M 603 4863 
L 1178 4863 
L 1178 0 
L 603 0 
L 603 4863 
z
" transform="scale(0.015625)"/>
       <path id="DejaVuSans-69" d="M 603 3500 
L 1178 3500 
L 1178 0 
L 603 0 
L 603 3500 
z
M 603 4863 
L 1178 4863 
L 1178 4134 
L 603 4134 
L 603 4863 
z
" transform="scale(0.015625)"/>
       <path id="DejaVuSans-73" d="M 2834 3397 
L 2834 2853 
Q 2591 2978 2328 3040 
Q 2066 3103 1784 3103 
Q 1356 3103 1142 2972 
Q 928 2841 928 2578 
Q 928 2378 1081 2264 
Q 1234 2150 1697 2047 
L 1894 2003 
Q 2506 1872 2764 1633 
Q 3022 1394 3022 966 
Q 3022 478 2636 193 
Q 2250 -91 1575 -91 
Q 1294 -91 989 -36 
Q 684 19 347 128 
L 347 722 
Q 666 556 975 473 
Q 1284 391 1588 391 
Q 1994 391 2212 530 
Q 2431 669 2431 922 
Q 2431 1156 2273 1281 
Q 2116 1406 1581 1522 
L 1381 1569 
Q 847 1681 609 1914 
Q 372 2147 372 2553 
Q 372 3047 722 3315 
Q 1072 3584 1716 3584 
Q 2034 3584 2315 3537 
Q 2597 3491 2834 3397 
z
" transform="scale(0.015625)"/>
       <path id="DejaVuSans-65" d="M 3597 1894 
L 3597 1613 
L 953 1613 
Q 991 1019 1311 708 
Q 1631 397 2203 397 
Q 2534 397 2845 478 
Q 3156 559 3463 722 
L 3463 178 
Q 3153 47 2828 -22 
Q 2503 -91 2169 -91 
Q 1331 -91 842 396 
Q 353 884 353 1716 
Q 353 2575 817 3079 
Q 1281 3584 2069 3584 
Q 2775 3584 3186 3129 
Q 3597 2675 3597 1894 
z
M 3022 2063 
Q 3016 2534 2758 2815 
Q 2500 3097 2075 3097 
Q 1594 3097 1305 2825 
Q 1016 2553 972 2059 
L 3022 2063 
z
" transform="scale(0.015625)"/>
       <path id="DejaVuSans-64" d="M 2906 2969 
L 2906 4863 
L 3481 4863 
L 3481 0 
L 2906 0 
L 2906 525 
Q 2725 213 2448 61 
Q 2172 -91 1784 -91 
Q 1150 -91 751 415 
Q 353 922 353 1747 
Q 353 2572 751 3078 
Q 1150 3584 1784 3584 
Q 2172 3584 2448 3432 
Q 2725 3281 2906 2969 
z
M 947 1747 
Q 947 1113 1208 752 
Q 1469 391 1925 391 
Q 2381 391 2643 752 
Q 2906 1113 2906 1747 
Q 2906 2381 2643 2742 
Q 2381 3103 1925 3103 
Q 1469 3103 1208 2742 
Q 947 2381 947 1747 
z
" transform="scale(0.015625)"/>
       <path id="DejaVuSans-20" transform="scale(0.015625)"/>
       <path id="DejaVuSans-42" d="M 1259 2228 
L 1259 519 
L 2272 519 
Q 2781 519 3026 730 
Q 3272 941 3272 1375 
Q 3272 1813 3026 2020 
Q 2781 2228 2272 2228 
L 1259 2228 
z
M 1259 4147 
L 1259 2741 
L 2194 2741 
Q 2656 2741 2882 2914 
Q 3109 3088 3109 3444 
Q 3109 3797 2882 3972 
Q 2656 4147 2194 4147 
L 1259 4147 
z
M 628 4666 
L 2241 4666 
Q 2963 4666 3353 4366 
Q 3744 4066 3744 3513 
Q 3744 3084 3544 2831 
Q 3344 2578 2956 2516 
Q 3422 2416 3680 2098 
Q 3938 1781 3938 1306 
Q 3938 681 3513 340 
Q 3088 0 2303 0 
L 628 0 
L 628 4666 
z
" transform="scale(0.015625)"/>
       <path id="DejaVuSans-41" d="M 2188 4044 
L 1331 1722 
L 3047 1722 
L 2188 4044 
z
M 1831 4666 
L 2547 4666 
L 4325 0 
L 3669 0 
L 3244 1197 
L 1141 1197 
L 716 0 
L 50 0 
L 1831 4666 
z
" transform="scale(0.015625)"/>
       <path id="DejaVuSans-6e" d="M 3513 2113 
L 3513 0 
L 2938 0 
L 2938 2094 
Q 2938 2591 2744 2837 
Q 2550 3084 2163 3084 
Q 1697 3084 1428 2787 
Q 1159 2491 1159 1978 
L 1159 0 
L 581 0 
L 581 3500 
L 1159 3500 
L 1159 2956 
Q 1366 3272 1645 3428 
Q 1925 3584 2291 3584 
Q 2894 3584 3203 3211 
Q 3513 2838 3513 2113 
z
" transform="scale(0.015625)"/>
       <path id="DejaVuSans-67" d="M 2906 1791 
Q 2906 2416 2648 2759 
Q 2391 3103 1925 3103 
Q 1463 3103 1205 2759 
Q 947 2416 947 1791 
Q 947 1169 1205 825 
Q 1463 481 1925 481 
Q 2391 481 2648 825 
Q 2906 1169 2906 1791 
z
M 3481 434 
Q 3481 -459 3084 -895 
Q 2688 -1331 1869 -1331 
Q 1566 -1331 1297 -1286 
Q 1028 -1241 775 -1147 
L 775 -588 
Q 1028 -725 1275 -790 
Q 1522 -856 1778 -856 
Q 2344 -856 2625 -561 
Q 2906 -266 2906 331 
L 2906 616 
Q 2728 306 2450 153 
Q 2172 0 1784 0 
Q 1141 0 747 490 
Q 353 981 353 1791 
Q 353 2603 747 3093 
Q 1141 3584 1784 3584 
Q 2172 3584 2450 3431 
Q 2728 3278 2906 2969 
L 2906 3500 
L 3481 3500 
L 3481 434 
z
" transform="scale(0.015625)"/>
       <path id="DejaVuSans-Oblique-3c9" d="M 1369 -91 
Q 72 -91 434 1766 
Q 575 2500 1256 3500 
L 1875 3500 
Q 1231 2500 1088 1750 
Q 819 397 1519 397 
Q 2166 397 2478 2078 
L 3009 2078 
Q 2669 388 3316 397 
Q 4013 403 4275 1750 
Q 4419 2500 4169 3500 
L 4788 3500 
Q 5075 2500 4934 1766 
Q 4578 -94 3278 -91 
Q 2428 -88 2503 844 
Q 2194 -91 1369 -91 
z
" transform="scale(0.015625)"/>
      </defs>
      <use xlink:href="#DejaVuSans-4e" transform="translate(0 0.015625)"/>
      <use xlink:href="#DejaVuSans-6f" transform="translate(74.804688 0.015625)"/>
      <use xlink:href="#DejaVuSans-72" transform="translate(135.986328 0.015625)"/>
      <use xlink:href="#DejaVuSans-6d" transform="translate(177.099609 0.015625)"/>
      <use xlink:href="#DejaVuSans-61" transform="translate(274.511719 0.015625)"/>
      <use xlink:href="#DejaVuSans-6c" transform="translate(335.791016 0.015625)"/>
      <use xlink:href="#DejaVuSans-69" transform="translate(363.574219 0.015625)"/>
      <use xlink:href="#DejaVuSans-73" transform="translate(391.357422 0.015625)"/>
      <use xlink:href="#DejaVuSans-65" transform="translate(443.457031 0.015625)"/>
      <use xlink:href="#DejaVuSans-64" transform="translate(504.980469 0.015625)"/>
      <use xlink:href="#DejaVuSans-20" transform="translate(568.457031 0.015625)"/>
      <use xlink:href="#DejaVuSans-42" transform="translate(600.244141 0.015625)"/>
      <use xlink:href="#DejaVuSans-65" transform="translate(668.847656 0.015625)"/>
      <use xlink:href="#DejaVuSans-61" transform="translate(730.371094 0.015625)"/>
      <use xlink:href="#DejaVuSans-6d" transform="translate(791.650391 0.015625)"/>
      <use xlink:href="#DejaVuSans-20" transform="translate(889.0625 0.015625)"/>
      <use xlink:href="#DejaVuSans-41" transform="translate(920.849609 0.015625)"/>
      <use xlink:href="#DejaVuSans-6e" transform="translate(989.257812 0.015625)"/>
      <use xlink:href="#DejaVuSans-67" transform="translate(1052.636719 0.015625)"/>
      <use xlink:href="#DejaVuSans-6c" transform="translate(1116.113281 0.015625)"/>
      <use xlink:href="#DejaVuSans-65" transform="translate(1143.896484 0.015625)"/>
      <use xlink:href="#DejaVuSans-20" transform="translate(1205.419922 0.015625)"/>
      <use xlink:href="#DejaVuSans-Oblique-3c9" transform="translate(1237.207031 0.015625)"/>
     </g>
    </g>
   </g>
   <g id="matplotlib.axis_2">
    <g id="ytick_1">
     <g id="line2d_7">
      <path d="M 59.024844 228.819141 
L 393.824844 228.819141 
" clip-path="url(#pf66561aba7)" style="fill: none; stroke: #ffffff; stroke-linecap: round"/>
     </g>
     <g id="text_8">
      <!-- −1.6 -->
      <g style="fill: #262626" transform="translate(22.81375 232.998281)scale(0.11 -0.11)">
       <defs>
        <path id="DejaVuSans-2212" d="M 678 2272 
L 4684 2272 
L 4684 1741 
L 678 1741 
L 678 2272 
z
" transform="scale(0.015625)"/>
       </defs>
       <use xlink:href="#DejaVuSans-2212"/>
       <use xlink:href="#DejaVuSans-31" x="83.789062"/>
       <use xlink:href="#DejaVuSans-2e" x="147.412109"/>
       <use xlink:href="#DejaVuSans-36" x="179.199219"/>
      </g>
     </g>
    </g>
    <g id="ytick_2">
     <g id="line2d_8">
      <path d="M 59.024844 185.331141 
L 393.824844 185.331141 
" clip-path="url(#pf66561aba7)" style="fill: none; stroke: #ffffff; stroke-linecap: round"/>
     </g>
     <g id="text_9">
      <!-- −1.4 -->
      <g style="fill: #262626" transform="translate(22.81375 189.510281)scale(0.11 -0.11)">
       <use xlink:href="#DejaVuSans-2212"/>
       <use xlink:href="#DejaVuSans-31" x="83.789062"/>
       <use xlink:href="#DejaVuSans-2e" x="147.412109"/>
       <use xlink:href="#DejaVuSans-34" x="179.199219"/>
      </g>
     </g>
    </g>
    <g id="ytick_3">
     <g id="line2d_9">
      <path d="M 59.024844 141.843141 
L 393.824844 141.843141 
" clip-path="url(#pf66561aba7)" style="fill: none; stroke: #ffffff; stroke-linecap: round"/>
     </g>
     <g id="text_10">
      <!-- −1.2 -->
      <g style="fill: #262626" transform="translate(22.81375 146.022281)scale(0.11 -0.11)">
       <use xlink:href="#DejaVuSans-2212"/>
       <use xlink:href="#DejaVuSans-31" x="83.789062"/>
       <use xlink:href="#DejaVuSans-2e" x="147.412109"/>
       <use xlink:href="#DejaVuSans-32" x="179.199219"/>
      </g>
     </g>
    </g>
    <g id="ytick_4">
     <g id="line2d_10">
      <path d="M 59.024844 98.355141 
L 393.824844 98.355141 
" clip-path="url(#pf66561aba7)" style="fill: none; stroke: #ffffff; stroke-linecap: round"/>
     </g>
     <g id="text_11">
      <!-- −1.0 -->
      <g style="fill: #262626" transform="translate(22.81375 102.534281)scale(0.11 -0.11)">
       <use xlink:href="#DejaVuSans-2212"/>
       <use xlink:href="#DejaVuSans-31" x="83.789062"/>
       <use xlink:href="#DejaVuSans-2e" x="147.412109"/>
       <use xlink:href="#DejaVuSans-30" x="179.199219"/>
      </g>
     </g>
    </g>
    <g id="ytick_5">
     <g id="line2d_11">
      <path d="M 59.024844 54.867141 
L 393.824844 54.867141 
" clip-path="url(#pf66561aba7)" style="fill: none; stroke: #ffffff; stroke-linecap: round"/>
     </g>
     <g id="text_12">
      <!-- −0.8 -->
      <g style="fill: #262626" transform="translate(22.81375 59.046281)scale(0.11 -0.11)">
       <use xlink:href="#DejaVuSans-2212"/>
       <use xlink:href="#DejaVuSans-30" x="83.789062"/>
       <use xlink:href="#DejaVuSans-2e" x="147.412109"/>
       <use xlink:href="#DejaVuSans-38" x="179.199219"/>
      </g>
     </g>
    </g>
    <g id="ytick_6">
     <g id="line2d_12">
      <path d="M 59.024844 11.379141 
L 393.824844 11.379141 
" clip-path="url(#pf66561aba7)" style="fill: none; stroke: #ffffff; stroke-linecap: round"/>
     </g>
     <g id="text_13">
      <!-- −0.6 -->
      <g style="fill: #262626" transform="translate(22.81375 15.558281)scale(0.11 -0.11)">
       <use xlink:href="#DejaVuSans-2212"/>
       <use xlink:href="#DejaVuSans-30" x="83.789062"/>
       <use xlink:href="#DejaVuSans-2e" x="147.412109"/>
       <use xlink:href="#DejaVuSans-36" x="179.199219"/>
      </g>
     </g>
    </g>
    <g id="text_14">
     <!-- Average Posterior Entropy (APE) -->
     <g style="fill: #262626" transform="translate(16.318125 216.476016)rotate(-90)scale(0.12 -0.12)">
      <defs>
       <path id="DejaVuSans-76" d="M 191 3500 
L 800 3500 
L 1894 563 
L 2988 3500 
L 3597 3500 
L 2284 0 
L 1503 0 
L 191 3500 
z
" transform="scale(0.015625)"/>
       <path id="DejaVuSans-50" d="M 1259 4147 
L 1259 2394 
L 2053 2394 
Q 2494 2394 2734 2622 
Q 2975 2850 2975 3272 
Q 2975 3691 2734 3919 
Q 2494 4147 2053 4147 
L 1259 4147 
z
M 628 4666 
L 2053 4666 
Q 2838 4666 3239 4311 
Q 3641 3956 3641 3272 
Q 3641 2581 3239 2228 
Q 2838 1875 2053 1875 
L 1259 1875 
L 1259 0 
L 628 0 
L 628 4666 
z
" transform="scale(0.015625)"/>
       <path id="DejaVuSans-74" d="M 1172 4494 
L 1172 3500 
L 2356 3500 
L 2356 3053 
L 1172 3053 
L 1172 1153 
Q 1172 725 1289 603 
Q 1406 481 1766 481 
L 2356 481 
L 2356 0 
L 1766 0 
Q 1100 0 847 248 
Q 594 497 594 1153 
L 594 3053 
L 172 3053 
L 172 3500 
L 594 3500 
L 594 4494 
L 1172 4494 
z
" transform="scale(0.015625)"/>
       <path id="DejaVuSans-45" d="M 628 4666 
L 3578 4666 
L 3578 4134 
L 1259 4134 
L 1259 2753 
L 3481 2753 
L 3481 2222 
L 1259 2222 
L 1259 531 
L 3634 531 
L 3634 0 
L 628 0 
L 628 4666 
z
" transform="scale(0.015625)"/>
       <path id="DejaVuSans-70" d="M 1159 525 
L 1159 -1331 
L 581 -1331 
L 581 3500 
L 1159 3500 
L 1159 2969 
Q 1341 3281 1617 3432 
Q 1894 3584 2278 3584 
Q 2916 3584 3314 3078 
Q 3713 2572 3713 1747 
Q 3713 922 3314 415 
Q 2916 -91 2278 -91 
Q 1894 -91 1617 61 
Q 1341 213 1159 525 
z
M 3116 1747 
Q 3116 2381 2855 2742 
Q 2594 3103 2138 3103 
Q 1681 3103 1420 2742 
Q 1159 2381 1159 1747 
Q 1159 1113 1420 752 
Q 1681 391 2138 391 
Q 2594 391 2855 752 
Q 3116 1113 3116 1747 
z
" transform="scale(0.015625)"/>
       <path id="DejaVuSans-79" d="M 2059 -325 
Q 1816 -950 1584 -1140 
Q 1353 -1331 966 -1331 
L 506 -1331 
L 506 -850 
L 844 -850 
Q 1081 -850 1212 -737 
Q 1344 -625 1503 -206 
L 1606 56 
L 191 3500 
L 800 3500 
L 1894 763 
L 2988 3500 
L 3597 3500 
L 2059 -325 
z
" transform="scale(0.015625)"/>
       <path id="DejaVuSans-28" d="M 1984 4856 
Q 1566 4138 1362 3434 
Q 1159 2731 1159 2009 
Q 1159 1288 1364 580 
Q 1569 -128 1984 -844 
L 1484 -844 
Q 1016 -109 783 600 
Q 550 1309 550 2009 
Q 550 2706 781 3412 
Q 1013 4119 1484 4856 
L 1984 4856 
z
" transform="scale(0.015625)"/>
       <path id="DejaVuSans-29" d="M 513 4856 
L 1013 4856 
Q 1481 4119 1714 3412 
Q 1947 2706 1947 2009 
Q 1947 1309 1714 600 
Q 1481 -109 1013 -844 
L 513 -844 
Q 928 -128 1133 580 
Q 1338 1288 1338 2009 
Q 1338 2731 1133 3434 
Q 928 4138 513 4856 
z
" transform="scale(0.015625)"/>
      </defs>
      <use xlink:href="#DejaVuSans-41"/>
      <use xlink:href="#DejaVuSans-76" x="62.533203"/>
      <use xlink:href="#DejaVuSans-65" x="121.712891"/>
      <use xlink:href="#DejaVuSans-72" x="183.236328"/>
      <use xlink:href="#DejaVuSans-61" x="224.349609"/>
      <use xlink:href="#DejaVuSans-67" x="285.628906"/>
      <use xlink:href="#DejaVuSans-65" x="349.105469"/>
      <use xlink:href="#DejaVuSans-20" x="410.628906"/>
      <use xlink:href="#DejaVuSans-50" x="442.416016"/>
      <use xlink:href="#DejaVuSans-6f" x="499.09375"/>
      <use xlink:href="#DejaVuSans-73" x="560.275391"/>
      <use xlink:href="#DejaVuSans-74" x="612.375"/>
      <use xlink:href="#DejaVuSans-65" x="651.583984"/>
      <use xlink:href="#DejaVuSans-72" x="713.107422"/>
      <use xlink:href="#DejaVuSans-69" x="754.220703"/>
      <use xlink:href="#DejaVuSans-6f" x="782.003906"/>
      <use xlink:href="#DejaVuSans-72" x="843.185547"/>
      <use xlink:href="#DejaVuSans-20" x="884.298828"/>
      <use xlink:href="#DejaVuSans-45" x="916.085938"/>
      <use xlink:href="#DejaVuSans-6e" x="979.269531"/>
      <use xlink:href="#DejaVuSans-74" x="1042.648438"/>
      <use xlink:href="#DejaVuSans-72" x="1081.857422"/>
      <use xlink:href="#DejaVuSans-6f" x="1120.720703"/>
      <use xlink:href="#DejaVuSans-70" x="1181.902344"/>
      <use xlink:href="#DejaVuSans-79" x="1245.378906"/>
      <use xlink:href="#DejaVuSans-20" x="1304.558594"/>
      <use xlink:href="#DejaVuSans-28" x="1336.345703"/>
      <use xlink:href="#DejaVuSans-41" x="1375.359375"/>
      <use xlink:href="#DejaVuSans-50" x="1443.767578"/>
      <use xlink:href="#DejaVuSans-45" x="1504.070312"/>
      <use xlink:href="#DejaVuSans-29" x="1567.253906"/>
     </g>
    </g>
   </g>
   <g id="line2d_13">
    <path d="M 74.243026 150.853567 
L 80.454528 151.062216 
L 86.666031 151.423034 
L 92.877534 151.955722 
L 99.089036 152.665979 
L 105.300538 153.556475 
L 111.512043 154.628115 
L 117.723542 155.855251 
L 123.935047 157.221934 
L 130.146551 158.684187 
L 136.358051 160.225736 
L 142.569555 161.79882 
L 148.78106 163.403719 
L 154.99256 164.968364 
L 161.204059 166.438705 
L 167.415568 167.882588 
L 173.627068 169.201181 
L 179.838568 170.440582 
L 186.050077 171.494083 
L 192.261577 172.35099 
L 198.473076 173.161032 
L 204.684585 173.752445 
L 210.896085 174.193248 
L 217.107585 174.472431 
L 223.319094 174.595886 
L 229.530594 174.557457 
L 235.742093 174.327384 
L 241.953593 173.972996 
L 248.165093 173.46594 
L 254.376611 172.782741 
L 260.588111 171.988682 
L 266.799611 171.015583 
L 273.011111 169.90891 
L 279.22261 168.717478 
L 285.43411 167.386641 
L 291.64561 165.975223 
L 297.857128 164.495259 
L 304.068628 162.943876 
L 310.280128 161.377939 
L 316.491627 159.824318 
L 322.703127 158.298799 
L 328.914627 156.84614 
L 335.126145 155.537997 
L 341.337645 154.336082 
L 347.549145 153.306545 
L 353.760645 152.479488 
L 359.972144 151.801663 
L 366.183644 151.333785 
L 372.395162 151.018094 
L 378.606662 150.836735 
" clip-path="url(#pf66561aba7)" style="fill: none; stroke: #4c72b0; stroke-width: 1.5; stroke-linecap: round"/>
   </g>
   <g id="line2d_14">
    <path d="M 74.243026 129.065676 
L 80.454528 129.324021 
L 86.666031 129.76914 
L 92.877534 130.418257 
L 99.089036 131.297576 
L 105.300538 132.403566 
L 111.512043 133.736308 
L 117.723542 135.258905 
L 123.935047 136.959699 
L 130.146551 138.747772 
L 136.358051 140.617459 
L 142.569555 142.532606 
L 148.78106 144.436393 
L 154.99256 146.377376 
L 161.204059 148.146712 
L 167.415568 149.80686 
L 173.627068 151.360161 
L 179.838568 152.789542 
L 186.050077 154.051847 
L 192.261577 155.110629 
L 198.473076 156.023006 
L 204.684585 156.720903 
L 210.896085 157.208205 
L 217.107585 157.5374 
L 223.319094 157.646005 
L 229.530594 157.604986 
L 235.742093 157.368376 
L 241.953593 156.947112 
L 248.165093 156.326023 
L 254.376611 155.541283 
L 260.588111 154.605306 
L 266.799611 153.447929 
L 273.011111 152.153121 
L 279.22261 150.747357 
L 285.43411 149.179364 
L 291.64561 147.506858 
L 297.857128 145.699367 
L 304.068628 143.824605 
L 310.280128 141.963171 
L 316.491627 140.084236 
L 322.703127 138.228061 
L 328.914627 136.481524 
L 335.126145 134.863091 
L 341.337645 133.388955 
L 347.549145 132.101525 
L 353.760645 131.080026 
L 359.972144 130.23827 
L 366.183644 129.655995 
L 372.395162 129.260674 
L 378.606662 129.040676 
" clip-path="url(#pf66561aba7)" style="fill: none; stroke: #dd8452; stroke-width: 1.5; stroke-linecap: round"/>
   </g>
   <g id="line2d_15">
    <path d="M 74.243026 110.922131 
L 80.454528 111.233854 
L 86.666031 111.775044 
L 92.877534 112.554059 
L 99.089036 113.623296 
L 105.300538 114.968407 
L 111.512043 116.547868 
L 117.723542 118.356161 
L 123.935047 120.371311 
L 130.146551 122.526369 
L 136.358051 124.728858 
L 142.569555 126.98841 
L 148.78106 129.194159 
L 154.99256 131.349483 
L 161.204059 133.415681 
L 167.415568 135.361184 
L 173.627068 137.16167 
L 179.838568 138.738428 
L 186.050077 140.208944 
L 192.261577 141.425515 
L 198.473076 142.431558 
L 204.684585 143.199881 
L 210.896085 143.778235 
L 217.107585 144.150829 
L 223.319094 144.266711 
L 229.530594 144.218855 
L 235.742093 143.929711 
L 241.953593 143.45749 
L 248.165093 142.718187 
L 254.376611 141.872158 
L 260.588111 140.793467 
L 266.799611 139.491339 
L 273.011111 138.023626 
L 279.22261 136.413661 
L 285.43411 134.583296 
L 291.64561 132.663426 
L 297.857128 130.592676 
L 304.068628 128.423285 
L 310.280128 126.269131 
L 316.491627 124.054454 
L 322.703127 121.866956 
L 328.914627 119.783053 
L 335.126145 117.858621 
L 341.337645 116.11443 
L 347.549145 114.588358 
L 353.760645 113.34438 
L 359.972144 112.35801 
L 366.183644 111.641053 
L 372.395162 111.165046 
L 378.606662 110.901691 
" clip-path="url(#pf66561aba7)" style="fill: none; stroke: #55a868; stroke-width: 1.5; stroke-linecap: round"/>
   </g>
   <g id="line2d_16">
    <path d="M 74.243026 95.399927 
L 80.454528 95.756973 
L 86.666031 96.379417 
L 92.877534 97.315009 
L 99.089036 98.580308 
L 105.300538 100.135694 
L 111.512043 102.009456 
L 117.723542 104.139249 
L 123.935047 106.467919 
L 130.146551 108.92313 
L 136.358051 111.448834 
L 142.569555 114.00281 
L 148.78106 116.530925 
L 154.99256 119.010106 
L 161.204059 121.276977 
L 167.415568 123.492677 
L 173.627068 125.458096 
L 179.838568 127.289433 
L 186.050077 128.825826 
L 192.261577 130.178547 
L 198.473076 131.273884 
L 204.684585 132.180475 
L 210.896085 132.816559 
L 217.107585 133.173145 
L 223.319094 133.334518 
L 229.530594 133.253479 
L 235.742093 132.941733 
L 241.953593 132.456856 
L 248.165093 131.647863 
L 254.376611 130.645272 
L 260.588111 129.455534 
L 266.799611 128.051705 
L 273.011111 126.400989 
L 279.22261 124.563824 
L 285.43411 122.554032 
L 291.64561 120.311294 
L 297.857128 118.058132 
L 304.068628 115.6572 
L 310.280128 113.143143 
L 316.491627 110.617642 
L 322.703127 108.112006 
L 328.914627 105.761441 
L 335.126145 103.511854 
L 341.337645 101.495215 
L 347.549145 99.720055 
L 353.760645 98.248854 
L 359.972144 97.086163 
L 366.183644 96.24277 
L 372.395162 95.672547 
L 378.606662 95.356815 
" clip-path="url(#pf66561aba7)" style="fill: none; stroke: #c44e52; stroke-width: 1.5; stroke-linecap: round"/>
   </g>
   <g id="line2d_17">
    <path d="M 74.243026 81.820848 
L 80.454528 82.227154 
L 86.666031 82.975381 
L 92.877534 84.034286 
L 99.089036 85.514465 
L 105.300538 87.331055 
L 111.512043 89.480855 
L 117.723542 91.9013 
L 123.935047 94.546322 
L 130.146551 97.316936 
L 136.358051 100.169644 
L 142.569555 103.015006 
L 148.78106 105.779455 
L 154.99256 108.507813 
L 161.204059 111.082926 
L 167.415568 113.466184 
L 173.627068 115.637771 
L 179.838568 117.60801 
L 186.050077 119.319215 
L 192.261577 120.789838 
L 198.473076 121.998175 
L 204.684585 122.950047 
L 210.896085 123.618593 
L 217.107585 124.062332 
L 223.319094 124.210748 
L 229.530594 124.130883 
L 235.742093 123.789893 
L 241.953593 123.237314 
L 248.165093 122.388556 
L 254.376611 121.293882 
L 260.588111 119.932098 
L 266.799611 118.408664 
L 273.011111 116.611058 
L 279.22261 114.635763 
L 285.43411 112.407514 
L 291.64561 109.995552 
L 297.857128 107.459969 
L 304.068628 104.753193 
L 310.280128 101.987377 
L 316.491627 99.188708 
L 322.703127 96.416306 
L 328.914627 93.704945 
L 335.126145 91.164481 
L 341.337645 88.863432 
L 347.549145 86.836769 
L 353.760645 85.11519 
L 359.972144 83.77045 
L 366.183644 82.798585 
L 372.395162 82.143445 
L 378.606662 81.777074 
" clip-path="url(#pf66561aba7)" style="fill: none; stroke: #8172b3; stroke-width: 1.5; stroke-linecap: round"/>
   </g>
   <g id="line2d_18">
    <path d="M 74.243026 69.753925 
L 80.454528 70.22739 
L 86.666031 71.077338 
L 92.877534 72.309254 
L 99.089036 73.987953 
L 105.300538 76.038145 
L 111.512043 78.473946 
L 117.723542 81.230289 
L 123.935047 84.160254 
L 130.146551 87.231708 
L 136.358051 90.350463 
L 142.569555 93.515649 
L 148.78106 96.558141 
L 154.99256 99.576748 
L 161.204059 102.309378 
L 167.415568 104.844634 
L 173.627068 107.19274 
L 179.838568 109.345633 
L 186.050077 111.22725 
L 192.261577 112.782409 
L 198.473076 114.083552 
L 204.684585 115.118242 
L 210.896085 115.844013 
L 217.107585 116.239666 
L 223.319094 116.455094 
L 229.530594 116.371308 
L 235.742093 115.990999 
L 241.953593 115.378217 
L 248.165093 114.44602 
L 254.376611 113.301856 
L 260.588111 111.816339 
L 266.799611 110.154141 
L 273.011111 108.213199 
L 279.22261 106.101746 
L 285.43411 103.643502 
L 291.64561 101.03048 
L 297.857128 98.305008 
L 304.068628 95.379453 
L 310.280128 92.333762 
L 316.491627 89.264298 
L 322.703127 86.228283 
L 328.914627 83.152854 
L 335.126145 80.365283 
L 341.337645 77.758192 
L 347.549145 75.454494 
L 353.760645 73.531782 
L 359.972144 72.015467 
L 366.183644 70.893524 
L 372.395162 70.142676 
L 378.606662 69.711544 
" clip-path="url(#pf66561aba7)" style="fill: none; stroke: #937860; stroke-width: 1.5; stroke-linecap: round"/>
   </g>
   <g id="line2d_19">
    <path d="M 74.243026 58.906048 
L 80.454528 59.44332 
L 86.666031 60.408562 
L 92.877534 61.807547 
L 99.089036 63.702093 
L 105.300538 66.019531 
L 111.512043 68.786519 
L 117.723542 71.771346 
L 123.935047 75.039403 
L 130.146551 78.428944 
L 136.358051 81.823721 
L 142.569555 85.212667 
L 148.78106 88.497932 
L 154.99256 91.678479 
L 161.204059 94.626951 
L 167.415568 97.460123 
L 173.627068 99.93112 
L 179.838568 102.203305 
L 186.050077 104.157669 
L 192.261577 105.891095 
L 198.473076 107.227954 
L 204.684585 108.357929 
L 210.896085 109.056974 
L 217.107585 109.537427 
L 223.319094 109.72309 
L 229.530594 109.642302 
L 235.742093 109.277831 
L 241.953593 108.595784 
L 248.165093 107.607562 
L 254.376611 106.371688 
L 260.588111 104.853689 
L 266.799611 103.006277 
L 273.011111 100.964539 
L 279.22261 98.649387 
L 285.43411 96.093636 
L 291.64561 93.309275 
L 297.857128 90.300099 
L 304.068628 87.18962 
L 310.280128 83.882331 
L 316.491627 80.540995 
L 322.703127 77.27229 
L 328.914627 73.921023 
L 335.126145 70.808597 
L 341.337645 67.899837 
L 347.549145 65.342807 
L 353.760645 63.176006 
L 359.972144 61.463129 
L 366.183644 60.210953 
L 372.395162 59.340065 
L 378.606662 58.864463 
" clip-path="url(#pf66561aba7)" style="fill: none; stroke: #da8bc3; stroke-width: 1.5; stroke-linecap: round"/>
   </g>
   <g id="line2d_20">
    <path d="M 74.243026 49.039792 
L 80.454528 49.647676 
L 86.666031 50.728958 
L 92.877534 52.306863 
L 99.089036 54.439137 
L 105.300538 57.037296 
L 111.512043 60.048777 
L 117.723542 63.349431 
L 123.935047 66.894207 
L 130.146551 70.521233 
L 136.358051 74.197293 
L 142.569555 77.836746 
L 148.78106 81.383244 
L 154.99256 84.748472 
L 161.204059 87.968689 
L 167.415568 90.869426 
L 173.627068 93.549158 
L 179.838568 95.926035 
L 186.050077 98.022332 
L 192.261577 99.815562 
L 198.473076 101.294354 
L 204.684585 102.44635 
L 210.896085 103.277738 
L 217.107585 103.760836 
L 223.319094 103.918015 
L 229.530594 103.831537 
L 235.742093 103.402534 
L 241.953593 102.721464 
L 248.165093 101.660313 
L 254.376611 100.333683 
L 260.588111 98.722105 
L 266.799611 96.797876 
L 273.011111 94.614969 
L 279.22261 92.125511 
L 285.43411 89.394225 
L 291.64561 86.455009 
L 297.857128 83.27917 
L 304.068628 79.896101 
L 310.280128 76.406106 
L 316.491627 72.793066 
L 322.703127 69.220218 
L 328.914627 65.662385 
L 335.126145 62.301004 
L 341.337645 59.093705 
L 347.549145 56.282301 
L 353.760645 53.854097 
L 359.972144 51.924207 
L 366.183644 50.524084 
L 372.395162 49.548703 
L 378.606662 49.0044 
" clip-path="url(#pf66561aba7)" style="fill: none; stroke: #8c8c8c; stroke-width: 1.5; stroke-linecap: round"/>
   </g>
   <g id="line2d_21">
    <path d="M 74.243026 40.016864 
L 80.454528 40.69674 
L 86.666031 41.902536 
L 92.877534 43.64455 
L 99.089036 46.033378 
L 105.300538 48.896257 
L 111.512043 52.132328 
L 117.723542 55.746151 
L 123.935047 59.589078 
L 130.146551 63.451506 
L 136.358051 67.421993 
L 142.569555 71.267499 
L 148.78106 75.005 
L 154.99256 78.61828 
L 161.204059 81.937682 
L 167.415568 85.086269 
L 173.627068 87.86167 
L 179.838568 90.398918 
L 186.050077 92.634419 
L 192.261577 94.510032 
L 198.473076 95.99858 
L 204.684585 97.244159 
L 210.896085 98.101053 
L 217.107585 98.62016 
L 223.319094 98.858438 
L 229.530594 98.689921 
L 235.742093 98.313864 
L 241.953593 97.496647 
L 248.165093 96.429957 
L 254.376611 95.056325 
L 260.588111 93.320145 
L 266.799611 91.303589 
L 273.011111 88.98116 
L 279.22261 86.35928 
L 285.43411 83.520282 
L 291.64561 80.365389 
L 297.857128 77.002283 
L 304.068628 73.423161 
L 310.280128 69.739442 
L 316.491627 65.875901 
L 322.703127 62.013997 
L 328.914627 58.222332 
L 335.126145 54.564229 
L 341.337645 51.115704 
L 347.549145 48.003021 
L 353.760645 45.379785 
L 359.972144 43.247086 
L 366.183644 41.65106 
L 372.395162 40.582902 
L 378.606662 39.973861 
" clip-path="url(#pf66561aba7)" style="fill: none; stroke: #ccb974; stroke-width: 1.5; stroke-linecap: round"/>
   </g>
   <g id="line2d_22">
    <path d="M 74.243026 31.66952 
L 80.454528 32.423536 
L 86.666031 33.769407 
L 92.877534 35.741039 
L 99.089036 38.334276 
L 105.300538 41.495276 
L 111.512043 45.039579 
L 117.723542 48.874992 
L 123.935047 52.925975 
L 130.146551 57.086413 
L 136.358051 61.229818 
L 142.569555 65.365157 
L 148.78106 69.329788 
L 154.99256 73.117235 
L 161.204059 76.639957 
L 167.415568 79.957898 
L 173.627068 82.920612 
L 179.838568 85.566888 
L 186.050077 87.810531 
L 192.261577 89.825036 
L 198.473076 91.386541 
L 204.684585 92.651749 
L 210.896085 93.598722 
L 217.107585 94.143178 
L 223.319094 94.270944 
L 229.530594 94.217631 
L 235.742093 93.713911 
L 241.953593 92.948825 
L 248.165093 91.753538 
L 254.376611 90.325013 
L 260.588111 88.572103 
L 266.799611 86.416029 
L 273.011111 84.005495 
L 279.22261 81.310804 
L 285.43411 78.249677 
L 291.64561 74.882432 
L 297.857128 71.367867 
L 304.068628 67.609171 
L 310.280128 63.664162 
L 316.491627 59.59772 
L 322.703127 55.542225 
L 328.914627 51.470668 
L 335.126145 47.57881 
L 341.337645 43.844977 
L 347.549145 40.554592 
L 353.760645 37.605666 
L 359.972144 35.267716 
L 366.183644 33.510859 
L 372.395162 32.310767 
L 378.606662 31.645216 
" clip-path="url(#pf66561aba7)" style="fill: none; stroke: #64b5cd; stroke-width: 1.5; stroke-linecap: round"/>
   </g>
   <g id="patch_3">
    <path d="M 59.024844 228.819141 
L 59.024844 11.379141 
" style="fill: none; stroke: #ffffff; stroke-width: 1.25; stroke-linejoin: miter; stroke-linecap: square"/>
   </g>
   <g id="patch_4">
    <path d="M 393.824844 228.819141 
L 393.824844 11.379141 
" style="fill: none; stroke: #ffffff; stroke-width: 1.25; stroke-linejoin: miter; stroke-linecap: square"/>
   </g>
   <g id="patch_5">
    <path d="M 59.024844 228.819141 
L 393.824844 228.819141 
" style="fill: none; stroke: #ffffff; stroke-width: 1.25; stroke-linejoin: miter; stroke-linecap: square"/>
   </g>
   <g id="patch_6">
    <path d="M 59.024844 11.379141 
L 393.824844 11.379141 
" style="fill: none; stroke: #ffffff; stroke-width: 1.25; stroke-linejoin: miter; stroke-linecap: square"/>
   </g>
   <g id="legend_1">
    <g id="patch_7">
     <path d="M 401.524844 181.638516 
L 495.684844 181.638516 
Q 497.884844 181.638516 497.884844 179.438516 
L 497.884844 19.079141 
Q 497.884844 16.879141 495.684844 16.879141 
L 401.524844 16.879141 
Q 399.324844 16.879141 399.324844 19.079141 
L 399.324844 179.438516 
Q 399.324844 181.638516 401.524844 181.638516 
z
" style="fill: #eaeaf2; opacity: 0.8; stroke: #cccccc; stroke-linejoin: miter"/>
    </g>
    <g id="line2d_23">
     <path d="M 403.724844 25.787422 
L 414.724844 25.787422 
L 425.724844 25.787422 
" style="fill: none; stroke: #4c72b0; stroke-width: 1.5; stroke-linecap: round"/>
    </g>
    <g id="text_15">
     <!-- $\Gamma_\theta$ = 0.005 -->
     <g style="fill: #262626" transform="translate(434.524844 29.637422)scale(0.11 -0.11)">
      <defs>
       <path id="DejaVuSans-393" d="M 628 0 
L 628 4666 
L 3531 4666 
L 3531 4134 
L 1259 4134 
L 1259 0 
L 628 0 
z
" transform="scale(0.015625)"/>
       <path id="DejaVuSans-Oblique-3b8" d="M 2913 2219 
L 925 2219 
Q 791 1284 928 888 
Q 1100 400 1566 400 
Q 2034 400 2391 891 
Q 2703 1322 2913 2219 
z
M 3009 2750 
Q 3094 3638 2984 3950 
Q 2813 4444 2353 4444 
Q 1875 4444 1525 3956 
Q 1250 3563 1034 2750 
L 3009 2750 
z
M 2444 4913 
Q 3194 4913 3494 4250 
Q 3794 3591 3566 2422 
Q 3341 1256 2781 594 
Q 2225 -72 1475 -72 
Q 722 -72 425 594 
Q 128 1256 353 2422 
Q 581 3591 1134 4250 
Q 1691 4913 2444 4913 
z
" transform="scale(0.015625)"/>
       <path id="DejaVuSans-3d" d="M 678 2906 
L 4684 2906 
L 4684 2381 
L 678 2381 
L 678 2906 
z
M 678 1631 
L 4684 1631 
L 4684 1100 
L 678 1100 
L 678 1631 
z
" transform="scale(0.015625)"/>
       <path id="DejaVuSans-35" d="M 691 4666 
L 3169 4666 
L 3169 4134 
L 1269 4134 
L 1269 2991 
Q 1406 3038 1543 3061 
Q 1681 3084 1819 3084 
Q 2600 3084 3056 2656 
Q 3513 2228 3513 1497 
Q 3513 744 3044 326 
Q 2575 -91 1722 -91 
Q 1428 -91 1123 -41 
Q 819 9 494 109 
L 494 744 
Q 775 591 1075 516 
Q 1375 441 1709 441 
Q 2250 441 2565 725 
Q 2881 1009 2881 1497 
Q 2881 1984 2565 2268 
Q 2250 2553 1709 2553 
Q 1456 2553 1204 2497 
Q 953 2441 691 2322 
L 691 4666 
z
" transform="scale(0.015625)"/>
      </defs>
      <use xlink:href="#DejaVuSans-393" transform="translate(0 0.78125)"/>
      <use xlink:href="#DejaVuSans-Oblique-3b8" transform="translate(56.669922 -15.625)scale(0.7)"/>
      <use xlink:href="#DejaVuSans-20" transform="translate(102.231445 0.78125)"/>
      <use xlink:href="#DejaVuSans-3d" transform="translate(134.018555 0.78125)"/>
      <use xlink:href="#DejaVuSans-20" transform="translate(217.807617 0.78125)"/>
      <use xlink:href="#DejaVuSans-30" transform="translate(249.594727 0.78125)"/>
      <use xlink:href="#DejaVuSans-2e" transform="translate(313.217773 0.78125)"/>
      <use xlink:href="#DejaVuSans-30" transform="translate(345.004883 0.78125)"/>
      <use xlink:href="#DejaVuSans-30" transform="translate(408.62793 0.78125)"/>
      <use xlink:href="#DejaVuSans-35" transform="translate(472.250977 0.78125)"/>
     </g>
    </g>
    <g id="line2d_24">
     <path d="M 403.724844 41.933359 
L 414.724844 41.933359 
L 425.724844 41.933359 
" style="fill: none; stroke: #dd8452; stroke-width: 1.5; stroke-linecap: round"/>
    </g>
    <g id="text_16">
     <!-- $\Gamma_\theta$ = 0.006 -->
     <g style="fill: #262626" transform="translate(434.524844 45.783359)scale(0.11 -0.11)">
      <use xlink:href="#DejaVuSans-393" transform="translate(0 0.78125)"/>
      <use xlink:href="#DejaVuSans-Oblique-3b8" transform="translate(56.669922 -15.625)scale(0.7)"/>
      <use xlink:href="#DejaVuSans-20" transform="translate(102.231445 0.78125)"/>
      <use xlink:href="#DejaVuSans-3d" transform="translate(134.018555 0.78125)"/>
      <use xlink:href="#DejaVuSans-20" transform="translate(217.807617 0.78125)"/>
      <use xlink:href="#DejaVuSans-30" transform="translate(249.594727 0.78125)"/>
      <use xlink:href="#DejaVuSans-2e" transform="translate(313.217773 0.78125)"/>
      <use xlink:href="#DejaVuSans-30" transform="translate(345.004883 0.78125)"/>
      <use xlink:href="#DejaVuSans-30" transform="translate(408.62793 0.78125)"/>
      <use xlink:href="#DejaVuSans-36" transform="translate(472.250977 0.78125)"/>
     </g>
    </g>
    <g id="line2d_25">
     <path d="M 403.724844 58.079297 
L 414.724844 58.079297 
L 425.724844 58.079297 
" style="fill: none; stroke: #55a868; stroke-width: 1.5; stroke-linecap: round"/>
    </g>
    <g id="text_17">
     <!-- $\Gamma_\theta$ = 0.007 -->
     <g style="fill: #262626" transform="translate(434.524844 61.929297)scale(0.11 -0.11)">
      <defs>
       <path id="DejaVuSans-37" d="M 525 4666 
L 3525 4666 
L 3525 4397 
L 1831 0 
L 1172 0 
L 2766 4134 
L 525 4134 
L 525 4666 
z
" transform="scale(0.015625)"/>
      </defs>
      <use xlink:href="#DejaVuSans-393" transform="translate(0 0.78125)"/>
      <use xlink:href="#DejaVuSans-Oblique-3b8" transform="translate(56.669922 -15.625)scale(0.7)"/>
      <use xlink:href="#DejaVuSans-20" transform="translate(102.231445 0.78125)"/>
      <use xlink:href="#DejaVuSans-3d" transform="translate(134.018555 0.78125)"/>
      <use xlink:href="#DejaVuSans-20" transform="translate(217.807617 0.78125)"/>
      <use xlink:href="#DejaVuSans-30" transform="translate(249.594727 0.78125)"/>
      <use xlink:href="#DejaVuSans-2e" transform="translate(313.217773 0.78125)"/>
      <use xlink:href="#DejaVuSans-30" transform="translate(345.004883 0.78125)"/>
      <use xlink:href="#DejaVuSans-30" transform="translate(408.62793 0.78125)"/>
      <use xlink:href="#DejaVuSans-37" transform="translate(472.250977 0.78125)"/>
     </g>
    </g>
    <g id="line2d_26">
     <path d="M 403.724844 74.225234 
L 414.724844 74.225234 
L 425.724844 74.225234 
" style="fill: none; stroke: #c44e52; stroke-width: 1.5; stroke-linecap: round"/>
    </g>
    <g id="text_18">
     <!-- $\Gamma_\theta$ = 0.008 -->
     <g style="fill: #262626" transform="translate(434.524844 78.075234)scale(0.11 -0.11)">
      <use xlink:href="#DejaVuSans-393" transform="translate(0 0.78125)"/>
      <use xlink:href="#DejaVuSans-Oblique-3b8" transform="translate(56.669922 -15.625)scale(0.7)"/>
      <use xlink:href="#DejaVuSans-20" transform="translate(102.231445 0.78125)"/>
      <use xlink:href="#DejaVuSans-3d" transform="translate(134.018555 0.78125)"/>
      <use xlink:href="#DejaVuSans-20" transform="translate(217.807617 0.78125)"/>
      <use xlink:href="#DejaVuSans-30" transform="translate(249.594727 0.78125)"/>
      <use xlink:href="#DejaVuSans-2e" transform="translate(313.217773 0.78125)"/>
      <use xlink:href="#DejaVuSans-30" transform="translate(345.004883 0.78125)"/>
      <use xlink:href="#DejaVuSans-30" transform="translate(408.62793 0.78125)"/>
      <use xlink:href="#DejaVuSans-38" transform="translate(472.250977 0.78125)"/>
     </g>
    </g>
    <g id="line2d_27">
     <path d="M 403.724844 90.371172 
L 414.724844 90.371172 
L 425.724844 90.371172 
" style="fill: none; stroke: #8172b3; stroke-width: 1.5; stroke-linecap: round"/>
    </g>
    <g id="text_19">
     <!-- $\Gamma_\theta$ = 0.009 -->
     <g style="fill: #262626" transform="translate(434.524844 94.221172)scale(0.11 -0.11)">
      <defs>
       <path id="DejaVuSans-39" d="M 703 97 
L 703 672 
Q 941 559 1184 500 
Q 1428 441 1663 441 
Q 2288 441 2617 861 
Q 2947 1281 2994 2138 
Q 2813 1869 2534 1725 
Q 2256 1581 1919 1581 
Q 1219 1581 811 2004 
Q 403 2428 403 3163 
Q 403 3881 828 4315 
Q 1253 4750 1959 4750 
Q 2769 4750 3195 4129 
Q 3622 3509 3622 2328 
Q 3622 1225 3098 567 
Q 2575 -91 1691 -91 
Q 1453 -91 1209 -44 
Q 966 3 703 97 
z
M 1959 2075 
Q 2384 2075 2632 2365 
Q 2881 2656 2881 3163 
Q 2881 3666 2632 3958 
Q 2384 4250 1959 4250 
Q 1534 4250 1286 3958 
Q 1038 3666 1038 3163 
Q 1038 2656 1286 2365 
Q 1534 2075 1959 2075 
z
" transform="scale(0.015625)"/>
      </defs>
      <use xlink:href="#DejaVuSans-393" transform="translate(0 0.78125)"/>
      <use xlink:href="#DejaVuSans-Oblique-3b8" transform="translate(56.669922 -15.625)scale(0.7)"/>
      <use xlink:href="#DejaVuSans-20" transform="translate(102.231445 0.78125)"/>
      <use xlink:href="#DejaVuSans-3d" transform="translate(134.018555 0.78125)"/>
      <use xlink:href="#DejaVuSans-20" transform="translate(217.807617 0.78125)"/>
      <use xlink:href="#DejaVuSans-30" transform="translate(249.594727 0.78125)"/>
      <use xlink:href="#DejaVuSans-2e" transform="translate(313.217773 0.78125)"/>
      <use xlink:href="#DejaVuSans-30" transform="translate(345.004883 0.78125)"/>
      <use xlink:href="#DejaVuSans-30" transform="translate(408.62793 0.78125)"/>
      <use xlink:href="#DejaVuSans-39" transform="translate(472.250977 0.78125)"/>
     </g>
    </g>
    <g id="line2d_28">
     <path d="M 403.724844 106.517109 
L 414.724844 106.517109 
L 425.724844 106.517109 
" style="fill: none; stroke: #937860; stroke-width: 1.5; stroke-linecap: round"/>
    </g>
    <g id="text_20">
     <!-- $\Gamma_\theta$ = 0.011 -->
     <g style="fill: #262626" transform="translate(434.524844 110.367109)scale(0.11 -0.11)">
      <use xlink:href="#DejaVuSans-393" transform="translate(0 0.78125)"/>
      <use xlink:href="#DejaVuSans-Oblique-3b8" transform="translate(56.669922 -15.625)scale(0.7)"/>
      <use xlink:href="#DejaVuSans-20" transform="translate(102.231445 0.78125)"/>
      <use xlink:href="#DejaVuSans-3d" transform="translate(134.018555 0.78125)"/>
      <use xlink:href="#DejaVuSans-20" transform="translate(217.807617 0.78125)"/>
      <use xlink:href="#DejaVuSans-30" transform="translate(249.594727 0.78125)"/>
      <use xlink:href="#DejaVuSans-2e" transform="translate(313.217773 0.78125)"/>
      <use xlink:href="#DejaVuSans-30" transform="translate(345.004883 0.78125)"/>
      <use xlink:href="#DejaVuSans-31" transform="translate(408.62793 0.78125)"/>
      <use xlink:href="#DejaVuSans-31" transform="translate(472.250977 0.78125)"/>
     </g>
    </g>
    <g id="line2d_29">
     <path d="M 403.724844 122.663047 
L 414.724844 122.663047 
L 425.724844 122.663047 
" style="fill: none; stroke: #da8bc3; stroke-width: 1.5; stroke-linecap: round"/>
    </g>
    <g id="text_21">
     <!-- $\Gamma_\theta$ = 0.012 -->
     <g style="fill: #262626" transform="translate(434.524844 126.513047)scale(0.11 -0.11)">
      <use xlink:href="#DejaVuSans-393" transform="translate(0 0.78125)"/>
      <use xlink:href="#DejaVuSans-Oblique-3b8" transform="translate(56.669922 -15.625)scale(0.7)"/>
      <use xlink:href="#DejaVuSans-20" transform="translate(102.231445 0.78125)"/>
      <use xlink:href="#DejaVuSans-3d" transform="translate(134.018555 0.78125)"/>
      <use xlink:href="#DejaVuSans-20" transform="translate(217.807617 0.78125)"/>
      <use xlink:href="#DejaVuSans-30" transform="translate(249.594727 0.78125)"/>
      <use xlink:href="#DejaVuSans-2e" transform="translate(313.217773 0.78125)"/>
      <use xlink:href="#DejaVuSans-30" transform="translate(345.004883 0.78125)"/>
      <use xlink:href="#DejaVuSans-31" transform="translate(408.62793 0.78125)"/>
      <use xlink:href="#DejaVuSans-32" transform="translate(472.250977 0.78125)"/>
     </g>
    </g>
    <g id="line2d_30">
     <path d="M 403.724844 138.808984 
L 414.724844 138.808984 
L 425.724844 138.808984 
" style="fill: none; stroke: #8c8c8c; stroke-width: 1.5; stroke-linecap: round"/>
    </g>
    <g id="text_22">
     <!-- $\Gamma_\theta$ = 0.013 -->
     <g style="fill: #262626" transform="translate(434.524844 142.658984)scale(0.11 -0.11)">
      <defs>
       <path id="DejaVuSans-33" d="M 2597 2516 
Q 3050 2419 3304 2112 
Q 3559 1806 3559 1356 
Q 3559 666 3084 287 
Q 2609 -91 1734 -91 
Q 1441 -91 1130 -33 
Q 819 25 488 141 
L 488 750 
Q 750 597 1062 519 
Q 1375 441 1716 441 
Q 2309 441 2620 675 
Q 2931 909 2931 1356 
Q 2931 1769 2642 2001 
Q 2353 2234 1838 2234 
L 1294 2234 
L 1294 2753 
L 1863 2753 
Q 2328 2753 2575 2939 
Q 2822 3125 2822 3475 
Q 2822 3834 2567 4026 
Q 2313 4219 1838 4219 
Q 1578 4219 1281 4162 
Q 984 4106 628 3988 
L 628 4550 
Q 988 4650 1302 4700 
Q 1616 4750 1894 4750 
Q 2613 4750 3031 4423 
Q 3450 4097 3450 3541 
Q 3450 3153 3228 2886 
Q 3006 2619 2597 2516 
z
" transform="scale(0.015625)"/>
      </defs>
      <use xlink:href="#DejaVuSans-393" transform="translate(0 0.78125)"/>
      <use xlink:href="#DejaVuSans-Oblique-3b8" transform="translate(56.669922 -15.625)scale(0.7)"/>
      <use xlink:href="#DejaVuSans-20" transform="translate(102.231445 0.78125)"/>
      <use xlink:href="#DejaVuSans-3d" transform="translate(134.018555 0.78125)"/>
      <use xlink:href="#DejaVuSans-20" transform="translate(217.807617 0.78125)"/>
      <use xlink:href="#DejaVuSans-30" transform="translate(249.594727 0.78125)"/>
      <use xlink:href="#DejaVuSans-2e" transform="translate(313.217773 0.78125)"/>
      <use xlink:href="#DejaVuSans-30" transform="translate(345.004883 0.78125)"/>
      <use xlink:href="#DejaVuSans-31" transform="translate(408.62793 0.78125)"/>
      <use xlink:href="#DejaVuSans-33" transform="translate(472.250977 0.78125)"/>
     </g>
    </g>
    <g id="line2d_31">
     <path d="M 403.724844 154.954922 
L 414.724844 154.954922 
L 425.724844 154.954922 
" style="fill: none; stroke: #ccb974; stroke-width: 1.5; stroke-linecap: round"/>
    </g>
    <g id="text_23">
     <!-- $\Gamma_\theta$ = 0.014 -->
     <g style="fill: #262626" transform="translate(434.524844 158.804922)scale(0.11 -0.11)">
      <use xlink:href="#DejaVuSans-393" transform="translate(0 0.78125)"/>
      <use xlink:href="#DejaVuSans-Oblique-3b8" transform="translate(56.669922 -15.625)scale(0.7)"/>
      <use xlink:href="#DejaVuSans-20" transform="translate(102.231445 0.78125)"/>
      <use xlink:href="#DejaVuSans-3d" transform="translate(134.018555 0.78125)"/>
      <use xlink:href="#DejaVuSans-20" transform="translate(217.807617 0.78125)"/>
      <use xlink:href="#DejaVuSans-30" transform="translate(249.594727 0.78125)"/>
      <use xlink:href="#DejaVuSans-2e" transform="translate(313.217773 0.78125)"/>
      <use xlink:href="#DejaVuSans-30" transform="translate(345.004883 0.78125)"/>
      <use xlink:href="#DejaVuSans-31" transform="translate(408.62793 0.78125)"/>
      <use xlink:href="#DejaVuSans-34" transform="translate(472.250977 0.78125)"/>
     </g>
    </g>
    <g id="line2d_32">
     <path d="M 403.724844 171.100859 
L 414.724844 171.100859 
L 425.724844 171.100859 
" style="fill: none; stroke: #64b5cd; stroke-width: 1.5; stroke-linecap: round"/>
    </g>
    <g id="text_24">
     <!-- $\Gamma_\theta$ = 0.015 -->
     <g style="fill: #262626" transform="translate(434.524844 174.950859)scale(0.11 -0.11)">
      <use xlink:href="#DejaVuSans-393" transform="translate(0 0.78125)"/>
      <use xlink:href="#DejaVuSans-Oblique-3b8" transform="translate(56.669922 -15.625)scale(0.7)"/>
      <use xlink:href="#DejaVuSans-20" transform="translate(102.231445 0.78125)"/>
      <use xlink:href="#DejaVuSans-3d" transform="translate(134.018555 0.78125)"/>
      <use xlink:href="#DejaVuSans-20" transform="translate(217.807617 0.78125)"/>
      <use xlink:href="#DejaVuSans-30" transform="translate(249.594727 0.78125)"/>
      <use xlink:href="#DejaVuSans-2e" transform="translate(313.217773 0.78125)"/>
      <use xlink:href="#DejaVuSans-30" transform="translate(345.004883 0.78125)"/>
      <use xlink:href="#DejaVuSans-31" transform="translate(408.62793 0.78125)"/>
      <use xlink:href="#DejaVuSans-35" transform="translate(472.250977 0.78125)"/>
     </g>
    </g>
   </g>
  </g>
 </g>
 <defs>
  <clipPath id="pf66561aba7">
   <rect x="59.024844" y="11.379141" width="334.8" height="217.44"/>
  </clipPath>
 </defs>
</svg>
