<?xml version="1.0" encoding="utf-8" standalone="no"?>
<!DOCTYPE svg PUBLIC "-//W3C//DTD SVG 1.1//EN"
  "http://www.w3.org/Graphics/SVG/1.1/DTD/svg11.dtd">
<svg xmlns:xlink="http://www.w3.org/1999/xlink" width="408.023594pt" height="267.625937pt" viewBox="0 0 408.023594 267.625937" xmlns="http://www.w3.org/2000/svg" version="1.1">
 <metadata>
  <rdf:RDF xmlns:dc="http://purl.org/dc/elements/1.1/" xmlns:cc="http://creativecommons.org/ns#" xmlns:rdf="http://www.w3.org/1999/02/22-rdf-syntax-ns#">
   <cc:Work>
    <dc:type rdf:resource="http://purl.org/dc/dcmitype/StillImage"/>
    <dc:date>2022-06-22T22:30:53.514961</dc:date>
    <dc:format>image/svg+xml</dc:format>
    <dc:creator>
     <cc:Agent>
      <dc:title>Matplotlib v3.5.2, https://matplotlib.org/</dc:title>
     </cc:Agent>
    </dc:creator>
   </cc:Work>
  </rdf:RDF>
 </metadata>
 <defs>
  <style type="text/css">*{stroke-linejoin: round; stroke-linecap: butt}</style>
 </defs>
 <g id="figure_1">
  <g id="patch_1">
   <path d="M 0 267.625937 
L 408.023594 267.625937 
L 408.023594 0 
L 0 0 
L 0 267.625937 
z
" style="fill: none"/>
  </g>
  <g id="axes_1">
   <g id="patch_2">
    <path d="M 66.023594 224.64 
L 400.823594 224.64 
L 400.823594 7.2 
L 66.023594 7.2 
z
" style="fill: #eaeaf2"/>
   </g>
   <g id="matplotlib.axis_1">
    <g id="xtick_1">
     <g id="line2d_1">
      <path d="M 111.532612 224.64 
L 111.532612 7.2 
" clip-path="url(#p0201a14155)" style="fill: none; stroke: #ffffff; stroke-linecap: round"/>
     </g>
     <g id="text_1">
      <!-- −40 -->
      <g style="fill: #262626" transform="translate(99.925033 242.498281)scale(0.11 -0.11)">
       <defs>
        <path id="DejaVuSans-2212" d="M 678 2272 
L 4684 2272 
L 4684 1741 
L 678 1741 
L 678 2272 
z
" transform="scale(0.015625)"/>
        <path id="DejaVuSans-34" d="M 2419 4116 
L 825 1625 
L 2419 1625 
L 2419 4116 
z
M 2253 4666 
L 3047 4666 
L 3047 1625 
L 3713 1625 
L 3713 1100 
L 3047 1100 
L 3047 0 
L 2419 0 
L 2419 1100 
L 313 1100 
L 313 1709 
L 2253 4666 
z
" transform="scale(0.015625)"/>
        <path id="DejaVuSans-30" d="M 2034 4250 
Q 1547 4250 1301 3770 
Q 1056 3291 1056 2328 
Q 1056 1369 1301 889 
Q 1547 409 2034 409 
Q 2525 409 2770 889 
Q 3016 1369 3016 2328 
Q 3016 3291 2770 3770 
Q 2525 4250 2034 4250 
z
M 2034 4750 
Q 2819 4750 3233 4129 
Q 3647 3509 3647 2328 
Q 3647 1150 3233 529 
Q 2819 -91 2034 -91 
Q 1250 -91 836 529 
Q 422 1150 422 2328 
Q 422 3509 836 4129 
Q 1250 4750 2034 4750 
z
" transform="scale(0.015625)"/>
       </defs>
       <use xlink:href="#DejaVuSans-2212"/>
       <use xlink:href="#DejaVuSans-34" x="83.789062"/>
       <use xlink:href="#DejaVuSans-30" x="147.412109"/>
      </g>
     </g>
    </g>
    <g id="xtick_2">
     <g id="line2d_2">
      <path d="M 172.114284 224.64 
L 172.114284 7.2 
" clip-path="url(#p0201a14155)" style="fill: none; stroke: #ffffff; stroke-linecap: round"/>
     </g>
     <g id="text_2">
      <!-- −20 -->
      <g style="fill: #262626" transform="translate(160.506706 242.498281)scale(0.11 -0.11)">
       <defs>
        <path id="DejaVuSans-32" d="M 1228 531 
L 3431 531 
L 3431 0 
L 469 0 
L 469 531 
Q 828 903 1448 1529 
Q 2069 2156 2228 2338 
Q 2531 2678 2651 2914 
Q 2772 3150 2772 3378 
Q 2772 3750 2511 3984 
Q 2250 4219 1831 4219 
Q 1534 4219 1204 4116 
Q 875 4013 500 3803 
L 500 4441 
Q 881 4594 1212 4672 
Q 1544 4750 1819 4750 
Q 2544 4750 2975 4387 
Q 3406 4025 3406 3419 
Q 3406 3131 3298 2873 
Q 3191 2616 2906 2266 
Q 2828 2175 2409 1742 
Q 1991 1309 1228 531 
z
" transform="scale(0.015625)"/>
       </defs>
       <use xlink:href="#DejaVuSans-2212"/>
       <use xlink:href="#DejaVuSans-32" x="83.789062"/>
       <use xlink:href="#DejaVuSans-30" x="147.412109"/>
      </g>
     </g>
    </g>
    <g id="xtick_3">
     <g id="line2d_3">
      <path d="M 232.695956 224.64 
L 232.695956 7.2 
" clip-path="url(#p0201a14155)" style="fill: none; stroke: #ffffff; stroke-linecap: round"/>
     </g>
     <g id="text_3">
      <!-- 0 -->
      <g style="fill: #262626" transform="translate(229.196581 242.498281)scale(0.11 -0.11)">
       <use xlink:href="#DejaVuSans-30"/>
      </g>
     </g>
    </g>
    <g id="xtick_4">
     <g id="line2d_4">
      <path d="M 293.277628 224.64 
L 293.277628 7.2 
" clip-path="url(#p0201a14155)" style="fill: none; stroke: #ffffff; stroke-linecap: round"/>
     </g>
     <g id="text_4">
      <!-- 20 -->
      <g style="fill: #262626" transform="translate(286.278878 242.498281)scale(0.11 -0.11)">
       <use xlink:href="#DejaVuSans-32"/>
       <use xlink:href="#DejaVuSans-30" x="63.623047"/>
      </g>
     </g>
    </g>
    <g id="xtick_5">
     <g id="line2d_5">
      <path d="M 353.8593 224.64 
L 353.8593 7.2 
" clip-path="url(#p0201a14155)" style="fill: none; stroke: #ffffff; stroke-linecap: round"/>
     </g>
     <g id="text_5">
      <!-- 40 -->
      <g style="fill: #262626" transform="translate(346.86055 242.498281)scale(0.11 -0.11)">
       <use xlink:href="#DejaVuSans-34"/>
       <use xlink:href="#DejaVuSans-30" x="63.623047"/>
      </g>
     </g>
    </g>
    <g id="text_6">
     <!-- Observation $y$ -->
     <g style="fill: #262626" transform="translate(191.423594 257.905937)scale(0.12 -0.12)">
      <defs>
       <path id="DejaVuSans-4f" d="M 2522 4238 
Q 1834 4238 1429 3725 
Q 1025 3213 1025 2328 
Q 1025 1447 1429 934 
Q 1834 422 2522 422 
Q 3209 422 3611 934 
Q 4013 1447 4013 2328 
Q 4013 3213 3611 3725 
Q 3209 4238 2522 4238 
z
M 2522 4750 
Q 3503 4750 4090 4092 
Q 4678 3434 4678 2328 
Q 4678 1225 4090 567 
Q 3503 -91 2522 -91 
Q 1538 -91 948 565 
Q 359 1222 359 2328 
Q 359 3434 948 4092 
Q 1538 4750 2522 4750 
z
" transform="scale(0.015625)"/>
       <path id="DejaVuSans-62" d="M 3116 1747 
Q 3116 2381 2855 2742 
Q 2594 3103 2138 3103 
Q 1681 3103 1420 2742 
Q 1159 2381 1159 1747 
Q 1159 1113 1420 752 
Q 1681 391 2138 391 
Q 2594 391 2855 752 
Q 3116 1113 3116 1747 
z
M 1159 2969 
Q 1341 3281 1617 3432 
Q 1894 3584 2278 3584 
Q 2916 3584 3314 3078 
Q 3713 2572 3713 1747 
Q 3713 922 3314 415 
Q 2916 -91 2278 -91 
Q 1894 -91 1617 61 
Q 1341 213 1159 525 
L 1159 0 
L 581 0 
L 581 4863 
L 1159 4863 
L 1159 2969 
z
" transform="scale(0.015625)"/>
       <path id="DejaVuSans-73" d="M 2834 3397 
L 2834 2853 
Q 2591 2978 2328 3040 
Q 2066 3103 1784 3103 
Q 1356 3103 1142 2972 
Q 928 2841 928 2578 
Q 928 2378 1081 2264 
Q 1234 2150 1697 2047 
L 1894 2003 
Q 2506 1872 2764 1633 
Q 3022 1394 3022 966 
Q 3022 478 2636 193 
Q 2250 -91 1575 -91 
Q 1294 -91 989 -36 
Q 684 19 347 128 
L 347 722 
Q 666 556 975 473 
Q 1284 391 1588 391 
Q 1994 391 2212 530 
Q 2431 669 2431 922 
Q 2431 1156 2273 1281 
Q 2116 1406 1581 1522 
L 1381 1569 
Q 847 1681 609 1914 
Q 372 2147 372 2553 
Q 372 3047 722 3315 
Q 1072 3584 1716 3584 
Q 2034 3584 2315 3537 
Q 2597 3491 2834 3397 
z
" transform="scale(0.015625)"/>
       <path id="DejaVuSans-65" d="M 3597 1894 
L 3597 1613 
L 953 1613 
Q 991 1019 1311 708 
Q 1631 397 2203 397 
Q 2534 397 2845 478 
Q 3156 559 3463 722 
L 3463 178 
Q 3153 47 2828 -22 
Q 2503 -91 2169 -91 
Q 1331 -91 842 396 
Q 353 884 353 1716 
Q 353 2575 817 3079 
Q 1281 3584 2069 3584 
Q 2775 3584 3186 3129 
Q 3597 2675 3597 1894 
z
M 3022 2063 
Q 3016 2534 2758 2815 
Q 2500 3097 2075 3097 
Q 1594 3097 1305 2825 
Q 1016 2553 972 2059 
L 3022 2063 
z
" transform="scale(0.015625)"/>
       <path id="DejaVuSans-72" d="M 2631 2963 
Q 2534 3019 2420 3045 
Q 2306 3072 2169 3072 
Q 1681 3072 1420 2755 
Q 1159 2438 1159 1844 
L 1159 0 
L 581 0 
L 581 3500 
L 1159 3500 
L 1159 2956 
Q 1341 3275 1631 3429 
Q 1922 3584 2338 3584 
Q 2397 3584 2469 3576 
Q 2541 3569 2628 3553 
L 2631 2963 
z
" transform="scale(0.015625)"/>
       <path id="DejaVuSans-76" d="M 191 3500 
L 800 3500 
L 1894 563 
L 2988 3500 
L 3597 3500 
L 2284 0 
L 1503 0 
L 191 3500 
z
" transform="scale(0.015625)"/>
       <path id="DejaVuSans-61" d="M 2194 1759 
Q 1497 1759 1228 1600 
Q 959 1441 959 1056 
Q 959 750 1161 570 
Q 1363 391 1709 391 
Q 2188 391 2477 730 
Q 2766 1069 2766 1631 
L 2766 1759 
L 2194 1759 
z
M 3341 1997 
L 3341 0 
L 2766 0 
L 2766 531 
Q 2569 213 2275 61 
Q 1981 -91 1556 -91 
Q 1019 -91 701 211 
Q 384 513 384 1019 
Q 384 1609 779 1909 
Q 1175 2209 1959 2209 
L 2766 2209 
L 2766 2266 
Q 2766 2663 2505 2880 
Q 2244 3097 1772 3097 
Q 1472 3097 1187 3025 
Q 903 2953 641 2809 
L 641 3341 
Q 956 3463 1253 3523 
Q 1550 3584 1831 3584 
Q 2591 3584 2966 3190 
Q 3341 2797 3341 1997 
z
" transform="scale(0.015625)"/>
       <path id="DejaVuSans-74" d="M 1172 4494 
L 1172 3500 
L 2356 3500 
L 2356 3053 
L 1172 3053 
L 1172 1153 
Q 1172 725 1289 603 
Q 1406 481 1766 481 
L 2356 481 
L 2356 0 
L 1766 0 
Q 1100 0 847 248 
Q 594 497 594 1153 
L 594 3053 
L 172 3053 
L 172 3500 
L 594 3500 
L 594 4494 
L 1172 4494 
z
" transform="scale(0.015625)"/>
       <path id="DejaVuSans-69" d="M 603 3500 
L 1178 3500 
L 1178 0 
L 603 0 
L 603 3500 
z
M 603 4863 
L 1178 4863 
L 1178 4134 
L 603 4134 
L 603 4863 
z
" transform="scale(0.015625)"/>
       <path id="DejaVuSans-6f" d="M 1959 3097 
Q 1497 3097 1228 2736 
Q 959 2375 959 1747 
Q 959 1119 1226 758 
Q 1494 397 1959 397 
Q 2419 397 2687 759 
Q 2956 1122 2956 1747 
Q 2956 2369 2687 2733 
Q 2419 3097 1959 3097 
z
M 1959 3584 
Q 2709 3584 3137 3096 
Q 3566 2609 3566 1747 
Q 3566 888 3137 398 
Q 2709 -91 1959 -91 
Q 1206 -91 779 398 
Q 353 888 353 1747 
Q 353 2609 779 3096 
Q 1206 3584 1959 3584 
z
" transform="scale(0.015625)"/>
       <path id="DejaVuSans-6e" d="M 3513 2113 
L 3513 0 
L 2938 0 
L 2938 2094 
Q 2938 2591 2744 2837 
Q 2550 3084 2163 3084 
Q 1697 3084 1428 2787 
Q 1159 2491 1159 1978 
L 1159 0 
L 581 0 
L 581 3500 
L 1159 3500 
L 1159 2956 
Q 1366 3272 1645 3428 
Q 1925 3584 2291 3584 
Q 2894 3584 3203 3211 
Q 3513 2838 3513 2113 
z
" transform="scale(0.015625)"/>
       <path id="DejaVuSans-20" transform="scale(0.015625)"/>
       <path id="DejaVuSans-Oblique-79" d="M 1588 -325 
Q 1188 -997 936 -1164 
Q 684 -1331 294 -1331 
L -159 -1331 
L -63 -850 
L 269 -850 
Q 509 -850 678 -719 
Q 847 -588 1056 -206 
L 1234 128 
L 459 3500 
L 1069 3500 
L 1650 819 
L 3256 3500 
L 3859 3500 
L 1588 -325 
z
" transform="scale(0.015625)"/>
      </defs>
      <use xlink:href="#DejaVuSans-4f" transform="translate(0 0.015625)"/>
      <use xlink:href="#DejaVuSans-62" transform="translate(78.710938 0.015625)"/>
      <use xlink:href="#DejaVuSans-73" transform="translate(142.1875 0.015625)"/>
      <use xlink:href="#DejaVuSans-65" transform="translate(194.287109 0.015625)"/>
      <use xlink:href="#DejaVuSans-72" transform="translate(255.810547 0.015625)"/>
      <use xlink:href="#DejaVuSans-76" transform="translate(296.923828 0.015625)"/>
      <use xlink:href="#DejaVuSans-61" transform="translate(356.103516 0.015625)"/>
      <use xlink:href="#DejaVuSans-74" transform="translate(417.382812 0.015625)"/>
      <use xlink:href="#DejaVuSans-69" transform="translate(456.591797 0.015625)"/>
      <use xlink:href="#DejaVuSans-6f" transform="translate(484.375 0.015625)"/>
      <use xlink:href="#DejaVuSans-6e" transform="translate(545.556641 0.015625)"/>
      <use xlink:href="#DejaVuSans-20" transform="translate(608.935547 0.015625)"/>
      <use xlink:href="#DejaVuSans-Oblique-79" transform="translate(640.722656 0.015625)"/>
     </g>
    </g>
   </g>
   <g id="matplotlib.axis_2">
    <g id="ytick_1">
     <g id="line2d_6">
      <path d="M 66.023594 221.340849 
L 400.823594 221.340849 
" clip-path="url(#p0201a14155)" style="fill: none; stroke: #ffffff; stroke-linecap: round"/>
     </g>
     <g id="text_7">
      <!-- −10.0 -->
      <g style="fill: #262626" transform="translate(22.81375 225.519989)scale(0.11 -0.11)">
       <defs>
        <path id="DejaVuSans-31" d="M 794 531 
L 1825 531 
L 1825 4091 
L 703 3866 
L 703 4441 
L 1819 4666 
L 2450 4666 
L 2450 531 
L 3481 531 
L 3481 0 
L 794 0 
L 794 531 
z
" transform="scale(0.015625)"/>
        <path id="DejaVuSans-2e" d="M 684 794 
L 1344 794 
L 1344 0 
L 684 0 
L 684 794 
z
" transform="scale(0.015625)"/>
       </defs>
       <use xlink:href="#DejaVuSans-2212"/>
       <use xlink:href="#DejaVuSans-31" x="83.789062"/>
       <use xlink:href="#DejaVuSans-30" x="147.412109"/>
       <use xlink:href="#DejaVuSans-2e" x="211.035156"/>
       <use xlink:href="#DejaVuSans-30" x="242.822266"/>
      </g>
     </g>
    </g>
    <g id="ytick_2">
     <g id="line2d_7">
      <path d="M 66.023594 195.325795 
L 400.823594 195.325795 
" clip-path="url(#p0201a14155)" style="fill: none; stroke: #ffffff; stroke-linecap: round"/>
     </g>
     <g id="text_8">
      <!-- −7.5 -->
      <g style="fill: #262626" transform="translate(29.8125 199.504935)scale(0.11 -0.11)">
       <defs>
        <path id="DejaVuSans-37" d="M 525 4666 
L 3525 4666 
L 3525 4397 
L 1831 0 
L 1172 0 
L 2766 4134 
L 525 4134 
L 525 4666 
z
" transform="scale(0.015625)"/>
        <path id="DejaVuSans-35" d="M 691 4666 
L 3169 4666 
L 3169 4134 
L 1269 4134 
L 1269 2991 
Q 1406 3038 1543 3061 
Q 1681 3084 1819 3084 
Q 2600 3084 3056 2656 
Q 3513 2228 3513 1497 
Q 3513 744 3044 326 
Q 2575 -91 1722 -91 
Q 1428 -91 1123 -41 
Q 819 9 494 109 
L 494 744 
Q 775 591 1075 516 
Q 1375 441 1709 441 
Q 2250 441 2565 725 
Q 2881 1009 2881 1497 
Q 2881 1984 2565 2268 
Q 2250 2553 1709 2553 
Q 1456 2553 1204 2497 
Q 953 2441 691 2322 
L 691 4666 
z
" transform="scale(0.015625)"/>
       </defs>
       <use xlink:href="#DejaVuSans-2212"/>
       <use xlink:href="#DejaVuSans-37" x="83.789062"/>
       <use xlink:href="#DejaVuSans-2e" x="147.412109"/>
       <use xlink:href="#DejaVuSans-35" x="179.199219"/>
      </g>
     </g>
    </g>
    <g id="ytick_3">
     <g id="line2d_8">
      <path d="M 66.023594 169.310741 
L 400.823594 169.310741 
" clip-path="url(#p0201a14155)" style="fill: none; stroke: #ffffff; stroke-linecap: round"/>
     </g>
     <g id="text_9">
      <!-- −5.0 -->
      <g style="fill: #262626" transform="translate(29.8125 173.489882)scale(0.11 -0.11)">
       <use xlink:href="#DejaVuSans-2212"/>
       <use xlink:href="#DejaVuSans-35" x="83.789062"/>
       <use xlink:href="#DejaVuSans-2e" x="147.412109"/>
       <use xlink:href="#DejaVuSans-30" x="179.199219"/>
      </g>
     </g>
    </g>
    <g id="ytick_4">
     <g id="line2d_9">
      <path d="M 66.023594 143.295687 
L 400.823594 143.295687 
" clip-path="url(#p0201a14155)" style="fill: none; stroke: #ffffff; stroke-linecap: round"/>
     </g>
     <g id="text_10">
      <!-- −2.5 -->
      <g style="fill: #262626" transform="translate(29.8125 147.474828)scale(0.11 -0.11)">
       <use xlink:href="#DejaVuSans-2212"/>
       <use xlink:href="#DejaVuSans-32" x="83.789062"/>
       <use xlink:href="#DejaVuSans-2e" x="147.412109"/>
       <use xlink:href="#DejaVuSans-35" x="179.199219"/>
      </g>
     </g>
    </g>
    <g id="ytick_5">
     <g id="line2d_10">
      <path d="M 66.023594 117.280634 
L 400.823594 117.280634 
" clip-path="url(#p0201a14155)" style="fill: none; stroke: #ffffff; stroke-linecap: round"/>
     </g>
     <g id="text_11">
      <!-- 0.0 -->
      <g style="fill: #262626" transform="translate(39.030156 121.459774)scale(0.11 -0.11)">
       <use xlink:href="#DejaVuSans-30"/>
       <use xlink:href="#DejaVuSans-2e" x="63.623047"/>
       <use xlink:href="#DejaVuSans-30" x="95.410156"/>
      </g>
     </g>
    </g>
    <g id="ytick_6">
     <g id="line2d_11">
      <path d="M 66.023594 91.26558 
L 400.823594 91.26558 
" clip-path="url(#p0201a14155)" style="fill: none; stroke: #ffffff; stroke-linecap: round"/>
     </g>
     <g id="text_12">
      <!-- 2.5 -->
      <g style="fill: #262626" transform="translate(39.030156 95.444721)scale(0.11 -0.11)">
       <use xlink:href="#DejaVuSans-32"/>
       <use xlink:href="#DejaVuSans-2e" x="63.623047"/>
       <use xlink:href="#DejaVuSans-35" x="95.410156"/>
      </g>
     </g>
    </g>
    <g id="ytick_7">
     <g id="line2d_12">
      <path d="M 66.023594 65.250526 
L 400.823594 65.250526 
" clip-path="url(#p0201a14155)" style="fill: none; stroke: #ffffff; stroke-linecap: round"/>
     </g>
     <g id="text_13">
      <!-- 5.0 -->
      <g style="fill: #262626" transform="translate(39.030156 69.429667)scale(0.11 -0.11)">
       <use xlink:href="#DejaVuSans-35"/>
       <use xlink:href="#DejaVuSans-2e" x="63.623047"/>
       <use xlink:href="#DejaVuSans-30" x="95.410156"/>
      </g>
     </g>
    </g>
    <g id="ytick_8">
     <g id="line2d_13">
      <path d="M 66.023594 39.235473 
L 400.823594 39.235473 
" clip-path="url(#p0201a14155)" style="fill: none; stroke: #ffffff; stroke-linecap: round"/>
     </g>
     <g id="text_14">
      <!-- 7.5 -->
      <g style="fill: #262626" transform="translate(39.030156 43.414613)scale(0.11 -0.11)">
       <use xlink:href="#DejaVuSans-37"/>
       <use xlink:href="#DejaVuSans-2e" x="63.623047"/>
       <use xlink:href="#DejaVuSans-35" x="95.410156"/>
      </g>
     </g>
    </g>
    <g id="ytick_9">
     <g id="line2d_14">
      <path d="M 66.023594 13.220419 
L 400.823594 13.220419 
" clip-path="url(#p0201a14155)" style="fill: none; stroke: #ffffff; stroke-linecap: round"/>
     </g>
     <g id="text_15">
      <!-- 10.0 -->
      <g style="fill: #262626" transform="translate(32.031406 17.39956)scale(0.11 -0.11)">
       <use xlink:href="#DejaVuSans-31"/>
       <use xlink:href="#DejaVuSans-30" x="63.623047"/>
       <use xlink:href="#DejaVuSans-2e" x="127.246094"/>
       <use xlink:href="#DejaVuSans-30" x="159.033203"/>
      </g>
     </g>
    </g>
    <g id="text_16">
     <!-- Parameter $\theta$ -->
     <g style="fill: #262626" transform="translate(16.318125 153)rotate(-90)scale(0.12 -0.12)">
      <defs>
       <path id="DejaVuSans-50" d="M 1259 4147 
L 1259 2394 
L 2053 2394 
Q 2494 2394 2734 2622 
Q 2975 2850 2975 3272 
Q 2975 3691 2734 3919 
Q 2494 4147 2053 4147 
L 1259 4147 
z
M 628 4666 
L 2053 4666 
Q 2838 4666 3239 4311 
Q 3641 3956 3641 3272 
Q 3641 2581 3239 2228 
Q 2838 1875 2053 1875 
L 1259 1875 
L 1259 0 
L 628 0 
L 628 4666 
z
" transform="scale(0.015625)"/>
       <path id="DejaVuSans-6d" d="M 3328 2828 
Q 3544 3216 3844 3400 
Q 4144 3584 4550 3584 
Q 5097 3584 5394 3201 
Q 5691 2819 5691 2113 
L 5691 0 
L 5113 0 
L 5113 2094 
Q 5113 2597 4934 2840 
Q 4756 3084 4391 3084 
Q 3944 3084 3684 2787 
Q 3425 2491 3425 1978 
L 3425 0 
L 2847 0 
L 2847 2094 
Q 2847 2600 2669 2842 
Q 2491 3084 2119 3084 
Q 1678 3084 1418 2786 
Q 1159 2488 1159 1978 
L 1159 0 
L 581 0 
L 581 3500 
L 1159 3500 
L 1159 2956 
Q 1356 3278 1631 3431 
Q 1906 3584 2284 3584 
Q 2666 3584 2933 3390 
Q 3200 3197 3328 2828 
z
" transform="scale(0.015625)"/>
       <path id="DejaVuSans-Oblique-3b8" d="M 2913 2219 
L 925 2219 
Q 791 1284 928 888 
Q 1100 400 1566 400 
Q 2034 400 2391 891 
Q 2703 1322 2913 2219 
z
M 3009 2750 
Q 3094 3638 2984 3950 
Q 2813 4444 2353 4444 
Q 1875 4444 1525 3956 
Q 1250 3563 1034 2750 
L 3009 2750 
z
M 2444 4913 
Q 3194 4913 3494 4250 
Q 3794 3591 3566 2422 
Q 3341 1256 2781 594 
Q 2225 -72 1475 -72 
Q 722 -72 425 594 
Q 128 1256 353 2422 
Q 581 3591 1134 4250 
Q 1691 4913 2444 4913 
z
" transform="scale(0.015625)"/>
      </defs>
      <use xlink:href="#DejaVuSans-50" transform="translate(0 0.234375)"/>
      <use xlink:href="#DejaVuSans-61" transform="translate(60.302734 0.234375)"/>
      <use xlink:href="#DejaVuSans-72" transform="translate(121.582031 0.234375)"/>
      <use xlink:href="#DejaVuSans-61" transform="translate(162.695312 0.234375)"/>
      <use xlink:href="#DejaVuSans-6d" transform="translate(223.974609 0.234375)"/>
      <use xlink:href="#DejaVuSans-65" transform="translate(321.386719 0.234375)"/>
      <use xlink:href="#DejaVuSans-74" transform="translate(382.910156 0.234375)"/>
      <use xlink:href="#DejaVuSans-65" transform="translate(422.119141 0.234375)"/>
      <use xlink:href="#DejaVuSans-72" transform="translate(483.642578 0.234375)"/>
      <use xlink:href="#DejaVuSans-20" transform="translate(524.755859 0.234375)"/>
      <use xlink:href="#DejaVuSans-Oblique-3b8" transform="translate(556.542969 0.234375)"/>
     </g>
    </g>
   </g>
   <g id="PolyCollection_1">
    <defs>
     <path id="m1570b2a870" d="M 81.241776 -250.542301 
L 81.241776 -52.869574 
L 82.763932 -52.869653 
L 84.286077 -52.870278 
L 85.808234 -52.871519 
L 87.330379 -52.873385 
L 88.852535 -52.875955 
L 90.374692 -52.87924 
L 91.896837 -52.883319 
L 93.418993 -52.888231 
L 94.94115 -52.894086 
L 96.463295 -52.900934 
L 97.985452 -52.908893 
L 99.507608 -52.918062 
L 101.029753 -52.928522 
L 102.55191 -52.940441 
L 104.074066 -52.953967 
L 105.596223 -52.96924 
L 107.11838 -52.986419 
L 108.640525 -53.005721 
L 110.162681 -53.027365 
L 111.684826 -53.051559 
L 113.206983 -53.078612 
L 114.729139 -53.108781 
L 116.251284 -53.142473 
L 117.773441 -53.180075 
L 119.295586 -53.222063 
L 120.817742 -53.269043 
L 122.339899 -53.32166 
L 123.862044 -53.380717 
L 125.384201 -53.447188 
L 126.906346 -53.522193 
L 128.428502 -53.607152 
L 129.950659 -53.703801 
L 131.472804 -53.814176 
L 132.99496 -53.940895 
L 134.517105 -54.087164 
L 136.039268 -54.257092 
L 137.561424 -54.455809 
L 139.083581 -54.690064 
L 140.605726 -54.968461 
L 142.127882 -55.302501 
L 143.650027 -55.707498 
L 145.172184 -56.204063 
L 146.694341 -56.820668 
L 148.216486 -57.596751 
L 149.738642 -58.587946 
L 151.260787 -59.873187 
L 152.78295 -61.565341 
L 154.3051 -63.824539 
L 155.827251 -66.872722 
L 157.349408 -70.998765 
L 158.871553 -76.527023 
L 160.393709 -83.697116 
L 161.915866 -92.41472 
L 163.438022 -101.988965 
L 164.960167 -111.22194 
L 166.482318 -119.015813 
L 168.004469 -124.919103 
L 169.526626 -129.085427 
L 171.048782 -131.921436 
L 172.570933 -133.831442 
L 174.093078 -135.125655 
L 175.615229 -136.016462 
L 177.137391 -136.641925 
L 178.659542 -137.090178 
L 180.181693 -137.41756 
L 181.703838 -137.660513 
L 183.225994 -137.843018 
L 184.748154 -137.981162 
L 186.270305 -138.08597 
L 187.792455 -138.16513 
L 189.314612 -138.224118 
L 190.836754 -138.266915 
L 192.358913 -138.296451 
L 193.881073 -138.314961 
L 195.403224 -138.324146 
L 196.925372 -138.32536 
L 198.447522 -138.319682 
L 199.969673 -138.307992 
L 201.491833 -138.29103 
L 203.013983 -138.269415 
L 204.536134 -138.243678 
L 206.058282 -138.214268 
L 207.580436 -138.18156 
L 209.102592 -138.145872 
L 210.62475 -138.107437 
L 212.146894 -138.066416 
L 213.669042 -138.022862 
L 215.191201 -137.976685 
L 216.713352 -137.927607 
L 218.235512 -137.875055 
L 219.75766 -137.818028 
L 221.279812 -137.754888 
L 222.801961 -137.683217 
L 224.324119 -137.602541 
L 225.846271 -137.556194 
L 227.36842 -137.898284 
L 228.890578 -138.229981 
L 230.412722 -138.208439 
L 231.93488 -138.161316 
L 233.457038 -138.084041 
L 234.979181 -137.944649 
L 236.501339 -137.675323 
L 238.023497 -137.119894 
L 239.54564 -135.931704 
L 241.067798 -133.575232 
L 242.589947 -130.138689 
L 244.1121 -126.948949 
L 245.634258 -124.677464 
L 247.156406 -122.967006 
L 248.678559 -121.126165 
L 250.200716 -118.541505 
L 251.722865 -115.378778 
L 253.245017 -112.255778 
L 254.767167 -109.587961 
L 256.289319 -107.483209 
L 257.811476 -105.886217 
L 259.333626 -104.693025 
L 260.855777 -103.80236 
L 262.377928 -103.131242 
L 263.900085 -102.616427 
L 265.422238 -102.211197 
L 266.944386 -101.881538 
L 268.466546 -101.602611 
L 269.988696 -101.356085 
L 271.510844 -101.128042 
L 273.033004 -100.907656 
L 274.555146 -100.68591 
L 276.077305 -100.454876 
L 277.599456 -100.20703 
L 279.121613 -99.934746 
L 280.643764 -99.630021 
L 282.165906 -99.283884 
L 283.688074 -98.886062 
L 285.210225 -98.424479 
L 286.73237 -97.884725 
L 288.254532 -97.249284 
L 289.776683 -96.496785 
L 291.298828 -95.601575 
L 292.82099 -94.533976 
L 294.343135 -93.262151 
L 295.865286 -91.756816 
L 297.387448 -89.998822 
L 298.909593 -87.989063 
L 300.431744 -85.75657 
L 301.953901 -83.361607 
L 303.476051 -80.888899 
L 304.998202 -78.433236 
L 306.520359 -76.082648 
L 308.04251 -73.905179 
L 309.56466 -71.94358 
L 311.086817 -70.216167 
L 312.608968 -68.721887 
L 314.131113 -67.447224 
L 315.653275 -66.371066 
L 317.175432 -65.469633 
L 318.697571 -64.718806 
L 320.219733 -64.096019 
L 321.74189 -63.580975 
L 323.264029 -63.155843 
L 324.786186 -62.805398 
L 326.308336 -62.516601 
L 327.830493 -62.278704 
L 329.352644 -62.082726 
L 330.874795 -61.921085 
L 332.396951 -61.787677 
L 333.919096 -61.677382 
L 335.441253 -61.586082 
L 336.963409 -61.510243 
L 338.485554 -61.447206 
L 340.007711 -61.394649 
L 341.529867 -61.350606 
L 343.052012 -61.313649 
L 344.574181 -61.282468 
L 346.096314 -61.256031 
L 347.618471 -61.233543 
L 349.140639 -61.214291 
L 350.662784 -61.197747 
L 352.184929 -61.183348 
L 353.707085 -61.170883 
L 355.229242 -61.159957 
L 356.751387 -61.150301 
L 358.273544 -61.141707 
L 359.7957 -61.134065 
L 361.317845 -61.127158 
L 362.840002 -61.120966 
L 364.362158 -61.115309 
L 365.884303 -61.110129 
L 367.40646 -61.105405 
L 368.928616 -61.101028 
L 370.450761 -61.09697 
L 371.972918 -61.093218 
L 373.495051 -61.089725 
L 375.01722 -61.08641 
L 376.539365 -61.083314 
L 378.06151 -61.080416 
L 379.583678 -61.077687 
L 381.105846 -61.075127 
L 382.627968 -61.072686 
L 384.150136 -61.070334 
L 384.150136 -242.627669 
L 384.150136 -242.627669 
L 382.627968 -242.625297 
L 381.105846 -242.622816 
L 379.583678 -242.620216 
L 378.06151 -242.617447 
L 376.539365 -242.61451 
L 375.01722 -242.611374 
L 373.495051 -242.608019 
L 371.972918 -242.604467 
L 370.450761 -242.600676 
L 368.928616 -242.596557 
L 367.40646 -242.592121 
L 365.884303 -242.587318 
L 364.362158 -242.582078 
L 362.840002 -242.576342 
L 361.317845 -242.57005 
L 359.7957 -242.563064 
L 358.273544 -242.555303 
L 356.751387 -242.54661 
L 355.229242 -242.536815 
L 353.707085 -242.52575 
L 352.184929 -242.513107 
L 350.662784 -242.498528 
L 349.140639 -242.481747 
L 347.618471 -242.462236 
L 346.096314 -242.439451 
L 344.574181 -242.412676 
L 343.052012 -242.381078 
L 341.529867 -242.343625 
L 340.007711 -242.299007 
L 338.485554 -242.245755 
L 336.963409 -242.181905 
L 335.441253 -242.105073 
L 333.919096 -242.012602 
L 332.396951 -241.900878 
L 330.874795 -241.765744 
L 329.352644 -241.602018 
L 327.830493 -241.403539 
L 326.308336 -241.162605 
L 324.786186 -240.870156 
L 323.264029 -240.515305 
L 321.74189 -240.084874 
L 320.219733 -239.563479 
L 318.697571 -238.933129 
L 317.175432 -238.173351 
L 315.653275 -237.261439 
L 314.131113 -236.173158 
L 312.608968 -234.884761 
L 311.086817 -233.375322 
L 309.56466 -231.631762 
L 308.04251 -229.653819 
L 306.520359 -227.460947 
L 304.998202 -225.097329 
L 303.476051 -222.632467 
L 301.953901 -220.155512 
L 300.431744 -217.761621 
L 298.909593 -215.535032 
L 297.387448 -213.534859 
L 295.865286 -211.788645 
L 294.343135 -210.295953 
L 292.82099 -209.036643 
L 291.298828 -207.980803 
L 289.776683 -207.096321 
L 288.254532 -206.353419 
L 286.73237 -205.726483 
L 285.210225 -205.194211 
L 283.688074 -204.739198 
L 282.165906 -204.347172 
L 280.643764 -204.006155 
L 279.121613 -203.705995 
L 277.599456 -203.43785 
L 276.077305 -203.193795 
L 274.555146 -202.966323 
L 273.033004 -202.748021 
L 271.510844 -202.531098 
L 269.988696 -202.306668 
L 268.466546 -202.064072 
L 266.944386 -201.78963 
L 265.422238 -201.46534 
L 263.900085 -201.066769 
L 262.377928 -200.560498 
L 260.855777 -199.900615 
L 259.333626 -199.024875 
L 257.811476 -197.851343 
L 256.289319 -196.278952 
L 254.767167 -194.200062 
L 253.245017 -191.542327 
L 251.722865 -188.359908 
L 250.200716 -184.948119 
L 248.678559 -181.804036 
L 247.156406 -179.247186 
L 245.634258 -177.07968 
L 244.1121 -174.781878 
L 242.589947 -171.856437 
L 241.067798 -168.560164 
L 239.54564 -166.044984 
L 238.023497 -164.657689 
L 236.501339 -163.972031 
L 234.979181 -163.62664 
L 233.457038 -163.442151 
L 231.93488 -163.336823 
L 230.412722 -163.270716 
L 228.890578 -163.23987 
L 227.36842 -163.690027 
L 225.846271 -164.132664 
L 224.324119 -164.075371 
L 222.801961 -163.973184 
L 221.279812 -163.881666 
L 219.75766 -163.800457 
L 218.235512 -163.726599 
L 216.713352 -163.658039 
L 215.191201 -163.593522 
L 213.669042 -163.532315 
L 212.146894 -163.474052 
L 210.62475 -163.418604 
L 209.102592 -163.366024 
L 207.580436 -163.31649 
L 206.058282 -163.270286 
L 204.536134 -163.227791 
L 203.013983 -163.18945 
L 201.491833 -163.155818 
L 199.969673 -163.127532 
L 198.447522 -163.105333 
L 196.925372 -163.090102 
L 195.403224 -163.082887 
L 193.881073 -163.084938 
L 192.358913 -163.097817 
L 190.836754 -163.123446 
L 189.314612 -163.164285 
L 187.792455 -163.223516 
L 186.270305 -163.305338 
L 184.748154 -163.415394 
L 183.225994 -163.561407 
L 181.703838 -163.754149 
L 180.181693 -164.008921 
L 178.659542 -164.347949 
L 177.137391 -164.804245 
L 175.615229 -165.427994 
L 174.093078 -166.297298 
L 172.570933 -167.536113 
L 171.048782 -169.342518 
L 169.526626 -172.026055 
L 168.004469 -176.029488 
L 166.482318 -181.851465 
L 164.960167 -189.746354 
L 163.438022 -199.279742 
L 161.915866 -209.26469 
L 160.393709 -218.390487 
L 158.871553 -225.901398 
L 157.349408 -231.688949 
L 155.827251 -236.003657 
L 154.3051 -239.186865 
L 152.78295 -241.542584 
L 151.260787 -243.304264 
L 149.738642 -244.640197 
L 148.216486 -245.668865 
L 146.694341 -246.473092 
L 145.172184 -247.111173 
L 143.650027 -247.624351 
L 142.127882 -248.042407 
L 140.605726 -248.386848 
L 139.083581 -248.67366 
L 137.561424 -248.914763 
L 136.039268 -249.119156 
L 134.517105 -249.293828 
L 132.99496 -249.444086 
L 131.472804 -249.574199 
L 129.950659 -249.687471 
L 128.428502 -249.786622 
L 126.906346 -249.873764 
L 125.384201 -249.950675 
L 123.862044 -250.018812 
L 122.339899 -250.079339 
L 120.817742 -250.133246 
L 119.295586 -250.181377 
L 117.773441 -250.224397 
L 116.251284 -250.262912 
L 114.729139 -250.297437 
L 113.206983 -250.328341 
L 111.684826 -250.356028 
L 110.162681 -250.380819 
L 108.640525 -250.402979 
L 107.11838 -250.422757 
L 105.596223 -250.440352 
L 104.074066 -250.455983 
L 102.55191 -250.469826 
L 101.029753 -250.482043 
L 99.507608 -250.492741 
L 97.985452 -250.502129 
L 96.463295 -250.510286 
L 94.94115 -250.517293 
L 93.418993 -250.523267 
L 91.896837 -250.528298 
L 90.374692 -250.532457 
L 88.852535 -250.535821 
L 87.330379 -250.538431 
L 85.808234 -250.540336 
L 84.286077 -250.541597 
L 82.763932 -250.542242 
L 81.241776 -250.542301 
z
" style="stroke: #ff0000; stroke-opacity: 0.2"/>
    </defs>
    <g clip-path="url(#p0201a14155)">
     <use xlink:href="#m1570b2a870" x="0" y="267.625937" style="fill: #ff0000; fill-opacity: 0.2; stroke: #ff0000; stroke-opacity: 0.2"/>
    </g>
   </g>
   <g id="PathCollection_1">
    <defs>
     <path id="m0199e5bd78" d="M 0 3 
C 0.795609 3 1.55874 2.683901 2.12132 2.12132 
C 2.683901 1.55874 3 0.795609 3 0 
C 3 -0.795609 2.683901 -1.55874 2.12132 -2.12132 
C 1.55874 -2.683901 0.795609 -3 0 -3 
C -0.795609 -3 -1.55874 -2.683901 -2.12132 -2.12132 
C -2.683901 -1.55874 -3 -0.795609 -3 0 
C -3 0.795609 -2.683901 1.55874 -2.12132 2.12132 
C -1.55874 2.683901 -0.795609 3 0 3 
z
" style="stroke: #ffffff; stroke-width: 0.48"/>
    </defs>
    <g clip-path="url(#p0201a14155)">
     <use xlink:href="#m0199e5bd78" x="385.605412" y="169.310741" style="fill: #4c72b0; stroke: #ffffff; stroke-width: 0.48"/>
     <use xlink:href="#m0199e5bd78" x="382.876563" y="168.259626" style="fill: #4c72b0; stroke: #ffffff; stroke-width: 0.48"/>
     <use xlink:href="#m0199e5bd78" x="375.958008" y="167.208515" style="fill: #4c72b0; stroke: #ffffff; stroke-width: 0.48"/>
     <use xlink:href="#m0199e5bd78" x="365.623183" y="166.157404" style="fill: #4c72b0; stroke: #ffffff; stroke-width: 0.48"/>
     <use xlink:href="#m0199e5bd78" x="357.539787" y="165.106289" style="fill: #4c72b0; stroke: #ffffff; stroke-width: 0.48"/>
     <use xlink:href="#m0199e5bd78" x="353.809856" y="164.055173" style="fill: #4c72b0; stroke: #ffffff; stroke-width: 0.48"/>
     <use xlink:href="#m0199e5bd78" x="347.272952" y="163.004063" style="fill: #4c72b0; stroke: #ffffff; stroke-width: 0.48"/>
     <use xlink:href="#m0199e5bd78" x="349.081465" y="161.952947" style="fill: #4c72b0; stroke: #ffffff; stroke-width: 0.48"/>
     <use xlink:href="#m0199e5bd78" x="338.345785" y="160.901836" style="fill: #4c72b0; stroke: #ffffff; stroke-width: 0.48"/>
     <use xlink:href="#m0199e5bd78" x="328.563724" y="159.850721" style="fill: #4c72b0; stroke: #ffffff; stroke-width: 0.48"/>
     <use xlink:href="#m0199e5bd78" x="331.126741" y="158.79961" style="fill: #4c72b0; stroke: #ffffff; stroke-width: 0.48"/>
     <use xlink:href="#m0199e5bd78" x="323.05438" y="157.748495" style="fill: #4c72b0; stroke: #ffffff; stroke-width: 0.48"/>
     <use xlink:href="#m0199e5bd78" x="321.769593" y="156.697381" style="fill: #4c72b0; stroke: #ffffff; stroke-width: 0.48"/>
     <use xlink:href="#m0199e5bd78" x="320.855913" y="155.646268" style="fill: #4c72b0; stroke: #ffffff; stroke-width: 0.48"/>
     <use xlink:href="#m0199e5bd78" x="311.868515" y="154.595153" style="fill: #4c72b0; stroke: #ffffff; stroke-width: 0.48"/>
     <use xlink:href="#m0199e5bd78" x="311.096055" y="153.544042" style="fill: #4c72b0; stroke: #ffffff; stroke-width: 0.48"/>
     <use xlink:href="#m0199e5bd78" x="302.487674" y="152.492929" style="fill: #4c72b0; stroke: #ffffff; stroke-width: 0.48"/>
     <use xlink:href="#m0199e5bd78" x="293.540748" y="151.441816" style="fill: #4c72b0; stroke: #ffffff; stroke-width: 0.48"/>
     <use xlink:href="#m0199e5bd78" x="293.219841" y="150.390703" style="fill: #4c72b0; stroke: #ffffff; stroke-width: 0.48"/>
     <use xlink:href="#m0199e5bd78" x="284.90011" y="149.33959" style="fill: #4c72b0; stroke: #ffffff; stroke-width: 0.48"/>
     <use xlink:href="#m0199e5bd78" x="281.507471" y="148.288479" style="fill: #4c72b0; stroke: #ffffff; stroke-width: 0.48"/>
     <use xlink:href="#m0199e5bd78" x="279.237478" y="147.237361" style="fill: #4c72b0; stroke: #ffffff; stroke-width: 0.48"/>
     <use xlink:href="#m0199e5bd78" x="280.865496" y="146.18625" style="fill: #4c72b0; stroke: #ffffff; stroke-width: 0.48"/>
     <use xlink:href="#m0199e5bd78" x="276.446249" y="145.135137" style="fill: #4c72b0; stroke: #ffffff; stroke-width: 0.48"/>
     <use xlink:href="#m0199e5bd78" x="274.051754" y="144.084022" style="fill: #4c72b0; stroke: #ffffff; stroke-width: 0.48"/>
     <use xlink:href="#m0199e5bd78" x="268.923995" y="143.032911" style="fill: #4c72b0; stroke: #ffffff; stroke-width: 0.48"/>
     <use xlink:href="#m0199e5bd78" x="269.696553" y="141.981795" style="fill: #4c72b0; stroke: #ffffff; stroke-width: 0.48"/>
     <use xlink:href="#m0199e5bd78" x="260.865697" y="140.930685" style="fill: #4c72b0; stroke: #ffffff; stroke-width: 0.48"/>
     <use xlink:href="#m0199e5bd78" x="255.539231" y="139.879569" style="fill: #4c72b0; stroke: #ffffff; stroke-width: 0.48"/>
     <use xlink:href="#m0199e5bd78" x="258.770402" y="138.828456" style="fill: #4c72b0; stroke: #ffffff; stroke-width: 0.48"/>
     <use xlink:href="#m0199e5bd78" x="254.24655" y="137.777343" style="fill: #4c72b0; stroke: #ffffff; stroke-width: 0.48"/>
     <use xlink:href="#m0199e5bd78" x="252.834546" y="136.726229" style="fill: #4c72b0; stroke: #ffffff; stroke-width: 0.48"/>
     <use xlink:href="#m0199e5bd78" x="250.409443" y="135.675118" style="fill: #4c72b0; stroke: #ffffff; stroke-width: 0.48"/>
     <use xlink:href="#m0199e5bd78" x="245.459638" y="134.624001" style="fill: #4c72b0; stroke: #ffffff; stroke-width: 0.48"/>
     <use xlink:href="#m0199e5bd78" x="243.082931" y="133.572891" style="fill: #4c72b0; stroke: #ffffff; stroke-width: 0.48"/>
     <use xlink:href="#m0199e5bd78" x="246.939559" y="132.521778" style="fill: #4c72b0; stroke: #ffffff; stroke-width: 0.48"/>
     <use xlink:href="#m0199e5bd78" x="245.188115" y="131.470663" style="fill: #4c72b0; stroke: #ffffff; stroke-width: 0.48"/>
     <use xlink:href="#m0199e5bd78" x="239.272668" y="130.419553" style="fill: #4c72b0; stroke: #ffffff; stroke-width: 0.48"/>
     <use xlink:href="#m0199e5bd78" x="238.502689" y="129.368436" style="fill: #4c72b0; stroke: #ffffff; stroke-width: 0.48"/>
     <use xlink:href="#m0199e5bd78" x="236.11696" y="128.317325" style="fill: #4c72b0; stroke: #ffffff; stroke-width: 0.48"/>
     <use xlink:href="#m0199e5bd78" x="240.668772" y="127.266211" style="fill: #4c72b0; stroke: #ffffff; stroke-width: 0.48"/>
     <use xlink:href="#m0199e5bd78" x="237.680645" y="126.215096" style="fill: #4c72b0; stroke: #ffffff; stroke-width: 0.48"/>
     <use xlink:href="#m0199e5bd78" x="237.185913" y="125.163984" style="fill: #4c72b0; stroke: #ffffff; stroke-width: 0.48"/>
     <use xlink:href="#m0199e5bd78" x="231.953429" y="124.112869" style="fill: #4c72b0; stroke: #ffffff; stroke-width: 0.48"/>
     <use xlink:href="#m0199e5bd78" x="230.339845" y="123.06176" style="fill: #4c72b0; stroke: #ffffff; stroke-width: 0.48"/>
     <use xlink:href="#m0199e5bd78" x="236.512723" y="122.010642" style="fill: #4c72b0; stroke: #ffffff; stroke-width: 0.48"/>
     <use xlink:href="#m0199e5bd78" x="239.875396" y="120.959532" style="fill: #4c72b0; stroke: #ffffff; stroke-width: 0.48"/>
     <use xlink:href="#m0199e5bd78" x="235.339839" y="119.908417" style="fill: #4c72b0; stroke: #ffffff; stroke-width: 0.48"/>
     <use xlink:href="#m0199e5bd78" x="236.865783" y="118.857302" style="fill: #4c72b0; stroke: #ffffff; stroke-width: 0.48"/>
     <use xlink:href="#m0199e5bd78" x="234.941331" y="117.806193" style="fill: #4c72b0; stroke: #ffffff; stroke-width: 0.48"/>
     <use xlink:href="#m0199e5bd78" x="230.624191" y="116.755078" style="fill: #4c72b0; stroke: #ffffff; stroke-width: 0.48"/>
     <use xlink:href="#m0199e5bd78" x="234.146367" y="115.703965" style="fill: #4c72b0; stroke: #ffffff; stroke-width: 0.48"/>
     <use xlink:href="#m0199e5bd78" x="234.511164" y="114.65285" style="fill: #4c72b0; stroke: #ffffff; stroke-width: 0.48"/>
     <use xlink:href="#m0199e5bd78" x="237.046595" y="113.601738" style="fill: #4c72b0; stroke: #ffffff; stroke-width: 0.48"/>
     <use xlink:href="#m0199e5bd78" x="233.787521" y="112.550623" style="fill: #4c72b0; stroke: #ffffff; stroke-width: 0.48"/>
     <use xlink:href="#m0199e5bd78" x="230.687368" y="111.499511" style="fill: #4c72b0; stroke: #ffffff; stroke-width: 0.48"/>
     <use xlink:href="#m0199e5bd78" x="233.564741" y="110.448399" style="fill: #4c72b0; stroke: #ffffff; stroke-width: 0.48"/>
     <use xlink:href="#m0199e5bd78" x="237.853018" y="109.397286" style="fill: #4c72b0; stroke: #ffffff; stroke-width: 0.48"/>
     <use xlink:href="#m0199e5bd78" x="237.482461" y="108.346171" style="fill: #4c72b0; stroke: #ffffff; stroke-width: 0.48"/>
     <use xlink:href="#m0199e5bd78" x="233.851874" y="107.295059" style="fill: #4c72b0; stroke: #ffffff; stroke-width: 0.48"/>
     <use xlink:href="#m0199e5bd78" x="237.476576" y="106.243944" style="fill: #4c72b0; stroke: #ffffff; stroke-width: 0.48"/>
     <use xlink:href="#m0199e5bd78" x="245.192085" y="105.192832" style="fill: #4c72b0; stroke: #ffffff; stroke-width: 0.48"/>
     <use xlink:href="#m0199e5bd78" x="246.033978" y="104.141719" style="fill: #4c72b0; stroke: #ffffff; stroke-width: 0.48"/>
     <use xlink:href="#m0199e5bd78" x="243.986283" y="103.090607" style="fill: #4c72b0; stroke: #ffffff; stroke-width: 0.48"/>
     <use xlink:href="#m0199e5bd78" x="251.311935" y="102.039493" style="fill: #4c72b0; stroke: #ffffff; stroke-width: 0.48"/>
     <use xlink:href="#m0199e5bd78" x="249.235931" y="100.988377" style="fill: #4c72b0; stroke: #ffffff; stroke-width: 0.48"/>
     <use xlink:href="#m0199e5bd78" x="252.533425" y="99.937264" style="fill: #4c72b0; stroke: #ffffff; stroke-width: 0.48"/>
     <use xlink:href="#m0199e5bd78" x="245.909841" y="98.886153" style="fill: #4c72b0; stroke: #ffffff; stroke-width: 0.48"/>
     <use xlink:href="#m0199e5bd78" x="258.830344" y="97.83504" style="fill: #4c72b0; stroke: #ffffff; stroke-width: 0.48"/>
     <use xlink:href="#m0199e5bd78" x="260.170491" y="96.783925" style="fill: #4c72b0; stroke: #ffffff; stroke-width: 0.48"/>
     <use xlink:href="#m0199e5bd78" x="255.710601" y="95.732814" style="fill: #4c72b0; stroke: #ffffff; stroke-width: 0.48"/>
     <use xlink:href="#m0199e5bd78" x="263.638057" y="94.681698" style="fill: #4c72b0; stroke: #ffffff; stroke-width: 0.48"/>
     <use xlink:href="#m0199e5bd78" x="262.159211" y="93.630585" style="fill: #4c72b0; stroke: #ffffff; stroke-width: 0.48"/>
     <use xlink:href="#m0199e5bd78" x="266.853104" y="92.579472" style="fill: #4c72b0; stroke: #ffffff; stroke-width: 0.48"/>
     <use xlink:href="#m0199e5bd78" x="269.648649" y="91.528362" style="fill: #4c72b0; stroke: #ffffff; stroke-width: 0.48"/>
     <use xlink:href="#m0199e5bd78" x="269.857301" y="90.477246" style="fill: #4c72b0; stroke: #ffffff; stroke-width: 0.48"/>
     <use xlink:href="#m0199e5bd78" x="275.545933" y="89.426133" style="fill: #4c72b0; stroke: #ffffff; stroke-width: 0.48"/>
     <use xlink:href="#m0199e5bd78" x="284.567077" y="88.37502" style="fill: #4c72b0; stroke: #ffffff; stroke-width: 0.48"/>
     <use xlink:href="#m0199e5bd78" x="283.362181" y="87.323907" style="fill: #4c72b0; stroke: #ffffff; stroke-width: 0.48"/>
     <use xlink:href="#m0199e5bd78" x="284.831526" y="86.272794" style="fill: #4c72b0; stroke: #ffffff; stroke-width: 0.48"/>
     <use xlink:href="#m0199e5bd78" x="291.027336" y="85.221683" style="fill: #4c72b0; stroke: #ffffff; stroke-width: 0.48"/>
     <use xlink:href="#m0199e5bd78" x="300.506395" y="84.170567" style="fill: #4c72b0; stroke: #ffffff; stroke-width: 0.48"/>
     <use xlink:href="#m0199e5bd78" x="293.016236" y="83.119452" style="fill: #4c72b0; stroke: #ffffff; stroke-width: 0.48"/>
     <use xlink:href="#m0199e5bd78" x="303.457621" y="82.068336" style="fill: #4c72b0; stroke: #ffffff; stroke-width: 0.48"/>
     <use xlink:href="#m0199e5bd78" x="307.108308" y="81.017226" style="fill: #4c72b0; stroke: #ffffff; stroke-width: 0.48"/>
     <use xlink:href="#m0199e5bd78" x="311.507599" y="79.966115" style="fill: #4c72b0; stroke: #ffffff; stroke-width: 0.48"/>
     <use xlink:href="#m0199e5bd78" x="317.411599" y="78.914999" style="fill: #4c72b0; stroke: #ffffff; stroke-width: 0.48"/>
     <use xlink:href="#m0199e5bd78" x="318.440102" y="77.863884" style="fill: #4c72b0; stroke: #ffffff; stroke-width: 0.48"/>
     <use xlink:href="#m0199e5bd78" x="319.274606" y="76.812776" style="fill: #4c72b0; stroke: #ffffff; stroke-width: 0.48"/>
     <use xlink:href="#m0199e5bd78" x="328.608205" y="75.76166" style="fill: #4c72b0; stroke: #ffffff; stroke-width: 0.48"/>
     <use xlink:href="#m0199e5bd78" x="337.541207" y="74.710547" style="fill: #4c72b0; stroke: #ffffff; stroke-width: 0.48"/>
     <use xlink:href="#m0199e5bd78" x="338.818767" y="73.659431" style="fill: #4c72b0; stroke: #ffffff; stroke-width: 0.48"/>
     <use xlink:href="#m0199e5bd78" x="343.63189" y="72.608326" style="fill: #4c72b0; stroke: #ffffff; stroke-width: 0.48"/>
     <use xlink:href="#m0199e5bd78" x="346.48848" y="71.55721" style="fill: #4c72b0; stroke: #ffffff; stroke-width: 0.48"/>
     <use xlink:href="#m0199e5bd78" x="354.633915" y="70.506094" style="fill: #4c72b0; stroke: #ffffff; stroke-width: 0.48"/>
     <use xlink:href="#m0199e5bd78" x="359.028711" y="69.454979" style="fill: #4c72b0; stroke: #ffffff; stroke-width: 0.48"/>
     <use xlink:href="#m0199e5bd78" x="365.685198" y="68.403863" style="fill: #4c72b0; stroke: #ffffff; stroke-width: 0.48"/>
     <use xlink:href="#m0199e5bd78" x="370.21505" y="67.352758" style="fill: #4c72b0; stroke: #ffffff; stroke-width: 0.48"/>
     <use xlink:href="#m0199e5bd78" x="384.80221" y="66.301642" style="fill: #4c72b0; stroke: #ffffff; stroke-width: 0.48"/>
     <use xlink:href="#m0199e5bd78" x="383.526834" y="65.250526" style="fill: #4c72b0; stroke: #ffffff; stroke-width: 0.48"/>
    </g>
   </g>
   <g id="PathCollection_2">
    <defs>
     <path id="mf9b9956dd5" d="M 0 3 
C 0.795609 3 1.55874 2.683901 2.12132 2.12132 
C 2.683901 1.55874 3 0.795609 3 0 
C 3 -0.795609 2.683901 -1.55874 2.12132 -2.12132 
C 1.55874 -2.683901 0.795609 -3 0 -3 
C -0.795609 -3 -1.55874 -2.683901 -2.12132 -2.12132 
C -2.683901 -1.55874 -3 -0.795609 -3 0 
C -3 0.795609 -2.683901 1.55874 -2.12132 2.12132 
C -1.55874 2.683901 -0.795609 3 0 3 
z
" style="stroke: #ffffff; stroke-width: 0.48"/>
    </defs>
    <g clip-path="url(#p0201a14155)">
     <use xlink:href="#mf9b9956dd5" x="384.150136" y="169.310741" style="fill: #55a868; stroke: #ffffff; stroke-width: 0.48"/>
     <use xlink:href="#mf9b9956dd5" x="378.09257" y="168.259626" style="fill: #55a868; stroke: #ffffff; stroke-width: 0.48"/>
     <use xlink:href="#mf9b9956dd5" x="372.158665" y="167.208515" style="fill: #55a868; stroke: #ffffff; stroke-width: 0.48"/>
     <use xlink:href="#mf9b9956dd5" x="366.348377" y="166.157404" style="fill: #55a868; stroke: #ffffff; stroke-width: 0.48"/>
     <use xlink:href="#mf9b9956dd5" x="360.661681" y="165.106289" style="fill: #55a868; stroke: #ffffff; stroke-width: 0.48"/>
     <use xlink:href="#mf9b9956dd5" x="355.098612" y="164.055173" style="fill: #55a868; stroke: #ffffff; stroke-width: 0.48"/>
     <use xlink:href="#mf9b9956dd5" x="349.659194" y="163.004063" style="fill: #55a868; stroke: #ffffff; stroke-width: 0.48"/>
     <use xlink:href="#mf9b9956dd5" x="344.34338" y="161.952947" style="fill: #55a868; stroke: #ffffff; stroke-width: 0.48"/>
     <use xlink:href="#mf9b9956dd5" x="339.151205" y="160.901836" style="fill: #55a868; stroke: #ffffff; stroke-width: 0.48"/>
     <use xlink:href="#mf9b9956dd5" x="334.082635" y="159.850721" style="fill: #55a868; stroke: #ffffff; stroke-width: 0.48"/>
     <use xlink:href="#mf9b9956dd5" x="329.137709" y="158.79961" style="fill: #55a868; stroke: #ffffff; stroke-width: 0.48"/>
     <use xlink:href="#mf9b9956dd5" x="324.316381" y="157.748495" style="fill: #55a868; stroke: #ffffff; stroke-width: 0.48"/>
     <use xlink:href="#mf9b9956dd5" x="319.618692" y="156.697381" style="fill: #55a868; stroke: #ffffff; stroke-width: 0.48"/>
     <use xlink:href="#mf9b9956dd5" x="315.044625" y="155.646268" style="fill: #55a868; stroke: #ffffff; stroke-width: 0.48"/>
     <use xlink:href="#mf9b9956dd5" x="310.594174" y="154.595153" style="fill: #55a868; stroke: #ffffff; stroke-width: 0.48"/>
     <use xlink:href="#mf9b9956dd5" x="306.267361" y="153.544042" style="fill: #55a868; stroke: #ffffff; stroke-width: 0.48"/>
     <use xlink:href="#mf9b9956dd5" x="302.064165" y="152.492929" style="fill: #55a868; stroke: #ffffff; stroke-width: 0.48"/>
     <use xlink:href="#mf9b9956dd5" x="297.984595" y="151.441816" style="fill: #55a868; stroke: #ffffff; stroke-width: 0.48"/>
     <use xlink:href="#mf9b9956dd5" x="294.028642" y="150.390703" style="fill: #55a868; stroke: #ffffff; stroke-width: 0.48"/>
     <use xlink:href="#mf9b9956dd5" x="290.196315" y="149.33959" style="fill: #55a868; stroke: #ffffff; stroke-width: 0.48"/>
     <use xlink:href="#mf9b9956dd5" x="286.487622" y="148.288479" style="fill: #55a868; stroke: #ffffff; stroke-width: 0.48"/>
     <use xlink:href="#mf9b9956dd5" x="282.902528" y="147.237361" style="fill: #55a868; stroke: #ffffff; stroke-width: 0.48"/>
     <use xlink:href="#mf9b9956dd5" x="279.441078" y="146.18625" style="fill: #55a868; stroke: #ffffff; stroke-width: 0.48"/>
     <use xlink:href="#mf9b9956dd5" x="276.103244" y="145.135137" style="fill: #55a868; stroke: #ffffff; stroke-width: 0.48"/>
     <use xlink:href="#mf9b9956dd5" x="272.889028" y="144.084022" style="fill: #55a868; stroke: #ffffff; stroke-width: 0.48"/>
     <use xlink:href="#mf9b9956dd5" x="269.798448" y="143.032911" style="fill: #55a868; stroke: #ffffff; stroke-width: 0.48"/>
     <use xlink:href="#mf9b9956dd5" x="266.831479" y="141.981795" style="fill: #55a868; stroke: #ffffff; stroke-width: 0.48"/>
     <use xlink:href="#mf9b9956dd5" x="263.988148" y="140.930685" style="fill: #55a868; stroke: #ffffff; stroke-width: 0.48"/>
     <use xlink:href="#mf9b9956dd5" x="261.268425" y="139.879569" style="fill: #55a868; stroke: #ffffff; stroke-width: 0.48"/>
     <use xlink:href="#mf9b9956dd5" x="258.672335" y="138.828456" style="fill: #55a868; stroke: #ffffff; stroke-width: 0.48"/>
     <use xlink:href="#mf9b9956dd5" x="256.199866" y="137.777343" style="fill: #55a868; stroke: #ffffff; stroke-width: 0.48"/>
     <use xlink:href="#mf9b9956dd5" x="253.851017" y="136.726229" style="fill: #55a868; stroke: #ffffff; stroke-width: 0.48"/>
     <use xlink:href="#mf9b9956dd5" x="251.6258" y="135.675118" style="fill: #55a868; stroke: #ffffff; stroke-width: 0.48"/>
     <use xlink:href="#mf9b9956dd5" x="249.524194" y="134.624001" style="fill: #55a868; stroke: #ffffff; stroke-width: 0.48"/>
     <use xlink:href="#mf9b9956dd5" x="247.546225" y="133.572891" style="fill: #55a868; stroke: #ffffff; stroke-width: 0.48"/>
     <use xlink:href="#mf9b9956dd5" x="245.691873" y="132.521778" style="fill: #55a868; stroke: #ffffff; stroke-width: 0.48"/>
     <use xlink:href="#mf9b9956dd5" x="243.961143" y="131.470663" style="fill: #55a868; stroke: #ffffff; stroke-width: 0.48"/>
     <use xlink:href="#mf9b9956dd5" x="242.354042" y="130.419553" style="fill: #55a868; stroke: #ffffff; stroke-width: 0.48"/>
     <use xlink:href="#mf9b9956dd5" x="240.870555" y="129.368436" style="fill: #55a868; stroke: #ffffff; stroke-width: 0.48"/>
     <use xlink:href="#mf9b9956dd5" x="239.510701" y="128.317325" style="fill: #55a868; stroke: #ffffff; stroke-width: 0.48"/>
     <use xlink:href="#mf9b9956dd5" x="238.274465" y="127.266211" style="fill: #55a868; stroke: #ffffff; stroke-width: 0.48"/>
     <use xlink:href="#mf9b9956dd5" x="237.161853" y="126.215096" style="fill: #55a868; stroke: #ffffff; stroke-width: 0.48"/>
     <use xlink:href="#mf9b9956dd5" x="236.172866" y="125.163984" style="fill: #55a868; stroke: #ffffff; stroke-width: 0.48"/>
     <use xlink:href="#mf9b9956dd5" x="235.3075" y="124.112869" style="fill: #55a868; stroke: #ffffff; stroke-width: 0.48"/>
     <use xlink:href="#mf9b9956dd5" x="234.565762" y="123.06176" style="fill: #55a868; stroke: #ffffff; stroke-width: 0.48"/>
     <use xlink:href="#mf9b9956dd5" x="233.947642" y="122.010642" style="fill: #55a868; stroke: #ffffff; stroke-width: 0.48"/>
     <use xlink:href="#mf9b9956dd5" x="233.45315" y="120.959532" style="fill: #55a868; stroke: #ffffff; stroke-width: 0.48"/>
     <use xlink:href="#mf9b9956dd5" x="233.082279" y="119.908417" style="fill: #55a868; stroke: #ffffff; stroke-width: 0.48"/>
     <use xlink:href="#mf9b9956dd5" x="232.835032" y="118.857302" style="fill: #55a868; stroke: #ffffff; stroke-width: 0.48"/>
     <use xlink:href="#mf9b9956dd5" x="232.711409" y="117.806193" style="fill: #55a868; stroke: #ffffff; stroke-width: 0.48"/>
     <use xlink:href="#mf9b9956dd5" x="232.711409" y="116.755078" style="fill: #55a868; stroke: #ffffff; stroke-width: 0.48"/>
     <use xlink:href="#mf9b9956dd5" x="232.835032" y="115.703965" style="fill: #55a868; stroke: #ffffff; stroke-width: 0.48"/>
     <use xlink:href="#mf9b9956dd5" x="233.082279" y="114.65285" style="fill: #55a868; stroke: #ffffff; stroke-width: 0.48"/>
     <use xlink:href="#mf9b9956dd5" x="233.453149" y="113.601738" style="fill: #55a868; stroke: #ffffff; stroke-width: 0.48"/>
     <use xlink:href="#mf9b9956dd5" x="233.947644" y="112.550623" style="fill: #55a868; stroke: #ffffff; stroke-width: 0.48"/>
     <use xlink:href="#mf9b9956dd5" x="234.565761" y="111.499511" style="fill: #55a868; stroke: #ffffff; stroke-width: 0.48"/>
     <use xlink:href="#mf9b9956dd5" x="235.3075" y="110.448399" style="fill: #55a868; stroke: #ffffff; stroke-width: 0.48"/>
     <use xlink:href="#mf9b9956dd5" x="236.172863" y="109.397286" style="fill: #55a868; stroke: #ffffff; stroke-width: 0.48"/>
     <use xlink:href="#mf9b9956dd5" x="237.161853" y="108.346171" style="fill: #55a868; stroke: #ffffff; stroke-width: 0.48"/>
     <use xlink:href="#mf9b9956dd5" x="238.274463" y="107.295059" style="fill: #55a868; stroke: #ffffff; stroke-width: 0.48"/>
     <use xlink:href="#mf9b9956dd5" x="239.510699" y="106.243944" style="fill: #55a868; stroke: #ffffff; stroke-width: 0.48"/>
     <use xlink:href="#mf9b9956dd5" x="240.870555" y="105.192832" style="fill: #55a868; stroke: #ffffff; stroke-width: 0.48"/>
     <use xlink:href="#mf9b9956dd5" x="242.354036" y="104.141719" style="fill: #55a868; stroke: #ffffff; stroke-width: 0.48"/>
     <use xlink:href="#mf9b9956dd5" x="243.961139" y="103.090607" style="fill: #55a868; stroke: #ffffff; stroke-width: 0.48"/>
     <use xlink:href="#mf9b9956dd5" x="245.691868" y="102.039493" style="fill: #55a868; stroke: #ffffff; stroke-width: 0.48"/>
     <use xlink:href="#mf9b9956dd5" x="247.546225" y="100.988377" style="fill: #55a868; stroke: #ffffff; stroke-width: 0.48"/>
     <use xlink:href="#mf9b9956dd5" x="249.5242" y="99.937264" style="fill: #55a868; stroke: #ffffff; stroke-width: 0.48"/>
     <use xlink:href="#mf9b9956dd5" x="251.625793" y="98.886153" style="fill: #55a868; stroke: #ffffff; stroke-width: 0.48"/>
     <use xlink:href="#mf9b9956dd5" x="253.851014" y="97.83504" style="fill: #55a868; stroke: #ffffff; stroke-width: 0.48"/>
     <use xlink:href="#mf9b9956dd5" x="256.199866" y="96.783925" style="fill: #55a868; stroke: #ffffff; stroke-width: 0.48"/>
     <use xlink:href="#mf9b9956dd5" x="258.672329" y="95.732814" style="fill: #55a868; stroke: #ffffff; stroke-width: 0.48"/>
     <use xlink:href="#mf9b9956dd5" x="261.268425" y="94.681698" style="fill: #55a868; stroke: #ffffff; stroke-width: 0.48"/>
     <use xlink:href="#mf9b9956dd5" x="263.98814" y="93.630585" style="fill: #55a868; stroke: #ffffff; stroke-width: 0.48"/>
     <use xlink:href="#mf9b9956dd5" x="266.831479" y="92.579472" style="fill: #55a868; stroke: #ffffff; stroke-width: 0.48"/>
     <use xlink:href="#mf9b9956dd5" x="269.798434" y="91.528362" style="fill: #55a868; stroke: #ffffff; stroke-width: 0.48"/>
     <use xlink:href="#mf9b9956dd5" x="272.889028" y="90.477246" style="fill: #55a868; stroke: #ffffff; stroke-width: 0.48"/>
     <use xlink:href="#mf9b9956dd5" x="276.103238" y="89.426133" style="fill: #55a868; stroke: #ffffff; stroke-width: 0.48"/>
     <use xlink:href="#mf9b9956dd5" x="279.441069" y="88.37502" style="fill: #55a868; stroke: #ffffff; stroke-width: 0.48"/>
     <use xlink:href="#mf9b9956dd5" x="282.902528" y="87.323907" style="fill: #55a868; stroke: #ffffff; stroke-width: 0.48"/>
     <use xlink:href="#mf9b9956dd5" x="286.487605" y="86.272794" style="fill: #55a868; stroke: #ffffff; stroke-width: 0.48"/>
     <use xlink:href="#mf9b9956dd5" x="290.196298" y="85.221683" style="fill: #55a868; stroke: #ffffff; stroke-width: 0.48"/>
     <use xlink:href="#mf9b9956dd5" x="294.028636" y="84.170567" style="fill: #55a868; stroke: #ffffff; stroke-width: 0.48"/>
     <use xlink:href="#mf9b9956dd5" x="297.984595" y="83.119452" style="fill: #55a868; stroke: #ffffff; stroke-width: 0.48"/>
     <use xlink:href="#mf9b9956dd5" x="302.064176" y="82.068336" style="fill: #55a868; stroke: #ffffff; stroke-width: 0.48"/>
     <use xlink:href="#mf9b9956dd5" x="306.267361" y="81.017226" style="fill: #55a868; stroke: #ffffff; stroke-width: 0.48"/>
     <use xlink:href="#mf9b9956dd5" x="310.594174" y="79.966115" style="fill: #55a868; stroke: #ffffff; stroke-width: 0.48"/>
     <use xlink:href="#mf9b9956dd5" x="315.044625" y="78.914999" style="fill: #55a868; stroke: #ffffff; stroke-width: 0.48"/>
     <use xlink:href="#mf9b9956dd5" x="319.618704" y="77.863884" style="fill: #55a868; stroke: #ffffff; stroke-width: 0.48"/>
     <use xlink:href="#mf9b9956dd5" x="324.316369" y="76.812776" style="fill: #55a868; stroke: #ffffff; stroke-width: 0.48"/>
     <use xlink:href="#mf9b9956dd5" x="329.137697" y="75.76166" style="fill: #55a868; stroke: #ffffff; stroke-width: 0.48"/>
     <use xlink:href="#mf9b9956dd5" x="334.082635" y="74.710547" style="fill: #55a868; stroke: #ffffff; stroke-width: 0.48"/>
     <use xlink:href="#mf9b9956dd5" x="339.151205" y="73.659431" style="fill: #55a868; stroke: #ffffff; stroke-width: 0.48"/>
     <use xlink:href="#mf9b9956dd5" x="344.343357" y="72.608326" style="fill: #55a868; stroke: #ffffff; stroke-width: 0.48"/>
     <use xlink:href="#mf9b9956dd5" x="349.659171" y="71.55721" style="fill: #55a868; stroke: #ffffff; stroke-width: 0.48"/>
     <use xlink:href="#mf9b9956dd5" x="355.098612" y="70.506094" style="fill: #55a868; stroke: #ffffff; stroke-width: 0.48"/>
     <use xlink:href="#mf9b9956dd5" x="360.661681" y="69.454979" style="fill: #55a868; stroke: #ffffff; stroke-width: 0.48"/>
     <use xlink:href="#mf9b9956dd5" x="366.348377" y="68.403863" style="fill: #55a868; stroke: #ffffff; stroke-width: 0.48"/>
     <use xlink:href="#mf9b9956dd5" x="372.158631" y="67.352758" style="fill: #55a868; stroke: #ffffff; stroke-width: 0.48"/>
     <use xlink:href="#mf9b9956dd5" x="378.09257" y="66.301642" style="fill: #55a868; stroke: #ffffff; stroke-width: 0.48"/>
     <use xlink:href="#mf9b9956dd5" x="384.150136" y="65.250526" style="fill: #55a868; stroke: #ffffff; stroke-width: 0.48"/>
    </g>
   </g>
   <g id="line2d_15">
    <path d="M 81.241776 115.919996 
L 149.738642 116.011867 
L 155.827251 116.187746 
L 158.871553 116.411726 
L 166.482318 117.192298 
L 180.181693 116.912697 
L 203.013983 116.896504 
L 239.54564 116.637594 
L 241.067798 116.558239 
L 245.634258 116.747364 
L 247.156406 116.518842 
L 250.200716 115.881125 
L 253.245017 115.726885 
L 312.608968 115.822611 
L 346.096314 115.778192 
L 384.150136 115.776933 
L 384.150136 115.776933 
" clip-path="url(#p0201a14155)" style="fill: none; stroke: #ff0000; stroke-width: 1.5; stroke-linecap: round"/>
   </g>
   <g id="line2d_16">
    <path d="M 81.241776 17.083636 
L 105.596223 17.185585 
L 119.295586 17.444561 
L 128.428502 17.839316 
L 134.517105 18.33211 
L 139.083581 18.952277 
L 142.127882 19.58353 
L 145.172184 20.514765 
L 146.694341 21.152845 
L 148.216486 21.957073 
L 149.738642 22.98574 
L 151.260787 24.321673 
L 152.78295 26.083354 
L 154.3051 28.439073 
L 155.827251 31.622281 
L 157.349408 35.936988 
L 158.871553 41.72454 
L 160.393709 49.235451 
L 161.915866 58.361247 
L 164.960167 77.879583 
L 166.482318 85.774472 
L 168.004469 91.59645 
L 169.526626 95.599883 
L 171.048782 98.283419 
L 172.570933 100.089825 
L 174.093078 101.32864 
L 175.615229 102.197943 
L 177.137391 102.821693 
L 178.659542 103.277989 
L 181.703838 103.871788 
L 184.748154 104.210544 
L 189.314612 104.461652 
L 195.403224 104.543051 
L 204.536134 104.398146 
L 216.713352 103.967898 
L 225.846271 103.493274 
L 228.890578 104.386068 
L 233.457038 104.183786 
L 234.979181 103.999298 
L 236.501339 103.653907 
L 238.023497 102.968248 
L 239.54564 101.580954 
L 241.067798 99.065773 
L 242.589947 95.7695 
L 244.1121 92.84406 
L 248.678559 85.821901 
L 250.200716 82.677818 
L 253.245017 76.08361 
L 254.767167 73.425876 
L 256.289319 71.346986 
L 257.811476 69.774595 
L 259.333626 68.601062 
L 260.855777 67.725323 
L 262.377928 67.065439 
L 265.422238 66.160598 
L 268.466546 65.561866 
L 282.165906 63.278766 
L 285.210225 62.431726 
L 288.254532 61.272519 
L 289.776683 60.529617 
L 291.298828 59.645134 
L 292.82099 58.589295 
L 294.343135 57.329984 
L 295.865286 55.837293 
L 297.387448 54.091078 
L 298.909593 52.090905 
L 301.953901 47.470426 
L 306.520359 40.16499 
L 308.04251 37.972119 
L 309.56466 35.994175 
L 311.086817 34.250615 
L 312.608968 32.741177 
L 314.131113 31.45278 
L 315.653275 30.364499 
L 317.175432 29.452586 
L 318.697571 28.692808 
L 321.74189 27.541064 
L 324.786186 26.755781 
L 327.830493 26.222398 
L 332.396951 25.725059 
L 338.485554 25.380182 
L 347.618471 25.163701 
L 365.884303 25.038619 
L 384.150136 24.998269 
L 384.150136 24.998269 
" clip-path="url(#p0201a14155)" style="fill: none; stroke-dasharray: 5.55,2.4; stroke-dashoffset: 0; stroke: #ff0000; stroke-width: 1.5"/>
   </g>
   <g id="line2d_17">
    <path d="M 81.241776 214.756364 
L 105.596223 214.656697 
L 119.295586 214.403875 
L 128.428502 214.018785 
L 134.517105 213.538774 
L 139.083581 212.935874 
L 142.127882 212.323436 
L 145.172184 211.421875 
L 146.694341 210.80527 
L 148.216486 210.029187 
L 149.738642 209.037992 
L 151.260787 207.75275 
L 152.78295 206.060597 
L 154.3051 203.801399 
L 155.827251 200.753216 
L 157.349408 196.627173 
L 158.871553 191.098914 
L 160.393709 183.928822 
L 161.915866 175.211217 
L 164.960167 156.403997 
L 166.482318 148.610124 
L 168.004469 142.706835 
L 169.526626 138.54051 
L 171.048782 135.704502 
L 172.570933 133.794495 
L 174.093078 132.500282 
L 175.615229 131.609476 
L 177.137391 130.984012 
L 178.659542 130.53576 
L 181.703838 129.965425 
L 184.748154 129.644776 
L 189.314612 129.40182 
L 195.403224 129.301791 
L 204.536134 129.38226 
L 218.235512 129.750883 
L 225.846271 130.069743 
L 228.890578 129.395956 
L 233.457038 129.541897 
L 234.979181 129.681288 
L 236.501339 129.950615 
L 238.023497 130.506044 
L 239.54564 131.694234 
L 241.067798 134.050706 
L 244.1121 140.676989 
L 245.634258 142.948473 
L 248.678559 146.499773 
L 250.200716 149.084432 
L 253.245017 155.370159 
L 254.767167 158.037976 
L 256.289319 160.142728 
L 257.811476 161.739721 
L 259.333626 162.932913 
L 260.855777 163.823578 
L 262.377928 164.494695 
L 265.422238 165.41474 
L 268.466546 166.023327 
L 282.165906 168.342054 
L 285.210225 169.201459 
L 288.254532 170.376653 
L 289.776683 171.129152 
L 291.298828 172.024362 
L 292.82099 173.091962 
L 294.343135 174.363786 
L 295.865286 175.869121 
L 297.387448 177.627115 
L 298.909593 179.636875 
L 301.953901 184.264331 
L 306.520359 191.543289 
L 308.04251 193.720759 
L 309.56466 195.682358 
L 311.086817 197.409771 
L 312.608968 198.904051 
L 314.131113 200.178713 
L 315.653275 201.254872 
L 317.175432 202.156304 
L 318.697571 202.907131 
L 321.74189 204.044962 
L 324.786186 204.820539 
L 327.830493 205.347233 
L 332.396951 205.838261 
L 338.485554 206.178732 
L 347.618471 206.392394 
L 365.884303 206.515809 
L 384.150136 206.555604 
L 384.150136 206.555604 
" clip-path="url(#p0201a14155)" style="fill: none; stroke-dasharray: 5.55,2.4; stroke-dashoffset: 0; stroke: #ff0000; stroke-width: 1.5"/>
   </g>
   <g id="patch_3">
    <path d="M 66.023594 224.64 
L 66.023594 7.2 
" style="fill: none; stroke: #ffffff; stroke-width: 1.25; stroke-linejoin: miter; stroke-linecap: square"/>
   </g>
   <g id="patch_4">
    <path d="M 400.823594 224.64 
L 400.823594 7.2 
" style="fill: none; stroke: #ffffff; stroke-width: 1.25; stroke-linejoin: miter; stroke-linecap: square"/>
   </g>
   <g id="patch_5">
    <path d="M 66.023594 224.64 
L 400.823594 224.64 
" style="fill: none; stroke: #ffffff; stroke-width: 1.25; stroke-linejoin: miter; stroke-linecap: square"/>
   </g>
   <g id="patch_6">
    <path d="M 66.023594 7.2 
L 400.823594 7.2 
" style="fill: none; stroke: #ffffff; stroke-width: 1.25; stroke-linejoin: miter; stroke-linecap: square"/>
   </g>
   <g id="legend_1">
    <g id="patch_7">
     <path d="M 168.634453 219.14 
L 298.212734 219.14 
Q 300.412734 219.14 300.412734 216.94 
L 300.412734 169.602187 
Q 300.412734 167.402187 298.212734 167.402187 
L 168.634453 167.402187 
Q 166.434453 167.402187 166.434453 169.602187 
L 166.434453 216.94 
Q 166.434453 219.14 168.634453 219.14 
z
" style="fill: #eaeaf2; opacity: 0.8; stroke: #cccccc; stroke-linejoin: miter"/>
    </g>
    <g id="line2d_18">
     <path d="M 170.834453 176.310469 
L 181.834453 176.310469 
L 192.834453 176.310469 
" style="fill: none; stroke: #ff0000; stroke-width: 1.5; stroke-linecap: round"/>
    </g>
    <g id="text_17">
     <!-- Predicted Mean -->
     <g style="fill: #262626" transform="translate(201.634453 180.160469)scale(0.11 -0.11)">
      <defs>
       <path id="DejaVuSans-64" d="M 2906 2969 
L 2906 4863 
L 3481 4863 
L 3481 0 
L 2906 0 
L 2906 525 
Q 2725 213 2448 61 
Q 2172 -91 1784 -91 
Q 1150 -91 751 415 
Q 353 922 353 1747 
Q 353 2572 751 3078 
Q 1150 3584 1784 3584 
Q 2172 3584 2448 3432 
Q 2725 3281 2906 2969 
z
M 947 1747 
Q 947 1113 1208 752 
Q 1469 391 1925 391 
Q 2381 391 2643 752 
Q 2906 1113 2906 1747 
Q 2906 2381 2643 2742 
Q 2381 3103 1925 3103 
Q 1469 3103 1208 2742 
Q 947 2381 947 1747 
z
" transform="scale(0.015625)"/>
       <path id="DejaVuSans-63" d="M 3122 3366 
L 3122 2828 
Q 2878 2963 2633 3030 
Q 2388 3097 2138 3097 
Q 1578 3097 1268 2742 
Q 959 2388 959 1747 
Q 959 1106 1268 751 
Q 1578 397 2138 397 
Q 2388 397 2633 464 
Q 2878 531 3122 666 
L 3122 134 
Q 2881 22 2623 -34 
Q 2366 -91 2075 -91 
Q 1284 -91 818 406 
Q 353 903 353 1747 
Q 353 2603 823 3093 
Q 1294 3584 2113 3584 
Q 2378 3584 2631 3529 
Q 2884 3475 3122 3366 
z
" transform="scale(0.015625)"/>
       <path id="DejaVuSans-4d" d="M 628 4666 
L 1569 4666 
L 2759 1491 
L 3956 4666 
L 4897 4666 
L 4897 0 
L 4281 0 
L 4281 4097 
L 3078 897 
L 2444 897 
L 1241 4097 
L 1241 0 
L 628 0 
L 628 4666 
z
" transform="scale(0.015625)"/>
      </defs>
      <use xlink:href="#DejaVuSans-50"/>
      <use xlink:href="#DejaVuSans-72" x="58.552734"/>
      <use xlink:href="#DejaVuSans-65" x="97.416016"/>
      <use xlink:href="#DejaVuSans-64" x="158.939453"/>
      <use xlink:href="#DejaVuSans-69" x="222.416016"/>
      <use xlink:href="#DejaVuSans-63" x="250.199219"/>
      <use xlink:href="#DejaVuSans-74" x="305.179688"/>
      <use xlink:href="#DejaVuSans-65" x="344.388672"/>
      <use xlink:href="#DejaVuSans-64" x="405.912109"/>
      <use xlink:href="#DejaVuSans-20" x="469.388672"/>
      <use xlink:href="#DejaVuSans-4d" x="501.175781"/>
      <use xlink:href="#DejaVuSans-65" x="587.455078"/>
      <use xlink:href="#DejaVuSans-61" x="648.978516"/>
      <use xlink:href="#DejaVuSans-6e" x="710.257812"/>
     </g>
    </g>
    <g id="PathCollection_3">
     <g>
      <use xlink:href="#m0199e5bd78" x="181.834453" y="193.418906" style="fill: #4c72b0; stroke: #ffffff; stroke-width: 0.48"/>
     </g>
    </g>
    <g id="text_18">
     <!-- Observations -->
     <g style="fill: #262626" transform="translate(201.634453 196.306406)scale(0.11 -0.11)">
      <use xlink:href="#DejaVuSans-4f"/>
      <use xlink:href="#DejaVuSans-62" x="78.710938"/>
      <use xlink:href="#DejaVuSans-73" x="142.1875"/>
      <use xlink:href="#DejaVuSans-65" x="194.287109"/>
      <use xlink:href="#DejaVuSans-72" x="255.810547"/>
      <use xlink:href="#DejaVuSans-76" x="296.923828"/>
      <use xlink:href="#DejaVuSans-61" x="356.103516"/>
      <use xlink:href="#DejaVuSans-74" x="417.382812"/>
      <use xlink:href="#DejaVuSans-69" x="456.591797"/>
      <use xlink:href="#DejaVuSans-6f" x="484.375"/>
      <use xlink:href="#DejaVuSans-6e" x="545.556641"/>
      <use xlink:href="#DejaVuSans-73" x="608.935547"/>
     </g>
    </g>
    <g id="PathCollection_4">
     <g>
      <use xlink:href="#mf9b9956dd5" x="181.834453" y="209.564844" style="fill: #55a868; stroke: #ffffff; stroke-width: 0.48"/>
     </g>
    </g>
    <g id="text_19">
     <!-- True Relationship -->
     <g style="fill: #262626" transform="translate(201.634453 212.452344)scale(0.11 -0.11)">
      <defs>
       <path id="DejaVuSans-54" d="M -19 4666 
L 3928 4666 
L 3928 4134 
L 2272 4134 
L 2272 0 
L 1638 0 
L 1638 4134 
L -19 4134 
L -19 4666 
z
" transform="scale(0.015625)"/>
       <path id="DejaVuSans-75" d="M 544 1381 
L 544 3500 
L 1119 3500 
L 1119 1403 
Q 1119 906 1312 657 
Q 1506 409 1894 409 
Q 2359 409 2629 706 
Q 2900 1003 2900 1516 
L 2900 3500 
L 3475 3500 
L 3475 0 
L 2900 0 
L 2900 538 
Q 2691 219 2414 64 
Q 2138 -91 1772 -91 
Q 1169 -91 856 284 
Q 544 659 544 1381 
z
M 1991 3584 
L 1991 3584 
z
" transform="scale(0.015625)"/>
       <path id="DejaVuSans-52" d="M 2841 2188 
Q 3044 2119 3236 1894 
Q 3428 1669 3622 1275 
L 4263 0 
L 3584 0 
L 2988 1197 
Q 2756 1666 2539 1819 
Q 2322 1972 1947 1972 
L 1259 1972 
L 1259 0 
L 628 0 
L 628 4666 
L 2053 4666 
Q 2853 4666 3247 4331 
Q 3641 3997 3641 3322 
Q 3641 2881 3436 2590 
Q 3231 2300 2841 2188 
z
M 1259 4147 
L 1259 2491 
L 2053 2491 
Q 2509 2491 2742 2702 
Q 2975 2913 2975 3322 
Q 2975 3731 2742 3939 
Q 2509 4147 2053 4147 
L 1259 4147 
z
" transform="scale(0.015625)"/>
       <path id="DejaVuSans-6c" d="M 603 4863 
L 1178 4863 
L 1178 0 
L 603 0 
L 603 4863 
z
" transform="scale(0.015625)"/>
       <path id="DejaVuSans-68" d="M 3513 2113 
L 3513 0 
L 2938 0 
L 2938 2094 
Q 2938 2591 2744 2837 
Q 2550 3084 2163 3084 
Q 1697 3084 1428 2787 
Q 1159 2491 1159 1978 
L 1159 0 
L 581 0 
L 581 4863 
L 1159 4863 
L 1159 2956 
Q 1366 3272 1645 3428 
Q 1925 3584 2291 3584 
Q 2894 3584 3203 3211 
Q 3513 2838 3513 2113 
z
" transform="scale(0.015625)"/>
       <path id="DejaVuSans-70" d="M 1159 525 
L 1159 -1331 
L 581 -1331 
L 581 3500 
L 1159 3500 
L 1159 2969 
Q 1341 3281 1617 3432 
Q 1894 3584 2278 3584 
Q 2916 3584 3314 3078 
Q 3713 2572 3713 1747 
Q 3713 922 3314 415 
Q 2916 -91 2278 -91 
Q 1894 -91 1617 61 
Q 1341 213 1159 525 
z
M 3116 1747 
Q 3116 2381 2855 2742 
Q 2594 3103 2138 3103 
Q 1681 3103 1420 2742 
Q 1159 2381 1159 1747 
Q 1159 1113 1420 752 
Q 1681 391 2138 391 
Q 2594 391 2855 752 
Q 3116 1113 3116 1747 
z
" transform="scale(0.015625)"/>
      </defs>
      <use xlink:href="#DejaVuSans-54"/>
      <use xlink:href="#DejaVuSans-72" x="46.333984"/>
      <use xlink:href="#DejaVuSans-75" x="87.447266"/>
      <use xlink:href="#DejaVuSans-65" x="150.826172"/>
      <use xlink:href="#DejaVuSans-20" x="212.349609"/>
      <use xlink:href="#DejaVuSans-52" x="244.136719"/>
      <use xlink:href="#DejaVuSans-65" x="309.119141"/>
      <use xlink:href="#DejaVuSans-6c" x="370.642578"/>
      <use xlink:href="#DejaVuSans-61" x="398.425781"/>
      <use xlink:href="#DejaVuSans-74" x="459.705078"/>
      <use xlink:href="#DejaVuSans-69" x="498.914062"/>
      <use xlink:href="#DejaVuSans-6f" x="526.697266"/>
      <use xlink:href="#DejaVuSans-6e" x="587.878906"/>
      <use xlink:href="#DejaVuSans-73" x="651.257812"/>
      <use xlink:href="#DejaVuSans-68" x="703.357422"/>
      <use xlink:href="#DejaVuSans-69" x="766.736328"/>
      <use xlink:href="#DejaVuSans-70" x="794.519531"/>
     </g>
    </g>
   </g>
  </g>
 </g>
 <defs>
  <clipPath id="p0201a14155">
   <rect x="66.023594" y="7.2" width="334.8" height="217.44"/>
  </clipPath>
 </defs>
</svg>
