<?xml version="1.0" encoding="utf-8" standalone="no"?>
<!DOCTYPE svg PUBLIC "-//W3C//DTD SVG 1.1//EN"
  "http://www.w3.org/Graphics/SVG/1.1/DTD/svg11.dtd">
<svg xmlns:xlink="http://www.w3.org/1999/xlink" width="408.023594pt" height="267.625937pt" viewBox="0 0 408.023594 267.625937" xmlns="http://www.w3.org/2000/svg" version="1.1">
 <metadata>
  <rdf:RDF xmlns:dc="http://purl.org/dc/elements/1.1/" xmlns:cc="http://creativecommons.org/ns#" xmlns:rdf="http://www.w3.org/1999/02/22-rdf-syntax-ns#">
   <cc:Work>
    <dc:type rdf:resource="http://purl.org/dc/dcmitype/StillImage"/>
    <dc:date>2022-06-22T22:30:51.655440</dc:date>
    <dc:format>image/svg+xml</dc:format>
    <dc:creator>
     <cc:Agent>
      <dc:title>Matplotlib v3.5.2, https://matplotlib.org/</dc:title>
     </cc:Agent>
    </dc:creator>
   </cc:Work>
  </rdf:RDF>
 </metadata>
 <defs>
  <style type="text/css">*{stroke-linejoin: round; stroke-linecap: butt}</style>
 </defs>
 <g id="figure_1">
  <g id="patch_1">
   <path d="M 0 267.625937 
L 408.023594 267.625937 
L 408.023594 0 
L 0 0 
L 0 267.625937 
z
" style="fill: none"/>
  </g>
  <g id="axes_1">
   <g id="patch_2">
    <path d="M 66.023594 224.64 
L 400.823594 224.64 
L 400.823594 7.2 
L 66.023594 7.2 
z
" style="fill: #eaeaf2"/>
   </g>
   <g id="matplotlib.axis_1">
    <g id="xtick_1">
     <g id="line2d_1">
      <path d="M 111.678139 224.64 
L 111.678139 7.2 
" clip-path="url(#p6020b5eaf5)" style="fill: none; stroke: #ffffff; stroke-linecap: round"/>
     </g>
     <g id="text_1">
      <!-- −40 -->
      <g style="fill: #262626" transform="translate(100.070561 242.498281)scale(0.11 -0.11)">
       <defs>
        <path id="DejaVuSans-2212" d="M 678 2272 
L 4684 2272 
L 4684 1741 
L 678 1741 
L 678 2272 
z
" transform="scale(0.015625)"/>
        <path id="DejaVuSans-34" d="M 2419 4116 
L 825 1625 
L 2419 1625 
L 2419 4116 
z
M 2253 4666 
L 3047 4666 
L 3047 1625 
L 3713 1625 
L 3713 1100 
L 3047 1100 
L 3047 0 
L 2419 0 
L 2419 1100 
L 313 1100 
L 313 1709 
L 2253 4666 
z
" transform="scale(0.015625)"/>
        <path id="DejaVuSans-30" d="M 2034 4250 
Q 1547 4250 1301 3770 
Q 1056 3291 1056 2328 
Q 1056 1369 1301 889 
Q 1547 409 2034 409 
Q 2525 409 2770 889 
Q 3016 1369 3016 2328 
Q 3016 3291 2770 3770 
Q 2525 4250 2034 4250 
z
M 2034 4750 
Q 2819 4750 3233 4129 
Q 3647 3509 3647 2328 
Q 3647 1150 3233 529 
Q 2819 -91 2034 -91 
Q 1250 -91 836 529 
Q 422 1150 422 2328 
Q 422 3509 836 4129 
Q 1250 4750 2034 4750 
z
" transform="scale(0.015625)"/>
       </defs>
       <use xlink:href="#DejaVuSans-2212"/>
       <use xlink:href="#DejaVuSans-34" x="83.789062"/>
       <use xlink:href="#DejaVuSans-30" x="147.412109"/>
      </g>
     </g>
    </g>
    <g id="xtick_2">
     <g id="line2d_2">
      <path d="M 172.550866 224.64 
L 172.550866 7.2 
" clip-path="url(#p6020b5eaf5)" style="fill: none; stroke: #ffffff; stroke-linecap: round"/>
     </g>
     <g id="text_2">
      <!-- −20 -->
      <g style="fill: #262626" transform="translate(160.943288 242.498281)scale(0.11 -0.11)">
       <defs>
        <path id="DejaVuSans-32" d="M 1228 531 
L 3431 531 
L 3431 0 
L 469 0 
L 469 531 
Q 828 903 1448 1529 
Q 2069 2156 2228 2338 
Q 2531 2678 2651 2914 
Q 2772 3150 2772 3378 
Q 2772 3750 2511 3984 
Q 2250 4219 1831 4219 
Q 1534 4219 1204 4116 
Q 875 4013 500 3803 
L 500 4441 
Q 881 4594 1212 4672 
Q 1544 4750 1819 4750 
Q 2544 4750 2975 4387 
Q 3406 4025 3406 3419 
Q 3406 3131 3298 2873 
Q 3191 2616 2906 2266 
Q 2828 2175 2409 1742 
Q 1991 1309 1228 531 
z
" transform="scale(0.015625)"/>
       </defs>
       <use xlink:href="#DejaVuSans-2212"/>
       <use xlink:href="#DejaVuSans-32" x="83.789062"/>
       <use xlink:href="#DejaVuSans-30" x="147.412109"/>
      </g>
     </g>
    </g>
    <g id="xtick_3">
     <g id="line2d_3">
      <path d="M 233.423594 224.64 
L 233.423594 7.2 
" clip-path="url(#p6020b5eaf5)" style="fill: none; stroke: #ffffff; stroke-linecap: round"/>
     </g>
     <g id="text_3">
      <!-- 0 -->
      <g style="fill: #262626" transform="translate(229.924219 242.498281)scale(0.11 -0.11)">
       <use xlink:href="#DejaVuSans-30"/>
      </g>
     </g>
    </g>
    <g id="xtick_4">
     <g id="line2d_4">
      <path d="M 294.296321 224.64 
L 294.296321 7.2 
" clip-path="url(#p6020b5eaf5)" style="fill: none; stroke: #ffffff; stroke-linecap: round"/>
     </g>
     <g id="text_4">
      <!-- 20 -->
      <g style="fill: #262626" transform="translate(287.297571 242.498281)scale(0.11 -0.11)">
       <use xlink:href="#DejaVuSans-32"/>
       <use xlink:href="#DejaVuSans-30" x="63.623047"/>
      </g>
     </g>
    </g>
    <g id="xtick_5">
     <g id="line2d_5">
      <path d="M 355.169048 224.64 
L 355.169048 7.2 
" clip-path="url(#p6020b5eaf5)" style="fill: none; stroke: #ffffff; stroke-linecap: round"/>
     </g>
     <g id="text_5">
      <!-- 40 -->
      <g style="fill: #262626" transform="translate(348.170298 242.498281)scale(0.11 -0.11)">
       <use xlink:href="#DejaVuSans-34"/>
       <use xlink:href="#DejaVuSans-30" x="63.623047"/>
      </g>
     </g>
    </g>
    <g id="text_6">
     <!-- Observation $y$ -->
     <g style="fill: #262626" transform="translate(191.423594 257.905937)scale(0.12 -0.12)">
      <defs>
       <path id="DejaVuSans-4f" d="M 2522 4238 
Q 1834 4238 1429 3725 
Q 1025 3213 1025 2328 
Q 1025 1447 1429 934 
Q 1834 422 2522 422 
Q 3209 422 3611 934 
Q 4013 1447 4013 2328 
Q 4013 3213 3611 3725 
Q 3209 4238 2522 4238 
z
M 2522 4750 
Q 3503 4750 4090 4092 
Q 4678 3434 4678 2328 
Q 4678 1225 4090 567 
Q 3503 -91 2522 -91 
Q 1538 -91 948 565 
Q 359 1222 359 2328 
Q 359 3434 948 4092 
Q 1538 4750 2522 4750 
z
" transform="scale(0.015625)"/>
       <path id="DejaVuSans-62" d="M 3116 1747 
Q 3116 2381 2855 2742 
Q 2594 3103 2138 3103 
Q 1681 3103 1420 2742 
Q 1159 2381 1159 1747 
Q 1159 1113 1420 752 
Q 1681 391 2138 391 
Q 2594 391 2855 752 
Q 3116 1113 3116 1747 
z
M 1159 2969 
Q 1341 3281 1617 3432 
Q 1894 3584 2278 3584 
Q 2916 3584 3314 3078 
Q 3713 2572 3713 1747 
Q 3713 922 3314 415 
Q 2916 -91 2278 -91 
Q 1894 -91 1617 61 
Q 1341 213 1159 525 
L 1159 0 
L 581 0 
L 581 4863 
L 1159 4863 
L 1159 2969 
z
" transform="scale(0.015625)"/>
       <path id="DejaVuSans-73" d="M 2834 3397 
L 2834 2853 
Q 2591 2978 2328 3040 
Q 2066 3103 1784 3103 
Q 1356 3103 1142 2972 
Q 928 2841 928 2578 
Q 928 2378 1081 2264 
Q 1234 2150 1697 2047 
L 1894 2003 
Q 2506 1872 2764 1633 
Q 3022 1394 3022 966 
Q 3022 478 2636 193 
Q 2250 -91 1575 -91 
Q 1294 -91 989 -36 
Q 684 19 347 128 
L 347 722 
Q 666 556 975 473 
Q 1284 391 1588 391 
Q 1994 391 2212 530 
Q 2431 669 2431 922 
Q 2431 1156 2273 1281 
Q 2116 1406 1581 1522 
L 1381 1569 
Q 847 1681 609 1914 
Q 372 2147 372 2553 
Q 372 3047 722 3315 
Q 1072 3584 1716 3584 
Q 2034 3584 2315 3537 
Q 2597 3491 2834 3397 
z
" transform="scale(0.015625)"/>
       <path id="DejaVuSans-65" d="M 3597 1894 
L 3597 1613 
L 953 1613 
Q 991 1019 1311 708 
Q 1631 397 2203 397 
Q 2534 397 2845 478 
Q 3156 559 3463 722 
L 3463 178 
Q 3153 47 2828 -22 
Q 2503 -91 2169 -91 
Q 1331 -91 842 396 
Q 353 884 353 1716 
Q 353 2575 817 3079 
Q 1281 3584 2069 3584 
Q 2775 3584 3186 3129 
Q 3597 2675 3597 1894 
z
M 3022 2063 
Q 3016 2534 2758 2815 
Q 2500 3097 2075 3097 
Q 1594 3097 1305 2825 
Q 1016 2553 972 2059 
L 3022 2063 
z
" transform="scale(0.015625)"/>
       <path id="DejaVuSans-72" d="M 2631 2963 
Q 2534 3019 2420 3045 
Q 2306 3072 2169 3072 
Q 1681 3072 1420 2755 
Q 1159 2438 1159 1844 
L 1159 0 
L 581 0 
L 581 3500 
L 1159 3500 
L 1159 2956 
Q 1341 3275 1631 3429 
Q 1922 3584 2338 3584 
Q 2397 3584 2469 3576 
Q 2541 3569 2628 3553 
L 2631 2963 
z
" transform="scale(0.015625)"/>
       <path id="DejaVuSans-76" d="M 191 3500 
L 800 3500 
L 1894 563 
L 2988 3500 
L 3597 3500 
L 2284 0 
L 1503 0 
L 191 3500 
z
" transform="scale(0.015625)"/>
       <path id="DejaVuSans-61" d="M 2194 1759 
Q 1497 1759 1228 1600 
Q 959 1441 959 1056 
Q 959 750 1161 570 
Q 1363 391 1709 391 
Q 2188 391 2477 730 
Q 2766 1069 2766 1631 
L 2766 1759 
L 2194 1759 
z
M 3341 1997 
L 3341 0 
L 2766 0 
L 2766 531 
Q 2569 213 2275 61 
Q 1981 -91 1556 -91 
Q 1019 -91 701 211 
Q 384 513 384 1019 
Q 384 1609 779 1909 
Q 1175 2209 1959 2209 
L 2766 2209 
L 2766 2266 
Q 2766 2663 2505 2880 
Q 2244 3097 1772 3097 
Q 1472 3097 1187 3025 
Q 903 2953 641 2809 
L 641 3341 
Q 956 3463 1253 3523 
Q 1550 3584 1831 3584 
Q 2591 3584 2966 3190 
Q 3341 2797 3341 1997 
z
" transform="scale(0.015625)"/>
       <path id="DejaVuSans-74" d="M 1172 4494 
L 1172 3500 
L 2356 3500 
L 2356 3053 
L 1172 3053 
L 1172 1153 
Q 1172 725 1289 603 
Q 1406 481 1766 481 
L 2356 481 
L 2356 0 
L 1766 0 
Q 1100 0 847 248 
Q 594 497 594 1153 
L 594 3053 
L 172 3053 
L 172 3500 
L 594 3500 
L 594 4494 
L 1172 4494 
z
" transform="scale(0.015625)"/>
       <path id="DejaVuSans-69" d="M 603 3500 
L 1178 3500 
L 1178 0 
L 603 0 
L 603 3500 
z
M 603 4863 
L 1178 4863 
L 1178 4134 
L 603 4134 
L 603 4863 
z
" transform="scale(0.015625)"/>
       <path id="DejaVuSans-6f" d="M 1959 3097 
Q 1497 3097 1228 2736 
Q 959 2375 959 1747 
Q 959 1119 1226 758 
Q 1494 397 1959 397 
Q 2419 397 2687 759 
Q 2956 1122 2956 1747 
Q 2956 2369 2687 2733 
Q 2419 3097 1959 3097 
z
M 1959 3584 
Q 2709 3584 3137 3096 
Q 3566 2609 3566 1747 
Q 3566 888 3137 398 
Q 2709 -91 1959 -91 
Q 1206 -91 779 398 
Q 353 888 353 1747 
Q 353 2609 779 3096 
Q 1206 3584 1959 3584 
z
" transform="scale(0.015625)"/>
       <path id="DejaVuSans-6e" d="M 3513 2113 
L 3513 0 
L 2938 0 
L 2938 2094 
Q 2938 2591 2744 2837 
Q 2550 3084 2163 3084 
Q 1697 3084 1428 2787 
Q 1159 2491 1159 1978 
L 1159 0 
L 581 0 
L 581 3500 
L 1159 3500 
L 1159 2956 
Q 1366 3272 1645 3428 
Q 1925 3584 2291 3584 
Q 2894 3584 3203 3211 
Q 3513 2838 3513 2113 
z
" transform="scale(0.015625)"/>
       <path id="DejaVuSans-20" transform="scale(0.015625)"/>
       <path id="DejaVuSans-Oblique-79" d="M 1588 -325 
Q 1188 -997 936 -1164 
Q 684 -1331 294 -1331 
L -159 -1331 
L -63 -850 
L 269 -850 
Q 509 -850 678 -719 
Q 847 -588 1056 -206 
L 1234 128 
L 459 3500 
L 1069 3500 
L 1650 819 
L 3256 3500 
L 3859 3500 
L 1588 -325 
z
" transform="scale(0.015625)"/>
      </defs>
      <use xlink:href="#DejaVuSans-4f" transform="translate(0 0.015625)"/>
      <use xlink:href="#DejaVuSans-62" transform="translate(78.710938 0.015625)"/>
      <use xlink:href="#DejaVuSans-73" transform="translate(142.1875 0.015625)"/>
      <use xlink:href="#DejaVuSans-65" transform="translate(194.287109 0.015625)"/>
      <use xlink:href="#DejaVuSans-72" transform="translate(255.810547 0.015625)"/>
      <use xlink:href="#DejaVuSans-76" transform="translate(296.923828 0.015625)"/>
      <use xlink:href="#DejaVuSans-61" transform="translate(356.103516 0.015625)"/>
      <use xlink:href="#DejaVuSans-74" transform="translate(417.382812 0.015625)"/>
      <use xlink:href="#DejaVuSans-69" transform="translate(456.591797 0.015625)"/>
      <use xlink:href="#DejaVuSans-6f" transform="translate(484.375 0.015625)"/>
      <use xlink:href="#DejaVuSans-6e" transform="translate(545.556641 0.015625)"/>
      <use xlink:href="#DejaVuSans-20" transform="translate(608.935547 0.015625)"/>
      <use xlink:href="#DejaVuSans-Oblique-79" transform="translate(640.722656 0.015625)"/>
     </g>
    </g>
   </g>
   <g id="matplotlib.axis_2">
    <g id="ytick_1">
     <g id="line2d_6">
      <path d="M 66.023594 221.517715 
L 400.823594 221.517715 
" clip-path="url(#p6020b5eaf5)" style="fill: none; stroke: #ffffff; stroke-linecap: round"/>
     </g>
     <g id="text_7">
      <!-- −10.0 -->
      <g style="fill: #262626" transform="translate(22.81375 225.696856)scale(0.11 -0.11)">
       <defs>
        <path id="DejaVuSans-31" d="M 794 531 
L 1825 531 
L 1825 4091 
L 703 3866 
L 703 4441 
L 1819 4666 
L 2450 4666 
L 2450 531 
L 3481 531 
L 3481 0 
L 794 0 
L 794 531 
z
" transform="scale(0.015625)"/>
        <path id="DejaVuSans-2e" d="M 684 794 
L 1344 794 
L 1344 0 
L 684 0 
L 684 794 
z
" transform="scale(0.015625)"/>
       </defs>
       <use xlink:href="#DejaVuSans-2212"/>
       <use xlink:href="#DejaVuSans-31" x="83.789062"/>
       <use xlink:href="#DejaVuSans-30" x="147.412109"/>
       <use xlink:href="#DejaVuSans-2e" x="211.035156"/>
       <use xlink:href="#DejaVuSans-30" x="242.822266"/>
      </g>
     </g>
    </g>
    <g id="ytick_2">
     <g id="line2d_7">
      <path d="M 66.023594 195.45863 
L 400.823594 195.45863 
" clip-path="url(#p6020b5eaf5)" style="fill: none; stroke: #ffffff; stroke-linecap: round"/>
     </g>
     <g id="text_8">
      <!-- −7.5 -->
      <g style="fill: #262626" transform="translate(29.8125 199.637771)scale(0.11 -0.11)">
       <defs>
        <path id="DejaVuSans-37" d="M 525 4666 
L 3525 4666 
L 3525 4397 
L 1831 0 
L 1172 0 
L 2766 4134 
L 525 4134 
L 525 4666 
z
" transform="scale(0.015625)"/>
        <path id="DejaVuSans-35" d="M 691 4666 
L 3169 4666 
L 3169 4134 
L 1269 4134 
L 1269 2991 
Q 1406 3038 1543 3061 
Q 1681 3084 1819 3084 
Q 2600 3084 3056 2656 
Q 3513 2228 3513 1497 
Q 3513 744 3044 326 
Q 2575 -91 1722 -91 
Q 1428 -91 1123 -41 
Q 819 9 494 109 
L 494 744 
Q 775 591 1075 516 
Q 1375 441 1709 441 
Q 2250 441 2565 725 
Q 2881 1009 2881 1497 
Q 2881 1984 2565 2268 
Q 2250 2553 1709 2553 
Q 1456 2553 1204 2497 
Q 953 2441 691 2322 
L 691 4666 
z
" transform="scale(0.015625)"/>
       </defs>
       <use xlink:href="#DejaVuSans-2212"/>
       <use xlink:href="#DejaVuSans-37" x="83.789062"/>
       <use xlink:href="#DejaVuSans-2e" x="147.412109"/>
       <use xlink:href="#DejaVuSans-35" x="179.199219"/>
      </g>
     </g>
    </g>
    <g id="ytick_3">
     <g id="line2d_8">
      <path d="M 66.023594 169.399546 
L 400.823594 169.399546 
" clip-path="url(#p6020b5eaf5)" style="fill: none; stroke: #ffffff; stroke-linecap: round"/>
     </g>
     <g id="text_9">
      <!-- −5.0 -->
      <g style="fill: #262626" transform="translate(29.8125 173.578686)scale(0.11 -0.11)">
       <use xlink:href="#DejaVuSans-2212"/>
       <use xlink:href="#DejaVuSans-35" x="83.789062"/>
       <use xlink:href="#DejaVuSans-2e" x="147.412109"/>
       <use xlink:href="#DejaVuSans-30" x="179.199219"/>
      </g>
     </g>
    </g>
    <g id="ytick_4">
     <g id="line2d_9">
      <path d="M 66.023594 143.340461 
L 400.823594 143.340461 
" clip-path="url(#p6020b5eaf5)" style="fill: none; stroke: #ffffff; stroke-linecap: round"/>
     </g>
     <g id="text_10">
      <!-- −2.5 -->
      <g style="fill: #262626" transform="translate(29.8125 147.519601)scale(0.11 -0.11)">
       <use xlink:href="#DejaVuSans-2212"/>
       <use xlink:href="#DejaVuSans-32" x="83.789062"/>
       <use xlink:href="#DejaVuSans-2e" x="147.412109"/>
       <use xlink:href="#DejaVuSans-35" x="179.199219"/>
      </g>
     </g>
    </g>
    <g id="ytick_5">
     <g id="line2d_10">
      <path d="M 66.023594 117.281376 
L 400.823594 117.281376 
" clip-path="url(#p6020b5eaf5)" style="fill: none; stroke: #ffffff; stroke-linecap: round"/>
     </g>
     <g id="text_11">
      <!-- 0.0 -->
      <g style="fill: #262626" transform="translate(39.030156 121.460517)scale(0.11 -0.11)">
       <use xlink:href="#DejaVuSans-30"/>
       <use xlink:href="#DejaVuSans-2e" x="63.623047"/>
       <use xlink:href="#DejaVuSans-30" x="95.410156"/>
      </g>
     </g>
    </g>
    <g id="ytick_6">
     <g id="line2d_11">
      <path d="M 66.023594 91.222291 
L 400.823594 91.222291 
" clip-path="url(#p6020b5eaf5)" style="fill: none; stroke: #ffffff; stroke-linecap: round"/>
     </g>
     <g id="text_12">
      <!-- 2.5 -->
      <g style="fill: #262626" transform="translate(39.030156 95.401432)scale(0.11 -0.11)">
       <use xlink:href="#DejaVuSans-32"/>
       <use xlink:href="#DejaVuSans-2e" x="63.623047"/>
       <use xlink:href="#DejaVuSans-35" x="95.410156"/>
      </g>
     </g>
    </g>
    <g id="ytick_7">
     <g id="line2d_12">
      <path d="M 66.023594 65.163206 
L 400.823594 65.163206 
" clip-path="url(#p6020b5eaf5)" style="fill: none; stroke: #ffffff; stroke-linecap: round"/>
     </g>
     <g id="text_13">
      <!-- 5.0 -->
      <g style="fill: #262626" transform="translate(39.030156 69.342347)scale(0.11 -0.11)">
       <use xlink:href="#DejaVuSans-35"/>
       <use xlink:href="#DejaVuSans-2e" x="63.623047"/>
       <use xlink:href="#DejaVuSans-30" x="95.410156"/>
      </g>
     </g>
    </g>
    <g id="ytick_8">
     <g id="line2d_13">
      <path d="M 66.023594 39.104122 
L 400.823594 39.104122 
" clip-path="url(#p6020b5eaf5)" style="fill: none; stroke: #ffffff; stroke-linecap: round"/>
     </g>
     <g id="text_14">
      <!-- 7.5 -->
      <g style="fill: #262626" transform="translate(39.030156 43.283262)scale(0.11 -0.11)">
       <use xlink:href="#DejaVuSans-37"/>
       <use xlink:href="#DejaVuSans-2e" x="63.623047"/>
       <use xlink:href="#DejaVuSans-35" x="95.410156"/>
      </g>
     </g>
    </g>
    <g id="ytick_9">
     <g id="line2d_14">
      <path d="M 66.023594 13.045037 
L 400.823594 13.045037 
" clip-path="url(#p6020b5eaf5)" style="fill: none; stroke: #ffffff; stroke-linecap: round"/>
     </g>
     <g id="text_15">
      <!-- 10.0 -->
      <g style="fill: #262626" transform="translate(32.031406 17.224178)scale(0.11 -0.11)">
       <use xlink:href="#DejaVuSans-31"/>
       <use xlink:href="#DejaVuSans-30" x="63.623047"/>
       <use xlink:href="#DejaVuSans-2e" x="127.246094"/>
       <use xlink:href="#DejaVuSans-30" x="159.033203"/>
      </g>
     </g>
    </g>
    <g id="text_16">
     <!-- Parameter $\theta$ -->
     <g style="fill: #262626" transform="translate(16.318125 153)rotate(-90)scale(0.12 -0.12)">
      <defs>
       <path id="DejaVuSans-50" d="M 1259 4147 
L 1259 2394 
L 2053 2394 
Q 2494 2394 2734 2622 
Q 2975 2850 2975 3272 
Q 2975 3691 2734 3919 
Q 2494 4147 2053 4147 
L 1259 4147 
z
M 628 4666 
L 2053 4666 
Q 2838 4666 3239 4311 
Q 3641 3956 3641 3272 
Q 3641 2581 3239 2228 
Q 2838 1875 2053 1875 
L 1259 1875 
L 1259 0 
L 628 0 
L 628 4666 
z
" transform="scale(0.015625)"/>
       <path id="DejaVuSans-6d" d="M 3328 2828 
Q 3544 3216 3844 3400 
Q 4144 3584 4550 3584 
Q 5097 3584 5394 3201 
Q 5691 2819 5691 2113 
L 5691 0 
L 5113 0 
L 5113 2094 
Q 5113 2597 4934 2840 
Q 4756 3084 4391 3084 
Q 3944 3084 3684 2787 
Q 3425 2491 3425 1978 
L 3425 0 
L 2847 0 
L 2847 2094 
Q 2847 2600 2669 2842 
Q 2491 3084 2119 3084 
Q 1678 3084 1418 2786 
Q 1159 2488 1159 1978 
L 1159 0 
L 581 0 
L 581 3500 
L 1159 3500 
L 1159 2956 
Q 1356 3278 1631 3431 
Q 1906 3584 2284 3584 
Q 2666 3584 2933 3390 
Q 3200 3197 3328 2828 
z
" transform="scale(0.015625)"/>
       <path id="DejaVuSans-Oblique-3b8" d="M 2913 2219 
L 925 2219 
Q 791 1284 928 888 
Q 1100 400 1566 400 
Q 2034 400 2391 891 
Q 2703 1322 2913 2219 
z
M 3009 2750 
Q 3094 3638 2984 3950 
Q 2813 4444 2353 4444 
Q 1875 4444 1525 3956 
Q 1250 3563 1034 2750 
L 3009 2750 
z
M 2444 4913 
Q 3194 4913 3494 4250 
Q 3794 3591 3566 2422 
Q 3341 1256 2781 594 
Q 2225 -72 1475 -72 
Q 722 -72 425 594 
Q 128 1256 353 2422 
Q 581 3591 1134 4250 
Q 1691 4913 2444 4913 
z
" transform="scale(0.015625)"/>
      </defs>
      <use xlink:href="#DejaVuSans-50" transform="translate(0 0.234375)"/>
      <use xlink:href="#DejaVuSans-61" transform="translate(60.302734 0.234375)"/>
      <use xlink:href="#DejaVuSans-72" transform="translate(121.582031 0.234375)"/>
      <use xlink:href="#DejaVuSans-61" transform="translate(162.695312 0.234375)"/>
      <use xlink:href="#DejaVuSans-6d" transform="translate(223.974609 0.234375)"/>
      <use xlink:href="#DejaVuSans-65" transform="translate(321.386719 0.234375)"/>
      <use xlink:href="#DejaVuSans-74" transform="translate(382.910156 0.234375)"/>
      <use xlink:href="#DejaVuSans-65" transform="translate(422.119141 0.234375)"/>
      <use xlink:href="#DejaVuSans-72" transform="translate(483.642578 0.234375)"/>
      <use xlink:href="#DejaVuSans-20" transform="translate(524.755859 0.234375)"/>
      <use xlink:href="#DejaVuSans-Oblique-3b8" transform="translate(556.542969 0.234375)"/>
     </g>
    </g>
   </g>
   <g id="PolyCollection_1">
    <defs>
     <path id="m25cdebcc7f" d="M 81.241776 -250.542301 
L 81.241776 -52.869574 
L 82.771245 -52.876145 
L 84.300703 -52.883262 
L 85.830173 -52.891046 
L 87.35963 -52.899446 
L 88.8891 -52.908621 
L 90.41857 -52.918671 
L 91.948027 -52.929596 
L 93.477497 -52.941555 
L 95.006967 -52.954667 
L 96.536424 -52.969041 
L 98.065894 -52.984787 
L 99.595364 -53.002104 
L 101.124821 -53.021141 
L 102.654291 -53.042135 
L 104.183761 -53.065277 
L 105.71323 -53.090835 
L 107.2427 -53.119077 
L 108.772158 -53.15034 
L 110.301627 -53.184954 
L 111.831085 -53.223355 
L 113.360555 -53.265981 
L 114.890024 -53.313319 
L 116.419482 -53.365975 
L 117.948952 -53.424536 
L 119.478409 -53.489757 
L 121.007879 -53.562424 
L 122.537349 -53.643392 
L 124.066806 -53.733674 
L 125.596276 -53.834354 
L 127.125734 -53.946654 
L 128.655203 -54.071888 
L 130.184673 -54.211526 
L 131.714131 -54.367128 
L 133.2436 -54.540465 
L 134.773058 -54.733405 
L 136.302534 -54.948046 
L 137.832003 -55.186594 
L 139.361473 -55.451505 
L 140.890931 -55.745493 
L 142.4204 -56.071589 
L 143.949858 -56.433274 
L 145.479328 -56.834671 
L 147.008797 -57.280703 
L 148.538255 -57.777522 
L 150.067725 -58.332951 
L 151.597183 -58.956972 
L 153.126658 -59.662448 
L 154.656122 -60.465004 
L 156.185585 -61.382705 
L 157.715055 -62.43378 
L 159.244513 -63.632148 
L 160.773982 -64.981863 
L 162.303452 -66.471385 
L 163.832921 -68.072349 
L 165.362379 -69.745322 
L 166.891843 -71.452517 
L 168.421307 -73.171795 
L 169.950776 -74.904404 
L 171.480246 -76.671343 
L 173.00971 -78.500501 
L 174.539168 -80.410358 
L 176.068631 -82.398498 
L 177.598107 -84.438494 
L 179.12757 -86.485946 
L 180.657034 -88.489425 
L 182.186492 -90.401435 
L 183.715962 -92.185407 
L 185.245434 -93.818474 
L 186.774898 -95.290639 
L 188.304361 -96.602371 
L 189.833831 -97.761547 
L 191.363286 -98.780559 
L 192.892758 -99.674392 
L 194.422231 -100.458772 
L 195.951695 -101.149376 
L 197.481155 -101.761328 
L 199.010619 -102.309148 
L 200.540083 -102.806842 
L 202.069555 -103.268471 
L 203.599019 -103.708687 
L 205.128483 -104.144136 
L 206.657944 -104.594373 
L 208.18741 -105.084064 
L 209.71688 -105.645488 
L 211.246351 -106.321743 
L 212.775807 -107.170902 
L 214.305268 -108.270354 
L 215.834741 -109.719186 
L 217.364204 -111.633178 
L 218.893677 -114.120014 
L 220.423138 -117.216499 
L 221.952603 -120.787639 
L 223.482065 -124.465009 
L 225.011536 -127.769539 
L 226.541001 -130.390545 
L 228.070463 -132.319728 
L 229.599934 -133.720764 
L 231.12939 -134.74879 
L 232.658861 -135.483063 
L 234.188332 -136.603736 
L 235.717788 -138.451282 
L 237.247259 -138.259192 
L 238.77673 -138.097987 
L 240.306186 -137.959594 
L 241.835657 -137.83429 
L 243.36512 -137.724421 
L 244.894585 -137.630581 
L 246.424056 -137.551347 
L 247.953517 -137.484357 
L 249.482983 -137.427046 
L 251.012453 -137.37709 
L 252.541915 -137.332505 
L 254.07138 -137.291701 
L 255.600843 -137.253421 
L 257.130308 -137.216685 
L 258.659777 -137.180705 
L 260.189241 -137.144861 
L 261.718705 -137.108624 
L 263.248168 -137.071548 
L 264.777638 -137.033207 
L 266.307105 -136.993225 
L 267.836565 -136.951196 
L 269.366038 -136.906724 
L 270.895502 -136.859378 
L 272.424962 -136.808689 
L 273.954435 -136.754152 
L 275.48389 -136.6952 
L 277.013362 -136.63119 
L 278.542826 -136.561411 
L 280.072296 -136.485048 
L 281.601759 -136.401196 
L 283.131214 -136.308809 
L 284.660695 -136.206704 
L 286.190159 -136.093559 
L 287.719617 -135.96785 
L 289.249092 -135.827886 
L 290.778556 -135.671758 
L 292.308014 -135.49734 
L 293.837489 -135.302291 
L 295.366947 -135.084081 
L 296.896411 -134.840003 
L 298.425886 -134.567271 
L 299.955344 -134.263142 
L 301.484808 -133.925051 
L 303.014278 -133.550886 
L 304.543741 -133.139222 
L 306.073205 -132.68973 
L 307.602675 -132.203419 
L 309.132138 -131.682974 
L 310.661602 -131.132863 
L 312.191072 -130.559294 
L 313.720535 -129.969871 
L 315.249993 -129.373079 
L 316.779469 -128.777469 
L 318.308938 -128.190974 
L 319.83839 -127.620174 
L 321.367866 -127.069772 
L 322.897335 -126.542519 
L 324.426787 -126.039157 
L 325.956257 -125.558696 
L 327.485721 -125.09867 
L 329.01519 -124.655218 
L 330.544654 -124.222934 
L 332.074118 -123.794093 
L 333.603587 -123.357219 
L 335.133045 -122.89492 
L 336.662515 -122.381092 
L 338.191984 -121.77831 
L 339.721442 -121.036551 
L 341.250912 -120.095112 
L 342.780381 -118.889264 
L 344.309839 -117.361509 
L 345.83932 -115.475028 
L 347.368766 -113.224849 
L 348.898236 -110.641785 
L 350.427717 -107.788386 
L 351.957175 -104.748002 
L 353.486633 -101.611158 
L 355.016103 -98.463837 
L 356.545572 -95.379286 
L 358.07503 -92.414099 
L 359.604499 -89.607755 
L 361.133969 -86.984361 
L 362.663427 -84.555736 
L 364.192896 -82.323913 
L 365.722366 -80.284597 
L 367.251824 -78.429022 
L 368.781293 -76.745749 
L 370.310763 -75.222135 
L 371.840221 -73.845132 
L 373.36969 -72.601847 
L 374.899137 -71.479844 
L 376.428618 -70.467642 
L 377.958076 -69.554535 
L 379.487534 -68.730749 
L 381.017015 -67.98733 
L 382.546496 -67.316285 
L 384.075931 -66.710292 
L 385.605412 -66.162894 
L 385.605412 -237.470898 
L 385.605412 -237.470898 
L 384.075931 -236.91696 
L 382.546496 -236.303844 
L 381.017015 -235.625089 
L 379.487534 -234.87338 
L 377.958076 -234.040693 
L 376.428618 -233.118116 
L 374.899137 -232.095934 
L 373.36969 -230.963523 
L 371.840221 -229.709582 
L 370.310763 -228.321922 
L 368.781293 -226.78801 
L 367.251824 -225.095323 
L 365.722366 -223.231934 
L 364.192896 -221.18735 
L 362.663427 -218.954066 
L 361.133969 -216.529308 
L 359.604499 -213.916898 
L 358.07503 -211.130495 
L 356.545572 -208.195766 
L 355.016103 -205.152748 
L 353.486633 -202.056641 
L 351.957175 -198.976012 
L 350.427717 -195.987837 
L 348.898236 -193.169013 
L 347.368766 -190.586236 
L 345.83932 -188.2862 
L 344.309839 -186.289858 
L 342.780381 -184.592684 
L 341.250912 -183.16958 
L 339.721442 -181.982963 
L 338.191984 -180.990568 
L 336.662515 -180.151345 
L 335.133045 -179.42894 
L 333.603587 -178.793045 
L 332.074118 -178.219367 
L 330.544654 -177.688876 
L 329.01519 -177.186714 
L 327.485721 -176.701183 
L 325.956257 -176.222981 
L 324.426787 -175.744656 
L 322.897335 -175.26039 
L 321.367866 -174.765977 
L 319.83839 -174.258912 
L 318.308938 -173.738585 
L 316.779469 -173.206263 
L 315.249993 -172.665084 
L 313.720535 -172.119774 
L 312.191072 -171.576159 
L 310.661602 -171.040668 
L 309.132138 -170.519648 
L 307.602675 -170.018876 
L 306.073205 -169.543105 
L 304.543741 -169.095854 
L 303.014278 -168.679329 
L 301.484808 -168.29454 
L 299.955344 -167.941408 
L 298.425886 -167.619073 
L 296.896411 -167.326047 
L 295.366947 -167.060473 
L 293.837489 -166.820271 
L 292.308014 -166.603265 
L 290.778556 -166.407316 
L 289.249092 -166.230352 
L 287.719617 -166.070417 
L 286.190159 -165.925711 
L 284.660695 -165.794581 
L 283.131214 -165.675522 
L 281.601759 -165.567175 
L 280.072296 -165.468332 
L 278.542826 -165.377889 
L 277.013362 -165.294878 
L 275.48389 -165.218418 
L 273.954435 -165.14773 
L 272.424962 -165.082106 
L 270.895502 -165.020915 
L 269.366038 -164.963577 
L 267.836565 -164.909559 
L 266.307105 -164.858365 
L 264.777638 -164.80953 
L 263.248168 -164.762578 
L 261.718705 -164.717057 
L 260.189241 -164.672451 
L 258.659777 -164.628217 
L 257.130308 -164.5837 
L 255.600843 -164.538121 
L 254.07138 -164.49049 
L 252.541915 -164.439564 
L 251.012453 -164.38372 
L 249.482983 -164.320906 
L 247.953517 -164.248525 
L 246.424056 -164.163465 
L 244.894585 -164.062215 
L 243.36512 -163.941331 
L 241.835657 -163.798347 
L 240.306186 -163.633062 
L 238.77673 -163.447081 
L 237.247259 -163.22377 
L 235.717788 -162.914816 
L 234.188332 -164.920925 
L 232.658861 -166.062458 
L 231.12939 -166.781847 
L 229.599934 -167.776418 
L 228.070463 -169.123172 
L 226.541001 -170.977524 
L 225.011536 -173.517078 
L 223.482065 -176.765224 
L 221.952603 -180.437653 
L 220.423138 -184.050764 
L 218.893677 -187.211644 
L 217.364204 -189.764382 
L 215.834741 -191.735812 
L 214.305268 -193.231287 
L 212.775807 -194.367688 
L 211.246351 -195.246192 
L 209.71688 -195.946275 
L 208.18741 -196.527759 
L 206.657944 -197.035135 
L 205.128483 -197.501774 
L 203.599019 -197.953218 
L 202.069555 -198.409717 
L 200.540083 -198.888534 
L 199.010619 -199.404886 
L 197.481155 -199.973393 
L 195.951695 -200.608607 
L 194.422231 -201.325643 
L 192.892758 -202.140273 
L 191.363286 -203.068819 
L 189.833831 -204.127683 
L 188.304361 -205.332487 
L 186.774898 -206.696149 
L 185.245434 -208.226856 
L 183.715962 -209.925055 
L 182.186492 -211.780223 
L 180.657034 -213.768418 
L 179.12757 -215.851393 
L 177.598107 -217.979514 
L 176.068631 -220.099126 
L 174.539168 -222.163969 
L 173.00971 -224.146553 
L 171.480246 -226.044392 
L 169.950776 -227.876691 
L 168.421307 -229.672363 
L 166.891843 -231.453085 
L 165.362379 -233.219984 
L 163.832921 -234.949943 
L 162.303452 -236.603776 
L 160.773982 -238.140796 
L 159.244513 -239.531904 
L 157.715055 -240.765562 
L 156.185585 -241.8463 
L 154.656122 -242.788833 
L 153.126658 -243.612185 
L 151.597183 -244.335176 
L 150.067725 -244.974088 
L 148.538255 -245.542242 
L 147.008797 -246.050036 
L 145.479328 -246.505551 
L 143.949858 -246.915199 
L 142.4204 -247.284081 
L 140.890931 -247.616499 
L 139.361473 -247.916014 
L 137.832003 -248.185796 
L 136.302534 -248.428639 
L 134.773058 -248.647057 
L 133.2436 -248.843357 
L 131.714131 -249.019676 
L 130.184673 -249.177923 
L 128.655203 -249.319907 
L 127.125734 -249.447228 
L 125.596276 -249.561397 
L 124.066806 -249.663767 
L 122.537349 -249.75554 
L 121.007879 -249.83784 
L 119.478409 -249.911719 
L 117.948952 -249.978014 
L 116.419482 -250.03755 
L 114.890024 -250.09108 
L 113.360555 -250.139194 
L 111.831085 -250.182535 
L 110.301627 -250.221573 
L 108.772158 -250.256783 
L 107.2427 -250.288563 
L 105.71323 -250.317282 
L 104.183761 -250.343277 
L 102.654291 -250.366797 
L 101.124821 -250.38815 
L 99.595364 -250.407505 
L 98.065894 -250.42512 
L 96.536424 -250.441144 
L 95.006967 -250.455757 
L 93.477497 -250.469087 
L 91.948027 -250.481245 
L 90.41857 -250.492369 
L 88.8891 -250.502578 
L 87.35963 -250.511912 
L 85.830173 -250.520471 
L 84.300703 -250.528374 
L 82.771245 -250.535611 
L 81.241776 -250.542301 
z
" style="stroke: #ff0000; stroke-opacity: 0.2"/>
    </defs>
    <g clip-path="url(#p6020b5eaf5)">
     <use xlink:href="#m25cdebcc7f" x="0" y="267.625937" style="fill: #ff0000; fill-opacity: 0.2; stroke: #ff0000; stroke-opacity: 0.2"/>
    </g>
   </g>
   <g id="PathCollection_1">
    <defs>
     <path id="mf60581c0bd" d="M 0 3 
C 0.795609 3 1.55874 2.683901 2.12132 2.12132 
C 2.683901 1.55874 3 0.795609 3 0 
C 3 -0.795609 2.683901 -1.55874 2.12132 -2.12132 
C 1.55874 -2.683901 0.795609 -3 0 -3 
C -0.795609 -3 -1.55874 -2.683901 -2.12132 -2.12132 
C -2.683901 -1.55874 -3 -0.795609 -3 0 
C -3 0.795609 -2.683901 1.55874 -2.12132 2.12132 
C -1.55874 2.683901 -0.795609 3 0 3 
z
" style="stroke: #ffffff; stroke-width: 0.48"/>
    </defs>
    <g clip-path="url(#p6020b5eaf5)">
     <use xlink:href="#mf60581c0bd" x="116.522224" y="169.399546" style="fill: #4c72b0; stroke: #ffffff; stroke-width: 0.48"/>
     <use xlink:href="#mf60581c0bd" x="124.601008" y="168.346651" style="fill: #4c72b0; stroke: #ffffff; stroke-width: 0.48"/>
     <use xlink:href="#mf60581c0bd" x="128.249055" y="167.293761" style="fill: #4c72b0; stroke: #ffffff; stroke-width: 0.48"/>
     <use xlink:href="#mf60581c0bd" x="128.243609" y="166.240872" style="fill: #4c72b0; stroke: #ffffff; stroke-width: 0.48"/>
     <use xlink:href="#mf60581c0bd" x="130.279636" y="165.187977" style="fill: #4c72b0; stroke: #ffffff; stroke-width: 0.48"/>
     <use xlink:href="#mf60581c0bd" x="136.469197" y="164.135082" style="fill: #4c72b0; stroke: #ffffff; stroke-width: 0.48"/>
     <use xlink:href="#mf60581c0bd" x="139.617422" y="163.082193" style="fill: #4c72b0; stroke: #ffffff; stroke-width: 0.48"/>
     <use xlink:href="#mf60581c0bd" x="150.930365" y="162.029298" style="fill: #4c72b0; stroke: #ffffff; stroke-width: 0.48"/>
     <use xlink:href="#mf60581c0bd" x="149.417975" y="160.976409" style="fill: #4c72b0; stroke: #ffffff; stroke-width: 0.48"/>
     <use xlink:href="#mf60581c0bd" x="148.643006" y="159.923514" style="fill: #4c72b0; stroke: #ffffff; stroke-width: 0.48"/>
     <use xlink:href="#mf60581c0bd" x="160.051551" y="158.870624" style="fill: #4c72b0; stroke: #ffffff; stroke-width: 0.48"/>
     <use xlink:href="#mf60581c0bd" x="160.552836" y="157.81773" style="fill: #4c72b0; stroke: #ffffff; stroke-width: 0.48"/>
     <use xlink:href="#mf60581c0bd" x="167.653449" y="156.764837" style="fill: #4c72b0; stroke: #ffffff; stroke-width: 0.48"/>
     <use xlink:href="#mf60581c0bd" x="174.906119" y="155.711945" style="fill: #4c72b0; stroke: #ffffff; stroke-width: 0.48"/>
     <use xlink:href="#mf60581c0bd" x="173.825473" y="154.659051" style="fill: #4c72b0; stroke: #ffffff; stroke-width: 0.48"/>
     <use xlink:href="#mf60581c0bd" x="180.778364" y="153.606161" style="fill: #4c72b0; stroke: #ffffff; stroke-width: 0.48"/>
     <use xlink:href="#mf60581c0bd" x="179.636879" y="152.553269" style="fill: #4c72b0; stroke: #ffffff; stroke-width: 0.48"/>
     <use xlink:href="#mf60581c0bd" x="177.934377" y="151.500377" style="fill: #4c72b0; stroke: #ffffff; stroke-width: 0.48"/>
     <use xlink:href="#mf60581c0bd" x="184.678523" y="150.447485" style="fill: #4c72b0; stroke: #ffffff; stroke-width: 0.48"/>
     <use xlink:href="#mf60581c0bd" x="183.164582" y="149.394592" style="fill: #4c72b0; stroke: #ffffff; stroke-width: 0.48"/>
     <use xlink:href="#mf60581c0bd" x="186.380545" y="148.341703" style="fill: #4c72b0; stroke: #ffffff; stroke-width: 0.48"/>
     <use xlink:href="#mf60581c0bd" x="190.503771" y="147.288806" style="fill: #4c72b0; stroke: #ffffff; stroke-width: 0.48"/>
     <use xlink:href="#mf60581c0bd" x="198.322865" y="146.235916" style="fill: #4c72b0; stroke: #ffffff; stroke-width: 0.48"/>
     <use xlink:href="#mf60581c0bd" x="199.844823" y="145.183024" style="fill: #4c72b0; stroke: #ffffff; stroke-width: 0.48"/>
     <use xlink:href="#mf60581c0bd" x="203.180435" y="144.130129" style="fill: #4c72b0; stroke: #ffffff; stroke-width: 0.48"/>
     <use xlink:href="#mf60581c0bd" x="203.548803" y="143.07724" style="fill: #4c72b0; stroke: #ffffff; stroke-width: 0.48"/>
     <use xlink:href="#mf60581c0bd" x="209.625026" y="142.024345" style="fill: #4c72b0; stroke: #ffffff; stroke-width: 0.48"/>
     <use xlink:href="#mf60581c0bd" x="205.83084" y="140.971455" style="fill: #4c72b0; stroke: #ffffff; stroke-width: 0.48"/>
     <use xlink:href="#mf60581c0bd" x="205.337075" y="139.918561" style="fill: #4c72b0; stroke: #ffffff; stroke-width: 0.48"/>
     <use xlink:href="#mf60581c0bd" x="213.221216" y="138.865669" style="fill: #4c72b0; stroke: #ffffff; stroke-width: 0.48"/>
     <use xlink:href="#mf60581c0bd" x="213.092247" y="137.812776" style="fill: #4c72b0; stroke: #ffffff; stroke-width: 0.48"/>
     <use xlink:href="#mf60581c0bd" x="215.869253" y="136.759883" style="fill: #4c72b0; stroke: #ffffff; stroke-width: 0.48"/>
     <use xlink:href="#mf60581c0bd" x="217.407445" y="135.706993" style="fill: #4c72b0; stroke: #ffffff; stroke-width: 0.48"/>
     <use xlink:href="#mf60581c0bd" x="216.187997" y="134.654098" style="fill: #4c72b0; stroke: #ffffff; stroke-width: 0.48"/>
     <use xlink:href="#mf60581c0bd" x="217.333155" y="133.601208" style="fill: #4c72b0; stroke: #ffffff; stroke-width: 0.48"/>
     <use xlink:href="#mf60581c0bd" x="224.520778" y="132.548316" style="fill: #4c72b0; stroke: #ffffff; stroke-width: 0.48"/>
     <use xlink:href="#mf60581c0bd" x="225.852554" y="131.495422" style="fill: #4c72b0; stroke: #ffffff; stroke-width: 0.48"/>
     <use xlink:href="#mf60581c0bd" x="222.779481" y="130.442533" style="fill: #4c72b0; stroke: #ffffff; stroke-width: 0.48"/>
     <use xlink:href="#mf60581c0bd" x="224.655784" y="129.389637" style="fill: #4c72b0; stroke: #ffffff; stroke-width: 0.48"/>
     <use xlink:href="#mf60581c0bd" x="224.687726" y="128.336747" style="fill: #4c72b0; stroke: #ffffff; stroke-width: 0.48"/>
     <use xlink:href="#mf60581c0bd" x="231.469718" y="127.283854" style="fill: #4c72b0; stroke: #ffffff; stroke-width: 0.48"/>
     <use xlink:href="#mf60581c0bd" x="230.454716" y="126.23096" style="fill: #4c72b0; stroke: #ffffff; stroke-width: 0.48"/>
     <use xlink:href="#mf60581c0bd" x="231.724253" y="125.178069" style="fill: #4c72b0; stroke: #ffffff; stroke-width: 0.48"/>
     <use xlink:href="#mf60581c0bd" x="228.012448" y="124.125175" style="fill: #4c72b0; stroke: #ffffff; stroke-width: 0.48"/>
     <use xlink:href="#mf60581c0bd" x="227.716093" y="123.072287" style="fill: #4c72b0; stroke: #ffffff; stroke-width: 0.48"/>
     <use xlink:href="#mf60581c0bd" x="235.022787" y="122.019389" style="fill: #4c72b0; stroke: #ffffff; stroke-width: 0.48"/>
     <use xlink:href="#mf60581c0bd" x="239.284936" y="120.966501" style="fill: #4c72b0; stroke: #ffffff; stroke-width: 0.48"/>
     <use xlink:href="#mf60581c0bd" x="235.390083" y="119.913607" style="fill: #4c72b0; stroke: #ffffff; stroke-width: 0.48"/>
     <use xlink:href="#mf60581c0bd" x="237.36502" y="118.860713" style="fill: #4c72b0; stroke: #ffffff; stroke-width: 0.48"/>
     <use xlink:href="#mf60581c0bd" x="235.652152" y="117.807825" style="fill: #4c72b0; stroke: #ffffff; stroke-width: 0.48"/>
     <use xlink:href="#mf60581c0bd" x="231.314272" y="116.754931" style="fill: #4c72b0; stroke: #ffffff; stroke-width: 0.48"/>
     <use xlink:href="#mf60581c0bd" x="234.632539" y="115.702039" style="fill: #4c72b0; stroke: #ffffff; stroke-width: 0.48"/>
     <use xlink:href="#mf60581c0bd" x="234.557427" y="114.649145" style="fill: #4c72b0; stroke: #ffffff; stroke-width: 0.48"/>
     <use xlink:href="#mf60581c0bd" x="236.442546" y="113.596254" style="fill: #4c72b0; stroke: #ffffff; stroke-width: 0.48"/>
     <use xlink:href="#mf60581c0bd" x="232.28449" y="112.54336" style="fill: #4c72b0; stroke: #ffffff; stroke-width: 0.48"/>
     <use xlink:href="#mf60581c0bd" x="228.065288" y="111.490468" style="fill: #4c72b0; stroke: #ffffff; stroke-width: 0.48"/>
     <use xlink:href="#mf60581c0bd" x="229.631501" y="110.437577" style="fill: #4c72b0; stroke: #ffffff; stroke-width: 0.48"/>
     <use xlink:href="#mf60581c0bd" x="232.394567" y="109.384686" style="fill: #4c72b0; stroke: #ffffff; stroke-width: 0.48"/>
     <use xlink:href="#mf60581c0bd" x="230.255579" y="108.331792" style="fill: #4c72b0; stroke: #ffffff; stroke-width: 0.48"/>
     <use xlink:href="#mf60581c0bd" x="224.620072" y="107.2789" style="fill: #4c72b0; stroke: #ffffff; stroke-width: 0.48"/>
     <use xlink:href="#mf60581c0bd" x="226.053877" y="106.226006" style="fill: #4c72b0; stroke: #ffffff; stroke-width: 0.48"/>
     <use xlink:href="#mf60581c0bd" x="231.377318" y="105.173115" style="fill: #4c72b0; stroke: #ffffff; stroke-width: 0.48"/>
     <use xlink:href="#mf60581c0bd" x="229.573286" y="104.120223" style="fill: #4c72b0; stroke: #ffffff; stroke-width: 0.48"/>
     <use xlink:href="#mf60581c0bd" x="224.644955" y="103.067332" style="fill: #4c72b0; stroke: #ffffff; stroke-width: 0.48"/>
     <use xlink:href="#mf60581c0bd" x="228.914168" y="102.014439" style="fill: #4c72b0; stroke: #ffffff; stroke-width: 0.48"/>
     <use xlink:href="#mf60581c0bd" x="223.515717" y="100.961544" style="fill: #4c72b0; stroke: #ffffff; stroke-width: 0.48"/>
     <use xlink:href="#mf60581c0bd" x="223.295758" y="99.908652" style="fill: #4c72b0; stroke: #ffffff; stroke-width: 0.48"/>
     <use xlink:href="#mf60581c0bd" x="212.886238" y="98.855762" style="fill: #4c72b0; stroke: #ffffff; stroke-width: 0.48"/>
     <use xlink:href="#mf60581c0bd" x="221.89386" y="97.80287" style="fill: #4c72b0; stroke: #ffffff; stroke-width: 0.48"/>
     <use xlink:href="#mf60581c0bd" x="219.044649" y="96.749976" style="fill: #4c72b0; stroke: #ffffff; stroke-width: 0.48"/>
     <use xlink:href="#mf60581c0bd" x="210.146724" y="95.697086" style="fill: #4c72b0; stroke: #ffffff; stroke-width: 0.48"/>
     <use xlink:href="#mf60581c0bd" x="213.47481" y="94.644191" style="fill: #4c72b0; stroke: #ffffff; stroke-width: 0.48"/>
     <use xlink:href="#mf60581c0bd" x="207.130583" y="93.591299" style="fill: #4c72b0; stroke: #ffffff; stroke-width: 0.48"/>
     <use xlink:href="#mf60581c0bd" x="206.767916" y="92.538407" style="fill: #4c72b0; stroke: #ffffff; stroke-width: 0.48"/>
     <use xlink:href="#mf60581c0bd" x="204.276965" y="91.485517" style="fill: #4c72b0; stroke: #ffffff; stroke-width: 0.48"/>
     <use xlink:href="#mf60581c0bd" x="198.965831" y="90.432623" style="fill: #4c72b0; stroke: #ffffff; stroke-width: 0.48"/>
     <use xlink:href="#mf60581c0bd" x="198.94019" y="89.379731" style="fill: #4c72b0; stroke: #ffffff; stroke-width: 0.48"/>
     <use xlink:href="#mf60581c0bd" x="202.042244" y="88.326838" style="fill: #4c72b0; stroke: #ffffff; stroke-width: 0.48"/>
     <use xlink:href="#mf60581c0bd" x="194.648294" y="87.273946" style="fill: #4c72b0; stroke: #ffffff; stroke-width: 0.48"/>
     <use xlink:href="#mf60581c0bd" x="189.720602" y="86.221054" style="fill: #4c72b0; stroke: #ffffff; stroke-width: 0.48"/>
     <use xlink:href="#mf60581c0bd" x="189.321275" y="85.168165" style="fill: #4c72b0; stroke: #ffffff; stroke-width: 0.48"/>
     <use xlink:href="#mf60581c0bd" x="192.000096" y="84.11527" style="fill: #4c72b0; stroke: #ffffff; stroke-width: 0.48"/>
     <use xlink:href="#mf60581c0bd" x="177.407345" y="83.062375" style="fill: #4c72b0; stroke: #ffffff; stroke-width: 0.48"/>
     <use xlink:href="#mf60581c0bd" x="180.611463" y="82.009481" style="fill: #4c72b0; stroke: #ffffff; stroke-width: 0.48"/>
     <use xlink:href="#mf60581c0bd" x="176.771459" y="80.956591" style="fill: #4c72b0; stroke: #ffffff; stroke-width: 0.48"/>
     <use xlink:href="#mf60581c0bd" x="173.462823" y="79.903701" style="fill: #4c72b0; stroke: #ffffff; stroke-width: 0.48"/>
     <use xlink:href="#mf60581c0bd" x="171.445258" y="78.850807" style="fill: #4c72b0; stroke: #ffffff; stroke-width: 0.48"/>
     <use xlink:href="#mf60581c0bd" x="164.307938" y="77.797912" style="fill: #4c72b0; stroke: #ffffff; stroke-width: 0.48"/>
     <use xlink:href="#mf60581c0bd" x="156.754926" y="76.745025" style="fill: #4c72b0; stroke: #ffffff; stroke-width: 0.48"/>
     <use xlink:href="#mf60581c0bd" x="157.520938" y="75.69213" style="fill: #4c72b0; stroke: #ffffff; stroke-width: 0.48"/>
     <use xlink:href="#mf60581c0bd" x="157.66362" y="74.639238" style="fill: #4c72b0; stroke: #ffffff; stroke-width: 0.48"/>
     <use xlink:href="#mf60581c0bd" x="149.89323" y="73.586344" style="fill: #4c72b0; stroke: #ffffff; stroke-width: 0.48"/>
     <use xlink:href="#mf60581c0bd" x="145.454649" y="72.533459" style="fill: #4c72b0; stroke: #ffffff; stroke-width: 0.48"/>
     <use xlink:href="#mf60581c0bd" x="138.829222" y="71.480564" style="fill: #4c72b0; stroke: #ffffff; stroke-width: 0.48"/>
     <use xlink:href="#mf60581c0bd" x="137.297204" y="70.42767" style="fill: #4c72b0; stroke: #ffffff; stroke-width: 0.48"/>
     <use xlink:href="#mf60581c0bd" x="131.775713" y="69.374775" style="fill: #4c72b0; stroke: #ffffff; stroke-width: 0.48"/>
     <use xlink:href="#mf60581c0bd" x="128.305923" y="68.32188" style="fill: #4c72b0; stroke: #ffffff; stroke-width: 0.48"/>
     <use xlink:href="#mf60581c0bd" x="122.478576" y="67.268996" style="fill: #4c72b0; stroke: #ffffff; stroke-width: 0.48"/>
     <use xlink:href="#mf60581c0bd" x="126.535906" y="66.216101" style="fill: #4c72b0; stroke: #ffffff; stroke-width: 0.48"/>
     <use xlink:href="#mf60581c0bd" x="114.43366" y="65.163206" style="fill: #4c72b0; stroke: #ffffff; stroke-width: 0.48"/>
    </g>
   </g>
   <g id="PathCollection_2">
    <defs>
     <path id="m2f0aa256d4" d="M 0 3 
C 0.795609 3 1.55874 2.683901 2.12132 2.12132 
C 2.683901 1.55874 3 0.795609 3 0 
C 3 -0.795609 2.683901 -1.55874 2.12132 -2.12132 
C 1.55874 -2.683901 0.795609 -3 0 -3 
C -0.795609 -3 -1.55874 -2.683901 -2.12132 -2.12132 
C -2.683901 -1.55874 -3 -0.795609 -3 0 
C -3 0.795609 -2.683901 1.55874 -2.12132 2.12132 
C -1.55874 2.683901 -0.795609 3 0 3 
z
" style="stroke: #ffffff; stroke-width: 0.48"/>
    </defs>
    <g clip-path="url(#p6020b5eaf5)">
     <use xlink:href="#m2f0aa256d4" x="115.059956" y="169.399546" style="fill: #55a868; stroke: #ffffff; stroke-width: 0.48"/>
     <use xlink:href="#m2f0aa256d4" x="119.794031" y="168.346651" style="fill: #55a868; stroke: #ffffff; stroke-width: 0.48"/>
     <use xlink:href="#m2f0aa256d4" x="124.431459" y="167.293761" style="fill: #55a868; stroke: #ffffff; stroke-width: 0.48"/>
     <use xlink:href="#m2f0aa256d4" x="128.972288" y="166.240872" style="fill: #55a868; stroke: #ffffff; stroke-width: 0.48"/>
     <use xlink:href="#m2f0aa256d4" x="133.416528" y="165.187977" style="fill: #55a868; stroke: #ffffff; stroke-width: 0.48"/>
     <use xlink:href="#m2f0aa256d4" x="137.76414" y="164.135082" style="fill: #55a868; stroke: #ffffff; stroke-width: 0.48"/>
     <use xlink:href="#m2f0aa256d4" x="142.015128" y="163.082193" style="fill: #55a868; stroke: #ffffff; stroke-width: 0.48"/>
     <use xlink:href="#m2f0aa256d4" x="146.169511" y="162.029298" style="fill: #55a868; stroke: #ffffff; stroke-width: 0.48"/>
     <use xlink:href="#m2f0aa256d4" x="150.227271" y="160.976409" style="fill: #55a868; stroke: #ffffff; stroke-width: 0.48"/>
     <use xlink:href="#m2f0aa256d4" x="154.188431" y="159.923514" style="fill: #55a868; stroke: #ffffff; stroke-width: 0.48"/>
     <use xlink:href="#m2f0aa256d4" x="158.052963" y="158.870624" style="fill: #55a868; stroke: #ffffff; stroke-width: 0.48"/>
     <use xlink:href="#m2f0aa256d4" x="161.8209" y="157.81773" style="fill: #55a868; stroke: #ffffff; stroke-width: 0.48"/>
     <use xlink:href="#m2f0aa256d4" x="165.492214" y="156.764837" style="fill: #55a868; stroke: #ffffff; stroke-width: 0.48"/>
     <use xlink:href="#m2f0aa256d4" x="169.066912" y="155.711945" style="fill: #55a868; stroke: #ffffff; stroke-width: 0.48"/>
     <use xlink:href="#m2f0aa256d4" x="172.545009" y="154.659051" style="fill: #55a868; stroke: #ffffff; stroke-width: 0.48"/>
     <use xlink:href="#m2f0aa256d4" x="175.926472" y="153.606161" style="fill: #55a868; stroke: #ffffff; stroke-width: 0.48"/>
     <use xlink:href="#m2f0aa256d4" x="179.211335" y="152.553269" style="fill: #55a868; stroke: #ffffff; stroke-width: 0.48"/>
     <use xlink:href="#m2f0aa256d4" x="182.399575" y="151.500377" style="fill: #55a868; stroke: #ffffff; stroke-width: 0.48"/>
     <use xlink:href="#m2f0aa256d4" x="185.491209" y="150.447485" style="fill: #55a868; stroke: #ffffff; stroke-width: 0.48"/>
     <use xlink:href="#m2f0aa256d4" x="188.486229" y="149.394592" style="fill: #55a868; stroke: #ffffff; stroke-width: 0.48"/>
     <use xlink:href="#m2f0aa256d4" x="191.384626" y="148.341703" style="fill: #55a868; stroke: #ffffff; stroke-width: 0.48"/>
     <use xlink:href="#m2f0aa256d4" x="194.186429" y="147.288806" style="fill: #55a868; stroke: #ffffff; stroke-width: 0.48"/>
     <use xlink:href="#m2f0aa256d4" x="196.891604" y="146.235916" style="fill: #55a868; stroke: #ffffff; stroke-width: 0.48"/>
     <use xlink:href="#m2f0aa256d4" x="199.500169" y="145.183024" style="fill: #55a868; stroke: #ffffff; stroke-width: 0.48"/>
     <use xlink:href="#m2f0aa256d4" x="202.012124" y="144.130129" style="fill: #55a868; stroke: #ffffff; stroke-width: 0.48"/>
     <use xlink:href="#m2f0aa256d4" x="204.427458" y="143.07724" style="fill: #55a868; stroke: #ffffff; stroke-width: 0.48"/>
     <use xlink:href="#m2f0aa256d4" x="206.746187" y="142.024345" style="fill: #55a868; stroke: #ffffff; stroke-width: 0.48"/>
     <use xlink:href="#m2f0aa256d4" x="208.968292" y="140.971455" style="fill: #55a868; stroke: #ffffff; stroke-width: 0.48"/>
     <use xlink:href="#m2f0aa256d4" x="211.093795" y="139.918561" style="fill: #55a868; stroke: #ffffff; stroke-width: 0.48"/>
     <use xlink:href="#m2f0aa256d4" x="213.122677" y="138.865669" style="fill: #55a868; stroke: #ffffff; stroke-width: 0.48"/>
     <use xlink:href="#m2f0aa256d4" x="215.054947" y="137.812776" style="fill: #55a868; stroke: #ffffff; stroke-width: 0.48"/>
     <use xlink:href="#m2f0aa256d4" x="216.890607" y="136.759883" style="fill: #55a868; stroke: #ffffff; stroke-width: 0.48"/>
     <use xlink:href="#m2f0aa256d4" x="218.629646" y="135.706993" style="fill: #55a868; stroke: #ffffff; stroke-width: 0.48"/>
     <use xlink:href="#m2f0aa256d4" x="220.272081" y="134.654098" style="fill: #55a868; stroke: #ffffff; stroke-width: 0.48"/>
     <use xlink:href="#m2f0aa256d4" x="221.817893" y="133.601208" style="fill: #55a868; stroke: #ffffff; stroke-width: 0.48"/>
     <use xlink:href="#m2f0aa256d4" x="223.267096" y="132.548316" style="fill: #55a868; stroke: #ffffff; stroke-width: 0.48"/>
     <use xlink:href="#m2f0aa256d4" x="224.619687" y="131.495422" style="fill: #55a868; stroke: #ffffff; stroke-width: 0.48"/>
     <use xlink:href="#m2f0aa256d4" x="225.875659" y="130.442533" style="fill: #55a868; stroke: #ffffff; stroke-width: 0.48"/>
     <use xlink:href="#m2f0aa256d4" x="227.035026" y="129.389637" style="fill: #55a868; stroke: #ffffff; stroke-width: 0.48"/>
     <use xlink:href="#m2f0aa256d4" x="228.097772" y="128.336747" style="fill: #55a868; stroke: #ffffff; stroke-width: 0.48"/>
     <use xlink:href="#m2f0aa256d4" x="229.063908" y="127.283854" style="fill: #55a868; stroke: #ffffff; stroke-width: 0.48"/>
     <use xlink:href="#m2f0aa256d4" x="229.93343" y="126.23096" style="fill: #55a868; stroke: #ffffff; stroke-width: 0.48"/>
     <use xlink:href="#m2f0aa256d4" x="230.706338" y="125.178069" style="fill: #55a868; stroke: #ffffff; stroke-width: 0.48"/>
     <use xlink:href="#m2f0aa256d4" x="231.382634" y="124.125175" style="fill: #55a868; stroke: #ffffff; stroke-width: 0.48"/>
     <use xlink:href="#m2f0aa256d4" x="231.962313" y="123.072287" style="fill: #55a868; stroke: #ffffff; stroke-width: 0.48"/>
     <use xlink:href="#m2f0aa256d4" x="232.445383" y="122.019389" style="fill: #55a868; stroke: #ffffff; stroke-width: 0.48"/>
     <use xlink:href="#m2f0aa256d4" x="232.831835" y="120.966501" style="fill: #55a868; stroke: #ffffff; stroke-width: 0.48"/>
     <use xlink:href="#m2f0aa256d4" x="233.121676" y="119.913607" style="fill: #55a868; stroke: #ffffff; stroke-width: 0.48"/>
     <use xlink:href="#m2f0aa256d4" x="233.314904" y="118.860713" style="fill: #55a868; stroke: #ffffff; stroke-width: 0.48"/>
     <use xlink:href="#m2f0aa256d4" x="233.411517" y="117.807825" style="fill: #55a868; stroke: #ffffff; stroke-width: 0.48"/>
     <use xlink:href="#m2f0aa256d4" x="233.411517" y="116.754931" style="fill: #55a868; stroke: #ffffff; stroke-width: 0.48"/>
     <use xlink:href="#m2f0aa256d4" x="233.314904" y="115.702039" style="fill: #55a868; stroke: #ffffff; stroke-width: 0.48"/>
     <use xlink:href="#m2f0aa256d4" x="233.121676" y="114.649145" style="fill: #55a868; stroke: #ffffff; stroke-width: 0.48"/>
     <use xlink:href="#m2f0aa256d4" x="232.831836" y="113.596254" style="fill: #55a868; stroke: #ffffff; stroke-width: 0.48"/>
     <use xlink:href="#m2f0aa256d4" x="232.445381" y="112.54336" style="fill: #55a868; stroke: #ffffff; stroke-width: 0.48"/>
     <use xlink:href="#m2f0aa256d4" x="231.962314" y="111.490468" style="fill: #55a868; stroke: #ffffff; stroke-width: 0.48"/>
     <use xlink:href="#m2f0aa256d4" x="231.382634" y="110.437577" style="fill: #55a868; stroke: #ffffff; stroke-width: 0.48"/>
     <use xlink:href="#m2f0aa256d4" x="230.70634" y="109.384686" style="fill: #55a868; stroke: #ffffff; stroke-width: 0.48"/>
     <use xlink:href="#m2f0aa256d4" x="229.93343" y="108.331792" style="fill: #55a868; stroke: #ffffff; stroke-width: 0.48"/>
     <use xlink:href="#m2f0aa256d4" x="229.063909" y="107.2789" style="fill: #55a868; stroke: #ffffff; stroke-width: 0.48"/>
     <use xlink:href="#m2f0aa256d4" x="228.097773" y="106.226006" style="fill: #55a868; stroke: #ffffff; stroke-width: 0.48"/>
     <use xlink:href="#m2f0aa256d4" x="227.035026" y="105.173115" style="fill: #55a868; stroke: #ffffff; stroke-width: 0.48"/>
     <use xlink:href="#m2f0aa256d4" x="225.875664" y="104.120223" style="fill: #55a868; stroke: #ffffff; stroke-width: 0.48"/>
     <use xlink:href="#m2f0aa256d4" x="224.61969" y="103.067332" style="fill: #55a868; stroke: #ffffff; stroke-width: 0.48"/>
     <use xlink:href="#m2f0aa256d4" x="223.2671" y="102.014439" style="fill: #55a868; stroke: #ffffff; stroke-width: 0.48"/>
     <use xlink:href="#m2f0aa256d4" x="221.817893" y="100.961544" style="fill: #55a868; stroke: #ffffff; stroke-width: 0.48"/>
     <use xlink:href="#m2f0aa256d4" x="220.272077" y="99.908652" style="fill: #55a868; stroke: #ffffff; stroke-width: 0.48"/>
     <use xlink:href="#m2f0aa256d4" x="218.629651" y="98.855762" style="fill: #55a868; stroke: #ffffff; stroke-width: 0.48"/>
     <use xlink:href="#m2f0aa256d4" x="216.890608" y="97.80287" style="fill: #55a868; stroke: #ffffff; stroke-width: 0.48"/>
     <use xlink:href="#m2f0aa256d4" x="215.054947" y="96.749976" style="fill: #55a868; stroke: #ffffff; stroke-width: 0.48"/>
     <use xlink:href="#m2f0aa256d4" x="213.122681" y="95.697086" style="fill: #55a868; stroke: #ffffff; stroke-width: 0.48"/>
     <use xlink:href="#m2f0aa256d4" x="211.093795" y="94.644191" style="fill: #55a868; stroke: #ffffff; stroke-width: 0.48"/>
     <use xlink:href="#m2f0aa256d4" x="208.968298" y="93.591299" style="fill: #55a868; stroke: #ffffff; stroke-width: 0.48"/>
     <use xlink:href="#m2f0aa256d4" x="206.746187" y="92.538407" style="fill: #55a868; stroke: #ffffff; stroke-width: 0.48"/>
     <use xlink:href="#m2f0aa256d4" x="204.42747" y="91.485517" style="fill: #55a868; stroke: #ffffff; stroke-width: 0.48"/>
     <use xlink:href="#m2f0aa256d4" x="202.012124" y="90.432623" style="fill: #55a868; stroke: #ffffff; stroke-width: 0.48"/>
     <use xlink:href="#m2f0aa256d4" x="199.500172" y="89.379731" style="fill: #55a868; stroke: #ffffff; stroke-width: 0.48"/>
     <use xlink:href="#m2f0aa256d4" x="196.891609" y="88.326838" style="fill: #55a868; stroke: #ffffff; stroke-width: 0.48"/>
     <use xlink:href="#m2f0aa256d4" x="194.186429" y="87.273946" style="fill: #55a868; stroke: #ffffff; stroke-width: 0.48"/>
     <use xlink:href="#m2f0aa256d4" x="191.384641" y="86.221054" style="fill: #55a868; stroke: #ffffff; stroke-width: 0.48"/>
     <use xlink:href="#m2f0aa256d4" x="188.486244" y="85.168165" style="fill: #55a868; stroke: #ffffff; stroke-width: 0.48"/>
     <use xlink:href="#m2f0aa256d4" x="185.491215" y="84.11527" style="fill: #55a868; stroke: #ffffff; stroke-width: 0.48"/>
     <use xlink:href="#m2f0aa256d4" x="182.399575" y="83.062375" style="fill: #55a868; stroke: #ffffff; stroke-width: 0.48"/>
     <use xlink:href="#m2f0aa256d4" x="179.211323" y="82.009481" style="fill: #55a868; stroke: #ffffff; stroke-width: 0.48"/>
     <use xlink:href="#m2f0aa256d4" x="175.926472" y="80.956591" style="fill: #55a868; stroke: #ffffff; stroke-width: 0.48"/>
     <use xlink:href="#m2f0aa256d4" x="172.545009" y="79.903701" style="fill: #55a868; stroke: #ffffff; stroke-width: 0.48"/>
     <use xlink:href="#m2f0aa256d4" x="169.066912" y="78.850807" style="fill: #55a868; stroke: #ffffff; stroke-width: 0.48"/>
     <use xlink:href="#m2f0aa256d4" x="165.492203" y="77.797912" style="fill: #55a868; stroke: #ffffff; stroke-width: 0.48"/>
     <use xlink:href="#m2f0aa256d4" x="161.820912" y="76.745025" style="fill: #55a868; stroke: #ffffff; stroke-width: 0.48"/>
     <use xlink:href="#m2f0aa256d4" x="158.052974" y="75.69213" style="fill: #55a868; stroke: #ffffff; stroke-width: 0.48"/>
     <use xlink:href="#m2f0aa256d4" x="154.188431" y="74.639238" style="fill: #55a868; stroke: #ffffff; stroke-width: 0.48"/>
     <use xlink:href="#m2f0aa256d4" x="150.227271" y="73.586344" style="fill: #55a868; stroke: #ffffff; stroke-width: 0.48"/>
     <use xlink:href="#m2f0aa256d4" x="146.169529" y="72.533459" style="fill: #55a868; stroke: #ffffff; stroke-width: 0.48"/>
     <use xlink:href="#m2f0aa256d4" x="142.015146" y="71.480564" style="fill: #55a868; stroke: #ffffff; stroke-width: 0.48"/>
     <use xlink:href="#m2f0aa256d4" x="137.76414" y="70.42767" style="fill: #55a868; stroke: #ffffff; stroke-width: 0.48"/>
     <use xlink:href="#m2f0aa256d4" x="133.416528" y="69.374775" style="fill: #55a868; stroke: #ffffff; stroke-width: 0.48"/>
     <use xlink:href="#m2f0aa256d4" x="128.972288" y="68.32188" style="fill: #55a868; stroke: #ffffff; stroke-width: 0.48"/>
     <use xlink:href="#m2f0aa256d4" x="124.431494" y="67.268996" style="fill: #55a868; stroke: #ffffff; stroke-width: 0.48"/>
     <use xlink:href="#m2f0aa256d4" x="119.794031" y="66.216101" style="fill: #55a868; stroke: #ffffff; stroke-width: 0.48"/>
     <use xlink:href="#m2f0aa256d4" x="115.059956" y="65.163206" style="fill: #55a868; stroke: #ffffff; stroke-width: 0.48"/>
    </g>
   </g>
   <g id="line2d_15">
    <path d="M 81.241776 115.92 
L 157.715055 116.026265 
L 173.00971 116.302411 
L 195.951695 116.746946 
L 228.070463 116.904487 
L 234.188332 116.863607 
L 235.717788 116.942889 
L 241.835657 116.809619 
L 260.189241 116.717281 
L 318.308938 116.661156 
L 327.485721 116.726012 
L 333.603587 116.550807 
L 339.721442 116.116181 
L 344.309839 115.800252 
L 348.898236 115.72054 
L 370.310763 115.853909 
L 385.605412 115.809039 
L 385.605412 115.809039 
" clip-path="url(#p6020b5eaf5)" style="fill: none; stroke: #ff0000; stroke-width: 1.5; stroke-linecap: round"/>
   </g>
   <g id="line2d_16">
    <path d="M 81.241776 17.083636 
L 104.183761 17.28266 
L 116.419482 17.588388 
L 124.066806 17.96217 
L 130.184673 18.448015 
L 134.773058 18.97888 
L 139.361473 19.709923 
L 143.949858 20.710738 
L 147.008797 21.575902 
L 150.067725 22.651849 
L 153.126658 24.013752 
L 156.185585 25.779637 
L 157.715055 26.860376 
L 159.244513 28.094033 
L 162.303452 31.022161 
L 165.362379 34.405953 
L 171.480246 41.581546 
L 174.539168 45.461968 
L 183.715962 57.700883 
L 185.245434 59.399081 
L 186.774898 60.929788 
L 188.304361 62.293451 
L 189.833831 63.498255 
L 192.892758 65.485665 
L 195.951695 67.017331 
L 199.010619 68.221051 
L 203.599019 69.672719 
L 208.18741 71.098178 
L 211.246351 72.379745 
L 212.775807 73.258249 
L 214.305268 74.394651 
L 215.834741 75.890125 
L 217.364204 77.861555 
L 218.893677 80.414293 
L 220.423138 83.575174 
L 223.482065 90.860714 
L 225.011536 94.108859 
L 226.541001 96.648413 
L 228.070463 98.502765 
L 229.599934 99.849519 
L 231.12939 100.84409 
L 232.658861 101.563479 
L 234.188332 102.705013 
L 235.717788 104.711121 
L 238.77673 104.178856 
L 243.36512 103.684607 
L 249.482983 103.305032 
L 261.718705 102.90888 
L 275.48389 102.40752 
L 283.131214 101.950415 
L 289.249092 101.395586 
L 293.837489 100.805667 
L 298.425886 100.006864 
L 303.014278 98.946608 
L 307.602675 97.607061 
L 313.720535 95.506164 
L 321.367866 92.859961 
L 333.603587 88.832892 
L 336.662515 87.474593 
L 338.191984 86.63537 
L 339.721442 85.642975 
L 341.250912 84.456357 
L 342.780381 83.033254 
L 344.309839 81.336079 
L 345.83932 79.339738 
L 347.368766 77.039701 
L 348.898236 74.456925 
L 351.957175 68.649925 
L 358.07503 56.495442 
L 361.133969 51.09663 
L 364.192896 46.438587 
L 367.251824 42.530614 
L 370.310763 39.304015 
L 373.36969 36.662415 
L 376.428618 34.507821 
L 379.487534 32.752558 
L 382.546496 31.322093 
L 385.605412 30.155039 
L 385.605412 30.155039 
" clip-path="url(#p6020b5eaf5)" style="fill: none; stroke-dasharray: 5.55,2.4; stroke-dashoffset: 0; stroke: #ff0000; stroke-width: 1.5"/>
   </g>
   <g id="line2d_17">
    <path d="M 81.241776 214.756364 
L 104.183761 214.56066 
L 116.419482 214.259962 
L 124.066806 213.892264 
L 130.184673 213.414412 
L 134.773058 212.892532 
L 139.361473 212.174432 
L 143.949858 211.192664 
L 147.008797 210.345234 
L 150.067725 209.292986 
L 153.126658 207.96349 
L 156.185585 206.243233 
L 157.715055 205.192157 
L 159.244513 203.99379 
L 162.303452 201.154552 
L 165.362379 197.880615 
L 171.480246 190.954595 
L 174.539168 187.21558 
L 183.715962 175.440531 
L 186.774898 172.335298 
L 188.304361 171.023566 
L 189.833831 169.86439 
L 192.892758 167.951546 
L 195.951695 166.476562 
L 199.010619 165.316789 
L 203.599019 163.917251 
L 208.18741 162.541873 
L 211.246351 161.304195 
L 212.775807 160.455036 
L 214.305268 159.355584 
L 215.834741 157.906752 
L 217.364204 155.992759 
L 218.893677 153.505923 
L 220.423138 150.409439 
L 225.011536 139.856399 
L 226.541001 137.235393 
L 228.070463 135.30621 
L 229.599934 133.905174 
L 231.12939 132.877147 
L 232.658861 132.142875 
L 234.188332 131.022202 
L 235.717788 129.174656 
L 240.306186 129.666344 
L 246.424056 130.074591 
L 255.600843 130.372516 
L 277.013362 130.994748 
L 284.660695 131.419234 
L 290.778556 131.954179 
L 295.366947 132.541857 
L 299.955344 133.362795 
L 304.543741 134.486715 
L 309.132138 135.942963 
L 315.249993 138.252859 
L 321.367866 140.556166 
L 325.956257 142.067242 
L 338.191984 145.847628 
L 339.721442 146.589387 
L 341.250912 147.530826 
L 342.780381 148.736674 
L 344.309839 150.264428 
L 345.83932 152.15091 
L 347.368766 154.401088 
L 348.898236 156.984153 
L 351.957175 162.877935 
L 358.07503 175.211839 
L 361.133969 180.641577 
L 364.192896 185.302025 
L 367.251824 189.196916 
L 370.310763 192.403803 
L 373.36969 195.02409 
L 376.428618 197.158295 
L 379.487534 198.895188 
L 382.546496 200.309653 
L 385.605412 201.463043 
L 385.605412 201.463043 
" clip-path="url(#p6020b5eaf5)" style="fill: none; stroke-dasharray: 5.55,2.4; stroke-dashoffset: 0; stroke: #ff0000; stroke-width: 1.5"/>
   </g>
   <g id="patch_3">
    <path d="M 66.023594 224.64 
L 66.023594 7.2 
" style="fill: none; stroke: #ffffff; stroke-width: 1.25; stroke-linejoin: miter; stroke-linecap: square"/>
   </g>
   <g id="patch_4">
    <path d="M 400.823594 224.64 
L 400.823594 7.2 
" style="fill: none; stroke: #ffffff; stroke-width: 1.25; stroke-linejoin: miter; stroke-linecap: square"/>
   </g>
   <g id="patch_5">
    <path d="M 66.023594 224.64 
L 400.823594 224.64 
" style="fill: none; stroke: #ffffff; stroke-width: 1.25; stroke-linejoin: miter; stroke-linecap: square"/>
   </g>
   <g id="patch_6">
    <path d="M 66.023594 7.2 
L 400.823594 7.2 
" style="fill: none; stroke: #ffffff; stroke-width: 1.25; stroke-linejoin: miter; stroke-linecap: square"/>
   </g>
   <g id="legend_1">
    <g id="patch_7">
     <path d="M 168.634453 64.437812 
L 298.212734 64.437812 
Q 300.412734 64.437812 300.412734 62.237812 
L 300.412734 14.9 
Q 300.412734 12.7 298.212734 12.7 
L 168.634453 12.7 
Q 166.434453 12.7 166.434453 14.9 
L 166.434453 62.237812 
Q 166.434453 64.437812 168.634453 64.437812 
z
" style="fill: #eaeaf2; opacity: 0.8; stroke: #cccccc; stroke-linejoin: miter"/>
    </g>
    <g id="line2d_18">
     <path d="M 170.834453 21.608281 
L 181.834453 21.608281 
L 192.834453 21.608281 
" style="fill: none; stroke: #ff0000; stroke-width: 1.5; stroke-linecap: round"/>
    </g>
    <g id="text_17">
     <!-- Predicted Mean -->
     <g style="fill: #262626" transform="translate(201.634453 25.458281)scale(0.11 -0.11)">
      <defs>
       <path id="DejaVuSans-64" d="M 2906 2969 
L 2906 4863 
L 3481 4863 
L 3481 0 
L 2906 0 
L 2906 525 
Q 2725 213 2448 61 
Q 2172 -91 1784 -91 
Q 1150 -91 751 415 
Q 353 922 353 1747 
Q 353 2572 751 3078 
Q 1150 3584 1784 3584 
Q 2172 3584 2448 3432 
Q 2725 3281 2906 2969 
z
M 947 1747 
Q 947 1113 1208 752 
Q 1469 391 1925 391 
Q 2381 391 2643 752 
Q 2906 1113 2906 1747 
Q 2906 2381 2643 2742 
Q 2381 3103 1925 3103 
Q 1469 3103 1208 2742 
Q 947 2381 947 1747 
z
" transform="scale(0.015625)"/>
       <path id="DejaVuSans-63" d="M 3122 3366 
L 3122 2828 
Q 2878 2963 2633 3030 
Q 2388 3097 2138 3097 
Q 1578 3097 1268 2742 
Q 959 2388 959 1747 
Q 959 1106 1268 751 
Q 1578 397 2138 397 
Q 2388 397 2633 464 
Q 2878 531 3122 666 
L 3122 134 
Q 2881 22 2623 -34 
Q 2366 -91 2075 -91 
Q 1284 -91 818 406 
Q 353 903 353 1747 
Q 353 2603 823 3093 
Q 1294 3584 2113 3584 
Q 2378 3584 2631 3529 
Q 2884 3475 3122 3366 
z
" transform="scale(0.015625)"/>
       <path id="DejaVuSans-4d" d="M 628 4666 
L 1569 4666 
L 2759 1491 
L 3956 4666 
L 4897 4666 
L 4897 0 
L 4281 0 
L 4281 4097 
L 3078 897 
L 2444 897 
L 1241 4097 
L 1241 0 
L 628 0 
L 628 4666 
z
" transform="scale(0.015625)"/>
      </defs>
      <use xlink:href="#DejaVuSans-50"/>
      <use xlink:href="#DejaVuSans-72" x="58.552734"/>
      <use xlink:href="#DejaVuSans-65" x="97.416016"/>
      <use xlink:href="#DejaVuSans-64" x="158.939453"/>
      <use xlink:href="#DejaVuSans-69" x="222.416016"/>
      <use xlink:href="#DejaVuSans-63" x="250.199219"/>
      <use xlink:href="#DejaVuSans-74" x="305.179688"/>
      <use xlink:href="#DejaVuSans-65" x="344.388672"/>
      <use xlink:href="#DejaVuSans-64" x="405.912109"/>
      <use xlink:href="#DejaVuSans-20" x="469.388672"/>
      <use xlink:href="#DejaVuSans-4d" x="501.175781"/>
      <use xlink:href="#DejaVuSans-65" x="587.455078"/>
      <use xlink:href="#DejaVuSans-61" x="648.978516"/>
      <use xlink:href="#DejaVuSans-6e" x="710.257812"/>
     </g>
    </g>
    <g id="PathCollection_3">
     <g>
      <use xlink:href="#mf60581c0bd" x="181.834453" y="38.716719" style="fill: #4c72b0; stroke: #ffffff; stroke-width: 0.48"/>
     </g>
    </g>
    <g id="text_18">
     <!-- Observations -->
     <g style="fill: #262626" transform="translate(201.634453 41.604219)scale(0.11 -0.11)">
      <use xlink:href="#DejaVuSans-4f"/>
      <use xlink:href="#DejaVuSans-62" x="78.710938"/>
      <use xlink:href="#DejaVuSans-73" x="142.1875"/>
      <use xlink:href="#DejaVuSans-65" x="194.287109"/>
      <use xlink:href="#DejaVuSans-72" x="255.810547"/>
      <use xlink:href="#DejaVuSans-76" x="296.923828"/>
      <use xlink:href="#DejaVuSans-61" x="356.103516"/>
      <use xlink:href="#DejaVuSans-74" x="417.382812"/>
      <use xlink:href="#DejaVuSans-69" x="456.591797"/>
      <use xlink:href="#DejaVuSans-6f" x="484.375"/>
      <use xlink:href="#DejaVuSans-6e" x="545.556641"/>
      <use xlink:href="#DejaVuSans-73" x="608.935547"/>
     </g>
    </g>
    <g id="PathCollection_4">
     <g>
      <use xlink:href="#m2f0aa256d4" x="181.834453" y="54.862656" style="fill: #55a868; stroke: #ffffff; stroke-width: 0.48"/>
     </g>
    </g>
    <g id="text_19">
     <!-- True Relationship -->
     <g style="fill: #262626" transform="translate(201.634453 57.750156)scale(0.11 -0.11)">
      <defs>
       <path id="DejaVuSans-54" d="M -19 4666 
L 3928 4666 
L 3928 4134 
L 2272 4134 
L 2272 0 
L 1638 0 
L 1638 4134 
L -19 4134 
L -19 4666 
z
" transform="scale(0.015625)"/>
       <path id="DejaVuSans-75" d="M 544 1381 
L 544 3500 
L 1119 3500 
L 1119 1403 
Q 1119 906 1312 657 
Q 1506 409 1894 409 
Q 2359 409 2629 706 
Q 2900 1003 2900 1516 
L 2900 3500 
L 3475 3500 
L 3475 0 
L 2900 0 
L 2900 538 
Q 2691 219 2414 64 
Q 2138 -91 1772 -91 
Q 1169 -91 856 284 
Q 544 659 544 1381 
z
M 1991 3584 
L 1991 3584 
z
" transform="scale(0.015625)"/>
       <path id="DejaVuSans-52" d="M 2841 2188 
Q 3044 2119 3236 1894 
Q 3428 1669 3622 1275 
L 4263 0 
L 3584 0 
L 2988 1197 
Q 2756 1666 2539 1819 
Q 2322 1972 1947 1972 
L 1259 1972 
L 1259 0 
L 628 0 
L 628 4666 
L 2053 4666 
Q 2853 4666 3247 4331 
Q 3641 3997 3641 3322 
Q 3641 2881 3436 2590 
Q 3231 2300 2841 2188 
z
M 1259 4147 
L 1259 2491 
L 2053 2491 
Q 2509 2491 2742 2702 
Q 2975 2913 2975 3322 
Q 2975 3731 2742 3939 
Q 2509 4147 2053 4147 
L 1259 4147 
z
" transform="scale(0.015625)"/>
       <path id="DejaVuSans-6c" d="M 603 4863 
L 1178 4863 
L 1178 0 
L 603 0 
L 603 4863 
z
" transform="scale(0.015625)"/>
       <path id="DejaVuSans-68" d="M 3513 2113 
L 3513 0 
L 2938 0 
L 2938 2094 
Q 2938 2591 2744 2837 
Q 2550 3084 2163 3084 
Q 1697 3084 1428 2787 
Q 1159 2491 1159 1978 
L 1159 0 
L 581 0 
L 581 4863 
L 1159 4863 
L 1159 2956 
Q 1366 3272 1645 3428 
Q 1925 3584 2291 3584 
Q 2894 3584 3203 3211 
Q 3513 2838 3513 2113 
z
" transform="scale(0.015625)"/>
       <path id="DejaVuSans-70" d="M 1159 525 
L 1159 -1331 
L 581 -1331 
L 581 3500 
L 1159 3500 
L 1159 2969 
Q 1341 3281 1617 3432 
Q 1894 3584 2278 3584 
Q 2916 3584 3314 3078 
Q 3713 2572 3713 1747 
Q 3713 922 3314 415 
Q 2916 -91 2278 -91 
Q 1894 -91 1617 61 
Q 1341 213 1159 525 
z
M 3116 1747 
Q 3116 2381 2855 2742 
Q 2594 3103 2138 3103 
Q 1681 3103 1420 2742 
Q 1159 2381 1159 1747 
Q 1159 1113 1420 752 
Q 1681 391 2138 391 
Q 2594 391 2855 752 
Q 3116 1113 3116 1747 
z
" transform="scale(0.015625)"/>
      </defs>
      <use xlink:href="#DejaVuSans-54"/>
      <use xlink:href="#DejaVuSans-72" x="46.333984"/>
      <use xlink:href="#DejaVuSans-75" x="87.447266"/>
      <use xlink:href="#DejaVuSans-65" x="150.826172"/>
      <use xlink:href="#DejaVuSans-20" x="212.349609"/>
      <use xlink:href="#DejaVuSans-52" x="244.136719"/>
      <use xlink:href="#DejaVuSans-65" x="309.119141"/>
      <use xlink:href="#DejaVuSans-6c" x="370.642578"/>
      <use xlink:href="#DejaVuSans-61" x="398.425781"/>
      <use xlink:href="#DejaVuSans-74" x="459.705078"/>
      <use xlink:href="#DejaVuSans-69" x="498.914062"/>
      <use xlink:href="#DejaVuSans-6f" x="526.697266"/>
      <use xlink:href="#DejaVuSans-6e" x="587.878906"/>
      <use xlink:href="#DejaVuSans-73" x="651.257812"/>
      <use xlink:href="#DejaVuSans-68" x="703.357422"/>
      <use xlink:href="#DejaVuSans-69" x="766.736328"/>
      <use xlink:href="#DejaVuSans-70" x="794.519531"/>
     </g>
    </g>
   </g>
  </g>
 </g>
 <defs>
  <clipPath id="p6020b5eaf5">
   <rect x="66.023594" y="7.2" width="334.8" height="217.44"/>
  </clipPath>
 </defs>
</svg>
