<?xml version="1.0" encoding="utf-8" standalone="no"?>
<!DOCTYPE svg PUBLIC "-//W3C//DTD SVG 1.1//EN"
  "http://www.w3.org/Graphics/SVG/1.1/DTD/svg11.dtd">
<svg xmlns:xlink="http://www.w3.org/1999/xlink" width="408.023594pt" height="267.625937pt" viewBox="0 0 408.023594 267.625937" xmlns="http://www.w3.org/2000/svg" version="1.1">
 <metadata>
  <rdf:RDF xmlns:dc="http://purl.org/dc/elements/1.1/" xmlns:cc="http://creativecommons.org/ns#" xmlns:rdf="http://www.w3.org/1999/02/22-rdf-syntax-ns#">
   <cc:Work>
    <dc:type rdf:resource="http://purl.org/dc/dcmitype/StillImage"/>
    <dc:date>2022-06-22T22:30:52.456180</dc:date>
    <dc:format>image/svg+xml</dc:format>
    <dc:creator>
     <cc:Agent>
      <dc:title>Matplotlib v3.5.2, https://matplotlib.org/</dc:title>
     </cc:Agent>
    </dc:creator>
   </cc:Work>
  </rdf:RDF>
 </metadata>
 <defs>
  <style type="text/css">*{stroke-linejoin: round; stroke-linecap: butt}</style>
 </defs>
 <g id="figure_1">
  <g id="patch_1">
   <path d="M 0 267.625937 
L 408.023594 267.625937 
L 408.023594 0 
L 0 0 
L 0 267.625937 
z
" style="fill: none"/>
  </g>
  <g id="axes_1">
   <g id="patch_2">
    <path d="M 66.023594 224.64 
L 400.823594 224.64 
L 400.823594 7.2 
L 66.023594 7.2 
z
" style="fill: #eaeaf2"/>
   </g>
   <g id="matplotlib.axis_1">
    <g id="xtick_1">
     <g id="line2d_1">
      <path d="M 111.678139 224.64 
L 111.678139 7.2 
" clip-path="url(#pd2604e143e)" style="fill: none; stroke: #ffffff; stroke-linecap: round"/>
     </g>
     <g id="text_1">
      <!-- −40 -->
      <g style="fill: #262626" transform="translate(100.070561 242.498281)scale(0.11 -0.11)">
       <defs>
        <path id="DejaVuSans-2212" d="M 678 2272 
L 4684 2272 
L 4684 1741 
L 678 1741 
L 678 2272 
z
" transform="scale(0.015625)"/>
        <path id="DejaVuSans-34" d="M 2419 4116 
L 825 1625 
L 2419 1625 
L 2419 4116 
z
M 2253 4666 
L 3047 4666 
L 3047 1625 
L 3713 1625 
L 3713 1100 
L 3047 1100 
L 3047 0 
L 2419 0 
L 2419 1100 
L 313 1100 
L 313 1709 
L 2253 4666 
z
" transform="scale(0.015625)"/>
        <path id="DejaVuSans-30" d="M 2034 4250 
Q 1547 4250 1301 3770 
Q 1056 3291 1056 2328 
Q 1056 1369 1301 889 
Q 1547 409 2034 409 
Q 2525 409 2770 889 
Q 3016 1369 3016 2328 
Q 3016 3291 2770 3770 
Q 2525 4250 2034 4250 
z
M 2034 4750 
Q 2819 4750 3233 4129 
Q 3647 3509 3647 2328 
Q 3647 1150 3233 529 
Q 2819 -91 2034 -91 
Q 1250 -91 836 529 
Q 422 1150 422 2328 
Q 422 3509 836 4129 
Q 1250 4750 2034 4750 
z
" transform="scale(0.015625)"/>
       </defs>
       <use xlink:href="#DejaVuSans-2212"/>
       <use xlink:href="#DejaVuSans-34" x="83.789062"/>
       <use xlink:href="#DejaVuSans-30" x="147.412109"/>
      </g>
     </g>
    </g>
    <g id="xtick_2">
     <g id="line2d_2">
      <path d="M 172.550866 224.64 
L 172.550866 7.2 
" clip-path="url(#pd2604e143e)" style="fill: none; stroke: #ffffff; stroke-linecap: round"/>
     </g>
     <g id="text_2">
      <!-- −20 -->
      <g style="fill: #262626" transform="translate(160.943288 242.498281)scale(0.11 -0.11)">
       <defs>
        <path id="DejaVuSans-32" d="M 1228 531 
L 3431 531 
L 3431 0 
L 469 0 
L 469 531 
Q 828 903 1448 1529 
Q 2069 2156 2228 2338 
Q 2531 2678 2651 2914 
Q 2772 3150 2772 3378 
Q 2772 3750 2511 3984 
Q 2250 4219 1831 4219 
Q 1534 4219 1204 4116 
Q 875 4013 500 3803 
L 500 4441 
Q 881 4594 1212 4672 
Q 1544 4750 1819 4750 
Q 2544 4750 2975 4387 
Q 3406 4025 3406 3419 
Q 3406 3131 3298 2873 
Q 3191 2616 2906 2266 
Q 2828 2175 2409 1742 
Q 1991 1309 1228 531 
z
" transform="scale(0.015625)"/>
       </defs>
       <use xlink:href="#DejaVuSans-2212"/>
       <use xlink:href="#DejaVuSans-32" x="83.789062"/>
       <use xlink:href="#DejaVuSans-30" x="147.412109"/>
      </g>
     </g>
    </g>
    <g id="xtick_3">
     <g id="line2d_3">
      <path d="M 233.423594 224.64 
L 233.423594 7.2 
" clip-path="url(#pd2604e143e)" style="fill: none; stroke: #ffffff; stroke-linecap: round"/>
     </g>
     <g id="text_3">
      <!-- 0 -->
      <g style="fill: #262626" transform="translate(229.924219 242.498281)scale(0.11 -0.11)">
       <use xlink:href="#DejaVuSans-30"/>
      </g>
     </g>
    </g>
    <g id="xtick_4">
     <g id="line2d_4">
      <path d="M 294.296321 224.64 
L 294.296321 7.2 
" clip-path="url(#pd2604e143e)" style="fill: none; stroke: #ffffff; stroke-linecap: round"/>
     </g>
     <g id="text_4">
      <!-- 20 -->
      <g style="fill: #262626" transform="translate(287.297571 242.498281)scale(0.11 -0.11)">
       <use xlink:href="#DejaVuSans-32"/>
       <use xlink:href="#DejaVuSans-30" x="63.623047"/>
      </g>
     </g>
    </g>
    <g id="xtick_5">
     <g id="line2d_5">
      <path d="M 355.169048 224.64 
L 355.169048 7.2 
" clip-path="url(#pd2604e143e)" style="fill: none; stroke: #ffffff; stroke-linecap: round"/>
     </g>
     <g id="text_5">
      <!-- 40 -->
      <g style="fill: #262626" transform="translate(348.170298 242.498281)scale(0.11 -0.11)">
       <use xlink:href="#DejaVuSans-34"/>
       <use xlink:href="#DejaVuSans-30" x="63.623047"/>
      </g>
     </g>
    </g>
    <g id="text_6">
     <!-- Observation $y$ -->
     <g style="fill: #262626" transform="translate(191.423594 257.905937)scale(0.12 -0.12)">
      <defs>
       <path id="DejaVuSans-4f" d="M 2522 4238 
Q 1834 4238 1429 3725 
Q 1025 3213 1025 2328 
Q 1025 1447 1429 934 
Q 1834 422 2522 422 
Q 3209 422 3611 934 
Q 4013 1447 4013 2328 
Q 4013 3213 3611 3725 
Q 3209 4238 2522 4238 
z
M 2522 4750 
Q 3503 4750 4090 4092 
Q 4678 3434 4678 2328 
Q 4678 1225 4090 567 
Q 3503 -91 2522 -91 
Q 1538 -91 948 565 
Q 359 1222 359 2328 
Q 359 3434 948 4092 
Q 1538 4750 2522 4750 
z
" transform="scale(0.015625)"/>
       <path id="DejaVuSans-62" d="M 3116 1747 
Q 3116 2381 2855 2742 
Q 2594 3103 2138 3103 
Q 1681 3103 1420 2742 
Q 1159 2381 1159 1747 
Q 1159 1113 1420 752 
Q 1681 391 2138 391 
Q 2594 391 2855 752 
Q 3116 1113 3116 1747 
z
M 1159 2969 
Q 1341 3281 1617 3432 
Q 1894 3584 2278 3584 
Q 2916 3584 3314 3078 
Q 3713 2572 3713 1747 
Q 3713 922 3314 415 
Q 2916 -91 2278 -91 
Q 1894 -91 1617 61 
Q 1341 213 1159 525 
L 1159 0 
L 581 0 
L 581 4863 
L 1159 4863 
L 1159 2969 
z
" transform="scale(0.015625)"/>
       <path id="DejaVuSans-73" d="M 2834 3397 
L 2834 2853 
Q 2591 2978 2328 3040 
Q 2066 3103 1784 3103 
Q 1356 3103 1142 2972 
Q 928 2841 928 2578 
Q 928 2378 1081 2264 
Q 1234 2150 1697 2047 
L 1894 2003 
Q 2506 1872 2764 1633 
Q 3022 1394 3022 966 
Q 3022 478 2636 193 
Q 2250 -91 1575 -91 
Q 1294 -91 989 -36 
Q 684 19 347 128 
L 347 722 
Q 666 556 975 473 
Q 1284 391 1588 391 
Q 1994 391 2212 530 
Q 2431 669 2431 922 
Q 2431 1156 2273 1281 
Q 2116 1406 1581 1522 
L 1381 1569 
Q 847 1681 609 1914 
Q 372 2147 372 2553 
Q 372 3047 722 3315 
Q 1072 3584 1716 3584 
Q 2034 3584 2315 3537 
Q 2597 3491 2834 3397 
z
" transform="scale(0.015625)"/>
       <path id="DejaVuSans-65" d="M 3597 1894 
L 3597 1613 
L 953 1613 
Q 991 1019 1311 708 
Q 1631 397 2203 397 
Q 2534 397 2845 478 
Q 3156 559 3463 722 
L 3463 178 
Q 3153 47 2828 -22 
Q 2503 -91 2169 -91 
Q 1331 -91 842 396 
Q 353 884 353 1716 
Q 353 2575 817 3079 
Q 1281 3584 2069 3584 
Q 2775 3584 3186 3129 
Q 3597 2675 3597 1894 
z
M 3022 2063 
Q 3016 2534 2758 2815 
Q 2500 3097 2075 3097 
Q 1594 3097 1305 2825 
Q 1016 2553 972 2059 
L 3022 2063 
z
" transform="scale(0.015625)"/>
       <path id="DejaVuSans-72" d="M 2631 2963 
Q 2534 3019 2420 3045 
Q 2306 3072 2169 3072 
Q 1681 3072 1420 2755 
Q 1159 2438 1159 1844 
L 1159 0 
L 581 0 
L 581 3500 
L 1159 3500 
L 1159 2956 
Q 1341 3275 1631 3429 
Q 1922 3584 2338 3584 
Q 2397 3584 2469 3576 
Q 2541 3569 2628 3553 
L 2631 2963 
z
" transform="scale(0.015625)"/>
       <path id="DejaVuSans-76" d="M 191 3500 
L 800 3500 
L 1894 563 
L 2988 3500 
L 3597 3500 
L 2284 0 
L 1503 0 
L 191 3500 
z
" transform="scale(0.015625)"/>
       <path id="DejaVuSans-61" d="M 2194 1759 
Q 1497 1759 1228 1600 
Q 959 1441 959 1056 
Q 959 750 1161 570 
Q 1363 391 1709 391 
Q 2188 391 2477 730 
Q 2766 1069 2766 1631 
L 2766 1759 
L 2194 1759 
z
M 3341 1997 
L 3341 0 
L 2766 0 
L 2766 531 
Q 2569 213 2275 61 
Q 1981 -91 1556 -91 
Q 1019 -91 701 211 
Q 384 513 384 1019 
Q 384 1609 779 1909 
Q 1175 2209 1959 2209 
L 2766 2209 
L 2766 2266 
Q 2766 2663 2505 2880 
Q 2244 3097 1772 3097 
Q 1472 3097 1187 3025 
Q 903 2953 641 2809 
L 641 3341 
Q 956 3463 1253 3523 
Q 1550 3584 1831 3584 
Q 2591 3584 2966 3190 
Q 3341 2797 3341 1997 
z
" transform="scale(0.015625)"/>
       <path id="DejaVuSans-74" d="M 1172 4494 
L 1172 3500 
L 2356 3500 
L 2356 3053 
L 1172 3053 
L 1172 1153 
Q 1172 725 1289 603 
Q 1406 481 1766 481 
L 2356 481 
L 2356 0 
L 1766 0 
Q 1100 0 847 248 
Q 594 497 594 1153 
L 594 3053 
L 172 3053 
L 172 3500 
L 594 3500 
L 594 4494 
L 1172 4494 
z
" transform="scale(0.015625)"/>
       <path id="DejaVuSans-69" d="M 603 3500 
L 1178 3500 
L 1178 0 
L 603 0 
L 603 3500 
z
M 603 4863 
L 1178 4863 
L 1178 4134 
L 603 4134 
L 603 4863 
z
" transform="scale(0.015625)"/>
       <path id="DejaVuSans-6f" d="M 1959 3097 
Q 1497 3097 1228 2736 
Q 959 2375 959 1747 
Q 959 1119 1226 758 
Q 1494 397 1959 397 
Q 2419 397 2687 759 
Q 2956 1122 2956 1747 
Q 2956 2369 2687 2733 
Q 2419 3097 1959 3097 
z
M 1959 3584 
Q 2709 3584 3137 3096 
Q 3566 2609 3566 1747 
Q 3566 888 3137 398 
Q 2709 -91 1959 -91 
Q 1206 -91 779 398 
Q 353 888 353 1747 
Q 353 2609 779 3096 
Q 1206 3584 1959 3584 
z
" transform="scale(0.015625)"/>
       <path id="DejaVuSans-6e" d="M 3513 2113 
L 3513 0 
L 2938 0 
L 2938 2094 
Q 2938 2591 2744 2837 
Q 2550 3084 2163 3084 
Q 1697 3084 1428 2787 
Q 1159 2491 1159 1978 
L 1159 0 
L 581 0 
L 581 3500 
L 1159 3500 
L 1159 2956 
Q 1366 3272 1645 3428 
Q 1925 3584 2291 3584 
Q 2894 3584 3203 3211 
Q 3513 2838 3513 2113 
z
" transform="scale(0.015625)"/>
       <path id="DejaVuSans-20" transform="scale(0.015625)"/>
       <path id="DejaVuSans-Oblique-79" d="M 1588 -325 
Q 1188 -997 936 -1164 
Q 684 -1331 294 -1331 
L -159 -1331 
L -63 -850 
L 269 -850 
Q 509 -850 678 -719 
Q 847 -588 1056 -206 
L 1234 128 
L 459 3500 
L 1069 3500 
L 1650 819 
L 3256 3500 
L 3859 3500 
L 1588 -325 
z
" transform="scale(0.015625)"/>
      </defs>
      <use xlink:href="#DejaVuSans-4f" transform="translate(0 0.015625)"/>
      <use xlink:href="#DejaVuSans-62" transform="translate(78.710938 0.015625)"/>
      <use xlink:href="#DejaVuSans-73" transform="translate(142.1875 0.015625)"/>
      <use xlink:href="#DejaVuSans-65" transform="translate(194.287109 0.015625)"/>
      <use xlink:href="#DejaVuSans-72" transform="translate(255.810547 0.015625)"/>
      <use xlink:href="#DejaVuSans-76" transform="translate(296.923828 0.015625)"/>
      <use xlink:href="#DejaVuSans-61" transform="translate(356.103516 0.015625)"/>
      <use xlink:href="#DejaVuSans-74" transform="translate(417.382812 0.015625)"/>
      <use xlink:href="#DejaVuSans-69" transform="translate(456.591797 0.015625)"/>
      <use xlink:href="#DejaVuSans-6f" transform="translate(484.375 0.015625)"/>
      <use xlink:href="#DejaVuSans-6e" transform="translate(545.556641 0.015625)"/>
      <use xlink:href="#DejaVuSans-20" transform="translate(608.935547 0.015625)"/>
      <use xlink:href="#DejaVuSans-Oblique-79" transform="translate(640.722656 0.015625)"/>
     </g>
    </g>
   </g>
   <g id="matplotlib.axis_2">
    <g id="ytick_1">
     <g id="line2d_6">
      <path d="M 66.023594 221.465904 
L 400.823594 221.465904 
" clip-path="url(#pd2604e143e)" style="fill: none; stroke: #ffffff; stroke-linecap: round"/>
     </g>
     <g id="text_7">
      <!-- −10.0 -->
      <g style="fill: #262626" transform="translate(22.81375 225.645045)scale(0.11 -0.11)">
       <defs>
        <path id="DejaVuSans-31" d="M 794 531 
L 1825 531 
L 1825 4091 
L 703 3866 
L 703 4441 
L 1819 4666 
L 2450 4666 
L 2450 531 
L 3481 531 
L 3481 0 
L 794 0 
L 794 531 
z
" transform="scale(0.015625)"/>
        <path id="DejaVuSans-2e" d="M 684 794 
L 1344 794 
L 1344 0 
L 684 0 
L 684 794 
z
" transform="scale(0.015625)"/>
       </defs>
       <use xlink:href="#DejaVuSans-2212"/>
       <use xlink:href="#DejaVuSans-31" x="83.789062"/>
       <use xlink:href="#DejaVuSans-30" x="147.412109"/>
       <use xlink:href="#DejaVuSans-2e" x="211.035156"/>
       <use xlink:href="#DejaVuSans-30" x="242.822266"/>
      </g>
     </g>
    </g>
    <g id="ytick_2">
     <g id="line2d_7">
      <path d="M 66.023594 195.419708 
L 400.823594 195.419708 
" clip-path="url(#pd2604e143e)" style="fill: none; stroke: #ffffff; stroke-linecap: round"/>
     </g>
     <g id="text_8">
      <!-- −7.5 -->
      <g style="fill: #262626" transform="translate(29.8125 199.598849)scale(0.11 -0.11)">
       <defs>
        <path id="DejaVuSans-37" d="M 525 4666 
L 3525 4666 
L 3525 4397 
L 1831 0 
L 1172 0 
L 2766 4134 
L 525 4134 
L 525 4666 
z
" transform="scale(0.015625)"/>
        <path id="DejaVuSans-35" d="M 691 4666 
L 3169 4666 
L 3169 4134 
L 1269 4134 
L 1269 2991 
Q 1406 3038 1543 3061 
Q 1681 3084 1819 3084 
Q 2600 3084 3056 2656 
Q 3513 2228 3513 1497 
Q 3513 744 3044 326 
Q 2575 -91 1722 -91 
Q 1428 -91 1123 -41 
Q 819 9 494 109 
L 494 744 
Q 775 591 1075 516 
Q 1375 441 1709 441 
Q 2250 441 2565 725 
Q 2881 1009 2881 1497 
Q 2881 1984 2565 2268 
Q 2250 2553 1709 2553 
Q 1456 2553 1204 2497 
Q 953 2441 691 2322 
L 691 4666 
z
" transform="scale(0.015625)"/>
       </defs>
       <use xlink:href="#DejaVuSans-2212"/>
       <use xlink:href="#DejaVuSans-37" x="83.789062"/>
       <use xlink:href="#DejaVuSans-2e" x="147.412109"/>
       <use xlink:href="#DejaVuSans-35" x="179.199219"/>
      </g>
     </g>
    </g>
    <g id="ytick_3">
     <g id="line2d_8">
      <path d="M 66.023594 169.373512 
L 400.823594 169.373512 
" clip-path="url(#pd2604e143e)" style="fill: none; stroke: #ffffff; stroke-linecap: round"/>
     </g>
     <g id="text_9">
      <!-- −5.0 -->
      <g style="fill: #262626" transform="translate(29.8125 173.552653)scale(0.11 -0.11)">
       <use xlink:href="#DejaVuSans-2212"/>
       <use xlink:href="#DejaVuSans-35" x="83.789062"/>
       <use xlink:href="#DejaVuSans-2e" x="147.412109"/>
       <use xlink:href="#DejaVuSans-30" x="179.199219"/>
      </g>
     </g>
    </g>
    <g id="ytick_4">
     <g id="line2d_9">
      <path d="M 66.023594 143.327316 
L 400.823594 143.327316 
" clip-path="url(#pd2604e143e)" style="fill: none; stroke: #ffffff; stroke-linecap: round"/>
     </g>
     <g id="text_10">
      <!-- −2.5 -->
      <g style="fill: #262626" transform="translate(29.8125 147.506457)scale(0.11 -0.11)">
       <use xlink:href="#DejaVuSans-2212"/>
       <use xlink:href="#DejaVuSans-32" x="83.789062"/>
       <use xlink:href="#DejaVuSans-2e" x="147.412109"/>
       <use xlink:href="#DejaVuSans-35" x="179.199219"/>
      </g>
     </g>
    </g>
    <g id="ytick_5">
     <g id="line2d_10">
      <path d="M 66.023594 117.28112 
L 400.823594 117.28112 
" clip-path="url(#pd2604e143e)" style="fill: none; stroke: #ffffff; stroke-linecap: round"/>
     </g>
     <g id="text_11">
      <!-- 0.0 -->
      <g style="fill: #262626" transform="translate(39.030156 121.460261)scale(0.11 -0.11)">
       <use xlink:href="#DejaVuSans-30"/>
       <use xlink:href="#DejaVuSans-2e" x="63.623047"/>
       <use xlink:href="#DejaVuSans-30" x="95.410156"/>
      </g>
     </g>
    </g>
    <g id="ytick_6">
     <g id="line2d_11">
      <path d="M 66.023594 91.234924 
L 400.823594 91.234924 
" clip-path="url(#pd2604e143e)" style="fill: none; stroke: #ffffff; stroke-linecap: round"/>
     </g>
     <g id="text_12">
      <!-- 2.5 -->
      <g style="fill: #262626" transform="translate(39.030156 95.414065)scale(0.11 -0.11)">
       <use xlink:href="#DejaVuSans-32"/>
       <use xlink:href="#DejaVuSans-2e" x="63.623047"/>
       <use xlink:href="#DejaVuSans-35" x="95.410156"/>
      </g>
     </g>
    </g>
    <g id="ytick_7">
     <g id="line2d_12">
      <path d="M 66.023594 65.188728 
L 400.823594 65.188728 
" clip-path="url(#pd2604e143e)" style="fill: none; stroke: #ffffff; stroke-linecap: round"/>
     </g>
     <g id="text_13">
      <!-- 5.0 -->
      <g style="fill: #262626" transform="translate(39.030156 69.367869)scale(0.11 -0.11)">
       <use xlink:href="#DejaVuSans-35"/>
       <use xlink:href="#DejaVuSans-2e" x="63.623047"/>
       <use xlink:href="#DejaVuSans-30" x="95.410156"/>
      </g>
     </g>
    </g>
    <g id="ytick_8">
     <g id="line2d_13">
      <path d="M 66.023594 39.142532 
L 400.823594 39.142532 
" clip-path="url(#pd2604e143e)" style="fill: none; stroke: #ffffff; stroke-linecap: round"/>
     </g>
     <g id="text_14">
      <!-- 7.5 -->
      <g style="fill: #262626" transform="translate(39.030156 43.321673)scale(0.11 -0.11)">
       <use xlink:href="#DejaVuSans-37"/>
       <use xlink:href="#DejaVuSans-2e" x="63.623047"/>
       <use xlink:href="#DejaVuSans-35" x="95.410156"/>
      </g>
     </g>
    </g>
    <g id="ytick_9">
     <g id="line2d_14">
      <path d="M 66.023594 13.096336 
L 400.823594 13.096336 
" clip-path="url(#pd2604e143e)" style="fill: none; stroke: #ffffff; stroke-linecap: round"/>
     </g>
     <g id="text_15">
      <!-- 10.0 -->
      <g style="fill: #262626" transform="translate(32.031406 17.275477)scale(0.11 -0.11)">
       <use xlink:href="#DejaVuSans-31"/>
       <use xlink:href="#DejaVuSans-30" x="63.623047"/>
       <use xlink:href="#DejaVuSans-2e" x="127.246094"/>
       <use xlink:href="#DejaVuSans-30" x="159.033203"/>
      </g>
     </g>
    </g>
    <g id="text_16">
     <!-- Parameter $\theta$ -->
     <g style="fill: #262626" transform="translate(16.318125 153)rotate(-90)scale(0.12 -0.12)">
      <defs>
       <path id="DejaVuSans-50" d="M 1259 4147 
L 1259 2394 
L 2053 2394 
Q 2494 2394 2734 2622 
Q 2975 2850 2975 3272 
Q 2975 3691 2734 3919 
Q 2494 4147 2053 4147 
L 1259 4147 
z
M 628 4666 
L 2053 4666 
Q 2838 4666 3239 4311 
Q 3641 3956 3641 3272 
Q 3641 2581 3239 2228 
Q 2838 1875 2053 1875 
L 1259 1875 
L 1259 0 
L 628 0 
L 628 4666 
z
" transform="scale(0.015625)"/>
       <path id="DejaVuSans-6d" d="M 3328 2828 
Q 3544 3216 3844 3400 
Q 4144 3584 4550 3584 
Q 5097 3584 5394 3201 
Q 5691 2819 5691 2113 
L 5691 0 
L 5113 0 
L 5113 2094 
Q 5113 2597 4934 2840 
Q 4756 3084 4391 3084 
Q 3944 3084 3684 2787 
Q 3425 2491 3425 1978 
L 3425 0 
L 2847 0 
L 2847 2094 
Q 2847 2600 2669 2842 
Q 2491 3084 2119 3084 
Q 1678 3084 1418 2786 
Q 1159 2488 1159 1978 
L 1159 0 
L 581 0 
L 581 3500 
L 1159 3500 
L 1159 2956 
Q 1356 3278 1631 3431 
Q 1906 3584 2284 3584 
Q 2666 3584 2933 3390 
Q 3200 3197 3328 2828 
z
" transform="scale(0.015625)"/>
       <path id="DejaVuSans-Oblique-3b8" d="M 2913 2219 
L 925 2219 
Q 791 1284 928 888 
Q 1100 400 1566 400 
Q 2034 400 2391 891 
Q 2703 1322 2913 2219 
z
M 3009 2750 
Q 3094 3638 2984 3950 
Q 2813 4444 2353 4444 
Q 1875 4444 1525 3956 
Q 1250 3563 1034 2750 
L 3009 2750 
z
M 2444 4913 
Q 3194 4913 3494 4250 
Q 3794 3591 3566 2422 
Q 3341 1256 2781 594 
Q 2225 -72 1475 -72 
Q 722 -72 425 594 
Q 128 1256 353 2422 
Q 581 3591 1134 4250 
Q 1691 4913 2444 4913 
z
" transform="scale(0.015625)"/>
      </defs>
      <use xlink:href="#DejaVuSans-50" transform="translate(0 0.234375)"/>
      <use xlink:href="#DejaVuSans-61" transform="translate(60.302734 0.234375)"/>
      <use xlink:href="#DejaVuSans-72" transform="translate(121.582031 0.234375)"/>
      <use xlink:href="#DejaVuSans-61" transform="translate(162.695312 0.234375)"/>
      <use xlink:href="#DejaVuSans-6d" transform="translate(223.974609 0.234375)"/>
      <use xlink:href="#DejaVuSans-65" transform="translate(321.386719 0.234375)"/>
      <use xlink:href="#DejaVuSans-74" transform="translate(382.910156 0.234375)"/>
      <use xlink:href="#DejaVuSans-65" transform="translate(422.119141 0.234375)"/>
      <use xlink:href="#DejaVuSans-72" transform="translate(483.642578 0.234375)"/>
      <use xlink:href="#DejaVuSans-20" transform="translate(524.755859 0.234375)"/>
      <use xlink:href="#DejaVuSans-Oblique-3b8" transform="translate(556.542969 0.234375)"/>
     </g>
    </g>
   </g>
   <g id="PolyCollection_1">
    <defs>
     <path id="mafbcf09539" d="M 81.241776 -250.542301 
L 81.241776 -52.869574 
L 82.771245 -52.872336 
L 84.300703 -52.875277 
L 85.830173 -52.878427 
L 87.35963 -52.881785 
L 88.8891 -52.885451 
L 90.41857 -52.889386 
L 91.948027 -52.893609 
L 93.477497 -52.898159 
L 95.006967 -52.903097 
L 96.536424 -52.908413 
L 98.065894 -52.914206 
L 99.595364 -52.920445 
L 101.124821 -52.927222 
L 102.654291 -52.934584 
L 104.183761 -52.942602 
L 105.71323 -52.951306 
L 107.2427 -52.960835 
L 108.772158 -52.971198 
L 110.301627 -52.982554 
L 111.831085 -52.994984 
L 113.360555 -53.008586 
L 114.890024 -53.02351 
L 116.419482 -53.039934 
L 117.948952 -53.057997 
L 119.478409 -53.077879 
L 121.007879 -53.099797 
L 122.537349 -53.124021 
L 124.066806 -53.150768 
L 125.596276 -53.180377 
L 127.125734 -53.213185 
L 128.655203 -53.24957 
L 130.184673 -53.289949 
L 131.714131 -53.334819 
L 133.2436 -53.384727 
L 134.773058 -53.440199 
L 136.302534 -53.50199 
L 137.832003 -53.570776 
L 139.361473 -53.647401 
L 140.890931 -53.73271 
L 142.4204 -53.827726 
L 143.949858 -53.933434 
L 145.479328 -54.050925 
L 147.008797 -54.181372 
L 148.538255 -54.325929 
L 150.067725 -54.485796 
L 151.597183 -54.662058 
L 153.126658 -54.855837 
L 154.656122 -55.068026 
L 156.185585 -55.299412 
L 157.715055 -55.55054 
L 159.244513 -55.821699 
L 160.773982 -56.112939 
L 162.303452 -56.424089 
L 163.832921 -56.754724 
L 165.362379 -57.104326 
L 166.891843 -57.47228 
L 168.421307 -57.858128 
L 169.950776 -58.261354 
L 171.480246 -58.681849 
L 173.00971 -59.119502 
L 174.539168 -59.574643 
L 176.068631 -60.047678 
L 177.598107 -60.539264 
L 179.12757 -61.050095 
L 180.657034 -61.581086 
L 182.186492 -62.13329 
L 183.715962 -62.707988 
L 185.245434 -63.306881 
L 186.774898 -63.932371 
L 188.304361 -64.587908 
L 189.833831 -65.278647 
L 191.363286 -66.01213 
L 192.892758 -66.799704 
L 194.422231 -67.658006 
L 195.951695 -68.611703 
L 197.481155 -69.697665 
L 199.010619 -70.971374 
L 200.540083 -72.517693 
L 202.069555 -74.468604 
L 203.599019 -77.032373 
L 205.128483 -80.538818 
L 206.657944 -85.493059 
L 208.18741 -92.567762 
L 209.71688 -102.258346 
L 211.246351 -113.782618 
L 212.775807 -124.305472 
L 214.305268 -131.336668 
L 215.834741 -135.059233 
L 217.364204 -136.845266 
L 218.893677 -137.705343 
L 220.423138 -138.136279 
L 221.952603 -138.354048 
L 223.482065 -138.445421 
L 225.011536 -138.425879 
L 226.541001 -138.228427 
L 228.070463 -137.536728 
L 229.599934 -134.893235 
L 231.12939 -130.920098 
L 232.658861 -132.370914 
L 234.188332 -131.088096 
L 235.717788 -128.531198 
L 237.247259 -125.975664 
L 238.77673 -123.90004 
L 240.306186 -121.839199 
L 241.835657 -118.117787 
L 243.36512 -111.409816 
L 244.894585 -103.066839 
L 246.424056 -95.132876 
L 247.953517 -88.522048 
L 249.482983 -83.297722 
L 251.012453 -79.23163 
L 252.541915 -76.063286 
L 254.07138 -73.575065 
L 255.600843 -71.600779 
L 257.130308 -70.01736 
L 258.659777 -68.73374 
L 260.189241 -67.682762 
L 261.718705 -66.814062 
L 263.248168 -66.08967 
L 264.777638 -65.480682 
L 266.307105 -64.964744 
L 267.836565 -64.524597 
L 269.366038 -64.146528 
L 270.895502 -63.819828 
L 272.424962 -63.535941 
L 273.954435 -63.287814 
L 275.48389 -63.069971 
L 277.013362 -62.877722 
L 278.542826 -62.707402 
L 280.072296 -62.555861 
L 281.601759 -62.420525 
L 283.131214 -62.299218 
L 284.660695 -62.190182 
L 286.190159 -62.091837 
L 287.719617 -62.002842 
L 289.249092 -61.922153 
L 290.778556 -61.848817 
L 292.308014 -61.781968 
L 293.837489 -61.720903 
L 295.366947 -61.665024 
L 296.896411 -61.613844 
L 298.425886 -61.566877 
L 299.955344 -61.523557 
L 301.484808 -61.483764 
L 303.014278 -61.446962 
L 304.543741 -61.413061 
L 306.073205 -61.381604 
L 307.602675 -61.352571 
L 309.132138 -61.325635 
L 310.661602 -61.300547 
L 312.191072 -61.277288 
L 313.720535 -61.255647 
L 315.249993 -61.235497 
L 316.779469 -61.216749 
L 318.308938 -61.199232 
L 319.83839 -61.182877 
L 321.367866 -61.167606 
L 322.897335 -61.153358 
L 324.426787 -61.140004 
L 325.956257 -61.127495 
L 327.485721 -61.11581 
L 329.01519 -61.104792 
L 330.544654 -61.094538 
L 332.074118 -61.08483 
L 333.603587 -61.075779 
L 335.133045 -61.067184 
L 336.662515 -61.059186 
L 338.191984 -61.051615 
L 339.721442 -61.044521 
L 341.250912 -61.037814 
L 342.780381 -61.031465 
L 344.309839 -61.025494 
L 345.83932 -61.01992 
L 347.368766 -61.014564 
L 348.898236 -61.009596 
L 350.427717 -61.004867 
L 351.957175 -61.000376 
L 353.486633 -60.996153 
L 355.016103 -60.992159 
L 356.545572 -60.988354 
L 358.07503 -60.984796 
L 359.604499 -60.981379 
L 361.133969 -60.978149 
L 362.663427 -60.975159 
L 364.192896 -60.972238 
L 365.722366 -60.969525 
L 367.251824 -60.966922 
L 368.781293 -60.964458 
L 370.310763 -60.962123 
L 371.840221 -60.959887 
L 373.36969 -60.957771 
L 374.899137 -60.955774 
L 376.428618 -60.953886 
L 377.958076 -60.952078 
L 379.487534 -60.950369 
L 381.017015 -60.94871 
L 382.546496 -60.947189 
L 384.075931 -60.945749 
L 385.605412 -60.944278 
L 385.605412 -242.75663 
L 385.605412 -242.75663 
L 384.075931 -242.75514 
L 382.546496 -242.753679 
L 381.017015 -242.752119 
L 379.487534 -242.75044 
L 377.958076 -242.748711 
L 376.428618 -242.746883 
L 374.899137 -242.744956 
L 373.36969 -242.742939 
L 371.840221 -242.740803 
L 370.310763 -242.738527 
L 368.781293 -242.736153 
L 367.251824 -242.733669 
L 365.722366 -242.731026 
L 364.192896 -242.728273 
L 362.663427 -242.725313 
L 361.133969 -242.722282 
L 359.604499 -242.719013 
L 358.07503 -242.715536 
L 356.545572 -242.711939 
L 355.016103 -242.708074 
L 353.486633 -242.70402 
L 351.957175 -242.699738 
L 350.427717 -242.695187 
L 348.898236 -242.690378 
L 347.368766 -242.685351 
L 345.83932 -242.679916 
L 344.309839 -242.674262 
L 342.780381 -242.668211 
L 341.250912 -242.661783 
L 339.721442 -242.654977 
L 338.191984 -242.647783 
L 336.662515 -242.640113 
L 335.133045 -242.631995 
L 333.603587 -242.623281 
L 332.074118 -242.614111 
L 330.544654 -242.604264 
L 329.01519 -242.593871 
L 327.485721 -242.582694 
L 325.956257 -242.57085 
L 324.426787 -242.558162 
L 322.897335 -242.544629 
L 321.367866 -242.530183 
L 319.83839 -242.514693 
L 318.308938 -242.49812 
L 316.779469 -242.480345 
L 315.249993 -242.461337 
L 313.720535 -242.440929 
L 312.191072 -242.418971 
L 310.661602 -242.395393 
L 309.132138 -242.369967 
L 307.602675 -242.342654 
L 306.073205 -242.313224 
L 304.543741 -242.28133 
L 303.014278 -242.246972 
L 301.484808 -242.209673 
L 299.955344 -242.169323 
L 298.425886 -242.125407 
L 296.896411 -242.077804 
L 295.366947 -242.025929 
L 293.837489 -241.969295 
L 292.308014 -241.907395 
L 290.778556 -241.839652 
L 289.249092 -241.765322 
L 287.719617 -241.68354 
L 286.190159 -241.593353 
L 284.660695 -241.493696 
L 283.131214 -241.38319 
L 281.601759 -241.260274 
L 280.072296 -241.123149 
L 278.542826 -240.969601 
L 277.013362 -240.797055 
L 275.48389 -240.602283 
L 273.954435 -240.381618 
L 272.424962 -240.130291 
L 270.895502 -239.842768 
L 269.366038 -239.511934 
L 267.836565 -239.129116 
L 266.307105 -238.683504 
L 264.777638 -238.161267 
L 263.248168 -237.544947 
L 261.718705 -236.81205 
L 260.189241 -235.933434 
L 258.659777 -234.870896 
L 257.130308 -233.573857 
L 255.600843 -231.975027 
L 254.07138 -229.983453 
L 252.541915 -227.476871 
L 251.012453 -224.291377 
L 249.482983 -220.215022 
L 247.953517 -214.999896 
L 246.424056 -208.44146 
L 244.894585 -200.627342 
L 243.36512 -192.402652 
L 241.835657 -185.452575 
L 240.306186 -180.885906 
L 238.77673 -178.054541 
L 237.247259 -175.764721 
L 235.717788 -173.37045 
L 234.188332 -171.013588 
L 232.658861 -169.785345 
L 231.12939 -171.206164 
L 229.599934 -167.297201 
L 228.070463 -164.185299 
L 226.541001 -163.265713 
L 225.011536 -162.970865 
L 223.482065 -162.910901 
L 221.952603 -162.997359 
L 220.423138 -163.241293 
L 218.893677 -163.728066 
L 217.364204 -164.657423 
L 215.834741 -166.462859 
L 214.305268 -170.053642 
L 212.775807 -176.890453 
L 211.246351 -187.502805 
L 209.71688 -199.397857 
L 208.18741 -209.4758 
L 206.657944 -216.843103 
L 205.128483 -222.000382 
L 203.599019 -225.647758 
L 202.069555 -228.312296 
L 200.540083 -230.338133 
L 199.010619 -231.942457 
L 197.481155 -233.262816 
L 195.951695 -234.387617 
L 194.422231 -235.374603 
L 192.892758 -236.262171 
L 191.363286 -237.075995 
L 189.833831 -237.833364 
L 188.304361 -238.546082 
L 186.774898 -239.222026 
L 185.245434 -239.866554 
L 183.715962 -240.483232 
L 182.186492 -241.074623 
L 180.657034 -241.642485 
L 179.12757 -242.188161 
L 177.598107 -242.712783 
L 176.068631 -243.217285 
L 174.539168 -243.702442 
L 173.00971 -244.16893 
L 171.480246 -244.617195 
L 169.950776 -245.047586 
L 168.421307 -245.460052 
L 166.891843 -245.854485 
L 165.362379 -246.230387 
L 163.832921 -246.587322 
L 162.303452 -246.924713 
L 160.773982 -247.242044 
L 159.244513 -247.538927 
L 157.715055 -247.815212 
L 156.185585 -248.070971 
L 154.656122 -248.306549 
L 153.126658 -248.522495 
L 151.597183 -248.719672 
L 150.067725 -248.898974 
L 148.538255 -249.061564 
L 147.008797 -249.208564 
L 145.479328 -249.341198 
L 143.949858 -249.460656 
L 142.4204 -249.568112 
L 140.890931 -249.664718 
L 139.361473 -249.751438 
L 137.832003 -249.829316 
L 136.302534 -249.899254 
L 134.773058 -249.962058 
L 133.2436 -250.018464 
L 131.714131 -250.069186 
L 130.184673 -250.114812 
L 128.655203 -250.155867 
L 127.125734 -250.192868 
L 125.596276 -250.226212 
L 124.066806 -250.256318 
L 122.537349 -250.283522 
L 121.007879 -250.308143 
L 119.478409 -250.330439 
L 117.948952 -250.350659 
L 116.419482 -250.36902 
L 114.890024 -250.385722 
L 113.360555 -250.400904 
L 111.831085 -250.414745 
L 110.301627 -250.427373 
L 108.772158 -250.438929 
L 107.2427 -250.449471 
L 105.71323 -250.459158 
L 104.183761 -250.468021 
L 102.654291 -250.476178 
L 101.124821 -250.48366 
L 99.595364 -250.490555 
L 98.065894 -250.496894 
L 96.536424 -250.502786 
L 95.006967 -250.508201 
L 93.477497 -250.513219 
L 91.948027 -250.517849 
L 90.41857 -250.522151 
L 88.8891 -250.526145 
L 87.35963 -250.529871 
L 85.830173 -250.533309 
L 84.300703 -250.536499 
L 82.771245 -250.539499 
L 81.241776 -250.542301 
z
" style="stroke: #ff0000; stroke-opacity: 0.2"/>
    </defs>
    <g clip-path="url(#pd2604e143e)">
     <use xlink:href="#mafbcf09539" x="0" y="267.625937" style="fill: #ff0000; fill-opacity: 0.2; stroke: #ff0000; stroke-opacity: 0.2"/>
    </g>
   </g>
   <g id="PathCollection_1">
    <defs>
     <path id="mb1b6150af7" d="M 0 3 
C 0.795609 3 1.55874 2.683901 2.12132 2.12132 
C 2.683901 1.55874 3 0.795609 3 0 
C 3 -0.795609 2.683901 -1.55874 2.12132 -2.12132 
C 1.55874 -2.683901 0.795609 -3 0 -3 
C -0.795609 -3 -1.55874 -2.683901 -2.12132 -2.12132 
C -2.683901 -1.55874 -3 -0.795609 -3 0 
C -3 0.795609 -2.683901 1.55874 -2.12132 2.12132 
C -1.55874 2.683901 -0.795609 3 0 3 
z
" style="stroke: #ffffff; stroke-width: 0.48"/>
    </defs>
    <g clip-path="url(#pd2604e143e)">
     <use xlink:href="#mb1b6150af7" x="251.794963" y="169.373512" style="fill: #4c72b0; stroke: #ffffff; stroke-width: 0.48"/>
     <use xlink:href="#mb1b6150af7" x="254.463367" y="168.321138" style="fill: #4c72b0; stroke: #ffffff; stroke-width: 0.48"/>
     <use xlink:href="#mb1b6150af7" x="252.811503" y="167.268769" style="fill: #4c72b0; stroke: #ffffff; stroke-width: 0.48"/>
     <use xlink:href="#mb1b6150af7" x="247.616538" y="166.2164" style="fill: #4c72b0; stroke: #ffffff; stroke-width: 0.48"/>
     <use xlink:href="#mb1b6150af7" x="244.57343" y="165.164026" style="fill: #4c72b0; stroke: #ffffff; stroke-width: 0.48"/>
     <use xlink:href="#mb1b6150af7" x="245.794292" y="164.111653" style="fill: #4c72b0; stroke: #ffffff; stroke-width: 0.48"/>
     <use xlink:href="#mb1b6150af7" x="244.084244" y="163.059284" style="fill: #4c72b0; stroke: #ffffff; stroke-width: 0.48"/>
     <use xlink:href="#mb1b6150af7" x="250.649321" y="162.00691" style="fill: #4c72b0; stroke: #ffffff; stroke-width: 0.48"/>
     <use xlink:href="#mb1b6150af7" x="244.499494" y="160.954541" style="fill: #4c72b0; stroke: #ffffff; stroke-width: 0.48"/>
     <use xlink:href="#mb1b6150af7" x="239.19748" y="159.902167" style="fill: #4c72b0; stroke: #ffffff; stroke-width: 0.48"/>
     <use xlink:href="#mb1b6150af7" x="246.189418" y="158.849798" style="fill: #4c72b0; stroke: #ffffff; stroke-width: 0.48"/>
     <use xlink:href="#mb1b6150af7" x="242.384492" y="157.797424" style="fill: #4c72b0; stroke: #ffffff; stroke-width: 0.48"/>
     <use xlink:href="#mb1b6150af7" x="245.289315" y="156.745053" style="fill: #4c72b0; stroke: #ffffff; stroke-width: 0.48"/>
     <use xlink:href="#mb1b6150af7" x="248.456618" y="155.692682" style="fill: #4c72b0; stroke: #ffffff; stroke-width: 0.48"/>
     <use xlink:href="#mb1b6150af7" x="243.401003" y="154.640308" style="fill: #4c72b0; stroke: #ffffff; stroke-width: 0.48"/>
     <use xlink:href="#mb1b6150af7" x="246.489367" y="153.587939" style="fill: #4c72b0; stroke: #ffffff; stroke-width: 0.48"/>
     <use xlink:href="#mb1b6150af7" x="241.593748" y="152.535567" style="fill: #4c72b0; stroke: #ffffff; stroke-width: 0.48"/>
     <use xlink:href="#mb1b6150af7" x="236.247546" y="151.483196" style="fill: #4c72b0; stroke: #ffffff; stroke-width: 0.48"/>
     <use xlink:href="#mb1b6150af7" x="239.458392" y="150.430825" style="fill: #4c72b0; stroke: #ffffff; stroke-width: 0.48"/>
     <use xlink:href="#mb1b6150af7" x="234.521571" y="149.378453" style="fill: #4c72b0; stroke: #ffffff; stroke-width: 0.48"/>
     <use xlink:href="#mb1b6150af7" x="234.425083" y="148.326084" style="fill: #4c72b0; stroke: #ffffff; stroke-width: 0.48"/>
     <use xlink:href="#mb1b6150af7" x="235.346248" y="147.273708" style="fill: #4c72b0; stroke: #ffffff; stroke-width: 0.48"/>
     <use xlink:href="#mb1b6150af7" x="240.073714" y="146.221339" style="fill: #4c72b0; stroke: #ffffff; stroke-width: 0.48"/>
     <use xlink:href="#mb1b6150af7" x="238.614452" y="145.168968" style="fill: #4c72b0; stroke: #ffffff; stroke-width: 0.48"/>
     <use xlink:href="#mb1b6150af7" x="239.079259" y="144.116594" style="fill: #4c72b0; stroke: #ffffff; stroke-width: 0.48"/>
     <use xlink:href="#mb1b6150af7" x="236.687247" y="143.064225" style="fill: #4c72b0; stroke: #ffffff; stroke-width: 0.48"/>
     <use xlink:href="#mb1b6150af7" x="240.113492" y="142.011851" style="fill: #4c72b0; stroke: #ffffff; stroke-width: 0.48"/>
     <use xlink:href="#mb1b6150af7" x="233.779758" y="140.959482" style="fill: #4c72b0; stroke: #ffffff; stroke-width: 0.48"/>
     <use xlink:href="#mb1b6150af7" x="230.856847" y="139.907108" style="fill: #4c72b0; stroke: #ffffff; stroke-width: 0.48"/>
     <use xlink:href="#mb1b6150af7" x="236.422265" y="138.854737" style="fill: #4c72b0; stroke: #ffffff; stroke-width: 0.48"/>
     <use xlink:href="#mb1b6150af7" x="234.084987" y="137.802366" style="fill: #4c72b0; stroke: #ffffff; stroke-width: 0.48"/>
     <use xlink:href="#mb1b6150af7" x="234.764096" y="136.749993" style="fill: #4c72b0; stroke: #ffffff; stroke-width: 0.48"/>
     <use xlink:href="#mb1b6150af7" x="234.314815" y="135.697624" style="fill: #4c72b0; stroke: #ffffff; stroke-width: 0.48"/>
     <use xlink:href="#mb1b6150af7" x="231.218298" y="134.645249" style="fill: #4c72b0; stroke: #ffffff; stroke-width: 0.48"/>
     <use xlink:href="#mb1b6150af7" x="230.596815" y="133.59288" style="fill: #4c72b0; stroke: #ffffff; stroke-width: 0.48"/>
     <use xlink:href="#mb1b6150af7" x="236.128204" y="132.540509" style="fill: #4c72b0; stroke: #ffffff; stroke-width: 0.48"/>
     <use xlink:href="#mb1b6150af7" x="235.914162" y="131.488136" style="fill: #4c72b0; stroke: #ffffff; stroke-width: 0.48"/>
     <use xlink:href="#mb1b6150af7" x="231.405692" y="130.435767" style="fill: #4c72b0; stroke: #ffffff; stroke-width: 0.48"/>
     <use xlink:href="#mb1b6150af7" x="231.957005" y="129.383392" style="fill: #4c72b0; stroke: #ffffff; stroke-width: 0.48"/>
     <use xlink:href="#mb1b6150af7" x="230.774381" y="128.331023" style="fill: #4c72b0; stroke: #ffffff; stroke-width: 0.48"/>
     <use xlink:href="#mb1b6150af7" x="236.452216" y="127.278651" style="fill: #4c72b0; stroke: #ffffff; stroke-width: 0.48"/>
     <use xlink:href="#mb1b6150af7" x="234.443474" y="126.226278" style="fill: #4c72b0; stroke: #ffffff; stroke-width: 0.48"/>
     <use xlink:href="#mb1b6150af7" x="234.829688" y="125.173907" style="fill: #4c72b0; stroke: #ffffff; stroke-width: 0.48"/>
     <use xlink:href="#mb1b6150af7" x="230.344974" y="124.121534" style="fill: #4c72b0; stroke: #ffffff; stroke-width: 0.48"/>
     <use xlink:href="#mb1b6150af7" x="229.386128" y="123.069166" style="fill: #4c72b0; stroke: #ffffff; stroke-width: 0.48"/>
     <use xlink:href="#mb1b6150af7" x="236.140742" y="122.01679" style="fill: #4c72b0; stroke: #ffffff; stroke-width: 0.48"/>
     <use xlink:href="#mb1b6150af7" x="239.961232" y="120.964422" style="fill: #4c72b0; stroke: #ffffff; stroke-width: 0.48"/>
     <use xlink:href="#mb1b6150af7" x="235.735131" y="119.912049" style="fill: #4c72b0; stroke: #ffffff; stroke-width: 0.48"/>
     <use xlink:href="#mb1b6150af7" x="237.489237" y="118.859676" style="fill: #4c72b0; stroke: #ffffff; stroke-width: 0.48"/>
     <use xlink:href="#mb1b6150af7" x="235.665954" y="117.807308" style="fill: #4c72b0; stroke: #ffffff; stroke-width: 0.48"/>
     <use xlink:href="#mb1b6150af7" x="231.328074" y="116.754935" style="fill: #4c72b0; stroke: #ffffff; stroke-width: 0.48"/>
     <use xlink:href="#mb1b6150af7" x="234.756756" y="115.702564" style="fill: #4c72b0; stroke: #ffffff; stroke-width: 0.48"/>
     <use xlink:href="#mb1b6150af7" x="234.902475" y="114.650191" style="fill: #4c72b0; stroke: #ffffff; stroke-width: 0.48"/>
     <use xlink:href="#mb1b6150af7" x="237.11884" y="113.59782" style="fill: #4c72b0; stroke: #ffffff; stroke-width: 0.48"/>
     <use xlink:href="#mb1b6150af7" x="233.402447" y="112.545447" style="fill: #4c72b0; stroke: #ffffff; stroke-width: 0.48"/>
     <use xlink:href="#mb1b6150af7" x="229.735323" y="111.493076" style="fill: #4c72b0; stroke: #ffffff; stroke-width: 0.48"/>
     <use xlink:href="#mb1b6150af7" x="231.964027" y="110.440706" style="fill: #4c72b0; stroke: #ffffff; stroke-width: 0.48"/>
     <use xlink:href="#mb1b6150af7" x="235.5" y="109.388335" style="fill: #4c72b0; stroke: #ffffff; stroke-width: 0.48"/>
     <use xlink:href="#mb1b6150af7" x="234.244337" y="108.335962" style="fill: #4c72b0; stroke: #ffffff; stroke-width: 0.48"/>
     <use xlink:href="#mb1b6150af7" x="229.602569" y="107.283591" style="fill: #4c72b0; stroke: #ffffff; stroke-width: 0.48"/>
     <use xlink:href="#mb1b6150af7" x="232.140529" y="106.231218" style="fill: #4c72b0; stroke: #ffffff; stroke-width: 0.48"/>
     <use xlink:href="#mb1b6150af7" x="238.678539" y="105.178848" style="fill: #4c72b0; stroke: #ffffff; stroke-width: 0.48"/>
     <use xlink:href="#mb1b6150af7" x="238.199492" y="104.126477" style="fill: #4c72b0; stroke: #ffffff; stroke-width: 0.48"/>
     <use xlink:href="#mb1b6150af7" x="234.706561" y="103.074106" style="fill: #4c72b0; stroke: #ffffff; stroke-width: 0.48"/>
     <use xlink:href="#mb1b6150af7" x="240.52159" y="102.021734" style="fill: #4c72b0; stroke: #ffffff; stroke-width: 0.48"/>
     <use xlink:href="#mb1b6150af7" x="236.779375" y="100.96936" style="fill: #4c72b0; stroke: #ffffff; stroke-width: 0.48"/>
     <use xlink:href="#mb1b6150af7" x="238.326064" y="99.916989" style="fill: #4c72b0; stroke: #ffffff; stroke-width: 0.48"/>
     <use xlink:href="#mb1b6150af7" x="229.793601" y="98.86462" style="fill: #4c72b0; stroke: #ffffff; stroke-width: 0.48"/>
     <use xlink:href="#mb1b6150af7" x="240.788701" y="97.812248" style="fill: #4c72b0; stroke: #ffffff; stroke-width: 0.48"/>
     <use xlink:href="#mb1b6150af7" x="240.037388" y="96.759874" style="fill: #4c72b0; stroke: #ffffff; stroke-width: 0.48"/>
     <use xlink:href="#mb1b6150af7" x="233.347769" y="95.707505" style="fill: #4c72b0; stroke: #ffffff; stroke-width: 0.48"/>
     <use xlink:href="#mb1b6150af7" x="238.994582" y="94.655132" style="fill: #4c72b0; stroke: #ffffff; stroke-width: 0.48"/>
     <use xlink:href="#mb1b6150af7" x="235.079493" y="93.60276" style="fill: #4c72b0; stroke: #ffffff; stroke-width: 0.48"/>
     <use xlink:href="#mb1b6150af7" x="237.256382" y="92.550389" style="fill: #4c72b0; stroke: #ffffff; stroke-width: 0.48"/>
     <use xlink:href="#mb1b6150af7" x="237.415394" y="91.49802" style="fill: #4c72b0; stroke: #ffffff; stroke-width: 0.48"/>
     <use xlink:href="#mb1b6150af7" x="234.864656" y="90.445646" style="fill: #4c72b0; stroke: #ffffff; stroke-width: 0.48"/>
     <use xlink:href="#mb1b6150af7" x="237.709815" y="89.393275" style="fill: #4c72b0; stroke: #ffffff; stroke-width: 0.48"/>
     <use xlink:href="#mb1b6150af7" x="243.793086" y="88.340903" style="fill: #4c72b0; stroke: #ffffff; stroke-width: 0.48"/>
     <use xlink:href="#mb1b6150af7" x="239.490769" y="87.288532" style="fill: #4c72b0; stroke: #ffffff; stroke-width: 0.48"/>
     <use xlink:href="#mb1b6150af7" x="237.765123" y="86.236161" style="fill: #4c72b0; stroke: #ffffff; stroke-width: 0.48"/>
     <use xlink:href="#mb1b6150af7" x="240.678248" y="85.183792" style="fill: #4c72b0; stroke: #ffffff; stroke-width: 0.48"/>
     <use xlink:href="#mb1b6150af7" x="246.77996" y="84.131418" style="fill: #4c72b0; stroke: #ffffff; stroke-width: 0.48"/>
     <use xlink:href="#mb1b6150af7" x="235.720511" y="83.079044" style="fill: #4c72b0; stroke: #ffffff; stroke-width: 0.48"/>
     <use xlink:href="#mb1b6150af7" x="242.568346" y="82.02667" style="fill: #4c72b0; stroke: #ffffff; stroke-width: 0.48"/>
     <use xlink:href="#mb1b6150af7" x="242.482461" y="80.974301" style="fill: #4c72b0; stroke: #ffffff; stroke-width: 0.48"/>
     <use xlink:href="#mb1b6150af7" x="243.038351" y="79.921932" style="fill: #4c72b0; stroke: #ffffff; stroke-width: 0.48"/>
     <use xlink:href="#mb1b6150af7" x="244.995754" y="78.869558" style="fill: #4c72b0; stroke: #ffffff; stroke-width: 0.48"/>
     <use xlink:href="#mb1b6150af7" x="241.94382" y="77.817185" style="fill: #4c72b0; stroke: #ffffff; stroke-width: 0.48"/>
     <use xlink:href="#mb1b6150af7" x="238.586566" y="76.764818" style="fill: #4c72b0; stroke: #ffffff; stroke-width: 0.48"/>
     <use xlink:href="#mb1b6150af7" x="243.658794" y="75.712444" style="fill: #4c72b0; stroke: #ffffff; stroke-width: 0.48"/>
     <use xlink:href="#mb1b6150af7" x="248.218096" y="74.660073" style="fill: #4c72b0; stroke: #ffffff; stroke-width: 0.48"/>
     <use xlink:href="#mb1b6150af7" x="244.974748" y="73.607699" style="fill: #4c72b0; stroke: #ffffff; stroke-width: 0.48"/>
     <use xlink:href="#mb1b6150af7" x="245.173585" y="72.555335" style="fill: #4c72b0; stroke: #ffffff; stroke-width: 0.48"/>
     <use xlink:href="#mb1b6150af7" x="243.296029" y="71.502961" style="fill: #4c72b0; stroke: #ffffff; stroke-width: 0.48"/>
     <use xlink:href="#mb1b6150af7" x="246.6223" y="70.450587" style="fill: #4c72b0; stroke: #ffffff; stroke-width: 0.48"/>
     <use xlink:href="#mb1b6150af7" x="246.069513" y="69.398214" style="fill: #4c72b0; stroke: #ffffff; stroke-width: 0.48"/>
     <use xlink:href="#mb1b6150af7" x="247.678849" y="68.34584" style="fill: #4c72b0; stroke: #ffffff; stroke-width: 0.48"/>
     <use xlink:href="#mb1b6150af7" x="247.04099" y="67.293476" style="fill: #4c72b0; stroke: #ffffff; stroke-width: 0.48"/>
     <use xlink:href="#mb1b6150af7" x="256.398271" y="66.241102" style="fill: #4c72b0; stroke: #ffffff; stroke-width: 0.48"/>
     <use xlink:href="#mb1b6150af7" x="249.706392" y="65.188728" style="fill: #4c72b0; stroke: #ffffff; stroke-width: 0.48"/>
    </g>
   </g>
   <g id="PathCollection_2">
    <defs>
     <path id="m5a740ce560" d="M 0 3 
C 0.795609 3 1.55874 2.683901 2.12132 2.12132 
C 2.683901 1.55874 3 0.795609 3 0 
C 3 -0.795609 2.683901 -1.55874 2.12132 -2.12132 
C 1.55874 -2.683901 0.795609 -3 0 -3 
C -0.795609 -3 -1.55874 -2.683901 -2.12132 -2.12132 
C -2.683901 -1.55874 -3 -0.795609 -3 0 
C -3 0.795609 -2.683901 1.55874 -2.12132 2.12132 
C -1.55874 2.683901 -0.795609 3 0 3 
z
" style="stroke: #ffffff; stroke-width: 0.48"/>
    </defs>
    <g clip-path="url(#pd2604e143e)">
     <use xlink:href="#m5a740ce560" x="250.332693" y="169.373512" style="fill: #55a868; stroke: #ffffff; stroke-width: 0.48"/>
     <use xlink:href="#m5a740ce560" x="249.656396" y="168.321138" style="fill: #55a868; stroke: #ffffff; stroke-width: 0.48"/>
     <use xlink:href="#m5a740ce560" x="248.993905" y="167.268769" style="fill: #55a868; stroke: #ffffff; stroke-width: 0.48"/>
     <use xlink:href="#m5a740ce560" x="248.345216" y="166.2164" style="fill: #55a868; stroke: #ffffff; stroke-width: 0.48"/>
     <use xlink:href="#m5a740ce560" x="247.710325" y="165.164026" style="fill: #55a868; stroke: #ffffff; stroke-width: 0.48"/>
     <use xlink:href="#m5a740ce560" x="247.089236" y="164.111653" style="fill: #55a868; stroke: #ffffff; stroke-width: 0.48"/>
     <use xlink:href="#m5a740ce560" x="246.481952" y="163.059284" style="fill: #55a868; stroke: #ffffff; stroke-width: 0.48"/>
     <use xlink:href="#m5a740ce560" x="245.888468" y="162.00691" style="fill: #55a868; stroke: #ffffff; stroke-width: 0.48"/>
     <use xlink:href="#m5a740ce560" x="245.308788" y="160.954541" style="fill: #55a868; stroke: #ffffff; stroke-width: 0.48"/>
     <use xlink:href="#m5a740ce560" x="244.742907" y="159.902167" style="fill: #55a868; stroke: #ffffff; stroke-width: 0.48"/>
     <use xlink:href="#m5a740ce560" x="244.190832" y="158.849798" style="fill: #55a868; stroke: #ffffff; stroke-width: 0.48"/>
     <use xlink:href="#m5a740ce560" x="243.652554" y="157.797424" style="fill: #55a868; stroke: #ffffff; stroke-width: 0.48"/>
     <use xlink:href="#m5a740ce560" x="243.128081" y="156.745053" style="fill: #55a868; stroke: #ffffff; stroke-width: 0.48"/>
     <use xlink:href="#m5a740ce560" x="242.61741" y="155.692682" style="fill: #55a868; stroke: #ffffff; stroke-width: 0.48"/>
     <use xlink:href="#m5a740ce560" x="242.120539" y="154.640308" style="fill: #55a868; stroke: #ffffff; stroke-width: 0.48"/>
     <use xlink:href="#m5a740ce560" x="241.637472" y="153.587939" style="fill: #55a868; stroke: #ffffff; stroke-width: 0.48"/>
     <use xlink:href="#m5a740ce560" x="241.168206" y="152.535567" style="fill: #55a868; stroke: #ffffff; stroke-width: 0.48"/>
     <use xlink:href="#m5a740ce560" x="240.712743" y="151.483196" style="fill: #55a868; stroke: #ffffff; stroke-width: 0.48"/>
     <use xlink:href="#m5a740ce560" x="240.27108" y="150.430825" style="fill: #55a868; stroke: #ffffff; stroke-width: 0.48"/>
     <use xlink:href="#m5a740ce560" x="239.84322" y="149.378453" style="fill: #55a868; stroke: #ffffff; stroke-width: 0.48"/>
     <use xlink:href="#m5a740ce560" x="239.429163" y="148.326084" style="fill: #55a868; stroke: #ffffff; stroke-width: 0.48"/>
     <use xlink:href="#m5a740ce560" x="239.028906" y="147.273708" style="fill: #55a868; stroke: #ffffff; stroke-width: 0.48"/>
     <use xlink:href="#m5a740ce560" x="238.642452" y="146.221339" style="fill: #55a868; stroke: #ffffff; stroke-width: 0.48"/>
     <use xlink:href="#m5a740ce560" x="238.269799" y="145.168968" style="fill: #55a868; stroke: #ffffff; stroke-width: 0.48"/>
     <use xlink:href="#m5a740ce560" x="237.910948" y="144.116594" style="fill: #55a868; stroke: #ffffff; stroke-width: 0.48"/>
     <use xlink:href="#m5a740ce560" x="237.565901" y="143.064225" style="fill: #55a868; stroke: #ffffff; stroke-width: 0.48"/>
     <use xlink:href="#m5a740ce560" x="237.234653" y="142.011851" style="fill: #55a868; stroke: #ffffff; stroke-width: 0.48"/>
     <use xlink:href="#m5a740ce560" x="236.91721" y="140.959482" style="fill: #55a868; stroke: #ffffff; stroke-width: 0.48"/>
     <use xlink:href="#m5a740ce560" x="236.613567" y="139.907108" style="fill: #55a868; stroke: #ffffff; stroke-width: 0.48"/>
     <use xlink:href="#m5a740ce560" x="236.323726" y="138.854737" style="fill: #55a868; stroke: #ffffff; stroke-width: 0.48"/>
     <use xlink:href="#m5a740ce560" x="236.047687" y="137.802366" style="fill: #55a868; stroke: #ffffff; stroke-width: 0.48"/>
     <use xlink:href="#m5a740ce560" x="235.78545" y="136.749993" style="fill: #55a868; stroke: #ffffff; stroke-width: 0.48"/>
     <use xlink:href="#m5a740ce560" x="235.537016" y="135.697624" style="fill: #55a868; stroke: #ffffff; stroke-width: 0.48"/>
     <use xlink:href="#m5a740ce560" x="235.302382" y="134.645249" style="fill: #55a868; stroke: #ffffff; stroke-width: 0.48"/>
     <use xlink:href="#m5a740ce560" x="235.081552" y="133.59288" style="fill: #55a868; stroke: #ffffff; stroke-width: 0.48"/>
     <use xlink:href="#m5a740ce560" x="234.874523" y="132.540509" style="fill: #55a868; stroke: #ffffff; stroke-width: 0.48"/>
     <use xlink:href="#m5a740ce560" x="234.681295" y="131.488136" style="fill: #55a868; stroke: #ffffff; stroke-width: 0.48"/>
     <use xlink:href="#m5a740ce560" x="234.501871" y="130.435767" style="fill: #55a868; stroke: #ffffff; stroke-width: 0.48"/>
     <use xlink:href="#m5a740ce560" x="234.336247" y="129.383392" style="fill: #55a868; stroke: #ffffff; stroke-width: 0.48"/>
     <use xlink:href="#m5a740ce560" x="234.184426" y="128.331023" style="fill: #55a868; stroke: #ffffff; stroke-width: 0.48"/>
     <use xlink:href="#m5a740ce560" x="234.046406" y="127.278651" style="fill: #55a868; stroke: #ffffff; stroke-width: 0.48"/>
     <use xlink:href="#m5a740ce560" x="233.922189" y="126.226278" style="fill: #55a868; stroke: #ffffff; stroke-width: 0.48"/>
     <use xlink:href="#m5a740ce560" x="233.811773" y="125.173907" style="fill: #55a868; stroke: #ffffff; stroke-width: 0.48"/>
     <use xlink:href="#m5a740ce560" x="233.71516" y="124.121534" style="fill: #55a868; stroke: #ffffff; stroke-width: 0.48"/>
     <use xlink:href="#m5a740ce560" x="233.632348" y="123.069166" style="fill: #55a868; stroke: #ffffff; stroke-width: 0.48"/>
     <use xlink:href="#m5a740ce560" x="233.563338" y="122.01679" style="fill: #55a868; stroke: #ffffff; stroke-width: 0.48"/>
     <use xlink:href="#m5a740ce560" x="233.508131" y="120.964422" style="fill: #55a868; stroke: #ffffff; stroke-width: 0.48"/>
     <use xlink:href="#m5a740ce560" x="233.466725" y="119.912049" style="fill: #55a868; stroke: #ffffff; stroke-width: 0.48"/>
     <use xlink:href="#m5a740ce560" x="233.439121" y="118.859676" style="fill: #55a868; stroke: #ffffff; stroke-width: 0.48"/>
     <use xlink:href="#m5a740ce560" x="233.425319" y="117.807308" style="fill: #55a868; stroke: #ffffff; stroke-width: 0.48"/>
     <use xlink:href="#m5a740ce560" x="233.425319" y="116.754935" style="fill: #55a868; stroke: #ffffff; stroke-width: 0.48"/>
     <use xlink:href="#m5a740ce560" x="233.439121" y="115.702564" style="fill: #55a868; stroke: #ffffff; stroke-width: 0.48"/>
     <use xlink:href="#m5a740ce560" x="233.466725" y="114.650191" style="fill: #55a868; stroke: #ffffff; stroke-width: 0.48"/>
     <use xlink:href="#m5a740ce560" x="233.508131" y="113.59782" style="fill: #55a868; stroke: #ffffff; stroke-width: 0.48"/>
     <use xlink:href="#m5a740ce560" x="233.563338" y="112.545447" style="fill: #55a868; stroke: #ffffff; stroke-width: 0.48"/>
     <use xlink:href="#m5a740ce560" x="233.632348" y="111.493076" style="fill: #55a868; stroke: #ffffff; stroke-width: 0.48"/>
     <use xlink:href="#m5a740ce560" x="233.71516" y="110.440706" style="fill: #55a868; stroke: #ffffff; stroke-width: 0.48"/>
     <use xlink:href="#m5a740ce560" x="233.811773" y="109.388335" style="fill: #55a868; stroke: #ffffff; stroke-width: 0.48"/>
     <use xlink:href="#m5a740ce560" x="233.922189" y="108.335962" style="fill: #55a868; stroke: #ffffff; stroke-width: 0.48"/>
     <use xlink:href="#m5a740ce560" x="234.046406" y="107.283591" style="fill: #55a868; stroke: #ffffff; stroke-width: 0.48"/>
     <use xlink:href="#m5a740ce560" x="234.184426" y="106.231218" style="fill: #55a868; stroke: #ffffff; stroke-width: 0.48"/>
     <use xlink:href="#m5a740ce560" x="234.336247" y="105.178848" style="fill: #55a868; stroke: #ffffff; stroke-width: 0.48"/>
     <use xlink:href="#m5a740ce560" x="234.50187" y="104.126477" style="fill: #55a868; stroke: #ffffff; stroke-width: 0.48"/>
     <use xlink:href="#m5a740ce560" x="234.681295" y="103.074106" style="fill: #55a868; stroke: #ffffff; stroke-width: 0.48"/>
     <use xlink:href="#m5a740ce560" x="234.874522" y="102.021734" style="fill: #55a868; stroke: #ffffff; stroke-width: 0.48"/>
     <use xlink:href="#m5a740ce560" x="235.081552" y="100.96936" style="fill: #55a868; stroke: #ffffff; stroke-width: 0.48"/>
     <use xlink:href="#m5a740ce560" x="235.302383" y="99.916989" style="fill: #55a868; stroke: #ffffff; stroke-width: 0.48"/>
     <use xlink:href="#m5a740ce560" x="235.537015" y="98.86462" style="fill: #55a868; stroke: #ffffff; stroke-width: 0.48"/>
     <use xlink:href="#m5a740ce560" x="235.78545" y="97.812248" style="fill: #55a868; stroke: #ffffff; stroke-width: 0.48"/>
     <use xlink:href="#m5a740ce560" x="236.047687" y="96.759874" style="fill: #55a868; stroke: #ffffff; stroke-width: 0.48"/>
     <use xlink:href="#m5a740ce560" x="236.323725" y="95.707505" style="fill: #55a868; stroke: #ffffff; stroke-width: 0.48"/>
     <use xlink:href="#m5a740ce560" x="236.613567" y="94.655132" style="fill: #55a868; stroke: #ffffff; stroke-width: 0.48"/>
     <use xlink:href="#m5a740ce560" x="236.917209" y="93.60276" style="fill: #55a868; stroke: #ffffff; stroke-width: 0.48"/>
     <use xlink:href="#m5a740ce560" x="237.234653" y="92.550389" style="fill: #55a868; stroke: #ffffff; stroke-width: 0.48"/>
     <use xlink:href="#m5a740ce560" x="237.565899" y="91.49802" style="fill: #55a868; stroke: #ffffff; stroke-width: 0.48"/>
     <use xlink:href="#m5a740ce560" x="237.910948" y="90.445646" style="fill: #55a868; stroke: #ffffff; stroke-width: 0.48"/>
     <use xlink:href="#m5a740ce560" x="238.269799" y="89.393275" style="fill: #55a868; stroke: #ffffff; stroke-width: 0.48"/>
     <use xlink:href="#m5a740ce560" x="238.642451" y="88.340903" style="fill: #55a868; stroke: #ffffff; stroke-width: 0.48"/>
     <use xlink:href="#m5a740ce560" x="239.028906" y="87.288532" style="fill: #55a868; stroke: #ffffff; stroke-width: 0.48"/>
     <use xlink:href="#m5a740ce560" x="239.429161" y="86.236161" style="fill: #55a868; stroke: #ffffff; stroke-width: 0.48"/>
     <use xlink:href="#m5a740ce560" x="239.843219" y="85.183792" style="fill: #55a868; stroke: #ffffff; stroke-width: 0.48"/>
     <use xlink:href="#m5a740ce560" x="240.27108" y="84.131418" style="fill: #55a868; stroke: #ffffff; stroke-width: 0.48"/>
     <use xlink:href="#m5a740ce560" x="240.712743" y="83.079044" style="fill: #55a868; stroke: #ffffff; stroke-width: 0.48"/>
     <use xlink:href="#m5a740ce560" x="241.168207" y="82.02667" style="fill: #55a868; stroke: #ffffff; stroke-width: 0.48"/>
     <use xlink:href="#m5a740ce560" x="241.637472" y="80.974301" style="fill: #55a868; stroke: #ffffff; stroke-width: 0.48"/>
     <use xlink:href="#m5a740ce560" x="242.120539" y="79.921932" style="fill: #55a868; stroke: #ffffff; stroke-width: 0.48"/>
     <use xlink:href="#m5a740ce560" x="242.61741" y="78.869558" style="fill: #55a868; stroke: #ffffff; stroke-width: 0.48"/>
     <use xlink:href="#m5a740ce560" x="243.128082" y="77.817185" style="fill: #55a868; stroke: #ffffff; stroke-width: 0.48"/>
     <use xlink:href="#m5a740ce560" x="243.652553" y="76.764818" style="fill: #55a868; stroke: #ffffff; stroke-width: 0.48"/>
     <use xlink:href="#m5a740ce560" x="244.19083" y="75.712444" style="fill: #55a868; stroke: #ffffff; stroke-width: 0.48"/>
     <use xlink:href="#m5a740ce560" x="244.742907" y="74.660073" style="fill: #55a868; stroke: #ffffff; stroke-width: 0.48"/>
     <use xlink:href="#m5a740ce560" x="245.308788" y="73.607699" style="fill: #55a868; stroke: #ffffff; stroke-width: 0.48"/>
     <use xlink:href="#m5a740ce560" x="245.888465" y="72.555335" style="fill: #55a868; stroke: #ffffff; stroke-width: 0.48"/>
     <use xlink:href="#m5a740ce560" x="246.48195" y="71.502961" style="fill: #55a868; stroke: #ffffff; stroke-width: 0.48"/>
     <use xlink:href="#m5a740ce560" x="247.089236" y="70.450587" style="fill: #55a868; stroke: #ffffff; stroke-width: 0.48"/>
     <use xlink:href="#m5a740ce560" x="247.710325" y="69.398214" style="fill: #55a868; stroke: #ffffff; stroke-width: 0.48"/>
     <use xlink:href="#m5a740ce560" x="248.345216" y="68.34584" style="fill: #55a868; stroke: #ffffff; stroke-width: 0.48"/>
     <use xlink:href="#m5a740ce560" x="248.993902" y="67.293476" style="fill: #55a868; stroke: #ffffff; stroke-width: 0.48"/>
     <use xlink:href="#m5a740ce560" x="249.656396" y="66.241102" style="fill: #55a868; stroke: #ffffff; stroke-width: 0.48"/>
     <use xlink:href="#m5a740ce560" x="250.332693" y="65.188728" style="fill: #55a868; stroke: #ffffff; stroke-width: 0.48"/>
    </g>
   </g>
   <g id="line2d_15">
    <path d="M 81.241776 115.919997 
L 183.715962 116.030324 
L 202.069555 116.235487 
L 206.657944 116.457857 
L 212.775807 117.027974 
L 215.834741 116.864892 
L 226.541001 116.878868 
L 228.070463 116.764923 
L 229.599934 116.53072 
L 238.77673 116.648647 
L 241.835657 115.840757 
L 243.36512 115.719702 
L 249.482983 115.869568 
L 309.132138 115.778137 
L 385.605412 115.775486 
L 385.605412 115.775486 
" clip-path="url(#pd2604e143e)" style="fill: none; stroke: #ff0000; stroke-width: 1.5; stroke-linecap: round"/>
   </g>
   <g id="line2d_16">
    <path d="M 81.241776 17.083636 
L 116.419482 17.256917 
L 130.184673 17.511126 
L 139.361473 17.874499 
L 147.008797 18.417373 
L 153.126658 19.103443 
L 157.715055 19.810725 
L 162.303452 20.701224 
L 166.891843 21.771453 
L 173.00971 23.457008 
L 179.12757 25.437776 
L 183.715962 27.142706 
L 188.304361 29.079856 
L 191.363286 30.549942 
L 194.422231 32.251335 
L 195.951695 33.238321 
L 197.481155 34.363122 
L 199.010619 35.68348 
L 200.540083 37.287805 
L 202.069555 39.313642 
L 203.599019 41.97818 
L 205.128483 45.625555 
L 206.657944 50.782835 
L 208.18741 58.150138 
L 209.71688 68.22808 
L 211.246351 80.123133 
L 212.775807 90.735484 
L 214.305268 97.572295 
L 215.834741 101.163079 
L 217.364204 102.968515 
L 218.893677 103.897872 
L 220.423138 104.384644 
L 221.952603 104.628579 
L 223.482065 104.715037 
L 225.011536 104.655073 
L 226.541001 104.360224 
L 228.070463 103.440638 
L 229.599934 100.328737 
L 231.12939 96.419773 
L 232.658861 97.840593 
L 234.188332 96.61235 
L 238.77673 89.571397 
L 240.306186 86.740032 
L 241.835657 82.173363 
L 243.36512 75.223286 
L 246.424056 59.184478 
L 247.953517 52.626042 
L 249.482983 47.410916 
L 251.012453 43.33456 
L 252.541915 40.149067 
L 254.07138 37.642484 
L 255.600843 35.650911 
L 257.130308 34.052081 
L 258.659777 32.755042 
L 260.189241 31.692504 
L 261.718705 30.813888 
L 264.777638 29.464671 
L 267.836565 28.496821 
L 270.895502 27.78317 
L 275.48389 27.023655 
L 280.072296 26.502788 
L 286.190159 26.032585 
L 295.366947 25.600008 
L 307.602675 25.283284 
L 325.956257 25.055087 
L 358.07503 24.910402 
L 385.605412 24.869307 
L 385.605412 24.869307 
" clip-path="url(#pd2604e143e)" style="fill: none; stroke-dasharray: 5.55,2.4; stroke-dashoffset: 0; stroke: #ff0000; stroke-width: 1.5"/>
   </g>
   <g id="line2d_17">
    <path d="M 81.241776 214.756364 
L 116.419482 214.586004 
L 130.184673 214.335988 
L 139.361473 213.978537 
L 147.008797 213.444565 
L 153.126658 212.770101 
L 157.715055 212.075397 
L 162.303452 211.201848 
L 168.421307 209.767809 
L 174.539168 208.051294 
L 180.657034 206.044852 
L 185.245434 204.319057 
L 189.833831 202.34729 
L 192.892758 200.826233 
L 195.951695 199.014235 
L 197.481155 197.928273 
L 199.010619 196.654563 
L 200.540083 195.108244 
L 202.069555 193.157333 
L 203.599019 190.593565 
L 205.128483 187.087119 
L 206.657944 182.132878 
L 208.18741 175.058176 
L 209.71688 165.367592 
L 211.246351 153.84332 
L 212.775807 143.320465 
L 214.305268 136.28927 
L 215.834741 132.566705 
L 217.364204 130.780671 
L 218.893677 129.920594 
L 220.423138 129.489658 
L 221.952603 129.27189 
L 225.011536 129.200059 
L 226.541001 129.397511 
L 228.070463 130.089209 
L 229.599934 132.732703 
L 231.12939 136.705839 
L 232.658861 135.255024 
L 234.188332 136.537842 
L 237.247259 141.650274 
L 240.306186 145.786738 
L 241.835657 149.508151 
L 243.36512 156.216121 
L 246.424056 172.493061 
L 247.953517 179.103889 
L 249.482983 184.328216 
L 251.012453 188.394307 
L 252.541915 191.562652 
L 254.07138 194.050873 
L 255.600843 196.025158 
L 257.130308 197.608577 
L 258.659777 198.892198 
L 260.189241 199.943176 
L 261.718705 200.811876 
L 264.777638 202.145255 
L 267.836565 203.101341 
L 270.895502 203.806109 
L 275.48389 204.555967 
L 280.072296 205.070077 
L 286.190159 205.5341 
L 295.366947 205.960914 
L 307.602675 206.273366 
L 325.956257 206.498443 
L 359.604499 206.644559 
L 385.605412 206.681659 
L 385.605412 206.681659 
" clip-path="url(#pd2604e143e)" style="fill: none; stroke-dasharray: 5.55,2.4; stroke-dashoffset: 0; stroke: #ff0000; stroke-width: 1.5"/>
   </g>
   <g id="patch_3">
    <path d="M 66.023594 224.64 
L 66.023594 7.2 
" style="fill: none; stroke: #ffffff; stroke-width: 1.25; stroke-linejoin: miter; stroke-linecap: square"/>
   </g>
   <g id="patch_4">
    <path d="M 400.823594 224.64 
L 400.823594 7.2 
" style="fill: none; stroke: #ffffff; stroke-width: 1.25; stroke-linejoin: miter; stroke-linecap: square"/>
   </g>
   <g id="patch_5">
    <path d="M 66.023594 224.64 
L 400.823594 224.64 
" style="fill: none; stroke: #ffffff; stroke-width: 1.25; stroke-linejoin: miter; stroke-linecap: square"/>
   </g>
   <g id="patch_6">
    <path d="M 66.023594 7.2 
L 400.823594 7.2 
" style="fill: none; stroke: #ffffff; stroke-width: 1.25; stroke-linejoin: miter; stroke-linecap: square"/>
   </g>
   <g id="legend_1">
    <g id="patch_7">
     <path d="M 168.634453 64.437812 
L 298.212734 64.437812 
Q 300.412734 64.437812 300.412734 62.237812 
L 300.412734 14.9 
Q 300.412734 12.7 298.212734 12.7 
L 168.634453 12.7 
Q 166.434453 12.7 166.434453 14.9 
L 166.434453 62.237812 
Q 166.434453 64.437812 168.634453 64.437812 
z
" style="fill: #eaeaf2; opacity: 0.8; stroke: #cccccc; stroke-linejoin: miter"/>
    </g>
    <g id="line2d_18">
     <path d="M 170.834453 21.608281 
L 181.834453 21.608281 
L 192.834453 21.608281 
" style="fill: none; stroke: #ff0000; stroke-width: 1.5; stroke-linecap: round"/>
    </g>
    <g id="text_17">
     <!-- Predicted Mean -->
     <g style="fill: #262626" transform="translate(201.634453 25.458281)scale(0.11 -0.11)">
      <defs>
       <path id="DejaVuSans-64" d="M 2906 2969 
L 2906 4863 
L 3481 4863 
L 3481 0 
L 2906 0 
L 2906 525 
Q 2725 213 2448 61 
Q 2172 -91 1784 -91 
Q 1150 -91 751 415 
Q 353 922 353 1747 
Q 353 2572 751 3078 
Q 1150 3584 1784 3584 
Q 2172 3584 2448 3432 
Q 2725 3281 2906 2969 
z
M 947 1747 
Q 947 1113 1208 752 
Q 1469 391 1925 391 
Q 2381 391 2643 752 
Q 2906 1113 2906 1747 
Q 2906 2381 2643 2742 
Q 2381 3103 1925 3103 
Q 1469 3103 1208 2742 
Q 947 2381 947 1747 
z
" transform="scale(0.015625)"/>
       <path id="DejaVuSans-63" d="M 3122 3366 
L 3122 2828 
Q 2878 2963 2633 3030 
Q 2388 3097 2138 3097 
Q 1578 3097 1268 2742 
Q 959 2388 959 1747 
Q 959 1106 1268 751 
Q 1578 397 2138 397 
Q 2388 397 2633 464 
Q 2878 531 3122 666 
L 3122 134 
Q 2881 22 2623 -34 
Q 2366 -91 2075 -91 
Q 1284 -91 818 406 
Q 353 903 353 1747 
Q 353 2603 823 3093 
Q 1294 3584 2113 3584 
Q 2378 3584 2631 3529 
Q 2884 3475 3122 3366 
z
" transform="scale(0.015625)"/>
       <path id="DejaVuSans-4d" d="M 628 4666 
L 1569 4666 
L 2759 1491 
L 3956 4666 
L 4897 4666 
L 4897 0 
L 4281 0 
L 4281 4097 
L 3078 897 
L 2444 897 
L 1241 4097 
L 1241 0 
L 628 0 
L 628 4666 
z
" transform="scale(0.015625)"/>
      </defs>
      <use xlink:href="#DejaVuSans-50"/>
      <use xlink:href="#DejaVuSans-72" x="58.552734"/>
      <use xlink:href="#DejaVuSans-65" x="97.416016"/>
      <use xlink:href="#DejaVuSans-64" x="158.939453"/>
      <use xlink:href="#DejaVuSans-69" x="222.416016"/>
      <use xlink:href="#DejaVuSans-63" x="250.199219"/>
      <use xlink:href="#DejaVuSans-74" x="305.179688"/>
      <use xlink:href="#DejaVuSans-65" x="344.388672"/>
      <use xlink:href="#DejaVuSans-64" x="405.912109"/>
      <use xlink:href="#DejaVuSans-20" x="469.388672"/>
      <use xlink:href="#DejaVuSans-4d" x="501.175781"/>
      <use xlink:href="#DejaVuSans-65" x="587.455078"/>
      <use xlink:href="#DejaVuSans-61" x="648.978516"/>
      <use xlink:href="#DejaVuSans-6e" x="710.257812"/>
     </g>
    </g>
    <g id="PathCollection_3">
     <g>
      <use xlink:href="#mb1b6150af7" x="181.834453" y="38.716719" style="fill: #4c72b0; stroke: #ffffff; stroke-width: 0.48"/>
     </g>
    </g>
    <g id="text_18">
     <!-- Observations -->
     <g style="fill: #262626" transform="translate(201.634453 41.604219)scale(0.11 -0.11)">
      <use xlink:href="#DejaVuSans-4f"/>
      <use xlink:href="#DejaVuSans-62" x="78.710938"/>
      <use xlink:href="#DejaVuSans-73" x="142.1875"/>
      <use xlink:href="#DejaVuSans-65" x="194.287109"/>
      <use xlink:href="#DejaVuSans-72" x="255.810547"/>
      <use xlink:href="#DejaVuSans-76" x="296.923828"/>
      <use xlink:href="#DejaVuSans-61" x="356.103516"/>
      <use xlink:href="#DejaVuSans-74" x="417.382812"/>
      <use xlink:href="#DejaVuSans-69" x="456.591797"/>
      <use xlink:href="#DejaVuSans-6f" x="484.375"/>
      <use xlink:href="#DejaVuSans-6e" x="545.556641"/>
      <use xlink:href="#DejaVuSans-73" x="608.935547"/>
     </g>
    </g>
    <g id="PathCollection_4">
     <g>
      <use xlink:href="#m5a740ce560" x="181.834453" y="54.862656" style="fill: #55a868; stroke: #ffffff; stroke-width: 0.48"/>
     </g>
    </g>
    <g id="text_19">
     <!-- True Relationship -->
     <g style="fill: #262626" transform="translate(201.634453 57.750156)scale(0.11 -0.11)">
      <defs>
       <path id="DejaVuSans-54" d="M -19 4666 
L 3928 4666 
L 3928 4134 
L 2272 4134 
L 2272 0 
L 1638 0 
L 1638 4134 
L -19 4134 
L -19 4666 
z
" transform="scale(0.015625)"/>
       <path id="DejaVuSans-75" d="M 544 1381 
L 544 3500 
L 1119 3500 
L 1119 1403 
Q 1119 906 1312 657 
Q 1506 409 1894 409 
Q 2359 409 2629 706 
Q 2900 1003 2900 1516 
L 2900 3500 
L 3475 3500 
L 3475 0 
L 2900 0 
L 2900 538 
Q 2691 219 2414 64 
Q 2138 -91 1772 -91 
Q 1169 -91 856 284 
Q 544 659 544 1381 
z
M 1991 3584 
L 1991 3584 
z
" transform="scale(0.015625)"/>
       <path id="DejaVuSans-52" d="M 2841 2188 
Q 3044 2119 3236 1894 
Q 3428 1669 3622 1275 
L 4263 0 
L 3584 0 
L 2988 1197 
Q 2756 1666 2539 1819 
Q 2322 1972 1947 1972 
L 1259 1972 
L 1259 0 
L 628 0 
L 628 4666 
L 2053 4666 
Q 2853 4666 3247 4331 
Q 3641 3997 3641 3322 
Q 3641 2881 3436 2590 
Q 3231 2300 2841 2188 
z
M 1259 4147 
L 1259 2491 
L 2053 2491 
Q 2509 2491 2742 2702 
Q 2975 2913 2975 3322 
Q 2975 3731 2742 3939 
Q 2509 4147 2053 4147 
L 1259 4147 
z
" transform="scale(0.015625)"/>
       <path id="DejaVuSans-6c" d="M 603 4863 
L 1178 4863 
L 1178 0 
L 603 0 
L 603 4863 
z
" transform="scale(0.015625)"/>
       <path id="DejaVuSans-68" d="M 3513 2113 
L 3513 0 
L 2938 0 
L 2938 2094 
Q 2938 2591 2744 2837 
Q 2550 3084 2163 3084 
Q 1697 3084 1428 2787 
Q 1159 2491 1159 1978 
L 1159 0 
L 581 0 
L 581 4863 
L 1159 4863 
L 1159 2956 
Q 1366 3272 1645 3428 
Q 1925 3584 2291 3584 
Q 2894 3584 3203 3211 
Q 3513 2838 3513 2113 
z
" transform="scale(0.015625)"/>
       <path id="DejaVuSans-70" d="M 1159 525 
L 1159 -1331 
L 581 -1331 
L 581 3500 
L 1159 3500 
L 1159 2969 
Q 1341 3281 1617 3432 
Q 1894 3584 2278 3584 
Q 2916 3584 3314 3078 
Q 3713 2572 3713 1747 
Q 3713 922 3314 415 
Q 2916 -91 2278 -91 
Q 1894 -91 1617 61 
Q 1341 213 1159 525 
z
M 3116 1747 
Q 3116 2381 2855 2742 
Q 2594 3103 2138 3103 
Q 1681 3103 1420 2742 
Q 1159 2381 1159 1747 
Q 1159 1113 1420 752 
Q 1681 391 2138 391 
Q 2594 391 2855 752 
Q 3116 1113 3116 1747 
z
" transform="scale(0.015625)"/>
      </defs>
      <use xlink:href="#DejaVuSans-54"/>
      <use xlink:href="#DejaVuSans-72" x="46.333984"/>
      <use xlink:href="#DejaVuSans-75" x="87.447266"/>
      <use xlink:href="#DejaVuSans-65" x="150.826172"/>
      <use xlink:href="#DejaVuSans-20" x="212.349609"/>
      <use xlink:href="#DejaVuSans-52" x="244.136719"/>
      <use xlink:href="#DejaVuSans-65" x="309.119141"/>
      <use xlink:href="#DejaVuSans-6c" x="370.642578"/>
      <use xlink:href="#DejaVuSans-61" x="398.425781"/>
      <use xlink:href="#DejaVuSans-74" x="459.705078"/>
      <use xlink:href="#DejaVuSans-69" x="498.914062"/>
      <use xlink:href="#DejaVuSans-6f" x="526.697266"/>
      <use xlink:href="#DejaVuSans-6e" x="587.878906"/>
      <use xlink:href="#DejaVuSans-73" x="651.257812"/>
      <use xlink:href="#DejaVuSans-68" x="703.357422"/>
      <use xlink:href="#DejaVuSans-69" x="766.736328"/>
      <use xlink:href="#DejaVuSans-70" x="794.519531"/>
     </g>
    </g>
   </g>
  </g>
 </g>
 <defs>
  <clipPath id="pd2604e143e">
   <rect x="66.023594" y="7.2" width="334.8" height="217.44"/>
  </clipPath>
 </defs>
</svg>
