<?xml version="1.0" encoding="utf-8" standalone="no"?>
<!DOCTYPE svg PUBLIC "-//W3C//DTD SVG 1.1//EN"
  "http://www.w3.org/Graphics/SVG/1.1/DTD/svg11.dtd">
<svg xmlns:xlink="http://www.w3.org/1999/xlink" width="423.505156pt" height="276.085938pt" viewBox="0 0 423.505156 276.085938" xmlns="http://www.w3.org/2000/svg" version="1.1">
 <metadata>
  <rdf:RDF xmlns:dc="http://purl.org/dc/elements/1.1/" xmlns:cc="http://creativecommons.org/ns#" xmlns:rdf="http://www.w3.org/1999/02/22-rdf-syntax-ns#">
   <cc:Work>
    <dc:type rdf:resource="http://purl.org/dc/dcmitype/StillImage"/>
    <dc:date>2022-06-22T22:29:23.619024</dc:date>
    <dc:format>image/svg+xml</dc:format>
    <dc:creator>
     <cc:Agent>
      <dc:title>Matplotlib v3.5.2, https://matplotlib.org/</dc:title>
     </cc:Agent>
    </dc:creator>
   </cc:Work>
  </rdf:RDF>
 </metadata>
 <defs>
  <style type="text/css">*{stroke-linejoin: round; stroke-linecap: butt}</style>
 </defs>
 <g id="figure_1">
  <g id="patch_1">
   <path d="M 0 276.085938 
L 423.505156 276.085938 
L 423.505156 0 
L 0 0 
L 0 276.085938 
z
" style="fill: none"/>
  </g>
  <g id="axes_1">
   <g id="patch_2">
    <path d="M 48.530156 233.1 
L 416.305156 233.1 
L 416.305156 7.2 
L 48.530156 7.2 
z
" style="fill: #eaeaf2"/>
   </g>
   <g id="matplotlib.axis_1">
    <g id="xtick_1">
     <g id="line2d_1">
      <path d="M 98.681293 233.1 
L 98.681293 7.2 
" clip-path="url(#pc4c0773b1c)" style="fill: none; stroke: #ffffff; stroke-linecap: round"/>
     </g>
     <g id="text_1">
      <!-- −40 -->
      <g style="fill: #262626" transform="translate(87.073714 250.958281)scale(0.11 -0.11)">
       <defs>
        <path id="DejaVuSans-2212" d="M 678 2272 
L 4684 2272 
L 4684 1741 
L 678 1741 
L 678 2272 
z
" transform="scale(0.015625)"/>
        <path id="DejaVuSans-34" d="M 2419 4116 
L 825 1625 
L 2419 1625 
L 2419 4116 
z
M 2253 4666 
L 3047 4666 
L 3047 1625 
L 3713 1625 
L 3713 1100 
L 3047 1100 
L 3047 0 
L 2419 0 
L 2419 1100 
L 313 1100 
L 313 1709 
L 2253 4666 
z
" transform="scale(0.015625)"/>
        <path id="DejaVuSans-30" d="M 2034 4250 
Q 1547 4250 1301 3770 
Q 1056 3291 1056 2328 
Q 1056 1369 1301 889 
Q 1547 409 2034 409 
Q 2525 409 2770 889 
Q 3016 1369 3016 2328 
Q 3016 3291 2770 3770 
Q 2525 4250 2034 4250 
z
M 2034 4750 
Q 2819 4750 3233 4129 
Q 3647 3509 3647 2328 
Q 3647 1150 3233 529 
Q 2819 -91 2034 -91 
Q 1250 -91 836 529 
Q 422 1150 422 2328 
Q 422 3509 836 4129 
Q 1250 4750 2034 4750 
z
" transform="scale(0.015625)"/>
       </defs>
       <use xlink:href="#DejaVuSans-2212"/>
       <use xlink:href="#DejaVuSans-34" x="83.789062"/>
       <use xlink:href="#DejaVuSans-30" x="147.412109"/>
      </g>
     </g>
    </g>
    <g id="xtick_2">
     <g id="line2d_2">
      <path d="M 165.549474 233.1 
L 165.549474 7.2 
" clip-path="url(#pc4c0773b1c)" style="fill: none; stroke: #ffffff; stroke-linecap: round"/>
     </g>
     <g id="text_2">
      <!-- −20 -->
      <g style="fill: #262626" transform="translate(153.941896 250.958281)scale(0.11 -0.11)">
       <defs>
        <path id="DejaVuSans-32" d="M 1228 531 
L 3431 531 
L 3431 0 
L 469 0 
L 469 531 
Q 828 903 1448 1529 
Q 2069 2156 2228 2338 
Q 2531 2678 2651 2914 
Q 2772 3150 2772 3378 
Q 2772 3750 2511 3984 
Q 2250 4219 1831 4219 
Q 1534 4219 1204 4116 
Q 875 4013 500 3803 
L 500 4441 
Q 881 4594 1212 4672 
Q 1544 4750 1819 4750 
Q 2544 4750 2975 4387 
Q 3406 4025 3406 3419 
Q 3406 3131 3298 2873 
Q 3191 2616 2906 2266 
Q 2828 2175 2409 1742 
Q 1991 1309 1228 531 
z
" transform="scale(0.015625)"/>
       </defs>
       <use xlink:href="#DejaVuSans-2212"/>
       <use xlink:href="#DejaVuSans-32" x="83.789062"/>
       <use xlink:href="#DejaVuSans-30" x="147.412109"/>
      </g>
     </g>
    </g>
    <g id="xtick_3">
     <g id="line2d_3">
      <path d="M 232.417656 233.1 
L 232.417656 7.2 
" clip-path="url(#pc4c0773b1c)" style="fill: none; stroke: #ffffff; stroke-linecap: round"/>
     </g>
     <g id="text_3">
      <!-- 0 -->
      <g style="fill: #262626" transform="translate(228.918281 250.958281)scale(0.11 -0.11)">
       <use xlink:href="#DejaVuSans-30"/>
      </g>
     </g>
    </g>
    <g id="xtick_4">
     <g id="line2d_4">
      <path d="M 299.285838 233.1 
L 299.285838 7.2 
" clip-path="url(#pc4c0773b1c)" style="fill: none; stroke: #ffffff; stroke-linecap: round"/>
     </g>
     <g id="text_4">
      <!-- 20 -->
      <g style="fill: #262626" transform="translate(292.287088 250.958281)scale(0.11 -0.11)">
       <use xlink:href="#DejaVuSans-32"/>
       <use xlink:href="#DejaVuSans-30" x="63.623047"/>
      </g>
     </g>
    </g>
    <g id="xtick_5">
     <g id="line2d_5">
      <path d="M 366.15402 233.1 
L 366.15402 7.2 
" clip-path="url(#pc4c0773b1c)" style="fill: none; stroke: #ffffff; stroke-linecap: round"/>
     </g>
     <g id="text_5">
      <!-- 40 -->
      <g style="fill: #262626" transform="translate(359.15527 250.958281)scale(0.11 -0.11)">
       <use xlink:href="#DejaVuSans-34"/>
       <use xlink:href="#DejaVuSans-30" x="63.623047"/>
      </g>
     </g>
    </g>
    <g id="text_6">
     <!-- Observation $y$ -->
     <g style="fill: #262626" transform="translate(190.417656 266.365937)scale(0.12 -0.12)">
      <defs>
       <path id="DejaVuSans-4f" d="M 2522 4238 
Q 1834 4238 1429 3725 
Q 1025 3213 1025 2328 
Q 1025 1447 1429 934 
Q 1834 422 2522 422 
Q 3209 422 3611 934 
Q 4013 1447 4013 2328 
Q 4013 3213 3611 3725 
Q 3209 4238 2522 4238 
z
M 2522 4750 
Q 3503 4750 4090 4092 
Q 4678 3434 4678 2328 
Q 4678 1225 4090 567 
Q 3503 -91 2522 -91 
Q 1538 -91 948 565 
Q 359 1222 359 2328 
Q 359 3434 948 4092 
Q 1538 4750 2522 4750 
z
" transform="scale(0.015625)"/>
       <path id="DejaVuSans-62" d="M 3116 1747 
Q 3116 2381 2855 2742 
Q 2594 3103 2138 3103 
Q 1681 3103 1420 2742 
Q 1159 2381 1159 1747 
Q 1159 1113 1420 752 
Q 1681 391 2138 391 
Q 2594 391 2855 752 
Q 3116 1113 3116 1747 
z
M 1159 2969 
Q 1341 3281 1617 3432 
Q 1894 3584 2278 3584 
Q 2916 3584 3314 3078 
Q 3713 2572 3713 1747 
Q 3713 922 3314 415 
Q 2916 -91 2278 -91 
Q 1894 -91 1617 61 
Q 1341 213 1159 525 
L 1159 0 
L 581 0 
L 581 4863 
L 1159 4863 
L 1159 2969 
z
" transform="scale(0.015625)"/>
       <path id="DejaVuSans-73" d="M 2834 3397 
L 2834 2853 
Q 2591 2978 2328 3040 
Q 2066 3103 1784 3103 
Q 1356 3103 1142 2972 
Q 928 2841 928 2578 
Q 928 2378 1081 2264 
Q 1234 2150 1697 2047 
L 1894 2003 
Q 2506 1872 2764 1633 
Q 3022 1394 3022 966 
Q 3022 478 2636 193 
Q 2250 -91 1575 -91 
Q 1294 -91 989 -36 
Q 684 19 347 128 
L 347 722 
Q 666 556 975 473 
Q 1284 391 1588 391 
Q 1994 391 2212 530 
Q 2431 669 2431 922 
Q 2431 1156 2273 1281 
Q 2116 1406 1581 1522 
L 1381 1569 
Q 847 1681 609 1914 
Q 372 2147 372 2553 
Q 372 3047 722 3315 
Q 1072 3584 1716 3584 
Q 2034 3584 2315 3537 
Q 2597 3491 2834 3397 
z
" transform="scale(0.015625)"/>
       <path id="DejaVuSans-65" d="M 3597 1894 
L 3597 1613 
L 953 1613 
Q 991 1019 1311 708 
Q 1631 397 2203 397 
Q 2534 397 2845 478 
Q 3156 559 3463 722 
L 3463 178 
Q 3153 47 2828 -22 
Q 2503 -91 2169 -91 
Q 1331 -91 842 396 
Q 353 884 353 1716 
Q 353 2575 817 3079 
Q 1281 3584 2069 3584 
Q 2775 3584 3186 3129 
Q 3597 2675 3597 1894 
z
M 3022 2063 
Q 3016 2534 2758 2815 
Q 2500 3097 2075 3097 
Q 1594 3097 1305 2825 
Q 1016 2553 972 2059 
L 3022 2063 
z
" transform="scale(0.015625)"/>
       <path id="DejaVuSans-72" d="M 2631 2963 
Q 2534 3019 2420 3045 
Q 2306 3072 2169 3072 
Q 1681 3072 1420 2755 
Q 1159 2438 1159 1844 
L 1159 0 
L 581 0 
L 581 3500 
L 1159 3500 
L 1159 2956 
Q 1341 3275 1631 3429 
Q 1922 3584 2338 3584 
Q 2397 3584 2469 3576 
Q 2541 3569 2628 3553 
L 2631 2963 
z
" transform="scale(0.015625)"/>
       <path id="DejaVuSans-76" d="M 191 3500 
L 800 3500 
L 1894 563 
L 2988 3500 
L 3597 3500 
L 2284 0 
L 1503 0 
L 191 3500 
z
" transform="scale(0.015625)"/>
       <path id="DejaVuSans-61" d="M 2194 1759 
Q 1497 1759 1228 1600 
Q 959 1441 959 1056 
Q 959 750 1161 570 
Q 1363 391 1709 391 
Q 2188 391 2477 730 
Q 2766 1069 2766 1631 
L 2766 1759 
L 2194 1759 
z
M 3341 1997 
L 3341 0 
L 2766 0 
L 2766 531 
Q 2569 213 2275 61 
Q 1981 -91 1556 -91 
Q 1019 -91 701 211 
Q 384 513 384 1019 
Q 384 1609 779 1909 
Q 1175 2209 1959 2209 
L 2766 2209 
L 2766 2266 
Q 2766 2663 2505 2880 
Q 2244 3097 1772 3097 
Q 1472 3097 1187 3025 
Q 903 2953 641 2809 
L 641 3341 
Q 956 3463 1253 3523 
Q 1550 3584 1831 3584 
Q 2591 3584 2966 3190 
Q 3341 2797 3341 1997 
z
" transform="scale(0.015625)"/>
       <path id="DejaVuSans-74" d="M 1172 4494 
L 1172 3500 
L 2356 3500 
L 2356 3053 
L 1172 3053 
L 1172 1153 
Q 1172 725 1289 603 
Q 1406 481 1766 481 
L 2356 481 
L 2356 0 
L 1766 0 
Q 1100 0 847 248 
Q 594 497 594 1153 
L 594 3053 
L 172 3053 
L 172 3500 
L 594 3500 
L 594 4494 
L 1172 4494 
z
" transform="scale(0.015625)"/>
       <path id="DejaVuSans-69" d="M 603 3500 
L 1178 3500 
L 1178 0 
L 603 0 
L 603 3500 
z
M 603 4863 
L 1178 4863 
L 1178 4134 
L 603 4134 
L 603 4863 
z
" transform="scale(0.015625)"/>
       <path id="DejaVuSans-6f" d="M 1959 3097 
Q 1497 3097 1228 2736 
Q 959 2375 959 1747 
Q 959 1119 1226 758 
Q 1494 397 1959 397 
Q 2419 397 2687 759 
Q 2956 1122 2956 1747 
Q 2956 2369 2687 2733 
Q 2419 3097 1959 3097 
z
M 1959 3584 
Q 2709 3584 3137 3096 
Q 3566 2609 3566 1747 
Q 3566 888 3137 398 
Q 2709 -91 1959 -91 
Q 1206 -91 779 398 
Q 353 888 353 1747 
Q 353 2609 779 3096 
Q 1206 3584 1959 3584 
z
" transform="scale(0.015625)"/>
       <path id="DejaVuSans-6e" d="M 3513 2113 
L 3513 0 
L 2938 0 
L 2938 2094 
Q 2938 2591 2744 2837 
Q 2550 3084 2163 3084 
Q 1697 3084 1428 2787 
Q 1159 2491 1159 1978 
L 1159 0 
L 581 0 
L 581 3500 
L 1159 3500 
L 1159 2956 
Q 1366 3272 1645 3428 
Q 1925 3584 2291 3584 
Q 2894 3584 3203 3211 
Q 3513 2838 3513 2113 
z
" transform="scale(0.015625)"/>
       <path id="DejaVuSans-20" transform="scale(0.015625)"/>
       <path id="DejaVuSans-Oblique-79" d="M 1588 -325 
Q 1188 -997 936 -1164 
Q 684 -1331 294 -1331 
L -159 -1331 
L -63 -850 
L 269 -850 
Q 509 -850 678 -719 
Q 847 -588 1056 -206 
L 1234 128 
L 459 3500 
L 1069 3500 
L 1650 819 
L 3256 3500 
L 3859 3500 
L 1588 -325 
z
" transform="scale(0.015625)"/>
      </defs>
      <use xlink:href="#DejaVuSans-4f" transform="translate(0 0.015625)"/>
      <use xlink:href="#DejaVuSans-62" transform="translate(78.710938 0.015625)"/>
      <use xlink:href="#DejaVuSans-73" transform="translate(142.1875 0.015625)"/>
      <use xlink:href="#DejaVuSans-65" transform="translate(194.287109 0.015625)"/>
      <use xlink:href="#DejaVuSans-72" transform="translate(255.810547 0.015625)"/>
      <use xlink:href="#DejaVuSans-76" transform="translate(296.923828 0.015625)"/>
      <use xlink:href="#DejaVuSans-61" transform="translate(356.103516 0.015625)"/>
      <use xlink:href="#DejaVuSans-74" transform="translate(417.382812 0.015625)"/>
      <use xlink:href="#DejaVuSans-69" transform="translate(456.591797 0.015625)"/>
      <use xlink:href="#DejaVuSans-6f" transform="translate(484.375 0.015625)"/>
      <use xlink:href="#DejaVuSans-6e" transform="translate(545.556641 0.015625)"/>
      <use xlink:href="#DejaVuSans-20" transform="translate(608.935547 0.015625)"/>
      <use xlink:href="#DejaVuSans-Oblique-79" transform="translate(640.722656 0.015625)"/>
     </g>
    </g>
   </g>
   <g id="matplotlib.axis_2">
    <g id="ytick_1">
     <g id="line2d_6">
      <path d="M 48.530156 201.145814 
L 416.305156 201.145814 
" clip-path="url(#pc4c0773b1c)" style="fill: none; stroke: #ffffff; stroke-linecap: round"/>
     </g>
     <g id="text_7">
      <!-- −4 -->
      <g style="fill: #262626" transform="translate(22.81375 205.324955)scale(0.11 -0.11)">
       <use xlink:href="#DejaVuSans-2212"/>
       <use xlink:href="#DejaVuSans-34" x="83.789062"/>
      </g>
     </g>
    </g>
    <g id="ytick_2">
     <g id="line2d_7">
      <path d="M 48.530156 160.328562 
L 416.305156 160.328562 
" clip-path="url(#pc4c0773b1c)" style="fill: none; stroke: #ffffff; stroke-linecap: round"/>
     </g>
     <g id="text_8">
      <!-- −2 -->
      <g style="fill: #262626" transform="translate(22.81375 164.507703)scale(0.11 -0.11)">
       <use xlink:href="#DejaVuSans-2212"/>
       <use xlink:href="#DejaVuSans-32" x="83.789062"/>
      </g>
     </g>
    </g>
    <g id="ytick_3">
     <g id="line2d_8">
      <path d="M 48.530156 119.511311 
L 416.305156 119.511311 
" clip-path="url(#pc4c0773b1c)" style="fill: none; stroke: #ffffff; stroke-linecap: round"/>
     </g>
     <g id="text_9">
      <!-- 0 -->
      <g style="fill: #262626" transform="translate(32.031406 123.690451)scale(0.11 -0.11)">
       <use xlink:href="#DejaVuSans-30"/>
      </g>
     </g>
    </g>
    <g id="ytick_4">
     <g id="line2d_9">
      <path d="M 48.530156 78.694059 
L 416.305156 78.694059 
" clip-path="url(#pc4c0773b1c)" style="fill: none; stroke: #ffffff; stroke-linecap: round"/>
     </g>
     <g id="text_10">
      <!-- 2 -->
      <g style="fill: #262626" transform="translate(32.031406 82.8732)scale(0.11 -0.11)">
       <use xlink:href="#DejaVuSans-32"/>
      </g>
     </g>
    </g>
    <g id="ytick_5">
     <g id="line2d_10">
      <path d="M 48.530156 37.876808 
L 416.305156 37.876808 
" clip-path="url(#pc4c0773b1c)" style="fill: none; stroke: #ffffff; stroke-linecap: round"/>
     </g>
     <g id="text_11">
      <!-- 4 -->
      <g style="fill: #262626" transform="translate(32.031406 42.055948)scale(0.11 -0.11)">
       <use xlink:href="#DejaVuSans-34"/>
      </g>
     </g>
    </g>
    <g id="text_12">
     <!-- Parameter $\theta$ -->
     <g style="fill: #262626" transform="translate(16.318125 157.23)rotate(-90)scale(0.12 -0.12)">
      <defs>
       <path id="DejaVuSans-50" d="M 1259 4147 
L 1259 2394 
L 2053 2394 
Q 2494 2394 2734 2622 
Q 2975 2850 2975 3272 
Q 2975 3691 2734 3919 
Q 2494 4147 2053 4147 
L 1259 4147 
z
M 628 4666 
L 2053 4666 
Q 2838 4666 3239 4311 
Q 3641 3956 3641 3272 
Q 3641 2581 3239 2228 
Q 2838 1875 2053 1875 
L 1259 1875 
L 1259 0 
L 628 0 
L 628 4666 
z
" transform="scale(0.015625)"/>
       <path id="DejaVuSans-6d" d="M 3328 2828 
Q 3544 3216 3844 3400 
Q 4144 3584 4550 3584 
Q 5097 3584 5394 3201 
Q 5691 2819 5691 2113 
L 5691 0 
L 5113 0 
L 5113 2094 
Q 5113 2597 4934 2840 
Q 4756 3084 4391 3084 
Q 3944 3084 3684 2787 
Q 3425 2491 3425 1978 
L 3425 0 
L 2847 0 
L 2847 2094 
Q 2847 2600 2669 2842 
Q 2491 3084 2119 3084 
Q 1678 3084 1418 2786 
Q 1159 2488 1159 1978 
L 1159 0 
L 581 0 
L 581 3500 
L 1159 3500 
L 1159 2956 
Q 1356 3278 1631 3431 
Q 1906 3584 2284 3584 
Q 2666 3584 2933 3390 
Q 3200 3197 3328 2828 
z
" transform="scale(0.015625)"/>
       <path id="DejaVuSans-Oblique-3b8" d="M 2913 2219 
L 925 2219 
Q 791 1284 928 888 
Q 1100 400 1566 400 
Q 2034 400 2391 891 
Q 2703 1322 2913 2219 
z
M 3009 2750 
Q 3094 3638 2984 3950 
Q 2813 4444 2353 4444 
Q 1875 4444 1525 3956 
Q 1250 3563 1034 2750 
L 3009 2750 
z
M 2444 4913 
Q 3194 4913 3494 4250 
Q 3794 3591 3566 2422 
Q 3341 1256 2781 594 
Q 2225 -72 1475 -72 
Q 722 -72 425 594 
Q 128 1256 353 2422 
Q 581 3591 1134 4250 
Q 1691 4913 2444 4913 
z
" transform="scale(0.015625)"/>
      </defs>
      <use xlink:href="#DejaVuSans-50" transform="translate(0 0.234375)"/>
      <use xlink:href="#DejaVuSans-61" transform="translate(60.302734 0.234375)"/>
      <use xlink:href="#DejaVuSans-72" transform="translate(121.582031 0.234375)"/>
      <use xlink:href="#DejaVuSans-61" transform="translate(162.695312 0.234375)"/>
      <use xlink:href="#DejaVuSans-6d" transform="translate(223.974609 0.234375)"/>
      <use xlink:href="#DejaVuSans-65" transform="translate(321.386719 0.234375)"/>
      <use xlink:href="#DejaVuSans-74" transform="translate(382.910156 0.234375)"/>
      <use xlink:href="#DejaVuSans-65" transform="translate(422.119141 0.234375)"/>
      <use xlink:href="#DejaVuSans-72" transform="translate(483.642578 0.234375)"/>
      <use xlink:href="#DejaVuSans-20" transform="translate(524.755859 0.234375)"/>
      <use xlink:href="#DejaVuSans-Oblique-3b8" transform="translate(556.542969 0.234375)"/>
     </g>
    </g>
   </g>
   <g id="PolyCollection_1">
    <defs>
     <path id="m69854aea93" d="M 65.247202 -256.486304 
L 65.247202 -244.703293 
L 66.927311 -244.703244 
L 68.607408 -244.703186 
L 70.287517 -244.703128 
L 71.967614 -244.703069 
L 73.647724 -244.703001 
L 75.327833 -244.702923 
L 77.00793 -244.702826 
L 78.688039 -244.702738 
L 80.368149 -244.702641 
L 82.048246 -244.702534 
L 83.728355 -244.702408 
L 85.408465 -244.702262 
L 87.088561 -244.702116 
L 88.768671 -244.70195 
L 90.44878 -244.701775 
L 92.12889 -244.701571 
L 93.808999 -244.701347 
L 95.489096 -244.701113 
L 97.169206 -244.700841 
L 98.849302 -244.700559 
L 100.529412 -244.700247 
L 102.209521 -244.699887 
L 103.889618 -244.699498 
L 105.569728 -244.699079 
L 107.249824 -244.698612 
L 108.929934 -244.698106 
L 110.610043 -244.697532 
L 112.29014 -244.696919 
L 113.970249 -244.696247 
L 115.650346 -244.695498 
L 117.330456 -244.694681 
L 119.010565 -244.693785 
L 120.690662 -244.692802 
L 122.370771 -244.691713 
L 124.050868 -244.690525 
L 125.730984 -244.689212 
L 127.411094 -244.687771 
L 129.091203 -244.686195 
L 130.7713 -244.684472 
L 132.451409 -244.682575 
L 134.131506 -244.680502 
L 135.811615 -244.678205 
L 137.491725 -244.675694 
L 139.171822 -244.67295 
L 140.851931 -244.669914 
L 142.532028 -244.666595 
L 144.212144 -244.662965 
L 145.892247 -244.658985 
L 147.57235 -244.654616 
L 149.25246 -244.649818 
L 150.932556 -244.644563 
L 152.612666 -244.638821 
L 154.292775 -244.632535 
L 155.972885 -244.625645 
L 157.652981 -244.618113 
L 159.333085 -244.60988 
L 161.013188 -244.600878 
L 162.693297 -244.591068 
L 164.373407 -244.580354 
L 166.05351 -244.568705 
L 167.733607 -244.556015 
L 169.41371 -244.542226 
L 171.093826 -244.527297 
L 172.773929 -244.511114 
L 174.454032 -244.493655 
L 176.134129 -244.474854 
L 177.814238 -244.4547 
L 179.494351 -244.433193 
L 181.174454 -244.410324 
L 182.854557 -244.386199 
L 184.534666 -244.360916 
L 186.21476 -244.33468 
L 187.894873 -244.307801 
L 189.574985 -244.28067 
L 191.255088 -244.25383 
L 192.935188 -244.228041 
L 194.615291 -244.204189 
L 196.295395 -244.18348 
L 197.975507 -244.167326 
L 199.65561 -244.157448 
L 201.335714 -244.155901 
L 203.015813 -244.164961 
L 204.69592 -244.187207 
L 206.376029 -244.225336 
L 208.05614 -244.281964 
L 209.736235 -244.35934 
L 211.416335 -244.458631 
L 213.096448 -244.578884 
L 214.776551 -244.714728 
L 216.456664 -244.85207 
L 218.136764 -244.958738 
L 219.816869 -244.963039 
L 221.49697 -244.691333 
L 223.177081 -243.619311 
L 224.857186 -239.443115 
L 226.537287 -218.550469 
L 228.217398 -181.404125 
L 229.897493 -164.623317 
L 231.577604 -158.514765 
L 233.257715 -155.124139 
L 234.93781 -150.722523 
L 236.617921 -141.11556 
L 238.298032 -122.001108 
L 239.978127 -101.797218 
L 241.658238 -89.660391 
L 243.338339 -82.717042 
L 245.018444 -77.988885 
L 246.698555 -74.290073 
L 248.378655 -71.513163 
L 250.058761 -69.615999 
L 251.738871 -68.36004 
L 253.418972 -67.485803 
L 255.099077 -66.810411 
L 256.779179 -66.225114 
L 258.459283 -65.6698 
L 260.139393 -65.112657 
L 261.819496 -64.537909 
L 263.499599 -63.938891 
L 265.179702 -63.314492 
L 266.859812 -62.667176 
L 268.539918 -62.002061 
L 270.220018 -61.326221 
L 271.90013 -60.648231 
L 273.580234 -59.977578 
L 275.260334 -59.323937 
L 276.940446 -58.69658 
L 278.62054 -58.103585 
L 280.300652 -57.551308 
L 281.980756 -57.044146 
L 283.660865 -56.584289 
L 285.340968 -56.172049 
L 287.021062 -55.806044 
L 288.701184 -55.483666 
L 290.381287 -55.201527 
L 292.061384 -54.955756 
L 293.7415 -54.742333 
L 295.421603 -54.557384 
L 297.1017 -54.39725 
L 298.781815 -54.258595 
L 300.461912 -54.138468 
L 302.142015 -54.034233 
L 303.822131 -53.943661 
L 305.502228 -53.864777 
L 307.182331 -53.795955 
L 308.86244 -53.735745 
L 310.542544 -53.682961 
L 312.222647 -53.636542 
L 313.902756 -53.595679 
L 315.582859 -53.559613 
L 317.262962 -53.527684 
L 318.943072 -53.499394 
L 320.623175 -53.474248 
L 322.303272 -53.451865 
L 323.983388 -53.431925 
L 325.663497 -53.414107 
L 327.343588 -53.398176 
L 329.023703 -53.3839 
L 330.703813 -53.371113 
L 332.383903 -53.359629 
L 334.064013 -53.349314 
L 335.744116 -53.34002 
L 337.424225 -53.331661 
L 339.104328 -53.324109 
L 340.784432 -53.317316 
L 342.464541 -53.311185 
L 344.144638 -53.305629 
L 345.824747 -53.300617 
L 347.504857 -53.296092 
L 349.184954 -53.291985 
L 350.865063 -53.288258 
L 352.545173 -53.28491 
L 354.225269 -53.281854 
L 355.905392 -53.279091 
L 357.585476 -53.27659 
L 359.265585 -53.274322 
L 360.945707 -53.272269 
L 362.625804 -53.270391 
L 364.305901 -53.268697 
L 365.98601 -53.26716 
L 367.66612 -53.265768 
L 369.346216 -53.264493 
L 371.026326 -53.263345 
L 372.706435 -53.262304 
L 374.386532 -53.26134 
L 376.066642 -53.260484 
L 377.746751 -53.259686 
L 379.426848 -53.258975 
L 381.106957 -53.258333 
L 382.787067 -53.257749 
L 384.467164 -53.257204 
L 386.147273 -53.256718 
L 387.827357 -53.25628 
L 389.507479 -53.255871 
L 391.187576 -53.255501 
L 392.867673 -53.25517 
L 394.547795 -53.254878 
L 396.227917 -53.254606 
L 397.907989 -53.254343 
L 399.588111 -53.254119 
L 399.588111 -63.101653 
L 399.588111 -63.101653 
L 397.907989 -63.101896 
L 396.227917 -63.102198 
L 394.547795 -63.102509 
L 392.867673 -63.102859 
L 391.187576 -63.103229 
L 389.507479 -63.103657 
L 387.827357 -63.104124 
L 386.147273 -63.10464 
L 384.467164 -63.105205 
L 382.787067 -63.105827 
L 381.106957 -63.106489 
L 379.426848 -63.107248 
L 377.746751 -63.108056 
L 376.066642 -63.108971 
L 374.386532 -63.109963 
L 372.706435 -63.111063 
L 371.026326 -63.11226 
L 369.346216 -63.113584 
L 367.66612 -63.115053 
L 365.98601 -63.116659 
L 364.305901 -63.11843 
L 362.625804 -63.120376 
L 360.945707 -63.122527 
L 359.265585 -63.124892 
L 357.585476 -63.127509 
L 355.905392 -63.13038 
L 354.225269 -63.133553 
L 352.545173 -63.137056 
L 350.865063 -63.14091 
L 349.184954 -63.145182 
L 347.504857 -63.149892 
L 345.824747 -63.155079 
L 344.144638 -63.16083 
L 342.464541 -63.167185 
L 340.784432 -63.174211 
L 339.104328 -63.181997 
L 337.424225 -63.190619 
L 335.744116 -63.200185 
L 334.064013 -63.210783 
L 332.383903 -63.222558 
L 330.703813 -63.235637 
L 329.023703 -63.250196 
L 327.343588 -63.266418 
L 325.663497 -63.284509 
L 323.983388 -63.304702 
L 322.303272 -63.32727 
L 320.623175 -63.352553 
L 318.943072 -63.380891 
L 317.262962 -63.412723 
L 315.582859 -63.448545 
L 313.902756 -63.488892 
L 312.222647 -63.534485 
L 310.542544 -63.586081 
L 308.86244 -63.644549 
L 307.182331 -63.710986 
L 305.502228 -63.786601 
L 303.822131 -63.872862 
L 302.142015 -63.971394 
L 300.461912 -64.084154 
L 298.781815 -64.213351 
L 297.1017 -64.361524 
L 295.421603 -64.531506 
L 293.7415 -64.726439 
L 292.061384 -64.94973 
L 290.381287 -65.204941 
L 288.701184 -65.495644 
L 287.021062 -65.825223 
L 285.340968 -66.196542 
L 283.660865 -66.611643 
L 281.980756 -67.071344 
L 280.300652 -67.574905 
L 278.62054 -68.119806 
L 276.940446 -68.701512 
L 275.260334 -69.313824 
L 273.580234 -69.948917 
L 271.90013 -70.598082 
L 270.220018 -71.252249 
L 268.539918 -71.90269 
L 266.859812 -72.541549 
L 265.179702 -73.162434 
L 263.499599 -73.760849 
L 261.819496 -74.334799 
L 260.139393 -74.885782 
L 258.459283 -75.420621 
L 256.779179 -75.954978 
L 255.099077 -76.520145 
L 253.418972 -77.17491 
L 251.738871 -78.02549 
L 250.058761 -79.250542 
L 248.378655 -81.10495 
L 246.698555 -83.829027 
L 245.018444 -87.481643 
L 243.338339 -92.180206 
L 241.658238 -99.077253 
L 239.978127 -111.283602 
L 238.298032 -132.288242 
L 236.617921 -152.648298 
L 234.93781 -163.024723 
L 233.257715 -167.779181 
L 231.577604 -171.364684 
L 229.897493 -177.686941 
L 228.217398 -194.601272 
L 226.537287 -230.09344 
L 224.857186 -250.547697 
L 223.177081 -255.180305 
L 221.49697 -256.464495 
L 219.816869 -256.799534 
L 218.136764 -256.796265 
L 216.456664 -256.666883 
L 214.776551 -256.500191 
L 213.096448 -256.335814 
L 211.416335 -256.190843 
L 209.736235 -256.071543 
L 208.05614 -255.97883 
L 206.376029 -255.911128 
L 204.69592 -255.865603 
L 203.015813 -255.839056 
L 201.335714 -255.828244 
L 199.65561 -255.830083 
L 197.975507 -255.841849 
L 196.295395 -255.861117 
L 194.615291 -255.885835 
L 192.935188 -255.91432 
L 191.255088 -255.94513 
L 189.574985 -255.977225 
L 187.894873 -256.009709 
L 186.21476 -256.04192 
L 184.534666 -256.073373 
L 182.854557 -256.103716 
L 181.174454 -256.132687 
L 179.494351 -256.160169 
L 177.814238 -256.186055 
L 176.134129 -256.210296 
L 174.454032 -256.232951 
L 172.773929 -256.253991 
L 171.093826 -256.273484 
L 169.41371 -256.291506 
L 167.733607 -256.308138 
L 166.05351 -256.323455 
L 164.373407 -256.337537 
L 162.693297 -256.35047 
L 161.013188 -256.362323 
L 159.333085 -256.373213 
L 157.652981 -256.383159 
L 155.972885 -256.392267 
L 154.292775 -256.400598 
L 152.612666 -256.408208 
L 150.932556 -256.415156 
L 149.25246 -256.42152 
L 147.57235 -256.42733 
L 145.892247 -256.432614 
L 144.212144 -256.437432 
L 142.532028 -256.44184 
L 140.851931 -256.445859 
L 139.171822 -256.449518 
L 137.491725 -256.452846 
L 135.811615 -256.455902 
L 134.131506 -256.458666 
L 132.451409 -256.461186 
L 130.7713 -256.463493 
L 129.091203 -256.465585 
L 127.411094 -256.467493 
L 125.730984 -256.469225 
L 124.050868 -256.47083 
L 122.370771 -256.472271 
L 120.690662 -256.473575 
L 119.010565 -256.474772 
L 117.330456 -256.475862 
L 115.650346 -256.476854 
L 113.970249 -256.477759 
L 112.29014 -256.478567 
L 110.610043 -256.479316 
L 108.929934 -256.480007 
L 107.249824 -256.48063 
L 105.569728 -256.481195 
L 103.889618 -256.48171 
L 102.209521 -256.482177 
L 100.529412 -256.482596 
L 98.849302 -256.482985 
L 97.169206 -256.483326 
L 95.489096 -256.483657 
L 93.808999 -256.483949 
L 92.12889 -256.484211 
L 90.44878 -256.484455 
L 88.768671 -256.484669 
L 87.088561 -256.484873 
L 85.408465 -256.485058 
L 83.728355 -256.485223 
L 82.048246 -256.485369 
L 80.368149 -256.485515 
L 78.688039 -256.485632 
L 77.00793 -256.485739 
L 75.327833 -256.485856 
L 73.647724 -256.485953 
L 71.967614 -256.486021 
L 70.287517 -256.486099 
L 68.607408 -256.486177 
L 66.927311 -256.486236 
L 65.247202 -256.486304 
z
" style="stroke: #ff0000; stroke-opacity: 0.2"/>
    </defs>
    <g clip-path="url(#pc4c0773b1c)">
     <use xlink:href="#m69854aea93" x="0" y="276.085938" style="fill: #ff0000; fill-opacity: 0.2; stroke: #ff0000; stroke-opacity: 0.2"/>
    </g>
   </g>
   <g id="PathCollection_1">
    <defs>
     <path id="mfc5dcca6ae" d="M 0 3 
C 0.795609 3 1.55874 2.683901 2.12132 2.12132 
C 2.683901 1.55874 3 0.795609 3 0 
C 3 -0.795609 2.683901 -1.55874 2.12132 -2.12132 
C 1.55874 -2.683901 0.795609 -3 0 -3 
C -0.795609 -3 -1.55874 -2.683901 -2.12132 -2.12132 
C -2.683901 -1.55874 -3 -0.795609 -3 0 
C -3 0.795609 -2.683901 1.55874 -2.12132 2.12132 
C -1.55874 2.683901 -0.795609 3 0 3 
z
" style="stroke: #ffffff; stroke-width: 0.48"/>
    </defs>
    <g clip-path="url(#pc4c0773b1c)">
     <use xlink:href="#mfc5dcca6ae" x="252.598452" y="221.55444" style="fill: #4c72b0; stroke: #ffffff; stroke-width: 0.48"/>
     <use xlink:href="#mfc5dcca6ae" x="255.529671" y="219.492958" style="fill: #4c72b0; stroke: #ffffff; stroke-width: 0.48"/>
     <use xlink:href="#mfc5dcca6ae" x="253.715113" y="217.431486" style="fill: #4c72b0; stroke: #ffffff; stroke-width: 0.48"/>
     <use xlink:href="#mfc5dcca6ae" x="248.008487" y="215.370014" style="fill: #4c72b0; stroke: #ffffff; stroke-width: 0.48"/>
     <use xlink:href="#mfc5dcca6ae" x="244.665658" y="213.308532" style="fill: #4c72b0; stroke: #ffffff; stroke-width: 0.48"/>
     <use xlink:href="#mfc5dcca6ae" x="246.006765" y="211.24705" style="fill: #4c72b0; stroke: #ffffff; stroke-width: 0.48"/>
     <use xlink:href="#mfc5dcca6ae" x="244.128291" y="209.185578" style="fill: #4c72b0; stroke: #ffffff; stroke-width: 0.48"/>
     <use xlink:href="#mfc5dcca6ae" x="251.339974" y="207.124096" style="fill: #4c72b0; stroke: #ffffff; stroke-width: 0.48"/>
     <use xlink:href="#mfc5dcca6ae" x="244.58444" y="205.062624" style="fill: #4c72b0; stroke: #ffffff; stroke-width: 0.48"/>
     <use xlink:href="#mfc5dcca6ae" x="238.760222" y="203.001142" style="fill: #4c72b0; stroke: #ffffff; stroke-width: 0.48"/>
     <use xlink:href="#mfc5dcca6ae" x="246.440808" y="200.93967" style="fill: #4c72b0; stroke: #ffffff; stroke-width: 0.48"/>
     <use xlink:href="#mfc5dcca6ae" x="242.261128" y="198.878188" style="fill: #4c72b0; stroke: #ffffff; stroke-width: 0.48"/>
     <use xlink:href="#mfc5dcca6ae" x="245.452051" y="196.816711" style="fill: #4c72b0; stroke: #ffffff; stroke-width: 0.48"/>
     <use xlink:href="#mfc5dcca6ae" x="248.931307" y="194.755234" style="fill: #4c72b0; stroke: #ffffff; stroke-width: 0.48"/>
     <use xlink:href="#mfc5dcca6ae" x="243.377757" y="192.693752" style="fill: #4c72b0; stroke: #ffffff; stroke-width: 0.48"/>
     <use xlink:href="#mfc5dcca6ae" x="246.770298" y="190.63228" style="fill: #4c72b0; stroke: #ffffff; stroke-width: 0.48"/>
     <use xlink:href="#mfc5dcca6ae" x="241.392502" y="188.570803" style="fill: #4c72b0; stroke: #ffffff; stroke-width: 0.48"/>
     <use xlink:href="#mfc5dcca6ae" x="235.519744" y="186.509326" style="fill: #4c72b0; stroke: #ffffff; stroke-width: 0.48"/>
     <use xlink:href="#mfc5dcca6ae" x="239.046832" y="184.447849" style="fill: #4c72b0; stroke: #ffffff; stroke-width: 0.48"/>
     <use xlink:href="#mfc5dcca6ae" x="233.623775" y="182.386372" style="fill: #4c72b0; stroke: #ffffff; stroke-width: 0.48"/>
     <use xlink:href="#mfc5dcca6ae" x="233.517784" y="180.3249" style="fill: #4c72b0; stroke: #ffffff; stroke-width: 0.48"/>
     <use xlink:href="#mfc5dcca6ae" x="234.529676" y="178.263413" style="fill: #4c72b0; stroke: #ffffff; stroke-width: 0.48"/>
     <use xlink:href="#mfc5dcca6ae" x="239.722758" y="176.201941" style="fill: #4c72b0; stroke: #ffffff; stroke-width: 0.48"/>
     <use xlink:href="#mfc5dcca6ae" x="238.119771" y="174.140464" style="fill: #4c72b0; stroke: #ffffff; stroke-width: 0.48"/>
     <use xlink:href="#mfc5dcca6ae" x="238.630357" y="172.078982" style="fill: #4c72b0; stroke: #ffffff; stroke-width: 0.48"/>
     <use xlink:href="#mfc5dcca6ae" x="236.002752" y="170.01751" style="fill: #4c72b0; stroke: #ffffff; stroke-width: 0.48"/>
     <use xlink:href="#mfc5dcca6ae" x="239.766453" y="167.956028" style="fill: #4c72b0; stroke: #ffffff; stroke-width: 0.48"/>
     <use xlink:href="#mfc5dcca6ae" x="232.8089" y="165.894556" style="fill: #4c72b0; stroke: #ffffff; stroke-width: 0.48"/>
     <use xlink:href="#mfc5dcca6ae" x="229.598107" y="163.833074" style="fill: #4c72b0; stroke: #ffffff; stroke-width: 0.48"/>
     <use xlink:href="#mfc5dcca6ae" x="235.711672" y="161.771597" style="fill: #4c72b0; stroke: #ffffff; stroke-width: 0.48"/>
     <use xlink:href="#mfc5dcca6ae" x="233.144191" y="159.71012" style="fill: #4c72b0; stroke: #ffffff; stroke-width: 0.48"/>
     <use xlink:href="#mfc5dcca6ae" x="233.890187" y="157.64864" style="fill: #4c72b0; stroke: #ffffff; stroke-width: 0.48"/>
     <use xlink:href="#mfc5dcca6ae" x="233.396655" y="155.587168" style="fill: #4c72b0; stroke: #ffffff; stroke-width: 0.48"/>
     <use xlink:href="#mfc5dcca6ae" x="229.995157" y="153.525684" style="fill: #4c72b0; stroke: #ffffff; stroke-width: 0.48"/>
     <use xlink:href="#mfc5dcca6ae" x="229.312463" y="151.464212" style="fill: #4c72b0; stroke: #ffffff; stroke-width: 0.48"/>
     <use xlink:href="#mfc5dcca6ae" x="235.388648" y="149.402735" style="fill: #4c72b0; stroke: #ffffff; stroke-width: 0.48"/>
     <use xlink:href="#mfc5dcca6ae" x="235.153524" y="147.341255" style="fill: #4c72b0; stroke: #ffffff; stroke-width: 0.48"/>
     <use xlink:href="#mfc5dcca6ae" x="230.201008" y="145.279783" style="fill: #4c72b0; stroke: #ffffff; stroke-width: 0.48"/>
     <use xlink:href="#mfc5dcca6ae" x="230.806621" y="143.218299" style="fill: #4c72b0; stroke: #ffffff; stroke-width: 0.48"/>
     <use xlink:href="#mfc5dcca6ae" x="229.507518" y="141.156827" style="fill: #4c72b0; stroke: #ffffff; stroke-width: 0.48"/>
     <use xlink:href="#mfc5dcca6ae" x="235.744573" y="139.095348" style="fill: #4c72b0; stroke: #ffffff; stroke-width: 0.48"/>
     <use xlink:href="#mfc5dcca6ae" x="233.537986" y="137.033868" style="fill: #4c72b0; stroke: #ffffff; stroke-width: 0.48"/>
     <use xlink:href="#mfc5dcca6ae" x="233.962239" y="134.972392" style="fill: #4c72b0; stroke: #ffffff; stroke-width: 0.48"/>
     <use xlink:href="#mfc5dcca6ae" x="229.035818" y="132.910911" style="fill: #4c72b0; stroke: #ffffff; stroke-width: 0.48"/>
     <use xlink:href="#mfc5dcca6ae" x="227.982534" y="130.849442" style="fill: #4c72b0; stroke: #ffffff; stroke-width: 0.48"/>
     <use xlink:href="#mfc5dcca6ae" x="235.402421" y="128.787955" style="fill: #4c72b0; stroke: #ffffff; stroke-width: 0.48"/>
     <use xlink:href="#mfc5dcca6ae" x="239.599197" y="126.726485" style="fill: #4c72b0; stroke: #ffffff; stroke-width: 0.48"/>
     <use xlink:href="#mfc5dcca6ae" x="234.956861" y="124.665005" style="fill: #4c72b0; stroke: #ffffff; stroke-width: 0.48"/>
     <use xlink:href="#mfc5dcca6ae" x="236.883731" y="122.603524" style="fill: #4c72b0; stroke: #ffffff; stroke-width: 0.48"/>
     <use xlink:href="#mfc5dcca6ae" x="234.88087" y="120.542054" style="fill: #4c72b0; stroke: #ffffff; stroke-width: 0.48"/>
     <use xlink:href="#mfc5dcca6ae" x="230.115745" y="118.480574" style="fill: #4c72b0; stroke: #ffffff; stroke-width: 0.48"/>
     <use xlink:href="#mfc5dcca6ae" x="233.882124" y="116.419098" style="fill: #4c72b0; stroke: #ffffff; stroke-width: 0.48"/>
     <use xlink:href="#mfc5dcca6ae" x="234.042195" y="114.357617" style="fill: #4c72b0; stroke: #ffffff; stroke-width: 0.48"/>
     <use xlink:href="#mfc5dcca6ae" x="236.476854" y="112.296141" style="fill: #4c72b0; stroke: #ffffff; stroke-width: 0.48"/>
     <use xlink:href="#mfc5dcca6ae" x="232.394426" y="110.234661" style="fill: #4c72b0; stroke: #ffffff; stroke-width: 0.48"/>
     <use xlink:href="#mfc5dcca6ae" x="228.366121" y="108.173185" style="fill: #4c72b0; stroke: #ffffff; stroke-width: 0.48"/>
     <use xlink:href="#mfc5dcca6ae" x="230.814334" y="106.11171" style="fill: #4c72b0; stroke: #ffffff; stroke-width: 0.48"/>
     <use xlink:href="#mfc5dcca6ae" x="234.698571" y="104.050234" style="fill: #4c72b0; stroke: #ffffff; stroke-width: 0.48"/>
     <use xlink:href="#mfc5dcca6ae" x="233.319236" y="101.988754" style="fill: #4c72b0; stroke: #ffffff; stroke-width: 0.48"/>
     <use xlink:href="#mfc5dcca6ae" x="228.220293" y="99.927278" style="fill: #4c72b0; stroke: #ffffff; stroke-width: 0.48"/>
     <use xlink:href="#mfc5dcca6ae" x="231.008221" y="97.865797" style="fill: #4c72b0; stroke: #ffffff; stroke-width: 0.48"/>
     <use xlink:href="#mfc5dcca6ae" x="238.190169" y="95.804323" style="fill: #4c72b0; stroke: #ffffff; stroke-width: 0.48"/>
     <use xlink:href="#mfc5dcca6ae" x="237.663941" y="93.742846" style="fill: #4c72b0; stroke: #ffffff; stroke-width: 0.48"/>
     <use xlink:href="#mfc5dcca6ae" x="233.826985" y="91.681371" style="fill: #4c72b0; stroke: #ffffff; stroke-width: 0.48"/>
     <use xlink:href="#mfc5dcca6ae" x="240.214746" y="89.619892" style="fill: #4c72b0; stroke: #ffffff; stroke-width: 0.48"/>
     <use xlink:href="#mfc5dcca6ae" x="236.103954" y="87.55841" style="fill: #4c72b0; stroke: #ffffff; stroke-width: 0.48"/>
     <use xlink:href="#mfc5dcca6ae" x="237.802979" y="85.496933" style="fill: #4c72b0; stroke: #ffffff; stroke-width: 0.48"/>
     <use xlink:href="#mfc5dcca6ae" x="228.43014" y="83.435461" style="fill: #4c72b0; stroke: #ffffff; stroke-width: 0.48"/>
     <use xlink:href="#mfc5dcca6ae" x="240.508165" y="81.373984" style="fill: #4c72b0; stroke: #ffffff; stroke-width: 0.48"/>
     <use xlink:href="#mfc5dcca6ae" x="239.682854" y="79.312502" style="fill: #4c72b0; stroke: #ffffff; stroke-width: 0.48"/>
     <use xlink:href="#mfc5dcca6ae" x="232.334363" y="77.25103" style="fill: #4c72b0; stroke: #ffffff; stroke-width: 0.48"/>
     <use xlink:href="#mfc5dcca6ae" x="238.53734" y="75.189548" style="fill: #4c72b0; stroke: #ffffff; stroke-width: 0.48"/>
     <use xlink:href="#mfc5dcca6ae" x="234.236648" y="73.128071" style="fill: #4c72b0; stroke: #ffffff; stroke-width: 0.48"/>
     <use xlink:href="#mfc5dcca6ae" x="236.627942" y="71.066594" style="fill: #4c72b0; stroke: #ffffff; stroke-width: 0.48"/>
     <use xlink:href="#mfc5dcca6ae" x="236.802615" y="69.005122" style="fill: #4c72b0; stroke: #ffffff; stroke-width: 0.48"/>
     <use xlink:href="#mfc5dcca6ae" x="234.000651" y="66.94364" style="fill: #4c72b0; stroke: #ffffff; stroke-width: 0.48"/>
     <use xlink:href="#mfc5dcca6ae" x="237.126035" y="64.882163" style="fill: #4c72b0; stroke: #ffffff; stroke-width: 0.48"/>
     <use xlink:href="#mfc5dcca6ae" x="243.808457" y="62.820686" style="fill: #4c72b0; stroke: #ffffff; stroke-width: 0.48"/>
     <use xlink:href="#mfc5dcca6ae" x="239.082398" y="60.759209" style="fill: #4c72b0; stroke: #ffffff; stroke-width: 0.48"/>
     <use xlink:href="#mfc5dcca6ae" x="237.18679" y="58.697732" style="fill: #4c72b0; stroke: #ffffff; stroke-width: 0.48"/>
     <use xlink:href="#mfc5dcca6ae" x="240.386833" y="56.63626" style="fill: #4c72b0; stroke: #ffffff; stroke-width: 0.48"/>
     <use xlink:href="#mfc5dcca6ae" x="247.089513" y="54.574778" style="fill: #4c72b0; stroke: #ffffff; stroke-width: 0.48"/>
     <use xlink:href="#mfc5dcca6ae" x="234.940801" y="52.513296" style="fill: #4c72b0; stroke: #ffffff; stroke-width: 0.48"/>
     <use xlink:href="#mfc5dcca6ae" x="242.46309" y="50.451814" style="fill: #4c72b0; stroke: #ffffff; stroke-width: 0.48"/>
     <use xlink:href="#mfc5dcca6ae" x="242.368746" y="48.390342" style="fill: #4c72b0; stroke: #ffffff; stroke-width: 0.48"/>
     <use xlink:href="#mfc5dcca6ae" x="242.979386" y="46.32887" style="fill: #4c72b0; stroke: #ffffff; stroke-width: 0.48"/>
     <use xlink:href="#mfc5dcca6ae" x="245.129578" y="44.267388" style="fill: #4c72b0; stroke: #ffffff; stroke-width: 0.48"/>
     <use xlink:href="#mfc5dcca6ae" x="241.777053" y="42.205906" style="fill: #4c72b0; stroke: #ffffff; stroke-width: 0.48"/>
     <use xlink:href="#mfc5dcca6ae" x="238.089139" y="40.144439" style="fill: #4c72b0; stroke: #ffffff; stroke-width: 0.48"/>
     <use xlink:href="#mfc5dcca6ae" x="243.660938" y="38.082957" style="fill: #4c72b0; stroke: #ffffff; stroke-width: 0.48"/>
     <use xlink:href="#mfc5dcca6ae" x="248.669294" y="36.02148" style="fill: #4c72b0; stroke: #ffffff; stroke-width: 0.48"/>
     <use xlink:href="#mfc5dcca6ae" x="245.106503" y="33.959998" style="fill: #4c72b0; stroke: #ffffff; stroke-width: 0.48"/>
     <use xlink:href="#mfc5dcca6ae" x="245.324923" y="31.898535" style="fill: #4c72b0; stroke: #ffffff; stroke-width: 0.48"/>
     <use xlink:href="#mfc5dcca6ae" x="243.262444" y="29.837054" style="fill: #4c72b0; stroke: #ffffff; stroke-width: 0.48"/>
     <use xlink:href="#mfc5dcca6ae" x="246.916325" y="27.775572" style="fill: #4c72b0; stroke: #ffffff; stroke-width: 0.48"/>
     <use xlink:href="#mfc5dcca6ae" x="246.309093" y="25.71409" style="fill: #4c72b0; stroke: #ffffff; stroke-width: 0.48"/>
     <use xlink:href="#mfc5dcca6ae" x="248.076935" y="23.652608" style="fill: #4c72b0; stroke: #ffffff; stroke-width: 0.48"/>
     <use xlink:href="#mfc5dcca6ae" x="247.376252" y="21.591146" style="fill: #4c72b0; stroke: #ffffff; stroke-width: 0.48"/>
     <use xlink:href="#mfc5dcca6ae" x="257.655147" y="19.529664" style="fill: #4c72b0; stroke: #ffffff; stroke-width: 0.48"/>
     <use xlink:href="#mfc5dcca6ae" x="250.304174" y="17.468182" style="fill: #4c72b0; stroke: #ffffff; stroke-width: 0.48"/>
    </g>
   </g>
   <g id="PathCollection_2">
    <defs>
     <path id="ma96e3d28fb" d="M 0 3 
C 0.795609 3 1.55874 2.683901 2.12132 2.12132 
C 2.683901 1.55874 3 0.795609 3 0 
C 3 -0.795609 2.683901 -1.55874 2.12132 -2.12132 
C 1.55874 -2.683901 0.795609 -3 0 -3 
C -0.795609 -3 -1.55874 -2.683901 -2.12132 -2.12132 
C -2.683901 -1.55874 -3 -0.795609 -3 0 
C -3 0.795609 -2.683901 1.55874 -2.12132 2.12132 
C -1.55874 2.683901 -0.795609 3 0 3 
z
" style="stroke: #ffffff; stroke-width: 0.48"/>
    </defs>
    <g clip-path="url(#pc4c0773b1c)">
     <use xlink:href="#ma96e3d28fb" x="250.99216" y="221.55444" style="fill: #55a868; stroke: #ffffff; stroke-width: 0.48"/>
     <use xlink:href="#ma96e3d28fb" x="250.249253" y="219.492958" style="fill: #55a868; stroke: #ffffff; stroke-width: 0.48"/>
     <use xlink:href="#ma96e3d28fb" x="249.521513" y="217.431486" style="fill: #55a868; stroke: #ffffff; stroke-width: 0.48"/>
     <use xlink:href="#ma96e3d28fb" x="248.808933" y="215.370014" style="fill: #55a868; stroke: #ffffff; stroke-width: 0.48"/>
     <use xlink:href="#ma96e3d28fb" x="248.111511" y="213.308532" style="fill: #55a868; stroke: #ffffff; stroke-width: 0.48"/>
     <use xlink:href="#ma96e3d28fb" x="247.42925" y="211.24705" style="fill: #55a868; stroke: #ffffff; stroke-width: 0.48"/>
     <use xlink:href="#ma96e3d28fb" x="246.762153" y="209.185578" style="fill: #55a868; stroke: #ffffff; stroke-width: 0.48"/>
     <use xlink:href="#ma96e3d28fb" x="246.110217" y="207.124096" style="fill: #55a868; stroke: #ffffff; stroke-width: 0.48"/>
     <use xlink:href="#ma96e3d28fb" x="245.473443" y="205.062624" style="fill: #55a868; stroke: #ffffff; stroke-width: 0.48"/>
     <use xlink:href="#ma96e3d28fb" x="244.851828" y="203.001142" style="fill: #55a868; stroke: #ffffff; stroke-width: 0.48"/>
     <use xlink:href="#ma96e3d28fb" x="244.245377" y="200.93967" style="fill: #55a868; stroke: #ffffff; stroke-width: 0.48"/>
     <use xlink:href="#ma96e3d28fb" x="243.654084" y="198.878188" style="fill: #55a868; stroke: #ffffff; stroke-width: 0.48"/>
     <use xlink:href="#ma96e3d28fb" x="243.077954" y="196.816711" style="fill: #55a868; stroke: #ffffff; stroke-width: 0.48"/>
     <use xlink:href="#ma96e3d28fb" x="242.516986" y="194.755234" style="fill: #55a868; stroke: #ffffff; stroke-width: 0.48"/>
     <use xlink:href="#ma96e3d28fb" x="241.971178" y="192.693752" style="fill: #55a868; stroke: #ffffff; stroke-width: 0.48"/>
     <use xlink:href="#ma96e3d28fb" x="241.440533" y="190.63228" style="fill: #55a868; stroke: #ffffff; stroke-width: 0.48"/>
     <use xlink:href="#ma96e3d28fb" x="240.925048" y="188.570803" style="fill: #55a868; stroke: #ffffff; stroke-width: 0.48"/>
     <use xlink:href="#ma96e3d28fb" x="240.424726" y="186.509326" style="fill: #55a868; stroke: #ffffff; stroke-width: 0.48"/>
     <use xlink:href="#ma96e3d28fb" x="239.939563" y="184.447849" style="fill: #55a868; stroke: #ffffff; stroke-width: 0.48"/>
     <use xlink:href="#ma96e3d28fb" x="239.469562" y="182.386372" style="fill: #55a868; stroke: #ffffff; stroke-width: 0.48"/>
     <use xlink:href="#ma96e3d28fb" x="239.014724" y="180.3249" style="fill: #55a868; stroke: #ffffff; stroke-width: 0.48"/>
     <use xlink:href="#ma96e3d28fb" x="238.575044" y="178.263413" style="fill: #55a868; stroke: #ffffff; stroke-width: 0.48"/>
     <use xlink:href="#ma96e3d28fb" x="238.150528" y="176.201941" style="fill: #55a868; stroke: #ffffff; stroke-width: 0.48"/>
     <use xlink:href="#ma96e3d28fb" x="237.741173" y="174.140464" style="fill: #55a868; stroke: #ffffff; stroke-width: 0.48"/>
     <use xlink:href="#ma96e3d28fb" x="237.346978" y="172.078982" style="fill: #55a868; stroke: #ffffff; stroke-width: 0.48"/>
     <use xlink:href="#ma96e3d28fb" x="236.967946" y="170.01751" style="fill: #55a868; stroke: #ffffff; stroke-width: 0.48"/>
     <use xlink:href="#ma96e3d28fb" x="236.604073" y="167.956028" style="fill: #55a868; stroke: #ffffff; stroke-width: 0.48"/>
     <use xlink:href="#ma96e3d28fb" x="236.255365" y="165.894556" style="fill: #55a868; stroke: #ffffff; stroke-width: 0.48"/>
     <use xlink:href="#ma96e3d28fb" x="235.921815" y="163.833074" style="fill: #55a868; stroke: #ffffff; stroke-width: 0.48"/>
     <use xlink:href="#ma96e3d28fb" x="235.603427" y="161.771597" style="fill: #55a868; stroke: #ffffff; stroke-width: 0.48"/>
     <use xlink:href="#ma96e3d28fb" x="235.300201" y="159.71012" style="fill: #55a868; stroke: #ffffff; stroke-width: 0.48"/>
     <use xlink:href="#ma96e3d28fb" x="235.012136" y="157.64864" style="fill: #55a868; stroke: #ffffff; stroke-width: 0.48"/>
     <use xlink:href="#ma96e3d28fb" x="234.739233" y="155.587168" style="fill: #55a868; stroke: #ffffff; stroke-width: 0.48"/>
     <use xlink:href="#ma96e3d28fb" x="234.48149" y="153.525684" style="fill: #55a868; stroke: #ffffff; stroke-width: 0.48"/>
     <use xlink:href="#ma96e3d28fb" x="234.238909" y="151.464212" style="fill: #55a868; stroke: #ffffff; stroke-width: 0.48"/>
     <use xlink:href="#ma96e3d28fb" x="234.011489" y="149.402735" style="fill: #55a868; stroke: #ffffff; stroke-width: 0.48"/>
     <use xlink:href="#ma96e3d28fb" x="233.799231" y="147.341255" style="fill: #55a868; stroke: #ffffff; stroke-width: 0.48"/>
     <use xlink:href="#ma96e3d28fb" x="233.602134" y="145.279783" style="fill: #55a868; stroke: #ffffff; stroke-width: 0.48"/>
     <use xlink:href="#ma96e3d28fb" x="233.420198" y="143.218299" style="fill: #55a868; stroke: #ffffff; stroke-width: 0.48"/>
     <use xlink:href="#ma96e3d28fb" x="233.253424" y="141.156827" style="fill: #55a868; stroke: #ffffff; stroke-width: 0.48"/>
     <use xlink:href="#ma96e3d28fb" x="233.101811" y="139.095348" style="fill: #55a868; stroke: #ffffff; stroke-width: 0.48"/>
     <use xlink:href="#ma96e3d28fb" x="232.965359" y="137.033868" style="fill: #55a868; stroke: #ffffff; stroke-width: 0.48"/>
     <use xlink:href="#ma96e3d28fb" x="232.844068" y="134.972392" style="fill: #55a868; stroke: #ffffff; stroke-width: 0.48"/>
     <use xlink:href="#ma96e3d28fb" x="232.737939" y="132.910911" style="fill: #55a868; stroke: #ffffff; stroke-width: 0.48"/>
     <use xlink:href="#ma96e3d28fb" x="232.646971" y="130.849442" style="fill: #55a868; stroke: #ffffff; stroke-width: 0.48"/>
     <use xlink:href="#ma96e3d28fb" x="232.571164" y="128.787955" style="fill: #55a868; stroke: #ffffff; stroke-width: 0.48"/>
     <use xlink:href="#ma96e3d28fb" x="232.510519" y="126.726485" style="fill: #55a868; stroke: #ffffff; stroke-width: 0.48"/>
     <use xlink:href="#ma96e3d28fb" x="232.465035" y="124.665005" style="fill: #55a868; stroke: #ffffff; stroke-width: 0.48"/>
     <use xlink:href="#ma96e3d28fb" x="232.434713" y="122.603524" style="fill: #55a868; stroke: #ffffff; stroke-width: 0.48"/>
     <use xlink:href="#ma96e3d28fb" x="232.419551" y="120.542054" style="fill: #55a868; stroke: #ffffff; stroke-width: 0.48"/>
     <use xlink:href="#ma96e3d28fb" x="232.419551" y="118.480574" style="fill: #55a868; stroke: #ffffff; stroke-width: 0.48"/>
     <use xlink:href="#ma96e3d28fb" x="232.434713" y="116.419098" style="fill: #55a868; stroke: #ffffff; stroke-width: 0.48"/>
     <use xlink:href="#ma96e3d28fb" x="232.465035" y="114.357617" style="fill: #55a868; stroke: #ffffff; stroke-width: 0.48"/>
     <use xlink:href="#ma96e3d28fb" x="232.510519" y="112.296141" style="fill: #55a868; stroke: #ffffff; stroke-width: 0.48"/>
     <use xlink:href="#ma96e3d28fb" x="232.571165" y="110.234661" style="fill: #55a868; stroke: #ffffff; stroke-width: 0.48"/>
     <use xlink:href="#ma96e3d28fb" x="232.646971" y="108.173185" style="fill: #55a868; stroke: #ffffff; stroke-width: 0.48"/>
     <use xlink:href="#ma96e3d28fb" x="232.737939" y="106.11171" style="fill: #55a868; stroke: #ffffff; stroke-width: 0.48"/>
     <use xlink:href="#ma96e3d28fb" x="232.844068" y="104.050234" style="fill: #55a868; stroke: #ffffff; stroke-width: 0.48"/>
     <use xlink:href="#ma96e3d28fb" x="232.965359" y="101.988754" style="fill: #55a868; stroke: #ffffff; stroke-width: 0.48"/>
     <use xlink:href="#ma96e3d28fb" x="233.10181" y="99.927278" style="fill: #55a868; stroke: #ffffff; stroke-width: 0.48"/>
     <use xlink:href="#ma96e3d28fb" x="233.253424" y="97.865797" style="fill: #55a868; stroke: #ffffff; stroke-width: 0.48"/>
     <use xlink:href="#ma96e3d28fb" x="233.420198" y="95.804323" style="fill: #55a868; stroke: #ffffff; stroke-width: 0.48"/>
     <use xlink:href="#ma96e3d28fb" x="233.602134" y="93.742846" style="fill: #55a868; stroke: #ffffff; stroke-width: 0.48"/>
     <use xlink:href="#ma96e3d28fb" x="233.79923" y="91.681371" style="fill: #55a868; stroke: #ffffff; stroke-width: 0.48"/>
     <use xlink:href="#ma96e3d28fb" x="234.011489" y="89.619892" style="fill: #55a868; stroke: #ffffff; stroke-width: 0.48"/>
     <use xlink:href="#ma96e3d28fb" x="234.238909" y="87.55841" style="fill: #55a868; stroke: #ffffff; stroke-width: 0.48"/>
     <use xlink:href="#ma96e3d28fb" x="234.48149" y="85.496933" style="fill: #55a868; stroke: #ffffff; stroke-width: 0.48"/>
     <use xlink:href="#ma96e3d28fb" x="234.739232" y="83.435461" style="fill: #55a868; stroke: #ffffff; stroke-width: 0.48"/>
     <use xlink:href="#ma96e3d28fb" x="235.012135" y="81.373984" style="fill: #55a868; stroke: #ffffff; stroke-width: 0.48"/>
     <use xlink:href="#ma96e3d28fb" x="235.300201" y="79.312502" style="fill: #55a868; stroke: #ffffff; stroke-width: 0.48"/>
     <use xlink:href="#ma96e3d28fb" x="235.603427" y="77.25103" style="fill: #55a868; stroke: #ffffff; stroke-width: 0.48"/>
     <use xlink:href="#ma96e3d28fb" x="235.921815" y="75.189548" style="fill: #55a868; stroke: #ffffff; stroke-width: 0.48"/>
     <use xlink:href="#ma96e3d28fb" x="236.255363" y="73.128071" style="fill: #55a868; stroke: #ffffff; stroke-width: 0.48"/>
     <use xlink:href="#ma96e3d28fb" x="236.604073" y="71.066594" style="fill: #55a868; stroke: #ffffff; stroke-width: 0.48"/>
     <use xlink:href="#ma96e3d28fb" x="236.967944" y="69.005122" style="fill: #55a868; stroke: #ffffff; stroke-width: 0.48"/>
     <use xlink:href="#ma96e3d28fb" x="237.346978" y="66.94364" style="fill: #55a868; stroke: #ffffff; stroke-width: 0.48"/>
     <use xlink:href="#ma96e3d28fb" x="237.741172" y="64.882163" style="fill: #55a868; stroke: #ffffff; stroke-width: 0.48"/>
     <use xlink:href="#ma96e3d28fb" x="238.150527" y="62.820686" style="fill: #55a868; stroke: #ffffff; stroke-width: 0.48"/>
     <use xlink:href="#ma96e3d28fb" x="238.575044" y="60.759209" style="fill: #55a868; stroke: #ffffff; stroke-width: 0.48"/>
     <use xlink:href="#ma96e3d28fb" x="239.014722" y="58.697732" style="fill: #55a868; stroke: #ffffff; stroke-width: 0.48"/>
     <use xlink:href="#ma96e3d28fb" x="239.46956" y="56.63626" style="fill: #55a868; stroke: #ffffff; stroke-width: 0.48"/>
     <use xlink:href="#ma96e3d28fb" x="239.939562" y="54.574778" style="fill: #55a868; stroke: #ffffff; stroke-width: 0.48"/>
     <use xlink:href="#ma96e3d28fb" x="240.424726" y="52.513296" style="fill: #55a868; stroke: #ffffff; stroke-width: 0.48"/>
     <use xlink:href="#ma96e3d28fb" x="240.92505" y="50.451814" style="fill: #55a868; stroke: #ffffff; stroke-width: 0.48"/>
     <use xlink:href="#ma96e3d28fb" x="241.440533" y="48.390342" style="fill: #55a868; stroke: #ffffff; stroke-width: 0.48"/>
     <use xlink:href="#ma96e3d28fb" x="241.971178" y="46.32887" style="fill: #55a868; stroke: #ffffff; stroke-width: 0.48"/>
     <use xlink:href="#ma96e3d28fb" x="242.516986" y="44.267388" style="fill: #55a868; stroke: #ffffff; stroke-width: 0.48"/>
     <use xlink:href="#ma96e3d28fb" x="243.077956" y="42.205906" style="fill: #55a868; stroke: #ffffff; stroke-width: 0.48"/>
     <use xlink:href="#ma96e3d28fb" x="243.654083" y="40.144439" style="fill: #55a868; stroke: #ffffff; stroke-width: 0.48"/>
     <use xlink:href="#ma96e3d28fb" x="244.245375" y="38.082957" style="fill: #55a868; stroke: #ffffff; stroke-width: 0.48"/>
     <use xlink:href="#ma96e3d28fb" x="244.851828" y="36.02148" style="fill: #55a868; stroke: #ffffff; stroke-width: 0.48"/>
     <use xlink:href="#ma96e3d28fb" x="245.473443" y="33.959998" style="fill: #55a868; stroke: #ffffff; stroke-width: 0.48"/>
     <use xlink:href="#ma96e3d28fb" x="246.110214" y="31.898535" style="fill: #55a868; stroke: #ffffff; stroke-width: 0.48"/>
     <use xlink:href="#ma96e3d28fb" x="246.762152" y="29.837054" style="fill: #55a868; stroke: #ffffff; stroke-width: 0.48"/>
     <use xlink:href="#ma96e3d28fb" x="247.42925" y="27.775572" style="fill: #55a868; stroke: #ffffff; stroke-width: 0.48"/>
     <use xlink:href="#ma96e3d28fb" x="248.111511" y="25.71409" style="fill: #55a868; stroke: #ffffff; stroke-width: 0.48"/>
     <use xlink:href="#ma96e3d28fb" x="248.808933" y="23.652608" style="fill: #55a868; stroke: #ffffff; stroke-width: 0.48"/>
     <use xlink:href="#ma96e3d28fb" x="249.521509" y="21.591146" style="fill: #55a868; stroke: #ffffff; stroke-width: 0.48"/>
     <use xlink:href="#ma96e3d28fb" x="250.249253" y="19.529664" style="fill: #55a868; stroke: #ffffff; stroke-width: 0.48"/>
     <use xlink:href="#ma96e3d28fb" x="250.99216" y="17.468182" style="fill: #55a868; stroke: #ffffff; stroke-width: 0.48"/>
    </g>
   </g>
   <g id="line2d_11">
    <path d="M 65.247202 25.491139 
L 161.013188 25.604337 
L 182.854557 25.84098 
L 203.015813 26.083929 
L 208.05614 25.95554 
L 213.096448 25.628588 
L 218.136764 25.208436 
L 219.816869 25.204651 
L 221.49697 25.508023 
L 223.177081 26.68613 
L 224.857186 31.090531 
L 226.537287 51.763983 
L 228.217398 88.083239 
L 229.897493 104.930808 
L 231.577604 111.146213 
L 233.257715 114.634277 
L 234.93781 119.212315 
L 236.617921 129.204008 
L 239.978127 169.545528 
L 241.658238 181.717116 
L 243.338339 188.637313 
L 245.018444 193.350673 
L 246.698555 197.026388 
L 248.378655 199.776881 
L 250.058761 201.652664 
L 251.738871 202.89317 
L 253.418972 203.755583 
L 256.779179 204.995894 
L 263.499599 207.236068 
L 270.220018 209.796702 
L 276.940446 212.386892 
L 280.300652 213.522831 
L 283.660865 214.487971 
L 287.021062 215.270304 
L 290.381287 215.882703 
L 295.421603 216.541493 
L 300.461912 216.974627 
L 307.182331 217.332467 
L 317.262962 217.615734 
L 334.064013 217.805889 
L 367.66612 217.895527 
L 399.588111 217.908052 
L 399.588111 217.908052 
" clip-path="url(#pc4c0773b1c)" style="fill: none; stroke: #ff0000; stroke-width: 1.5; stroke-linecap: round"/>
   </g>
   <g id="line2d_12">
    <path d="M 65.247202 19.599634 
L 159.333085 19.712725 
L 181.174454 19.953251 
L 203.015813 20.246882 
L 208.05614 20.107107 
L 213.096448 19.750123 
L 218.136764 19.289673 
L 219.816869 19.286403 
L 221.49697 19.621442 
L 223.177081 20.905633 
L 224.857186 25.53824 
L 226.537287 45.992497 
L 228.217398 81.484666 
L 229.897493 98.398996 
L 231.577604 104.721253 
L 233.257715 108.306757 
L 234.93781 113.061215 
L 236.617921 123.437639 
L 239.978127 164.802335 
L 241.658238 177.008685 
L 243.338339 183.905731 
L 245.018444 188.604294 
L 246.698555 192.256911 
L 248.378655 194.980987 
L 250.058761 196.835395 
L 251.738871 198.060447 
L 253.418972 198.911027 
L 256.779179 200.13096 
L 263.499599 202.325088 
L 270.220018 204.833688 
L 276.940446 207.384426 
L 281.980756 209.014594 
L 285.340968 209.889396 
L 288.701184 210.590294 
L 293.7415 211.359498 
L 298.781815 211.872587 
L 305.502228 212.299337 
L 313.902756 212.597045 
L 327.343588 212.819519 
L 350.865063 212.945028 
L 399.588111 212.984285 
L 399.588111 212.984285 
" clip-path="url(#pc4c0773b1c)" style="fill: none; stroke-dasharray: 5.55,2.4; stroke-dashoffset: 0; stroke: #ff0000; stroke-width: 1.5"/>
   </g>
   <g id="line2d_13">
    <path d="M 65.247202 31.382644 
L 162.693297 31.494869 
L 186.21476 31.751258 
L 203.015813 31.920977 
L 209.736235 31.726598 
L 219.816869 31.122898 
L 221.49697 31.394604 
L 223.177081 32.466627 
L 224.857186 36.642822 
L 226.537287 57.535468 
L 228.217398 94.681813 
L 229.897493 111.462621 
L 231.577604 117.571173 
L 233.257715 120.961798 
L 234.93781 125.363414 
L 236.617921 134.970378 
L 239.978127 174.28872 
L 241.658238 186.425547 
L 243.338339 193.368896 
L 245.018444 198.097052 
L 246.698555 201.795865 
L 248.378655 204.572774 
L 250.058761 206.469938 
L 251.738871 207.725897 
L 253.418972 208.600135 
L 256.779179 209.860824 
L 263.499599 212.147047 
L 270.220018 214.759716 
L 276.940446 217.389358 
L 280.300652 218.53463 
L 283.660865 219.501648 
L 287.021062 220.279893 
L 290.381287 220.88441 
L 295.421603 221.528554 
L 300.461912 221.94747 
L 307.182331 222.289983 
L 317.262962 222.558253 
L 334.064013 222.736624 
L 369.346216 222.821444 
L 399.588111 222.831818 
L 399.588111 222.831818 
" clip-path="url(#pc4c0773b1c)" style="fill: none; stroke-dasharray: 5.55,2.4; stroke-dashoffset: 0; stroke: #ff0000; stroke-width: 1.5"/>
   </g>
   <g id="patch_3">
    <path d="M 48.530156 233.1 
L 48.530156 7.2 
" style="fill: none; stroke: #ffffff; stroke-width: 1.25; stroke-linejoin: miter; stroke-linecap: square"/>
   </g>
   <g id="patch_4">
    <path d="M 416.305156 233.1 
L 416.305156 7.2 
" style="fill: none; stroke: #ffffff; stroke-width: 1.25; stroke-linejoin: miter; stroke-linecap: square"/>
   </g>
   <g id="patch_5">
    <path d="M 48.530156 233.1 
L 416.305156 233.1 
" style="fill: none; stroke: #ffffff; stroke-width: 1.25; stroke-linejoin: miter; stroke-linecap: square"/>
   </g>
   <g id="patch_6">
    <path d="M 48.530156 7.2 
L 416.305156 7.2 
" style="fill: none; stroke: #ffffff; stroke-width: 1.25; stroke-linejoin: miter; stroke-linecap: square"/>
   </g>
   <g id="legend_1">
    <g id="patch_7">
     <path d="M 279.026875 64.437812 
L 408.605156 64.437812 
Q 410.805156 64.437812 410.805156 62.237812 
L 410.805156 14.9 
Q 410.805156 12.7 408.605156 12.7 
L 279.026875 12.7 
Q 276.826875 12.7 276.826875 14.9 
L 276.826875 62.237812 
Q 276.826875 64.437812 279.026875 64.437812 
z
" style="fill: #eaeaf2; opacity: 0.8; stroke: #cccccc; stroke-linejoin: miter"/>
    </g>
    <g id="line2d_14">
     <path d="M 281.226875 21.608281 
L 292.226875 21.608281 
L 303.226875 21.608281 
" style="fill: none; stroke: #ff0000; stroke-width: 1.5; stroke-linecap: round"/>
    </g>
    <g id="text_13">
     <!-- Predicted Mean -->
     <g style="fill: #262626" transform="translate(312.026875 25.458281)scale(0.11 -0.11)">
      <defs>
       <path id="DejaVuSans-64" d="M 2906 2969 
L 2906 4863 
L 3481 4863 
L 3481 0 
L 2906 0 
L 2906 525 
Q 2725 213 2448 61 
Q 2172 -91 1784 -91 
Q 1150 -91 751 415 
Q 353 922 353 1747 
Q 353 2572 751 3078 
Q 1150 3584 1784 3584 
Q 2172 3584 2448 3432 
Q 2725 3281 2906 2969 
z
M 947 1747 
Q 947 1113 1208 752 
Q 1469 391 1925 391 
Q 2381 391 2643 752 
Q 2906 1113 2906 1747 
Q 2906 2381 2643 2742 
Q 2381 3103 1925 3103 
Q 1469 3103 1208 2742 
Q 947 2381 947 1747 
z
" transform="scale(0.015625)"/>
       <path id="DejaVuSans-63" d="M 3122 3366 
L 3122 2828 
Q 2878 2963 2633 3030 
Q 2388 3097 2138 3097 
Q 1578 3097 1268 2742 
Q 959 2388 959 1747 
Q 959 1106 1268 751 
Q 1578 397 2138 397 
Q 2388 397 2633 464 
Q 2878 531 3122 666 
L 3122 134 
Q 2881 22 2623 -34 
Q 2366 -91 2075 -91 
Q 1284 -91 818 406 
Q 353 903 353 1747 
Q 353 2603 823 3093 
Q 1294 3584 2113 3584 
Q 2378 3584 2631 3529 
Q 2884 3475 3122 3366 
z
" transform="scale(0.015625)"/>
       <path id="DejaVuSans-4d" d="M 628 4666 
L 1569 4666 
L 2759 1491 
L 3956 4666 
L 4897 4666 
L 4897 0 
L 4281 0 
L 4281 4097 
L 3078 897 
L 2444 897 
L 1241 4097 
L 1241 0 
L 628 0 
L 628 4666 
z
" transform="scale(0.015625)"/>
      </defs>
      <use xlink:href="#DejaVuSans-50"/>
      <use xlink:href="#DejaVuSans-72" x="58.552734"/>
      <use xlink:href="#DejaVuSans-65" x="97.416016"/>
      <use xlink:href="#DejaVuSans-64" x="158.939453"/>
      <use xlink:href="#DejaVuSans-69" x="222.416016"/>
      <use xlink:href="#DejaVuSans-63" x="250.199219"/>
      <use xlink:href="#DejaVuSans-74" x="305.179688"/>
      <use xlink:href="#DejaVuSans-65" x="344.388672"/>
      <use xlink:href="#DejaVuSans-64" x="405.912109"/>
      <use xlink:href="#DejaVuSans-20" x="469.388672"/>
      <use xlink:href="#DejaVuSans-4d" x="501.175781"/>
      <use xlink:href="#DejaVuSans-65" x="587.455078"/>
      <use xlink:href="#DejaVuSans-61" x="648.978516"/>
      <use xlink:href="#DejaVuSans-6e" x="710.257812"/>
     </g>
    </g>
    <g id="PathCollection_3">
     <g>
      <use xlink:href="#mfc5dcca6ae" x="292.226875" y="38.716719" style="fill: #4c72b0; stroke: #ffffff; stroke-width: 0.48"/>
     </g>
    </g>
    <g id="text_14">
     <!-- Observations -->
     <g style="fill: #262626" transform="translate(312.026875 41.604219)scale(0.11 -0.11)">
      <use xlink:href="#DejaVuSans-4f"/>
      <use xlink:href="#DejaVuSans-62" x="78.710938"/>
      <use xlink:href="#DejaVuSans-73" x="142.1875"/>
      <use xlink:href="#DejaVuSans-65" x="194.287109"/>
      <use xlink:href="#DejaVuSans-72" x="255.810547"/>
      <use xlink:href="#DejaVuSans-76" x="296.923828"/>
      <use xlink:href="#DejaVuSans-61" x="356.103516"/>
      <use xlink:href="#DejaVuSans-74" x="417.382812"/>
      <use xlink:href="#DejaVuSans-69" x="456.591797"/>
      <use xlink:href="#DejaVuSans-6f" x="484.375"/>
      <use xlink:href="#DejaVuSans-6e" x="545.556641"/>
      <use xlink:href="#DejaVuSans-73" x="608.935547"/>
     </g>
    </g>
    <g id="PathCollection_4">
     <g>
      <use xlink:href="#ma96e3d28fb" x="292.226875" y="54.862656" style="fill: #55a868; stroke: #ffffff; stroke-width: 0.48"/>
     </g>
    </g>
    <g id="text_15">
     <!-- True Relationship -->
     <g style="fill: #262626" transform="translate(312.026875 57.750156)scale(0.11 -0.11)">
      <defs>
       <path id="DejaVuSans-54" d="M -19 4666 
L 3928 4666 
L 3928 4134 
L 2272 4134 
L 2272 0 
L 1638 0 
L 1638 4134 
L -19 4134 
L -19 4666 
z
" transform="scale(0.015625)"/>
       <path id="DejaVuSans-75" d="M 544 1381 
L 544 3500 
L 1119 3500 
L 1119 1403 
Q 1119 906 1312 657 
Q 1506 409 1894 409 
Q 2359 409 2629 706 
Q 2900 1003 2900 1516 
L 2900 3500 
L 3475 3500 
L 3475 0 
L 2900 0 
L 2900 538 
Q 2691 219 2414 64 
Q 2138 -91 1772 -91 
Q 1169 -91 856 284 
Q 544 659 544 1381 
z
M 1991 3584 
L 1991 3584 
z
" transform="scale(0.015625)"/>
       <path id="DejaVuSans-52" d="M 2841 2188 
Q 3044 2119 3236 1894 
Q 3428 1669 3622 1275 
L 4263 0 
L 3584 0 
L 2988 1197 
Q 2756 1666 2539 1819 
Q 2322 1972 1947 1972 
L 1259 1972 
L 1259 0 
L 628 0 
L 628 4666 
L 2053 4666 
Q 2853 4666 3247 4331 
Q 3641 3997 3641 3322 
Q 3641 2881 3436 2590 
Q 3231 2300 2841 2188 
z
M 1259 4147 
L 1259 2491 
L 2053 2491 
Q 2509 2491 2742 2702 
Q 2975 2913 2975 3322 
Q 2975 3731 2742 3939 
Q 2509 4147 2053 4147 
L 1259 4147 
z
" transform="scale(0.015625)"/>
       <path id="DejaVuSans-6c" d="M 603 4863 
L 1178 4863 
L 1178 0 
L 603 0 
L 603 4863 
z
" transform="scale(0.015625)"/>
       <path id="DejaVuSans-68" d="M 3513 2113 
L 3513 0 
L 2938 0 
L 2938 2094 
Q 2938 2591 2744 2837 
Q 2550 3084 2163 3084 
Q 1697 3084 1428 2787 
Q 1159 2491 1159 1978 
L 1159 0 
L 581 0 
L 581 4863 
L 1159 4863 
L 1159 2956 
Q 1366 3272 1645 3428 
Q 1925 3584 2291 3584 
Q 2894 3584 3203 3211 
Q 3513 2838 3513 2113 
z
" transform="scale(0.015625)"/>
       <path id="DejaVuSans-70" d="M 1159 525 
L 1159 -1331 
L 581 -1331 
L 581 3500 
L 1159 3500 
L 1159 2969 
Q 1341 3281 1617 3432 
Q 1894 3584 2278 3584 
Q 2916 3584 3314 3078 
Q 3713 2572 3713 1747 
Q 3713 922 3314 415 
Q 2916 -91 2278 -91 
Q 1894 -91 1617 61 
Q 1341 213 1159 525 
z
M 3116 1747 
Q 3116 2381 2855 2742 
Q 2594 3103 2138 3103 
Q 1681 3103 1420 2742 
Q 1159 2381 1159 1747 
Q 1159 1113 1420 752 
Q 1681 391 2138 391 
Q 2594 391 2855 752 
Q 3116 1113 3116 1747 
z
" transform="scale(0.015625)"/>
      </defs>
      <use xlink:href="#DejaVuSans-54"/>
      <use xlink:href="#DejaVuSans-72" x="46.333984"/>
      <use xlink:href="#DejaVuSans-75" x="87.447266"/>
      <use xlink:href="#DejaVuSans-65" x="150.826172"/>
      <use xlink:href="#DejaVuSans-20" x="212.349609"/>
      <use xlink:href="#DejaVuSans-52" x="244.136719"/>
      <use xlink:href="#DejaVuSans-65" x="309.119141"/>
      <use xlink:href="#DejaVuSans-6c" x="370.642578"/>
      <use xlink:href="#DejaVuSans-61" x="398.425781"/>
      <use xlink:href="#DejaVuSans-74" x="459.705078"/>
      <use xlink:href="#DejaVuSans-69" x="498.914062"/>
      <use xlink:href="#DejaVuSans-6f" x="526.697266"/>
      <use xlink:href="#DejaVuSans-6e" x="587.878906"/>
      <use xlink:href="#DejaVuSans-73" x="651.257812"/>
      <use xlink:href="#DejaVuSans-68" x="703.357422"/>
      <use xlink:href="#DejaVuSans-69" x="766.736328"/>
      <use xlink:href="#DejaVuSans-70" x="794.519531"/>
     </g>
    </g>
   </g>
  </g>
 </g>
 <defs>
  <clipPath id="pc4c0773b1c">
   <rect x="48.530156" y="7.2" width="367.775" height="225.9"/>
  </clipPath>
 </defs>
</svg>
