<?xml version="1.0" encoding="utf-8" standalone="no"?>
<!DOCTYPE svg PUBLIC "-//W3C//DTD SVG 1.1//EN"
  "http://www.w3.org/Graphics/SVG/1.1/DTD/svg11.dtd">
<svg xmlns:xlink="http://www.w3.org/1999/xlink" width="423.505156pt" height="276.085938pt" viewBox="0 0 423.505156 276.085938" xmlns="http://www.w3.org/2000/svg" version="1.1">
 <metadata>
  <rdf:RDF xmlns:dc="http://purl.org/dc/elements/1.1/" xmlns:cc="http://creativecommons.org/ns#" xmlns:rdf="http://www.w3.org/1999/02/22-rdf-syntax-ns#">
   <cc:Work>
    <dc:type rdf:resource="http://purl.org/dc/dcmitype/StillImage"/>
    <dc:date>2022-06-22T22:29:24.237321</dc:date>
    <dc:format>image/svg+xml</dc:format>
    <dc:creator>
     <cc:Agent>
      <dc:title>Matplotlib v3.5.2, https://matplotlib.org/</dc:title>
     </cc:Agent>
    </dc:creator>
   </cc:Work>
  </rdf:RDF>
 </metadata>
 <defs>
  <style type="text/css">*{stroke-linejoin: round; stroke-linecap: butt}</style>
 </defs>
 <g id="figure_1">
  <g id="patch_1">
   <path d="M 0 276.085938 
L 423.505156 276.085938 
L 423.505156 0 
L 0 0 
L 0 276.085938 
z
" style="fill: none"/>
  </g>
  <g id="axes_1">
   <g id="patch_2">
    <path d="M 48.530156 233.1 
L 416.305156 233.1 
L 416.305156 7.2 
L 48.530156 7.2 
z
" style="fill: #eaeaf2"/>
   </g>
   <g id="matplotlib.axis_1">
    <g id="xtick_1">
     <g id="line2d_1">
      <path d="M 98.521432 233.1 
L 98.521432 7.2 
" clip-path="url(#p3975ef14e7)" style="fill: none; stroke: #ffffff; stroke-linecap: round"/>
     </g>
     <g id="text_1">
      <!-- −40 -->
      <g style="fill: #262626" transform="translate(86.913854 250.958281)scale(0.11 -0.11)">
       <defs>
        <path id="DejaVuSans-2212" d="M 678 2272 
L 4684 2272 
L 4684 1741 
L 678 1741 
L 678 2272 
z
" transform="scale(0.015625)"/>
        <path id="DejaVuSans-34" d="M 2419 4116 
L 825 1625 
L 2419 1625 
L 2419 4116 
z
M 2253 4666 
L 3047 4666 
L 3047 1625 
L 3713 1625 
L 3713 1100 
L 3047 1100 
L 3047 0 
L 2419 0 
L 2419 1100 
L 313 1100 
L 313 1709 
L 2253 4666 
z
" transform="scale(0.015625)"/>
        <path id="DejaVuSans-30" d="M 2034 4250 
Q 1547 4250 1301 3770 
Q 1056 3291 1056 2328 
Q 1056 1369 1301 889 
Q 1547 409 2034 409 
Q 2525 409 2770 889 
Q 3016 1369 3016 2328 
Q 3016 3291 2770 3770 
Q 2525 4250 2034 4250 
z
M 2034 4750 
Q 2819 4750 3233 4129 
Q 3647 3509 3647 2328 
Q 3647 1150 3233 529 
Q 2819 -91 2034 -91 
Q 1250 -91 836 529 
Q 422 1150 422 2328 
Q 422 3509 836 4129 
Q 1250 4750 2034 4750 
z
" transform="scale(0.015625)"/>
       </defs>
       <use xlink:href="#DejaVuSans-2212"/>
       <use xlink:href="#DejaVuSans-34" x="83.789062"/>
       <use xlink:href="#DejaVuSans-30" x="147.412109"/>
      </g>
     </g>
    </g>
    <g id="xtick_2">
     <g id="line2d_2">
      <path d="M 165.069892 233.1 
L 165.069892 7.2 
" clip-path="url(#p3975ef14e7)" style="fill: none; stroke: #ffffff; stroke-linecap: round"/>
     </g>
     <g id="text_2">
      <!-- −20 -->
      <g style="fill: #262626" transform="translate(153.462314 250.958281)scale(0.11 -0.11)">
       <defs>
        <path id="DejaVuSans-32" d="M 1228 531 
L 3431 531 
L 3431 0 
L 469 0 
L 469 531 
Q 828 903 1448 1529 
Q 2069 2156 2228 2338 
Q 2531 2678 2651 2914 
Q 2772 3150 2772 3378 
Q 2772 3750 2511 3984 
Q 2250 4219 1831 4219 
Q 1534 4219 1204 4116 
Q 875 4013 500 3803 
L 500 4441 
Q 881 4594 1212 4672 
Q 1544 4750 1819 4750 
Q 2544 4750 2975 4387 
Q 3406 4025 3406 3419 
Q 3406 3131 3298 2873 
Q 3191 2616 2906 2266 
Q 2828 2175 2409 1742 
Q 1991 1309 1228 531 
z
" transform="scale(0.015625)"/>
       </defs>
       <use xlink:href="#DejaVuSans-2212"/>
       <use xlink:href="#DejaVuSans-32" x="83.789062"/>
       <use xlink:href="#DejaVuSans-30" x="147.412109"/>
      </g>
     </g>
    </g>
    <g id="xtick_3">
     <g id="line2d_3">
      <path d="M 231.618352 233.1 
L 231.618352 7.2 
" clip-path="url(#p3975ef14e7)" style="fill: none; stroke: #ffffff; stroke-linecap: round"/>
     </g>
     <g id="text_3">
      <!-- 0 -->
      <g style="fill: #262626" transform="translate(228.118977 250.958281)scale(0.11 -0.11)">
       <use xlink:href="#DejaVuSans-30"/>
      </g>
     </g>
    </g>
    <g id="xtick_4">
     <g id="line2d_4">
      <path d="M 298.166812 233.1 
L 298.166812 7.2 
" clip-path="url(#p3975ef14e7)" style="fill: none; stroke: #ffffff; stroke-linecap: round"/>
     </g>
     <g id="text_4">
      <!-- 20 -->
      <g style="fill: #262626" transform="translate(291.168062 250.958281)scale(0.11 -0.11)">
       <use xlink:href="#DejaVuSans-32"/>
       <use xlink:href="#DejaVuSans-30" x="63.623047"/>
      </g>
     </g>
    </g>
    <g id="xtick_5">
     <g id="line2d_5">
      <path d="M 364.715272 233.1 
L 364.715272 7.2 
" clip-path="url(#p3975ef14e7)" style="fill: none; stroke: #ffffff; stroke-linecap: round"/>
     </g>
     <g id="text_5">
      <!-- 40 -->
      <g style="fill: #262626" transform="translate(357.716522 250.958281)scale(0.11 -0.11)">
       <use xlink:href="#DejaVuSans-34"/>
       <use xlink:href="#DejaVuSans-30" x="63.623047"/>
      </g>
     </g>
    </g>
    <g id="text_6">
     <!-- Observation $y$ -->
     <g style="fill: #262626" transform="translate(190.417656 266.365937)scale(0.12 -0.12)">
      <defs>
       <path id="DejaVuSans-4f" d="M 2522 4238 
Q 1834 4238 1429 3725 
Q 1025 3213 1025 2328 
Q 1025 1447 1429 934 
Q 1834 422 2522 422 
Q 3209 422 3611 934 
Q 4013 1447 4013 2328 
Q 4013 3213 3611 3725 
Q 3209 4238 2522 4238 
z
M 2522 4750 
Q 3503 4750 4090 4092 
Q 4678 3434 4678 2328 
Q 4678 1225 4090 567 
Q 3503 -91 2522 -91 
Q 1538 -91 948 565 
Q 359 1222 359 2328 
Q 359 3434 948 4092 
Q 1538 4750 2522 4750 
z
" transform="scale(0.015625)"/>
       <path id="DejaVuSans-62" d="M 3116 1747 
Q 3116 2381 2855 2742 
Q 2594 3103 2138 3103 
Q 1681 3103 1420 2742 
Q 1159 2381 1159 1747 
Q 1159 1113 1420 752 
Q 1681 391 2138 391 
Q 2594 391 2855 752 
Q 3116 1113 3116 1747 
z
M 1159 2969 
Q 1341 3281 1617 3432 
Q 1894 3584 2278 3584 
Q 2916 3584 3314 3078 
Q 3713 2572 3713 1747 
Q 3713 922 3314 415 
Q 2916 -91 2278 -91 
Q 1894 -91 1617 61 
Q 1341 213 1159 525 
L 1159 0 
L 581 0 
L 581 4863 
L 1159 4863 
L 1159 2969 
z
" transform="scale(0.015625)"/>
       <path id="DejaVuSans-73" d="M 2834 3397 
L 2834 2853 
Q 2591 2978 2328 3040 
Q 2066 3103 1784 3103 
Q 1356 3103 1142 2972 
Q 928 2841 928 2578 
Q 928 2378 1081 2264 
Q 1234 2150 1697 2047 
L 1894 2003 
Q 2506 1872 2764 1633 
Q 3022 1394 3022 966 
Q 3022 478 2636 193 
Q 2250 -91 1575 -91 
Q 1294 -91 989 -36 
Q 684 19 347 128 
L 347 722 
Q 666 556 975 473 
Q 1284 391 1588 391 
Q 1994 391 2212 530 
Q 2431 669 2431 922 
Q 2431 1156 2273 1281 
Q 2116 1406 1581 1522 
L 1381 1569 
Q 847 1681 609 1914 
Q 372 2147 372 2553 
Q 372 3047 722 3315 
Q 1072 3584 1716 3584 
Q 2034 3584 2315 3537 
Q 2597 3491 2834 3397 
z
" transform="scale(0.015625)"/>
       <path id="DejaVuSans-65" d="M 3597 1894 
L 3597 1613 
L 953 1613 
Q 991 1019 1311 708 
Q 1631 397 2203 397 
Q 2534 397 2845 478 
Q 3156 559 3463 722 
L 3463 178 
Q 3153 47 2828 -22 
Q 2503 -91 2169 -91 
Q 1331 -91 842 396 
Q 353 884 353 1716 
Q 353 2575 817 3079 
Q 1281 3584 2069 3584 
Q 2775 3584 3186 3129 
Q 3597 2675 3597 1894 
z
M 3022 2063 
Q 3016 2534 2758 2815 
Q 2500 3097 2075 3097 
Q 1594 3097 1305 2825 
Q 1016 2553 972 2059 
L 3022 2063 
z
" transform="scale(0.015625)"/>
       <path id="DejaVuSans-72" d="M 2631 2963 
Q 2534 3019 2420 3045 
Q 2306 3072 2169 3072 
Q 1681 3072 1420 2755 
Q 1159 2438 1159 1844 
L 1159 0 
L 581 0 
L 581 3500 
L 1159 3500 
L 1159 2956 
Q 1341 3275 1631 3429 
Q 1922 3584 2338 3584 
Q 2397 3584 2469 3576 
Q 2541 3569 2628 3553 
L 2631 2963 
z
" transform="scale(0.015625)"/>
       <path id="DejaVuSans-76" d="M 191 3500 
L 800 3500 
L 1894 563 
L 2988 3500 
L 3597 3500 
L 2284 0 
L 1503 0 
L 191 3500 
z
" transform="scale(0.015625)"/>
       <path id="DejaVuSans-61" d="M 2194 1759 
Q 1497 1759 1228 1600 
Q 959 1441 959 1056 
Q 959 750 1161 570 
Q 1363 391 1709 391 
Q 2188 391 2477 730 
Q 2766 1069 2766 1631 
L 2766 1759 
L 2194 1759 
z
M 3341 1997 
L 3341 0 
L 2766 0 
L 2766 531 
Q 2569 213 2275 61 
Q 1981 -91 1556 -91 
Q 1019 -91 701 211 
Q 384 513 384 1019 
Q 384 1609 779 1909 
Q 1175 2209 1959 2209 
L 2766 2209 
L 2766 2266 
Q 2766 2663 2505 2880 
Q 2244 3097 1772 3097 
Q 1472 3097 1187 3025 
Q 903 2953 641 2809 
L 641 3341 
Q 956 3463 1253 3523 
Q 1550 3584 1831 3584 
Q 2591 3584 2966 3190 
Q 3341 2797 3341 1997 
z
" transform="scale(0.015625)"/>
       <path id="DejaVuSans-74" d="M 1172 4494 
L 1172 3500 
L 2356 3500 
L 2356 3053 
L 1172 3053 
L 1172 1153 
Q 1172 725 1289 603 
Q 1406 481 1766 481 
L 2356 481 
L 2356 0 
L 1766 0 
Q 1100 0 847 248 
Q 594 497 594 1153 
L 594 3053 
L 172 3053 
L 172 3500 
L 594 3500 
L 594 4494 
L 1172 4494 
z
" transform="scale(0.015625)"/>
       <path id="DejaVuSans-69" d="M 603 3500 
L 1178 3500 
L 1178 0 
L 603 0 
L 603 3500 
z
M 603 4863 
L 1178 4863 
L 1178 4134 
L 603 4134 
L 603 4863 
z
" transform="scale(0.015625)"/>
       <path id="DejaVuSans-6f" d="M 1959 3097 
Q 1497 3097 1228 2736 
Q 959 2375 959 1747 
Q 959 1119 1226 758 
Q 1494 397 1959 397 
Q 2419 397 2687 759 
Q 2956 1122 2956 1747 
Q 2956 2369 2687 2733 
Q 2419 3097 1959 3097 
z
M 1959 3584 
Q 2709 3584 3137 3096 
Q 3566 2609 3566 1747 
Q 3566 888 3137 398 
Q 2709 -91 1959 -91 
Q 1206 -91 779 398 
Q 353 888 353 1747 
Q 353 2609 779 3096 
Q 1206 3584 1959 3584 
z
" transform="scale(0.015625)"/>
       <path id="DejaVuSans-6e" d="M 3513 2113 
L 3513 0 
L 2938 0 
L 2938 2094 
Q 2938 2591 2744 2837 
Q 2550 3084 2163 3084 
Q 1697 3084 1428 2787 
Q 1159 2491 1159 1978 
L 1159 0 
L 581 0 
L 581 3500 
L 1159 3500 
L 1159 2956 
Q 1366 3272 1645 3428 
Q 1925 3584 2291 3584 
Q 2894 3584 3203 3211 
Q 3513 2838 3513 2113 
z
" transform="scale(0.015625)"/>
       <path id="DejaVuSans-20" transform="scale(0.015625)"/>
       <path id="DejaVuSans-Oblique-79" d="M 1588 -325 
Q 1188 -997 936 -1164 
Q 684 -1331 294 -1331 
L -159 -1331 
L -63 -850 
L 269 -850 
Q 509 -850 678 -719 
Q 847 -588 1056 -206 
L 1234 128 
L 459 3500 
L 1069 3500 
L 1650 819 
L 3256 3500 
L 3859 3500 
L 1588 -325 
z
" transform="scale(0.015625)"/>
      </defs>
      <use xlink:href="#DejaVuSans-4f" transform="translate(0 0.015625)"/>
      <use xlink:href="#DejaVuSans-62" transform="translate(78.710938 0.015625)"/>
      <use xlink:href="#DejaVuSans-73" transform="translate(142.1875 0.015625)"/>
      <use xlink:href="#DejaVuSans-65" transform="translate(194.287109 0.015625)"/>
      <use xlink:href="#DejaVuSans-72" transform="translate(255.810547 0.015625)"/>
      <use xlink:href="#DejaVuSans-76" transform="translate(296.923828 0.015625)"/>
      <use xlink:href="#DejaVuSans-61" transform="translate(356.103516 0.015625)"/>
      <use xlink:href="#DejaVuSans-74" transform="translate(417.382812 0.015625)"/>
      <use xlink:href="#DejaVuSans-69" transform="translate(456.591797 0.015625)"/>
      <use xlink:href="#DejaVuSans-6f" transform="translate(484.375 0.015625)"/>
      <use xlink:href="#DejaVuSans-6e" transform="translate(545.556641 0.015625)"/>
      <use xlink:href="#DejaVuSans-20" transform="translate(608.935547 0.015625)"/>
      <use xlink:href="#DejaVuSans-Oblique-79" transform="translate(640.722656 0.015625)"/>
     </g>
    </g>
   </g>
   <g id="matplotlib.axis_2">
    <g id="ytick_1">
     <g id="line2d_6">
      <path d="M 48.530156 201.47634 
L 416.305156 201.47634 
" clip-path="url(#p3975ef14e7)" style="fill: none; stroke: #ffffff; stroke-linecap: round"/>
     </g>
     <g id="text_7">
      <!-- −4 -->
      <g style="fill: #262626" transform="translate(22.81375 205.65548)scale(0.11 -0.11)">
       <use xlink:href="#DejaVuSans-2212"/>
       <use xlink:href="#DejaVuSans-34" x="83.789062"/>
      </g>
     </g>
    </g>
    <g id="ytick_2">
     <g id="line2d_7">
      <path d="M 48.530156 160.585638 
L 416.305156 160.585638 
" clip-path="url(#p3975ef14e7)" style="fill: none; stroke: #ffffff; stroke-linecap: round"/>
     </g>
     <g id="text_8">
      <!-- −2 -->
      <g style="fill: #262626" transform="translate(22.81375 164.764779)scale(0.11 -0.11)">
       <use xlink:href="#DejaVuSans-2212"/>
       <use xlink:href="#DejaVuSans-32" x="83.789062"/>
      </g>
     </g>
    </g>
    <g id="ytick_3">
     <g id="line2d_8">
      <path d="M 48.530156 119.694936 
L 416.305156 119.694936 
" clip-path="url(#p3975ef14e7)" style="fill: none; stroke: #ffffff; stroke-linecap: round"/>
     </g>
     <g id="text_9">
      <!-- 0 -->
      <g style="fill: #262626" transform="translate(32.031406 123.874077)scale(0.11 -0.11)">
       <use xlink:href="#DejaVuSans-30"/>
      </g>
     </g>
    </g>
    <g id="ytick_4">
     <g id="line2d_9">
      <path d="M 48.530156 78.804234 
L 416.305156 78.804234 
" clip-path="url(#p3975ef14e7)" style="fill: none; stroke: #ffffff; stroke-linecap: round"/>
     </g>
     <g id="text_10">
      <!-- 2 -->
      <g style="fill: #262626" transform="translate(32.031406 82.983375)scale(0.11 -0.11)">
       <use xlink:href="#DejaVuSans-32"/>
      </g>
     </g>
    </g>
    <g id="ytick_5">
     <g id="line2d_10">
      <path d="M 48.530156 37.913533 
L 416.305156 37.913533 
" clip-path="url(#p3975ef14e7)" style="fill: none; stroke: #ffffff; stroke-linecap: round"/>
     </g>
     <g id="text_11">
      <!-- 4 -->
      <g style="fill: #262626" transform="translate(32.031406 42.092673)scale(0.11 -0.11)">
       <use xlink:href="#DejaVuSans-34"/>
      </g>
     </g>
    </g>
    <g id="text_12">
     <!-- Parameter $\theta$ -->
     <g style="fill: #262626" transform="translate(16.318125 157.23)rotate(-90)scale(0.12 -0.12)">
      <defs>
       <path id="DejaVuSans-50" d="M 1259 4147 
L 1259 2394 
L 2053 2394 
Q 2494 2394 2734 2622 
Q 2975 2850 2975 3272 
Q 2975 3691 2734 3919 
Q 2494 4147 2053 4147 
L 1259 4147 
z
M 628 4666 
L 2053 4666 
Q 2838 4666 3239 4311 
Q 3641 3956 3641 3272 
Q 3641 2581 3239 2228 
Q 2838 1875 2053 1875 
L 1259 1875 
L 1259 0 
L 628 0 
L 628 4666 
z
" transform="scale(0.015625)"/>
       <path id="DejaVuSans-6d" d="M 3328 2828 
Q 3544 3216 3844 3400 
Q 4144 3584 4550 3584 
Q 5097 3584 5394 3201 
Q 5691 2819 5691 2113 
L 5691 0 
L 5113 0 
L 5113 2094 
Q 5113 2597 4934 2840 
Q 4756 3084 4391 3084 
Q 3944 3084 3684 2787 
Q 3425 2491 3425 1978 
L 3425 0 
L 2847 0 
L 2847 2094 
Q 2847 2600 2669 2842 
Q 2491 3084 2119 3084 
Q 1678 3084 1418 2786 
Q 1159 2488 1159 1978 
L 1159 0 
L 581 0 
L 581 3500 
L 1159 3500 
L 1159 2956 
Q 1356 3278 1631 3431 
Q 1906 3584 2284 3584 
Q 2666 3584 2933 3390 
Q 3200 3197 3328 2828 
z
" transform="scale(0.015625)"/>
       <path id="DejaVuSans-Oblique-3b8" d="M 2913 2219 
L 925 2219 
Q 791 1284 928 888 
Q 1100 400 1566 400 
Q 2034 400 2391 891 
Q 2703 1322 2913 2219 
z
M 3009 2750 
Q 3094 3638 2984 3950 
Q 2813 4444 2353 4444 
Q 1875 4444 1525 3956 
Q 1250 3563 1034 2750 
L 3009 2750 
z
M 2444 4913 
Q 3194 4913 3494 4250 
Q 3794 3591 3566 2422 
Q 3341 1256 2781 594 
Q 2225 -72 1475 -72 
Q 722 -72 425 594 
Q 128 1256 353 2422 
Q 581 3591 1134 4250 
Q 1691 4913 2444 4913 
z
" transform="scale(0.015625)"/>
      </defs>
      <use xlink:href="#DejaVuSans-50" transform="translate(0 0.234375)"/>
      <use xlink:href="#DejaVuSans-61" transform="translate(60.302734 0.234375)"/>
      <use xlink:href="#DejaVuSans-72" transform="translate(121.582031 0.234375)"/>
      <use xlink:href="#DejaVuSans-61" transform="translate(162.695312 0.234375)"/>
      <use xlink:href="#DejaVuSans-6d" transform="translate(223.974609 0.234375)"/>
      <use xlink:href="#DejaVuSans-65" transform="translate(321.386719 0.234375)"/>
      <use xlink:href="#DejaVuSans-74" transform="translate(382.910156 0.234375)"/>
      <use xlink:href="#DejaVuSans-65" transform="translate(422.119141 0.234375)"/>
      <use xlink:href="#DejaVuSans-72" transform="translate(483.642578 0.234375)"/>
      <use xlink:href="#DejaVuSans-20" transform="translate(524.755859 0.234375)"/>
      <use xlink:href="#DejaVuSans-Oblique-3b8" transform="translate(556.542969 0.234375)"/>
     </g>
    </g>
   </g>
   <g id="PolyCollection_1">
    <defs>
     <path id="m693bb2a3f0" d="M 65.247202 -256.483092 
L 65.247202 -244.678781 
L 66.919278 -244.678781 
L 68.591342 -244.67879 
L 70.263418 -244.67879 
L 71.935481 -244.67881 
L 73.607558 -244.678829 
L 75.279634 -244.678839 
L 76.951697 -244.678859 
L 78.623774 -244.678878 
L 80.29585 -244.678898 
L 81.967914 -244.678937 
L 83.63999 -244.678956 
L 85.312066 -244.679005 
L 86.98413 -244.679063 
L 88.656206 -244.679112 
L 90.328282 -244.67919 
L 92.000358 -244.679268 
L 93.672435 -244.679375 
L 95.344498 -244.679502 
L 97.016575 -244.679629 
L 98.688638 -244.679795 
L 100.360714 -244.680009 
L 102.032791 -244.680233 
L 103.704854 -244.680506 
L 105.37693 -244.680838 
L 107.048994 -244.681247 
L 108.72107 -244.681705 
L 110.393147 -244.682271 
L 112.06521 -244.682914 
L 113.737286 -244.683704 
L 115.40935 -244.68463 
L 117.081426 -244.685722 
L 118.753503 -244.687019 
L 120.425566 -244.688559 
L 122.097642 -244.690402 
L 123.769706 -244.692556 
L 125.441789 -244.69513 
L 127.113865 -244.698181 
L 128.785941 -244.701779 
L 130.458005 -244.706049 
L 132.130081 -244.711079 
L 133.802144 -244.717036 
L 135.474221 -244.724055 
L 137.146297 -244.732323 
L 138.818361 -244.742033 
L 140.490437 -244.753439 
L 142.1625 -244.766786 
L 143.834583 -244.782336 
L 145.506653 -244.80041 
L 147.178723 -244.821303 
L 148.850799 -244.845295 
L 150.522863 -244.872661 
L 152.194939 -244.903556 
L 153.867015 -244.938019 
L 155.539091 -244.975807 
L 157.211155 -245.016334 
L 158.883225 -245.058391 
L 160.555295 -245.099874 
L 162.227371 -245.137213 
L 163.899447 -245.164578 
L 165.571517 -245.172407 
L 167.243581 -245.144427 
L 168.915651 -245.051635 
L 170.587733 -244.837779 
L 172.259803 -244.380809 
L 173.931873 -243.371231 
L 175.603937 -240.835606 
L 177.276013 -232.693784 
L 178.948092 -206.02056 
L 180.620162 -176.249902 
L 182.292232 -161.803995 
L 183.964309 -155.544272 
L 185.636369 -150.593718 
L 187.308448 -146.111835 
L 188.980528 -143.157579 
L 190.652598 -141.562839 
L 192.324665 -140.748012 
L 193.996734 -140.328868 
L 195.668804 -140.107975 
L 197.340884 -139.987451 
L 199.012954 -139.918147 
L 200.685024 -139.87485 
L 202.35709 -139.844404 
L 204.029163 -139.819709 
L 205.70124 -139.796613 
L 207.373318 -139.772437 
L 209.04538 -139.745173 
L 210.717446 -139.712938 
L 212.389526 -139.673622 
L 214.061596 -139.624695 
L 215.733675 -139.562898 
L 217.405742 -139.483912 
L 219.077813 -139.382499 
L 220.749882 -139.25199 
L 222.42196 -139.084688 
L 224.094031 -138.872046 
L 225.766099 -138.605245 
L 227.438177 -138.27605 
L 229.110238 -137.877908 
L 230.782316 -137.406836 
L 232.454394 -136.862003 
L 234.126456 -136.245265 
L 235.798534 -135.560266 
L 237.470611 -134.810428 
L 239.142673 -133.996766 
L 240.814751 -133.116227 
L 242.486819 -132.160274 
L 244.158891 -131.114736 
L 245.830968 -129.960281 
L 247.503035 -128.674357 
L 249.175108 -127.234142 
L 250.847185 -125.621099 
L 252.519253 -123.826782 
L 254.191324 -121.858981 
L 255.863393 -119.746248 
L 257.535464 -117.538708 
L 259.207541 -115.30307 
L 260.87961 -113.112247 
L 262.55168 -111.032734 
L 264.22375 -109.114622 
L 265.895827 -107.386862 
L 267.5679 -105.858139 
L 269.239966 -104.521406 
L 270.912046 -103.359444 
L 272.584116 -102.349978 
L 274.256182 -101.469103 
L 275.928262 -100.693625 
L 277.600322 -100.002297 
L 279.272402 -99.376385 
L 280.944472 -98.799603 
L 282.616548 -98.258153 
L 284.288618 -97.740451 
L 285.960678 -97.236895 
L 287.632767 -96.739564 
L 289.304837 -96.242111 
L 290.976901 -95.739574 
L 292.648983 -95.2282 
L 294.321053 -94.705375 
L 295.993117 -94.169423 
L 297.665199 -93.619549 
L 299.337263 -93.055525 
L 301.009333 -92.477466 
L 302.681415 -91.885242 
L 304.353479 -91.277966 
L 306.025549 -90.653165 
L 307.697625 -90.00602 
L 309.369695 -89.329052 
L 311.041765 -88.612717 
L 312.713841 -87.847797 
L 314.385911 -87.029692 
L 316.057981 -86.163182 
L 317.730057 -85.263866 
L 319.402127 -84.352739 
L 321.074191 -83.444942 
L 322.746274 -82.540474 
L 324.41835 -81.624136 
L 326.090407 -80.674744 
L 327.76249 -79.676665 
L 329.434566 -78.626608 
L 331.106623 -77.533495 
L 332.778699 -76.413825 
L 334.450769 -75.286356 
L 336.122846 -74.167476 
L 337.794915 -73.068908 
L 339.466985 -71.996887 
L 341.139062 -70.952612 
L 342.811125 -69.933557 
L 344.483201 -68.934742 
L 346.155278 -67.950444 
L 347.827341 -66.975348 
L 349.499418 -66.005663 
L 351.171494 -65.039907 
L 352.843557 -64.079397 
L 354.515646 -63.128225 
L 356.187697 -62.193189 
L 357.859773 -61.282954 
L 359.531862 -60.407377 
L 361.203926 -59.576393 
L 362.87599 -58.798844 
L 364.548066 -58.081709 
L 366.220142 -57.429465 
L 367.892206 -56.843876 
L 369.564282 -56.324248 
L 371.236358 -55.867649 
L 372.908422 -55.469749 
L 374.580498 -55.125128 
L 376.252574 -54.828034 
L 377.924638 -54.572666 
L 379.596714 -54.353506 
L 381.26879 -54.165514 
L 382.940854 -54.004157 
L 384.61293 -53.865486 
L 386.284981 -53.746098 
L 387.95707 -53.64304 
L 389.629134 -53.553885 
L 391.301197 -53.476545 
L 392.973286 -53.409276 
L 394.645375 -53.350557 
L 396.317413 -53.299189 
L 397.989502 -53.254119 
L 397.989502 -63.168314 
L 397.989502 -63.168314 
L 396.317413 -63.218473 
L 394.645375 -63.275437 
L 392.973286 -63.340298 
L 391.301197 -63.414313 
L 389.629134 -63.498984 
L 387.95707 -63.596095 
L 386.284981 -63.707732 
L 384.61293 -63.836283 
L 382.940854 -63.984665 
L 381.26879 -64.156122 
L 379.596714 -64.354448 
L 377.924638 -64.583883 
L 376.252574 -64.849137 
L 374.580498 -65.155239 
L 372.908422 -65.507406 
L 371.236358 -65.910707 
L 369.564282 -66.369763 
L 367.892206 -66.888142 
L 366.220142 -67.468039 
L 364.548066 -68.109539 
L 362.87599 -68.81049 
L 361.203926 -69.566299 
L 359.531862 -70.3702 
L 357.859773 -71.213819 
L 356.187697 -72.087943 
L 354.515646 -72.983574 
L 352.843557 -73.892863 
L 351.171494 -74.809835 
L 349.499418 -75.731057 
L 347.827341 -76.655715 
L 346.155278 -77.585638 
L 344.483201 -78.524833 
L 342.811125 -79.478763 
L 341.139062 -80.453342 
L 339.466985 -81.453824 
L 337.794915 -82.483241 
L 336.122846 -83.541156 
L 334.450769 -84.622438 
L 332.778699 -85.716751 
L 331.106623 -86.809269 
L 329.434566 -87.882719 
L 327.76249 -88.921622 
L 326.090407 -89.917118 
L 324.41835 -90.871102 
L 322.746274 -91.796077 
L 321.074191 -92.708676 
L 319.402127 -93.61931 
L 317.730057 -94.524822 
L 316.057981 -95.409787 
L 314.385911 -96.255521 
L 312.713841 -97.049839 
L 311.041765 -97.790932 
L 309.369695 -98.485331 
L 307.697625 -99.143162 
L 306.025549 -99.77426 
L 304.353479 -100.386075 
L 302.681415 -100.983242 
L 301.009333 -101.568027 
L 299.337263 -102.141084 
L 297.665199 -102.702301 
L 295.993117 -103.251346 
L 294.321053 -103.788215 
L 292.648983 -104.313516 
L 290.976901 -104.828751 
L 289.304837 -105.336426 
L 287.632767 -105.840216 
L 285.960678 -106.345073 
L 284.288618 -106.857413 
L 282.616548 -107.385322 
L 280.944472 -107.938666 
L 279.272402 -108.529408 
L 277.600322 -109.171903 
L 275.928262 -109.883188 
L 274.256182 -110.682941 
L 272.584116 -111.593668 
L 270.912046 -112.640054 
L 269.239966 -113.847788 
L 267.5679 -115.241076 
L 265.895827 -116.839017 
L 264.22375 -118.650132 
L 262.55168 -120.666369 
L 260.87961 -122.858045 
L 259.207541 -125.17275 
L 257.535464 -127.540142 
L 255.863393 -129.882537 
L 254.191324 -132.128374 
L 252.519253 -134.223449 
L 250.847185 -136.136428 
L 249.175108 -137.858173 
L 247.503035 -139.397006 
L 245.830968 -140.772191 
L 244.158891 -142.007724 
L 242.486819 -143.127448 
L 240.814751 -144.151846 
L 239.142673 -145.095951 
L 237.470611 -145.968784 
L 235.798534 -146.773512 
L 234.126456 -147.508957 
L 232.454394 -148.171357 
L 230.782316 -148.756722 
L 229.110238 -149.262974 
L 227.438177 -149.690958 
L 225.766099 -150.044896 
L 224.094031 -150.331795 
L 222.42196 -150.560489 
L 220.749882 -150.740436 
L 219.077813 -150.88082 
L 217.405742 -150.989911 
L 215.733675 -151.07488 
L 214.061596 -151.141362 
L 212.389526 -151.193996 
L 210.717446 -151.236286 
L 209.04538 -151.270958 
L 207.373318 -151.300273 
L 205.70124 -151.326258 
L 204.029163 -151.351067 
L 202.35709 -151.377574 
L 200.685024 -151.41023 
L 199.012954 -151.456663 
L 197.340884 -151.530993 
L 195.668804 -151.660328 
L 193.996734 -151.897512 
L 192.324665 -152.34786 
L 190.652598 -153.223892 
L 188.980528 -154.939506 
L 187.308448 -158.119391 
L 185.636369 -162.940486 
L 183.964309 -168.227217 
L 182.292232 -174.76656 
L 180.620162 -189.477821 
L 178.948092 -218.220802 
L 177.276013 -243.712391 
L 175.603937 -252.05464 
L 173.931873 -254.908573 
L 172.259803 -256.107908 
L 170.587733 -256.665664 
L 168.915651 -256.930703 
L 167.243581 -257.047126 
L 165.571517 -257.083179 
L 163.899447 -257.074609 
L 162.227371 -257.041628 
L 160.555295 -256.996197 
L 158.883225 -256.94557 
L 157.211155 -256.894192 
L 155.539091 -256.844677 
L 153.867015 -256.798544 
L 152.194939 -256.756496 
L 150.522863 -256.718835 
L 148.850799 -256.685483 
L 147.178723 -256.656265 
L 145.506653 -256.630849 
L 143.834583 -256.608856 
L 142.1625 -256.589952 
L 140.490437 -256.573739 
L 138.818361 -256.559876 
L 137.146297 -256.54808 
L 135.474221 -256.538038 
L 133.802144 -256.529517 
L 132.130081 -256.522293 
L 130.458005 -256.516171 
L 128.785941 -256.511004 
L 127.113865 -256.506626 
L 125.441789 -256.502932 
L 123.769706 -256.499812 
L 122.097642 -256.497189 
L 120.425566 -256.494957 
L 118.753503 -256.493085 
L 117.081426 -256.491515 
L 115.40935 -256.490189 
L 113.737286 -256.489068 
L 112.06521 -256.488123 
L 110.393147 -256.487323 
L 108.72107 -256.486641 
L 107.048994 -256.486085 
L 105.37693 -256.485598 
L 103.704854 -256.485188 
L 102.032791 -256.484857 
L 100.360714 -256.484593 
L 98.688638 -256.48434 
L 97.016575 -256.484135 
L 95.344498 -256.48397 
L 93.672435 -256.483823 
L 92.000358 -256.483697 
L 90.328282 -256.483599 
L 88.656206 -256.483502 
L 86.98413 -256.483453 
L 85.312066 -256.483375 
L 83.63999 -256.483326 
L 81.967914 -256.483287 
L 80.29585 -256.483248 
L 78.623774 -256.483209 
L 76.951697 -256.48319 
L 75.279634 -256.48317 
L 73.607558 -256.48316 
L 71.935481 -256.483141 
L 70.263418 -256.483121 
L 68.591342 -256.483121 
L 66.919278 -256.483112 
L 65.247202 -256.483092 
z
" style="stroke: #ff0000; stroke-opacity: 0.2"/>
    </defs>
    <g clip-path="url(#p3975ef14e7)">
     <use xlink:href="#m693bb2a3f0" x="0" y="276.085938" style="fill: #ff0000; fill-opacity: 0.2; stroke: #ff0000; stroke-opacity: 0.2"/>
    </g>
   </g>
   <g id="PathCollection_1">
    <defs>
     <path id="m679c29416a" d="M 0 3 
C 0.795609 3 1.55874 2.683901 2.12132 2.12132 
C 2.683901 1.55874 3 0.795609 3 0 
C 3 -0.795609 2.683901 -1.55874 2.12132 -2.12132 
C 1.55874 -2.683901 0.795609 -3 0 -3 
C -0.795609 -3 -1.55874 -2.683901 -2.12132 -2.12132 
C -2.683901 -1.55874 -3 -0.795609 -3 0 
C -3 0.795609 -2.683901 1.55874 -2.12132 2.12132 
C -1.55874 2.683901 -0.795609 3 0 3 
z
" style="stroke: #ffffff; stroke-width: 0.48"/>
    </defs>
    <g clip-path="url(#p3975ef14e7)">
     <use xlink:href="#m679c29416a" x="399.588111" y="221.921691" style="fill: #4c72b0; stroke: #ffffff; stroke-width: 0.48"/>
     <use xlink:href="#m679c29416a" x="396.590493" y="219.856499" style="fill: #4c72b0; stroke: #ffffff; stroke-width: 0.48"/>
     <use xlink:href="#m679c29416a" x="388.990518" y="217.791317" style="fill: #4c72b0; stroke: #ffffff; stroke-width: 0.48"/>
     <use xlink:href="#m679c29416a" x="377.637799" y="215.726136" style="fill: #4c72b0; stroke: #ffffff; stroke-width: 0.48"/>
     <use xlink:href="#m679c29416a" x="368.758257" y="213.660944" style="fill: #4c72b0; stroke: #ffffff; stroke-width: 0.48"/>
     <use xlink:href="#m679c29416a" x="364.660958" y="211.595753" style="fill: #4c72b0; stroke: #ffffff; stroke-width: 0.48"/>
     <use xlink:href="#m679c29416a" x="357.480224" y="209.530571" style="fill: #4c72b0; stroke: #ffffff; stroke-width: 0.48"/>
     <use xlink:href="#m679c29416a" x="359.466861" y="207.46538" style="fill: #4c72b0; stroke: #ffffff; stroke-width: 0.48"/>
     <use xlink:href="#m679c29416a" x="347.673805" y="205.400198" style="fill: #4c72b0; stroke: #ffffff; stroke-width: 0.48"/>
     <use xlink:href="#m679c29416a" x="336.928293" y="203.335006" style="fill: #4c72b0; stroke: #ffffff; stroke-width: 0.48"/>
     <use xlink:href="#m679c29416a" x="339.743746" y="201.269825" style="fill: #4c72b0; stroke: #ffffff; stroke-width: 0.48"/>
     <use xlink:href="#m679c29416a" x="330.876326" y="199.204633" style="fill: #4c72b0; stroke: #ffffff; stroke-width: 0.48"/>
     <use xlink:href="#m679c29416a" x="329.464998" y="197.139446" style="fill: #4c72b0; stroke: #ffffff; stroke-width: 0.48"/>
     <use xlink:href="#m679c29416a" x="328.461328" y="195.07426" style="fill: #4c72b0; stroke: #ffffff; stroke-width: 0.48"/>
     <use xlink:href="#m679c29416a" x="318.588746" y="193.009068" style="fill: #4c72b0; stroke: #ffffff; stroke-width: 0.48"/>
     <use xlink:href="#m679c29416a" x="317.740206" y="190.943887" style="fill: #4c72b0; stroke: #ffffff; stroke-width: 0.48"/>
     <use xlink:href="#m679c29416a" x="308.283971" y="188.8787" style="fill: #4c72b0; stroke: #ffffff; stroke-width: 0.48"/>
     <use xlink:href="#m679c29416a" x="298.455847" y="186.813513" style="fill: #4c72b0; stroke: #ffffff; stroke-width: 0.48"/>
     <use xlink:href="#m679c29416a" x="298.103334" y="184.748327" style="fill: #4c72b0; stroke: #ffffff; stroke-width: 0.48"/>
     <use xlink:href="#m679c29416a" x="288.964179" y="182.68314" style="fill: #4c72b0; stroke: #ffffff; stroke-width: 0.48"/>
     <use xlink:href="#m679c29416a" x="285.237393" y="180.617958" style="fill: #4c72b0; stroke: #ffffff; stroke-width: 0.48"/>
     <use xlink:href="#m679c29416a" x="282.743825" y="178.552762" style="fill: #4c72b0; stroke: #ffffff; stroke-width: 0.48"/>
     <use xlink:href="#m679c29416a" x="284.532189" y="176.48758" style="fill: #4c72b0; stroke: #ffffff; stroke-width: 0.48"/>
     <use xlink:href="#m679c29416a" x="279.677683" y="174.422394" style="fill: #4c72b0; stroke: #ffffff; stroke-width: 0.48"/>
     <use xlink:href="#m679c29416a" x="277.04735" y="172.357202" style="fill: #4c72b0; stroke: #ffffff; stroke-width: 0.48"/>
     <use xlink:href="#m679c29416a" x="271.41455" y="170.29202" style="fill: #4c72b0; stroke: #ffffff; stroke-width: 0.48"/>
     <use xlink:href="#m679c29416a" x="272.263199" y="168.226829" style="fill: #4c72b0; stroke: #ffffff; stroke-width: 0.48"/>
     <use xlink:href="#m679c29416a" x="262.562577" y="166.161647" style="fill: #4c72b0; stroke: #ffffff; stroke-width: 0.48"/>
     <use xlink:href="#m679c29416a" x="256.711499" y="164.096456" style="fill: #4c72b0; stroke: #ffffff; stroke-width: 0.48"/>
     <use xlink:href="#m679c29416a" x="260.260913" y="162.031269" style="fill: #4c72b0; stroke: #ffffff; stroke-width: 0.48"/>
     <use xlink:href="#m679c29416a" x="255.2915" y="159.966083" style="fill: #4c72b0; stroke: #ffffff; stroke-width: 0.48"/>
     <use xlink:href="#m679c29416a" x="253.740425" y="157.900893" style="fill: #4c72b0; stroke: #ffffff; stroke-width: 0.48"/>
     <use xlink:href="#m679c29416a" x="251.07647" y="155.835712" style="fill: #4c72b0; stroke: #ffffff; stroke-width: 0.48"/>
     <use xlink:href="#m679c29416a" x="245.63915" y="153.770518" style="fill: #4c72b0; stroke: #ffffff; stroke-width: 0.48"/>
     <use xlink:href="#m679c29416a" x="243.028357" y="151.705336" style="fill: #4c72b0; stroke: #ffffff; stroke-width: 0.48"/>
     <use xlink:href="#m679c29416a" x="247.264832" y="149.640149" style="fill: #4c72b0; stroke: #ffffff; stroke-width: 0.48"/>
     <use xlink:href="#m679c29416a" x="245.340884" y="147.57496" style="fill: #4c72b0; stroke: #ffffff; stroke-width: 0.48"/>
     <use xlink:href="#m679c29416a" x="238.842815" y="145.509779" style="fill: #4c72b0; stroke: #ffffff; stroke-width: 0.48"/>
     <use xlink:href="#m679c29416a" x="237.997" y="143.444585" style="fill: #4c72b0; stroke: #ffffff; stroke-width: 0.48"/>
     <use xlink:href="#m679c29416a" x="235.376297" y="141.379403" style="fill: #4c72b0; stroke: #ffffff; stroke-width: 0.48"/>
     <use xlink:href="#m679c29416a" x="240.376424" y="139.314215" style="fill: #4c72b0; stroke: #ffffff; stroke-width: 0.48"/>
     <use xlink:href="#m679c29416a" x="237.093992" y="137.249025" style="fill: #4c72b0; stroke: #ffffff; stroke-width: 0.48"/>
     <use xlink:href="#m679c29416a" x="236.550533" y="135.18384" style="fill: #4c72b0; stroke: #ffffff; stroke-width: 0.48"/>
     <use xlink:href="#m679c29416a" x="230.802692" y="133.118649" style="fill: #4c72b0; stroke: #ffffff; stroke-width: 0.48"/>
     <use xlink:href="#m679c29416a" x="229.030184" y="131.05347" style="fill: #4c72b0; stroke: #ffffff; stroke-width: 0.48"/>
     <use xlink:href="#m679c29416a" x="235.811039" y="128.988274" style="fill: #4c72b0; stroke: #ffffff; stroke-width: 0.48"/>
     <use xlink:href="#m679c29416a" x="239.504907" y="126.923094" style="fill: #4c72b0; stroke: #ffffff; stroke-width: 0.48"/>
     <use xlink:href="#m679c29416a" x="234.522636" y="124.857904" style="fill: #4c72b0; stroke: #ffffff; stroke-width: 0.48"/>
     <use xlink:href="#m679c29416a" x="236.198872" y="122.792714" style="fill: #4c72b0; stroke: #ffffff; stroke-width: 0.48"/>
     <use xlink:href="#m679c29416a" x="234.084877" y="120.727534" style="fill: #4c72b0; stroke: #ffffff; stroke-width: 0.48"/>
     <use xlink:href="#m679c29416a" x="229.342536" y="118.662344" style="fill: #4c72b0; stroke: #ffffff; stroke-width: 0.48"/>
     <use xlink:href="#m679c29416a" x="233.211617" y="116.597159" style="fill: #4c72b0; stroke: #ffffff; stroke-width: 0.48"/>
     <use xlink:href="#m679c29416a" x="233.612344" y="114.531968" style="fill: #4c72b0; stroke: #ffffff; stroke-width: 0.48"/>
     <use xlink:href="#m679c29416a" x="236.397492" y="112.466783" style="fill: #4c72b0; stroke: #ffffff; stroke-width: 0.48"/>
     <use xlink:href="#m679c29416a" x="232.817428" y="110.401593" style="fill: #4c72b0; stroke: #ffffff; stroke-width: 0.48"/>
     <use xlink:href="#m679c29416a" x="229.411935" y="108.336407" style="fill: #4c72b0; stroke: #ffffff; stroke-width: 0.48"/>
     <use xlink:href="#m679c29416a" x="232.572705" y="106.271223" style="fill: #4c72b0; stroke: #ffffff; stroke-width: 0.48"/>
     <use xlink:href="#m679c29416a" x="237.283342" y="104.206038" style="fill: #4c72b0; stroke: #ffffff; stroke-width: 0.48"/>
     <use xlink:href="#m679c29416a" x="236.876288" y="102.140848" style="fill: #4c72b0; stroke: #ffffff; stroke-width: 0.48"/>
     <use xlink:href="#m679c29416a" x="232.888118" y="100.075662" style="fill: #4c72b0; stroke: #ffffff; stroke-width: 0.48"/>
     <use xlink:href="#m679c29416a" x="236.869823" y="98.010472" style="fill: #4c72b0; stroke: #ffffff; stroke-width: 0.48"/>
     <use xlink:href="#m679c29416a" x="245.345246" y="95.945288" style="fill: #4c72b0; stroke: #ffffff; stroke-width: 0.48"/>
     <use xlink:href="#m679c29416a" x="246.270058" y="93.880101" style="fill: #4c72b0; stroke: #ffffff; stroke-width: 0.48"/>
     <use xlink:href="#m679c29416a" x="244.020682" y="91.814917" style="fill: #4c72b0; stroke: #ffffff; stroke-width: 0.48"/>
     <use xlink:href="#m679c29416a" x="252.067849" y="89.749728" style="fill: #4c72b0; stroke: #ffffff; stroke-width: 0.48"/>
     <use xlink:href="#m679c29416a" x="249.787376" y="87.684536" style="fill: #4c72b0; stroke: #ffffff; stroke-width: 0.48"/>
     <use xlink:href="#m679c29416a" x="253.409646" y="85.61935" style="fill: #4c72b0; stroke: #ffffff; stroke-width: 0.48"/>
     <use xlink:href="#m679c29416a" x="246.133694" y="83.554168" style="fill: #4c72b0; stroke: #ffffff; stroke-width: 0.48"/>
     <use xlink:href="#m679c29416a" x="260.326759" y="81.488981" style="fill: #4c72b0; stroke: #ffffff; stroke-width: 0.48"/>
     <use xlink:href="#m679c29416a" x="261.7989" y="79.42379" style="fill: #4c72b0; stroke: #ffffff; stroke-width: 0.48"/>
     <use xlink:href="#m679c29416a" x="256.899747" y="77.358608" style="fill: #4c72b0; stroke: #ffffff; stroke-width: 0.48"/>
     <use xlink:href="#m679c29416a" x="265.607991" y="75.293417" style="fill: #4c72b0; stroke: #ffffff; stroke-width: 0.48"/>
     <use xlink:href="#m679c29416a" x="263.983492" y="73.22823" style="fill: #4c72b0; stroke: #ffffff; stroke-width: 0.48"/>
     <use xlink:href="#m679c29416a" x="269.139694" y="71.163044" style="fill: #4c72b0; stroke: #ffffff; stroke-width: 0.48"/>
     <use xlink:href="#m679c29416a" x="272.210576" y="69.097862" style="fill: #4c72b0; stroke: #ffffff; stroke-width: 0.48"/>
     <use xlink:href="#m679c29416a" x="272.439779" y="67.03267" style="fill: #4c72b0; stroke: #ffffff; stroke-width: 0.48"/>
     <use xlink:href="#m679c29416a" x="278.688693" y="64.967484" style="fill: #4c72b0; stroke: #ffffff; stroke-width: 0.48"/>
     <use xlink:href="#m679c29416a" x="288.598345" y="62.902297" style="fill: #4c72b0; stroke: #ffffff; stroke-width: 0.48"/>
     <use xlink:href="#m679c29416a" x="287.274777" y="60.83711" style="fill: #4c72b0; stroke: #ffffff; stroke-width: 0.48"/>
     <use xlink:href="#m679c29416a" x="288.888839" y="58.771924" style="fill: #4c72b0; stroke: #ffffff; stroke-width: 0.48"/>
     <use xlink:href="#m679c29416a" x="295.694886" y="56.706742" style="fill: #4c72b0; stroke: #ffffff; stroke-width: 0.48"/>
     <use xlink:href="#m679c29416a" x="306.107553" y="54.641551" style="fill: #4c72b0; stroke: #ffffff; stroke-width: 0.48"/>
     <use xlink:href="#m679c29416a" x="297.879675" y="52.576359" style="fill: #4c72b0; stroke: #ffffff; stroke-width: 0.48"/>
     <use xlink:href="#m679c29416a" x="309.34945" y="50.511168" style="fill: #4c72b0; stroke: #ffffff; stroke-width: 0.48"/>
     <use xlink:href="#m679c29416a" x="313.359699" y="48.445986" style="fill: #4c72b0; stroke: #ffffff; stroke-width: 0.48"/>
     <use xlink:href="#m679c29416a" x="318.192283" y="46.380804" style="fill: #4c72b0; stroke: #ffffff; stroke-width: 0.48"/>
     <use xlink:href="#m679c29416a" x="324.677778" y="44.315613" style="fill: #4c72b0; stroke: #ffffff; stroke-width: 0.48"/>
     <use xlink:href="#m679c29416a" x="325.807579" y="42.250421" style="fill: #4c72b0; stroke: #ffffff; stroke-width: 0.48"/>
     <use xlink:href="#m679c29416a" x="326.724276" y="40.185244" style="fill: #4c72b0; stroke: #ffffff; stroke-width: 0.48"/>
     <use xlink:href="#m679c29416a" x="336.977155" y="38.120053" style="fill: #4c72b0; stroke: #ffffff; stroke-width: 0.48"/>
     <use xlink:href="#m679c29416a" x="346.789984" y="36.054866" style="fill: #4c72b0; stroke: #ffffff; stroke-width: 0.48"/>
     <use xlink:href="#m679c29416a" x="348.193373" y="33.989675" style="fill: #4c72b0; stroke: #ffffff; stroke-width: 0.48"/>
     <use xlink:href="#m679c29416a" x="353.480548" y="31.924503" style="fill: #4c72b0; stroke: #ffffff; stroke-width: 0.48"/>
     <use xlink:href="#m679c29416a" x="356.618489" y="29.859311" style="fill: #4c72b0; stroke: #ffffff; stroke-width: 0.48"/>
     <use xlink:href="#m679c29416a" x="365.56618" y="27.79412" style="fill: #4c72b0; stroke: #ffffff; stroke-width: 0.48"/>
     <use xlink:href="#m679c29416a" x="370.393828" y="25.728928" style="fill: #4c72b0; stroke: #ffffff; stroke-width: 0.48"/>
     <use xlink:href="#m679c29416a" x="377.705923" y="23.663737" style="fill: #4c72b0; stroke: #ffffff; stroke-width: 0.48"/>
     <use xlink:href="#m679c29416a" x="382.681927" y="21.598565" style="fill: #4c72b0; stroke: #ffffff; stroke-width: 0.48"/>
     <use xlink:href="#m679c29416a" x="398.7058" y="19.533373" style="fill: #4c72b0; stroke: #ffffff; stroke-width: 0.48"/>
     <use xlink:href="#m679c29416a" x="397.30481" y="17.468182" style="fill: #4c72b0; stroke: #ffffff; stroke-width: 0.48"/>
    </g>
   </g>
   <g id="PathCollection_2">
    <defs>
     <path id="m7d8d2ce37b" d="M 0 3 
C 0.795609 3 1.55874 2.683901 2.12132 2.12132 
C 2.683901 1.55874 3 0.795609 3 0 
C 3 -0.795609 2.683901 -1.55874 2.12132 -2.12132 
C 1.55874 -2.683901 0.795609 -3 0 -3 
C -0.795609 -3 -1.55874 -2.683901 -2.12132 -2.12132 
C -2.683901 -1.55874 -3 -0.795609 -3 0 
C -3 0.795609 -2.683901 1.55874 -2.12132 2.12132 
C -1.55874 2.683901 -0.795609 3 0 3 
z
" style="stroke: #ffffff; stroke-width: 0.48"/>
    </defs>
    <g clip-path="url(#p3975ef14e7)">
     <use xlink:href="#m7d8d2ce37b" x="397.989502" y="221.921691" style="fill: #55a868; stroke: #ffffff; stroke-width: 0.48"/>
     <use xlink:href="#m7d8d2ce37b" x="391.335316" y="219.856499" style="fill: #55a868; stroke: #ffffff; stroke-width: 0.48"/>
     <use xlink:href="#m7d8d2ce37b" x="384.816972" y="217.791317" style="fill: #55a868; stroke: #ffffff; stroke-width: 0.48"/>
     <use xlink:href="#m7d8d2ce37b" x="378.434419" y="215.726136" style="fill: #55a868; stroke: #ffffff; stroke-width: 0.48"/>
     <use xlink:href="#m7d8d2ce37b" x="372.187631" y="213.660944" style="fill: #55a868; stroke: #ffffff; stroke-width: 0.48"/>
     <use xlink:href="#m7d8d2ce37b" x="366.076646" y="211.595753" style="fill: #55a868; stroke: #ffffff; stroke-width: 0.48"/>
     <use xlink:href="#m7d8d2ce37b" x="360.101491" y="209.530571" style="fill: #55a868; stroke: #ffffff; stroke-width: 0.48"/>
     <use xlink:href="#m7d8d2ce37b" x="354.262114" y="207.46538" style="fill: #55a868; stroke: #ffffff; stroke-width: 0.48"/>
     <use xlink:href="#m7d8d2ce37b" x="348.558553" y="205.400198" style="fill: #55a868; stroke: #ffffff; stroke-width: 0.48"/>
     <use xlink:href="#m7d8d2ce37b" x="342.990771" y="203.335006" style="fill: #55a868; stroke: #ffffff; stroke-width: 0.48"/>
     <use xlink:href="#m7d8d2ce37b" x="337.558811" y="201.269825" style="fill: #55a868; stroke: #ffffff; stroke-width: 0.48"/>
     <use xlink:href="#m7d8d2ce37b" x="332.262623" y="199.204633" style="fill: #55a868; stroke: #ffffff; stroke-width: 0.48"/>
     <use xlink:href="#m7d8d2ce37b" x="327.102251" y="197.139446" style="fill: #55a868; stroke: #ffffff; stroke-width: 0.48"/>
     <use xlink:href="#m7d8d2ce37b" x="322.077677" y="195.07426" style="fill: #55a868; stroke: #ffffff; stroke-width: 0.48"/>
     <use xlink:href="#m7d8d2ce37b" x="317.188893" y="193.009068" style="fill: #55a868; stroke: #ffffff; stroke-width: 0.48"/>
     <use xlink:href="#m7d8d2ce37b" x="312.435926" y="190.943887" style="fill: #55a868; stroke: #ffffff; stroke-width: 0.48"/>
     <use xlink:href="#m7d8d2ce37b" x="307.818749" y="188.8787" style="fill: #55a868; stroke: #ffffff; stroke-width: 0.48"/>
     <use xlink:href="#m7d8d2ce37b" x="303.337376" y="186.813513" style="fill: #55a868; stroke: #ffffff; stroke-width: 0.48"/>
     <use xlink:href="#m7d8d2ce37b" x="298.991795" y="184.748327" style="fill: #55a868; stroke: #ffffff; stroke-width: 0.48"/>
     <use xlink:href="#m7d8d2ce37b" x="294.782016" y="182.68314" style="fill: #55a868; stroke: #ffffff; stroke-width: 0.48"/>
     <use xlink:href="#m7d8d2ce37b" x="290.708048" y="180.617958" style="fill: #55a868; stroke: #ffffff; stroke-width: 0.48"/>
     <use xlink:href="#m7d8d2ce37b" x="286.769851" y="178.552762" style="fill: #55a868; stroke: #ffffff; stroke-width: 0.48"/>
     <use xlink:href="#m7d8d2ce37b" x="282.967478" y="176.48758" style="fill: #55a868; stroke: #ffffff; stroke-width: 0.48"/>
     <use xlink:href="#m7d8d2ce37b" x="279.300895" y="174.422394" style="fill: #55a868; stroke: #ffffff; stroke-width: 0.48"/>
     <use xlink:href="#m7d8d2ce37b" x="275.770106" y="172.357202" style="fill: #55a868; stroke: #ffffff; stroke-width: 0.48"/>
     <use xlink:href="#m7d8d2ce37b" x="272.37513" y="170.29202" style="fill: #55a868; stroke: #ffffff; stroke-width: 0.48"/>
     <use xlink:href="#m7d8d2ce37b" x="269.115939" y="168.226829" style="fill: #55a868; stroke: #ffffff; stroke-width: 0.48"/>
     <use xlink:href="#m7d8d2ce37b" x="265.992564" y="166.161647" style="fill: #55a868; stroke: #ffffff; stroke-width: 0.48"/>
     <use xlink:href="#m7d8d2ce37b" x="263.00497" y="164.096456" style="fill: #55a868; stroke: #ffffff; stroke-width: 0.48"/>
     <use xlink:href="#m7d8d2ce37b" x="260.153187" y="162.031269" style="fill: #55a868; stroke: #ffffff; stroke-width: 0.48"/>
     <use xlink:href="#m7d8d2ce37b" x="257.437201" y="159.966083" style="fill: #55a868; stroke: #ffffff; stroke-width: 0.48"/>
     <use xlink:href="#m7d8d2ce37b" x="254.85701" y="157.900893" style="fill: #55a868; stroke: #ffffff; stroke-width: 0.48"/>
     <use xlink:href="#m7d8d2ce37b" x="252.412628" y="155.835712" style="fill: #55a868; stroke: #ffffff; stroke-width: 0.48"/>
     <use xlink:href="#m7d8d2ce37b" x="250.104031" y="153.770518" style="fill: #55a868; stroke: #ffffff; stroke-width: 0.48"/>
     <use xlink:href="#m7d8d2ce37b" x="247.931248" y="151.705336" style="fill: #55a868; stroke: #ffffff; stroke-width: 0.48"/>
     <use xlink:href="#m7d8d2ce37b" x="245.894258" y="149.640149" style="fill: #55a868; stroke: #ffffff; stroke-width: 0.48"/>
     <use xlink:href="#m7d8d2ce37b" x="243.993065" y="147.57496" style="fill: #55a868; stroke: #ffffff; stroke-width: 0.48"/>
     <use xlink:href="#m7d8d2ce37b" x="242.227679" y="145.509779" style="fill: #55a868; stroke: #ffffff; stroke-width: 0.48"/>
     <use xlink:href="#m7d8d2ce37b" x="240.598081" y="143.444585" style="fill: #55a868; stroke: #ffffff; stroke-width: 0.48"/>
     <use xlink:href="#m7d8d2ce37b" x="239.104292" y="141.379403" style="fill: #55a868; stroke: #ffffff; stroke-width: 0.48"/>
     <use xlink:href="#m7d8d2ce37b" x="237.746298" y="139.314215" style="fill: #55a868; stroke: #ffffff; stroke-width: 0.48"/>
     <use xlink:href="#m7d8d2ce37b" x="236.524102" y="137.249025" style="fill: #55a868; stroke: #ffffff; stroke-width: 0.48"/>
     <use xlink:href="#m7d8d2ce37b" x="235.437708" y="135.18384" style="fill: #55a868; stroke: #ffffff; stroke-width: 0.48"/>
     <use xlink:href="#m7d8d2ce37b" x="234.487112" y="133.118649" style="fill: #55a868; stroke: #ffffff; stroke-width: 0.48"/>
     <use xlink:href="#m7d8d2ce37b" x="233.672319" y="131.05347" style="fill: #55a868; stroke: #ffffff; stroke-width: 0.48"/>
     <use xlink:href="#m7d8d2ce37b" x="232.993319" y="128.988274" style="fill: #55a868; stroke: #ffffff; stroke-width: 0.48"/>
     <use xlink:href="#m7d8d2ce37b" x="232.450124" y="126.923094" style="fill: #55a868; stroke: #ffffff; stroke-width: 0.48"/>
     <use xlink:href="#m7d8d2ce37b" x="232.042725" y="124.857904" style="fill: #55a868; stroke: #ffffff; stroke-width: 0.48"/>
     <use xlink:href="#m7d8d2ce37b" x="231.771126" y="122.792714" style="fill: #55a868; stroke: #ffffff; stroke-width: 0.48"/>
     <use xlink:href="#m7d8d2ce37b" x="231.635327" y="120.727534" style="fill: #55a868; stroke: #ffffff; stroke-width: 0.48"/>
     <use xlink:href="#m7d8d2ce37b" x="231.635327" y="118.662344" style="fill: #55a868; stroke: #ffffff; stroke-width: 0.48"/>
     <use xlink:href="#m7d8d2ce37b" x="231.771126" y="116.597159" style="fill: #55a868; stroke: #ffffff; stroke-width: 0.48"/>
     <use xlink:href="#m7d8d2ce37b" x="232.042725" y="114.531968" style="fill: #55a868; stroke: #ffffff; stroke-width: 0.48"/>
     <use xlink:href="#m7d8d2ce37b" x="232.450123" y="112.466783" style="fill: #55a868; stroke: #ffffff; stroke-width: 0.48"/>
     <use xlink:href="#m7d8d2ce37b" x="232.993321" y="110.401593" style="fill: #55a868; stroke: #ffffff; stroke-width: 0.48"/>
     <use xlink:href="#m7d8d2ce37b" x="233.672317" y="108.336407" style="fill: #55a868; stroke: #ffffff; stroke-width: 0.48"/>
     <use xlink:href="#m7d8d2ce37b" x="234.487112" y="106.271223" style="fill: #55a868; stroke: #ffffff; stroke-width: 0.48"/>
     <use xlink:href="#m7d8d2ce37b" x="235.437706" y="104.206038" style="fill: #55a868; stroke: #ffffff; stroke-width: 0.48"/>
     <use xlink:href="#m7d8d2ce37b" x="236.524102" y="102.140848" style="fill: #55a868; stroke: #ffffff; stroke-width: 0.48"/>
     <use xlink:href="#m7d8d2ce37b" x="237.746295" y="100.075662" style="fill: #55a868; stroke: #ffffff; stroke-width: 0.48"/>
     <use xlink:href="#m7d8d2ce37b" x="239.104291" y="98.010472" style="fill: #55a868; stroke: #ffffff; stroke-width: 0.48"/>
     <use xlink:href="#m7d8d2ce37b" x="240.598081" y="95.945288" style="fill: #55a868; stroke: #ffffff; stroke-width: 0.48"/>
     <use xlink:href="#m7d8d2ce37b" x="242.227673" y="93.880101" style="fill: #55a868; stroke: #ffffff; stroke-width: 0.48"/>
     <use xlink:href="#m7d8d2ce37b" x="243.993061" y="91.814917" style="fill: #55a868; stroke: #ffffff; stroke-width: 0.48"/>
     <use xlink:href="#m7d8d2ce37b" x="245.894253" y="89.749728" style="fill: #55a868; stroke: #ffffff; stroke-width: 0.48"/>
     <use xlink:href="#m7d8d2ce37b" x="247.931248" y="87.684536" style="fill: #55a868; stroke: #ffffff; stroke-width: 0.48"/>
     <use xlink:href="#m7d8d2ce37b" x="250.104038" y="85.61935" style="fill: #55a868; stroke: #ffffff; stroke-width: 0.48"/>
     <use xlink:href="#m7d8d2ce37b" x="252.41262" y="83.554168" style="fill: #55a868; stroke: #ffffff; stroke-width: 0.48"/>
     <use xlink:href="#m7d8d2ce37b" x="254.857007" y="81.488981" style="fill: #55a868; stroke: #ffffff; stroke-width: 0.48"/>
     <use xlink:href="#m7d8d2ce37b" x="257.437201" y="79.42379" style="fill: #55a868; stroke: #ffffff; stroke-width: 0.48"/>
     <use xlink:href="#m7d8d2ce37b" x="260.15318" y="77.358608" style="fill: #55a868; stroke: #ffffff; stroke-width: 0.48"/>
     <use xlink:href="#m7d8d2ce37b" x="263.00497" y="75.293417" style="fill: #55a868; stroke: #ffffff; stroke-width: 0.48"/>
     <use xlink:href="#m7d8d2ce37b" x="265.992554" y="73.22823" style="fill: #55a868; stroke: #ffffff; stroke-width: 0.48"/>
     <use xlink:href="#m7d8d2ce37b" x="269.115939" y="71.163044" style="fill: #55a868; stroke: #ffffff; stroke-width: 0.48"/>
     <use xlink:href="#m7d8d2ce37b" x="272.375114" y="69.097862" style="fill: #55a868; stroke: #ffffff; stroke-width: 0.48"/>
     <use xlink:href="#m7d8d2ce37b" x="275.770106" y="67.03267" style="fill: #55a868; stroke: #ffffff; stroke-width: 0.48"/>
     <use xlink:href="#m7d8d2ce37b" x="279.300888" y="64.967484" style="fill: #55a868; stroke: #ffffff; stroke-width: 0.48"/>
     <use xlink:href="#m7d8d2ce37b" x="282.967468" y="62.902297" style="fill: #55a868; stroke: #ffffff; stroke-width: 0.48"/>
     <use xlink:href="#m7d8d2ce37b" x="286.769851" y="60.83711" style="fill: #55a868; stroke: #ffffff; stroke-width: 0.48"/>
     <use xlink:href="#m7d8d2ce37b" x="290.708029" y="58.771924" style="fill: #55a868; stroke: #ffffff; stroke-width: 0.48"/>
     <use xlink:href="#m7d8d2ce37b" x="294.781997" y="56.706742" style="fill: #55a868; stroke: #ffffff; stroke-width: 0.48"/>
     <use xlink:href="#m7d8d2ce37b" x="298.991788" y="54.641551" style="fill: #55a868; stroke: #ffffff; stroke-width: 0.48"/>
     <use xlink:href="#m7d8d2ce37b" x="303.337376" y="52.576359" style="fill: #55a868; stroke: #ffffff; stroke-width: 0.48"/>
     <use xlink:href="#m7d8d2ce37b" x="307.818762" y="50.511168" style="fill: #55a868; stroke: #ffffff; stroke-width: 0.48"/>
     <use xlink:href="#m7d8d2ce37b" x="312.435926" y="48.445986" style="fill: #55a868; stroke: #ffffff; stroke-width: 0.48"/>
     <use xlink:href="#m7d8d2ce37b" x="317.188893" y="46.380804" style="fill: #55a868; stroke: #ffffff; stroke-width: 0.48"/>
     <use xlink:href="#m7d8d2ce37b" x="322.077677" y="44.315613" style="fill: #55a868; stroke: #ffffff; stroke-width: 0.48"/>
     <use xlink:href="#m7d8d2ce37b" x="327.102264" y="42.250421" style="fill: #55a868; stroke: #ffffff; stroke-width: 0.48"/>
     <use xlink:href="#m7d8d2ce37b" x="332.26261" y="40.185244" style="fill: #55a868; stroke: #ffffff; stroke-width: 0.48"/>
     <use xlink:href="#m7d8d2ce37b" x="337.558798" y="38.120053" style="fill: #55a868; stroke: #ffffff; stroke-width: 0.48"/>
     <use xlink:href="#m7d8d2ce37b" x="342.990771" y="36.054866" style="fill: #55a868; stroke: #ffffff; stroke-width: 0.48"/>
     <use xlink:href="#m7d8d2ce37b" x="348.558553" y="33.989675" style="fill: #55a868; stroke: #ffffff; stroke-width: 0.48"/>
     <use xlink:href="#m7d8d2ce37b" x="354.262089" y="31.924503" style="fill: #55a868; stroke: #ffffff; stroke-width: 0.48"/>
     <use xlink:href="#m7d8d2ce37b" x="360.101466" y="29.859311" style="fill: #55a868; stroke: #ffffff; stroke-width: 0.48"/>
     <use xlink:href="#m7d8d2ce37b" x="366.076646" y="27.79412" style="fill: #55a868; stroke: #ffffff; stroke-width: 0.48"/>
     <use xlink:href="#m7d8d2ce37b" x="372.187631" y="25.728928" style="fill: #55a868; stroke: #ffffff; stroke-width: 0.48"/>
     <use xlink:href="#m7d8d2ce37b" x="378.434419" y="23.663737" style="fill: #55a868; stroke: #ffffff; stroke-width: 0.48"/>
     <use xlink:href="#m7d8d2ce37b" x="384.816934" y="21.598565" style="fill: #55a868; stroke: #ffffff; stroke-width: 0.48"/>
     <use xlink:href="#m7d8d2ce37b" x="391.335316" y="19.533373" style="fill: #55a868; stroke: #ffffff; stroke-width: 0.48"/>
     <use xlink:href="#m7d8d2ce37b" x="397.989502" y="17.468182" style="fill: #55a868; stroke: #ffffff; stroke-width: 0.48"/>
    </g>
   </g>
   <g id="line2d_11">
    <path d="M 65.247202 25.505001 
L 142.1625 25.407569 
L 155.539091 25.175696 
L 165.571517 24.958145 
L 168.915651 25.094769 
L 170.587733 25.334216 
L 172.259803 25.841579 
L 173.931873 26.946036 
L 175.603937 29.640814 
L 177.276013 37.882852 
L 178.948092 63.965256 
L 180.620162 93.222076 
L 182.292232 107.80066 
L 183.964309 114.200193 
L 185.636369 119.318835 
L 187.308448 123.970325 
L 188.980528 127.037395 
L 190.652598 128.692572 
L 192.324665 129.538001 
L 193.996734 129.972748 
L 197.340884 130.326716 
L 202.35709 130.474948 
L 215.733675 130.767049 
L 220.749882 131.089724 
L 224.094031 131.484017 
L 227.438177 132.102433 
L 230.782316 133.004158 
L 234.126456 134.208827 
L 237.470611 135.696332 
L 240.814751 137.451901 
L 244.158891 139.524707 
L 247.503035 142.050256 
L 249.175108 143.53978 
L 250.847185 145.207174 
L 252.519253 147.060822 
L 255.863393 151.271545 
L 262.55168 160.236386 
L 264.22375 162.20356 
L 265.895827 163.972998 
L 267.5679 165.53633 
L 269.239966 166.901341 
L 270.912046 168.086188 
L 272.584116 169.114114 
L 275.928262 170.797531 
L 279.272402 172.133041 
L 284.288618 173.787006 
L 297.665199 177.925012 
L 304.353479 180.253917 
L 309.369695 182.178746 
L 312.713841 183.637119 
L 316.057981 185.299453 
L 324.41835 189.838319 
L 327.76249 191.786794 
L 332.778699 195.02065 
L 339.466985 199.36058 
L 344.483201 202.356148 
L 354.515646 208.030038 
L 359.531862 210.697149 
L 362.87599 212.281271 
L 366.220142 213.637186 
L 369.564282 214.738932 
L 372.908422 215.59736 
L 376.252574 216.247352 
L 381.26879 216.925119 
L 386.284981 217.359023 
L 392.973286 217.711151 
L 397.989502 217.874721 
L 397.989502 217.874721 
" clip-path="url(#p3975ef14e7)" style="fill: none; stroke: #ff0000; stroke-width: 1.5; stroke-linecap: round"/>
   </g>
   <g id="line2d_12">
    <path d="M 65.247202 19.602845 
L 142.1625 19.495985 
L 155.539091 19.241261 
L 165.571517 19.002759 
L 168.915651 19.155235 
L 170.587733 19.420274 
L 172.259803 19.97803 
L 173.931873 21.177365 
L 175.603937 24.031297 
L 177.276013 32.373546 
L 178.948092 57.865135 
L 180.620162 86.608116 
L 182.292232 101.319377 
L 183.964309 107.858721 
L 185.636369 113.145451 
L 187.308448 117.966547 
L 188.980528 121.146431 
L 190.652598 122.862046 
L 192.324665 123.738078 
L 193.996734 124.188426 
L 197.340884 124.554945 
L 202.35709 124.708364 
L 215.733675 125.011058 
L 220.749882 125.345502 
L 224.094031 125.754142 
L 227.438177 126.394979 
L 230.782316 127.329216 
L 234.126456 128.576981 
L 237.470611 130.117154 
L 240.814751 131.934092 
L 244.158891 134.078213 
L 245.830968 135.313746 
L 247.503035 136.688932 
L 249.175108 138.227764 
L 250.847185 139.949509 
L 252.519253 141.862488 
L 255.863393 146.203401 
L 262.55168 155.419569 
L 264.22375 157.435805 
L 265.895827 159.24692 
L 267.5679 160.844862 
L 269.239966 162.23815 
L 270.912046 163.445883 
L 272.584116 164.492269 
L 275.928262 166.202749 
L 279.272402 167.556529 
L 284.288618 169.228525 
L 299.337263 173.944853 
L 306.025549 176.311677 
L 311.041765 178.295006 
L 314.385911 179.830416 
L 319.402127 182.466627 
L 326.090407 186.16882 
L 331.106623 189.276668 
L 339.466985 194.632114 
L 344.483201 197.561105 
L 354.515646 203.102363 
L 359.531862 205.715737 
L 362.87599 207.275447 
L 366.220142 208.617899 
L 369.564282 209.716174 
L 372.908422 210.578531 
L 376.252574 211.236801 
L 381.26879 211.929815 
L 386.284981 212.378206 
L 392.973286 212.74564 
L 397.989502 212.917624 
L 397.989502 212.917624 
" clip-path="url(#p3975ef14e7)" style="fill: none; stroke-dasharray: 5.55,2.4; stroke-dashoffset: 0; stroke: #ff0000; stroke-width: 1.5"/>
   </g>
   <g id="line2d_13">
    <path d="M 65.247202 31.407157 
L 143.834583 31.303602 
L 157.211155 31.069604 
L 165.571517 30.913531 
L 168.915651 31.034302 
L 170.587733 31.248159 
L 172.259803 31.705128 
L 173.931873 32.714707 
L 175.603937 35.250331 
L 177.276013 43.392153 
L 178.948092 70.065377 
L 180.620162 99.836035 
L 182.292232 114.281943 
L 183.964309 120.541665 
L 185.636369 125.49222 
L 187.308448 129.974103 
L 188.980528 132.928359 
L 190.652598 134.523099 
L 192.324665 135.337925 
L 193.996734 135.75707 
L 197.340884 136.098487 
L 204.029163 136.266229 
L 215.733675 136.52304 
L 220.749882 136.833947 
L 224.094031 137.213892 
L 227.438177 137.809887 
L 230.782316 138.679101 
L 234.126456 139.840673 
L 237.470611 141.275509 
L 240.814751 142.969711 
L 244.158891 144.971202 
L 247.503035 147.41158 
L 249.175108 148.851796 
L 250.847185 150.464838 
L 252.519253 152.259156 
L 255.863393 156.339689 
L 262.55168 165.053203 
L 264.22375 166.971315 
L 265.895827 168.699076 
L 267.5679 170.227798 
L 269.239966 171.564532 
L 270.912046 172.726493 
L 274.256182 174.616835 
L 277.600322 176.083641 
L 280.944472 177.286334 
L 287.632767 179.346373 
L 295.993117 181.916515 
L 302.681415 184.200695 
L 307.697625 186.079918 
L 311.041765 187.473221 
L 314.385911 189.056246 
L 321.074191 192.640996 
L 326.090407 195.411194 
L 329.434566 197.459329 
L 342.811125 206.15238 
L 351.171494 211.04603 
L 357.859773 214.802983 
L 361.203926 216.509544 
L 364.548066 218.004228 
L 367.892206 219.242062 
L 371.236358 220.218288 
L 374.580498 220.960809 
L 377.924638 221.513271 
L 382.940854 222.081781 
L 389.629134 222.532053 
L 397.989502 222.831818 
L 397.989502 222.831818 
" clip-path="url(#p3975ef14e7)" style="fill: none; stroke-dasharray: 5.55,2.4; stroke-dashoffset: 0; stroke: #ff0000; stroke-width: 1.5"/>
   </g>
   <g id="patch_3">
    <path d="M 48.530156 233.1 
L 48.530156 7.2 
" style="fill: none; stroke: #ffffff; stroke-width: 1.25; stroke-linejoin: miter; stroke-linecap: square"/>
   </g>
   <g id="patch_4">
    <path d="M 416.305156 233.1 
L 416.305156 7.2 
" style="fill: none; stroke: #ffffff; stroke-width: 1.25; stroke-linejoin: miter; stroke-linecap: square"/>
   </g>
   <g id="patch_5">
    <path d="M 48.530156 233.1 
L 416.305156 233.1 
" style="fill: none; stroke: #ffffff; stroke-width: 1.25; stroke-linejoin: miter; stroke-linecap: square"/>
   </g>
   <g id="patch_6">
    <path d="M 48.530156 7.2 
L 416.305156 7.2 
" style="fill: none; stroke: #ffffff; stroke-width: 1.25; stroke-linejoin: miter; stroke-linecap: square"/>
   </g>
   <g id="legend_1">
    <g id="patch_7">
     <path d="M 56.230156 227.6 
L 185.808438 227.6 
Q 188.008438 227.6 188.008438 225.4 
L 188.008438 178.062187 
Q 188.008438 175.862187 185.808438 175.862187 
L 56.230156 175.862187 
Q 54.030156 175.862187 54.030156 178.062187 
L 54.030156 225.4 
Q 54.030156 227.6 56.230156 227.6 
z
" style="fill: #eaeaf2; opacity: 0.8; stroke: #cccccc; stroke-linejoin: miter"/>
    </g>
    <g id="line2d_14">
     <path d="M 58.430156 184.770469 
L 69.430156 184.770469 
L 80.430156 184.770469 
" style="fill: none; stroke: #ff0000; stroke-width: 1.5; stroke-linecap: round"/>
    </g>
    <g id="text_13">
     <!-- Predicted Mean -->
     <g style="fill: #262626" transform="translate(89.230156 188.620469)scale(0.11 -0.11)">
      <defs>
       <path id="DejaVuSans-64" d="M 2906 2969 
L 2906 4863 
L 3481 4863 
L 3481 0 
L 2906 0 
L 2906 525 
Q 2725 213 2448 61 
Q 2172 -91 1784 -91 
Q 1150 -91 751 415 
Q 353 922 353 1747 
Q 353 2572 751 3078 
Q 1150 3584 1784 3584 
Q 2172 3584 2448 3432 
Q 2725 3281 2906 2969 
z
M 947 1747 
Q 947 1113 1208 752 
Q 1469 391 1925 391 
Q 2381 391 2643 752 
Q 2906 1113 2906 1747 
Q 2906 2381 2643 2742 
Q 2381 3103 1925 3103 
Q 1469 3103 1208 2742 
Q 947 2381 947 1747 
z
" transform="scale(0.015625)"/>
       <path id="DejaVuSans-63" d="M 3122 3366 
L 3122 2828 
Q 2878 2963 2633 3030 
Q 2388 3097 2138 3097 
Q 1578 3097 1268 2742 
Q 959 2388 959 1747 
Q 959 1106 1268 751 
Q 1578 397 2138 397 
Q 2388 397 2633 464 
Q 2878 531 3122 666 
L 3122 134 
Q 2881 22 2623 -34 
Q 2366 -91 2075 -91 
Q 1284 -91 818 406 
Q 353 903 353 1747 
Q 353 2603 823 3093 
Q 1294 3584 2113 3584 
Q 2378 3584 2631 3529 
Q 2884 3475 3122 3366 
z
" transform="scale(0.015625)"/>
       <path id="DejaVuSans-4d" d="M 628 4666 
L 1569 4666 
L 2759 1491 
L 3956 4666 
L 4897 4666 
L 4897 0 
L 4281 0 
L 4281 4097 
L 3078 897 
L 2444 897 
L 1241 4097 
L 1241 0 
L 628 0 
L 628 4666 
z
" transform="scale(0.015625)"/>
      </defs>
      <use xlink:href="#DejaVuSans-50"/>
      <use xlink:href="#DejaVuSans-72" x="58.552734"/>
      <use xlink:href="#DejaVuSans-65" x="97.416016"/>
      <use xlink:href="#DejaVuSans-64" x="158.939453"/>
      <use xlink:href="#DejaVuSans-69" x="222.416016"/>
      <use xlink:href="#DejaVuSans-63" x="250.199219"/>
      <use xlink:href="#DejaVuSans-74" x="305.179688"/>
      <use xlink:href="#DejaVuSans-65" x="344.388672"/>
      <use xlink:href="#DejaVuSans-64" x="405.912109"/>
      <use xlink:href="#DejaVuSans-20" x="469.388672"/>
      <use xlink:href="#DejaVuSans-4d" x="501.175781"/>
      <use xlink:href="#DejaVuSans-65" x="587.455078"/>
      <use xlink:href="#DejaVuSans-61" x="648.978516"/>
      <use xlink:href="#DejaVuSans-6e" x="710.257812"/>
     </g>
    </g>
    <g id="PathCollection_3">
     <g>
      <use xlink:href="#m679c29416a" x="69.430156" y="201.878906" style="fill: #4c72b0; stroke: #ffffff; stroke-width: 0.48"/>
     </g>
    </g>
    <g id="text_14">
     <!-- Observations -->
     <g style="fill: #262626" transform="translate(89.230156 204.766406)scale(0.11 -0.11)">
      <use xlink:href="#DejaVuSans-4f"/>
      <use xlink:href="#DejaVuSans-62" x="78.710938"/>
      <use xlink:href="#DejaVuSans-73" x="142.1875"/>
      <use xlink:href="#DejaVuSans-65" x="194.287109"/>
      <use xlink:href="#DejaVuSans-72" x="255.810547"/>
      <use xlink:href="#DejaVuSans-76" x="296.923828"/>
      <use xlink:href="#DejaVuSans-61" x="356.103516"/>
      <use xlink:href="#DejaVuSans-74" x="417.382812"/>
      <use xlink:href="#DejaVuSans-69" x="456.591797"/>
      <use xlink:href="#DejaVuSans-6f" x="484.375"/>
      <use xlink:href="#DejaVuSans-6e" x="545.556641"/>
      <use xlink:href="#DejaVuSans-73" x="608.935547"/>
     </g>
    </g>
    <g id="PathCollection_4">
     <g>
      <use xlink:href="#m7d8d2ce37b" x="69.430156" y="218.024844" style="fill: #55a868; stroke: #ffffff; stroke-width: 0.48"/>
     </g>
    </g>
    <g id="text_15">
     <!-- True Relationship -->
     <g style="fill: #262626" transform="translate(89.230156 220.912344)scale(0.11 -0.11)">
      <defs>
       <path id="DejaVuSans-54" d="M -19 4666 
L 3928 4666 
L 3928 4134 
L 2272 4134 
L 2272 0 
L 1638 0 
L 1638 4134 
L -19 4134 
L -19 4666 
z
" transform="scale(0.015625)"/>
       <path id="DejaVuSans-75" d="M 544 1381 
L 544 3500 
L 1119 3500 
L 1119 1403 
Q 1119 906 1312 657 
Q 1506 409 1894 409 
Q 2359 409 2629 706 
Q 2900 1003 2900 1516 
L 2900 3500 
L 3475 3500 
L 3475 0 
L 2900 0 
L 2900 538 
Q 2691 219 2414 64 
Q 2138 -91 1772 -91 
Q 1169 -91 856 284 
Q 544 659 544 1381 
z
M 1991 3584 
L 1991 3584 
z
" transform="scale(0.015625)"/>
       <path id="DejaVuSans-52" d="M 2841 2188 
Q 3044 2119 3236 1894 
Q 3428 1669 3622 1275 
L 4263 0 
L 3584 0 
L 2988 1197 
Q 2756 1666 2539 1819 
Q 2322 1972 1947 1972 
L 1259 1972 
L 1259 0 
L 628 0 
L 628 4666 
L 2053 4666 
Q 2853 4666 3247 4331 
Q 3641 3997 3641 3322 
Q 3641 2881 3436 2590 
Q 3231 2300 2841 2188 
z
M 1259 4147 
L 1259 2491 
L 2053 2491 
Q 2509 2491 2742 2702 
Q 2975 2913 2975 3322 
Q 2975 3731 2742 3939 
Q 2509 4147 2053 4147 
L 1259 4147 
z
" transform="scale(0.015625)"/>
       <path id="DejaVuSans-6c" d="M 603 4863 
L 1178 4863 
L 1178 0 
L 603 0 
L 603 4863 
z
" transform="scale(0.015625)"/>
       <path id="DejaVuSans-68" d="M 3513 2113 
L 3513 0 
L 2938 0 
L 2938 2094 
Q 2938 2591 2744 2837 
Q 2550 3084 2163 3084 
Q 1697 3084 1428 2787 
Q 1159 2491 1159 1978 
L 1159 0 
L 581 0 
L 581 4863 
L 1159 4863 
L 1159 2956 
Q 1366 3272 1645 3428 
Q 1925 3584 2291 3584 
Q 2894 3584 3203 3211 
Q 3513 2838 3513 2113 
z
" transform="scale(0.015625)"/>
       <path id="DejaVuSans-70" d="M 1159 525 
L 1159 -1331 
L 581 -1331 
L 581 3500 
L 1159 3500 
L 1159 2969 
Q 1341 3281 1617 3432 
Q 1894 3584 2278 3584 
Q 2916 3584 3314 3078 
Q 3713 2572 3713 1747 
Q 3713 922 3314 415 
Q 2916 -91 2278 -91 
Q 1894 -91 1617 61 
Q 1341 213 1159 525 
z
M 3116 1747 
Q 3116 2381 2855 2742 
Q 2594 3103 2138 3103 
Q 1681 3103 1420 2742 
Q 1159 2381 1159 1747 
Q 1159 1113 1420 752 
Q 1681 391 2138 391 
Q 2594 391 2855 752 
Q 3116 1113 3116 1747 
z
" transform="scale(0.015625)"/>
      </defs>
      <use xlink:href="#DejaVuSans-54"/>
      <use xlink:href="#DejaVuSans-72" x="46.333984"/>
      <use xlink:href="#DejaVuSans-75" x="87.447266"/>
      <use xlink:href="#DejaVuSans-65" x="150.826172"/>
      <use xlink:href="#DejaVuSans-20" x="212.349609"/>
      <use xlink:href="#DejaVuSans-52" x="244.136719"/>
      <use xlink:href="#DejaVuSans-65" x="309.119141"/>
      <use xlink:href="#DejaVuSans-6c" x="370.642578"/>
      <use xlink:href="#DejaVuSans-61" x="398.425781"/>
      <use xlink:href="#DejaVuSans-74" x="459.705078"/>
      <use xlink:href="#DejaVuSans-69" x="498.914062"/>
      <use xlink:href="#DejaVuSans-6f" x="526.697266"/>
      <use xlink:href="#DejaVuSans-6e" x="587.878906"/>
      <use xlink:href="#DejaVuSans-73" x="651.257812"/>
      <use xlink:href="#DejaVuSans-68" x="703.357422"/>
      <use xlink:href="#DejaVuSans-69" x="766.736328"/>
      <use xlink:href="#DejaVuSans-70" x="794.519531"/>
     </g>
    </g>
   </g>
  </g>
 </g>
 <defs>
  <clipPath id="p3975ef14e7">
   <rect x="48.530156" y="7.2" width="367.775" height="225.9"/>
  </clipPath>
 </defs>
</svg>
