<?xml version="1.0" encoding="utf-8" standalone="no"?>
<!DOCTYPE svg PUBLIC "-//W3C//DTD SVG 1.1//EN"
  "http://www.w3.org/Graphics/SVG/1.1/DTD/svg11.dtd">
<svg xmlns:xlink="http://www.w3.org/1999/xlink" width="422.200791pt" height="276.265078pt" viewBox="0 0 422.200791 276.265078" xmlns="http://www.w3.org/2000/svg" version="1.1">
 <metadata>
  <rdf:RDF xmlns:dc="http://purl.org/dc/elements/1.1/" xmlns:cc="http://creativecommons.org/ns#" xmlns:rdf="http://www.w3.org/1999/02/22-rdf-syntax-ns#">
   <cc:Work>
    <dc:type rdf:resource="http://purl.org/dc/dcmitype/StillImage"/>
    <dc:date>2022-06-23T12:14:43.652701</dc:date>
    <dc:format>image/svg+xml</dc:format>
    <dc:creator>
     <cc:Agent>
      <dc:title>Matplotlib v3.5.2, https://matplotlib.org/</dc:title>
     </cc:Agent>
    </dc:creator>
   </cc:Work>
  </rdf:RDF>
 </metadata>
 <defs>
  <style type="text/css">*{stroke-linejoin: round; stroke-linecap: butt}</style>
 </defs>
 <g id="figure_1">
  <g id="patch_1">
   <path d="M 0 276.265078 
L 422.200791 276.265078 
L 422.200791 0 
L 0 0 
L 0 276.265078 
z
" style="fill: none"/>
  </g>
  <g id="axes_1">
   <g id="patch_2">
    <path d="M 59.024844 233.279141 
L 310.940791 233.279141 
L 310.940791 11.379141 
L 59.024844 11.379141 
z
" style="fill: #eaeaf2"/>
   </g>
   <g id="matplotlib.axis_1">
    <g id="xtick_1">
     <g id="line2d_1">
      <path d="M 70.475569 233.279141 
L 70.475569 11.379141 
" clip-path="url(#pbcf8489d64)" style="fill: none; stroke: #ffffff; stroke-linecap: round"/>
     </g>
     <g id="text_1">
      <!-- 0.0 -->
      <g style="fill: #262626" transform="translate(61.72885 251.137422)scale(0.11 -0.11)">
       <defs>
        <path id="DejaVuSans-30" d="M 2034 4250 
Q 1547 4250 1301 3770 
Q 1056 3291 1056 2328 
Q 1056 1369 1301 889 
Q 1547 409 2034 409 
Q 2525 409 2770 889 
Q 3016 1369 3016 2328 
Q 3016 3291 2770 3770 
Q 2525 4250 2034 4250 
z
M 2034 4750 
Q 2819 4750 3233 4129 
Q 3647 3509 3647 2328 
Q 3647 1150 3233 529 
Q 2819 -91 2034 -91 
Q 1250 -91 836 529 
Q 422 1150 422 2328 
Q 422 3509 836 4129 
Q 1250 4750 2034 4750 
z
" transform="scale(0.015625)"/>
        <path id="DejaVuSans-2e" d="M 684 794 
L 1344 794 
L 1344 0 
L 684 0 
L 684 794 
z
" transform="scale(0.015625)"/>
       </defs>
       <use xlink:href="#DejaVuSans-30"/>
       <use xlink:href="#DejaVuSans-2e" x="63.623047"/>
       <use xlink:href="#DejaVuSans-30" x="95.410156"/>
      </g>
     </g>
    </g>
    <g id="xtick_2">
     <g id="line2d_2">
      <path d="M 116.278468 233.279141 
L 116.278468 11.379141 
" clip-path="url(#pbcf8489d64)" style="fill: none; stroke: #ffffff; stroke-linecap: round"/>
     </g>
     <g id="text_2">
      <!-- 0.2 -->
      <g style="fill: #262626" transform="translate(107.531749 251.137422)scale(0.11 -0.11)">
       <defs>
        <path id="DejaVuSans-32" d="M 1228 531 
L 3431 531 
L 3431 0 
L 469 0 
L 469 531 
Q 828 903 1448 1529 
Q 2069 2156 2228 2338 
Q 2531 2678 2651 2914 
Q 2772 3150 2772 3378 
Q 2772 3750 2511 3984 
Q 2250 4219 1831 4219 
Q 1534 4219 1204 4116 
Q 875 4013 500 3803 
L 500 4441 
Q 881 4594 1212 4672 
Q 1544 4750 1819 4750 
Q 2544 4750 2975 4387 
Q 3406 4025 3406 3419 
Q 3406 3131 3298 2873 
Q 3191 2616 2906 2266 
Q 2828 2175 2409 1742 
Q 1991 1309 1228 531 
z
" transform="scale(0.015625)"/>
       </defs>
       <use xlink:href="#DejaVuSans-30"/>
       <use xlink:href="#DejaVuSans-2e" x="63.623047"/>
       <use xlink:href="#DejaVuSans-32" x="95.410156"/>
      </g>
     </g>
    </g>
    <g id="xtick_3">
     <g id="line2d_3">
      <path d="M 162.081368 233.279141 
L 162.081368 11.379141 
" clip-path="url(#pbcf8489d64)" style="fill: none; stroke: #ffffff; stroke-linecap: round"/>
     </g>
     <g id="text_3">
      <!-- 0.4 -->
      <g style="fill: #262626" transform="translate(153.334649 251.137422)scale(0.11 -0.11)">
       <defs>
        <path id="DejaVuSans-34" d="M 2419 4116 
L 825 1625 
L 2419 1625 
L 2419 4116 
z
M 2253 4666 
L 3047 4666 
L 3047 1625 
L 3713 1625 
L 3713 1100 
L 3047 1100 
L 3047 0 
L 2419 0 
L 2419 1100 
L 313 1100 
L 313 1709 
L 2253 4666 
z
" transform="scale(0.015625)"/>
       </defs>
       <use xlink:href="#DejaVuSans-30"/>
       <use xlink:href="#DejaVuSans-2e" x="63.623047"/>
       <use xlink:href="#DejaVuSans-34" x="95.410156"/>
      </g>
     </g>
    </g>
    <g id="xtick_4">
     <g id="line2d_4">
      <path d="M 207.884267 233.279141 
L 207.884267 11.379141 
" clip-path="url(#pbcf8489d64)" style="fill: none; stroke: #ffffff; stroke-linecap: round"/>
     </g>
     <g id="text_4">
      <!-- 0.6 -->
      <g style="fill: #262626" transform="translate(199.137548 251.137422)scale(0.11 -0.11)">
       <defs>
        <path id="DejaVuSans-36" d="M 2113 2584 
Q 1688 2584 1439 2293 
Q 1191 2003 1191 1497 
Q 1191 994 1439 701 
Q 1688 409 2113 409 
Q 2538 409 2786 701 
Q 3034 994 3034 1497 
Q 3034 2003 2786 2293 
Q 2538 2584 2113 2584 
z
M 3366 4563 
L 3366 3988 
Q 3128 4100 2886 4159 
Q 2644 4219 2406 4219 
Q 1781 4219 1451 3797 
Q 1122 3375 1075 2522 
Q 1259 2794 1537 2939 
Q 1816 3084 2150 3084 
Q 2853 3084 3261 2657 
Q 3669 2231 3669 1497 
Q 3669 778 3244 343 
Q 2819 -91 2113 -91 
Q 1303 -91 875 529 
Q 447 1150 447 2328 
Q 447 3434 972 4092 
Q 1497 4750 2381 4750 
Q 2619 4750 2861 4703 
Q 3103 4656 3366 4563 
z
" transform="scale(0.015625)"/>
       </defs>
       <use xlink:href="#DejaVuSans-30"/>
       <use xlink:href="#DejaVuSans-2e" x="63.623047"/>
       <use xlink:href="#DejaVuSans-36" x="95.410156"/>
      </g>
     </g>
    </g>
    <g id="xtick_5">
     <g id="line2d_5">
      <path d="M 253.687167 233.279141 
L 253.687167 11.379141 
" clip-path="url(#pbcf8489d64)" style="fill: none; stroke: #ffffff; stroke-linecap: round"/>
     </g>
     <g id="text_5">
      <!-- 0.8 -->
      <g style="fill: #262626" transform="translate(244.940448 251.137422)scale(0.11 -0.11)">
       <defs>
        <path id="DejaVuSans-38" d="M 2034 2216 
Q 1584 2216 1326 1975 
Q 1069 1734 1069 1313 
Q 1069 891 1326 650 
Q 1584 409 2034 409 
Q 2484 409 2743 651 
Q 3003 894 3003 1313 
Q 3003 1734 2745 1975 
Q 2488 2216 2034 2216 
z
M 1403 2484 
Q 997 2584 770 2862 
Q 544 3141 544 3541 
Q 544 4100 942 4425 
Q 1341 4750 2034 4750 
Q 2731 4750 3128 4425 
Q 3525 4100 3525 3541 
Q 3525 3141 3298 2862 
Q 3072 2584 2669 2484 
Q 3125 2378 3379 2068 
Q 3634 1759 3634 1313 
Q 3634 634 3220 271 
Q 2806 -91 2034 -91 
Q 1263 -91 848 271 
Q 434 634 434 1313 
Q 434 1759 690 2068 
Q 947 2378 1403 2484 
z
M 1172 3481 
Q 1172 3119 1398 2916 
Q 1625 2713 2034 2713 
Q 2441 2713 2670 2916 
Q 2900 3119 2900 3481 
Q 2900 3844 2670 4047 
Q 2441 4250 2034 4250 
Q 1625 4250 1398 4047 
Q 1172 3844 1172 3481 
z
" transform="scale(0.015625)"/>
       </defs>
       <use xlink:href="#DejaVuSans-30"/>
       <use xlink:href="#DejaVuSans-2e" x="63.623047"/>
       <use xlink:href="#DejaVuSans-38" x="95.410156"/>
      </g>
     </g>
    </g>
    <g id="xtick_6">
     <g id="line2d_6">
      <path d="M 299.490066 233.279141 
L 299.490066 11.379141 
" clip-path="url(#pbcf8489d64)" style="fill: none; stroke: #ffffff; stroke-linecap: round"/>
     </g>
     <g id="text_6">
      <!-- 1.0 -->
      <g style="fill: #262626" transform="translate(290.743347 251.137422)scale(0.11 -0.11)">
       <defs>
        <path id="DejaVuSans-31" d="M 794 531 
L 1825 531 
L 1825 4091 
L 703 3866 
L 703 4441 
L 1819 4666 
L 2450 4666 
L 2450 531 
L 3481 531 
L 3481 0 
L 794 0 
L 794 531 
z
" transform="scale(0.015625)"/>
       </defs>
       <use xlink:href="#DejaVuSans-31"/>
       <use xlink:href="#DejaVuSans-2e" x="63.623047"/>
       <use xlink:href="#DejaVuSans-30" x="95.410156"/>
      </g>
     </g>
    </g>
    <g id="text_7">
     <!-- Normalised Beam Angle $\omega$ -->
     <g style="fill: #262626" transform="translate(105.722817 266.545078)scale(0.12 -0.12)">
      <defs>
       <path id="DejaVuSans-4e" d="M 628 4666 
L 1478 4666 
L 3547 763 
L 3547 4666 
L 4159 4666 
L 4159 0 
L 3309 0 
L 1241 3903 
L 1241 0 
L 628 0 
L 628 4666 
z
" transform="scale(0.015625)"/>
       <path id="DejaVuSans-6f" d="M 1959 3097 
Q 1497 3097 1228 2736 
Q 959 2375 959 1747 
Q 959 1119 1226 758 
Q 1494 397 1959 397 
Q 2419 397 2687 759 
Q 2956 1122 2956 1747 
Q 2956 2369 2687 2733 
Q 2419 3097 1959 3097 
z
M 1959 3584 
Q 2709 3584 3137 3096 
Q 3566 2609 3566 1747 
Q 3566 888 3137 398 
Q 2709 -91 1959 -91 
Q 1206 -91 779 398 
Q 353 888 353 1747 
Q 353 2609 779 3096 
Q 1206 3584 1959 3584 
z
" transform="scale(0.015625)"/>
       <path id="DejaVuSans-72" d="M 2631 2963 
Q 2534 3019 2420 3045 
Q 2306 3072 2169 3072 
Q 1681 3072 1420 2755 
Q 1159 2438 1159 1844 
L 1159 0 
L 581 0 
L 581 3500 
L 1159 3500 
L 1159 2956 
Q 1341 3275 1631 3429 
Q 1922 3584 2338 3584 
Q 2397 3584 2469 3576 
Q 2541 3569 2628 3553 
L 2631 2963 
z
" transform="scale(0.015625)"/>
       <path id="DejaVuSans-6d" d="M 3328 2828 
Q 3544 3216 3844 3400 
Q 4144 3584 4550 3584 
Q 5097 3584 5394 3201 
Q 5691 2819 5691 2113 
L 5691 0 
L 5113 0 
L 5113 2094 
Q 5113 2597 4934 2840 
Q 4756 3084 4391 3084 
Q 3944 3084 3684 2787 
Q 3425 2491 3425 1978 
L 3425 0 
L 2847 0 
L 2847 2094 
Q 2847 2600 2669 2842 
Q 2491 3084 2119 3084 
Q 1678 3084 1418 2786 
Q 1159 2488 1159 1978 
L 1159 0 
L 581 0 
L 581 3500 
L 1159 3500 
L 1159 2956 
Q 1356 3278 1631 3431 
Q 1906 3584 2284 3584 
Q 2666 3584 2933 3390 
Q 3200 3197 3328 2828 
z
" transform="scale(0.015625)"/>
       <path id="DejaVuSans-61" d="M 2194 1759 
Q 1497 1759 1228 1600 
Q 959 1441 959 1056 
Q 959 750 1161 570 
Q 1363 391 1709 391 
Q 2188 391 2477 730 
Q 2766 1069 2766 1631 
L 2766 1759 
L 2194 1759 
z
M 3341 1997 
L 3341 0 
L 2766 0 
L 2766 531 
Q 2569 213 2275 61 
Q 1981 -91 1556 -91 
Q 1019 -91 701 211 
Q 384 513 384 1019 
Q 384 1609 779 1909 
Q 1175 2209 1959 2209 
L 2766 2209 
L 2766 2266 
Q 2766 2663 2505 2880 
Q 2244 3097 1772 3097 
Q 1472 3097 1187 3025 
Q 903 2953 641 2809 
L 641 3341 
Q 956 3463 1253 3523 
Q 1550 3584 1831 3584 
Q 2591 3584 2966 3190 
Q 3341 2797 3341 1997 
z
" transform="scale(0.015625)"/>
       <path id="DejaVuSans-6c" d="M 603 4863 
L 1178 4863 
L 1178 0 
L 603 0 
L 603 4863 
z
" transform="scale(0.015625)"/>
       <path id="DejaVuSans-69" d="M 603 3500 
L 1178 3500 
L 1178 0 
L 603 0 
L 603 3500 
z
M 603 4863 
L 1178 4863 
L 1178 4134 
L 603 4134 
L 603 4863 
z
" transform="scale(0.015625)"/>
       <path id="DejaVuSans-73" d="M 2834 3397 
L 2834 2853 
Q 2591 2978 2328 3040 
Q 2066 3103 1784 3103 
Q 1356 3103 1142 2972 
Q 928 2841 928 2578 
Q 928 2378 1081 2264 
Q 1234 2150 1697 2047 
L 1894 2003 
Q 2506 1872 2764 1633 
Q 3022 1394 3022 966 
Q 3022 478 2636 193 
Q 2250 -91 1575 -91 
Q 1294 -91 989 -36 
Q 684 19 347 128 
L 347 722 
Q 666 556 975 473 
Q 1284 391 1588 391 
Q 1994 391 2212 530 
Q 2431 669 2431 922 
Q 2431 1156 2273 1281 
Q 2116 1406 1581 1522 
L 1381 1569 
Q 847 1681 609 1914 
Q 372 2147 372 2553 
Q 372 3047 722 3315 
Q 1072 3584 1716 3584 
Q 2034 3584 2315 3537 
Q 2597 3491 2834 3397 
z
" transform="scale(0.015625)"/>
       <path id="DejaVuSans-65" d="M 3597 1894 
L 3597 1613 
L 953 1613 
Q 991 1019 1311 708 
Q 1631 397 2203 397 
Q 2534 397 2845 478 
Q 3156 559 3463 722 
L 3463 178 
Q 3153 47 2828 -22 
Q 2503 -91 2169 -91 
Q 1331 -91 842 396 
Q 353 884 353 1716 
Q 353 2575 817 3079 
Q 1281 3584 2069 3584 
Q 2775 3584 3186 3129 
Q 3597 2675 3597 1894 
z
M 3022 2063 
Q 3016 2534 2758 2815 
Q 2500 3097 2075 3097 
Q 1594 3097 1305 2825 
Q 1016 2553 972 2059 
L 3022 2063 
z
" transform="scale(0.015625)"/>
       <path id="DejaVuSans-64" d="M 2906 2969 
L 2906 4863 
L 3481 4863 
L 3481 0 
L 2906 0 
L 2906 525 
Q 2725 213 2448 61 
Q 2172 -91 1784 -91 
Q 1150 -91 751 415 
Q 353 922 353 1747 
Q 353 2572 751 3078 
Q 1150 3584 1784 3584 
Q 2172 3584 2448 3432 
Q 2725 3281 2906 2969 
z
M 947 1747 
Q 947 1113 1208 752 
Q 1469 391 1925 391 
Q 2381 391 2643 752 
Q 2906 1113 2906 1747 
Q 2906 2381 2643 2742 
Q 2381 3103 1925 3103 
Q 1469 3103 1208 2742 
Q 947 2381 947 1747 
z
" transform="scale(0.015625)"/>
       <path id="DejaVuSans-20" transform="scale(0.015625)"/>
       <path id="DejaVuSans-42" d="M 1259 2228 
L 1259 519 
L 2272 519 
Q 2781 519 3026 730 
Q 3272 941 3272 1375 
Q 3272 1813 3026 2020 
Q 2781 2228 2272 2228 
L 1259 2228 
z
M 1259 4147 
L 1259 2741 
L 2194 2741 
Q 2656 2741 2882 2914 
Q 3109 3088 3109 3444 
Q 3109 3797 2882 3972 
Q 2656 4147 2194 4147 
L 1259 4147 
z
M 628 4666 
L 2241 4666 
Q 2963 4666 3353 4366 
Q 3744 4066 3744 3513 
Q 3744 3084 3544 2831 
Q 3344 2578 2956 2516 
Q 3422 2416 3680 2098 
Q 3938 1781 3938 1306 
Q 3938 681 3513 340 
Q 3088 0 2303 0 
L 628 0 
L 628 4666 
z
" transform="scale(0.015625)"/>
       <path id="DejaVuSans-41" d="M 2188 4044 
L 1331 1722 
L 3047 1722 
L 2188 4044 
z
M 1831 4666 
L 2547 4666 
L 4325 0 
L 3669 0 
L 3244 1197 
L 1141 1197 
L 716 0 
L 50 0 
L 1831 4666 
z
" transform="scale(0.015625)"/>
       <path id="DejaVuSans-6e" d="M 3513 2113 
L 3513 0 
L 2938 0 
L 2938 2094 
Q 2938 2591 2744 2837 
Q 2550 3084 2163 3084 
Q 1697 3084 1428 2787 
Q 1159 2491 1159 1978 
L 1159 0 
L 581 0 
L 581 3500 
L 1159 3500 
L 1159 2956 
Q 1366 3272 1645 3428 
Q 1925 3584 2291 3584 
Q 2894 3584 3203 3211 
Q 3513 2838 3513 2113 
z
" transform="scale(0.015625)"/>
       <path id="DejaVuSans-67" d="M 2906 1791 
Q 2906 2416 2648 2759 
Q 2391 3103 1925 3103 
Q 1463 3103 1205 2759 
Q 947 2416 947 1791 
Q 947 1169 1205 825 
Q 1463 481 1925 481 
Q 2391 481 2648 825 
Q 2906 1169 2906 1791 
z
M 3481 434 
Q 3481 -459 3084 -895 
Q 2688 -1331 1869 -1331 
Q 1566 -1331 1297 -1286 
Q 1028 -1241 775 -1147 
L 775 -588 
Q 1028 -725 1275 -790 
Q 1522 -856 1778 -856 
Q 2344 -856 2625 -561 
Q 2906 -266 2906 331 
L 2906 616 
Q 2728 306 2450 153 
Q 2172 0 1784 0 
Q 1141 0 747 490 
Q 353 981 353 1791 
Q 353 2603 747 3093 
Q 1141 3584 1784 3584 
Q 2172 3584 2450 3431 
Q 2728 3278 2906 2969 
L 2906 3500 
L 3481 3500 
L 3481 434 
z
" transform="scale(0.015625)"/>
       <path id="DejaVuSans-Oblique-3c9" d="M 1369 -91 
Q 72 -91 434 1766 
Q 575 2500 1256 3500 
L 1875 3500 
Q 1231 2500 1088 1750 
Q 819 397 1519 397 
Q 2166 397 2478 2078 
L 3009 2078 
Q 2669 388 3316 397 
Q 4013 403 4275 1750 
Q 4419 2500 4169 3500 
L 4788 3500 
Q 5075 2500 4934 1766 
Q 4578 -94 3278 -91 
Q 2428 -88 2503 844 
Q 2194 -91 1369 -91 
z
" transform="scale(0.015625)"/>
      </defs>
      <use xlink:href="#DejaVuSans-4e" transform="translate(0 0.015625)"/>
      <use xlink:href="#DejaVuSans-6f" transform="translate(74.804688 0.015625)"/>
      <use xlink:href="#DejaVuSans-72" transform="translate(135.986328 0.015625)"/>
      <use xlink:href="#DejaVuSans-6d" transform="translate(177.099609 0.015625)"/>
      <use xlink:href="#DejaVuSans-61" transform="translate(274.511719 0.015625)"/>
      <use xlink:href="#DejaVuSans-6c" transform="translate(335.791016 0.015625)"/>
      <use xlink:href="#DejaVuSans-69" transform="translate(363.574219 0.015625)"/>
      <use xlink:href="#DejaVuSans-73" transform="translate(391.357422 0.015625)"/>
      <use xlink:href="#DejaVuSans-65" transform="translate(443.457031 0.015625)"/>
      <use xlink:href="#DejaVuSans-64" transform="translate(504.980469 0.015625)"/>
      <use xlink:href="#DejaVuSans-20" transform="translate(568.457031 0.015625)"/>
      <use xlink:href="#DejaVuSans-42" transform="translate(600.244141 0.015625)"/>
      <use xlink:href="#DejaVuSans-65" transform="translate(668.847656 0.015625)"/>
      <use xlink:href="#DejaVuSans-61" transform="translate(730.371094 0.015625)"/>
      <use xlink:href="#DejaVuSans-6d" transform="translate(791.650391 0.015625)"/>
      <use xlink:href="#DejaVuSans-20" transform="translate(889.0625 0.015625)"/>
      <use xlink:href="#DejaVuSans-41" transform="translate(920.849609 0.015625)"/>
      <use xlink:href="#DejaVuSans-6e" transform="translate(989.257812 0.015625)"/>
      <use xlink:href="#DejaVuSans-67" transform="translate(1052.636719 0.015625)"/>
      <use xlink:href="#DejaVuSans-6c" transform="translate(1116.113281 0.015625)"/>
      <use xlink:href="#DejaVuSans-65" transform="translate(1143.896484 0.015625)"/>
      <use xlink:href="#DejaVuSans-20" transform="translate(1205.419922 0.015625)"/>
      <use xlink:href="#DejaVuSans-Oblique-3c9" transform="translate(1237.207031 0.015625)"/>
     </g>
    </g>
   </g>
   <g id="matplotlib.axis_2">
    <g id="ytick_1">
     <g id="line2d_7">
      <path d="M 59.024844 233.279141 
L 310.940791 233.279141 
" clip-path="url(#pbcf8489d64)" style="fill: none; stroke: #ffffff; stroke-linecap: round"/>
     </g>
     <g id="text_8">
      <!-- −1.6 -->
      <g style="fill: #262626" transform="translate(22.81375 237.458281)scale(0.11 -0.11)">
       <defs>
        <path id="DejaVuSans-2212" d="M 678 2272 
L 4684 2272 
L 4684 1741 
L 678 1741 
L 678 2272 
z
" transform="scale(0.015625)"/>
       </defs>
       <use xlink:href="#DejaVuSans-2212"/>
       <use xlink:href="#DejaVuSans-31" x="83.789062"/>
       <use xlink:href="#DejaVuSans-2e" x="147.412109"/>
       <use xlink:href="#DejaVuSans-36" x="179.199219"/>
      </g>
     </g>
    </g>
    <g id="ytick_2">
     <g id="line2d_8">
      <path d="M 59.024844 188.899141 
L 310.940791 188.899141 
" clip-path="url(#pbcf8489d64)" style="fill: none; stroke: #ffffff; stroke-linecap: round"/>
     </g>
     <g id="text_9">
      <!-- −1.4 -->
      <g style="fill: #262626" transform="translate(22.81375 193.078281)scale(0.11 -0.11)">
       <use xlink:href="#DejaVuSans-2212"/>
       <use xlink:href="#DejaVuSans-31" x="83.789062"/>
       <use xlink:href="#DejaVuSans-2e" x="147.412109"/>
       <use xlink:href="#DejaVuSans-34" x="179.199219"/>
      </g>
     </g>
    </g>
    <g id="ytick_3">
     <g id="line2d_9">
      <path d="M 59.024844 144.519141 
L 310.940791 144.519141 
" clip-path="url(#pbcf8489d64)" style="fill: none; stroke: #ffffff; stroke-linecap: round"/>
     </g>
     <g id="text_10">
      <!-- −1.2 -->
      <g style="fill: #262626" transform="translate(22.81375 148.698281)scale(0.11 -0.11)">
       <use xlink:href="#DejaVuSans-2212"/>
       <use xlink:href="#DejaVuSans-31" x="83.789062"/>
       <use xlink:href="#DejaVuSans-2e" x="147.412109"/>
       <use xlink:href="#DejaVuSans-32" x="179.199219"/>
      </g>
     </g>
    </g>
    <g id="ytick_4">
     <g id="line2d_10">
      <path d="M 59.024844 100.139141 
L 310.940791 100.139141 
" clip-path="url(#pbcf8489d64)" style="fill: none; stroke: #ffffff; stroke-linecap: round"/>
     </g>
     <g id="text_11">
      <!-- −1.0 -->
      <g style="fill: #262626" transform="translate(22.81375 104.318281)scale(0.11 -0.11)">
       <use xlink:href="#DejaVuSans-2212"/>
       <use xlink:href="#DejaVuSans-31" x="83.789062"/>
       <use xlink:href="#DejaVuSans-2e" x="147.412109"/>
       <use xlink:href="#DejaVuSans-30" x="179.199219"/>
      </g>
     </g>
    </g>
    <g id="ytick_5">
     <g id="line2d_11">
      <path d="M 59.024844 55.759141 
L 310.940791 55.759141 
" clip-path="url(#pbcf8489d64)" style="fill: none; stroke: #ffffff; stroke-linecap: round"/>
     </g>
     <g id="text_12">
      <!-- −0.8 -->
      <g style="fill: #262626" transform="translate(22.81375 59.938281)scale(0.11 -0.11)">
       <use xlink:href="#DejaVuSans-2212"/>
       <use xlink:href="#DejaVuSans-30" x="83.789062"/>
       <use xlink:href="#DejaVuSans-2e" x="147.412109"/>
       <use xlink:href="#DejaVuSans-38" x="179.199219"/>
      </g>
     </g>
    </g>
    <g id="ytick_6">
     <g id="line2d_12">
      <path d="M 59.024844 11.379141 
L 310.940791 11.379141 
" clip-path="url(#pbcf8489d64)" style="fill: none; stroke: #ffffff; stroke-linecap: round"/>
     </g>
     <g id="text_13">
      <!-- −0.6 -->
      <g style="fill: #262626" transform="translate(22.81375 15.558281)scale(0.11 -0.11)">
       <use xlink:href="#DejaVuSans-2212"/>
       <use xlink:href="#DejaVuSans-30" x="83.789062"/>
       <use xlink:href="#DejaVuSans-2e" x="147.412109"/>
       <use xlink:href="#DejaVuSans-36" x="179.199219"/>
      </g>
     </g>
    </g>
    <g id="text_14">
     <!-- Average Posterior Entropy (APE) -->
     <g style="fill: #262626" transform="translate(16.318125 218.706016)rotate(-90)scale(0.12 -0.12)">
      <defs>
       <path id="DejaVuSans-76" d="M 191 3500 
L 800 3500 
L 1894 563 
L 2988 3500 
L 3597 3500 
L 2284 0 
L 1503 0 
L 191 3500 
z
" transform="scale(0.015625)"/>
       <path id="DejaVuSans-50" d="M 1259 4147 
L 1259 2394 
L 2053 2394 
Q 2494 2394 2734 2622 
Q 2975 2850 2975 3272 
Q 2975 3691 2734 3919 
Q 2494 4147 2053 4147 
L 1259 4147 
z
M 628 4666 
L 2053 4666 
Q 2838 4666 3239 4311 
Q 3641 3956 3641 3272 
Q 3641 2581 3239 2228 
Q 2838 1875 2053 1875 
L 1259 1875 
L 1259 0 
L 628 0 
L 628 4666 
z
" transform="scale(0.015625)"/>
       <path id="DejaVuSans-74" d="M 1172 4494 
L 1172 3500 
L 2356 3500 
L 2356 3053 
L 1172 3053 
L 1172 1153 
Q 1172 725 1289 603 
Q 1406 481 1766 481 
L 2356 481 
L 2356 0 
L 1766 0 
Q 1100 0 847 248 
Q 594 497 594 1153 
L 594 3053 
L 172 3053 
L 172 3500 
L 594 3500 
L 594 4494 
L 1172 4494 
z
" transform="scale(0.015625)"/>
       <path id="DejaVuSans-45" d="M 628 4666 
L 3578 4666 
L 3578 4134 
L 1259 4134 
L 1259 2753 
L 3481 2753 
L 3481 2222 
L 1259 2222 
L 1259 531 
L 3634 531 
L 3634 0 
L 628 0 
L 628 4666 
z
" transform="scale(0.015625)"/>
       <path id="DejaVuSans-70" d="M 1159 525 
L 1159 -1331 
L 581 -1331 
L 581 3500 
L 1159 3500 
L 1159 2969 
Q 1341 3281 1617 3432 
Q 1894 3584 2278 3584 
Q 2916 3584 3314 3078 
Q 3713 2572 3713 1747 
Q 3713 922 3314 415 
Q 2916 -91 2278 -91 
Q 1894 -91 1617 61 
Q 1341 213 1159 525 
z
M 3116 1747 
Q 3116 2381 2855 2742 
Q 2594 3103 2138 3103 
Q 1681 3103 1420 2742 
Q 1159 2381 1159 1747 
Q 1159 1113 1420 752 
Q 1681 391 2138 391 
Q 2594 391 2855 752 
Q 3116 1113 3116 1747 
z
" transform="scale(0.015625)"/>
       <path id="DejaVuSans-79" d="M 2059 -325 
Q 1816 -950 1584 -1140 
Q 1353 -1331 966 -1331 
L 506 -1331 
L 506 -850 
L 844 -850 
Q 1081 -850 1212 -737 
Q 1344 -625 1503 -206 
L 1606 56 
L 191 3500 
L 800 3500 
L 1894 763 
L 2988 3500 
L 3597 3500 
L 2059 -325 
z
" transform="scale(0.015625)"/>
       <path id="DejaVuSans-28" d="M 1984 4856 
Q 1566 4138 1362 3434 
Q 1159 2731 1159 2009 
Q 1159 1288 1364 580 
Q 1569 -128 1984 -844 
L 1484 -844 
Q 1016 -109 783 600 
Q 550 1309 550 2009 
Q 550 2706 781 3412 
Q 1013 4119 1484 4856 
L 1984 4856 
z
" transform="scale(0.015625)"/>
       <path id="DejaVuSans-29" d="M 513 4856 
L 1013 4856 
Q 1481 4119 1714 3412 
Q 1947 2706 1947 2009 
Q 1947 1309 1714 600 
Q 1481 -109 1013 -844 
L 513 -844 
Q 928 -128 1133 580 
Q 1338 1288 1338 2009 
Q 1338 2731 1133 3434 
Q 928 4138 513 4856 
z
" transform="scale(0.015625)"/>
      </defs>
      <use xlink:href="#DejaVuSans-41"/>
      <use xlink:href="#DejaVuSans-76" x="62.533203"/>
      <use xlink:href="#DejaVuSans-65" x="121.712891"/>
      <use xlink:href="#DejaVuSans-72" x="183.236328"/>
      <use xlink:href="#DejaVuSans-61" x="224.349609"/>
      <use xlink:href="#DejaVuSans-67" x="285.628906"/>
      <use xlink:href="#DejaVuSans-65" x="349.105469"/>
      <use xlink:href="#DejaVuSans-20" x="410.628906"/>
      <use xlink:href="#DejaVuSans-50" x="442.416016"/>
      <use xlink:href="#DejaVuSans-6f" x="499.09375"/>
      <use xlink:href="#DejaVuSans-73" x="560.275391"/>
      <use xlink:href="#DejaVuSans-74" x="612.375"/>
      <use xlink:href="#DejaVuSans-65" x="651.583984"/>
      <use xlink:href="#DejaVuSans-72" x="713.107422"/>
      <use xlink:href="#DejaVuSans-69" x="754.220703"/>
      <use xlink:href="#DejaVuSans-6f" x="782.003906"/>
      <use xlink:href="#DejaVuSans-72" x="843.185547"/>
      <use xlink:href="#DejaVuSans-20" x="884.298828"/>
      <use xlink:href="#DejaVuSans-45" x="916.085938"/>
      <use xlink:href="#DejaVuSans-6e" x="979.269531"/>
      <use xlink:href="#DejaVuSans-74" x="1042.648438"/>
      <use xlink:href="#DejaVuSans-72" x="1081.857422"/>
      <use xlink:href="#DejaVuSans-6f" x="1120.720703"/>
      <use xlink:href="#DejaVuSans-70" x="1181.902344"/>
      <use xlink:href="#DejaVuSans-79" x="1245.378906"/>
      <use xlink:href="#DejaVuSans-20" x="1304.558594"/>
      <use xlink:href="#DejaVuSans-28" x="1336.345703"/>
      <use xlink:href="#DejaVuSans-41" x="1375.359375"/>
      <use xlink:href="#DejaVuSans-50" x="1443.767578"/>
      <use xlink:href="#DejaVuSans-45" x="1504.070312"/>
      <use xlink:href="#DejaVuSans-29" x="1567.253906"/>
     </g>
    </g>
   </g>
   <g id="line2d_13">
    <path d="M 70.475569 153.637654 
L 75.149334 153.685903 
L 79.823099 153.801433 
L 84.496865 154.012605 
L 89.170629 154.35014 
L 93.844394 154.8263 
L 98.51816 155.436244 
L 103.191923 156.154058 
L 107.86569 156.966558 
L 112.539456 157.841857 
L 117.213219 158.764831 
L 121.886986 159.696027 
L 126.560752 160.664667 
L 131.234515 161.66914 
L 135.908278 162.707011 
L 140.582048 163.805702 
L 145.255811 164.973154 
L 149.929574 166.184595 
L 154.603344 167.470258 
L 159.277107 168.80072 
L 163.95087 170.141732 
L 168.62464 171.489161 
L 173.298403 172.757397 
L 177.972166 173.896037 
L 182.645936 174.937147 
L 187.319699 175.818107 
L 191.993462 176.483784 
L 196.667225 176.943169 
L 201.340988 177.23325 
L 206.014765 177.266547 
L 210.688528 177.20212 
L 215.362291 176.866575 
L 220.036054 176.426054 
L 224.709817 175.830005 
L 229.38358 175.129728 
L 234.057343 174.295614 
L 238.731119 173.309804 
L 243.404883 172.183395 
L 248.078646 170.77177 
L 252.752409 169.265625 
L 257.426172 167.461808 
L 262.099935 165.576345 
L 266.773711 163.548626 
L 271.447474 161.532591 
L 276.121237 159.529467 
L 280.795 157.786773 
L 285.468763 156.316466 
L 290.142526 155.191584 
L 294.816303 154.430723 
L 299.490066 153.965546 
" clip-path="url(#pbcf8489d64)" style="fill: none; stroke: #4c72b0; stroke-width: 1.5; stroke-linecap: round"/>
   </g>
   <g id="line2d_14">
    <path d="M 70.475569 131.36049 
L 75.149334 131.433709 
L 79.823099 131.582466 
L 84.496865 131.85897 
L 89.170629 132.288788 
L 93.844394 132.90659 
L 98.51816 133.672399 
L 103.191923 134.570186 
L 107.86569 135.588077 
L 112.539456 136.685668 
L 117.213219 137.817915 
L 121.886986 138.933753 
L 126.560752 140.13821 
L 131.234515 141.327697 
L 135.908278 142.575777 
L 140.582048 143.878515 
L 145.255811 145.252299 
L 149.929574 146.745474 
L 154.603344 148.252663 
L 159.277107 149.820042 
L 163.95087 151.418247 
L 168.62464 153.040305 
L 173.298403 154.522042 
L 177.972166 155.901065 
L 182.645936 157.126947 
L 187.319699 158.175443 
L 191.993462 159.007368 
L 196.667225 159.597313 
L 201.340988 159.859954 
L 206.014765 159.954816 
L 210.688528 159.837362 
L 215.362291 159.519243 
L 220.036054 159.049032 
L 224.709817 158.368379 
L 229.38358 157.532635 
L 234.057343 156.589234 
L 238.731119 155.386107 
L 243.404883 153.984867 
L 248.078646 152.465316 
L 252.752409 150.532846 
L 257.426172 148.415829 
L 262.099935 146.043669 
L 266.773711 143.543651 
L 271.447474 141.026853 
L 276.121237 138.576838 
L 280.795 136.43334 
L 285.468763 134.617 
L 290.142526 133.222963 
L 294.816303 132.332233 
L 299.490066 131.787873 
" clip-path="url(#pbcf8489d64)" style="fill: none; stroke: #dd8452; stroke-width: 1.5; stroke-linecap: round"/>
   </g>
   <g id="line2d_15">
    <path d="M 70.475569 112.819052 
L 75.149334 112.91107 
L 79.823099 113.103759 
L 84.496865 113.452161 
L 89.170629 113.989371 
L 93.844394 114.748296 
L 98.51816 115.686593 
L 103.191923 116.794196 
L 107.86569 118.014343 
L 112.539456 119.329611 
L 117.213219 120.660079 
L 121.886986 122.021022 
L 126.560752 123.384765 
L 131.234515 124.784539 
L 135.908278 126.216372 
L 140.582048 127.731684 
L 145.255811 129.32461 
L 149.929574 131.011496 
L 154.603344 132.764315 
L 159.277107 134.572735 
L 163.95087 136.410311 
L 168.62464 138.214639 
L 173.298403 139.963615 
L 177.972166 141.572974 
L 182.645936 142.943926 
L 187.319699 144.139454 
L 191.993462 145.11371 
L 196.667225 145.717923 
L 201.340988 146.158771 
L 206.014765 146.281327 
L 210.688528 146.201912 
L 215.362291 145.841337 
L 220.036054 145.315284 
L 224.709817 144.543914 
L 229.38358 143.618155 
L 234.057343 142.472795 
L 238.731119 141.193121 
L 243.404883 139.603834 
L 248.078646 137.734746 
L 252.752409 135.588627 
L 257.426172 133.123155 
L 262.099935 130.323966 
L 266.773711 127.356059 
L 271.447474 124.346641 
L 276.121237 121.370181 
L 280.795 118.790324 
L 285.468763 116.640158 
L 290.142526 115.019792 
L 294.816303 113.963468 
L 299.490066 113.34517 
" clip-path="url(#pbcf8489d64)" style="fill: none; stroke: #55a868; stroke-width: 1.5; stroke-linecap: round"/>
   </g>
   <g id="line2d_16">
    <path d="M 70.475569 96.934348 
L 75.149334 97.044477 
L 79.823099 97.284247 
L 84.496865 97.721144 
L 89.170629 98.384887 
L 93.844394 99.302583 
L 98.51816 100.427905 
L 103.191923 101.736921 
L 107.86569 103.164766 
L 112.539456 104.704136 
L 117.213219 106.242304 
L 121.886986 107.77968 
L 126.560752 109.341613 
L 131.234515 110.927269 
L 135.908278 112.572467 
L 140.582048 114.258004 
L 145.255811 116.016143 
L 149.929574 117.924052 
L 154.603344 119.922991 
L 159.277107 121.928136 
L 163.95087 123.941924 
L 168.62464 126.027105 
L 173.298403 127.958541 
L 177.972166 129.683108 
L 182.645936 131.262678 
L 187.319699 132.692438 
L 191.993462 133.769935 
L 196.667225 134.518462 
L 201.340988 134.943114 
L 206.014765 135.182974 
L 210.688528 134.992667 
L 215.362291 134.67468 
L 220.036054 134.07735 
L 224.709817 133.293213 
L 229.38358 132.301307 
L 234.057343 131.056552 
L 238.731119 129.557704 
L 243.404883 127.780058 
L 248.078646 125.610897 
L 252.752409 123.232743 
L 257.426172 120.411333 
L 262.099935 117.312643 
L 266.773711 113.943341 
L 271.447474 110.395556 
L 276.121237 106.960156 
L 280.795 103.856341 
L 285.468763 101.316978 
L 290.142526 99.434098 
L 294.816303 98.24651 
L 299.490066 97.535471 
" clip-path="url(#pbcf8489d64)" style="fill: none; stroke: #c44e52; stroke-width: 1.5; stroke-linecap: round"/>
   </g>
   <g id="line2d_17">
    <path d="M 70.475569 83.032738 
L 75.149334 83.17993 
L 79.823099 83.4664 
L 84.496865 83.995623 
L 89.170629 84.791162 
L 93.844394 85.882568 
L 98.51816 87.198285 
L 103.191923 88.723506 
L 107.86569 90.366548 
L 112.539456 92.116238 
L 117.213219 93.849776 
L 121.886986 95.586174 
L 126.560752 97.325169 
L 131.234515 99.094278 
L 135.908278 100.915412 
L 140.582048 102.77714 
L 145.255811 104.741317 
L 149.929574 106.858783 
L 154.603344 109.005049 
L 159.277107 111.222444 
L 163.95087 113.447204 
L 168.62464 115.692569 
L 173.298403 117.876709 
L 177.972166 119.822423 
L 182.645936 121.535893 
L 187.319699 122.995557 
L 191.993462 124.254398 
L 196.667225 125.093132 
L 201.340988 125.580615 
L 206.014765 125.834989 
L 210.688528 125.784217 
L 215.362291 125.349744 
L 220.036054 124.787514 
L 224.709817 123.892212 
L 229.38358 122.825299 
L 234.057343 121.44673 
L 238.731119 119.779801 
L 243.404883 117.820183 
L 248.078646 115.524234 
L 252.752409 112.800749 
L 257.426172 109.691178 
L 262.099935 106.249499 
L 266.773711 102.440401 
L 271.447474 98.501596 
L 276.121237 94.602156 
L 280.795 91.0216 
L 285.468763 88.050824 
L 290.142526 85.858091 
L 294.816303 84.502828 
L 299.490066 83.738779 
" clip-path="url(#pbcf8489d64)" style="fill: none; stroke: #8172b3; stroke-width: 1.5; stroke-linecap: round"/>
   </g>
   <g id="line2d_18">
    <path d="M 70.475569 70.683011 
L 75.149334 70.857554 
L 79.823099 71.216628 
L 84.496865 71.841223 
L 89.170629 72.794072 
L 93.844394 74.049459 
L 98.51816 75.5717 
L 103.191923 77.314436 
L 107.86569 79.157441 
L 112.539456 81.121158 
L 117.213219 83.054345 
L 121.886986 84.981467 
L 126.560752 86.891973 
L 131.234515 88.834992 
L 135.908278 90.818146 
L 140.582048 92.863167 
L 145.255811 95.004555 
L 149.929574 97.275171 
L 154.603344 99.604161 
L 159.277107 102.043238 
L 163.95087 104.497467 
L 168.62464 106.941653 
L 173.298403 109.172325 
L 177.972166 111.296217 
L 182.645936 113.226076 
L 187.319699 114.884211 
L 191.993462 116.158355 
L 196.667225 117.154033 
L 201.340988 117.678919 
L 206.014765 117.910877 
L 210.688528 117.885436 
L 215.362291 117.491142 
L 220.036054 116.927959 
L 224.709817 115.891425 
L 229.38358 114.766362 
L 234.057343 113.246247 
L 238.731119 111.51089 
L 243.404883 109.380117 
L 248.078646 106.817275 
L 252.752409 103.864667 
L 257.426172 100.439375 
L 262.099935 96.629205 
L 266.773711 92.447767 
L 271.447474 88.183771 
L 276.121237 83.84257 
L 280.795 79.801549 
L 285.468763 76.397466 
L 290.142526 73.861845 
L 294.816303 72.316772 
L 299.490066 71.468339 
" clip-path="url(#pbcf8489d64)" style="fill: none; stroke: #937860; stroke-width: 1.5; stroke-linecap: round"/>
   </g>
   <g id="line2d_19">
    <path d="M 70.475569 59.570749 
L 75.149334 59.781186 
L 79.823099 60.21183 
L 84.496865 60.944503 
L 89.170629 62.041649 
L 93.844394 63.498837 
L 98.51816 65.226504 
L 103.191923 67.159852 
L 107.86569 69.266351 
L 112.539456 71.398557 
L 117.213219 73.539534 
L 121.886986 75.600167 
L 126.560752 77.692743 
L 131.234515 79.818801 
L 135.908278 81.935674 
L 140.582048 84.141159 
L 145.255811 86.418095 
L 149.929574 88.858702 
L 154.603344 91.376186 
L 159.277107 93.95377 
L 163.95087 96.552706 
L 168.62464 99.224129 
L 173.298403 101.629103 
L 177.972166 103.938955 
L 182.645936 106.032909 
L 187.319699 107.773472 
L 191.993462 109.238718 
L 196.667225 110.229583 
L 201.340988 110.888247 
L 206.014765 111.182074 
L 210.688528 111.177583 
L 215.362291 110.777416 
L 220.036054 110.099352 
L 224.709817 109.16128 
L 229.38358 107.841259 
L 234.057343 106.2936 
L 238.731119 104.415261 
L 243.404883 102.054288 
L 248.078646 99.317119 
L 252.752409 96.106764 
L 257.426172 92.390964 
L 262.099935 88.314806 
L 266.773711 83.66649 
L 271.447474 78.94851 
L 276.121237 74.280296 
L 280.795 69.965201 
L 285.468763 66.051119 
L 290.142526 63.126283 
L 294.816303 61.35586 
L 299.490066 60.398738 
" clip-path="url(#pbcf8489d64)" style="fill: none; stroke: #da8bc3; stroke-width: 1.5; stroke-linecap: round"/>
   </g>
   <g id="line2d_20">
    <path d="M 70.475569 49.477868 
L 75.149334 49.721024 
L 79.823099 50.223928 
L 84.496865 51.084193 
L 89.170629 52.331204 
L 93.844394 53.967423 
L 98.51816 55.929273 
L 103.191923 58.078263 
L 107.86569 60.37792 
L 112.539456 62.711966 
L 117.213219 64.98659 
L 121.886986 67.260747 
L 126.560752 69.507465 
L 131.234515 71.79495 
L 135.908278 74.077728 
L 140.582048 76.427493 
L 145.255811 78.864565 
L 149.929574 81.471376 
L 154.603344 84.147019 
L 159.277107 86.865048 
L 163.95087 89.631241 
L 168.62464 92.434101 
L 173.298403 94.991144 
L 177.972166 97.476993 
L 182.645936 99.698393 
L 187.319699 101.576883 
L 191.993462 103.101068 
L 196.667225 104.229871 
L 201.340988 104.919886 
L 206.014765 105.271906 
L 210.688528 105.294128 
L 215.362291 104.900497 
L 220.036054 104.26821 
L 224.709817 103.191159 
L 229.38358 101.836755 
L 234.057343 100.197246 
L 238.731119 98.162535 
L 243.404883 95.644553 
L 248.078646 92.778014 
L 252.752409 89.288279 
L 257.426172 85.312935 
L 262.099935 80.847631 
L 266.773711 75.905633 
L 271.447474 70.816092 
L 276.121237 65.663345 
L 280.795 60.96061 
L 285.468763 56.953526 
L 290.142526 53.485578 
L 294.816303 51.406519 
L 299.490066 50.358326 
" clip-path="url(#pbcf8489d64)" style="fill: none; stroke: #8c8c8c; stroke-width: 1.5; stroke-linecap: round"/>
   </g>
   <g id="line2d_21">
    <path d="M 70.475569 40.218893 
L 75.149334 40.506693 
L 79.823099 41.095185 
L 84.496865 42.062411 
L 89.170629 43.494311 
L 93.844394 45.326088 
L 98.51816 47.468242 
L 103.191923 49.844254 
L 107.86569 52.298065 
L 112.539456 54.855217 
L 117.213219 57.367033 
L 121.886986 59.788723 
L 126.560752 62.183516 
L 131.234515 64.609824 
L 135.908278 67.004874 
L 140.582048 69.528287 
L 145.255811 72.092872 
L 149.929574 74.838064 
L 154.603344 77.684405 
L 159.277107 80.615683 
L 163.95087 83.44862 
L 168.62464 86.43172 
L 173.298403 89.24143 
L 177.972166 91.767736 
L 182.645936 94.151329 
L 187.319699 96.069525 
L 191.993462 97.677382 
L 196.667225 98.885011 
L 201.340988 99.73635 
L 206.014765 100.150834 
L 210.688528 100.06958 
L 215.362291 99.709739 
L 220.036054 99.027727 
L 224.709817 97.992092 
L 229.38358 96.602977 
L 234.057343 94.820944 
L 238.731119 92.670244 
L 243.404883 90.055422 
L 248.078646 86.980079 
L 252.752409 83.323159 
L 257.426172 79.054037 
L 262.099935 74.297123 
L 266.773711 69.034952 
L 271.447474 63.446482 
L 276.121237 57.872701 
L 280.795 52.726196 
L 285.468763 48.331798 
L 290.142526 44.683742 
L 294.816303 42.303325 
L 299.490066 41.130299 
" clip-path="url(#pbcf8489d64)" style="fill: none; stroke: #ccb974; stroke-width: 1.5; stroke-linecap: round"/>
   </g>
   <g id="line2d_22">
    <path d="M 70.475569 31.690314 
L 75.149334 32.016807 
L 79.823099 32.684544 
L 84.496865 33.795384 
L 89.170629 35.381506 
L 93.844394 37.406789 
L 98.51816 39.77633 
L 103.191923 42.34248 
L 107.86569 45.045197 
L 112.539456 47.775207 
L 117.213219 50.434415 
L 121.886986 52.995614 
L 126.560752 55.531239 
L 131.234515 58.081059 
L 135.908278 60.658751 
L 140.582048 63.285985 
L 145.255811 66.0261 
L 149.929574 68.883923 
L 154.603344 71.875414 
L 159.277107 74.885399 
L 163.95087 77.94351 
L 168.62464 81.056193 
L 173.298403 83.935505 
L 177.972166 86.690506 
L 182.645936 89.212326 
L 187.319699 91.217377 
L 191.993462 92.943195 
L 196.667225 94.291731 
L 201.340988 95.242106 
L 206.014765 95.587576 
L 210.688528 95.553795 
L 215.362291 95.257695 
L 220.036054 94.535558 
L 224.709817 93.436008 
L 229.38358 91.954995 
L 234.057343 90.126 
L 238.731119 87.91015 
L 243.404883 85.119847 
L 248.078646 81.872371 
L 252.752409 77.936962 
L 257.426172 73.520932 
L 262.099935 68.469688 
L 266.773711 62.821322 
L 271.447474 56.858347 
L 276.121237 50.900476 
L 280.795 45.277767 
L 285.468763 40.492744 
L 290.142526 36.673339 
L 294.816303 33.949935 
L 299.490066 32.632394 
" clip-path="url(#pbcf8489d64)" style="fill: none; stroke: #64b5cd; stroke-width: 1.5; stroke-linecap: round"/>
   </g>
   <g id="patch_3">
    <path d="M 59.024844 233.279141 
L 59.024844 11.379141 
" style="fill: none; stroke: #ffffff; stroke-width: 1.25; stroke-linejoin: miter; stroke-linecap: square"/>
   </g>
   <g id="patch_4">
    <path d="M 310.940791 233.279141 
L 310.940791 11.379141 
" style="fill: none; stroke: #ffffff; stroke-width: 1.25; stroke-linejoin: miter; stroke-linecap: square"/>
   </g>
   <g id="patch_5">
    <path d="M 59.024844 233.279141 
L 310.940791 233.279141 
" style="fill: none; stroke: #ffffff; stroke-width: 1.25; stroke-linejoin: miter; stroke-linecap: square"/>
   </g>
   <g id="patch_6">
    <path d="M 59.024844 11.379141 
L 310.940791 11.379141 
" style="fill: none; stroke: #ffffff; stroke-width: 1.25; stroke-linejoin: miter; stroke-linecap: square"/>
   </g>
   <g id="legend_1">
    <g id="patch_7">
     <path d="M 318.640791 181.638516 
L 412.800791 181.638516 
Q 415.000791 181.638516 415.000791 179.438516 
L 415.000791 19.079141 
Q 415.000791 16.879141 412.800791 16.879141 
L 318.640791 16.879141 
Q 316.440791 16.879141 316.440791 19.079141 
L 316.440791 179.438516 
Q 316.440791 181.638516 318.640791 181.638516 
z
" style="fill: #eaeaf2; opacity: 0.8; stroke: #cccccc; stroke-linejoin: miter"/>
    </g>
    <g id="line2d_23">
     <path d="M 320.840791 25.787422 
L 331.840791 25.787422 
L 342.840791 25.787422 
" style="fill: none; stroke: #4c72b0; stroke-width: 1.5; stroke-linecap: round"/>
    </g>
    <g id="text_15">
     <!-- $\Gamma_\theta$ = 0.005 -->
     <g style="fill: #262626" transform="translate(351.640791 29.637422)scale(0.11 -0.11)">
      <defs>
       <path id="DejaVuSans-393" d="M 628 0 
L 628 4666 
L 3531 4666 
L 3531 4134 
L 1259 4134 
L 1259 0 
L 628 0 
z
" transform="scale(0.015625)"/>
       <path id="DejaVuSans-Oblique-3b8" d="M 2913 2219 
L 925 2219 
Q 791 1284 928 888 
Q 1100 400 1566 400 
Q 2034 400 2391 891 
Q 2703 1322 2913 2219 
z
M 3009 2750 
Q 3094 3638 2984 3950 
Q 2813 4444 2353 4444 
Q 1875 4444 1525 3956 
Q 1250 3563 1034 2750 
L 3009 2750 
z
M 2444 4913 
Q 3194 4913 3494 4250 
Q 3794 3591 3566 2422 
Q 3341 1256 2781 594 
Q 2225 -72 1475 -72 
Q 722 -72 425 594 
Q 128 1256 353 2422 
Q 581 3591 1134 4250 
Q 1691 4913 2444 4913 
z
" transform="scale(0.015625)"/>
       <path id="DejaVuSans-3d" d="M 678 2906 
L 4684 2906 
L 4684 2381 
L 678 2381 
L 678 2906 
z
M 678 1631 
L 4684 1631 
L 4684 1100 
L 678 1100 
L 678 1631 
z
" transform="scale(0.015625)"/>
       <path id="DejaVuSans-35" d="M 691 4666 
L 3169 4666 
L 3169 4134 
L 1269 4134 
L 1269 2991 
Q 1406 3038 1543 3061 
Q 1681 3084 1819 3084 
Q 2600 3084 3056 2656 
Q 3513 2228 3513 1497 
Q 3513 744 3044 326 
Q 2575 -91 1722 -91 
Q 1428 -91 1123 -41 
Q 819 9 494 109 
L 494 744 
Q 775 591 1075 516 
Q 1375 441 1709 441 
Q 2250 441 2565 725 
Q 2881 1009 2881 1497 
Q 2881 1984 2565 2268 
Q 2250 2553 1709 2553 
Q 1456 2553 1204 2497 
Q 953 2441 691 2322 
L 691 4666 
z
" transform="scale(0.015625)"/>
      </defs>
      <use xlink:href="#DejaVuSans-393" transform="translate(0 0.78125)"/>
      <use xlink:href="#DejaVuSans-Oblique-3b8" transform="translate(56.669922 -15.625)scale(0.7)"/>
      <use xlink:href="#DejaVuSans-20" transform="translate(102.231445 0.78125)"/>
      <use xlink:href="#DejaVuSans-3d" transform="translate(134.018555 0.78125)"/>
      <use xlink:href="#DejaVuSans-20" transform="translate(217.807617 0.78125)"/>
      <use xlink:href="#DejaVuSans-30" transform="translate(249.594727 0.78125)"/>
      <use xlink:href="#DejaVuSans-2e" transform="translate(313.217773 0.78125)"/>
      <use xlink:href="#DejaVuSans-30" transform="translate(345.004883 0.78125)"/>
      <use xlink:href="#DejaVuSans-30" transform="translate(408.62793 0.78125)"/>
      <use xlink:href="#DejaVuSans-35" transform="translate(472.250977 0.78125)"/>
     </g>
    </g>
    <g id="line2d_24">
     <path d="M 320.840791 41.933359 
L 331.840791 41.933359 
L 342.840791 41.933359 
" style="fill: none; stroke: #dd8452; stroke-width: 1.5; stroke-linecap: round"/>
    </g>
    <g id="text_16">
     <!-- $\Gamma_\theta$ = 0.006 -->
     <g style="fill: #262626" transform="translate(351.640791 45.783359)scale(0.11 -0.11)">
      <use xlink:href="#DejaVuSans-393" transform="translate(0 0.78125)"/>
      <use xlink:href="#DejaVuSans-Oblique-3b8" transform="translate(56.669922 -15.625)scale(0.7)"/>
      <use xlink:href="#DejaVuSans-20" transform="translate(102.231445 0.78125)"/>
      <use xlink:href="#DejaVuSans-3d" transform="translate(134.018555 0.78125)"/>
      <use xlink:href="#DejaVuSans-20" transform="translate(217.807617 0.78125)"/>
      <use xlink:href="#DejaVuSans-30" transform="translate(249.594727 0.78125)"/>
      <use xlink:href="#DejaVuSans-2e" transform="translate(313.217773 0.78125)"/>
      <use xlink:href="#DejaVuSans-30" transform="translate(345.004883 0.78125)"/>
      <use xlink:href="#DejaVuSans-30" transform="translate(408.62793 0.78125)"/>
      <use xlink:href="#DejaVuSans-36" transform="translate(472.250977 0.78125)"/>
     </g>
    </g>
    <g id="line2d_25">
     <path d="M 320.840791 58.079297 
L 331.840791 58.079297 
L 342.840791 58.079297 
" style="fill: none; stroke: #55a868; stroke-width: 1.5; stroke-linecap: round"/>
    </g>
    <g id="text_17">
     <!-- $\Gamma_\theta$ = 0.007 -->
     <g style="fill: #262626" transform="translate(351.640791 61.929297)scale(0.11 -0.11)">
      <defs>
       <path id="DejaVuSans-37" d="M 525 4666 
L 3525 4666 
L 3525 4397 
L 1831 0 
L 1172 0 
L 2766 4134 
L 525 4134 
L 525 4666 
z
" transform="scale(0.015625)"/>
      </defs>
      <use xlink:href="#DejaVuSans-393" transform="translate(0 0.78125)"/>
      <use xlink:href="#DejaVuSans-Oblique-3b8" transform="translate(56.669922 -15.625)scale(0.7)"/>
      <use xlink:href="#DejaVuSans-20" transform="translate(102.231445 0.78125)"/>
      <use xlink:href="#DejaVuSans-3d" transform="translate(134.018555 0.78125)"/>
      <use xlink:href="#DejaVuSans-20" transform="translate(217.807617 0.78125)"/>
      <use xlink:href="#DejaVuSans-30" transform="translate(249.594727 0.78125)"/>
      <use xlink:href="#DejaVuSans-2e" transform="translate(313.217773 0.78125)"/>
      <use xlink:href="#DejaVuSans-30" transform="translate(345.004883 0.78125)"/>
      <use xlink:href="#DejaVuSans-30" transform="translate(408.62793 0.78125)"/>
      <use xlink:href="#DejaVuSans-37" transform="translate(472.250977 0.78125)"/>
     </g>
    </g>
    <g id="line2d_26">
     <path d="M 320.840791 74.225234 
L 331.840791 74.225234 
L 342.840791 74.225234 
" style="fill: none; stroke: #c44e52; stroke-width: 1.5; stroke-linecap: round"/>
    </g>
    <g id="text_18">
     <!-- $\Gamma_\theta$ = 0.008 -->
     <g style="fill: #262626" transform="translate(351.640791 78.075234)scale(0.11 -0.11)">
      <use xlink:href="#DejaVuSans-393" transform="translate(0 0.78125)"/>
      <use xlink:href="#DejaVuSans-Oblique-3b8" transform="translate(56.669922 -15.625)scale(0.7)"/>
      <use xlink:href="#DejaVuSans-20" transform="translate(102.231445 0.78125)"/>
      <use xlink:href="#DejaVuSans-3d" transform="translate(134.018555 0.78125)"/>
      <use xlink:href="#DejaVuSans-20" transform="translate(217.807617 0.78125)"/>
      <use xlink:href="#DejaVuSans-30" transform="translate(249.594727 0.78125)"/>
      <use xlink:href="#DejaVuSans-2e" transform="translate(313.217773 0.78125)"/>
      <use xlink:href="#DejaVuSans-30" transform="translate(345.004883 0.78125)"/>
      <use xlink:href="#DejaVuSans-30" transform="translate(408.62793 0.78125)"/>
      <use xlink:href="#DejaVuSans-38" transform="translate(472.250977 0.78125)"/>
     </g>
    </g>
    <g id="line2d_27">
     <path d="M 320.840791 90.371172 
L 331.840791 90.371172 
L 342.840791 90.371172 
" style="fill: none; stroke: #8172b3; stroke-width: 1.5; stroke-linecap: round"/>
    </g>
    <g id="text_19">
     <!-- $\Gamma_\theta$ = 0.009 -->
     <g style="fill: #262626" transform="translate(351.640791 94.221172)scale(0.11 -0.11)">
      <defs>
       <path id="DejaVuSans-39" d="M 703 97 
L 703 672 
Q 941 559 1184 500 
Q 1428 441 1663 441 
Q 2288 441 2617 861 
Q 2947 1281 2994 2138 
Q 2813 1869 2534 1725 
Q 2256 1581 1919 1581 
Q 1219 1581 811 2004 
Q 403 2428 403 3163 
Q 403 3881 828 4315 
Q 1253 4750 1959 4750 
Q 2769 4750 3195 4129 
Q 3622 3509 3622 2328 
Q 3622 1225 3098 567 
Q 2575 -91 1691 -91 
Q 1453 -91 1209 -44 
Q 966 3 703 97 
z
M 1959 2075 
Q 2384 2075 2632 2365 
Q 2881 2656 2881 3163 
Q 2881 3666 2632 3958 
Q 2384 4250 1959 4250 
Q 1534 4250 1286 3958 
Q 1038 3666 1038 3163 
Q 1038 2656 1286 2365 
Q 1534 2075 1959 2075 
z
" transform="scale(0.015625)"/>
      </defs>
      <use xlink:href="#DejaVuSans-393" transform="translate(0 0.78125)"/>
      <use xlink:href="#DejaVuSans-Oblique-3b8" transform="translate(56.669922 -15.625)scale(0.7)"/>
      <use xlink:href="#DejaVuSans-20" transform="translate(102.231445 0.78125)"/>
      <use xlink:href="#DejaVuSans-3d" transform="translate(134.018555 0.78125)"/>
      <use xlink:href="#DejaVuSans-20" transform="translate(217.807617 0.78125)"/>
      <use xlink:href="#DejaVuSans-30" transform="translate(249.594727 0.78125)"/>
      <use xlink:href="#DejaVuSans-2e" transform="translate(313.217773 0.78125)"/>
      <use xlink:href="#DejaVuSans-30" transform="translate(345.004883 0.78125)"/>
      <use xlink:href="#DejaVuSans-30" transform="translate(408.62793 0.78125)"/>
      <use xlink:href="#DejaVuSans-39" transform="translate(472.250977 0.78125)"/>
     </g>
    </g>
    <g id="line2d_28">
     <path d="M 320.840791 106.517109 
L 331.840791 106.517109 
L 342.840791 106.517109 
" style="fill: none; stroke: #937860; stroke-width: 1.5; stroke-linecap: round"/>
    </g>
    <g id="text_20">
     <!-- $\Gamma_\theta$ = 0.011 -->
     <g style="fill: #262626" transform="translate(351.640791 110.367109)scale(0.11 -0.11)">
      <use xlink:href="#DejaVuSans-393" transform="translate(0 0.78125)"/>
      <use xlink:href="#DejaVuSans-Oblique-3b8" transform="translate(56.669922 -15.625)scale(0.7)"/>
      <use xlink:href="#DejaVuSans-20" transform="translate(102.231445 0.78125)"/>
      <use xlink:href="#DejaVuSans-3d" transform="translate(134.018555 0.78125)"/>
      <use xlink:href="#DejaVuSans-20" transform="translate(217.807617 0.78125)"/>
      <use xlink:href="#DejaVuSans-30" transform="translate(249.594727 0.78125)"/>
      <use xlink:href="#DejaVuSans-2e" transform="translate(313.217773 0.78125)"/>
      <use xlink:href="#DejaVuSans-30" transform="translate(345.004883 0.78125)"/>
      <use xlink:href="#DejaVuSans-31" transform="translate(408.62793 0.78125)"/>
      <use xlink:href="#DejaVuSans-31" transform="translate(472.250977 0.78125)"/>
     </g>
    </g>
    <g id="line2d_29">
     <path d="M 320.840791 122.663047 
L 331.840791 122.663047 
L 342.840791 122.663047 
" style="fill: none; stroke: #da8bc3; stroke-width: 1.5; stroke-linecap: round"/>
    </g>
    <g id="text_21">
     <!-- $\Gamma_\theta$ = 0.012 -->
     <g style="fill: #262626" transform="translate(351.640791 126.513047)scale(0.11 -0.11)">
      <use xlink:href="#DejaVuSans-393" transform="translate(0 0.78125)"/>
      <use xlink:href="#DejaVuSans-Oblique-3b8" transform="translate(56.669922 -15.625)scale(0.7)"/>
      <use xlink:href="#DejaVuSans-20" transform="translate(102.231445 0.78125)"/>
      <use xlink:href="#DejaVuSans-3d" transform="translate(134.018555 0.78125)"/>
      <use xlink:href="#DejaVuSans-20" transform="translate(217.807617 0.78125)"/>
      <use xlink:href="#DejaVuSans-30" transform="translate(249.594727 0.78125)"/>
      <use xlink:href="#DejaVuSans-2e" transform="translate(313.217773 0.78125)"/>
      <use xlink:href="#DejaVuSans-30" transform="translate(345.004883 0.78125)"/>
      <use xlink:href="#DejaVuSans-31" transform="translate(408.62793 0.78125)"/>
      <use xlink:href="#DejaVuSans-32" transform="translate(472.250977 0.78125)"/>
     </g>
    </g>
    <g id="line2d_30">
     <path d="M 320.840791 138.808984 
L 331.840791 138.808984 
L 342.840791 138.808984 
" style="fill: none; stroke: #8c8c8c; stroke-width: 1.5; stroke-linecap: round"/>
    </g>
    <g id="text_22">
     <!-- $\Gamma_\theta$ = 0.013 -->
     <g style="fill: #262626" transform="translate(351.640791 142.658984)scale(0.11 -0.11)">
      <defs>
       <path id="DejaVuSans-33" d="M 2597 2516 
Q 3050 2419 3304 2112 
Q 3559 1806 3559 1356 
Q 3559 666 3084 287 
Q 2609 -91 1734 -91 
Q 1441 -91 1130 -33 
Q 819 25 488 141 
L 488 750 
Q 750 597 1062 519 
Q 1375 441 1716 441 
Q 2309 441 2620 675 
Q 2931 909 2931 1356 
Q 2931 1769 2642 2001 
Q 2353 2234 1838 2234 
L 1294 2234 
L 1294 2753 
L 1863 2753 
Q 2328 2753 2575 2939 
Q 2822 3125 2822 3475 
Q 2822 3834 2567 4026 
Q 2313 4219 1838 4219 
Q 1578 4219 1281 4162 
Q 984 4106 628 3988 
L 628 4550 
Q 988 4650 1302 4700 
Q 1616 4750 1894 4750 
Q 2613 4750 3031 4423 
Q 3450 4097 3450 3541 
Q 3450 3153 3228 2886 
Q 3006 2619 2597 2516 
z
" transform="scale(0.015625)"/>
      </defs>
      <use xlink:href="#DejaVuSans-393" transform="translate(0 0.78125)"/>
      <use xlink:href="#DejaVuSans-Oblique-3b8" transform="translate(56.669922 -15.625)scale(0.7)"/>
      <use xlink:href="#DejaVuSans-20" transform="translate(102.231445 0.78125)"/>
      <use xlink:href="#DejaVuSans-3d" transform="translate(134.018555 0.78125)"/>
      <use xlink:href="#DejaVuSans-20" transform="translate(217.807617 0.78125)"/>
      <use xlink:href="#DejaVuSans-30" transform="translate(249.594727 0.78125)"/>
      <use xlink:href="#DejaVuSans-2e" transform="translate(313.217773 0.78125)"/>
      <use xlink:href="#DejaVuSans-30" transform="translate(345.004883 0.78125)"/>
      <use xlink:href="#DejaVuSans-31" transform="translate(408.62793 0.78125)"/>
      <use xlink:href="#DejaVuSans-33" transform="translate(472.250977 0.78125)"/>
     </g>
    </g>
    <g id="line2d_31">
     <path d="M 320.840791 154.954922 
L 331.840791 154.954922 
L 342.840791 154.954922 
" style="fill: none; stroke: #ccb974; stroke-width: 1.5; stroke-linecap: round"/>
    </g>
    <g id="text_23">
     <!-- $\Gamma_\theta$ = 0.014 -->
     <g style="fill: #262626" transform="translate(351.640791 158.804922)scale(0.11 -0.11)">
      <use xlink:href="#DejaVuSans-393" transform="translate(0 0.78125)"/>
      <use xlink:href="#DejaVuSans-Oblique-3b8" transform="translate(56.669922 -15.625)scale(0.7)"/>
      <use xlink:href="#DejaVuSans-20" transform="translate(102.231445 0.78125)"/>
      <use xlink:href="#DejaVuSans-3d" transform="translate(134.018555 0.78125)"/>
      <use xlink:href="#DejaVuSans-20" transform="translate(217.807617 0.78125)"/>
      <use xlink:href="#DejaVuSans-30" transform="translate(249.594727 0.78125)"/>
      <use xlink:href="#DejaVuSans-2e" transform="translate(313.217773 0.78125)"/>
      <use xlink:href="#DejaVuSans-30" transform="translate(345.004883 0.78125)"/>
      <use xlink:href="#DejaVuSans-31" transform="translate(408.62793 0.78125)"/>
      <use xlink:href="#DejaVuSans-34" transform="translate(472.250977 0.78125)"/>
     </g>
    </g>
    <g id="line2d_32">
     <path d="M 320.840791 171.100859 
L 331.840791 171.100859 
L 342.840791 171.100859 
" style="fill: none; stroke: #64b5cd; stroke-width: 1.5; stroke-linecap: round"/>
    </g>
    <g id="text_24">
     <!-- $\Gamma_\theta$ = 0.015 -->
     <g style="fill: #262626" transform="translate(351.640791 174.950859)scale(0.11 -0.11)">
      <use xlink:href="#DejaVuSans-393" transform="translate(0 0.78125)"/>
      <use xlink:href="#DejaVuSans-Oblique-3b8" transform="translate(56.669922 -15.625)scale(0.7)"/>
      <use xlink:href="#DejaVuSans-20" transform="translate(102.231445 0.78125)"/>
      <use xlink:href="#DejaVuSans-3d" transform="translate(134.018555 0.78125)"/>
      <use xlink:href="#DejaVuSans-20" transform="translate(217.807617 0.78125)"/>
      <use xlink:href="#DejaVuSans-30" transform="translate(249.594727 0.78125)"/>
      <use xlink:href="#DejaVuSans-2e" transform="translate(313.217773 0.78125)"/>
      <use xlink:href="#DejaVuSans-30" transform="translate(345.004883 0.78125)"/>
      <use xlink:href="#DejaVuSans-31" transform="translate(408.62793 0.78125)"/>
      <use xlink:href="#DejaVuSans-35" transform="translate(472.250977 0.78125)"/>
     </g>
    </g>
   </g>
  </g>
 </g>
 <defs>
  <clipPath id="pbcf8489d64">
   <rect x="59.024844" y="11.379141" width="251.915947" height="221.9"/>
  </clipPath>
 </defs>
</svg>
