<?xml version="1.0" encoding="utf-8" standalone="no"?>
<!DOCTYPE svg PUBLIC "-//W3C//DTD SVG 1.1//EN"
  "http://www.w3.org/Graphics/SVG/1.1/DTD/svg11.dtd">
<svg xmlns:xlink="http://www.w3.org/1999/xlink" width="432pt" height="288pt" viewBox="0 0 432 288" xmlns="http://www.w3.org/2000/svg" version="1.1">
 <metadata>
  <rdf:RDF xmlns:dc="http://purl.org/dc/elements/1.1/" xmlns:cc="http://creativecommons.org/ns#" xmlns:rdf="http://www.w3.org/1999/02/22-rdf-syntax-ns#">
   <cc:Work>
    <dc:type rdf:resource="http://purl.org/dc/dcmitype/StillImage"/>
    <dc:date>2022-06-23T04:34:58.397336</dc:date>
    <dc:format>image/svg+xml</dc:format>
    <dc:creator>
     <cc:Agent>
      <dc:title>Matplotlib v3.5.2, https://matplotlib.org/</dc:title>
     </cc:Agent>
    </dc:creator>
   </cc:Work>
  </rdf:RDF>
 </metadata>
 <defs>
  <style type="text/css">*{stroke-linejoin: round; stroke-linecap: butt}</style>
 </defs>
 <g id="figure_1">
  <g id="patch_1">
   <path d="M 0 288 
L 432 288 
L 432 0 
L 0 0 
L 0 288 
z
" style="fill: none"/>
  </g>
  <g id="axes_1">
   <g id="patch_2">
    <path d="M 67.8 240.7 
L 421.2 240.7 
L 421.2 10.8 
L 67.8 10.8 
z
" style="fill: #eaeaf2"/>
   </g>
   <g id="matplotlib.axis_1">
    <g id="xtick_1">
     <g id="line2d_1">
      <path d="M 83.863636 240.7 
L 83.863636 10.8 
" clip-path="url(#p877c987d74)" style="fill: none; stroke: #ffffff; stroke-linecap: round"/>
     </g>
     <g id="text_1">
      <!-- 0 -->
      <g style="fill: #262626" transform="translate(80.364261 258.558281)scale(0.11 -0.11)">
       <defs>
        <path id="DejaVuSans-30" d="M 2034 4250 
Q 1547 4250 1301 3770 
Q 1056 3291 1056 2328 
Q 1056 1369 1301 889 
Q 1547 409 2034 409 
Q 2525 409 2770 889 
Q 3016 1369 3016 2328 
Q 3016 3291 2770 3770 
Q 2525 4250 2034 4250 
z
M 2034 4750 
Q 2819 4750 3233 4129 
Q 3647 3509 3647 2328 
Q 3647 1150 3233 529 
Q 2819 -91 2034 -91 
Q 1250 -91 836 529 
Q 422 1150 422 2328 
Q 422 3509 836 4129 
Q 1250 4750 2034 4750 
z
" transform="scale(0.015625)"/>
       </defs>
       <use xlink:href="#DejaVuSans-30"/>
      </g>
     </g>
    </g>
    <g id="xtick_2">
     <g id="line2d_2">
      <path d="M 148.767218 240.7 
L 148.767218 10.8 
" clip-path="url(#p877c987d74)" style="fill: none; stroke: #ffffff; stroke-linecap: round"/>
     </g>
     <g id="text_2">
      <!-- 20 -->
      <g style="fill: #262626" transform="translate(141.768468 258.558281)scale(0.11 -0.11)">
       <defs>
        <path id="DejaVuSans-32" d="M 1228 531 
L 3431 531 
L 3431 0 
L 469 0 
L 469 531 
Q 828 903 1448 1529 
Q 2069 2156 2228 2338 
Q 2531 2678 2651 2914 
Q 2772 3150 2772 3378 
Q 2772 3750 2511 3984 
Q 2250 4219 1831 4219 
Q 1534 4219 1204 4116 
Q 875 4013 500 3803 
L 500 4441 
Q 881 4594 1212 4672 
Q 1544 4750 1819 4750 
Q 2544 4750 2975 4387 
Q 3406 4025 3406 3419 
Q 3406 3131 3298 2873 
Q 3191 2616 2906 2266 
Q 2828 2175 2409 1742 
Q 1991 1309 1228 531 
z
" transform="scale(0.015625)"/>
       </defs>
       <use xlink:href="#DejaVuSans-32"/>
       <use xlink:href="#DejaVuSans-30" x="63.623047"/>
      </g>
     </g>
    </g>
    <g id="xtick_3">
     <g id="line2d_3">
      <path d="M 213.670799 240.7 
L 213.670799 10.8 
" clip-path="url(#p877c987d74)" style="fill: none; stroke: #ffffff; stroke-linecap: round"/>
     </g>
     <g id="text_3">
      <!-- 40 -->
      <g style="fill: #262626" transform="translate(206.672049 258.558281)scale(0.11 -0.11)">
       <defs>
        <path id="DejaVuSans-34" d="M 2419 4116 
L 825 1625 
L 2419 1625 
L 2419 4116 
z
M 2253 4666 
L 3047 4666 
L 3047 1625 
L 3713 1625 
L 3713 1100 
L 3047 1100 
L 3047 0 
L 2419 0 
L 2419 1100 
L 313 1100 
L 313 1709 
L 2253 4666 
z
" transform="scale(0.015625)"/>
       </defs>
       <use xlink:href="#DejaVuSans-34"/>
       <use xlink:href="#DejaVuSans-30" x="63.623047"/>
      </g>
     </g>
    </g>
    <g id="xtick_4">
     <g id="line2d_4">
      <path d="M 278.57438 240.7 
L 278.57438 10.8 
" clip-path="url(#p877c987d74)" style="fill: none; stroke: #ffffff; stroke-linecap: round"/>
     </g>
     <g id="text_4">
      <!-- 60 -->
      <g style="fill: #262626" transform="translate(271.57563 258.558281)scale(0.11 -0.11)">
       <defs>
        <path id="DejaVuSans-36" d="M 2113 2584 
Q 1688 2584 1439 2293 
Q 1191 2003 1191 1497 
Q 1191 994 1439 701 
Q 1688 409 2113 409 
Q 2538 409 2786 701 
Q 3034 994 3034 1497 
Q 3034 2003 2786 2293 
Q 2538 2584 2113 2584 
z
M 3366 4563 
L 3366 3988 
Q 3128 4100 2886 4159 
Q 2644 4219 2406 4219 
Q 1781 4219 1451 3797 
Q 1122 3375 1075 2522 
Q 1259 2794 1537 2939 
Q 1816 3084 2150 3084 
Q 2853 3084 3261 2657 
Q 3669 2231 3669 1497 
Q 3669 778 3244 343 
Q 2819 -91 2113 -91 
Q 1303 -91 875 529 
Q 447 1150 447 2328 
Q 447 3434 972 4092 
Q 1497 4750 2381 4750 
Q 2619 4750 2861 4703 
Q 3103 4656 3366 4563 
z
" transform="scale(0.015625)"/>
       </defs>
       <use xlink:href="#DejaVuSans-36"/>
       <use xlink:href="#DejaVuSans-30" x="63.623047"/>
      </g>
     </g>
    </g>
    <g id="xtick_5">
     <g id="line2d_5">
      <path d="M 343.477961 240.7 
L 343.477961 10.8 
" clip-path="url(#p877c987d74)" style="fill: none; stroke: #ffffff; stroke-linecap: round"/>
     </g>
     <g id="text_5">
      <!-- 80 -->
      <g style="fill: #262626" transform="translate(336.479211 258.558281)scale(0.11 -0.11)">
       <defs>
        <path id="DejaVuSans-38" d="M 2034 2216 
Q 1584 2216 1326 1975 
Q 1069 1734 1069 1313 
Q 1069 891 1326 650 
Q 1584 409 2034 409 
Q 2484 409 2743 651 
Q 3003 894 3003 1313 
Q 3003 1734 2745 1975 
Q 2488 2216 2034 2216 
z
M 1403 2484 
Q 997 2584 770 2862 
Q 544 3141 544 3541 
Q 544 4100 942 4425 
Q 1341 4750 2034 4750 
Q 2731 4750 3128 4425 
Q 3525 4100 3525 3541 
Q 3525 3141 3298 2862 
Q 3072 2584 2669 2484 
Q 3125 2378 3379 2068 
Q 3634 1759 3634 1313 
Q 3634 634 3220 271 
Q 2806 -91 2034 -91 
Q 1263 -91 848 271 
Q 434 634 434 1313 
Q 434 1759 690 2068 
Q 947 2378 1403 2484 
z
M 1172 3481 
Q 1172 3119 1398 2916 
Q 1625 2713 2034 2713 
Q 2441 2713 2670 2916 
Q 2900 3119 2900 3481 
Q 2900 3844 2670 4047 
Q 2441 4250 2034 4250 
Q 1625 4250 1398 4047 
Q 1172 3844 1172 3481 
z
" transform="scale(0.015625)"/>
       </defs>
       <use xlink:href="#DejaVuSans-38"/>
       <use xlink:href="#DejaVuSans-30" x="63.623047"/>
      </g>
     </g>
    </g>
    <g id="xtick_6">
     <g id="line2d_6">
      <path d="M 408.381543 240.7 
L 408.381543 10.8 
" clip-path="url(#p877c987d74)" style="fill: none; stroke: #ffffff; stroke-linecap: round"/>
     </g>
     <g id="text_6">
      <!-- 100 -->
      <g style="fill: #262626" transform="translate(397.883418 258.558281)scale(0.11 -0.11)">
       <defs>
        <path id="DejaVuSans-31" d="M 794 531 
L 1825 531 
L 1825 4091 
L 703 3866 
L 703 4441 
L 1819 4666 
L 2450 4666 
L 2450 531 
L 3481 531 
L 3481 0 
L 794 0 
L 794 531 
z
" transform="scale(0.015625)"/>
       </defs>
       <use xlink:href="#DejaVuSans-31"/>
       <use xlink:href="#DejaVuSans-30" x="63.623047"/>
       <use xlink:href="#DejaVuSans-30" x="127.246094"/>
      </g>
     </g>
    </g>
    <g id="text_7">
     <!-- Iteration Number -->
     <g style="fill: #262626" transform="translate(193.039688 273.964063)scale(0.12 -0.12)">
      <defs>
       <path id="DejaVuSans-49" d="M 628 4666 
L 1259 4666 
L 1259 0 
L 628 0 
L 628 4666 
z
" transform="scale(0.015625)"/>
       <path id="DejaVuSans-74" d="M 1172 4494 
L 1172 3500 
L 2356 3500 
L 2356 3053 
L 1172 3053 
L 1172 1153 
Q 1172 725 1289 603 
Q 1406 481 1766 481 
L 2356 481 
L 2356 0 
L 1766 0 
Q 1100 0 847 248 
Q 594 497 594 1153 
L 594 3053 
L 172 3053 
L 172 3500 
L 594 3500 
L 594 4494 
L 1172 4494 
z
" transform="scale(0.015625)"/>
       <path id="DejaVuSans-65" d="M 3597 1894 
L 3597 1613 
L 953 1613 
Q 991 1019 1311 708 
Q 1631 397 2203 397 
Q 2534 397 2845 478 
Q 3156 559 3463 722 
L 3463 178 
Q 3153 47 2828 -22 
Q 2503 -91 2169 -91 
Q 1331 -91 842 396 
Q 353 884 353 1716 
Q 353 2575 817 3079 
Q 1281 3584 2069 3584 
Q 2775 3584 3186 3129 
Q 3597 2675 3597 1894 
z
M 3022 2063 
Q 3016 2534 2758 2815 
Q 2500 3097 2075 3097 
Q 1594 3097 1305 2825 
Q 1016 2553 972 2059 
L 3022 2063 
z
" transform="scale(0.015625)"/>
       <path id="DejaVuSans-72" d="M 2631 2963 
Q 2534 3019 2420 3045 
Q 2306 3072 2169 3072 
Q 1681 3072 1420 2755 
Q 1159 2438 1159 1844 
L 1159 0 
L 581 0 
L 581 3500 
L 1159 3500 
L 1159 2956 
Q 1341 3275 1631 3429 
Q 1922 3584 2338 3584 
Q 2397 3584 2469 3576 
Q 2541 3569 2628 3553 
L 2631 2963 
z
" transform="scale(0.015625)"/>
       <path id="DejaVuSans-61" d="M 2194 1759 
Q 1497 1759 1228 1600 
Q 959 1441 959 1056 
Q 959 750 1161 570 
Q 1363 391 1709 391 
Q 2188 391 2477 730 
Q 2766 1069 2766 1631 
L 2766 1759 
L 2194 1759 
z
M 3341 1997 
L 3341 0 
L 2766 0 
L 2766 531 
Q 2569 213 2275 61 
Q 1981 -91 1556 -91 
Q 1019 -91 701 211 
Q 384 513 384 1019 
Q 384 1609 779 1909 
Q 1175 2209 1959 2209 
L 2766 2209 
L 2766 2266 
Q 2766 2663 2505 2880 
Q 2244 3097 1772 3097 
Q 1472 3097 1187 3025 
Q 903 2953 641 2809 
L 641 3341 
Q 956 3463 1253 3523 
Q 1550 3584 1831 3584 
Q 2591 3584 2966 3190 
Q 3341 2797 3341 1997 
z
" transform="scale(0.015625)"/>
       <path id="DejaVuSans-69" d="M 603 3500 
L 1178 3500 
L 1178 0 
L 603 0 
L 603 3500 
z
M 603 4863 
L 1178 4863 
L 1178 4134 
L 603 4134 
L 603 4863 
z
" transform="scale(0.015625)"/>
       <path id="DejaVuSans-6f" d="M 1959 3097 
Q 1497 3097 1228 2736 
Q 959 2375 959 1747 
Q 959 1119 1226 758 
Q 1494 397 1959 397 
Q 2419 397 2687 759 
Q 2956 1122 2956 1747 
Q 2956 2369 2687 2733 
Q 2419 3097 1959 3097 
z
M 1959 3584 
Q 2709 3584 3137 3096 
Q 3566 2609 3566 1747 
Q 3566 888 3137 398 
Q 2709 -91 1959 -91 
Q 1206 -91 779 398 
Q 353 888 353 1747 
Q 353 2609 779 3096 
Q 1206 3584 1959 3584 
z
" transform="scale(0.015625)"/>
       <path id="DejaVuSans-6e" d="M 3513 2113 
L 3513 0 
L 2938 0 
L 2938 2094 
Q 2938 2591 2744 2837 
Q 2550 3084 2163 3084 
Q 1697 3084 1428 2787 
Q 1159 2491 1159 1978 
L 1159 0 
L 581 0 
L 581 3500 
L 1159 3500 
L 1159 2956 
Q 1366 3272 1645 3428 
Q 1925 3584 2291 3584 
Q 2894 3584 3203 3211 
Q 3513 2838 3513 2113 
z
" transform="scale(0.015625)"/>
       <path id="DejaVuSans-20" transform="scale(0.015625)"/>
       <path id="DejaVuSans-4e" d="M 628 4666 
L 1478 4666 
L 3547 763 
L 3547 4666 
L 4159 4666 
L 4159 0 
L 3309 0 
L 1241 3903 
L 1241 0 
L 628 0 
L 628 4666 
z
" transform="scale(0.015625)"/>
       <path id="DejaVuSans-75" d="M 544 1381 
L 544 3500 
L 1119 3500 
L 1119 1403 
Q 1119 906 1312 657 
Q 1506 409 1894 409 
Q 2359 409 2629 706 
Q 2900 1003 2900 1516 
L 2900 3500 
L 3475 3500 
L 3475 0 
L 2900 0 
L 2900 538 
Q 2691 219 2414 64 
Q 2138 -91 1772 -91 
Q 1169 -91 856 284 
Q 544 659 544 1381 
z
M 1991 3584 
L 1991 3584 
z
" transform="scale(0.015625)"/>
       <path id="DejaVuSans-6d" d="M 3328 2828 
Q 3544 3216 3844 3400 
Q 4144 3584 4550 3584 
Q 5097 3584 5394 3201 
Q 5691 2819 5691 2113 
L 5691 0 
L 5113 0 
L 5113 2094 
Q 5113 2597 4934 2840 
Q 4756 3084 4391 3084 
Q 3944 3084 3684 2787 
Q 3425 2491 3425 1978 
L 3425 0 
L 2847 0 
L 2847 2094 
Q 2847 2600 2669 2842 
Q 2491 3084 2119 3084 
Q 1678 3084 1418 2786 
Q 1159 2488 1159 1978 
L 1159 0 
L 581 0 
L 581 3500 
L 1159 3500 
L 1159 2956 
Q 1356 3278 1631 3431 
Q 1906 3584 2284 3584 
Q 2666 3584 2933 3390 
Q 3200 3197 3328 2828 
z
" transform="scale(0.015625)"/>
       <path id="DejaVuSans-62" d="M 3116 1747 
Q 3116 2381 2855 2742 
Q 2594 3103 2138 3103 
Q 1681 3103 1420 2742 
Q 1159 2381 1159 1747 
Q 1159 1113 1420 752 
Q 1681 391 2138 391 
Q 2594 391 2855 752 
Q 3116 1113 3116 1747 
z
M 1159 2969 
Q 1341 3281 1617 3432 
Q 1894 3584 2278 3584 
Q 2916 3584 3314 3078 
Q 3713 2572 3713 1747 
Q 3713 922 3314 415 
Q 2916 -91 2278 -91 
Q 1894 -91 1617 61 
Q 1341 213 1159 525 
L 1159 0 
L 581 0 
L 581 4863 
L 1159 4863 
L 1159 2969 
z
" transform="scale(0.015625)"/>
      </defs>
      <use xlink:href="#DejaVuSans-49"/>
      <use xlink:href="#DejaVuSans-74" x="29.492188"/>
      <use xlink:href="#DejaVuSans-65" x="68.701172"/>
      <use xlink:href="#DejaVuSans-72" x="130.224609"/>
      <use xlink:href="#DejaVuSans-61" x="171.337891"/>
      <use xlink:href="#DejaVuSans-74" x="232.617188"/>
      <use xlink:href="#DejaVuSans-69" x="271.826172"/>
      <use xlink:href="#DejaVuSans-6f" x="299.609375"/>
      <use xlink:href="#DejaVuSans-6e" x="360.791016"/>
      <use xlink:href="#DejaVuSans-20" x="424.169922"/>
      <use xlink:href="#DejaVuSans-4e" x="455.957031"/>
      <use xlink:href="#DejaVuSans-75" x="530.761719"/>
      <use xlink:href="#DejaVuSans-6d" x="594.140625"/>
      <use xlink:href="#DejaVuSans-62" x="691.552734"/>
      <use xlink:href="#DejaVuSans-65" x="755.029297"/>
      <use xlink:href="#DejaVuSans-72" x="816.552734"/>
     </g>
    </g>
   </g>
   <g id="matplotlib.axis_2">
    <g id="ytick_1">
     <g id="line2d_7">
      <path d="M 67.8 240.7 
L 421.2 240.7 
" clip-path="url(#p877c987d74)" style="fill: none; stroke: #ffffff; stroke-linecap: round"/>
     </g>
     <g id="text_8">
      <!-- −0.2 -->
      <g style="fill: #262626" transform="translate(31.588906 244.879141)scale(0.11 -0.11)">
       <defs>
        <path id="DejaVuSans-2212" d="M 678 2272 
L 4684 2272 
L 4684 1741 
L 678 1741 
L 678 2272 
z
" transform="scale(0.015625)"/>
        <path id="DejaVuSans-2e" d="M 684 794 
L 1344 794 
L 1344 0 
L 684 0 
L 684 794 
z
" transform="scale(0.015625)"/>
       </defs>
       <use xlink:href="#DejaVuSans-2212"/>
       <use xlink:href="#DejaVuSans-30" x="83.789062"/>
       <use xlink:href="#DejaVuSans-2e" x="147.412109"/>
       <use xlink:href="#DejaVuSans-32" x="179.199219"/>
      </g>
     </g>
    </g>
    <g id="ytick_2">
     <g id="line2d_8">
      <path d="M 67.8 205.330769 
L 421.2 205.330769 
" clip-path="url(#p877c987d74)" style="fill: none; stroke: #ffffff; stroke-linecap: round"/>
     </g>
     <g id="text_9">
      <!-- 0.0 -->
      <g style="fill: #262626" transform="translate(40.806562 209.50991)scale(0.11 -0.11)">
       <use xlink:href="#DejaVuSans-30"/>
       <use xlink:href="#DejaVuSans-2e" x="63.623047"/>
       <use xlink:href="#DejaVuSans-30" x="95.410156"/>
      </g>
     </g>
    </g>
    <g id="ytick_3">
     <g id="line2d_9">
      <path d="M 67.8 169.961538 
L 421.2 169.961538 
" clip-path="url(#p877c987d74)" style="fill: none; stroke: #ffffff; stroke-linecap: round"/>
     </g>
     <g id="text_10">
      <!-- 0.2 -->
      <g style="fill: #262626" transform="translate(40.806562 174.140679)scale(0.11 -0.11)">
       <use xlink:href="#DejaVuSans-30"/>
       <use xlink:href="#DejaVuSans-2e" x="63.623047"/>
       <use xlink:href="#DejaVuSans-32" x="95.410156"/>
      </g>
     </g>
    </g>
    <g id="ytick_4">
     <g id="line2d_10">
      <path d="M 67.8 134.592308 
L 421.2 134.592308 
" clip-path="url(#p877c987d74)" style="fill: none; stroke: #ffffff; stroke-linecap: round"/>
     </g>
     <g id="text_11">
      <!-- 0.4 -->
      <g style="fill: #262626" transform="translate(40.806562 138.771448)scale(0.11 -0.11)">
       <use xlink:href="#DejaVuSans-30"/>
       <use xlink:href="#DejaVuSans-2e" x="63.623047"/>
       <use xlink:href="#DejaVuSans-34" x="95.410156"/>
      </g>
     </g>
    </g>
    <g id="ytick_5">
     <g id="line2d_11">
      <path d="M 67.8 99.223077 
L 421.2 99.223077 
" clip-path="url(#p877c987d74)" style="fill: none; stroke: #ffffff; stroke-linecap: round"/>
     </g>
     <g id="text_12">
      <!-- 0.6 -->
      <g style="fill: #262626" transform="translate(40.806562 103.402218)scale(0.11 -0.11)">
       <use xlink:href="#DejaVuSans-30"/>
       <use xlink:href="#DejaVuSans-2e" x="63.623047"/>
       <use xlink:href="#DejaVuSans-36" x="95.410156"/>
      </g>
     </g>
    </g>
    <g id="ytick_6">
     <g id="line2d_12">
      <path d="M 67.8 63.853846 
L 421.2 63.853846 
" clip-path="url(#p877c987d74)" style="fill: none; stroke: #ffffff; stroke-linecap: round"/>
     </g>
     <g id="text_13">
      <!-- 0.8 -->
      <g style="fill: #262626" transform="translate(40.806562 68.032987)scale(0.11 -0.11)">
       <use xlink:href="#DejaVuSans-30"/>
       <use xlink:href="#DejaVuSans-2e" x="63.623047"/>
       <use xlink:href="#DejaVuSans-38" x="95.410156"/>
      </g>
     </g>
    </g>
    <g id="ytick_7">
     <g id="line2d_13">
      <path d="M 67.8 28.484615 
L 421.2 28.484615 
" clip-path="url(#p877c987d74)" style="fill: none; stroke: #ffffff; stroke-linecap: round"/>
     </g>
     <g id="text_14">
      <!-- 1.0 -->
      <g style="fill: #262626" transform="translate(40.806562 32.663756)scale(0.11 -0.11)">
       <use xlink:href="#DejaVuSans-31"/>
       <use xlink:href="#DejaVuSans-2e" x="63.623047"/>
       <use xlink:href="#DejaVuSans-30" x="95.410156"/>
      </g>
     </g>
    </g>
    <g id="text_15">
     <!-- Normalised Beam Angle $\omega$ -->
     <g style="fill: #262626" transform="translate(25.068906 205.01)rotate(-90)scale(0.12 -0.12)">
      <defs>
       <path id="DejaVuSans-6c" d="M 603 4863 
L 1178 4863 
L 1178 0 
L 603 0 
L 603 4863 
z
" transform="scale(0.015625)"/>
       <path id="DejaVuSans-73" d="M 2834 3397 
L 2834 2853 
Q 2591 2978 2328 3040 
Q 2066 3103 1784 3103 
Q 1356 3103 1142 2972 
Q 928 2841 928 2578 
Q 928 2378 1081 2264 
Q 1234 2150 1697 2047 
L 1894 2003 
Q 2506 1872 2764 1633 
Q 3022 1394 3022 966 
Q 3022 478 2636 193 
Q 2250 -91 1575 -91 
Q 1294 -91 989 -36 
Q 684 19 347 128 
L 347 722 
Q 666 556 975 473 
Q 1284 391 1588 391 
Q 1994 391 2212 530 
Q 2431 669 2431 922 
Q 2431 1156 2273 1281 
Q 2116 1406 1581 1522 
L 1381 1569 
Q 847 1681 609 1914 
Q 372 2147 372 2553 
Q 372 3047 722 3315 
Q 1072 3584 1716 3584 
Q 2034 3584 2315 3537 
Q 2597 3491 2834 3397 
z
" transform="scale(0.015625)"/>
       <path id="DejaVuSans-64" d="M 2906 2969 
L 2906 4863 
L 3481 4863 
L 3481 0 
L 2906 0 
L 2906 525 
Q 2725 213 2448 61 
Q 2172 -91 1784 -91 
Q 1150 -91 751 415 
Q 353 922 353 1747 
Q 353 2572 751 3078 
Q 1150 3584 1784 3584 
Q 2172 3584 2448 3432 
Q 2725 3281 2906 2969 
z
M 947 1747 
Q 947 1113 1208 752 
Q 1469 391 1925 391 
Q 2381 391 2643 752 
Q 2906 1113 2906 1747 
Q 2906 2381 2643 2742 
Q 2381 3103 1925 3103 
Q 1469 3103 1208 2742 
Q 947 2381 947 1747 
z
" transform="scale(0.015625)"/>
       <path id="DejaVuSans-42" d="M 1259 2228 
L 1259 519 
L 2272 519 
Q 2781 519 3026 730 
Q 3272 941 3272 1375 
Q 3272 1813 3026 2020 
Q 2781 2228 2272 2228 
L 1259 2228 
z
M 1259 4147 
L 1259 2741 
L 2194 2741 
Q 2656 2741 2882 2914 
Q 3109 3088 3109 3444 
Q 3109 3797 2882 3972 
Q 2656 4147 2194 4147 
L 1259 4147 
z
M 628 4666 
L 2241 4666 
Q 2963 4666 3353 4366 
Q 3744 4066 3744 3513 
Q 3744 3084 3544 2831 
Q 3344 2578 2956 2516 
Q 3422 2416 3680 2098 
Q 3938 1781 3938 1306 
Q 3938 681 3513 340 
Q 3088 0 2303 0 
L 628 0 
L 628 4666 
z
" transform="scale(0.015625)"/>
       <path id="DejaVuSans-41" d="M 2188 4044 
L 1331 1722 
L 3047 1722 
L 2188 4044 
z
M 1831 4666 
L 2547 4666 
L 4325 0 
L 3669 0 
L 3244 1197 
L 1141 1197 
L 716 0 
L 50 0 
L 1831 4666 
z
" transform="scale(0.015625)"/>
       <path id="DejaVuSans-67" d="M 2906 1791 
Q 2906 2416 2648 2759 
Q 2391 3103 1925 3103 
Q 1463 3103 1205 2759 
Q 947 2416 947 1791 
Q 947 1169 1205 825 
Q 1463 481 1925 481 
Q 2391 481 2648 825 
Q 2906 1169 2906 1791 
z
M 3481 434 
Q 3481 -459 3084 -895 
Q 2688 -1331 1869 -1331 
Q 1566 -1331 1297 -1286 
Q 1028 -1241 775 -1147 
L 775 -588 
Q 1028 -725 1275 -790 
Q 1522 -856 1778 -856 
Q 2344 -856 2625 -561 
Q 2906 -266 2906 331 
L 2906 616 
Q 2728 306 2450 153 
Q 2172 0 1784 0 
Q 1141 0 747 490 
Q 353 981 353 1791 
Q 353 2603 747 3093 
Q 1141 3584 1784 3584 
Q 2172 3584 2450 3431 
Q 2728 3278 2906 2969 
L 2906 3500 
L 3481 3500 
L 3481 434 
z
" transform="scale(0.015625)"/>
       <path id="DejaVuSans-Oblique-3c9" d="M 1369 -91 
Q 72 -91 434 1766 
Q 575 2500 1256 3500 
L 1875 3500 
Q 1231 2500 1088 1750 
Q 819 397 1519 397 
Q 2166 397 2478 2078 
L 3009 2078 
Q 2669 388 3316 397 
Q 4013 403 4275 1750 
Q 4419 2500 4169 3500 
L 4788 3500 
Q 5075 2500 4934 1766 
Q 4578 -94 3278 -91 
Q 2428 -88 2503 844 
Q 2194 -91 1369 -91 
z
" transform="scale(0.015625)"/>
      </defs>
      <use xlink:href="#DejaVuSans-4e" transform="translate(0 0.015625)"/>
      <use xlink:href="#DejaVuSans-6f" transform="translate(74.804688 0.015625)"/>
      <use xlink:href="#DejaVuSans-72" transform="translate(135.986328 0.015625)"/>
      <use xlink:href="#DejaVuSans-6d" transform="translate(177.099609 0.015625)"/>
      <use xlink:href="#DejaVuSans-61" transform="translate(274.511719 0.015625)"/>
      <use xlink:href="#DejaVuSans-6c" transform="translate(335.791016 0.015625)"/>
      <use xlink:href="#DejaVuSans-69" transform="translate(363.574219 0.015625)"/>
      <use xlink:href="#DejaVuSans-73" transform="translate(391.357422 0.015625)"/>
      <use xlink:href="#DejaVuSans-65" transform="translate(443.457031 0.015625)"/>
      <use xlink:href="#DejaVuSans-64" transform="translate(504.980469 0.015625)"/>
      <use xlink:href="#DejaVuSans-20" transform="translate(568.457031 0.015625)"/>
      <use xlink:href="#DejaVuSans-42" transform="translate(600.244141 0.015625)"/>
      <use xlink:href="#DejaVuSans-65" transform="translate(668.847656 0.015625)"/>
      <use xlink:href="#DejaVuSans-61" transform="translate(730.371094 0.015625)"/>
      <use xlink:href="#DejaVuSans-6d" transform="translate(791.650391 0.015625)"/>
      <use xlink:href="#DejaVuSans-20" transform="translate(889.0625 0.015625)"/>
      <use xlink:href="#DejaVuSans-41" transform="translate(920.849609 0.015625)"/>
      <use xlink:href="#DejaVuSans-6e" transform="translate(989.257812 0.015625)"/>
      <use xlink:href="#DejaVuSans-67" transform="translate(1052.636719 0.015625)"/>
      <use xlink:href="#DejaVuSans-6c" transform="translate(1116.113281 0.015625)"/>
      <use xlink:href="#DejaVuSans-65" transform="translate(1143.896484 0.015625)"/>
      <use xlink:href="#DejaVuSans-20" transform="translate(1205.419922 0.015625)"/>
      <use xlink:href="#DejaVuSans-Oblique-3c9" transform="translate(1237.207031 0.015625)"/>
     </g>
    </g>
   </g>
   <g id="line2d_14">
    <path d="M 83.863636 205.330769 
L 87.108815 207.099227 
L 90.353994 207.912799 
L 93.599174 206.915398 
L 96.844353 206.419269 
L 100.089532 205.756481 
L 103.334711 204.754793 
L 106.57989 203.590273 
L 109.825069 202.240476 
L 113.070248 200.77214 
L 116.315427 199.757828 
L 119.560606 199.12229 
L 122.805785 199.500775 
L 126.050964 198.90711 
L 129.296143 198.353765 
L 132.541322 197.873435 
L 135.786501 197.208023 
L 139.03168 196.515637 
L 142.27686 195.615912 
L 145.522039 194.410798 
L 148.767218 192.99603 
L 152.012397 191.883451 
L 155.257576 190.60629 
L 158.502755 189.23111 
L 161.747934 187.734589 
L 164.993113 186.29814 
L 168.238292 184.698905 
L 171.483471 182.950927 
L 174.72865 181.089773 
L 177.973829 179.149451 
L 181.219008 177.155042 
L 184.464187 175.078082 
L 187.709366 172.930382 
L 190.954545 170.802086 
L 194.199725 168.613878 
L 197.444904 166.365392 
L 200.690083 164.141521 
L 203.935262 161.911978 
L 207.180441 159.643283 
L 210.42562 157.365457 
L 213.670799 155.062031 
L 216.915978 152.748935 
L 220.161157 150.511244 
L 223.406336 148.279104 
L 226.651515 145.977922 
L 229.896694 143.724242 
L 233.141873 141.408127 
L 236.387052 139.049846 
L 239.632231 136.690787 
L 242.87741 134.32696 
L 246.12259 131.927871 
L 249.367769 129.503227 
L 252.612948 127.066963 
L 255.858127 124.614082 
L 259.103306 122.192262 
L 262.348485 119.826688 
L 265.593664 117.519134 
L 268.838843 115.223857 
L 272.084022 113.038406 
L 275.329201 110.948089 
L 278.57438 108.954836 
L 281.819559 107.016091 
L 285.064738 105.175733 
L 288.309917 103.483544 
L 291.555096 101.99282 
L 294.800275 100.606727 
L 298.045455 99.368645 
L 301.290634 98.264763 
L 304.535813 97.30577 
L 307.780992 96.495111 
L 311.026171 95.788304 
L 314.27135 95.176949 
L 317.516529 94.683249 
L 320.761708 94.31673 
L 324.006887 94.066723 
L 327.252066 93.9066 
L 330.497245 93.818132 
L 333.742424 93.816329 
L 336.987603 93.887663 
L 340.232782 94.038905 
L 343.477961 94.237027 
L 346.72314 94.480074 
L 349.96832 94.794189 
L 353.213499 95.168695 
L 356.458678 95.523516 
L 359.703857 95.920033 
L 362.949036 96.329 
L 366.194215 96.777309 
L 369.439394 97.242163 
L 372.684573 97.716369 
L 375.929752 98.199964 
L 379.174931 98.682552 
L 382.42011 99.137836 
L 385.665289 99.542393 
L 388.910468 99.929694 
L 392.155647 100.322813 
L 395.400826 100.698954 
L 398.646006 101.07728 
L 401.891185 101.400494 
L 405.136364 101.747152 
" clip-path="url(#p877c987d74)" style="fill: none; stroke: #4c72b0; stroke-width: 1.5; stroke-linecap: round"/>
   </g>
   <g id="line2d_15">
    <path d="M 83.863636 205.330769 
L 87.108815 206.53178 
L 90.353994 207.69678 
L 93.599174 208.920161 
L 96.844353 210.166909 
L 100.089532 211.453801 
L 103.334711 212.542036 
L 106.57989 213.719269 
L 109.825069 214.8924 
L 113.070248 216.143525 
L 116.315427 217.474416 
L 119.560606 218.829826 
L 122.805785 220.21748 
L 126.050964 221.545006 
L 129.296143 222.915107 
L 132.541322 224.276398 
L 135.786501 225.472489 
L 139.03168 226.627112 
L 142.27686 227.198515 
L 145.522039 227.478441 
L 148.767218 227.790822 
L 152.012397 228.237348 
L 155.257576 228.297436 
L 158.502755 228.369304 
L 161.747934 228.589442 
L 164.993113 229.120329 
L 168.238292 229.66494 
L 171.483471 229.795497 
L 174.72865 229.770296 
L 177.973829 229.644876 
L 181.219008 228.989043 
L 184.464187 228.21123 
L 187.709366 227.314108 
L 190.954545 226.417087 
L 194.199725 225.661044 
L 197.444904 225.052191 
L 200.690083 224.505093 
L 203.935262 224.052617 
L 207.180441 223.810999 
L 210.42562 223.735527 
L 213.670799 223.66881 
L 216.915978 223.50481 
L 220.161157 223.462072 
L 223.406336 223.276408 
L 226.651515 223.115201 
L 229.896694 223.035445 
L 233.141873 222.961811 
L 236.387052 223.092856 
L 239.632231 223.436649 
L 242.87741 223.440745 
L 246.12259 223.635501 
L 249.367769 223.930211 
L 252.612948 224.210039 
L 255.858127 224.427984 
L 259.103306 224.490416 
L 262.348485 224.68087 
L 265.593664 224.641166 
L 268.838843 224.662939 
L 272.084022 224.803763 
L 275.329201 225.16323 
L 278.57438 225.402881 
L 281.819559 225.718912 
L 285.064738 226.126405 
L 288.309917 226.624445 
L 291.555096 227.099416 
L 294.800275 227.615195 
L 298.045455 228.020433 
L 301.290634 228.420859 
L 304.535813 228.607785 
L 307.780992 228.8014 
L 311.026171 228.924137 
L 314.27135 229.14335 
L 317.516529 229.444407 
L 320.761708 229.542617 
L 324.006887 229.195393 
L 327.252066 228.92103 
L 330.497245 228.608726 
L 333.742424 228.211589 
L 336.987603 227.924079 
L 340.232782 227.520146 
L 343.477961 227.095185 
L 346.72314 226.587129 
L 349.96832 226.050096 
L 353.213499 225.596419 
L 356.458678 225.320391 
L 359.703857 224.857636 
L 362.949036 224.366585 
L 366.194215 223.795023 
L 369.439394 223.325199 
L 372.684573 222.803901 
L 375.929752 222.348459 
L 379.174931 221.828053 
L 382.42011 221.521484 
L 385.665289 221.323436 
L 388.910468 221.187974 
L 392.155647 220.981881 
L 395.400826 220.838503 
L 398.646006 220.654769 
L 401.891185 220.416293 
L 405.136364 220.053349 
" clip-path="url(#p877c987d74)" style="fill: none; stroke: #dd8452; stroke-width: 1.5; stroke-linecap: round"/>
   </g>
   <g id="line2d_16">
    <path d="M 83.863636 205.330769 
L 87.108815 203.562308 
L 90.353994 201.831197 
L 93.599174 200.080142 
L 96.844353 198.318859 
L 100.089532 196.554785 
L 103.334711 194.791046 
L 106.57989 193.032213 
L 109.825069 191.295808 
L 113.070248 189.617865 
L 116.315427 187.904764 
L 119.560606 186.310948 
L 122.805785 184.978966 
L 126.050964 183.802203 
L 129.296143 182.760349 
L 132.541322 181.679021 
L 135.786501 180.550401 
L 139.03168 179.359274 
L 142.27686 178.017664 
L 145.522039 176.960002 
L 148.767218 175.718672 
L 152.012397 174.61066 
L 155.257576 173.491379 
L 158.502755 172.813323 
L 161.747934 171.928806 
L 164.993113 171.170964 
L 168.238292 170.549407 
L 171.483471 169.856061 
L 174.72865 169.388961 
L 177.973829 168.913377 
L 181.219008 168.470571 
L 184.464187 167.992159 
L 187.709366 167.680337 
L 190.954545 167.266313 
L 194.199725 166.994212 
L 197.444904 166.619861 
L 200.690083 165.913832 
L 203.935262 165.128636 
L 207.180441 164.449299 
L 210.42562 163.685391 
L 213.670799 162.879392 
L 216.915978 162.309886 
L 220.161157 161.611778 
L 223.406336 161.231356 
L 226.651515 160.795664 
L 229.896694 160.310363 
L 233.141873 159.668583 
L 236.387052 159.025744 
L 239.632231 158.165357 
L 242.87741 157.5244 
L 246.12259 156.755471 
L 249.367769 155.739428 
L 252.612948 154.762201 
L 255.858127 153.781222 
L 259.103306 152.757689 
L 262.348485 151.730773 
L 265.593664 150.778149 
L 268.838843 149.849447 
L 272.084022 149.072676 
L 275.329201 148.294919 
L 278.57438 147.457427 
L 281.819559 146.909503 
L 285.064738 146.463077 
L 288.309917 146.03008 
L 291.555096 145.583643 
L 294.800275 145.09801 
L 298.045455 144.692309 
L 301.290634 144.323548 
L 304.535813 144.02561 
L 307.780992 143.845773 
L 311.026171 143.7206 
L 314.27135 143.540325 
L 317.516529 143.62217 
L 320.761708 143.655168 
L 324.006887 143.588307 
L 327.252066 143.463346 
L 330.497245 143.375546 
L 333.742424 143.34493 
L 336.987603 143.272324 
L 340.232782 143.273774 
L 343.477961 143.183465 
L 346.72314 143.212969 
L 349.96832 143.22848 
L 353.213499 143.271149 
L 356.458678 143.433789 
L 359.703857 143.782101 
L 362.949036 144.054619 
L 366.194215 144.267881 
L 369.439394 144.541364 
L 372.684573 144.83656 
L 375.929752 145.279566 
L 379.174931 145.716458 
L 382.42011 146.34308 
L 385.665289 146.889802 
L 388.910468 147.578125 
L 392.155647 148.395763 
L 395.400826 149.093236 
L 398.646006 149.685315 
L 401.891185 150.325699 
L 405.136364 151.242647 
" clip-path="url(#p877c987d74)" style="fill: none; stroke: #55a868; stroke-width: 1.5; stroke-linecap: round"/>
   </g>
   <g id="patch_3">
    <path d="M 67.8 240.7 
L 67.8 10.8 
" style="fill: none; stroke: #ffffff; stroke-width: 1.25; stroke-linejoin: miter; stroke-linecap: square"/>
   </g>
   <g id="patch_4">
    <path d="M 421.2 240.7 
L 421.2 10.8 
" style="fill: none; stroke: #ffffff; stroke-width: 1.25; stroke-linejoin: miter; stroke-linecap: square"/>
   </g>
   <g id="patch_5">
    <path d="M 67.8 240.7 
L 421.2 240.7 
" style="fill: none; stroke: #ffffff; stroke-width: 1.25; stroke-linejoin: miter; stroke-linecap: square"/>
   </g>
   <g id="patch_6">
    <path d="M 67.8 10.8 
L 421.2 10.8 
" style="fill: none; stroke: #ffffff; stroke-width: 1.25; stroke-linejoin: miter; stroke-linecap: square"/>
   </g>
   <g id="legend_1">
    <g id="patch_7">
     <path d="M 275.506719 68.037813 
L 413.5 68.037813 
Q 415.7 68.037813 415.7 65.837813 
L 415.7 18.5 
Q 415.7 16.3 413.5 16.3 
L 275.506719 16.3 
Q 273.306719 16.3 273.306719 18.5 
L 273.306719 65.837813 
Q 273.306719 68.037813 275.506719 68.037813 
z
" style="fill: #eaeaf2; opacity: 0.8; stroke: #cccccc; stroke-linejoin: miter"/>
    </g>
    <g id="line2d_17">
     <path d="M 277.706719 25.208281 
L 288.706719 25.208281 
L 299.706719 25.208281 
" style="fill: none; stroke: #4c72b0; stroke-width: 1.5; stroke-linecap: round"/>
    </g>
    <g id="text_16">
     <!-- Local Linearisation -->
     <g style="fill: #262626" transform="translate(308.506719 29.058281)scale(0.11 -0.11)">
      <defs>
       <path id="DejaVuSans-4c" d="M 628 4666 
L 1259 4666 
L 1259 531 
L 3531 531 
L 3531 0 
L 628 0 
L 628 4666 
z
" transform="scale(0.015625)"/>
       <path id="DejaVuSans-63" d="M 3122 3366 
L 3122 2828 
Q 2878 2963 2633 3030 
Q 2388 3097 2138 3097 
Q 1578 3097 1268 2742 
Q 959 2388 959 1747 
Q 959 1106 1268 751 
Q 1578 397 2138 397 
Q 2388 397 2633 464 
Q 2878 531 3122 666 
L 3122 134 
Q 2881 22 2623 -34 
Q 2366 -91 2075 -91 
Q 1284 -91 818 406 
Q 353 903 353 1747 
Q 353 2603 823 3093 
Q 1294 3584 2113 3584 
Q 2378 3584 2631 3529 
Q 2884 3475 3122 3366 
z
" transform="scale(0.015625)"/>
      </defs>
      <use xlink:href="#DejaVuSans-4c"/>
      <use xlink:href="#DejaVuSans-6f" x="53.962891"/>
      <use xlink:href="#DejaVuSans-63" x="115.144531"/>
      <use xlink:href="#DejaVuSans-61" x="170.125"/>
      <use xlink:href="#DejaVuSans-6c" x="231.404297"/>
      <use xlink:href="#DejaVuSans-20" x="259.1875"/>
      <use xlink:href="#DejaVuSans-4c" x="290.974609"/>
      <use xlink:href="#DejaVuSans-69" x="346.6875"/>
      <use xlink:href="#DejaVuSans-6e" x="374.470703"/>
      <use xlink:href="#DejaVuSans-65" x="437.849609"/>
      <use xlink:href="#DejaVuSans-61" x="499.373047"/>
      <use xlink:href="#DejaVuSans-72" x="560.652344"/>
      <use xlink:href="#DejaVuSans-69" x="601.765625"/>
      <use xlink:href="#DejaVuSans-73" x="629.548828"/>
      <use xlink:href="#DejaVuSans-61" x="681.648438"/>
      <use xlink:href="#DejaVuSans-74" x="742.927734"/>
      <use xlink:href="#DejaVuSans-69" x="782.136719"/>
      <use xlink:href="#DejaVuSans-6f" x="809.919922"/>
      <use xlink:href="#DejaVuSans-6e" x="871.101562"/>
     </g>
    </g>
    <g id="line2d_18">
     <path d="M 277.706719 41.354219 
L 288.706719 41.354219 
L 299.706719 41.354219 
" style="fill: none; stroke: #dd8452; stroke-width: 1.5; stroke-linecap: round"/>
    </g>
    <g id="text_17">
     <!-- Forward KL -->
     <g style="fill: #262626" transform="translate(308.506719 45.204219)scale(0.11 -0.11)">
      <defs>
       <path id="DejaVuSans-46" d="M 628 4666 
L 3309 4666 
L 3309 4134 
L 1259 4134 
L 1259 2759 
L 3109 2759 
L 3109 2228 
L 1259 2228 
L 1259 0 
L 628 0 
L 628 4666 
z
" transform="scale(0.015625)"/>
       <path id="DejaVuSans-77" d="M 269 3500 
L 844 3500 
L 1563 769 
L 2278 3500 
L 2956 3500 
L 3675 769 
L 4391 3500 
L 4966 3500 
L 4050 0 
L 3372 0 
L 2619 2869 
L 1863 0 
L 1184 0 
L 269 3500 
z
" transform="scale(0.015625)"/>
       <path id="DejaVuSans-4b" d="M 628 4666 
L 1259 4666 
L 1259 2694 
L 3353 4666 
L 4166 4666 
L 1850 2491 
L 4331 0 
L 3500 0 
L 1259 2247 
L 1259 0 
L 628 0 
L 628 4666 
z
" transform="scale(0.015625)"/>
      </defs>
      <use xlink:href="#DejaVuSans-46"/>
      <use xlink:href="#DejaVuSans-6f" x="53.894531"/>
      <use xlink:href="#DejaVuSans-72" x="115.076172"/>
      <use xlink:href="#DejaVuSans-77" x="156.189453"/>
      <use xlink:href="#DejaVuSans-61" x="237.976562"/>
      <use xlink:href="#DejaVuSans-72" x="299.255859"/>
      <use xlink:href="#DejaVuSans-64" x="338.619141"/>
      <use xlink:href="#DejaVuSans-20" x="402.095703"/>
      <use xlink:href="#DejaVuSans-4b" x="433.882812"/>
      <use xlink:href="#DejaVuSans-4c" x="499.458984"/>
     </g>
    </g>
    <g id="line2d_19">
     <path d="M 277.706719 57.500156 
L 288.706719 57.500156 
L 299.706719 57.500156 
" style="fill: none; stroke: #55a868; stroke-width: 1.5; stroke-linecap: round"/>
    </g>
    <g id="text_18">
     <!-- Reverse KL -->
     <g style="fill: #262626" transform="translate(308.506719 61.350156)scale(0.11 -0.11)">
      <defs>
       <path id="DejaVuSans-52" d="M 2841 2188 
Q 3044 2119 3236 1894 
Q 3428 1669 3622 1275 
L 4263 0 
L 3584 0 
L 2988 1197 
Q 2756 1666 2539 1819 
Q 2322 1972 1947 1972 
L 1259 1972 
L 1259 0 
L 628 0 
L 628 4666 
L 2053 4666 
Q 2853 4666 3247 4331 
Q 3641 3997 3641 3322 
Q 3641 2881 3436 2590 
Q 3231 2300 2841 2188 
z
M 1259 4147 
L 1259 2491 
L 2053 2491 
Q 2509 2491 2742 2702 
Q 2975 2913 2975 3322 
Q 2975 3731 2742 3939 
Q 2509 4147 2053 4147 
L 1259 4147 
z
" transform="scale(0.015625)"/>
       <path id="DejaVuSans-76" d="M 191 3500 
L 800 3500 
L 1894 563 
L 2988 3500 
L 3597 3500 
L 2284 0 
L 1503 0 
L 191 3500 
z
" transform="scale(0.015625)"/>
      </defs>
      <use xlink:href="#DejaVuSans-52"/>
      <use xlink:href="#DejaVuSans-65" x="64.982422"/>
      <use xlink:href="#DejaVuSans-76" x="126.505859"/>
      <use xlink:href="#DejaVuSans-65" x="185.685547"/>
      <use xlink:href="#DejaVuSans-72" x="247.208984"/>
      <use xlink:href="#DejaVuSans-73" x="288.322266"/>
      <use xlink:href="#DejaVuSans-65" x="340.421875"/>
      <use xlink:href="#DejaVuSans-20" x="401.945312"/>
      <use xlink:href="#DejaVuSans-4b" x="433.732422"/>
      <use xlink:href="#DejaVuSans-4c" x="499.308594"/>
     </g>
    </g>
   </g>
  </g>
 </g>
 <defs>
  <clipPath id="p877c987d74">
   <rect x="67.8" y="10.8" width="353.4" height="229.9"/>
  </clipPath>
 </defs>
</svg>
