<?xml version="1.0" encoding="utf-8" standalone="no"?>
<!DOCTYPE svg PUBLIC "-//W3C//DTD SVG 1.1//EN"
  "http://www.w3.org/Graphics/SVG/1.1/DTD/svg11.dtd">
<svg xmlns:xlink="http://www.w3.org/1999/xlink" width="432pt" height="288pt" viewBox="0 0 432 288" xmlns="http://www.w3.org/2000/svg" version="1.1">
 <metadata>
  <rdf:RDF xmlns:dc="http://purl.org/dc/elements/1.1/" xmlns:cc="http://creativecommons.org/ns#" xmlns:rdf="http://www.w3.org/1999/02/22-rdf-syntax-ns#">
   <cc:Work>
    <dc:type rdf:resource="http://purl.org/dc/dcmitype/StillImage"/>
    <dc:date>2022-06-23T04:34:59.043713</dc:date>
    <dc:format>image/svg+xml</dc:format>
    <dc:creator>
     <cc:Agent>
      <dc:title>Matplotlib v3.5.2, https://matplotlib.org/</dc:title>
     </cc:Agent>
    </dc:creator>
   </cc:Work>
  </rdf:RDF>
 </metadata>
 <defs>
  <style type="text/css">*{stroke-linejoin: round; stroke-linecap: butt}</style>
 </defs>
 <g id="figure_1">
  <g id="patch_1">
   <path d="M 0 288 
L 432 288 
L 432 0 
L 0 0 
L 0 288 
z
" style="fill: none"/>
  </g>
  <g id="axes_1">
   <g id="patch_2">
    <path d="M 67.8 240.7 
L 421.2 240.7 
L 421.2 10.8 
L 67.8 10.8 
z
" style="fill: #eaeaf2"/>
   </g>
   <g id="matplotlib.axis_1">
    <g id="xtick_1">
     <g id="line2d_1">
      <path d="M 83.863636 240.7 
L 83.863636 10.8 
" clip-path="url(#p3bef4341bb)" style="fill: none; stroke: #ffffff; stroke-linecap: round"/>
     </g>
     <g id="text_1">
      <!-- 0 -->
      <g style="fill: #262626" transform="translate(80.364261 258.558281)scale(0.11 -0.11)">
       <defs>
        <path id="DejaVuSans-30" d="M 2034 4250 
Q 1547 4250 1301 3770 
Q 1056 3291 1056 2328 
Q 1056 1369 1301 889 
Q 1547 409 2034 409 
Q 2525 409 2770 889 
Q 3016 1369 3016 2328 
Q 3016 3291 2770 3770 
Q 2525 4250 2034 4250 
z
M 2034 4750 
Q 2819 4750 3233 4129 
Q 3647 3509 3647 2328 
Q 3647 1150 3233 529 
Q 2819 -91 2034 -91 
Q 1250 -91 836 529 
Q 422 1150 422 2328 
Q 422 3509 836 4129 
Q 1250 4750 2034 4750 
z
" transform="scale(0.015625)"/>
       </defs>
       <use xlink:href="#DejaVuSans-30"/>
      </g>
     </g>
    </g>
    <g id="xtick_2">
     <g id="line2d_2">
      <path d="M 148.767218 240.7 
L 148.767218 10.8 
" clip-path="url(#p3bef4341bb)" style="fill: none; stroke: #ffffff; stroke-linecap: round"/>
     </g>
     <g id="text_2">
      <!-- 20 -->
      <g style="fill: #262626" transform="translate(141.768468 258.558281)scale(0.11 -0.11)">
       <defs>
        <path id="DejaVuSans-32" d="M 1228 531 
L 3431 531 
L 3431 0 
L 469 0 
L 469 531 
Q 828 903 1448 1529 
Q 2069 2156 2228 2338 
Q 2531 2678 2651 2914 
Q 2772 3150 2772 3378 
Q 2772 3750 2511 3984 
Q 2250 4219 1831 4219 
Q 1534 4219 1204 4116 
Q 875 4013 500 3803 
L 500 4441 
Q 881 4594 1212 4672 
Q 1544 4750 1819 4750 
Q 2544 4750 2975 4387 
Q 3406 4025 3406 3419 
Q 3406 3131 3298 2873 
Q 3191 2616 2906 2266 
Q 2828 2175 2409 1742 
Q 1991 1309 1228 531 
z
" transform="scale(0.015625)"/>
       </defs>
       <use xlink:href="#DejaVuSans-32"/>
       <use xlink:href="#DejaVuSans-30" x="63.623047"/>
      </g>
     </g>
    </g>
    <g id="xtick_3">
     <g id="line2d_3">
      <path d="M 213.670799 240.7 
L 213.670799 10.8 
" clip-path="url(#p3bef4341bb)" style="fill: none; stroke: #ffffff; stroke-linecap: round"/>
     </g>
     <g id="text_3">
      <!-- 40 -->
      <g style="fill: #262626" transform="translate(206.672049 258.558281)scale(0.11 -0.11)">
       <defs>
        <path id="DejaVuSans-34" d="M 2419 4116 
L 825 1625 
L 2419 1625 
L 2419 4116 
z
M 2253 4666 
L 3047 4666 
L 3047 1625 
L 3713 1625 
L 3713 1100 
L 3047 1100 
L 3047 0 
L 2419 0 
L 2419 1100 
L 313 1100 
L 313 1709 
L 2253 4666 
z
" transform="scale(0.015625)"/>
       </defs>
       <use xlink:href="#DejaVuSans-34"/>
       <use xlink:href="#DejaVuSans-30" x="63.623047"/>
      </g>
     </g>
    </g>
    <g id="xtick_4">
     <g id="line2d_4">
      <path d="M 278.57438 240.7 
L 278.57438 10.8 
" clip-path="url(#p3bef4341bb)" style="fill: none; stroke: #ffffff; stroke-linecap: round"/>
     </g>
     <g id="text_4">
      <!-- 60 -->
      <g style="fill: #262626" transform="translate(271.57563 258.558281)scale(0.11 -0.11)">
       <defs>
        <path id="DejaVuSans-36" d="M 2113 2584 
Q 1688 2584 1439 2293 
Q 1191 2003 1191 1497 
Q 1191 994 1439 701 
Q 1688 409 2113 409 
Q 2538 409 2786 701 
Q 3034 994 3034 1497 
Q 3034 2003 2786 2293 
Q 2538 2584 2113 2584 
z
M 3366 4563 
L 3366 3988 
Q 3128 4100 2886 4159 
Q 2644 4219 2406 4219 
Q 1781 4219 1451 3797 
Q 1122 3375 1075 2522 
Q 1259 2794 1537 2939 
Q 1816 3084 2150 3084 
Q 2853 3084 3261 2657 
Q 3669 2231 3669 1497 
Q 3669 778 3244 343 
Q 2819 -91 2113 -91 
Q 1303 -91 875 529 
Q 447 1150 447 2328 
Q 447 3434 972 4092 
Q 1497 4750 2381 4750 
Q 2619 4750 2861 4703 
Q 3103 4656 3366 4563 
z
" transform="scale(0.015625)"/>
       </defs>
       <use xlink:href="#DejaVuSans-36"/>
       <use xlink:href="#DejaVuSans-30" x="63.623047"/>
      </g>
     </g>
    </g>
    <g id="xtick_5">
     <g id="line2d_5">
      <path d="M 343.477961 240.7 
L 343.477961 10.8 
" clip-path="url(#p3bef4341bb)" style="fill: none; stroke: #ffffff; stroke-linecap: round"/>
     </g>
     <g id="text_5">
      <!-- 80 -->
      <g style="fill: #262626" transform="translate(336.479211 258.558281)scale(0.11 -0.11)">
       <defs>
        <path id="DejaVuSans-38" d="M 2034 2216 
Q 1584 2216 1326 1975 
Q 1069 1734 1069 1313 
Q 1069 891 1326 650 
Q 1584 409 2034 409 
Q 2484 409 2743 651 
Q 3003 894 3003 1313 
Q 3003 1734 2745 1975 
Q 2488 2216 2034 2216 
z
M 1403 2484 
Q 997 2584 770 2862 
Q 544 3141 544 3541 
Q 544 4100 942 4425 
Q 1341 4750 2034 4750 
Q 2731 4750 3128 4425 
Q 3525 4100 3525 3541 
Q 3525 3141 3298 2862 
Q 3072 2584 2669 2484 
Q 3125 2378 3379 2068 
Q 3634 1759 3634 1313 
Q 3634 634 3220 271 
Q 2806 -91 2034 -91 
Q 1263 -91 848 271 
Q 434 634 434 1313 
Q 434 1759 690 2068 
Q 947 2378 1403 2484 
z
M 1172 3481 
Q 1172 3119 1398 2916 
Q 1625 2713 2034 2713 
Q 2441 2713 2670 2916 
Q 2900 3119 2900 3481 
Q 2900 3844 2670 4047 
Q 2441 4250 2034 4250 
Q 1625 4250 1398 4047 
Q 1172 3844 1172 3481 
z
" transform="scale(0.015625)"/>
       </defs>
       <use xlink:href="#DejaVuSans-38"/>
       <use xlink:href="#DejaVuSans-30" x="63.623047"/>
      </g>
     </g>
    </g>
    <g id="xtick_6">
     <g id="line2d_6">
      <path d="M 408.381543 240.7 
L 408.381543 10.8 
" clip-path="url(#p3bef4341bb)" style="fill: none; stroke: #ffffff; stroke-linecap: round"/>
     </g>
     <g id="text_6">
      <!-- 100 -->
      <g style="fill: #262626" transform="translate(397.883418 258.558281)scale(0.11 -0.11)">
       <defs>
        <path id="DejaVuSans-31" d="M 794 531 
L 1825 531 
L 1825 4091 
L 703 3866 
L 703 4441 
L 1819 4666 
L 2450 4666 
L 2450 531 
L 3481 531 
L 3481 0 
L 794 0 
L 794 531 
z
" transform="scale(0.015625)"/>
       </defs>
       <use xlink:href="#DejaVuSans-31"/>
       <use xlink:href="#DejaVuSans-30" x="63.623047"/>
       <use xlink:href="#DejaVuSans-30" x="127.246094"/>
      </g>
     </g>
    </g>
    <g id="text_7">
     <!-- Iteration Number -->
     <g style="fill: #262626" transform="translate(193.039688 273.964063)scale(0.12 -0.12)">
      <defs>
       <path id="DejaVuSans-49" d="M 628 4666 
L 1259 4666 
L 1259 0 
L 628 0 
L 628 4666 
z
" transform="scale(0.015625)"/>
       <path id="DejaVuSans-74" d="M 1172 4494 
L 1172 3500 
L 2356 3500 
L 2356 3053 
L 1172 3053 
L 1172 1153 
Q 1172 725 1289 603 
Q 1406 481 1766 481 
L 2356 481 
L 2356 0 
L 1766 0 
Q 1100 0 847 248 
Q 594 497 594 1153 
L 594 3053 
L 172 3053 
L 172 3500 
L 594 3500 
L 594 4494 
L 1172 4494 
z
" transform="scale(0.015625)"/>
       <path id="DejaVuSans-65" d="M 3597 1894 
L 3597 1613 
L 953 1613 
Q 991 1019 1311 708 
Q 1631 397 2203 397 
Q 2534 397 2845 478 
Q 3156 559 3463 722 
L 3463 178 
Q 3153 47 2828 -22 
Q 2503 -91 2169 -91 
Q 1331 -91 842 396 
Q 353 884 353 1716 
Q 353 2575 817 3079 
Q 1281 3584 2069 3584 
Q 2775 3584 3186 3129 
Q 3597 2675 3597 1894 
z
M 3022 2063 
Q 3016 2534 2758 2815 
Q 2500 3097 2075 3097 
Q 1594 3097 1305 2825 
Q 1016 2553 972 2059 
L 3022 2063 
z
" transform="scale(0.015625)"/>
       <path id="DejaVuSans-72" d="M 2631 2963 
Q 2534 3019 2420 3045 
Q 2306 3072 2169 3072 
Q 1681 3072 1420 2755 
Q 1159 2438 1159 1844 
L 1159 0 
L 581 0 
L 581 3500 
L 1159 3500 
L 1159 2956 
Q 1341 3275 1631 3429 
Q 1922 3584 2338 3584 
Q 2397 3584 2469 3576 
Q 2541 3569 2628 3553 
L 2631 2963 
z
" transform="scale(0.015625)"/>
       <path id="DejaVuSans-61" d="M 2194 1759 
Q 1497 1759 1228 1600 
Q 959 1441 959 1056 
Q 959 750 1161 570 
Q 1363 391 1709 391 
Q 2188 391 2477 730 
Q 2766 1069 2766 1631 
L 2766 1759 
L 2194 1759 
z
M 3341 1997 
L 3341 0 
L 2766 0 
L 2766 531 
Q 2569 213 2275 61 
Q 1981 -91 1556 -91 
Q 1019 -91 701 211 
Q 384 513 384 1019 
Q 384 1609 779 1909 
Q 1175 2209 1959 2209 
L 2766 2209 
L 2766 2266 
Q 2766 2663 2505 2880 
Q 2244 3097 1772 3097 
Q 1472 3097 1187 3025 
Q 903 2953 641 2809 
L 641 3341 
Q 956 3463 1253 3523 
Q 1550 3584 1831 3584 
Q 2591 3584 2966 3190 
Q 3341 2797 3341 1997 
z
" transform="scale(0.015625)"/>
       <path id="DejaVuSans-69" d="M 603 3500 
L 1178 3500 
L 1178 0 
L 603 0 
L 603 3500 
z
M 603 4863 
L 1178 4863 
L 1178 4134 
L 603 4134 
L 603 4863 
z
" transform="scale(0.015625)"/>
       <path id="DejaVuSans-6f" d="M 1959 3097 
Q 1497 3097 1228 2736 
Q 959 2375 959 1747 
Q 959 1119 1226 758 
Q 1494 397 1959 397 
Q 2419 397 2687 759 
Q 2956 1122 2956 1747 
Q 2956 2369 2687 2733 
Q 2419 3097 1959 3097 
z
M 1959 3584 
Q 2709 3584 3137 3096 
Q 3566 2609 3566 1747 
Q 3566 888 3137 398 
Q 2709 -91 1959 -91 
Q 1206 -91 779 398 
Q 353 888 353 1747 
Q 353 2609 779 3096 
Q 1206 3584 1959 3584 
z
" transform="scale(0.015625)"/>
       <path id="DejaVuSans-6e" d="M 3513 2113 
L 3513 0 
L 2938 0 
L 2938 2094 
Q 2938 2591 2744 2837 
Q 2550 3084 2163 3084 
Q 1697 3084 1428 2787 
Q 1159 2491 1159 1978 
L 1159 0 
L 581 0 
L 581 3500 
L 1159 3500 
L 1159 2956 
Q 1366 3272 1645 3428 
Q 1925 3584 2291 3584 
Q 2894 3584 3203 3211 
Q 3513 2838 3513 2113 
z
" transform="scale(0.015625)"/>
       <path id="DejaVuSans-20" transform="scale(0.015625)"/>
       <path id="DejaVuSans-4e" d="M 628 4666 
L 1478 4666 
L 3547 763 
L 3547 4666 
L 4159 4666 
L 4159 0 
L 3309 0 
L 1241 3903 
L 1241 0 
L 628 0 
L 628 4666 
z
" transform="scale(0.015625)"/>
       <path id="DejaVuSans-75" d="M 544 1381 
L 544 3500 
L 1119 3500 
L 1119 1403 
Q 1119 906 1312 657 
Q 1506 409 1894 409 
Q 2359 409 2629 706 
Q 2900 1003 2900 1516 
L 2900 3500 
L 3475 3500 
L 3475 0 
L 2900 0 
L 2900 538 
Q 2691 219 2414 64 
Q 2138 -91 1772 -91 
Q 1169 -91 856 284 
Q 544 659 544 1381 
z
M 1991 3584 
L 1991 3584 
z
" transform="scale(0.015625)"/>
       <path id="DejaVuSans-6d" d="M 3328 2828 
Q 3544 3216 3844 3400 
Q 4144 3584 4550 3584 
Q 5097 3584 5394 3201 
Q 5691 2819 5691 2113 
L 5691 0 
L 5113 0 
L 5113 2094 
Q 5113 2597 4934 2840 
Q 4756 3084 4391 3084 
Q 3944 3084 3684 2787 
Q 3425 2491 3425 1978 
L 3425 0 
L 2847 0 
L 2847 2094 
Q 2847 2600 2669 2842 
Q 2491 3084 2119 3084 
Q 1678 3084 1418 2786 
Q 1159 2488 1159 1978 
L 1159 0 
L 581 0 
L 581 3500 
L 1159 3500 
L 1159 2956 
Q 1356 3278 1631 3431 
Q 1906 3584 2284 3584 
Q 2666 3584 2933 3390 
Q 3200 3197 3328 2828 
z
" transform="scale(0.015625)"/>
       <path id="DejaVuSans-62" d="M 3116 1747 
Q 3116 2381 2855 2742 
Q 2594 3103 2138 3103 
Q 1681 3103 1420 2742 
Q 1159 2381 1159 1747 
Q 1159 1113 1420 752 
Q 1681 391 2138 391 
Q 2594 391 2855 752 
Q 3116 1113 3116 1747 
z
M 1159 2969 
Q 1341 3281 1617 3432 
Q 1894 3584 2278 3584 
Q 2916 3584 3314 3078 
Q 3713 2572 3713 1747 
Q 3713 922 3314 415 
Q 2916 -91 2278 -91 
Q 1894 -91 1617 61 
Q 1341 213 1159 525 
L 1159 0 
L 581 0 
L 581 4863 
L 1159 4863 
L 1159 2969 
z
" transform="scale(0.015625)"/>
      </defs>
      <use xlink:href="#DejaVuSans-49"/>
      <use xlink:href="#DejaVuSans-74" x="29.492188"/>
      <use xlink:href="#DejaVuSans-65" x="68.701172"/>
      <use xlink:href="#DejaVuSans-72" x="130.224609"/>
      <use xlink:href="#DejaVuSans-61" x="171.337891"/>
      <use xlink:href="#DejaVuSans-74" x="232.617188"/>
      <use xlink:href="#DejaVuSans-69" x="271.826172"/>
      <use xlink:href="#DejaVuSans-6f" x="299.609375"/>
      <use xlink:href="#DejaVuSans-6e" x="360.791016"/>
      <use xlink:href="#DejaVuSans-20" x="424.169922"/>
      <use xlink:href="#DejaVuSans-4e" x="455.957031"/>
      <use xlink:href="#DejaVuSans-75" x="530.761719"/>
      <use xlink:href="#DejaVuSans-6d" x="594.140625"/>
      <use xlink:href="#DejaVuSans-62" x="691.552734"/>
      <use xlink:href="#DejaVuSans-65" x="755.029297"/>
      <use xlink:href="#DejaVuSans-72" x="816.552734"/>
     </g>
    </g>
   </g>
   <g id="matplotlib.axis_2">
    <g id="ytick_1">
     <g id="line2d_7">
      <path d="M 67.8 240.7 
L 421.2 240.7 
" clip-path="url(#p3bef4341bb)" style="fill: none; stroke: #ffffff; stroke-linecap: round"/>
     </g>
     <g id="text_8">
      <!-- −0.2 -->
      <g style="fill: #262626" transform="translate(31.588906 244.879141)scale(0.11 -0.11)">
       <defs>
        <path id="DejaVuSans-2212" d="M 678 2272 
L 4684 2272 
L 4684 1741 
L 678 1741 
L 678 2272 
z
" transform="scale(0.015625)"/>
        <path id="DejaVuSans-2e" d="M 684 794 
L 1344 794 
L 1344 0 
L 684 0 
L 684 794 
z
" transform="scale(0.015625)"/>
       </defs>
       <use xlink:href="#DejaVuSans-2212"/>
       <use xlink:href="#DejaVuSans-30" x="83.789062"/>
       <use xlink:href="#DejaVuSans-2e" x="147.412109"/>
       <use xlink:href="#DejaVuSans-32" x="179.199219"/>
      </g>
     </g>
    </g>
    <g id="ytick_2">
     <g id="line2d_8">
      <path d="M 67.8 205.330769 
L 421.2 205.330769 
" clip-path="url(#p3bef4341bb)" style="fill: none; stroke: #ffffff; stroke-linecap: round"/>
     </g>
     <g id="text_9">
      <!-- 0.0 -->
      <g style="fill: #262626" transform="translate(40.806562 209.50991)scale(0.11 -0.11)">
       <use xlink:href="#DejaVuSans-30"/>
       <use xlink:href="#DejaVuSans-2e" x="63.623047"/>
       <use xlink:href="#DejaVuSans-30" x="95.410156"/>
      </g>
     </g>
    </g>
    <g id="ytick_3">
     <g id="line2d_9">
      <path d="M 67.8 169.961538 
L 421.2 169.961538 
" clip-path="url(#p3bef4341bb)" style="fill: none; stroke: #ffffff; stroke-linecap: round"/>
     </g>
     <g id="text_10">
      <!-- 0.2 -->
      <g style="fill: #262626" transform="translate(40.806562 174.140679)scale(0.11 -0.11)">
       <use xlink:href="#DejaVuSans-30"/>
       <use xlink:href="#DejaVuSans-2e" x="63.623047"/>
       <use xlink:href="#DejaVuSans-32" x="95.410156"/>
      </g>
     </g>
    </g>
    <g id="ytick_4">
     <g id="line2d_10">
      <path d="M 67.8 134.592308 
L 421.2 134.592308 
" clip-path="url(#p3bef4341bb)" style="fill: none; stroke: #ffffff; stroke-linecap: round"/>
     </g>
     <g id="text_11">
      <!-- 0.4 -->
      <g style="fill: #262626" transform="translate(40.806562 138.771448)scale(0.11 -0.11)">
       <use xlink:href="#DejaVuSans-30"/>
       <use xlink:href="#DejaVuSans-2e" x="63.623047"/>
       <use xlink:href="#DejaVuSans-34" x="95.410156"/>
      </g>
     </g>
    </g>
    <g id="ytick_5">
     <g id="line2d_11">
      <path d="M 67.8 99.223077 
L 421.2 99.223077 
" clip-path="url(#p3bef4341bb)" style="fill: none; stroke: #ffffff; stroke-linecap: round"/>
     </g>
     <g id="text_12">
      <!-- 0.6 -->
      <g style="fill: #262626" transform="translate(40.806562 103.402218)scale(0.11 -0.11)">
       <use xlink:href="#DejaVuSans-30"/>
       <use xlink:href="#DejaVuSans-2e" x="63.623047"/>
       <use xlink:href="#DejaVuSans-36" x="95.410156"/>
      </g>
     </g>
    </g>
    <g id="ytick_6">
     <g id="line2d_12">
      <path d="M 67.8 63.853846 
L 421.2 63.853846 
" clip-path="url(#p3bef4341bb)" style="fill: none; stroke: #ffffff; stroke-linecap: round"/>
     </g>
     <g id="text_13">
      <!-- 0.8 -->
      <g style="fill: #262626" transform="translate(40.806562 68.032987)scale(0.11 -0.11)">
       <use xlink:href="#DejaVuSans-30"/>
       <use xlink:href="#DejaVuSans-2e" x="63.623047"/>
       <use xlink:href="#DejaVuSans-38" x="95.410156"/>
      </g>
     </g>
    </g>
    <g id="ytick_7">
     <g id="line2d_13">
      <path d="M 67.8 28.484615 
L 421.2 28.484615 
" clip-path="url(#p3bef4341bb)" style="fill: none; stroke: #ffffff; stroke-linecap: round"/>
     </g>
     <g id="text_14">
      <!-- 1.0 -->
      <g style="fill: #262626" transform="translate(40.806562 32.663756)scale(0.11 -0.11)">
       <use xlink:href="#DejaVuSans-31"/>
       <use xlink:href="#DejaVuSans-2e" x="63.623047"/>
       <use xlink:href="#DejaVuSans-30" x="95.410156"/>
      </g>
     </g>
    </g>
    <g id="text_15">
     <!-- Normalised Beam Angle $\omega$ -->
     <g style="fill: #262626" transform="translate(25.068906 205.01)rotate(-90)scale(0.12 -0.12)">
      <defs>
       <path id="DejaVuSans-6c" d="M 603 4863 
L 1178 4863 
L 1178 0 
L 603 0 
L 603 4863 
z
" transform="scale(0.015625)"/>
       <path id="DejaVuSans-73" d="M 2834 3397 
L 2834 2853 
Q 2591 2978 2328 3040 
Q 2066 3103 1784 3103 
Q 1356 3103 1142 2972 
Q 928 2841 928 2578 
Q 928 2378 1081 2264 
Q 1234 2150 1697 2047 
L 1894 2003 
Q 2506 1872 2764 1633 
Q 3022 1394 3022 966 
Q 3022 478 2636 193 
Q 2250 -91 1575 -91 
Q 1294 -91 989 -36 
Q 684 19 347 128 
L 347 722 
Q 666 556 975 473 
Q 1284 391 1588 391 
Q 1994 391 2212 530 
Q 2431 669 2431 922 
Q 2431 1156 2273 1281 
Q 2116 1406 1581 1522 
L 1381 1569 
Q 847 1681 609 1914 
Q 372 2147 372 2553 
Q 372 3047 722 3315 
Q 1072 3584 1716 3584 
Q 2034 3584 2315 3537 
Q 2597 3491 2834 3397 
z
" transform="scale(0.015625)"/>
       <path id="DejaVuSans-64" d="M 2906 2969 
L 2906 4863 
L 3481 4863 
L 3481 0 
L 2906 0 
L 2906 525 
Q 2725 213 2448 61 
Q 2172 -91 1784 -91 
Q 1150 -91 751 415 
Q 353 922 353 1747 
Q 353 2572 751 3078 
Q 1150 3584 1784 3584 
Q 2172 3584 2448 3432 
Q 2725 3281 2906 2969 
z
M 947 1747 
Q 947 1113 1208 752 
Q 1469 391 1925 391 
Q 2381 391 2643 752 
Q 2906 1113 2906 1747 
Q 2906 2381 2643 2742 
Q 2381 3103 1925 3103 
Q 1469 3103 1208 2742 
Q 947 2381 947 1747 
z
" transform="scale(0.015625)"/>
       <path id="DejaVuSans-42" d="M 1259 2228 
L 1259 519 
L 2272 519 
Q 2781 519 3026 730 
Q 3272 941 3272 1375 
Q 3272 1813 3026 2020 
Q 2781 2228 2272 2228 
L 1259 2228 
z
M 1259 4147 
L 1259 2741 
L 2194 2741 
Q 2656 2741 2882 2914 
Q 3109 3088 3109 3444 
Q 3109 3797 2882 3972 
Q 2656 4147 2194 4147 
L 1259 4147 
z
M 628 4666 
L 2241 4666 
Q 2963 4666 3353 4366 
Q 3744 4066 3744 3513 
Q 3744 3084 3544 2831 
Q 3344 2578 2956 2516 
Q 3422 2416 3680 2098 
Q 3938 1781 3938 1306 
Q 3938 681 3513 340 
Q 3088 0 2303 0 
L 628 0 
L 628 4666 
z
" transform="scale(0.015625)"/>
       <path id="DejaVuSans-41" d="M 2188 4044 
L 1331 1722 
L 3047 1722 
L 2188 4044 
z
M 1831 4666 
L 2547 4666 
L 4325 0 
L 3669 0 
L 3244 1197 
L 1141 1197 
L 716 0 
L 50 0 
L 1831 4666 
z
" transform="scale(0.015625)"/>
       <path id="DejaVuSans-67" d="M 2906 1791 
Q 2906 2416 2648 2759 
Q 2391 3103 1925 3103 
Q 1463 3103 1205 2759 
Q 947 2416 947 1791 
Q 947 1169 1205 825 
Q 1463 481 1925 481 
Q 2391 481 2648 825 
Q 2906 1169 2906 1791 
z
M 3481 434 
Q 3481 -459 3084 -895 
Q 2688 -1331 1869 -1331 
Q 1566 -1331 1297 -1286 
Q 1028 -1241 775 -1147 
L 775 -588 
Q 1028 -725 1275 -790 
Q 1522 -856 1778 -856 
Q 2344 -856 2625 -561 
Q 2906 -266 2906 331 
L 2906 616 
Q 2728 306 2450 153 
Q 2172 0 1784 0 
Q 1141 0 747 490 
Q 353 981 353 1791 
Q 353 2603 747 3093 
Q 1141 3584 1784 3584 
Q 2172 3584 2450 3431 
Q 2728 3278 2906 2969 
L 2906 3500 
L 3481 3500 
L 3481 434 
z
" transform="scale(0.015625)"/>
       <path id="DejaVuSans-Oblique-3c9" d="M 1369 -91 
Q 72 -91 434 1766 
Q 575 2500 1256 3500 
L 1875 3500 
Q 1231 2500 1088 1750 
Q 819 397 1519 397 
Q 2166 397 2478 2078 
L 3009 2078 
Q 2669 388 3316 397 
Q 4013 403 4275 1750 
Q 4419 2500 4169 3500 
L 4788 3500 
Q 5075 2500 4934 1766 
Q 4578 -94 3278 -91 
Q 2428 -88 2503 844 
Q 2194 -91 1369 -91 
z
" transform="scale(0.015625)"/>
      </defs>
      <use xlink:href="#DejaVuSans-4e" transform="translate(0 0.015625)"/>
      <use xlink:href="#DejaVuSans-6f" transform="translate(74.804688 0.015625)"/>
      <use xlink:href="#DejaVuSans-72" transform="translate(135.986328 0.015625)"/>
      <use xlink:href="#DejaVuSans-6d" transform="translate(177.099609 0.015625)"/>
      <use xlink:href="#DejaVuSans-61" transform="translate(274.511719 0.015625)"/>
      <use xlink:href="#DejaVuSans-6c" transform="translate(335.791016 0.015625)"/>
      <use xlink:href="#DejaVuSans-69" transform="translate(363.574219 0.015625)"/>
      <use xlink:href="#DejaVuSans-73" transform="translate(391.357422 0.015625)"/>
      <use xlink:href="#DejaVuSans-65" transform="translate(443.457031 0.015625)"/>
      <use xlink:href="#DejaVuSans-64" transform="translate(504.980469 0.015625)"/>
      <use xlink:href="#DejaVuSans-20" transform="translate(568.457031 0.015625)"/>
      <use xlink:href="#DejaVuSans-42" transform="translate(600.244141 0.015625)"/>
      <use xlink:href="#DejaVuSans-65" transform="translate(668.847656 0.015625)"/>
      <use xlink:href="#DejaVuSans-61" transform="translate(730.371094 0.015625)"/>
      <use xlink:href="#DejaVuSans-6d" transform="translate(791.650391 0.015625)"/>
      <use xlink:href="#DejaVuSans-20" transform="translate(889.0625 0.015625)"/>
      <use xlink:href="#DejaVuSans-41" transform="translate(920.849609 0.015625)"/>
      <use xlink:href="#DejaVuSans-6e" transform="translate(989.257812 0.015625)"/>
      <use xlink:href="#DejaVuSans-67" transform="translate(1052.636719 0.015625)"/>
      <use xlink:href="#DejaVuSans-6c" transform="translate(1116.113281 0.015625)"/>
      <use xlink:href="#DejaVuSans-65" transform="translate(1143.896484 0.015625)"/>
      <use xlink:href="#DejaVuSans-20" transform="translate(1205.419922 0.015625)"/>
      <use xlink:href="#DejaVuSans-Oblique-3c9" transform="translate(1237.207031 0.015625)"/>
     </g>
    </g>
   </g>
   <g id="line2d_14">
    <path d="M 83.863636 28.484615 
L 87.108815 26.716154 
L 90.353994 27.501211 
L 93.599174 27.795932 
L 96.844353 28.806696 
L 100.089532 30.037516 
L 103.334711 31.398109 
L 106.57989 32.809584 
L 109.825069 34.322158 
L 113.070248 35.902364 
L 116.315427 37.49801 
L 119.560606 39.141101 
L 122.805785 40.775421 
L 126.050964 42.387811 
L 129.296143 44.049489 
L 132.541322 45.732152 
L 135.786501 47.479995 
L 139.03168 49.278953 
L 142.27686 51.127908 
L 145.522039 53.025255 
L 148.767218 54.968885 
L 152.012397 56.800013 
L 155.257576 58.624167 
L 158.502755 60.475071 
L 161.747934 62.363789 
L 164.993113 64.268277 
L 168.238292 66.160792 
L 171.483471 68.037906 
L 174.72865 69.912165 
L 177.973829 71.716737 
L 181.219008 73.440716 
L 184.464187 75.128195 
L 187.709366 76.744303 
L 190.954545 78.309209 
L 194.199725 79.827118 
L 197.444904 81.287711 
L 200.690083 82.709589 
L 203.935262 84.087048 
L 207.180441 85.431493 
L 210.42562 86.727502 
L 213.670799 87.981733 
L 216.915978 89.196699 
L 220.161157 90.354379 
L 223.406336 91.468737 
L 226.651515 92.520123 
L 229.896694 93.511762 
L 233.141873 94.461618 
L 236.387052 95.370839 
L 239.632231 96.235017 
L 242.87741 97.062108 
L 246.12259 97.828382 
L 249.367769 98.548911 
L 252.612948 99.207895 
L 255.858127 99.812134 
L 259.103306 100.369574 
L 262.348485 100.874042 
L 265.593664 101.357942 
L 268.838843 101.771902 
L 272.084022 102.183808 
L 275.329201 102.548354 
L 278.57438 102.879829 
L 281.819559 103.13494 
L 285.064738 103.335045 
L 288.309917 103.512278 
L 291.555096 103.707078 
L 294.800275 103.841749 
L 298.045455 103.952425 
L 301.290634 104.038602 
L 304.535813 104.108522 
L 307.780992 104.177832 
L 311.026171 104.207637 
L 314.27135 104.16938 
L 317.516529 104.111384 
L 320.761708 104.058063 
L 324.006887 104.011564 
L 327.252066 103.94793 
L 330.497245 103.862026 
L 333.742424 103.756101 
L 336.987603 103.632428 
L 340.232782 103.514972 
L 343.477961 103.369539 
L 346.72314 103.213811 
L 349.96832 103.069934 
L 353.213499 102.960584 
L 356.458678 102.802865 
L 359.703857 102.663249 
L 362.949036 102.520401 
L 366.194215 102.397347 
L 369.439394 102.287094 
L 372.684573 102.186011 
L 375.929752 102.100217 
L 379.174931 102.026987 
L 382.42011 101.946675 
L 385.665289 101.835387 
L 388.910468 101.732895 
L 392.155647 101.6584 
L 395.400826 101.596607 
L 398.646006 101.563979 
L 401.891185 101.514277 
L 405.136364 101.512637 
" clip-path="url(#p3bef4341bb)" style="fill: none; stroke: #4c72b0; stroke-width: 1.5; stroke-linecap: round"/>
   </g>
   <g id="line2d_15">
    <path d="M 83.863636 28.484615 
L 87.108815 28.515511 
L 90.353994 28.553141 
L 93.599174 28.591025 
L 96.844353 28.632746 
L 100.089532 28.677049 
L 103.334711 28.718865 
L 106.57989 28.761218 
L 109.825069 28.802011 
L 113.070248 28.842973 
L 116.315427 28.884525 
L 119.560606 28.925423 
L 122.805785 28.9657 
L 126.050964 29.007674 
L 129.296143 29.049331 
L 132.541322 29.090567 
L 135.786501 29.130685 
L 139.03168 29.170203 
L 142.27686 29.208298 
L 145.522039 29.246529 
L 148.767218 29.286774 
L 152.012397 29.326208 
L 155.257576 29.363986 
L 158.502755 29.401775 
L 161.747934 29.441134 
L 164.993113 29.482065 
L 168.238292 29.524102 
L 171.483471 29.56577 
L 174.72865 29.606826 
L 177.973829 29.649611 
L 181.219008 29.689751 
L 184.464187 29.73144 
L 187.709366 29.772665 
L 190.954545 29.812404 
L 194.199725 29.853545 
L 197.444904 29.896204 
L 200.690083 29.937746 
L 203.935262 29.978665 
L 207.180441 30.021503 
L 210.42562 30.06491 
L 213.670799 30.108402 
L 216.915978 30.150386 
L 220.161157 30.19138 
L 223.406336 30.229748 
L 226.651515 30.269498 
L 229.896694 30.308921 
L 233.141873 30.348776 
L 236.387052 30.390813 
L 239.632231 30.433935 
L 242.87741 30.475182 
L 246.12259 30.518589 
L 249.367769 30.562976 
L 252.612948 30.607364 
L 255.858127 30.651541 
L 259.103306 30.694189 
L 262.348485 30.738102 
L 265.593664 30.779928 
L 268.838843 30.823335 
L 272.084022 30.867754 
L 275.329201 30.912564 
L 278.57438 30.956719 
L 281.819559 31.001497 
L 285.064738 31.046896 
L 288.309917 31.093107 
L 291.555096 31.139318 
L 294.800275 31.184939 
L 298.045455 31.229538 
L 301.290634 31.274674 
L 304.535813 31.319072 
L 307.780992 31.363944 
L 311.026171 31.40869 
L 314.27135 31.454385 
L 317.516529 31.501861 
L 320.761708 31.548188 
L 324.006887 31.593418 
L 327.252066 31.638417 
L 330.497245 31.683026 
L 333.742424 31.728752 
L 336.987603 31.774763 
L 340.232782 31.819825 
L 343.477961 31.865267 
L 346.72314 31.910371 
L 349.96832 31.95575 
L 353.213499 32.000864 
L 356.458678 32.04834 
L 359.703857 32.094868 
L 362.949036 32.140752 
L 366.194215 32.18631 
L 369.439394 32.23251 
L 372.684573 32.277193 
L 375.929752 32.32293 
L 379.174931 32.366706 
L 382.42011 32.411367 
L 385.665289 32.457579 
L 388.910468 32.503547 
L 392.155647 32.547871 
L 395.400826 32.593092 
L 398.646006 32.638797 
L 401.891185 32.685704 
L 405.136364 32.729606 
" clip-path="url(#p3bef4341bb)" style="fill: none; stroke: #dd8452; stroke-width: 1.5; stroke-linecap: round"/>
   </g>
   <g id="line2d_16">
    <path d="M 83.863636 28.484615 
L 87.108815 30.253075 
L 90.353994 32.02377 
L 93.599174 33.796372 
L 96.844353 35.571146 
L 100.089532 37.352624 
L 103.334711 39.109963 
L 106.57989 40.856055 
L 109.825069 42.593567 
L 113.070248 44.319811 
L 116.315427 46.058767 
L 119.560606 47.639083 
L 122.805785 49.012683 
L 126.050964 50.402916 
L 129.296143 51.82806 
L 132.541322 53.131847 
L 135.786501 54.395095 
L 139.03168 55.59555 
L 142.27686 56.672203 
L 145.522039 57.750617 
L 148.767218 58.708211 
L 152.012397 59.76158 
L 155.257576 60.921843 
L 158.502755 62.209998 
L 161.747934 63.324029 
L 164.993113 64.286114 
L 168.238292 65.296307 
L 171.483471 66.073937 
L 174.72865 66.538188 
L 177.973829 67.027052 
L 181.219008 67.319866 
L 184.464187 67.763478 
L 187.709366 68.306131 
L 190.954545 68.975971 
L 194.199725 69.79898 
L 197.444904 70.419952 
L 200.690083 70.684032 
L 203.935262 70.724055 
L 207.180441 70.983761 
L 210.42562 71.23126 
L 213.670799 71.446135 
L 216.915978 71.647381 
L 220.161157 71.794679 
L 223.406336 71.788671 
L 226.651515 71.613535 
L 229.896694 71.536038 
L 233.141873 71.791106 
L 236.387052 72.037361 
L 239.632231 72.40764 
L 242.87741 72.936707 
L 246.12259 73.261797 
L 249.367769 73.759346 
L 252.612948 74.320805 
L 255.858127 74.895703 
L 259.103306 75.515231 
L 262.348485 76.044319 
L 265.593664 76.517887 
L 268.838843 76.910144 
L 272.084022 77.345713 
L 275.329201 77.720873 
L 278.57438 78.086693 
L 281.819559 78.428206 
L 285.064738 78.718027 
L 288.309917 78.991172 
L 291.555096 79.30257 
L 294.800275 79.310918 
L 298.045455 79.279907 
L 301.290634 79.236563 
L 304.535813 79.193493 
L 307.780992 79.115027 
L 311.026171 79.029266 
L 314.27135 78.972483 
L 317.516529 78.715518 
L 320.761708 78.240473 
L 324.006887 77.953573 
L 327.252066 77.680775 
L 330.497245 77.441825 
L 333.742424 77.227803 
L 336.987603 76.833934 
L 340.232782 76.593202 
L 343.477961 76.013929 
L 346.72314 75.381984 
L 349.96832 74.719228 
L 353.213499 74.143813 
L 356.458678 73.632076 
L 359.703857 72.990201 
L 362.949036 72.3209 
L 366.194215 71.816193 
L 369.439394 71.279379 
L 372.684573 70.761549 
L 375.929752 70.475186 
L 379.174931 70.277977 
L 382.42011 70.168974 
L 385.665289 70.313247 
L 388.910468 70.447337 
L 392.155647 70.703922 
L 395.400826 70.904146 
L 398.646006 70.920474 
L 401.891185 71.208407 
L 405.136364 71.304182 
" clip-path="url(#p3bef4341bb)" style="fill: none; stroke: #55a868; stroke-width: 1.5; stroke-linecap: round"/>
   </g>
   <g id="patch_3">
    <path d="M 67.8 240.7 
L 67.8 10.8 
" style="fill: none; stroke: #ffffff; stroke-width: 1.25; stroke-linejoin: miter; stroke-linecap: square"/>
   </g>
   <g id="patch_4">
    <path d="M 421.2 240.7 
L 421.2 10.8 
" style="fill: none; stroke: #ffffff; stroke-width: 1.25; stroke-linejoin: miter; stroke-linecap: square"/>
   </g>
   <g id="patch_5">
    <path d="M 67.8 240.7 
L 421.2 240.7 
" style="fill: none; stroke: #ffffff; stroke-width: 1.25; stroke-linejoin: miter; stroke-linecap: square"/>
   </g>
   <g id="patch_6">
    <path d="M 67.8 10.8 
L 421.2 10.8 
" style="fill: none; stroke: #ffffff; stroke-width: 1.25; stroke-linejoin: miter; stroke-linecap: square"/>
   </g>
   <g id="legend_1">
    <g id="patch_7">
     <path d="M 75.5 235.2 
L 213.493281 235.2 
Q 215.693281 235.2 215.693281 233 
L 215.693281 185.662187 
Q 215.693281 183.462187 213.493281 183.462187 
L 75.5 183.462187 
Q 73.3 183.462187 73.3 185.662187 
L 73.3 233 
Q 73.3 235.2 75.5 235.2 
z
" style="fill: #eaeaf2; opacity: 0.8; stroke: #cccccc; stroke-linejoin: miter"/>
    </g>
    <g id="line2d_17">
     <path d="M 77.7 192.370469 
L 88.7 192.370469 
L 99.7 192.370469 
" style="fill: none; stroke: #4c72b0; stroke-width: 1.5; stroke-linecap: round"/>
    </g>
    <g id="text_16">
     <!-- Local Linearisation -->
     <g style="fill: #262626" transform="translate(108.5 196.220469)scale(0.11 -0.11)">
      <defs>
       <path id="DejaVuSans-4c" d="M 628 4666 
L 1259 4666 
L 1259 531 
L 3531 531 
L 3531 0 
L 628 0 
L 628 4666 
z
" transform="scale(0.015625)"/>
       <path id="DejaVuSans-63" d="M 3122 3366 
L 3122 2828 
Q 2878 2963 2633 3030 
Q 2388 3097 2138 3097 
Q 1578 3097 1268 2742 
Q 959 2388 959 1747 
Q 959 1106 1268 751 
Q 1578 397 2138 397 
Q 2388 397 2633 464 
Q 2878 531 3122 666 
L 3122 134 
Q 2881 22 2623 -34 
Q 2366 -91 2075 -91 
Q 1284 -91 818 406 
Q 353 903 353 1747 
Q 353 2603 823 3093 
Q 1294 3584 2113 3584 
Q 2378 3584 2631 3529 
Q 2884 3475 3122 3366 
z
" transform="scale(0.015625)"/>
      </defs>
      <use xlink:href="#DejaVuSans-4c"/>
      <use xlink:href="#DejaVuSans-6f" x="53.962891"/>
      <use xlink:href="#DejaVuSans-63" x="115.144531"/>
      <use xlink:href="#DejaVuSans-61" x="170.125"/>
      <use xlink:href="#DejaVuSans-6c" x="231.404297"/>
      <use xlink:href="#DejaVuSans-20" x="259.1875"/>
      <use xlink:href="#DejaVuSans-4c" x="290.974609"/>
      <use xlink:href="#DejaVuSans-69" x="346.6875"/>
      <use xlink:href="#DejaVuSans-6e" x="374.470703"/>
      <use xlink:href="#DejaVuSans-65" x="437.849609"/>
      <use xlink:href="#DejaVuSans-61" x="499.373047"/>
      <use xlink:href="#DejaVuSans-72" x="560.652344"/>
      <use xlink:href="#DejaVuSans-69" x="601.765625"/>
      <use xlink:href="#DejaVuSans-73" x="629.548828"/>
      <use xlink:href="#DejaVuSans-61" x="681.648438"/>
      <use xlink:href="#DejaVuSans-74" x="742.927734"/>
      <use xlink:href="#DejaVuSans-69" x="782.136719"/>
      <use xlink:href="#DejaVuSans-6f" x="809.919922"/>
      <use xlink:href="#DejaVuSans-6e" x="871.101562"/>
     </g>
    </g>
    <g id="line2d_18">
     <path d="M 77.7 208.516406 
L 88.7 208.516406 
L 99.7 208.516406 
" style="fill: none; stroke: #dd8452; stroke-width: 1.5; stroke-linecap: round"/>
    </g>
    <g id="text_17">
     <!-- Forward KL -->
     <g style="fill: #262626" transform="translate(108.5 212.366406)scale(0.11 -0.11)">
      <defs>
       <path id="DejaVuSans-46" d="M 628 4666 
L 3309 4666 
L 3309 4134 
L 1259 4134 
L 1259 2759 
L 3109 2759 
L 3109 2228 
L 1259 2228 
L 1259 0 
L 628 0 
L 628 4666 
z
" transform="scale(0.015625)"/>
       <path id="DejaVuSans-77" d="M 269 3500 
L 844 3500 
L 1563 769 
L 2278 3500 
L 2956 3500 
L 3675 769 
L 4391 3500 
L 4966 3500 
L 4050 0 
L 3372 0 
L 2619 2869 
L 1863 0 
L 1184 0 
L 269 3500 
z
" transform="scale(0.015625)"/>
       <path id="DejaVuSans-4b" d="M 628 4666 
L 1259 4666 
L 1259 2694 
L 3353 4666 
L 4166 4666 
L 1850 2491 
L 4331 0 
L 3500 0 
L 1259 2247 
L 1259 0 
L 628 0 
L 628 4666 
z
" transform="scale(0.015625)"/>
      </defs>
      <use xlink:href="#DejaVuSans-46"/>
      <use xlink:href="#DejaVuSans-6f" x="53.894531"/>
      <use xlink:href="#DejaVuSans-72" x="115.076172"/>
      <use xlink:href="#DejaVuSans-77" x="156.189453"/>
      <use xlink:href="#DejaVuSans-61" x="237.976562"/>
      <use xlink:href="#DejaVuSans-72" x="299.255859"/>
      <use xlink:href="#DejaVuSans-64" x="338.619141"/>
      <use xlink:href="#DejaVuSans-20" x="402.095703"/>
      <use xlink:href="#DejaVuSans-4b" x="433.882812"/>
      <use xlink:href="#DejaVuSans-4c" x="499.458984"/>
     </g>
    </g>
    <g id="line2d_19">
     <path d="M 77.7 224.662344 
L 88.7 224.662344 
L 99.7 224.662344 
" style="fill: none; stroke: #55a868; stroke-width: 1.5; stroke-linecap: round"/>
    </g>
    <g id="text_18">
     <!-- Reverse KL -->
     <g style="fill: #262626" transform="translate(108.5 228.512344)scale(0.11 -0.11)">
      <defs>
       <path id="DejaVuSans-52" d="M 2841 2188 
Q 3044 2119 3236 1894 
Q 3428 1669 3622 1275 
L 4263 0 
L 3584 0 
L 2988 1197 
Q 2756 1666 2539 1819 
Q 2322 1972 1947 1972 
L 1259 1972 
L 1259 0 
L 628 0 
L 628 4666 
L 2053 4666 
Q 2853 4666 3247 4331 
Q 3641 3997 3641 3322 
Q 3641 2881 3436 2590 
Q 3231 2300 2841 2188 
z
M 1259 4147 
L 1259 2491 
L 2053 2491 
Q 2509 2491 2742 2702 
Q 2975 2913 2975 3322 
Q 2975 3731 2742 3939 
Q 2509 4147 2053 4147 
L 1259 4147 
z
" transform="scale(0.015625)"/>
       <path id="DejaVuSans-76" d="M 191 3500 
L 800 3500 
L 1894 563 
L 2988 3500 
L 3597 3500 
L 2284 0 
L 1503 0 
L 191 3500 
z
" transform="scale(0.015625)"/>
      </defs>
      <use xlink:href="#DejaVuSans-52"/>
      <use xlink:href="#DejaVuSans-65" x="64.982422"/>
      <use xlink:href="#DejaVuSans-76" x="126.505859"/>
      <use xlink:href="#DejaVuSans-65" x="185.685547"/>
      <use xlink:href="#DejaVuSans-72" x="247.208984"/>
      <use xlink:href="#DejaVuSans-73" x="288.322266"/>
      <use xlink:href="#DejaVuSans-65" x="340.421875"/>
      <use xlink:href="#DejaVuSans-20" x="401.945312"/>
      <use xlink:href="#DejaVuSans-4b" x="433.732422"/>
      <use xlink:href="#DejaVuSans-4c" x="499.308594"/>
     </g>
    </g>
   </g>
  </g>
 </g>
 <defs>
  <clipPath id="p3bef4341bb">
   <rect x="67.8" y="10.8" width="353.4" height="229.9"/>
  </clipPath>
 </defs>
</svg>
