<?xml version="1.0" encoding="utf-8" standalone="no"?>
<!DOCTYPE svg PUBLIC "-//W3C//DTD SVG 1.1//EN"
  "http://www.w3.org/Graphics/SVG/1.1/DTD/svg11.dtd">
<svg xmlns:xlink="http://www.w3.org/1999/xlink" width="432pt" height="288pt" viewBox="0 0 432 288" xmlns="http://www.w3.org/2000/svg" version="1.1">
 <metadata>
  <rdf:RDF xmlns:dc="http://purl.org/dc/elements/1.1/" xmlns:cc="http://creativecommons.org/ns#" xmlns:rdf="http://www.w3.org/1999/02/22-rdf-syntax-ns#">
   <cc:Work>
    <dc:type rdf:resource="http://purl.org/dc/dcmitype/StillImage"/>
    <dc:date>2022-06-23T04:33:30.449072</dc:date>
    <dc:format>image/svg+xml</dc:format>
    <dc:creator>
     <cc:Agent>
      <dc:title>Matplotlib v3.5.2, https://matplotlib.org/</dc:title>
     </cc:Agent>
    </dc:creator>
   </cc:Work>
  </rdf:RDF>
 </metadata>
 <defs>
  <style type="text/css">*{stroke-linejoin: round; stroke-linecap: butt}</style>
 </defs>
 <g id="figure_1">
  <g id="patch_1">
   <path d="M 0 288 
L 432 288 
L 432 0 
L 0 0 
z
" style="fill: #ffffff"/>
  </g>
  <g id="axes_1">
   <g id="patch_2">
    <path d="M 51.3 237.6 
L 421.2 237.6 
L 421.2 10.8 
L 51.3 10.8 
z
" style="fill: #eaeaf2"/>
   </g>
   <g id="matplotlib.axis_1">
    <g id="xtick_1">
     <g id="line2d_1">
      <path d="M 68.113636 237.6 
L 68.113636 10.8 
" clip-path="url(#p542917b3c2)" style="fill: none; stroke: #ffffff; stroke-linecap: round"/>
     </g>
     <g id="text_1">
      <!-- −1.5 -->
      <g style="fill: #262626" transform="translate(54.758089 255.458281)scale(0.11 -0.11)">
       <defs>
        <path id="DejaVuSans-2212" d="M 678 2272 
L 4684 2272 
L 4684 1741 
L 678 1741 
L 678 2272 
z
" transform="scale(0.015625)"/>
        <path id="DejaVuSans-31" d="M 794 531 
L 1825 531 
L 1825 4091 
L 703 3866 
L 703 4441 
L 1819 4666 
L 2450 4666 
L 2450 531 
L 3481 531 
L 3481 0 
L 794 0 
L 794 531 
z
" transform="scale(0.015625)"/>
        <path id="DejaVuSans-2e" d="M 684 794 
L 1344 794 
L 1344 0 
L 684 0 
L 684 794 
z
" transform="scale(0.015625)"/>
        <path id="DejaVuSans-35" d="M 691 4666 
L 3169 4666 
L 3169 4134 
L 1269 4134 
L 1269 2991 
Q 1406 3038 1543 3061 
Q 1681 3084 1819 3084 
Q 2600 3084 3056 2656 
Q 3513 2228 3513 1497 
Q 3513 744 3044 326 
Q 2575 -91 1722 -91 
Q 1428 -91 1123 -41 
Q 819 9 494 109 
L 494 744 
Q 775 591 1075 516 
Q 1375 441 1709 441 
Q 2250 441 2565 725 
Q 2881 1009 2881 1497 
Q 2881 1984 2565 2268 
Q 2250 2553 1709 2553 
Q 1456 2553 1204 2497 
Q 953 2441 691 2322 
L 691 4666 
z
" transform="scale(0.015625)"/>
       </defs>
       <use xlink:href="#DejaVuSans-2212"/>
       <use xlink:href="#DejaVuSans-31" x="83.789062"/>
       <use xlink:href="#DejaVuSans-2e" x="147.412109"/>
       <use xlink:href="#DejaVuSans-35" x="179.199219"/>
      </g>
     </g>
    </g>
    <g id="xtick_2">
     <g id="line2d_2">
      <path d="M 124.159091 237.6 
L 124.159091 10.8 
" clip-path="url(#p542917b3c2)" style="fill: none; stroke: #ffffff; stroke-linecap: round"/>
     </g>
     <g id="text_2">
      <!-- −1.0 -->
      <g style="fill: #262626" transform="translate(110.803544 255.458281)scale(0.11 -0.11)">
       <defs>
        <path id="DejaVuSans-30" d="M 2034 4250 
Q 1547 4250 1301 3770 
Q 1056 3291 1056 2328 
Q 1056 1369 1301 889 
Q 1547 409 2034 409 
Q 2525 409 2770 889 
Q 3016 1369 3016 2328 
Q 3016 3291 2770 3770 
Q 2525 4250 2034 4250 
z
M 2034 4750 
Q 2819 4750 3233 4129 
Q 3647 3509 3647 2328 
Q 3647 1150 3233 529 
Q 2819 -91 2034 -91 
Q 1250 -91 836 529 
Q 422 1150 422 2328 
Q 422 3509 836 4129 
Q 1250 4750 2034 4750 
z
" transform="scale(0.015625)"/>
       </defs>
       <use xlink:href="#DejaVuSans-2212"/>
       <use xlink:href="#DejaVuSans-31" x="83.789062"/>
       <use xlink:href="#DejaVuSans-2e" x="147.412109"/>
       <use xlink:href="#DejaVuSans-30" x="179.199219"/>
      </g>
     </g>
    </g>
    <g id="xtick_3">
     <g id="line2d_3">
      <path d="M 180.204545 237.6 
L 180.204545 10.8 
" clip-path="url(#p542917b3c2)" style="fill: none; stroke: #ffffff; stroke-linecap: round"/>
     </g>
     <g id="text_3">
      <!-- −0.5 -->
      <g style="fill: #262626" transform="translate(166.848999 255.458281)scale(0.11 -0.11)">
       <use xlink:href="#DejaVuSans-2212"/>
       <use xlink:href="#DejaVuSans-30" x="83.789062"/>
       <use xlink:href="#DejaVuSans-2e" x="147.412109"/>
       <use xlink:href="#DejaVuSans-35" x="179.199219"/>
      </g>
     </g>
    </g>
    <g id="xtick_4">
     <g id="line2d_4">
      <path d="M 236.25 237.6 
L 236.25 10.8 
" clip-path="url(#p542917b3c2)" style="fill: none; stroke: #ffffff; stroke-linecap: round"/>
     </g>
     <g id="text_4">
      <!-- 0.0 -->
      <g style="fill: #262626" transform="translate(227.503281 255.458281)scale(0.11 -0.11)">
       <use xlink:href="#DejaVuSans-30"/>
       <use xlink:href="#DejaVuSans-2e" x="63.623047"/>
       <use xlink:href="#DejaVuSans-30" x="95.410156"/>
      </g>
     </g>
    </g>
    <g id="xtick_5">
     <g id="line2d_5">
      <path d="M 292.295455 237.6 
L 292.295455 10.8 
" clip-path="url(#p542917b3c2)" style="fill: none; stroke: #ffffff; stroke-linecap: round"/>
     </g>
     <g id="text_5">
      <!-- 0.5 -->
      <g style="fill: #262626" transform="translate(283.548736 255.458281)scale(0.11 -0.11)">
       <use xlink:href="#DejaVuSans-30"/>
       <use xlink:href="#DejaVuSans-2e" x="63.623047"/>
       <use xlink:href="#DejaVuSans-35" x="95.410156"/>
      </g>
     </g>
    </g>
    <g id="xtick_6">
     <g id="line2d_6">
      <path d="M 348.340909 237.6 
L 348.340909 10.8 
" clip-path="url(#p542917b3c2)" style="fill: none; stroke: #ffffff; stroke-linecap: round"/>
     </g>
     <g id="text_6">
      <!-- 1.0 -->
      <g style="fill: #262626" transform="translate(339.59419 255.458281)scale(0.11 -0.11)">
       <use xlink:href="#DejaVuSans-31"/>
       <use xlink:href="#DejaVuSans-2e" x="63.623047"/>
       <use xlink:href="#DejaVuSans-30" x="95.410156"/>
      </g>
     </g>
    </g>
    <g id="xtick_7">
     <g id="line2d_7">
      <path d="M 404.386364 237.6 
L 404.386364 10.8 
" clip-path="url(#p542917b3c2)" style="fill: none; stroke: #ffffff; stroke-linecap: round"/>
     </g>
     <g id="text_7">
      <!-- 1.5 -->
      <g style="fill: #262626" transform="translate(395.639645 255.458281)scale(0.11 -0.11)">
       <use xlink:href="#DejaVuSans-31"/>
       <use xlink:href="#DejaVuSans-2e" x="63.623047"/>
       <use xlink:href="#DejaVuSans-35" x="95.410156"/>
      </g>
     </g>
    </g>
    <g id="text_8">
     <!-- Normalised Stiffness $C_1$ -->
     <g style="fill: #262626" transform="translate(165.45 270.864062)scale(0.12 -0.12)">
      <defs>
       <path id="DejaVuSans-4e" d="M 628 4666 
L 1478 4666 
L 3547 763 
L 3547 4666 
L 4159 4666 
L 4159 0 
L 3309 0 
L 1241 3903 
L 1241 0 
L 628 0 
L 628 4666 
z
" transform="scale(0.015625)"/>
       <path id="DejaVuSans-6f" d="M 1959 3097 
Q 1497 3097 1228 2736 
Q 959 2375 959 1747 
Q 959 1119 1226 758 
Q 1494 397 1959 397 
Q 2419 397 2687 759 
Q 2956 1122 2956 1747 
Q 2956 2369 2687 2733 
Q 2419 3097 1959 3097 
z
M 1959 3584 
Q 2709 3584 3137 3096 
Q 3566 2609 3566 1747 
Q 3566 888 3137 398 
Q 2709 -91 1959 -91 
Q 1206 -91 779 398 
Q 353 888 353 1747 
Q 353 2609 779 3096 
Q 1206 3584 1959 3584 
z
" transform="scale(0.015625)"/>
       <path id="DejaVuSans-72" d="M 2631 2963 
Q 2534 3019 2420 3045 
Q 2306 3072 2169 3072 
Q 1681 3072 1420 2755 
Q 1159 2438 1159 1844 
L 1159 0 
L 581 0 
L 581 3500 
L 1159 3500 
L 1159 2956 
Q 1341 3275 1631 3429 
Q 1922 3584 2338 3584 
Q 2397 3584 2469 3576 
Q 2541 3569 2628 3553 
L 2631 2963 
z
" transform="scale(0.015625)"/>
       <path id="DejaVuSans-6d" d="M 3328 2828 
Q 3544 3216 3844 3400 
Q 4144 3584 4550 3584 
Q 5097 3584 5394 3201 
Q 5691 2819 5691 2113 
L 5691 0 
L 5113 0 
L 5113 2094 
Q 5113 2597 4934 2840 
Q 4756 3084 4391 3084 
Q 3944 3084 3684 2787 
Q 3425 2491 3425 1978 
L 3425 0 
L 2847 0 
L 2847 2094 
Q 2847 2600 2669 2842 
Q 2491 3084 2119 3084 
Q 1678 3084 1418 2786 
Q 1159 2488 1159 1978 
L 1159 0 
L 581 0 
L 581 3500 
L 1159 3500 
L 1159 2956 
Q 1356 3278 1631 3431 
Q 1906 3584 2284 3584 
Q 2666 3584 2933 3390 
Q 3200 3197 3328 2828 
z
" transform="scale(0.015625)"/>
       <path id="DejaVuSans-61" d="M 2194 1759 
Q 1497 1759 1228 1600 
Q 959 1441 959 1056 
Q 959 750 1161 570 
Q 1363 391 1709 391 
Q 2188 391 2477 730 
Q 2766 1069 2766 1631 
L 2766 1759 
L 2194 1759 
z
M 3341 1997 
L 3341 0 
L 2766 0 
L 2766 531 
Q 2569 213 2275 61 
Q 1981 -91 1556 -91 
Q 1019 -91 701 211 
Q 384 513 384 1019 
Q 384 1609 779 1909 
Q 1175 2209 1959 2209 
L 2766 2209 
L 2766 2266 
Q 2766 2663 2505 2880 
Q 2244 3097 1772 3097 
Q 1472 3097 1187 3025 
Q 903 2953 641 2809 
L 641 3341 
Q 956 3463 1253 3523 
Q 1550 3584 1831 3584 
Q 2591 3584 2966 3190 
Q 3341 2797 3341 1997 
z
" transform="scale(0.015625)"/>
       <path id="DejaVuSans-6c" d="M 603 4863 
L 1178 4863 
L 1178 0 
L 603 0 
L 603 4863 
z
" transform="scale(0.015625)"/>
       <path id="DejaVuSans-69" d="M 603 3500 
L 1178 3500 
L 1178 0 
L 603 0 
L 603 3500 
z
M 603 4863 
L 1178 4863 
L 1178 4134 
L 603 4134 
L 603 4863 
z
" transform="scale(0.015625)"/>
       <path id="DejaVuSans-73" d="M 2834 3397 
L 2834 2853 
Q 2591 2978 2328 3040 
Q 2066 3103 1784 3103 
Q 1356 3103 1142 2972 
Q 928 2841 928 2578 
Q 928 2378 1081 2264 
Q 1234 2150 1697 2047 
L 1894 2003 
Q 2506 1872 2764 1633 
Q 3022 1394 3022 966 
Q 3022 478 2636 193 
Q 2250 -91 1575 -91 
Q 1294 -91 989 -36 
Q 684 19 347 128 
L 347 722 
Q 666 556 975 473 
Q 1284 391 1588 391 
Q 1994 391 2212 530 
Q 2431 669 2431 922 
Q 2431 1156 2273 1281 
Q 2116 1406 1581 1522 
L 1381 1569 
Q 847 1681 609 1914 
Q 372 2147 372 2553 
Q 372 3047 722 3315 
Q 1072 3584 1716 3584 
Q 2034 3584 2315 3537 
Q 2597 3491 2834 3397 
z
" transform="scale(0.015625)"/>
       <path id="DejaVuSans-65" d="M 3597 1894 
L 3597 1613 
L 953 1613 
Q 991 1019 1311 708 
Q 1631 397 2203 397 
Q 2534 397 2845 478 
Q 3156 559 3463 722 
L 3463 178 
Q 3153 47 2828 -22 
Q 2503 -91 2169 -91 
Q 1331 -91 842 396 
Q 353 884 353 1716 
Q 353 2575 817 3079 
Q 1281 3584 2069 3584 
Q 2775 3584 3186 3129 
Q 3597 2675 3597 1894 
z
M 3022 2063 
Q 3016 2534 2758 2815 
Q 2500 3097 2075 3097 
Q 1594 3097 1305 2825 
Q 1016 2553 972 2059 
L 3022 2063 
z
" transform="scale(0.015625)"/>
       <path id="DejaVuSans-64" d="M 2906 2969 
L 2906 4863 
L 3481 4863 
L 3481 0 
L 2906 0 
L 2906 525 
Q 2725 213 2448 61 
Q 2172 -91 1784 -91 
Q 1150 -91 751 415 
Q 353 922 353 1747 
Q 353 2572 751 3078 
Q 1150 3584 1784 3584 
Q 2172 3584 2448 3432 
Q 2725 3281 2906 2969 
z
M 947 1747 
Q 947 1113 1208 752 
Q 1469 391 1925 391 
Q 2381 391 2643 752 
Q 2906 1113 2906 1747 
Q 2906 2381 2643 2742 
Q 2381 3103 1925 3103 
Q 1469 3103 1208 2742 
Q 947 2381 947 1747 
z
" transform="scale(0.015625)"/>
       <path id="DejaVuSans-20" transform="scale(0.015625)"/>
       <path id="DejaVuSans-53" d="M 3425 4513 
L 3425 3897 
Q 3066 4069 2747 4153 
Q 2428 4238 2131 4238 
Q 1616 4238 1336 4038 
Q 1056 3838 1056 3469 
Q 1056 3159 1242 3001 
Q 1428 2844 1947 2747 
L 2328 2669 
Q 3034 2534 3370 2195 
Q 3706 1856 3706 1288 
Q 3706 609 3251 259 
Q 2797 -91 1919 -91 
Q 1588 -91 1214 -16 
Q 841 59 441 206 
L 441 856 
Q 825 641 1194 531 
Q 1563 422 1919 422 
Q 2459 422 2753 634 
Q 3047 847 3047 1241 
Q 3047 1584 2836 1778 
Q 2625 1972 2144 2069 
L 1759 2144 
Q 1053 2284 737 2584 
Q 422 2884 422 3419 
Q 422 4038 858 4394 
Q 1294 4750 2059 4750 
Q 2388 4750 2728 4690 
Q 3069 4631 3425 4513 
z
" transform="scale(0.015625)"/>
       <path id="DejaVuSans-74" d="M 1172 4494 
L 1172 3500 
L 2356 3500 
L 2356 3053 
L 1172 3053 
L 1172 1153 
Q 1172 725 1289 603 
Q 1406 481 1766 481 
L 2356 481 
L 2356 0 
L 1766 0 
Q 1100 0 847 248 
Q 594 497 594 1153 
L 594 3053 
L 172 3053 
L 172 3500 
L 594 3500 
L 594 4494 
L 1172 4494 
z
" transform="scale(0.015625)"/>
       <path id="DejaVuSans-66" d="M 2375 4863 
L 2375 4384 
L 1825 4384 
Q 1516 4384 1395 4259 
Q 1275 4134 1275 3809 
L 1275 3500 
L 2222 3500 
L 2222 3053 
L 1275 3053 
L 1275 0 
L 697 0 
L 697 3053 
L 147 3053 
L 147 3500 
L 697 3500 
L 697 3744 
Q 697 4328 969 4595 
Q 1241 4863 1831 4863 
L 2375 4863 
z
" transform="scale(0.015625)"/>
       <path id="DejaVuSans-6e" d="M 3513 2113 
L 3513 0 
L 2938 0 
L 2938 2094 
Q 2938 2591 2744 2837 
Q 2550 3084 2163 3084 
Q 1697 3084 1428 2787 
Q 1159 2491 1159 1978 
L 1159 0 
L 581 0 
L 581 3500 
L 1159 3500 
L 1159 2956 
Q 1366 3272 1645 3428 
Q 1925 3584 2291 3584 
Q 2894 3584 3203 3211 
Q 3513 2838 3513 2113 
z
" transform="scale(0.015625)"/>
       <path id="DejaVuSans-Oblique-43" d="M 4447 4306 
L 4319 3641 
Q 4019 3944 3683 4091 
Q 3347 4238 2956 4238 
Q 2422 4238 2017 3981 
Q 1613 3725 1319 3200 
Q 1131 2863 1032 2486 
Q 934 2109 934 1728 
Q 934 1091 1264 756 
Q 1594 422 2222 422 
Q 2656 422 3056 561 
Q 3456 700 3834 978 
L 3688 231 
Q 3316 72 2936 -9 
Q 2556 -91 2175 -91 
Q 1278 -91 773 396 
Q 269 884 269 1753 
Q 269 2309 461 2846 
Q 653 3384 1013 3828 
Q 1394 4300 1883 4525 
Q 2372 4750 3022 4750 
Q 3422 4750 3780 4639 
Q 4138 4528 4447 4306 
z
" transform="scale(0.015625)"/>
      </defs>
      <use xlink:href="#DejaVuSans-4e" transform="translate(0 0.015625)"/>
      <use xlink:href="#DejaVuSans-6f" transform="translate(74.804688 0.015625)"/>
      <use xlink:href="#DejaVuSans-72" transform="translate(135.986328 0.015625)"/>
      <use xlink:href="#DejaVuSans-6d" transform="translate(177.099609 0.015625)"/>
      <use xlink:href="#DejaVuSans-61" transform="translate(274.511719 0.015625)"/>
      <use xlink:href="#DejaVuSans-6c" transform="translate(335.791016 0.015625)"/>
      <use xlink:href="#DejaVuSans-69" transform="translate(363.574219 0.015625)"/>
      <use xlink:href="#DejaVuSans-73" transform="translate(391.357422 0.015625)"/>
      <use xlink:href="#DejaVuSans-65" transform="translate(443.457031 0.015625)"/>
      <use xlink:href="#DejaVuSans-64" transform="translate(504.980469 0.015625)"/>
      <use xlink:href="#DejaVuSans-20" transform="translate(568.457031 0.015625)"/>
      <use xlink:href="#DejaVuSans-53" transform="translate(600.244141 0.015625)"/>
      <use xlink:href="#DejaVuSans-74" transform="translate(663.720703 0.015625)"/>
      <use xlink:href="#DejaVuSans-69" transform="translate(702.929688 0.015625)"/>
      <use xlink:href="#DejaVuSans-66" transform="translate(730.712891 0.015625)"/>
      <use xlink:href="#DejaVuSans-66" transform="translate(765.917969 0.015625)"/>
      <use xlink:href="#DejaVuSans-6e" transform="translate(801.123047 0.015625)"/>
      <use xlink:href="#DejaVuSans-65" transform="translate(864.501953 0.015625)"/>
      <use xlink:href="#DejaVuSans-73" transform="translate(926.025391 0.015625)"/>
      <use xlink:href="#DejaVuSans-73" transform="translate(978.125 0.015625)"/>
      <use xlink:href="#DejaVuSans-20" transform="translate(1030.224609 0.015625)"/>
      <use xlink:href="#DejaVuSans-Oblique-43" transform="translate(1062.011719 0.015625)"/>
      <use xlink:href="#DejaVuSans-31" transform="translate(1131.835938 -16.390625)scale(0.7)"/>
     </g>
    </g>
   </g>
   <g id="matplotlib.axis_2">
    <g id="ytick_1">
     <g id="line2d_8">
      <path d="M 51.3 227.290909 
L 421.2 227.290909 
" clip-path="url(#p542917b3c2)" style="fill: none; stroke: #ffffff; stroke-linecap: round"/>
     </g>
     <g id="text_9">
      <!-- 0 -->
      <g style="fill: #262626" transform="translate(34.80125 231.47005)scale(0.11 -0.11)">
       <use xlink:href="#DejaVuSans-30"/>
      </g>
     </g>
    </g>
    <g id="ytick_2">
     <g id="line2d_9">
      <path d="M 51.3 187.285439 
L 421.2 187.285439 
" clip-path="url(#p542917b3c2)" style="fill: none; stroke: #ffffff; stroke-linecap: round"/>
     </g>
     <g id="text_10">
      <!-- 5 -->
      <g style="fill: #262626" transform="translate(34.80125 191.464579)scale(0.11 -0.11)">
       <use xlink:href="#DejaVuSans-35"/>
      </g>
     </g>
    </g>
    <g id="ytick_3">
     <g id="line2d_10">
      <path d="M 51.3 147.279969 
L 421.2 147.279969 
" clip-path="url(#p542917b3c2)" style="fill: none; stroke: #ffffff; stroke-linecap: round"/>
     </g>
     <g id="text_11">
      <!-- 10 -->
      <g style="fill: #262626" transform="translate(27.8025 151.459109)scale(0.11 -0.11)">
       <use xlink:href="#DejaVuSans-31"/>
       <use xlink:href="#DejaVuSans-30" x="63.623047"/>
      </g>
     </g>
    </g>
    <g id="ytick_4">
     <g id="line2d_11">
      <path d="M 51.3 107.274498 
L 421.2 107.274498 
" clip-path="url(#p542917b3c2)" style="fill: none; stroke: #ffffff; stroke-linecap: round"/>
     </g>
     <g id="text_12">
      <!-- 15 -->
      <g style="fill: #262626" transform="translate(27.8025 111.453639)scale(0.11 -0.11)">
       <use xlink:href="#DejaVuSans-31"/>
       <use xlink:href="#DejaVuSans-35" x="63.623047"/>
      </g>
     </g>
    </g>
    <g id="ytick_5">
     <g id="line2d_12">
      <path d="M 51.3 67.269028 
L 421.2 67.269028 
" clip-path="url(#p542917b3c2)" style="fill: none; stroke: #ffffff; stroke-linecap: round"/>
     </g>
     <g id="text_13">
      <!-- 20 -->
      <g style="fill: #262626" transform="translate(27.8025 71.448169)scale(0.11 -0.11)">
       <defs>
        <path id="DejaVuSans-32" d="M 1228 531 
L 3431 531 
L 3431 0 
L 469 0 
L 469 531 
Q 828 903 1448 1529 
Q 2069 2156 2228 2338 
Q 2531 2678 2651 2914 
Q 2772 3150 2772 3378 
Q 2772 3750 2511 3984 
Q 2250 4219 1831 4219 
Q 1534 4219 1204 4116 
Q 875 4013 500 3803 
L 500 4441 
Q 881 4594 1212 4672 
Q 1544 4750 1819 4750 
Q 2544 4750 2975 4387 
Q 3406 4025 3406 3419 
Q 3406 3131 3298 2873 
Q 3191 2616 2906 2266 
Q 2828 2175 2409 1742 
Q 1991 1309 1228 531 
z
" transform="scale(0.015625)"/>
       </defs>
       <use xlink:href="#DejaVuSans-32"/>
       <use xlink:href="#DejaVuSans-30" x="63.623047"/>
      </g>
     </g>
    </g>
    <g id="ytick_6">
     <g id="line2d_13">
      <path d="M 51.3 27.263558 
L 421.2 27.263558 
" clip-path="url(#p542917b3c2)" style="fill: none; stroke: #ffffff; stroke-linecap: round"/>
     </g>
     <g id="text_14">
      <!-- 25 -->
      <g style="fill: #262626" transform="translate(27.8025 31.442699)scale(0.11 -0.11)">
       <use xlink:href="#DejaVuSans-32"/>
       <use xlink:href="#DejaVuSans-35" x="63.623047"/>
      </g>
     </g>
    </g>
    <g id="text_15">
     <!-- Probability Density -->
     <g style="fill: #262626" transform="translate(21.306875 180.631875)rotate(-90)scale(0.12 -0.12)">
      <defs>
       <path id="DejaVuSans-50" d="M 1259 4147 
L 1259 2394 
L 2053 2394 
Q 2494 2394 2734 2622 
Q 2975 2850 2975 3272 
Q 2975 3691 2734 3919 
Q 2494 4147 2053 4147 
L 1259 4147 
z
M 628 4666 
L 2053 4666 
Q 2838 4666 3239 4311 
Q 3641 3956 3641 3272 
Q 3641 2581 3239 2228 
Q 2838 1875 2053 1875 
L 1259 1875 
L 1259 0 
L 628 0 
L 628 4666 
z
" transform="scale(0.015625)"/>
       <path id="DejaVuSans-62" d="M 3116 1747 
Q 3116 2381 2855 2742 
Q 2594 3103 2138 3103 
Q 1681 3103 1420 2742 
Q 1159 2381 1159 1747 
Q 1159 1113 1420 752 
Q 1681 391 2138 391 
Q 2594 391 2855 752 
Q 3116 1113 3116 1747 
z
M 1159 2969 
Q 1341 3281 1617 3432 
Q 1894 3584 2278 3584 
Q 2916 3584 3314 3078 
Q 3713 2572 3713 1747 
Q 3713 922 3314 415 
Q 2916 -91 2278 -91 
Q 1894 -91 1617 61 
Q 1341 213 1159 525 
L 1159 0 
L 581 0 
L 581 4863 
L 1159 4863 
L 1159 2969 
z
" transform="scale(0.015625)"/>
       <path id="DejaVuSans-79" d="M 2059 -325 
Q 1816 -950 1584 -1140 
Q 1353 -1331 966 -1331 
L 506 -1331 
L 506 -850 
L 844 -850 
Q 1081 -850 1212 -737 
Q 1344 -625 1503 -206 
L 1606 56 
L 191 3500 
L 800 3500 
L 1894 763 
L 2988 3500 
L 3597 3500 
L 2059 -325 
z
" transform="scale(0.015625)"/>
       <path id="DejaVuSans-44" d="M 1259 4147 
L 1259 519 
L 2022 519 
Q 2988 519 3436 956 
Q 3884 1394 3884 2338 
Q 3884 3275 3436 3711 
Q 2988 4147 2022 4147 
L 1259 4147 
z
M 628 4666 
L 1925 4666 
Q 3281 4666 3915 4102 
Q 4550 3538 4550 2338 
Q 4550 1131 3912 565 
Q 3275 0 1925 0 
L 628 0 
L 628 4666 
z
" transform="scale(0.015625)"/>
      </defs>
      <use xlink:href="#DejaVuSans-50"/>
      <use xlink:href="#DejaVuSans-72" x="58.552734"/>
      <use xlink:href="#DejaVuSans-6f" x="97.416016"/>
      <use xlink:href="#DejaVuSans-62" x="158.597656"/>
      <use xlink:href="#DejaVuSans-61" x="222.074219"/>
      <use xlink:href="#DejaVuSans-62" x="283.353516"/>
      <use xlink:href="#DejaVuSans-69" x="346.830078"/>
      <use xlink:href="#DejaVuSans-6c" x="374.613281"/>
      <use xlink:href="#DejaVuSans-69" x="402.396484"/>
      <use xlink:href="#DejaVuSans-74" x="430.179688"/>
      <use xlink:href="#DejaVuSans-79" x="469.388672"/>
      <use xlink:href="#DejaVuSans-20" x="528.568359"/>
      <use xlink:href="#DejaVuSans-44" x="560.355469"/>
      <use xlink:href="#DejaVuSans-65" x="637.357422"/>
      <use xlink:href="#DejaVuSans-6e" x="698.880859"/>
      <use xlink:href="#DejaVuSans-73" x="762.259766"/>
      <use xlink:href="#DejaVuSans-69" x="814.359375"/>
      <use xlink:href="#DejaVuSans-74" x="842.142578"/>
      <use xlink:href="#DejaVuSans-79" x="881.351562"/>
     </g>
    </g>
   </g>
   <g id="PolyCollection_1">
    <defs>
     <path id="m1e8dcd29aa" d="M 68.113636 -60.709091 
L 68.113636 -60.709091 
L 68.450245 -60.709091 
L 68.786855 -60.709091 
L 69.123464 -60.709091 
L 69.460073 -60.709091 
L 69.796682 -60.709091 
L 70.133291 -60.709091 
L 70.4699 -60.709091 
L 70.806509 -60.709091 
L 71.143119 -60.709091 
L 71.479728 -60.709091 
L 71.816337 -60.709091 
L 72.152946 -60.709091 
L 72.489555 -60.709091 
L 72.826164 -60.709091 
L 73.162773 -60.709091 
L 73.499383 -60.709091 
L 73.835992 -60.709091 
L 74.172601 -60.709091 
L 74.50921 -60.709091 
L 74.845819 -60.709091 
L 75.182428 -60.709091 
L 75.519037 -60.709091 
L 75.855646 -60.709091 
L 76.192256 -60.709091 
L 76.528865 -60.709091 
L 76.865474 -60.709091 
L 77.202083 -60.709091 
L 77.538692 -60.709091 
L 77.875301 -60.709091 
L 78.21191 -60.709091 
L 78.54852 -60.709091 
L 78.885129 -60.709091 
L 79.221738 -60.709091 
L 79.558347 -60.709091 
L 79.894956 -60.709091 
L 80.231565 -60.709091 
L 80.568174 -60.709091 
L 80.904784 -60.709091 
L 81.241393 -60.709091 
L 81.578002 -60.709091 
L 81.914611 -60.709091 
L 82.25122 -60.709091 
L 82.587829 -60.709091 
L 82.924438 -60.709091 
L 83.261047 -60.709091 
L 83.597657 -60.709091 
L 83.934266 -60.709091 
L 84.270875 -60.709091 
L 84.607484 -60.709091 
L 84.944093 -60.709091 
L 85.280702 -60.709091 
L 85.617325 -60.709091 
L 85.953934 -60.709091 
L 86.290543 -60.709091 
L 86.627152 -60.709091 
L 86.963761 -60.709091 
L 87.30037 -60.709091 
L 87.63698 -60.709091 
L 87.973589 -60.709091 
L 88.310198 -60.709091 
L 88.646807 -60.709091 
L 88.983416 -60.709091 
L 89.320025 -60.709091 
L 89.656634 -60.709091 
L 89.993244 -60.709091 
L 90.329853 -60.709091 
L 90.666462 -60.709091 
L 91.003071 -60.709091 
L 91.33968 -60.709091 
L 91.676289 -60.709091 
L 92.012898 -60.709091 
L 92.349508 -60.709091 
L 92.686117 -60.709091 
L 93.022726 -60.709091 
L 93.359335 -60.709091 
L 93.695944 -60.709091 
L 94.032553 -60.709091 
L 94.369162 -60.709095 
L 94.705771 -60.709091 
L 95.042381 -60.709091 
L 95.37899 -60.709091 
L 95.715599 -60.709091 
L 96.052208 -60.709091 
L 96.388817 -60.709357 
L 96.725426 -60.70955 
L 97.062035 -60.709097 
L 97.398645 -60.742072 
L 97.735267 -60.709091 
L 98.071863 -60.709091 
L 98.408485 -60.709091 
L 98.745081 -61.577449 
L 99.081704 -60.709091 
L 99.418299 -60.709091 
L 99.754922 -60.74437 
L 100.091518 -60.709091 
L 100.42814 -60.709091 
L 100.764736 -69.618299 
L 101.101358 -60.709091 
L 101.437954 -60.709091 
L 101.774577 -60.709091 
L 102.111172 -60.709091 
L 102.447795 -171.16174 
L 102.784391 -60.709091 
L 103.121013 -189.243543 
L 103.457622 -60.709091 
L 103.794232 -103.926148 
L 104.130841 -60.709091 
L 104.46745 -130.109701 
L 104.804059 -214.044602 
L 105.140668 -60.709091 
L 105.477277 -60.709093 
L 105.813886 -60.709091 
L 106.150495 -60.709091 
L 106.487105 -266.890909 
L 106.823714 -60.709091 
L 107.160323 -60.709091 
L 107.496932 -264.896267 
L 107.833541 -60.709091 
L 108.17015 -60.709091 
L 108.506759 -60.709091 
L 108.843369 -60.709091 
L 109.179978 -60.824825 
L 109.516587 -60.709091 
L 109.853196 -60.709091 
L 110.189805 -60.709091 
L 110.526414 -60.709091 
L 110.863023 -60.709091 
L 111.199632 -60.709091 
L 111.536242 -60.709091 
L 111.872851 -60.709091 
L 112.20946 -60.709091 
L 112.546069 -60.709091 
L 112.882678 -60.709091 
L 113.219287 -61.528385 
L 113.555896 -61.774953 
L 113.892506 -60.709091 
L 114.229115 -60.709091 
L 114.565724 -60.709091 
L 114.902333 -60.711592 
L 115.238942 -60.709094 
L 115.575551 -60.709091 
L 115.91216 -60.709091 
L 116.24877 -60.709117 
L 116.585379 -60.709091 
L 116.921988 -60.709091 
L 117.258597 -60.709091 
L 117.595206 -60.709091 
L 117.931815 -60.709091 
L 118.268424 -60.709091 
L 118.605033 -60.709091 
L 118.941643 -60.709091 
L 119.278252 -60.709091 
L 119.614861 -60.709091 
L 119.951483 -60.709091 
L 120.288093 -60.709091 
L 120.624702 -60.709091 
L 120.961311 -60.709091 
L 121.29792 -60.709091 
L 121.634529 -64.955423 
L 121.971138 -60.709091 
L 122.307747 -60.709091 
L 122.644356 -60.709091 
L 122.980966 -60.709091 
L 123.317575 -60.709091 
L 123.654184 -60.709091 
L 123.990793 -60.709091 
L 124.327402 -60.709091 
L 124.664011 -60.709091 
L 125.00062 -60.709091 
L 125.33723 -60.709091 
L 125.673839 -60.709091 
L 126.010448 -60.709091 
L 126.347057 -60.709091 
L 126.683666 -60.709091 
L 127.020275 -60.709091 
L 127.356884 -60.709091 
L 127.693494 -60.709091 
L 128.030103 -60.709091 
L 128.366712 -60.709091 
L 128.703321 -60.709091 
L 129.03993 -60.709091 
L 129.376539 -60.709091 
L 129.713148 -60.709091 
L 130.049757 -60.709091 
L 130.386367 -60.709091 
L 130.722976 -60.709091 
L 131.059585 -60.709091 
L 131.396194 -60.709091 
L 131.732803 -60.709091 
L 132.069412 -60.709091 
L 132.406021 -60.709091 
L 132.742631 -60.709091 
L 133.07924 -60.709091 
L 133.415849 -60.709091 
L 133.752458 -60.709091 
L 134.089067 -60.709091 
L 134.425676 -60.709091 
L 134.762285 -60.709091 
L 135.098895 -60.709091 
L 135.435504 -60.709091 
L 135.772113 -60.709091 
L 136.108722 -60.709091 
L 136.445331 -60.709091 
L 136.78194 -60.709214 
L 137.118549 -60.709091 
L 137.455158 -60.709091 
L 137.791768 -60.709091 
L 138.128377 -60.709091 
L 138.464986 -60.709091 
L 138.801595 -60.709091 
L 139.138204 -60.709091 
L 139.474813 -60.709091 
L 139.811422 -67.44349 
L 140.148032 -62.392726 
L 140.484641 -60.709091 
L 140.82125 -60.709091 
L 141.157859 -60.709091 
L 141.494468 -60.709091 
L 141.831077 -60.709091 
L 142.167686 -60.709091 
L 142.504296 -60.709091 
L 142.840905 -60.709091 
L 143.177514 -60.709091 
L 143.514123 -60.709091 
L 143.850732 -60.709091 
L 144.187341 -60.709091 
L 144.52395 -60.709091 
L 144.860559 -61.021843 
L 145.197169 -60.709091 
L 145.533778 -60.709091 
L 145.870387 -60.709091 
L 146.206996 -60.709091 
L 146.543605 -60.709091 
L 146.880214 -60.709091 
L 147.216823 -60.709091 
L 147.553433 -60.709091 
L 147.890042 -60.709091 
L 148.226651 -60.709091 
L 148.56326 -60.709091 
L 148.899876 -60.709091 
L 149.236485 -60.709307 
L 149.573094 -60.709091 
L 149.909703 -60.839092 
L 150.246312 -60.709091 
L 150.582921 -60.709091 
L 150.919531 -60.709091 
L 151.25614 -60.709091 
L 151.592749 -60.709091 
L 151.929358 -60.709091 
L 152.265967 -60.709091 
L 152.602576 -60.709091 
L 152.939185 -60.709091 
L 153.275795 -60.709091 
L 153.612404 -60.709091 
L 153.949013 -63.333788 
L 154.285622 -60.709091 
L 154.622238 -60.709091 
L 154.958847 -60.709091 
L 155.295456 -60.709096 
L 155.632065 -60.709091 
L 155.968674 -60.709115 
L 156.305283 -60.709091 
L 156.641893 -60.709091 
L 156.978502 -60.709091 
L 157.315111 -60.732038 
L 157.65172 -60.709091 
L 157.988329 -62.582492 
L 158.324938 -60.709091 
L 158.661547 -60.709091 
L 158.998157 -60.709091 
L 159.334766 -60.709091 
L 159.671375 -60.709091 
L 160.007991 -60.709091 
L 160.3446 -60.709091 
L 160.681209 -60.709091 
L 161.017818 -60.709091 
L 161.354427 -60.709091 
L 161.691036 -60.709091 
L 162.027645 -60.709091 
L 162.364255 -60.709091 
L 162.700864 -60.709091 
L 163.037473 -119.397402 
L 163.374082 -60.709091 
L 163.710691 -60.709091 
L 164.0473 -60.710346 
L 164.383909 -60.709091 
L 164.720519 -60.709093 
L 165.057128 -60.709091 
L 165.393737 -60.709091 
L 165.730346 -60.709091 
L 166.066955 -60.709091 
L 166.403564 -60.709091 
L 166.740173 -60.709091 
L 167.076782 -60.709091 
L 167.413392 -60.709091 
L 167.750001 -60.709091 
L 168.08661 -60.709091 
L 168.423219 -60.709091 
L 168.759828 -60.709091 
L 169.096437 -60.709091 
L 169.433046 -60.709091 
L 169.769656 -60.709091 
L 170.106265 -60.709091 
L 170.442881 -60.709091 
L 170.77949 -60.709091 
L 171.116099 -60.709091 
L 171.452708 -60.709091 
L 171.789317 -60.709091 
L 172.125926 -60.709091 
L 172.462535 -60.709091 
L 172.799144 -60.709091 
L 173.135754 -60.709091 
L 173.472363 -60.709091 
L 173.808972 -60.709091 
L 174.145581 -60.709091 
L 174.48219 -60.709091 
L 174.818799 -60.709091 
L 175.155408 -60.709091 
L 175.492018 -60.709091 
L 175.828627 -60.709091 
L 176.165236 -60.709091 
L 176.501845 -60.709091 
L 176.838454 -60.709091 
L 177.175063 -60.709091 
L 177.511672 -60.709091 
L 177.848282 -60.709091 
L 178.184891 -60.709091 
L 178.5215 -60.709091 
L 178.858109 -60.709091 
L 179.194718 -60.709091 
L 179.531327 -60.709091 
L 179.867936 -60.709091 
L 180.204545 -60.709091 
L 180.541151 -60.709091 
L 180.87776 -60.709091 
L 181.21437 -60.709091 
L 181.550979 -60.709091 
L 181.887588 -60.709091 
L 182.224197 -60.709091 
L 182.560806 -60.709091 
L 182.897415 -60.709091 
L 183.234024 -60.709091 
L 183.570633 -60.709091 
L 183.907243 -60.709091 
L 184.243852 -60.709091 
L 184.580461 -60.709091 
L 184.91707 -60.709091 
L 185.253679 -60.709091 
L 185.590288 -60.709091 
L 185.926897 -60.709091 
L 186.263507 -60.709091 
L 186.600122 -60.709091 
L 186.936732 -60.709091 
L 187.273341 -60.709091 
L 187.60995 -60.709091 
L 187.946559 -60.709091 
L 188.283168 -60.709091 
L 188.619777 -60.709091 
L 188.956396 -60.709091 
L 189.293005 -60.709091 
L 189.629615 -60.709091 
L 189.966224 -60.709091 
L 190.302833 -60.709091 
L 190.639442 -60.709091 
L 190.976051 -60.709091 
L 191.31266 -60.709091 
L 191.649269 -60.709091 
L 191.985879 -60.709091 
L 192.322488 -60.709091 
L 192.659097 -60.709091 
L 192.995706 -60.709091 
L 193.332315 -60.709091 
L 193.668924 -60.709091 
L 194.005533 -60.709091 
L 194.342143 -60.709091 
L 194.678752 -60.709091 
L 195.015361 -60.709091 
L 195.35197 -60.709091 
L 195.688579 -60.709091 
L 196.025188 -60.709091 
L 196.361797 -60.709091 
L 196.698406 -60.709091 
L 197.035016 -60.709091 
L 197.371625 -60.709091 
L 197.708234 -60.709091 
L 198.044843 -60.709091 
L 198.381452 -60.709091 
L 198.718061 -60.709091 
L 199.05467 -60.709091 
L 199.39128 -60.709091 
L 199.727889 -60.709091 
L 200.064498 -60.709091 
L 200.401107 -60.709091 
L 200.737716 -60.709091 
L 201.074325 -60.709091 
L 201.410934 -60.709091 
L 201.747544 -60.709091 
L 202.084153 -60.709091 
L 202.420762 -60.709091 
L 202.757371 -60.709091 
L 203.09398 -60.709091 
L 203.430589 -60.709091 
L 203.767198 -60.709091 
L 204.103807 -60.709091 
L 204.440417 -60.709091 
L 204.777026 -60.709091 
L 205.113635 -60.709091 
L 205.450244 -60.709091 
L 205.786853 -60.709091 
L 206.123462 -60.709091 
L 206.460071 -60.709091 
L 206.796681 -60.709091 
L 207.13329 -60.709091 
L 207.469899 -60.709091 
L 207.806508 -60.709091 
L 208.143117 -60.709091 
L 208.479733 -60.709091 
L 208.816342 -60.709091 
L 209.152951 -60.709091 
L 209.48956 -60.709091 
L 209.826169 -60.709091 
L 210.162779 -60.709091 
L 210.499388 -60.709091 
L 210.835997 -60.709091 
L 211.172606 -60.709091 
L 211.509215 -60.709091 
L 211.845824 -60.709091 
L 212.182433 -60.709091 
L 212.519043 -60.709091 
L 212.855652 -60.709091 
L 213.192261 -60.709091 
L 213.52887 -60.709091 
L 213.865479 -60.709091 
L 214.202088 -60.709091 
L 214.538697 -60.709091 
L 214.875307 -60.709091 
L 215.211916 -60.709091 
L 215.548525 -60.709091 
L 215.885134 -60.709091 
L 216.221743 -60.709091 
L 216.558352 -60.709091 
L 216.894961 -60.709091 
L 217.23157 -60.709091 
L 217.56818 -60.709091 
L 217.904789 -60.709091 
L 218.241398 -60.709091 
L 218.578007 -60.709091 
L 218.914616 -60.709091 
L 219.251225 -60.709091 
L 219.587834 -60.709091 
L 219.924444 -60.709091 
L 220.261053 -60.709091 
L 220.597662 -60.709091 
L 220.934271 -60.709091 
L 221.27088 -60.709091 
L 221.607489 -60.709091 
L 221.944098 -60.709091 
L 222.280707 -60.709091 
L 222.617317 -60.709091 
L 222.953926 -60.709091 
L 223.290545 -60.709091 
L 223.627154 -60.709091 
L 223.963763 -60.709091 
L 224.300372 -60.709091 
L 224.636981 -60.709091 
L 224.973591 -60.709091 
L 225.3102 -60.709091 
L 225.646809 -60.709091 
L 225.983418 -60.709091 
L 226.320027 -60.709091 
L 226.656636 -60.709091 
L 226.993245 -60.709091 
L 227.329855 -60.709091 
L 227.666464 -60.709091 
L 228.003073 -60.709091 
L 228.339682 -60.709091 
L 228.676291 -60.709091 
L 229.0129 -60.709091 
L 229.349509 -60.709091 
L 229.686125 -60.709091 
L 230.022734 -60.709091 
L 230.359343 -60.709091 
L 230.695953 -60.709091 
L 231.032562 -60.709091 
L 231.369171 -60.709091 
L 231.70578 -60.709091 
L 232.042389 -60.709091 
L 232.378998 -60.709092 
L 232.715607 -60.709092 
L 233.052217 -60.709092 
L 233.388826 -60.709092 
L 233.725435 -60.709092 
L 234.062044 -60.709093 
L 234.398653 -60.709093 
L 234.735262 -60.709094 
L 235.071871 -60.709094 
L 235.408481 -60.709095 
L 235.74509 -60.709096 
L 236.081699 -60.709098 
L 236.418308 -60.709099 
L 236.754917 -60.709101 
L 237.091526 -60.709103 
L 237.428135 -60.709107 
L 237.764744 -60.70911 
L 238.101354 -60.709115 
L 238.437963 -60.709121 
L 238.774572 -60.709128 
L 239.111181 -60.709133 
L 239.44779 -60.709145 
L 239.784399 -60.709157 
L 240.121008 -60.709172 
L 240.457618 -60.709188 
L 240.794227 -60.709209 
L 241.130836 -60.709233 
L 241.467445 -60.70926 
L 241.804054 -60.709298 
L 242.140663 -60.709351 
L 242.477272 -60.709398 
L 242.813881 -60.709456 
L 243.150491 -60.70954 
L 243.4871 -60.709632 
L 243.823709 -60.709728 
L 244.160318 -60.70984 
L 244.496927 -60.709999 
L 244.833536 -60.710164 
L 245.170145 -60.710387 
L 245.506755 -60.710576 
L 245.843364 -60.710929 
L 246.179973 -60.71123 
L 246.516582 -60.711676 
L 246.853191 -60.712101 
L 247.1898 -60.712587 
L 247.526409 -60.713258 
L 247.863019 -60.713997 
L 248.199628 -60.714822 
L 248.536237 -60.715994 
L 248.872846 -60.717051 
L 249.20946 -60.71857 
L 249.546069 -60.720083 
L 249.882678 -60.72181 
L 250.219287 -60.724325 
L 250.555897 -60.726582 
L 250.892506 -60.728941 
L 251.229115 -60.73318 
L 251.565731 -60.736624 
L 251.90234 -60.741016 
L 252.238949 -60.745558 
L 252.575558 -60.750856 
L 252.912167 -60.757195 
L 253.248776 -60.76543 
L 253.585386 -60.772446 
L 253.921995 -60.783958 
L 254.258604 -60.793759 
L 254.595213 -60.806224 
L 254.931822 -60.818109 
L 255.268431 -60.836789 
L 255.60504 -60.852327 
L 255.941649 -60.872249 
L 256.278259 -60.891705 
L 256.614868 -60.919489 
L 256.951477 -60.94619 
L 257.288086 -60.972712 
L 257.624695 -61.005374 
L 257.961304 -61.050673 
L 258.297913 -61.091469 
L 258.634523 -61.136055 
L 258.971132 -61.197981 
L 259.307741 -61.239388 
L 259.64435 -61.310923 
L 259.980959 -61.391091 
L 260.317568 -61.474708 
L 260.654177 -61.536886 
L 260.990787 -61.643142 
L 261.327396 -61.744745 
L 261.664005 -61.861363 
L 262.000614 -61.97228 
L 262.337223 -62.117858 
L 262.673832 -62.263347 
L 263.010441 -62.403852 
L 263.34705 -62.598448 
L 263.68366 -62.756821 
L 264.020269 -62.956495 
L 264.356876 -63.165129 
L 264.693485 -63.449453 
L 265.030094 -63.69424 
L 265.366704 -63.939886 
L 265.703313 -64.219694 
L 266.039922 -64.517591 
L 266.376538 -64.870334 
L 266.713147 -65.259873 
L 267.049756 -65.575882 
L 267.386365 -66.027 
L 267.722974 -66.483693 
L 268.059583 -66.898233 
L 268.396193 -67.440065 
L 268.732802 -67.788132 
L 269.069411 -68.227694 
L 269.40602 -68.901409 
L 269.742629 -69.418391 
L 270.079238 -70.009269 
L 270.415847 -70.833507 
L 270.752456 -71.413099 
L 271.089066 -72.009955 
L 271.425675 -72.764642 
L 271.762284 -73.491469 
L 272.098893 -74.306265 
L 272.435502 -75.029604 
L 272.772118 -75.933672 
L 273.108727 -76.542378 
L 273.445336 -77.594584 
L 273.781945 -78.456881 
L 274.118555 -79.300695 
L 274.455164 -80.13134 
L 274.791773 -81.199628 
L 275.128382 -81.996389 
L 275.464991 -83.011562 
L 275.8016 -83.877409 
L 276.138209 -84.965051 
L 276.474818 -85.930843 
L 276.811428 -86.838421 
L 277.148037 -87.744907 
L 277.484646 -88.606483 
L 277.821255 -89.589905 
L 278.157864 -90.356804 
L 278.494473 -91.435353 
L 278.831082 -92.129306 
L 279.167692 -93.106061 
L 279.504301 -93.902804 
L 279.84091 -94.710261 
L 280.177519 -95.589364 
L 280.514128 -96.090233 
L 280.850737 -96.90677 
L 281.187346 -97.535457 
L 281.523956 -98.231029 
L 281.860565 -98.761234 
L 282.197174 -99.199244 
L 282.533783 -99.767666 
L 282.870392 -100.18734 
L 283.207001 -100.50712 
L 283.54361 -100.821818 
L 283.880226 -101.039412 
L 284.216835 -101.209716 
L 284.553444 -101.413692 
L 284.890054 -101.46553 
L 285.226663 -101.441818 
L 285.563272 -101.45442 
L 285.899881 -101.327518 
L 286.23649 -101.149256 
L 286.573099 -100.914616 
L 286.909708 -100.631477 
L 287.246318 -100.239078 
L 287.582927 -99.942845 
L 287.919536 -99.393664 
L 288.256145 -98.959042 
L 288.592754 -98.379479 
L 288.929363 -97.931443 
L 289.265972 -97.071363 
L 289.602581 -96.505837 
L 289.939191 -95.868684 
L 290.2758 -94.879974 
L 290.612409 -94.36572 
L 290.949018 -93.400966 
L 291.285627 -92.577363 
L 291.622236 -91.716049 
L 291.958845 -90.791882 
L 292.295455 -89.914432 
L 292.63207 -88.996578 
L 292.968673 -87.9738 
L 293.305289 -87.064683 
L 293.641891 -86.219976 
L 293.978507 -85.199851 
L 294.315109 -84.192622 
L 294.651725 -83.364716 
L 294.988328 -82.250117 
L 295.324943 -81.385813 
L 295.661546 -80.611186 
L 295.998162 -79.740078 
L 296.334764 -78.803127 
L 296.67138 -77.887816 
L 297.007982 -76.95485 
L 297.344598 -76.322781 
L 297.681201 -75.434173 
L 298.017817 -74.479487 
L 298.354419 -73.713747 
L 298.691035 -73.197661 
L 299.027637 -72.409133 
L 299.364253 -71.645423 
L 299.700856 -70.942046 
L 300.037471 -70.309756 
L 300.374074 -69.753717 
L 300.71069 -69.156355 
L 301.047292 -68.612193 
L 301.383915 -67.963177 
L 301.72051 -67.48271 
L 302.057133 -67.085291 
L 302.393729 -66.625924 
L 302.730351 -66.2685 
L 303.066947 -65.816213 
L 303.403569 -65.317375 
L 303.740165 -65.028957 
L 304.076788 -64.661908 
L 304.413383 -64.330266 
L 304.750006 -64.039027 
L 305.086615 -63.748269 
L 305.423224 -63.515182 
L 305.759833 -63.262191 
L 306.096442 -63.105396 
L 306.433052 -62.825851 
L 306.769661 -62.658921 
L 307.10627 -62.528409 
L 307.442879 -62.335987 
L 307.779488 -62.170278 
L 308.116097 -62.04553 
L 308.452706 -61.904958 
L 308.789316 -61.801363 
L 309.125925 -61.668185 
L 309.462534 -61.58606 
L 309.799143 -61.493925 
L 310.135752 -61.426227 
L 310.472361 -61.337707 
L 310.80897 -61.259787 
L 311.14558 -61.20391 
L 311.482189 -61.160164 
L 311.818798 -61.110258 
L 312.155407 -61.06781 
L 312.492016 -61.030285 
L 312.828625 -60.992025 
L 313.165234 -60.953176 
L 313.501843 -60.92806 
L 313.838453 -60.902859 
L 314.175062 -60.882117 
L 314.511671 -60.862725 
L 314.84828 -60.844158 
L 315.184889 -60.825483 
L 315.521498 -60.812891 
L 315.858107 -60.797676 
L 316.194717 -60.787713 
L 316.531326 -60.777339 
L 316.867935 -60.768057 
L 317.204544 -60.759455 
L 317.541153 -60.752711 
L 317.877762 -60.74828 
L 318.214371 -60.742414 
L 318.550987 -60.738607 
L 318.88759 -60.734233 
L 319.224205 -60.731117 
L 319.560808 -60.727608 
L 319.897424 -60.725407 
L 320.234026 -60.722655 
L 320.570642 -60.720689 
L 320.907244 -60.718976 
L 321.24386 -60.717487 
L 321.580463 -60.716373 
L 321.917079 -60.715438 
L 322.253681 -60.714379 
L 322.590297 -60.71361 
L 322.926899 -60.713027 
L 323.263515 -60.712227 
L 323.600118 -60.711885 
L 323.936733 -60.711403 
L 324.273336 -60.711086 
L 324.609952 -60.710715 
L 324.946554 -60.710516 
L 325.28317 -60.710261 
L 325.619772 -60.710055 
L 325.956388 -60.709911 
L 326.292991 -60.709752 
L 326.629606 -60.709677 
L 326.966222 -60.709548 
L 327.302825 -60.70948 
L 327.639441 -60.709417 
L 327.976043 -60.709362 
L 328.312659 -60.709321 
L 328.649261 -60.70928 
L 328.985877 -60.709245 
L 329.32248 -60.709221 
L 329.659095 -60.709199 
L 329.995698 -60.709178 
L 330.332314 -60.709163 
L 330.668916 -60.709147 
L 331.005539 -60.709139 
L 331.342141 -60.709132 
L 331.678757 -60.709124 
L 332.015359 -60.709117 
L 332.351975 -60.709112 
L 332.688578 -60.709108 
L 333.025193 -60.709104 
L 333.361796 -60.709102 
L 333.698412 -60.7091 
L 334.035014 -60.709098 
L 334.37163 -60.709097 
L 334.708232 -60.709096 
L 335.044848 -60.709095 
L 335.381451 -60.709094 
L 335.718066 -60.709093 
L 336.054669 -60.709093 
L 336.391285 -60.709093 
L 336.727887 -60.709092 
L 337.064503 -60.709092 
L 337.401105 -60.709092 
L 337.737721 -60.709092 
L 338.074324 -60.709091 
L 338.41094 -60.709091 
L 338.747542 -60.709091 
L 339.084158 -60.709091 
L 339.42076 -60.709091 
L 339.757376 -60.709091 
L 340.093979 -60.709091 
L 340.430594 -60.709091 
L 340.767197 -60.709091 
L 341.103813 -60.709091 
L 341.440415 -60.709091 
L 341.777031 -60.709091 
L 342.113633 -60.709091 
L 342.450249 -60.709091 
L 342.786852 -60.709091 
L 343.123467 -60.709091 
L 343.46007 -60.709091 
L 343.796686 -60.709091 
L 344.133288 -60.709091 
L 344.469904 -60.709091 
L 344.806506 -60.709091 
L 345.143122 -60.709091 
L 345.479725 -60.709091 
L 345.816341 -60.709091 
L 346.152943 -60.709091 
L 346.489559 -60.709091 
L 346.826161 -60.709091 
L 347.162777 -60.709091 
L 347.49938 -60.709091 
L 347.835995 -60.709091 
L 348.172598 -60.709091 
L 348.50922 -60.709091 
L 348.845829 -60.709091 
L 349.182439 -60.709091 
L 349.519048 -60.709091 
L 349.855657 -60.709091 
L 350.192266 -60.709091 
L 350.528875 -60.709091 
L 350.865484 -60.709091 
L 351.202093 -60.709091 
L 351.538703 -60.709091 
L 351.875312 -60.709091 
L 352.211921 -60.709091 
L 352.54853 -60.709091 
L 352.885139 -60.709091 
L 353.221748 -60.709091 
L 353.558357 -60.709091 
L 353.894967 -60.709091 
L 354.231576 -60.709091 
L 354.568185 -60.709091 
L 354.904794 -60.709091 
L 355.241403 -60.709091 
L 355.578012 -60.709091 
L 355.914621 -60.709091 
L 356.25123 -60.709091 
L 356.58784 -60.709091 
L 356.924449 -60.709091 
L 357.261058 -60.709091 
L 357.597667 -60.709091 
L 357.934276 -60.709091 
L 358.270885 -60.709091 
L 358.607494 -60.709091 
L 358.944104 -60.709091 
L 359.280713 -60.709091 
L 359.617322 -60.709091 
L 359.953931 -60.709091 
L 360.29054 -60.709091 
L 360.627149 -60.709091 
L 360.963758 -60.709091 
L 361.300368 -60.709091 
L 361.636977 -60.709091 
L 361.973586 -60.709091 
L 362.310195 -60.709091 
L 362.646804 -60.709091 
L 362.983413 -60.709091 
L 363.320022 -60.709091 
L 363.656631 -60.709091 
L 363.993241 -60.709091 
L 364.32985 -60.709091 
L 364.666459 -60.709091 
L 365.003068 -60.709091 
L 365.339677 -60.709091 
L 365.676286 -60.709091 
L 366.012895 -60.709091 
L 366.349505 -60.709091 
L 366.686114 -60.709091 
L 367.022723 -60.709091 
L 367.359332 -60.709091 
L 367.695954 -60.709091 
L 368.03255 -60.709091 
L 368.369173 -60.709091 
L 368.705768 -60.709091 
L 369.042391 -60.709091 
L 369.378987 -60.709091 
L 369.715609 -60.709091 
L 370.052218 -60.709091 
L 370.388828 -60.709091 
L 370.725437 -60.709091 
L 371.062046 -60.709091 
L 371.398655 -60.709091 
L 371.735264 -60.709091 
L 372.071873 -60.709091 
L 372.408482 -60.709091 
L 372.745091 -60.709091 
L 373.081701 -60.709091 
L 373.41831 -60.709091 
L 373.754919 -60.709091 
L 374.091528 -60.709091 
L 374.428137 -60.709091 
L 374.764746 -60.709091 
L 375.101355 -60.709091 
L 375.437965 -60.709091 
L 375.774574 -60.709091 
L 376.111183 -60.709091 
L 376.447792 -60.709091 
L 376.784401 -60.709091 
L 377.12101 -60.709091 
L 377.457619 -60.709091 
L 377.794229 -60.709091 
L 378.130838 -60.709091 
L 378.467447 -60.709091 
L 378.804056 -60.709091 
L 379.140665 -60.709091 
L 379.477274 -60.709091 
L 379.813883 -60.709091 
L 380.150492 -60.709091 
L 380.487102 -60.709091 
L 380.823711 -60.709091 
L 381.16032 -60.709091 
L 381.496929 -60.709091 
L 381.833538 -60.709091 
L 382.170147 -60.709091 
L 382.506756 -60.709091 
L 382.843366 -60.709091 
L 383.179975 -60.709091 
L 383.516584 -60.709091 
L 383.853193 -60.709091 
L 384.189802 -60.709091 
L 384.526411 -60.709091 
L 384.86302 -60.709091 
L 385.19963 -60.709091 
L 385.536239 -60.709091 
L 385.872848 -60.709091 
L 386.209457 -60.709091 
L 386.546066 -60.709091 
L 386.882675 -60.709091 
L 387.219284 -60.709091 
L 387.555893 -60.709091 
L 387.892503 -60.709091 
L 388.229112 -60.709091 
L 388.565721 -60.709091 
L 388.90233 -60.709091 
L 389.238939 -60.709091 
L 389.575548 -60.709091 
L 389.912157 -60.709091 
L 390.24878 -60.709091 
L 390.585376 -60.709091 
L 390.921998 -60.709091 
L 391.258607 -60.709091 
L 391.595216 -60.709091 
L 391.931826 -60.709091 
L 392.268435 -60.709091 
L 392.605044 -60.709091 
L 392.941653 -60.709091 
L 393.278262 -60.709091 
L 393.614871 -60.709091 
L 393.95148 -60.709091 
L 394.28809 -60.709091 
L 394.624699 -60.709091 
L 394.961308 -60.709091 
L 395.297917 -60.709091 
L 395.634526 -60.709091 
L 395.971135 -60.709091 
L 396.307744 -60.709091 
L 396.644354 -60.709091 
L 396.980963 -60.709091 
L 397.317572 -60.709091 
L 397.654181 -60.709091 
L 397.99079 -60.709091 
L 398.327399 -60.709091 
L 398.664008 -60.709091 
L 399.000617 -60.709091 
L 399.337227 -60.709091 
L 399.673836 -60.709091 
L 400.010445 -60.709091 
L 400.347054 -60.709091 
L 400.683663 -60.709091 
L 401.020272 -60.709091 
L 401.356881 -60.709091 
L 401.693491 -60.709091 
L 402.030113 -60.709091 
L 402.366709 -60.709091 
L 402.703305 -60.709091 
L 403.039927 -60.709091 
L 403.37655 -60.709091 
L 403.713145 -60.709091 
L 404.049741 -60.709091 
L 404.386364 -60.709091 
L 404.386364 -60.709091 
L 404.386364 -60.709091 
L 404.049741 -60.709091 
L 403.713145 -60.709091 
L 403.37655 -60.709091 
L 403.039927 -60.709091 
L 402.703305 -60.709091 
L 402.366709 -60.709091 
L 402.030113 -60.709091 
L 401.693491 -60.709091 
L 401.356881 -60.709091 
L 401.020272 -60.709091 
L 400.683663 -60.709091 
L 400.347054 -60.709091 
L 400.010445 -60.709091 
L 399.673836 -60.709091 
L 399.337227 -60.709091 
L 399.000617 -60.709091 
L 398.664008 -60.709091 
L 398.327399 -60.709091 
L 397.99079 -60.709091 
L 397.654181 -60.709091 
L 397.317572 -60.709091 
L 396.980963 -60.709091 
L 396.644354 -60.709091 
L 396.307744 -60.709091 
L 395.971135 -60.709091 
L 395.634526 -60.709091 
L 395.297917 -60.709091 
L 394.961308 -60.709091 
L 394.624699 -60.709091 
L 394.28809 -60.709091 
L 393.95148 -60.709091 
L 393.614871 -60.709091 
L 393.278262 -60.709091 
L 392.941653 -60.709091 
L 392.605044 -60.709091 
L 392.268435 -60.709091 
L 391.931826 -60.709091 
L 391.595216 -60.709091 
L 391.258607 -60.709091 
L 390.921998 -60.709091 
L 390.585376 -60.709091 
L 390.24878 -60.709091 
L 389.912157 -60.709091 
L 389.575548 -60.709091 
L 389.238939 -60.709091 
L 388.90233 -60.709091 
L 388.565721 -60.709091 
L 388.229112 -60.709091 
L 387.892503 -60.709091 
L 387.555893 -60.709091 
L 387.219284 -60.709091 
L 386.882675 -60.709091 
L 386.546066 -60.709091 
L 386.209457 -60.709091 
L 385.872848 -60.709091 
L 385.536239 -60.709091 
L 385.19963 -60.709091 
L 384.86302 -60.709091 
L 384.526411 -60.709091 
L 384.189802 -60.709091 
L 383.853193 -60.709091 
L 383.516584 -60.709091 
L 383.179975 -60.709091 
L 382.843366 -60.709091 
L 382.506756 -60.709091 
L 382.170147 -60.709091 
L 381.833538 -60.709091 
L 381.496929 -60.709091 
L 381.16032 -60.709091 
L 380.823711 -60.709091 
L 380.487102 -60.709091 
L 380.150492 -60.709091 
L 379.813883 -60.709091 
L 379.477274 -60.709091 
L 379.140665 -60.709091 
L 378.804056 -60.709091 
L 378.467447 -60.709091 
L 378.130838 -60.709091 
L 377.794229 -60.709091 
L 377.457619 -60.709091 
L 377.12101 -60.709091 
L 376.784401 -60.709091 
L 376.447792 -60.709091 
L 376.111183 -60.709091 
L 375.774574 -60.709091 
L 375.437965 -60.709091 
L 375.101355 -60.709091 
L 374.764746 -60.709091 
L 374.428137 -60.709091 
L 374.091528 -60.709091 
L 373.754919 -60.709091 
L 373.41831 -60.709091 
L 373.081701 -60.709091 
L 372.745091 -60.709091 
L 372.408482 -60.709091 
L 372.071873 -60.709091 
L 371.735264 -60.709091 
L 371.398655 -60.709091 
L 371.062046 -60.709091 
L 370.725437 -60.709091 
L 370.388828 -60.709091 
L 370.052218 -60.709091 
L 369.715609 -60.709091 
L 369.378987 -60.709091 
L 369.042391 -60.709091 
L 368.705768 -60.709091 
L 368.369173 -60.709091 
L 368.03255 -60.709091 
L 367.695954 -60.709091 
L 367.359332 -60.709091 
L 367.022723 -60.709091 
L 366.686114 -60.709091 
L 366.349505 -60.709091 
L 366.012895 -60.709091 
L 365.676286 -60.709091 
L 365.339677 -60.709091 
L 365.003068 -60.709091 
L 364.666459 -60.709091 
L 364.32985 -60.709091 
L 363.993241 -60.709091 
L 363.656631 -60.709091 
L 363.320022 -60.709091 
L 362.983413 -60.709091 
L 362.646804 -60.709091 
L 362.310195 -60.709091 
L 361.973586 -60.709091 
L 361.636977 -60.709091 
L 361.300368 -60.709091 
L 360.963758 -60.709091 
L 360.627149 -60.709091 
L 360.29054 -60.709091 
L 359.953931 -60.709091 
L 359.617322 -60.709091 
L 359.280713 -60.709091 
L 358.944104 -60.709091 
L 358.607494 -60.709091 
L 358.270885 -60.709091 
L 357.934276 -60.709091 
L 357.597667 -60.709091 
L 357.261058 -60.709091 
L 356.924449 -60.709091 
L 356.58784 -60.709091 
L 356.25123 -60.709091 
L 355.914621 -60.709091 
L 355.578012 -60.709091 
L 355.241403 -60.709091 
L 354.904794 -60.709091 
L 354.568185 -60.709091 
L 354.231576 -60.709091 
L 353.894967 -60.709091 
L 353.558357 -60.709091 
L 353.221748 -60.709091 
L 352.885139 -60.709091 
L 352.54853 -60.709091 
L 352.211921 -60.709091 
L 351.875312 -60.709091 
L 351.538703 -60.709091 
L 351.202093 -60.709091 
L 350.865484 -60.709091 
L 350.528875 -60.709091 
L 350.192266 -60.709091 
L 349.855657 -60.709091 
L 349.519048 -60.709091 
L 349.182439 -60.709091 
L 348.845829 -60.709091 
L 348.50922 -60.709091 
L 348.172598 -60.709091 
L 347.835995 -60.709091 
L 347.49938 -60.709091 
L 347.162777 -60.709091 
L 346.826161 -60.709091 
L 346.489559 -60.709091 
L 346.152943 -60.709091 
L 345.816341 -60.709091 
L 345.479725 -60.709091 
L 345.143122 -60.709091 
L 344.806506 -60.709091 
L 344.469904 -60.709091 
L 344.133288 -60.709091 
L 343.796686 -60.709091 
L 343.46007 -60.709091 
L 343.123467 -60.709091 
L 342.786852 -60.709091 
L 342.450249 -60.709091 
L 342.113633 -60.709091 
L 341.777031 -60.709091 
L 341.440415 -60.709091 
L 341.103813 -60.709091 
L 340.767197 -60.709091 
L 340.430594 -60.709091 
L 340.093979 -60.709091 
L 339.757376 -60.709091 
L 339.42076 -60.709091 
L 339.084158 -60.709091 
L 338.747542 -60.709091 
L 338.41094 -60.709091 
L 338.074324 -60.709091 
L 337.737721 -60.709091 
L 337.401105 -60.709091 
L 337.064503 -60.709091 
L 336.727887 -60.709091 
L 336.391285 -60.709091 
L 336.054669 -60.709091 
L 335.718066 -60.709091 
L 335.381451 -60.709091 
L 335.044848 -60.709091 
L 334.708232 -60.709091 
L 334.37163 -60.709091 
L 334.035014 -60.709091 
L 333.698412 -60.709091 
L 333.361796 -60.709091 
L 333.025193 -60.709091 
L 332.688578 -60.709091 
L 332.351975 -60.709091 
L 332.015359 -60.709091 
L 331.678757 -60.709091 
L 331.342141 -60.709091 
L 331.005539 -60.709091 
L 330.668916 -60.709091 
L 330.332314 -60.709091 
L 329.995698 -60.709091 
L 329.659095 -60.709091 
L 329.32248 -60.709091 
L 328.985877 -60.709091 
L 328.649261 -60.709091 
L 328.312659 -60.709091 
L 327.976043 -60.709091 
L 327.639441 -60.709091 
L 327.302825 -60.709091 
L 326.966222 -60.709091 
L 326.629606 -60.709091 
L 326.292991 -60.709091 
L 325.956388 -60.709091 
L 325.619772 -60.709091 
L 325.28317 -60.709091 
L 324.946554 -60.709091 
L 324.609952 -60.709091 
L 324.273336 -60.709091 
L 323.936733 -60.709091 
L 323.600118 -60.709091 
L 323.263515 -60.709091 
L 322.926899 -60.709091 
L 322.590297 -60.709091 
L 322.253681 -60.709091 
L 321.917079 -60.709091 
L 321.580463 -60.709091 
L 321.24386 -60.709091 
L 320.907244 -60.709091 
L 320.570642 -60.709091 
L 320.234026 -60.709091 
L 319.897424 -60.709091 
L 319.560808 -60.709091 
L 319.224205 -60.709091 
L 318.88759 -60.709091 
L 318.550987 -60.709091 
L 318.214371 -60.709091 
L 317.877762 -60.709091 
L 317.541153 -60.709091 
L 317.204544 -60.709091 
L 316.867935 -60.709091 
L 316.531326 -60.709091 
L 316.194717 -60.709091 
L 315.858107 -60.709091 
L 315.521498 -60.709091 
L 315.184889 -60.709091 
L 314.84828 -60.709091 
L 314.511671 -60.709091 
L 314.175062 -60.709091 
L 313.838453 -60.709091 
L 313.501843 -60.709091 
L 313.165234 -60.709091 
L 312.828625 -60.709091 
L 312.492016 -60.709091 
L 312.155407 -60.709091 
L 311.818798 -60.709091 
L 311.482189 -60.709091 
L 311.14558 -60.709091 
L 310.80897 -60.709091 
L 310.472361 -60.709091 
L 310.135752 -60.709091 
L 309.799143 -60.709091 
L 309.462534 -60.709091 
L 309.125925 -60.709091 
L 308.789316 -60.709091 
L 308.452706 -60.709091 
L 308.116097 -60.709091 
L 307.779488 -60.709091 
L 307.442879 -60.709091 
L 307.10627 -60.709091 
L 306.769661 -60.709091 
L 306.433052 -60.709091 
L 306.096442 -60.709091 
L 305.759833 -60.709091 
L 305.423224 -60.709091 
L 305.086615 -60.709091 
L 304.750006 -60.709091 
L 304.413383 -60.709091 
L 304.076788 -60.709091 
L 303.740165 -60.709091 
L 303.403569 -60.709091 
L 303.066947 -60.709091 
L 302.730351 -60.709091 
L 302.393729 -60.709091 
L 302.057133 -60.709091 
L 301.72051 -60.709091 
L 301.383915 -60.709091 
L 301.047292 -60.709091 
L 300.71069 -60.709091 
L 300.374074 -60.709091 
L 300.037471 -60.709091 
L 299.700856 -60.709091 
L 299.364253 -60.709091 
L 299.027637 -60.709091 
L 298.691035 -60.709091 
L 298.354419 -60.709091 
L 298.017817 -60.709091 
L 297.681201 -60.709091 
L 297.344598 -60.709091 
L 297.007982 -60.709091 
L 296.67138 -60.709091 
L 296.334764 -60.709091 
L 295.998162 -60.709091 
L 295.661546 -60.709091 
L 295.324943 -60.709091 
L 294.988328 -60.709091 
L 294.651725 -60.709091 
L 294.315109 -60.709091 
L 293.978507 -60.709091 
L 293.641891 -60.709091 
L 293.305289 -60.709091 
L 292.968673 -60.709091 
L 292.63207 -60.709091 
L 292.295455 -60.709091 
L 291.958845 -60.709091 
L 291.622236 -60.709091 
L 291.285627 -60.709091 
L 290.949018 -60.709091 
L 290.612409 -60.709091 
L 290.2758 -60.709091 
L 289.939191 -60.709091 
L 289.602581 -60.709091 
L 289.265972 -60.709091 
L 288.929363 -60.709091 
L 288.592754 -60.709091 
L 288.256145 -60.709091 
L 287.919536 -60.709091 
L 287.582927 -60.709091 
L 287.246318 -60.709091 
L 286.909708 -60.709091 
L 286.573099 -60.709091 
L 286.23649 -60.709091 
L 285.899881 -60.709091 
L 285.563272 -60.709091 
L 285.226663 -60.709091 
L 284.890054 -60.709091 
L 284.553444 -60.709091 
L 284.216835 -60.709091 
L 283.880226 -60.709091 
L 283.54361 -60.709091 
L 283.207001 -60.709091 
L 282.870392 -60.709091 
L 282.533783 -60.709091 
L 282.197174 -60.709091 
L 281.860565 -60.709091 
L 281.523956 -60.709091 
L 281.187346 -60.709091 
L 280.850737 -60.709091 
L 280.514128 -60.709091 
L 280.177519 -60.709091 
L 279.84091 -60.709091 
L 279.504301 -60.709091 
L 279.167692 -60.709091 
L 278.831082 -60.709091 
L 278.494473 -60.709091 
L 278.157864 -60.709091 
L 277.821255 -60.709091 
L 277.484646 -60.709091 
L 277.148037 -60.709091 
L 276.811428 -60.709091 
L 276.474818 -60.709091 
L 276.138209 -60.709091 
L 275.8016 -60.709091 
L 275.464991 -60.709091 
L 275.128382 -60.709091 
L 274.791773 -60.709091 
L 274.455164 -60.709091 
L 274.118555 -60.709091 
L 273.781945 -60.709091 
L 273.445336 -60.709091 
L 273.108727 -60.709091 
L 272.772118 -60.709091 
L 272.435502 -60.709091 
L 272.098893 -60.709091 
L 271.762284 -60.709091 
L 271.425675 -60.709091 
L 271.089066 -60.709091 
L 270.752456 -60.709091 
L 270.415847 -60.709091 
L 270.079238 -60.709091 
L 269.742629 -60.709091 
L 269.40602 -60.709091 
L 269.069411 -60.709091 
L 268.732802 -60.709091 
L 268.396193 -60.709091 
L 268.059583 -60.709091 
L 267.722974 -60.709091 
L 267.386365 -60.709091 
L 267.049756 -60.709091 
L 266.713147 -60.709091 
L 266.376538 -60.709091 
L 266.039922 -60.709091 
L 265.703313 -60.709091 
L 265.366704 -60.709091 
L 265.030094 -60.709091 
L 264.693485 -60.709091 
L 264.356876 -60.709091 
L 264.020269 -60.709091 
L 263.68366 -60.709091 
L 263.34705 -60.709091 
L 263.010441 -60.709091 
L 262.673832 -60.709091 
L 262.337223 -60.709091 
L 262.000614 -60.709091 
L 261.664005 -60.709091 
L 261.327396 -60.709091 
L 260.990787 -60.709091 
L 260.654177 -60.709091 
L 260.317568 -60.709091 
L 259.980959 -60.709091 
L 259.64435 -60.709091 
L 259.307741 -60.709091 
L 258.971132 -60.709091 
L 258.634523 -60.709091 
L 258.297913 -60.709091 
L 257.961304 -60.709091 
L 257.624695 -60.709091 
L 257.288086 -60.709091 
L 256.951477 -60.709091 
L 256.614868 -60.709091 
L 256.278259 -60.709091 
L 255.941649 -60.709091 
L 255.60504 -60.709091 
L 255.268431 -60.709091 
L 254.931822 -60.709091 
L 254.595213 -60.709091 
L 254.258604 -60.709091 
L 253.921995 -60.709091 
L 253.585386 -60.709091 
L 253.248776 -60.709091 
L 252.912167 -60.709091 
L 252.575558 -60.709091 
L 252.238949 -60.709091 
L 251.90234 -60.709091 
L 251.565731 -60.709091 
L 251.229115 -60.709091 
L 250.892506 -60.709091 
L 250.555897 -60.709091 
L 250.219287 -60.709091 
L 249.882678 -60.709091 
L 249.546069 -60.709091 
L 249.20946 -60.709091 
L 248.872846 -60.709091 
L 248.536237 -60.709091 
L 248.199628 -60.709091 
L 247.863019 -60.709091 
L 247.526409 -60.709091 
L 247.1898 -60.709091 
L 246.853191 -60.709091 
L 246.516582 -60.709091 
L 246.179973 -60.709091 
L 245.843364 -60.709091 
L 245.506755 -60.709091 
L 245.170145 -60.709091 
L 244.833536 -60.709091 
L 244.496927 -60.709091 
L 244.160318 -60.709091 
L 243.823709 -60.709091 
L 243.4871 -60.709091 
L 243.150491 -60.709091 
L 242.813881 -60.709091 
L 242.477272 -60.709091 
L 242.140663 -60.709091 
L 241.804054 -60.709091 
L 241.467445 -60.709091 
L 241.130836 -60.709091 
L 240.794227 -60.709091 
L 240.457618 -60.709091 
L 240.121008 -60.709091 
L 239.784399 -60.709091 
L 239.44779 -60.709091 
L 239.111181 -60.709091 
L 238.774572 -60.709091 
L 238.437963 -60.709091 
L 238.101354 -60.709091 
L 237.764744 -60.709091 
L 237.428135 -60.709091 
L 237.091526 -60.709091 
L 236.754917 -60.709091 
L 236.418308 -60.709091 
L 236.081699 -60.709091 
L 235.74509 -60.709091 
L 235.408481 -60.709091 
L 235.071871 -60.709091 
L 234.735262 -60.709091 
L 234.398653 -60.709091 
L 234.062044 -60.709091 
L 233.725435 -60.709091 
L 233.388826 -60.709091 
L 233.052217 -60.709091 
L 232.715607 -60.709091 
L 232.378998 -60.709091 
L 232.042389 -60.709091 
L 231.70578 -60.709091 
L 231.369171 -60.709091 
L 231.032562 -60.709091 
L 230.695953 -60.709091 
L 230.359343 -60.709091 
L 230.022734 -60.709091 
L 229.686125 -60.709091 
L 229.349509 -60.709091 
L 229.0129 -60.709091 
L 228.676291 -60.709091 
L 228.339682 -60.709091 
L 228.003073 -60.709091 
L 227.666464 -60.709091 
L 227.329855 -60.709091 
L 226.993245 -60.709091 
L 226.656636 -60.709091 
L 226.320027 -60.709091 
L 225.983418 -60.709091 
L 225.646809 -60.709091 
L 225.3102 -60.709091 
L 224.973591 -60.709091 
L 224.636981 -60.709091 
L 224.300372 -60.709091 
L 223.963763 -60.709091 
L 223.627154 -60.709091 
L 223.290545 -60.709091 
L 222.953926 -60.709091 
L 222.617317 -60.709091 
L 222.280707 -60.709091 
L 221.944098 -60.709091 
L 221.607489 -60.709091 
L 221.27088 -60.709091 
L 220.934271 -60.709091 
L 220.597662 -60.709091 
L 220.261053 -60.709091 
L 219.924444 -60.709091 
L 219.587834 -60.709091 
L 219.251225 -60.709091 
L 218.914616 -60.709091 
L 218.578007 -60.709091 
L 218.241398 -60.709091 
L 217.904789 -60.709091 
L 217.56818 -60.709091 
L 217.23157 -60.709091 
L 216.894961 -60.709091 
L 216.558352 -60.709091 
L 216.221743 -60.709091 
L 215.885134 -60.709091 
L 215.548525 -60.709091 
L 215.211916 -60.709091 
L 214.875307 -60.709091 
L 214.538697 -60.709091 
L 214.202088 -60.709091 
L 213.865479 -60.709091 
L 213.52887 -60.709091 
L 213.192261 -60.709091 
L 212.855652 -60.709091 
L 212.519043 -60.709091 
L 212.182433 -60.709091 
L 211.845824 -60.709091 
L 211.509215 -60.709091 
L 211.172606 -60.709091 
L 210.835997 -60.709091 
L 210.499388 -60.709091 
L 210.162779 -60.709091 
L 209.826169 -60.709091 
L 209.48956 -60.709091 
L 209.152951 -60.709091 
L 208.816342 -60.709091 
L 208.479733 -60.709091 
L 208.143117 -60.709091 
L 207.806508 -60.709091 
L 207.469899 -60.709091 
L 207.13329 -60.709091 
L 206.796681 -60.709091 
L 206.460071 -60.709091 
L 206.123462 -60.709091 
L 205.786853 -60.709091 
L 205.450244 -60.709091 
L 205.113635 -60.709091 
L 204.777026 -60.709091 
L 204.440417 -60.709091 
L 204.103807 -60.709091 
L 203.767198 -60.709091 
L 203.430589 -60.709091 
L 203.09398 -60.709091 
L 202.757371 -60.709091 
L 202.420762 -60.709091 
L 202.084153 -60.709091 
L 201.747544 -60.709091 
L 201.410934 -60.709091 
L 201.074325 -60.709091 
L 200.737716 -60.709091 
L 200.401107 -60.709091 
L 200.064498 -60.709091 
L 199.727889 -60.709091 
L 199.39128 -60.709091 
L 199.05467 -60.709091 
L 198.718061 -60.709091 
L 198.381452 -60.709091 
L 198.044843 -60.709091 
L 197.708234 -60.709091 
L 197.371625 -60.709091 
L 197.035016 -60.709091 
L 196.698406 -60.709091 
L 196.361797 -60.709091 
L 196.025188 -60.709091 
L 195.688579 -60.709091 
L 195.35197 -60.709091 
L 195.015361 -60.709091 
L 194.678752 -60.709091 
L 194.342143 -60.709091 
L 194.005533 -60.709091 
L 193.668924 -60.709091 
L 193.332315 -60.709091 
L 192.995706 -60.709091 
L 192.659097 -60.709091 
L 192.322488 -60.709091 
L 191.985879 -60.709091 
L 191.649269 -60.709091 
L 191.31266 -60.709091 
L 190.976051 -60.709091 
L 190.639442 -60.709091 
L 190.302833 -60.709091 
L 189.966224 -60.709091 
L 189.629615 -60.709091 
L 189.293005 -60.709091 
L 188.956396 -60.709091 
L 188.619777 -60.709091 
L 188.283168 -60.709091 
L 187.946559 -60.709091 
L 187.60995 -60.709091 
L 187.273341 -60.709091 
L 186.936732 -60.709091 
L 186.600122 -60.709091 
L 186.263507 -60.709091 
L 185.926897 -60.709091 
L 185.590288 -60.709091 
L 185.253679 -60.709091 
L 184.91707 -60.709091 
L 184.580461 -60.709091 
L 184.243852 -60.709091 
L 183.907243 -60.709091 
L 183.570633 -60.709091 
L 183.234024 -60.709091 
L 182.897415 -60.709091 
L 182.560806 -60.709091 
L 182.224197 -60.709091 
L 181.887588 -60.709091 
L 181.550979 -60.709091 
L 181.21437 -60.709091 
L 180.87776 -60.709091 
L 180.541151 -60.709091 
L 180.204545 -60.709091 
L 179.867936 -60.709091 
L 179.531327 -60.709091 
L 179.194718 -60.709091 
L 178.858109 -60.709091 
L 178.5215 -60.709091 
L 178.184891 -60.709091 
L 177.848282 -60.709091 
L 177.511672 -60.709091 
L 177.175063 -60.709091 
L 176.838454 -60.709091 
L 176.501845 -60.709091 
L 176.165236 -60.709091 
L 175.828627 -60.709091 
L 175.492018 -60.709091 
L 175.155408 -60.709091 
L 174.818799 -60.709091 
L 174.48219 -60.709091 
L 174.145581 -60.709091 
L 173.808972 -60.709091 
L 173.472363 -60.709091 
L 173.135754 -60.709091 
L 172.799144 -60.709091 
L 172.462535 -60.709091 
L 172.125926 -60.709091 
L 171.789317 -60.709091 
L 171.452708 -60.709091 
L 171.116099 -60.709091 
L 170.77949 -60.709091 
L 170.442881 -60.709091 
L 170.106265 -60.709091 
L 169.769656 -60.709091 
L 169.433046 -60.709091 
L 169.096437 -60.709091 
L 168.759828 -60.709091 
L 168.423219 -60.709091 
L 168.08661 -60.709091 
L 167.750001 -60.709091 
L 167.413392 -60.709091 
L 167.076782 -60.709091 
L 166.740173 -60.709091 
L 166.403564 -60.709091 
L 166.066955 -60.709091 
L 165.730346 -60.709091 
L 165.393737 -60.709091 
L 165.057128 -60.709091 
L 164.720519 -60.709091 
L 164.383909 -60.709091 
L 164.0473 -60.709091 
L 163.710691 -60.709091 
L 163.374082 -60.709091 
L 163.037473 -60.709091 
L 162.700864 -60.709091 
L 162.364255 -60.709091 
L 162.027645 -60.709091 
L 161.691036 -60.709091 
L 161.354427 -60.709091 
L 161.017818 -60.709091 
L 160.681209 -60.709091 
L 160.3446 -60.709091 
L 160.007991 -60.709091 
L 159.671375 -60.709091 
L 159.334766 -60.709091 
L 158.998157 -60.709091 
L 158.661547 -60.709091 
L 158.324938 -60.709091 
L 157.988329 -60.709091 
L 157.65172 -60.709091 
L 157.315111 -60.709091 
L 156.978502 -60.709091 
L 156.641893 -60.709091 
L 156.305283 -60.709091 
L 155.968674 -60.709091 
L 155.632065 -60.709091 
L 155.295456 -60.709091 
L 154.958847 -60.709091 
L 154.622238 -60.709091 
L 154.285622 -60.709091 
L 153.949013 -60.709091 
L 153.612404 -60.709091 
L 153.275795 -60.709091 
L 152.939185 -60.709091 
L 152.602576 -60.709091 
L 152.265967 -60.709091 
L 151.929358 -60.709091 
L 151.592749 -60.709091 
L 151.25614 -60.709091 
L 150.919531 -60.709091 
L 150.582921 -60.709091 
L 150.246312 -60.709091 
L 149.909703 -60.709091 
L 149.573094 -60.709091 
L 149.236485 -60.709091 
L 148.899876 -60.709091 
L 148.56326 -60.709091 
L 148.226651 -60.709091 
L 147.890042 -60.709091 
L 147.553433 -60.709091 
L 147.216823 -60.709091 
L 146.880214 -60.709091 
L 146.543605 -60.709091 
L 146.206996 -60.709091 
L 145.870387 -60.709091 
L 145.533778 -60.709091 
L 145.197169 -60.709091 
L 144.860559 -60.709091 
L 144.52395 -60.709091 
L 144.187341 -60.709091 
L 143.850732 -60.709091 
L 143.514123 -60.709091 
L 143.177514 -60.709091 
L 142.840905 -60.709091 
L 142.504296 -60.709091 
L 142.167686 -60.709091 
L 141.831077 -60.709091 
L 141.494468 -60.709091 
L 141.157859 -60.709091 
L 140.82125 -60.709091 
L 140.484641 -60.709091 
L 140.148032 -60.709091 
L 139.811422 -60.709091 
L 139.474813 -60.709091 
L 139.138204 -60.709091 
L 138.801595 -60.709091 
L 138.464986 -60.709091 
L 138.128377 -60.709091 
L 137.791768 -60.709091 
L 137.455158 -60.709091 
L 137.118549 -60.709091 
L 136.78194 -60.709091 
L 136.445331 -60.709091 
L 136.108722 -60.709091 
L 135.772113 -60.709091 
L 135.435504 -60.709091 
L 135.098895 -60.709091 
L 134.762285 -60.709091 
L 134.425676 -60.709091 
L 134.089067 -60.709091 
L 133.752458 -60.709091 
L 133.415849 -60.709091 
L 133.07924 -60.709091 
L 132.742631 -60.709091 
L 132.406021 -60.709091 
L 132.069412 -60.709091 
L 131.732803 -60.709091 
L 131.396194 -60.709091 
L 131.059585 -60.709091 
L 130.722976 -60.709091 
L 130.386367 -60.709091 
L 130.049757 -60.709091 
L 129.713148 -60.709091 
L 129.376539 -60.709091 
L 129.03993 -60.709091 
L 128.703321 -60.709091 
L 128.366712 -60.709091 
L 128.030103 -60.709091 
L 127.693494 -60.709091 
L 127.356884 -60.709091 
L 127.020275 -60.709091 
L 126.683666 -60.709091 
L 126.347057 -60.709091 
L 126.010448 -60.709091 
L 125.673839 -60.709091 
L 125.33723 -60.709091 
L 125.00062 -60.709091 
L 124.664011 -60.709091 
L 124.327402 -60.709091 
L 123.990793 -60.709091 
L 123.654184 -60.709091 
L 123.317575 -60.709091 
L 122.980966 -60.709091 
L 122.644356 -60.709091 
L 122.307747 -60.709091 
L 121.971138 -60.709091 
L 121.634529 -60.709091 
L 121.29792 -60.709091 
L 120.961311 -60.709091 
L 120.624702 -60.709091 
L 120.288093 -60.709091 
L 119.951483 -60.709091 
L 119.614861 -60.709091 
L 119.278252 -60.709091 
L 118.941643 -60.709091 
L 118.605033 -60.709091 
L 118.268424 -60.709091 
L 117.931815 -60.709091 
L 117.595206 -60.709091 
L 117.258597 -60.709091 
L 116.921988 -60.709091 
L 116.585379 -60.709091 
L 116.24877 -60.709091 
L 115.91216 -60.709091 
L 115.575551 -60.709091 
L 115.238942 -60.709091 
L 114.902333 -60.709091 
L 114.565724 -60.709091 
L 114.229115 -60.709091 
L 113.892506 -60.709091 
L 113.555896 -60.709091 
L 113.219287 -60.709091 
L 112.882678 -60.709091 
L 112.546069 -60.709091 
L 112.20946 -60.709091 
L 111.872851 -60.709091 
L 111.536242 -60.709091 
L 111.199632 -60.709091 
L 110.863023 -60.709091 
L 110.526414 -60.709091 
L 110.189805 -60.709091 
L 109.853196 -60.709091 
L 109.516587 -60.709091 
L 109.179978 -60.709091 
L 108.843369 -60.709091 
L 108.506759 -60.709091 
L 108.17015 -60.709091 
L 107.833541 -60.709091 
L 107.496932 -60.709091 
L 107.160323 -60.709091 
L 106.823714 -60.709091 
L 106.487105 -60.709091 
L 106.150495 -60.709091 
L 105.813886 -60.709091 
L 105.477277 -60.709091 
L 105.140668 -60.709091 
L 104.804059 -60.709091 
L 104.46745 -60.709091 
L 104.130841 -60.709091 
L 103.794232 -60.709091 
L 103.457622 -60.709091 
L 103.121013 -60.709091 
L 102.784391 -60.709091 
L 102.447795 -60.709091 
L 102.111172 -60.709091 
L 101.774577 -60.709091 
L 101.437954 -60.709091 
L 101.101358 -60.709091 
L 100.764736 -60.709091 
L 100.42814 -60.709091 
L 100.091518 -60.709091 
L 99.754922 -60.709091 
L 99.418299 -60.709091 
L 99.081704 -60.709091 
L 98.745081 -60.709091 
L 98.408485 -60.709091 
L 98.071863 -60.709091 
L 97.735267 -60.709091 
L 97.398645 -60.709091 
L 97.062035 -60.709091 
L 96.725426 -60.709091 
L 96.388817 -60.709091 
L 96.052208 -60.709091 
L 95.715599 -60.709091 
L 95.37899 -60.709091 
L 95.042381 -60.709091 
L 94.705771 -60.709091 
L 94.369162 -60.709091 
L 94.032553 -60.709091 
L 93.695944 -60.709091 
L 93.359335 -60.709091 
L 93.022726 -60.709091 
L 92.686117 -60.709091 
L 92.349508 -60.709091 
L 92.012898 -60.709091 
L 91.676289 -60.709091 
L 91.33968 -60.709091 
L 91.003071 -60.709091 
L 90.666462 -60.709091 
L 90.329853 -60.709091 
L 89.993244 -60.709091 
L 89.656634 -60.709091 
L 89.320025 -60.709091 
L 88.983416 -60.709091 
L 88.646807 -60.709091 
L 88.310198 -60.709091 
L 87.973589 -60.709091 
L 87.63698 -60.709091 
L 87.30037 -60.709091 
L 86.963761 -60.709091 
L 86.627152 -60.709091 
L 86.290543 -60.709091 
L 85.953934 -60.709091 
L 85.617325 -60.709091 
L 85.280702 -60.709091 
L 84.944093 -60.709091 
L 84.607484 -60.709091 
L 84.270875 -60.709091 
L 83.934266 -60.709091 
L 83.597657 -60.709091 
L 83.261047 -60.709091 
L 82.924438 -60.709091 
L 82.587829 -60.709091 
L 82.25122 -60.709091 
L 81.914611 -60.709091 
L 81.578002 -60.709091 
L 81.241393 -60.709091 
L 80.904784 -60.709091 
L 80.568174 -60.709091 
L 80.231565 -60.709091 
L 79.894956 -60.709091 
L 79.558347 -60.709091 
L 79.221738 -60.709091 
L 78.885129 -60.709091 
L 78.54852 -60.709091 
L 78.21191 -60.709091 
L 77.875301 -60.709091 
L 77.538692 -60.709091 
L 77.202083 -60.709091 
L 76.865474 -60.709091 
L 76.528865 -60.709091 
L 76.192256 -60.709091 
L 75.855646 -60.709091 
L 75.519037 -60.709091 
L 75.182428 -60.709091 
L 74.845819 -60.709091 
L 74.50921 -60.709091 
L 74.172601 -60.709091 
L 73.835992 -60.709091 
L 73.499383 -60.709091 
L 73.162773 -60.709091 
L 72.826164 -60.709091 
L 72.489555 -60.709091 
L 72.152946 -60.709091 
L 71.816337 -60.709091 
L 71.479728 -60.709091 
L 71.143119 -60.709091 
L 70.806509 -60.709091 
L 70.4699 -60.709091 
L 70.133291 -60.709091 
L 69.796682 -60.709091 
L 69.460073 -60.709091 
L 69.123464 -60.709091 
L 68.786855 -60.709091 
L 68.450245 -60.709091 
L 68.113636 -60.709091 
z
" style="stroke: #1f77b4; stroke-opacity: 0.2"/>
    </defs>
    <g clip-path="url(#p542917b3c2)">
     <use xlink:href="#m1e8dcd29aa" x="0" y="288" style="fill: #1f77b4; fill-opacity: 0.2; stroke: #1f77b4; stroke-opacity: 0.2"/>
    </g>
   </g>
   <g id="line2d_14">
    <path d="M 68.113636 227.290909 
L 98.408485 227.290909 
L 98.745081 226.422551 
L 99.081704 227.290909 
L 100.42814 227.290909 
L 100.764736 218.381701 
L 101.101358 227.290909 
L 102.111172 227.290909 
L 102.447795 116.83826 
L 102.784391 227.290909 
L 103.121013 98.756457 
L 103.457622 227.290909 
L 103.794232 184.073852 
L 104.130841 227.290909 
L 104.804059 73.955398 
L 105.140668 227.290909 
L 106.150495 227.290909 
L 106.487105 21.109091 
L 106.823714 227.290909 
L 107.160323 227.290909 
L 107.496932 23.103733 
L 107.833541 227.290909 
L 108.843369 227.290909 
L 109.179978 227.175175 
L 109.853196 227.290909 
L 112.882678 227.290909 
L 113.219287 226.471615 
L 113.555896 226.225047 
L 113.892506 227.290909 
L 121.29792 227.290909 
L 121.634529 223.044577 
L 121.971138 227.290909 
L 139.474813 227.290909 
L 139.811422 220.55651 
L 140.148032 225.607274 
L 140.484641 227.290909 
L 144.52395 227.290909 
L 144.860559 226.978157 
L 145.197169 227.290909 
L 149.573094 227.290909 
L 149.909703 227.160908 
L 150.246312 227.290909 
L 153.612404 227.290909 
L 153.949013 224.666212 
L 154.285622 227.290909 
L 157.65172 227.290909 
L 157.988329 225.417508 
L 158.324938 227.290909 
L 162.700864 227.290909 
L 163.037473 168.602598 
L 163.374082 227.290909 
L 254.931822 227.181891 
L 258.297913 226.908531 
L 259.980959 226.608909 
L 262.000614 226.02772 
L 264.020269 225.043505 
L 265.030094 224.30576 
L 266.039922 223.482409 
L 267.386365 221.973 
L 269.40602 219.098591 
L 270.079238 217.990731 
L 270.752456 216.586901 
L 271.425675 215.235358 
L 273.108727 211.457622 
L 273.781945 209.543119 
L 275.128382 206.003611 
L 277.148037 200.255093 
L 280.514128 191.909767 
L 281.187346 190.464543 
L 281.860565 189.238766 
L 283.54361 187.178182 
L 284.553444 186.586308 
L 285.226663 186.558182 
L 285.563272 186.54558 
L 286.23649 186.850744 
L 286.909708 187.368523 
L 288.256145 189.040958 
L 289.939191 192.131316 
L 290.2758 193.120026 
L 290.612409 193.63428 
L 291.958845 197.208118 
L 293.641891 201.780024 
L 295.324943 206.614187 
L 296.334764 209.196873 
L 298.017817 213.520513 
L 299.364253 216.354577 
L 300.374074 218.246283 
L 301.72051 220.51729 
L 303.066947 222.183787 
L 303.403569 222.682625 
L 306.433052 225.174149 
L 308.452706 226.095042 
L 310.80897 226.740213 
L 313.165234 227.046824 
L 317.204544 227.240545 
L 324.946554 227.289484 
L 404.386364 227.290909 
L 404.386364 227.290909 
" clip-path="url(#p542917b3c2)" style="fill: none; stroke: #1f77b4; stroke-width: 1.5; stroke-linecap: round"/>
   </g>
   <g id="patch_3">
    <path d="M 51.3 237.6 
L 51.3 10.8 
" style="fill: none; stroke: #ffffff; stroke-width: 1.25; stroke-linejoin: miter; stroke-linecap: square"/>
   </g>
   <g id="patch_4">
    <path d="M 421.2 237.6 
L 421.2 10.8 
" style="fill: none; stroke: #ffffff; stroke-width: 1.25; stroke-linejoin: miter; stroke-linecap: square"/>
   </g>
   <g id="patch_5">
    <path d="M 51.3 237.6 
L 421.2 237.6 
" style="fill: none; stroke: #ffffff; stroke-width: 1.25; stroke-linejoin: miter; stroke-linecap: square"/>
   </g>
   <g id="patch_6">
    <path d="M 51.3 10.8 
L 421.2 10.8 
" style="fill: none; stroke: #ffffff; stroke-width: 1.25; stroke-linejoin: miter; stroke-linecap: square"/>
   </g>
  </g>
 </g>
 <defs>
  <clipPath id="p542917b3c2">
   <rect x="51.3" y="10.8" width="369.9" height="226.8"/>
  </clipPath>
 </defs>
</svg>
