<?xml version="1.0" encoding="utf-8" standalone="no"?>
<!DOCTYPE svg PUBLIC "-//W3C//DTD SVG 1.1//EN"
  "http://www.w3.org/Graphics/SVG/1.1/DTD/svg11.dtd">
<svg xmlns:xlink="http://www.w3.org/1999/xlink" width="432pt" height="288pt" viewBox="0 0 432 288" xmlns="http://www.w3.org/2000/svg" version="1.1">
 <metadata>
  <rdf:RDF xmlns:dc="http://purl.org/dc/elements/1.1/" xmlns:cc="http://creativecommons.org/ns#" xmlns:rdf="http://www.w3.org/1999/02/22-rdf-syntax-ns#">
   <cc:Work>
    <dc:type rdf:resource="http://purl.org/dc/dcmitype/StillImage"/>
    <dc:date>2022-06-23T04:34:58.828862</dc:date>
    <dc:format>image/svg+xml</dc:format>
    <dc:creator>
     <cc:Agent>
      <dc:title>Matplotlib v3.5.2, https://matplotlib.org/</dc:title>
     </cc:Agent>
    </dc:creator>
   </cc:Work>
  </rdf:RDF>
 </metadata>
 <defs>
  <style type="text/css">*{stroke-linejoin: round; stroke-linecap: butt}</style>
 </defs>
 <g id="figure_1">
  <g id="patch_1">
   <path d="M 0 288 
L 432 288 
L 432 0 
L 0 0 
L 0 288 
z
" style="fill: none"/>
  </g>
  <g id="axes_1">
   <g id="patch_2">
    <path d="M 63.925 240.7 
L 421.2 240.7 
L 421.2 14.8 
L 63.925 14.8 
z
" style="fill: #eaeaf2"/>
   </g>
   <g id="matplotlib.axis_1">
    <g id="xtick_1">
     <g id="line2d_1">
      <path d="M 80.164773 240.7 
L 80.164773 14.8 
" clip-path="url(#p2dde1803da)" style="fill: none; stroke: #ffffff; stroke-linecap: round"/>
     </g>
     <g id="text_1">
      <!-- 0 -->
      <g style="fill: #262626" transform="translate(76.665398 258.558281)scale(0.11 -0.11)">
       <defs>
        <path id="DejaVuSans-30" d="M 2034 4250 
Q 1547 4250 1301 3770 
Q 1056 3291 1056 2328 
Q 1056 1369 1301 889 
Q 1547 409 2034 409 
Q 2525 409 2770 889 
Q 3016 1369 3016 2328 
Q 3016 3291 2770 3770 
Q 2525 4250 2034 4250 
z
M 2034 4750 
Q 2819 4750 3233 4129 
Q 3647 3509 3647 2328 
Q 3647 1150 3233 529 
Q 2819 -91 2034 -91 
Q 1250 -91 836 529 
Q 422 1150 422 2328 
Q 422 3509 836 4129 
Q 1250 4750 2034 4750 
z
" transform="scale(0.015625)"/>
       </defs>
       <use xlink:href="#DejaVuSans-30"/>
      </g>
     </g>
    </g>
    <g id="xtick_2">
     <g id="line2d_2">
      <path d="M 145.780016 240.7 
L 145.780016 14.8 
" clip-path="url(#p2dde1803da)" style="fill: none; stroke: #ffffff; stroke-linecap: round"/>
     </g>
     <g id="text_2">
      <!-- 20 -->
      <g style="fill: #262626" transform="translate(138.781266 258.558281)scale(0.11 -0.11)">
       <defs>
        <path id="DejaVuSans-32" d="M 1228 531 
L 3431 531 
L 3431 0 
L 469 0 
L 469 531 
Q 828 903 1448 1529 
Q 2069 2156 2228 2338 
Q 2531 2678 2651 2914 
Q 2772 3150 2772 3378 
Q 2772 3750 2511 3984 
Q 2250 4219 1831 4219 
Q 1534 4219 1204 4116 
Q 875 4013 500 3803 
L 500 4441 
Q 881 4594 1212 4672 
Q 1544 4750 1819 4750 
Q 2544 4750 2975 4387 
Q 3406 4025 3406 3419 
Q 3406 3131 3298 2873 
Q 3191 2616 2906 2266 
Q 2828 2175 2409 1742 
Q 1991 1309 1228 531 
z
" transform="scale(0.015625)"/>
       </defs>
       <use xlink:href="#DejaVuSans-32"/>
       <use xlink:href="#DejaVuSans-30" x="63.623047"/>
      </g>
     </g>
    </g>
    <g id="xtick_3">
     <g id="line2d_3">
      <path d="M 211.395259 240.7 
L 211.395259 14.8 
" clip-path="url(#p2dde1803da)" style="fill: none; stroke: #ffffff; stroke-linecap: round"/>
     </g>
     <g id="text_3">
      <!-- 40 -->
      <g style="fill: #262626" transform="translate(204.396509 258.558281)scale(0.11 -0.11)">
       <defs>
        <path id="DejaVuSans-34" d="M 2419 4116 
L 825 1625 
L 2419 1625 
L 2419 4116 
z
M 2253 4666 
L 3047 4666 
L 3047 1625 
L 3713 1625 
L 3713 1100 
L 3047 1100 
L 3047 0 
L 2419 0 
L 2419 1100 
L 313 1100 
L 313 1709 
L 2253 4666 
z
" transform="scale(0.015625)"/>
       </defs>
       <use xlink:href="#DejaVuSans-34"/>
       <use xlink:href="#DejaVuSans-30" x="63.623047"/>
      </g>
     </g>
    </g>
    <g id="xtick_4">
     <g id="line2d_4">
      <path d="M 277.010503 240.7 
L 277.010503 14.8 
" clip-path="url(#p2dde1803da)" style="fill: none; stroke: #ffffff; stroke-linecap: round"/>
     </g>
     <g id="text_4">
      <!-- 60 -->
      <g style="fill: #262626" transform="translate(270.011753 258.558281)scale(0.11 -0.11)">
       <defs>
        <path id="DejaVuSans-36" d="M 2113 2584 
Q 1688 2584 1439 2293 
Q 1191 2003 1191 1497 
Q 1191 994 1439 701 
Q 1688 409 2113 409 
Q 2538 409 2786 701 
Q 3034 994 3034 1497 
Q 3034 2003 2786 2293 
Q 2538 2584 2113 2584 
z
M 3366 4563 
L 3366 3988 
Q 3128 4100 2886 4159 
Q 2644 4219 2406 4219 
Q 1781 4219 1451 3797 
Q 1122 3375 1075 2522 
Q 1259 2794 1537 2939 
Q 1816 3084 2150 3084 
Q 2853 3084 3261 2657 
Q 3669 2231 3669 1497 
Q 3669 778 3244 343 
Q 2819 -91 2113 -91 
Q 1303 -91 875 529 
Q 447 1150 447 2328 
Q 447 3434 972 4092 
Q 1497 4750 2381 4750 
Q 2619 4750 2861 4703 
Q 3103 4656 3366 4563 
z
" transform="scale(0.015625)"/>
       </defs>
       <use xlink:href="#DejaVuSans-36"/>
       <use xlink:href="#DejaVuSans-30" x="63.623047"/>
      </g>
     </g>
    </g>
    <g id="xtick_5">
     <g id="line2d_5">
      <path d="M 342.625746 240.7 
L 342.625746 14.8 
" clip-path="url(#p2dde1803da)" style="fill: none; stroke: #ffffff; stroke-linecap: round"/>
     </g>
     <g id="text_5">
      <!-- 80 -->
      <g style="fill: #262626" transform="translate(335.626996 258.558281)scale(0.11 -0.11)">
       <defs>
        <path id="DejaVuSans-38" d="M 2034 2216 
Q 1584 2216 1326 1975 
Q 1069 1734 1069 1313 
Q 1069 891 1326 650 
Q 1584 409 2034 409 
Q 2484 409 2743 651 
Q 3003 894 3003 1313 
Q 3003 1734 2745 1975 
Q 2488 2216 2034 2216 
z
M 1403 2484 
Q 997 2584 770 2862 
Q 544 3141 544 3541 
Q 544 4100 942 4425 
Q 1341 4750 2034 4750 
Q 2731 4750 3128 4425 
Q 3525 4100 3525 3541 
Q 3525 3141 3298 2862 
Q 3072 2584 2669 2484 
Q 3125 2378 3379 2068 
Q 3634 1759 3634 1313 
Q 3634 634 3220 271 
Q 2806 -91 2034 -91 
Q 1263 -91 848 271 
Q 434 634 434 1313 
Q 434 1759 690 2068 
Q 947 2378 1403 2484 
z
M 1172 3481 
Q 1172 3119 1398 2916 
Q 1625 2713 2034 2713 
Q 2441 2713 2670 2916 
Q 2900 3119 2900 3481 
Q 2900 3844 2670 4047 
Q 2441 4250 2034 4250 
Q 1625 4250 1398 4047 
Q 1172 3844 1172 3481 
z
" transform="scale(0.015625)"/>
       </defs>
       <use xlink:href="#DejaVuSans-38"/>
       <use xlink:href="#DejaVuSans-30" x="63.623047"/>
      </g>
     </g>
    </g>
    <g id="xtick_6">
     <g id="line2d_6">
      <path d="M 408.240989 240.7 
L 408.240989 14.8 
" clip-path="url(#p2dde1803da)" style="fill: none; stroke: #ffffff; stroke-linecap: round"/>
     </g>
     <g id="text_6">
      <!-- 100 -->
      <g style="fill: #262626" transform="translate(397.742864 258.558281)scale(0.11 -0.11)">
       <defs>
        <path id="DejaVuSans-31" d="M 794 531 
L 1825 531 
L 1825 4091 
L 703 3866 
L 703 4441 
L 1819 4666 
L 2450 4666 
L 2450 531 
L 3481 531 
L 3481 0 
L 794 0 
L 794 531 
z
" transform="scale(0.015625)"/>
       </defs>
       <use xlink:href="#DejaVuSans-31"/>
       <use xlink:href="#DejaVuSans-30" x="63.623047"/>
       <use xlink:href="#DejaVuSans-30" x="127.246094"/>
      </g>
     </g>
    </g>
    <g id="text_7">
     <!-- Iteration Number -->
     <g style="fill: #262626" transform="translate(191.102188 273.964063)scale(0.12 -0.12)">
      <defs>
       <path id="DejaVuSans-49" d="M 628 4666 
L 1259 4666 
L 1259 0 
L 628 0 
L 628 4666 
z
" transform="scale(0.015625)"/>
       <path id="DejaVuSans-74" d="M 1172 4494 
L 1172 3500 
L 2356 3500 
L 2356 3053 
L 1172 3053 
L 1172 1153 
Q 1172 725 1289 603 
Q 1406 481 1766 481 
L 2356 481 
L 2356 0 
L 1766 0 
Q 1100 0 847 248 
Q 594 497 594 1153 
L 594 3053 
L 172 3053 
L 172 3500 
L 594 3500 
L 594 4494 
L 1172 4494 
z
" transform="scale(0.015625)"/>
       <path id="DejaVuSans-65" d="M 3597 1894 
L 3597 1613 
L 953 1613 
Q 991 1019 1311 708 
Q 1631 397 2203 397 
Q 2534 397 2845 478 
Q 3156 559 3463 722 
L 3463 178 
Q 3153 47 2828 -22 
Q 2503 -91 2169 -91 
Q 1331 -91 842 396 
Q 353 884 353 1716 
Q 353 2575 817 3079 
Q 1281 3584 2069 3584 
Q 2775 3584 3186 3129 
Q 3597 2675 3597 1894 
z
M 3022 2063 
Q 3016 2534 2758 2815 
Q 2500 3097 2075 3097 
Q 1594 3097 1305 2825 
Q 1016 2553 972 2059 
L 3022 2063 
z
" transform="scale(0.015625)"/>
       <path id="DejaVuSans-72" d="M 2631 2963 
Q 2534 3019 2420 3045 
Q 2306 3072 2169 3072 
Q 1681 3072 1420 2755 
Q 1159 2438 1159 1844 
L 1159 0 
L 581 0 
L 581 3500 
L 1159 3500 
L 1159 2956 
Q 1341 3275 1631 3429 
Q 1922 3584 2338 3584 
Q 2397 3584 2469 3576 
Q 2541 3569 2628 3553 
L 2631 2963 
z
" transform="scale(0.015625)"/>
       <path id="DejaVuSans-61" d="M 2194 1759 
Q 1497 1759 1228 1600 
Q 959 1441 959 1056 
Q 959 750 1161 570 
Q 1363 391 1709 391 
Q 2188 391 2477 730 
Q 2766 1069 2766 1631 
L 2766 1759 
L 2194 1759 
z
M 3341 1997 
L 3341 0 
L 2766 0 
L 2766 531 
Q 2569 213 2275 61 
Q 1981 -91 1556 -91 
Q 1019 -91 701 211 
Q 384 513 384 1019 
Q 384 1609 779 1909 
Q 1175 2209 1959 2209 
L 2766 2209 
L 2766 2266 
Q 2766 2663 2505 2880 
Q 2244 3097 1772 3097 
Q 1472 3097 1187 3025 
Q 903 2953 641 2809 
L 641 3341 
Q 956 3463 1253 3523 
Q 1550 3584 1831 3584 
Q 2591 3584 2966 3190 
Q 3341 2797 3341 1997 
z
" transform="scale(0.015625)"/>
       <path id="DejaVuSans-69" d="M 603 3500 
L 1178 3500 
L 1178 0 
L 603 0 
L 603 3500 
z
M 603 4863 
L 1178 4863 
L 1178 4134 
L 603 4134 
L 603 4863 
z
" transform="scale(0.015625)"/>
       <path id="DejaVuSans-6f" d="M 1959 3097 
Q 1497 3097 1228 2736 
Q 959 2375 959 1747 
Q 959 1119 1226 758 
Q 1494 397 1959 397 
Q 2419 397 2687 759 
Q 2956 1122 2956 1747 
Q 2956 2369 2687 2733 
Q 2419 3097 1959 3097 
z
M 1959 3584 
Q 2709 3584 3137 3096 
Q 3566 2609 3566 1747 
Q 3566 888 3137 398 
Q 2709 -91 1959 -91 
Q 1206 -91 779 398 
Q 353 888 353 1747 
Q 353 2609 779 3096 
Q 1206 3584 1959 3584 
z
" transform="scale(0.015625)"/>
       <path id="DejaVuSans-6e" d="M 3513 2113 
L 3513 0 
L 2938 0 
L 2938 2094 
Q 2938 2591 2744 2837 
Q 2550 3084 2163 3084 
Q 1697 3084 1428 2787 
Q 1159 2491 1159 1978 
L 1159 0 
L 581 0 
L 581 3500 
L 1159 3500 
L 1159 2956 
Q 1366 3272 1645 3428 
Q 1925 3584 2291 3584 
Q 2894 3584 3203 3211 
Q 3513 2838 3513 2113 
z
" transform="scale(0.015625)"/>
       <path id="DejaVuSans-20" transform="scale(0.015625)"/>
       <path id="DejaVuSans-4e" d="M 628 4666 
L 1478 4666 
L 3547 763 
L 3547 4666 
L 4159 4666 
L 4159 0 
L 3309 0 
L 1241 3903 
L 1241 0 
L 628 0 
L 628 4666 
z
" transform="scale(0.015625)"/>
       <path id="DejaVuSans-75" d="M 544 1381 
L 544 3500 
L 1119 3500 
L 1119 1403 
Q 1119 906 1312 657 
Q 1506 409 1894 409 
Q 2359 409 2629 706 
Q 2900 1003 2900 1516 
L 2900 3500 
L 3475 3500 
L 3475 0 
L 2900 0 
L 2900 538 
Q 2691 219 2414 64 
Q 2138 -91 1772 -91 
Q 1169 -91 856 284 
Q 544 659 544 1381 
z
M 1991 3584 
L 1991 3584 
z
" transform="scale(0.015625)"/>
       <path id="DejaVuSans-6d" d="M 3328 2828 
Q 3544 3216 3844 3400 
Q 4144 3584 4550 3584 
Q 5097 3584 5394 3201 
Q 5691 2819 5691 2113 
L 5691 0 
L 5113 0 
L 5113 2094 
Q 5113 2597 4934 2840 
Q 4756 3084 4391 3084 
Q 3944 3084 3684 2787 
Q 3425 2491 3425 1978 
L 3425 0 
L 2847 0 
L 2847 2094 
Q 2847 2600 2669 2842 
Q 2491 3084 2119 3084 
Q 1678 3084 1418 2786 
Q 1159 2488 1159 1978 
L 1159 0 
L 581 0 
L 581 3500 
L 1159 3500 
L 1159 2956 
Q 1356 3278 1631 3431 
Q 1906 3584 2284 3584 
Q 2666 3584 2933 3390 
Q 3200 3197 3328 2828 
z
" transform="scale(0.015625)"/>
       <path id="DejaVuSans-62" d="M 3116 1747 
Q 3116 2381 2855 2742 
Q 2594 3103 2138 3103 
Q 1681 3103 1420 2742 
Q 1159 2381 1159 1747 
Q 1159 1113 1420 752 
Q 1681 391 2138 391 
Q 2594 391 2855 752 
Q 3116 1113 3116 1747 
z
M 1159 2969 
Q 1341 3281 1617 3432 
Q 1894 3584 2278 3584 
Q 2916 3584 3314 3078 
Q 3713 2572 3713 1747 
Q 3713 922 3314 415 
Q 2916 -91 2278 -91 
Q 1894 -91 1617 61 
Q 1341 213 1159 525 
L 1159 0 
L 581 0 
L 581 4863 
L 1159 4863 
L 1159 2969 
z
" transform="scale(0.015625)"/>
      </defs>
      <use xlink:href="#DejaVuSans-49"/>
      <use xlink:href="#DejaVuSans-74" x="29.492188"/>
      <use xlink:href="#DejaVuSans-65" x="68.701172"/>
      <use xlink:href="#DejaVuSans-72" x="130.224609"/>
      <use xlink:href="#DejaVuSans-61" x="171.337891"/>
      <use xlink:href="#DejaVuSans-74" x="232.617188"/>
      <use xlink:href="#DejaVuSans-69" x="271.826172"/>
      <use xlink:href="#DejaVuSans-6f" x="299.609375"/>
      <use xlink:href="#DejaVuSans-6e" x="360.791016"/>
      <use xlink:href="#DejaVuSans-20" x="424.169922"/>
      <use xlink:href="#DejaVuSans-4e" x="455.957031"/>
      <use xlink:href="#DejaVuSans-75" x="530.761719"/>
      <use xlink:href="#DejaVuSans-6d" x="594.140625"/>
      <use xlink:href="#DejaVuSans-62" x="691.552734"/>
      <use xlink:href="#DejaVuSans-65" x="755.029297"/>
      <use xlink:href="#DejaVuSans-72" x="816.552734"/>
     </g>
    </g>
   </g>
   <g id="matplotlib.axis_2">
    <g id="ytick_1">
     <g id="line2d_7">
      <path d="M 63.925 220.163636 
L 421.2 220.163636 
" clip-path="url(#p2dde1803da)" style="fill: none; stroke: #ffffff; stroke-linecap: round"/>
     </g>
     <g id="text_8">
      <!-- −1.2 -->
      <g style="fill: #262626" transform="translate(27.713906 224.342777)scale(0.11 -0.11)">
       <defs>
        <path id="DejaVuSans-2212" d="M 678 2272 
L 4684 2272 
L 4684 1741 
L 678 1741 
L 678 2272 
z
" transform="scale(0.015625)"/>
        <path id="DejaVuSans-2e" d="M 684 794 
L 1344 794 
L 1344 0 
L 684 0 
L 684 794 
z
" transform="scale(0.015625)"/>
       </defs>
       <use xlink:href="#DejaVuSans-2212"/>
       <use xlink:href="#DejaVuSans-31" x="83.789062"/>
       <use xlink:href="#DejaVuSans-2e" x="147.412109"/>
       <use xlink:href="#DejaVuSans-32" x="179.199219"/>
      </g>
     </g>
    </g>
    <g id="ytick_2">
     <g id="line2d_8">
      <path d="M 63.925 179.090909 
L 421.2 179.090909 
" clip-path="url(#p2dde1803da)" style="fill: none; stroke: #ffffff; stroke-linecap: round"/>
     </g>
     <g id="text_9">
      <!-- −1.0 -->
      <g style="fill: #262626" transform="translate(27.713906 183.27005)scale(0.11 -0.11)">
       <use xlink:href="#DejaVuSans-2212"/>
       <use xlink:href="#DejaVuSans-31" x="83.789062"/>
       <use xlink:href="#DejaVuSans-2e" x="147.412109"/>
       <use xlink:href="#DejaVuSans-30" x="179.199219"/>
      </g>
     </g>
    </g>
    <g id="ytick_3">
     <g id="line2d_9">
      <path d="M 63.925 138.018182 
L 421.2 138.018182 
" clip-path="url(#p2dde1803da)" style="fill: none; stroke: #ffffff; stroke-linecap: round"/>
     </g>
     <g id="text_10">
      <!-- −0.8 -->
      <g style="fill: #262626" transform="translate(27.713906 142.197322)scale(0.11 -0.11)">
       <use xlink:href="#DejaVuSans-2212"/>
       <use xlink:href="#DejaVuSans-30" x="83.789062"/>
       <use xlink:href="#DejaVuSans-2e" x="147.412109"/>
       <use xlink:href="#DejaVuSans-38" x="179.199219"/>
      </g>
     </g>
    </g>
    <g id="ytick_4">
     <g id="line2d_10">
      <path d="M 63.925 96.945455 
L 421.2 96.945455 
" clip-path="url(#p2dde1803da)" style="fill: none; stroke: #ffffff; stroke-linecap: round"/>
     </g>
     <g id="text_11">
      <!-- −0.6 -->
      <g style="fill: #262626" transform="translate(27.713906 101.124595)scale(0.11 -0.11)">
       <use xlink:href="#DejaVuSans-2212"/>
       <use xlink:href="#DejaVuSans-30" x="83.789062"/>
       <use xlink:href="#DejaVuSans-2e" x="147.412109"/>
       <use xlink:href="#DejaVuSans-36" x="179.199219"/>
      </g>
     </g>
    </g>
    <g id="ytick_5">
     <g id="line2d_11">
      <path d="M 63.925 55.872727 
L 421.2 55.872727 
" clip-path="url(#p2dde1803da)" style="fill: none; stroke: #ffffff; stroke-linecap: round"/>
     </g>
     <g id="text_12">
      <!-- −0.4 -->
      <g style="fill: #262626" transform="translate(27.713906 60.051868)scale(0.11 -0.11)">
       <use xlink:href="#DejaVuSans-2212"/>
       <use xlink:href="#DejaVuSans-30" x="83.789062"/>
       <use xlink:href="#DejaVuSans-2e" x="147.412109"/>
       <use xlink:href="#DejaVuSans-34" x="179.199219"/>
      </g>
     </g>
    </g>
    <g id="ytick_6">
     <g id="line2d_12">
      <path d="M 63.925 14.8 
L 421.2 14.8 
" clip-path="url(#p2dde1803da)" style="fill: none; stroke: #ffffff; stroke-linecap: round"/>
     </g>
     <g id="text_13">
      <!-- −0.2 -->
      <g style="fill: #262626" transform="translate(27.713906 18.979141)scale(0.11 -0.11)">
       <use xlink:href="#DejaVuSans-2212"/>
       <use xlink:href="#DejaVuSans-30" x="83.789062"/>
       <use xlink:href="#DejaVuSans-2e" x="147.412109"/>
       <use xlink:href="#DejaVuSans-32" x="179.199219"/>
      </g>
     </g>
    </g>
    <g id="text_14">
     <!-- Average Posterior Entropy (APE) -->
     <g style="fill: #262626" transform="translate(21.218281 224.126875)rotate(-90)scale(0.12 -0.12)">
      <defs>
       <path id="DejaVuSans-41" d="M 2188 4044 
L 1331 1722 
L 3047 1722 
L 2188 4044 
z
M 1831 4666 
L 2547 4666 
L 4325 0 
L 3669 0 
L 3244 1197 
L 1141 1197 
L 716 0 
L 50 0 
L 1831 4666 
z
" transform="scale(0.015625)"/>
       <path id="DejaVuSans-76" d="M 191 3500 
L 800 3500 
L 1894 563 
L 2988 3500 
L 3597 3500 
L 2284 0 
L 1503 0 
L 191 3500 
z
" transform="scale(0.015625)"/>
       <path id="DejaVuSans-67" d="M 2906 1791 
Q 2906 2416 2648 2759 
Q 2391 3103 1925 3103 
Q 1463 3103 1205 2759 
Q 947 2416 947 1791 
Q 947 1169 1205 825 
Q 1463 481 1925 481 
Q 2391 481 2648 825 
Q 2906 1169 2906 1791 
z
M 3481 434 
Q 3481 -459 3084 -895 
Q 2688 -1331 1869 -1331 
Q 1566 -1331 1297 -1286 
Q 1028 -1241 775 -1147 
L 775 -588 
Q 1028 -725 1275 -790 
Q 1522 -856 1778 -856 
Q 2344 -856 2625 -561 
Q 2906 -266 2906 331 
L 2906 616 
Q 2728 306 2450 153 
Q 2172 0 1784 0 
Q 1141 0 747 490 
Q 353 981 353 1791 
Q 353 2603 747 3093 
Q 1141 3584 1784 3584 
Q 2172 3584 2450 3431 
Q 2728 3278 2906 2969 
L 2906 3500 
L 3481 3500 
L 3481 434 
z
" transform="scale(0.015625)"/>
       <path id="DejaVuSans-50" d="M 1259 4147 
L 1259 2394 
L 2053 2394 
Q 2494 2394 2734 2622 
Q 2975 2850 2975 3272 
Q 2975 3691 2734 3919 
Q 2494 4147 2053 4147 
L 1259 4147 
z
M 628 4666 
L 2053 4666 
Q 2838 4666 3239 4311 
Q 3641 3956 3641 3272 
Q 3641 2581 3239 2228 
Q 2838 1875 2053 1875 
L 1259 1875 
L 1259 0 
L 628 0 
L 628 4666 
z
" transform="scale(0.015625)"/>
       <path id="DejaVuSans-73" d="M 2834 3397 
L 2834 2853 
Q 2591 2978 2328 3040 
Q 2066 3103 1784 3103 
Q 1356 3103 1142 2972 
Q 928 2841 928 2578 
Q 928 2378 1081 2264 
Q 1234 2150 1697 2047 
L 1894 2003 
Q 2506 1872 2764 1633 
Q 3022 1394 3022 966 
Q 3022 478 2636 193 
Q 2250 -91 1575 -91 
Q 1294 -91 989 -36 
Q 684 19 347 128 
L 347 722 
Q 666 556 975 473 
Q 1284 391 1588 391 
Q 1994 391 2212 530 
Q 2431 669 2431 922 
Q 2431 1156 2273 1281 
Q 2116 1406 1581 1522 
L 1381 1569 
Q 847 1681 609 1914 
Q 372 2147 372 2553 
Q 372 3047 722 3315 
Q 1072 3584 1716 3584 
Q 2034 3584 2315 3537 
Q 2597 3491 2834 3397 
z
" transform="scale(0.015625)"/>
       <path id="DejaVuSans-45" d="M 628 4666 
L 3578 4666 
L 3578 4134 
L 1259 4134 
L 1259 2753 
L 3481 2753 
L 3481 2222 
L 1259 2222 
L 1259 531 
L 3634 531 
L 3634 0 
L 628 0 
L 628 4666 
z
" transform="scale(0.015625)"/>
       <path id="DejaVuSans-70" d="M 1159 525 
L 1159 -1331 
L 581 -1331 
L 581 3500 
L 1159 3500 
L 1159 2969 
Q 1341 3281 1617 3432 
Q 1894 3584 2278 3584 
Q 2916 3584 3314 3078 
Q 3713 2572 3713 1747 
Q 3713 922 3314 415 
Q 2916 -91 2278 -91 
Q 1894 -91 1617 61 
Q 1341 213 1159 525 
z
M 3116 1747 
Q 3116 2381 2855 2742 
Q 2594 3103 2138 3103 
Q 1681 3103 1420 2742 
Q 1159 2381 1159 1747 
Q 1159 1113 1420 752 
Q 1681 391 2138 391 
Q 2594 391 2855 752 
Q 3116 1113 3116 1747 
z
" transform="scale(0.015625)"/>
       <path id="DejaVuSans-79" d="M 2059 -325 
Q 1816 -950 1584 -1140 
Q 1353 -1331 966 -1331 
L 506 -1331 
L 506 -850 
L 844 -850 
Q 1081 -850 1212 -737 
Q 1344 -625 1503 -206 
L 1606 56 
L 191 3500 
L 800 3500 
L 1894 763 
L 2988 3500 
L 3597 3500 
L 2059 -325 
z
" transform="scale(0.015625)"/>
       <path id="DejaVuSans-28" d="M 1984 4856 
Q 1566 4138 1362 3434 
Q 1159 2731 1159 2009 
Q 1159 1288 1364 580 
Q 1569 -128 1984 -844 
L 1484 -844 
Q 1016 -109 783 600 
Q 550 1309 550 2009 
Q 550 2706 781 3412 
Q 1013 4119 1484 4856 
L 1984 4856 
z
" transform="scale(0.015625)"/>
       <path id="DejaVuSans-29" d="M 513 4856 
L 1013 4856 
Q 1481 4119 1714 3412 
Q 1947 2706 1947 2009 
Q 1947 1309 1714 600 
Q 1481 -109 1013 -844 
L 513 -844 
Q 928 -128 1133 580 
Q 1338 1288 1338 2009 
Q 1338 2731 1133 3434 
Q 928 4138 513 4856 
z
" transform="scale(0.015625)"/>
      </defs>
      <use xlink:href="#DejaVuSans-41"/>
      <use xlink:href="#DejaVuSans-76" x="62.533203"/>
      <use xlink:href="#DejaVuSans-65" x="121.712891"/>
      <use xlink:href="#DejaVuSans-72" x="183.236328"/>
      <use xlink:href="#DejaVuSans-61" x="224.349609"/>
      <use xlink:href="#DejaVuSans-67" x="285.628906"/>
      <use xlink:href="#DejaVuSans-65" x="349.105469"/>
      <use xlink:href="#DejaVuSans-20" x="410.628906"/>
      <use xlink:href="#DejaVuSans-50" x="442.416016"/>
      <use xlink:href="#DejaVuSans-6f" x="499.09375"/>
      <use xlink:href="#DejaVuSans-73" x="560.275391"/>
      <use xlink:href="#DejaVuSans-74" x="612.375"/>
      <use xlink:href="#DejaVuSans-65" x="651.583984"/>
      <use xlink:href="#DejaVuSans-72" x="713.107422"/>
      <use xlink:href="#DejaVuSans-69" x="754.220703"/>
      <use xlink:href="#DejaVuSans-6f" x="782.003906"/>
      <use xlink:href="#DejaVuSans-72" x="843.185547"/>
      <use xlink:href="#DejaVuSans-20" x="884.298828"/>
      <use xlink:href="#DejaVuSans-45" x="916.085938"/>
      <use xlink:href="#DejaVuSans-6e" x="979.269531"/>
      <use xlink:href="#DejaVuSans-74" x="1042.648438"/>
      <use xlink:href="#DejaVuSans-72" x="1081.857422"/>
      <use xlink:href="#DejaVuSans-6f" x="1120.720703"/>
      <use xlink:href="#DejaVuSans-70" x="1181.902344"/>
      <use xlink:href="#DejaVuSans-79" x="1245.378906"/>
      <use xlink:href="#DejaVuSans-20" x="1304.558594"/>
      <use xlink:href="#DejaVuSans-28" x="1336.345703"/>
      <use xlink:href="#DejaVuSans-41" x="1375.359375"/>
      <use xlink:href="#DejaVuSans-50" x="1443.767578"/>
      <use xlink:href="#DejaVuSans-45" x="1504.070312"/>
      <use xlink:href="#DejaVuSans-29" x="1567.253906"/>
     </g>
    </g>
   </g>
   <g id="line2d_13">
    <path d="M 80.164773 195.61415 
L 83.445535 151.340963 
L 86.726297 156.672384 
L 90.007059 146.901193 
L 93.287821 152.744242 
L 96.568584 176.688154 
L 99.849346 150.728255 
L 103.130108 150.04528 
L 106.41087 151.817535 
L 109.691632 162.620731 
L 112.972394 163.012808 
L 116.253157 144.618753 
L 119.533919 159.162905 
L 122.814681 170.72741 
L 126.095443 157.473936 
L 129.376205 170.539344 
L 132.656967 174.703977 
L 135.93773 159.400571 
L 139.218492 174.705567 
L 142.499254 185.060617 
L 145.780016 178.594705 
L 149.060778 173.317111 
L 152.34154 187.128325 
L 155.622303 173.606891 
L 158.903065 178.035026 
L 162.183827 186.529694 
L 165.464589 190.448597 
L 168.745351 208.66774 
L 172.026113 161.010555 
L 175.306876 179.424059 
L 178.587638 185.219765 
L 181.8684 197.494883 
L 185.149162 184.308575 
L 188.429924 206.278392 
L 191.710686 203.719815 
L 194.991449 182.476257 
L 198.272211 206.741284 
L 201.552973 191.669583 
L 204.833735 205.048282 
L 208.114497 202.340199 
L 211.395259 173.779395 
L 214.676022 211.711415 
L 217.956784 208.636371 
L 221.237546 215.399104 
L 224.518308 164.481273 
L 227.79907 183.578139 
L 231.079832 183.42511 
L 234.360595 178.742306 
L 237.641357 189.971278 
L 240.922119 211.34853 
L 244.202881 186.873974 
L 247.483643 215.171597 
L 250.764405 219.505717 
L 254.045168 184.070824 
L 257.32593 187.070965 
L 260.606692 196.620408 
L 263.887454 199.323885 
L 267.168216 174.801169 
L 270.448978 188.663703 
L 273.729741 210.386271 
L 277.010503 184.58647 
L 280.291265 221.625662 
L 283.572027 207.836226 
L 286.852789 186.79732 
L 290.133551 207.127586 
L 293.414314 193.996519 
L 296.695076 180.803743 
L 299.975838 208.593314 
L 303.2566 193.175436 
L 306.537362 188.389865 
L 309.818124 211.775505 
L 313.098887 179.774946 
L 316.379649 182.0341 
L 319.660411 200.968325 
L 322.941173 204.227123 
L 326.221935 201.252872 
L 329.502697 215.208962 
L 332.78346 193.731424 
L 336.064222 184.576488 
L 339.344984 181.927109 
L 342.625746 215.500653 
L 345.906508 189.8572 
L 349.18727 202.579578 
L 352.468033 192.484625 
L 355.748795 198.975154 
L 359.029557 184.738497 
L 362.310319 202.048208 
L 365.591081 198.006914 
L 368.871843 211.342714 
L 372.152606 195.146213 
L 375.433368 200.405167 
L 378.71413 217.508118 
L 381.994892 215.639264 
L 385.275654 185.45643 
L 388.556416 188.809847 
L 391.837179 189.996497 
L 395.117941 190.580338 
L 398.398703 212.09882 
L 401.679465 175.561367 
L 404.960227 174.434617 
" clip-path="url(#p2dde1803da)" style="fill: none; stroke: #4c72b0; stroke-width: 1.5; stroke-linecap: round"/>
   </g>
   <g id="line2d_14">
    <path d="M 80.164773 158.386673 
L 83.445535 133.246947 
L 86.726297 137.185014 
L 90.007059 129.211763 
L 93.287821 131.43826 
L 96.568584 148.046048 
L 99.849346 132.563786 
L 103.130108 134.233946 
L 106.41087 133.184361 
L 109.691632 138.141607 
L 112.972394 139.961873 
L 116.253157 132.976148 
L 119.533919 129.549433 
L 122.814681 141.970621 
L 126.095443 136.372971 
L 129.376205 141.090178 
L 132.656967 142.531218 
L 135.93773 134.835156 
L 139.218492 134.623455 
L 142.499254 132.505912 
L 145.780016 149.2789 
L 149.060778 140.060912 
L 152.34154 143.076403 
L 155.622303 129.762053 
L 158.903065 134.498882 
L 162.183827 134.874314 
L 165.464589 136.105317 
L 168.745351 145.765252 
L 172.026113 119.93933 
L 175.306876 143.768623 
L 178.587638 128.380662 
L 181.8684 141.476088 
L 185.149162 142.362003 
L 188.429924 138.417082 
L 191.710686 134.946154 
L 194.991449 140.033958 
L 198.272211 146.978996 
L 201.552973 127.089398 
L 204.833735 140.270019 
L 208.114497 137.67246 
L 211.395259 130.227846 
L 214.676022 157.353429 
L 217.956784 154.55095 
L 221.237546 136.810463 
L 224.518308 132.539598 
L 227.79907 124.78428 
L 231.079832 123.911058 
L 234.360595 130.819863 
L 237.641357 136.046146 
L 240.922119 135.031422 
L 244.202881 126.740748 
L 247.483643 141.279124 
L 250.764405 141.038228 
L 254.045168 135.142947 
L 257.32593 132.763663 
L 260.606692 138.922681 
L 263.887454 127.784935 
L 267.168216 131.826263 
L 270.448978 140.443236 
L 273.729741 139.490377 
L 277.010503 126.952389 
L 280.291265 144.05766 
L 283.572027 144.157862 
L 286.852789 141.962188 
L 290.133551 143.433107 
L 293.414314 140.07117 
L 296.695076 135.428606 
L 299.975838 145.304013 
L 303.2566 139.898124 
L 306.537362 138.741299 
L 309.818124 135.837994 
L 313.098887 127.388853 
L 316.379649 137.399922 
L 319.660411 142.939687 
L 322.941173 144.806836 
L 326.221935 143.086587 
L 329.502697 139.112398 
L 332.78346 137.374976 
L 336.064222 138.858173 
L 339.344984 130.51233 
L 342.625746 145.841475 
L 345.906508 132.564471 
L 349.18727 146.546951 
L 352.468033 127.201559 
L 355.748795 138.20478 
L 359.029557 133.734393 
L 362.310319 137.146578 
L 365.591081 138.795844 
L 368.871843 146.859834 
L 372.152606 134.62982 
L 375.433368 146.288319 
L 378.71413 147.565494 
L 381.994892 136.022656 
L 385.275654 137.214538 
L 388.556416 138.915459 
L 391.837179 132.386664 
L 395.117941 135.206684 
L 398.398703 131.94108 
L 401.679465 139.888625 
L 404.960227 136.231616 
" clip-path="url(#p2dde1803da)" style="fill: none; stroke: #dd8452; stroke-width: 1.5; stroke-linecap: round"/>
   </g>
   <g id="line2d_15">
    <path d="M 80.164773 76.025929 
L 83.445535 41.622381 
L 86.726297 38.611101 
L 90.007059 41.852235 
L 93.287821 55.093919 
L 96.568584 125.614035 
L 99.849346 68.710649 
L 103.130108 91.452637 
L 106.41087 94.506845 
L 109.691632 95.744948 
L 112.972394 124.803632 
L 116.253157 108.966575 
L 119.533919 128.714317 
L 122.814681 137.817658 
L 126.095443 134.716777 
L 129.376205 160.420379 
L 132.656967 148.379165 
L 135.93773 151.651978 
L 139.218492 147.182962 
L 142.499254 153.511831 
L 145.780016 169.858502 
L 149.060778 172.219229 
L 152.34154 168.52234 
L 155.622303 156.192308 
L 158.903065 165.466382 
L 162.183827 168.699511 
L 165.464589 179.334302 
L 168.745351 180.346504 
L 172.026113 152.098051 
L 175.306876 185.758354 
L 178.587638 174.480391 
L 181.8684 191.723015 
L 185.149162 181.969097 
L 188.429924 190.605446 
L 191.710686 189.650849 
L 194.991449 166.823892 
L 198.272211 190.89621 
L 201.552973 176.468306 
L 204.833735 186.486206 
L 208.114497 174.178831 
L 211.395259 158.290596 
L 214.676022 190.160181 
L 217.956784 186.770262 
L 221.237546 185.139345 
L 224.518308 165.283703 
L 227.79907 164.7712 
L 231.079832 161.314018 
L 234.360595 163.431353 
L 237.641357 171.544979 
L 240.922119 186.839005 
L 244.202881 171.034422 
L 247.483643 194.501638 
L 250.764405 189.050299 
L 254.045168 169.059899 
L 257.32593 159.672489 
L 260.606692 156.526771 
L 263.887454 171.930755 
L 267.168216 168.516795 
L 270.448978 181.254929 
L 273.729741 181.482654 
L 277.010503 170.538897 
L 280.291265 206.349585 
L 283.572027 185.009668 
L 286.852789 148.734498 
L 290.133551 178.357867 
L 293.414314 165.361847 
L 296.695076 161.631418 
L 299.975838 172.111145 
L 303.2566 177.673604 
L 306.537362 165.291206 
L 309.818124 188.943953 
L 313.098887 169.308237 
L 316.379649 155.976811 
L 319.660411 160.709515 
L 322.941173 179.111963 
L 326.221935 180.73059 
L 329.502697 198.961241 
L 332.78346 168.952512 
L 336.064222 170.456053 
L 339.344984 165.693984 
L 342.625746 200.083926 
L 345.906508 172.555736 
L 349.18727 176.970637 
L 352.468033 176.893594 
L 355.748795 178.914105 
L 359.029557 172.125503 
L 362.310319 179.505719 
L 365.591081 184.596229 
L 368.871843 178.033747 
L 372.152606 174.756197 
L 375.433368 185.176581 
L 378.71413 185.753751 
L 381.994892 187.027315 
L 385.275654 174.634146 
L 388.556416 175.895836 
L 391.837179 172.01508 
L 395.117941 173.98527 
L 398.398703 187.337028 
L 401.679465 177.948553 
L 404.960227 158.079592 
" clip-path="url(#p2dde1803da)" style="fill: none; stroke: #55a868; stroke-width: 1.5; stroke-linecap: round"/>
   </g>
   <g id="patch_3">
    <path d="M 63.925 240.7 
L 63.925 14.8 
" style="fill: none; stroke: #ffffff; stroke-width: 1.25; stroke-linejoin: miter; stroke-linecap: square"/>
   </g>
   <g id="patch_4">
    <path d="M 421.2 240.7 
L 421.2 14.8 
" style="fill: none; stroke: #ffffff; stroke-width: 1.25; stroke-linejoin: miter; stroke-linecap: square"/>
   </g>
   <g id="patch_5">
    <path d="M 63.925 240.7 
L 421.2 240.7 
" style="fill: none; stroke: #ffffff; stroke-width: 1.25; stroke-linejoin: miter; stroke-linecap: square"/>
   </g>
   <g id="patch_6">
    <path d="M 63.925 14.8 
L 421.2 14.8 
" style="fill: none; stroke: #ffffff; stroke-width: 1.25; stroke-linejoin: miter; stroke-linecap: square"/>
   </g>
   <g id="legend_1">
    <g id="patch_7">
     <path d="M 275.506719 72.037813 
L 413.5 72.037813 
Q 415.7 72.037813 415.7 69.837813 
L 415.7 22.5 
Q 415.7 20.3 413.5 20.3 
L 275.506719 20.3 
Q 273.306719 20.3 273.306719 22.5 
L 273.306719 69.837813 
Q 273.306719 72.037813 275.506719 72.037813 
z
" style="fill: #eaeaf2; opacity: 0.8; stroke: #cccccc; stroke-linejoin: miter"/>
    </g>
    <g id="line2d_16">
     <path d="M 277.706719 29.208281 
L 288.706719 29.208281 
L 299.706719 29.208281 
" style="fill: none; stroke: #4c72b0; stroke-width: 1.5; stroke-linecap: round"/>
    </g>
    <g id="text_15">
     <!-- Local Linearisation -->
     <g style="fill: #262626" transform="translate(308.506719 33.058281)scale(0.11 -0.11)">
      <defs>
       <path id="DejaVuSans-4c" d="M 628 4666 
L 1259 4666 
L 1259 531 
L 3531 531 
L 3531 0 
L 628 0 
L 628 4666 
z
" transform="scale(0.015625)"/>
       <path id="DejaVuSans-63" d="M 3122 3366 
L 3122 2828 
Q 2878 2963 2633 3030 
Q 2388 3097 2138 3097 
Q 1578 3097 1268 2742 
Q 959 2388 959 1747 
Q 959 1106 1268 751 
Q 1578 397 2138 397 
Q 2388 397 2633 464 
Q 2878 531 3122 666 
L 3122 134 
Q 2881 22 2623 -34 
Q 2366 -91 2075 -91 
Q 1284 -91 818 406 
Q 353 903 353 1747 
Q 353 2603 823 3093 
Q 1294 3584 2113 3584 
Q 2378 3584 2631 3529 
Q 2884 3475 3122 3366 
z
" transform="scale(0.015625)"/>
       <path id="DejaVuSans-6c" d="M 603 4863 
L 1178 4863 
L 1178 0 
L 603 0 
L 603 4863 
z
" transform="scale(0.015625)"/>
      </defs>
      <use xlink:href="#DejaVuSans-4c"/>
      <use xlink:href="#DejaVuSans-6f" x="53.962891"/>
      <use xlink:href="#DejaVuSans-63" x="115.144531"/>
      <use xlink:href="#DejaVuSans-61" x="170.125"/>
      <use xlink:href="#DejaVuSans-6c" x="231.404297"/>
      <use xlink:href="#DejaVuSans-20" x="259.1875"/>
      <use xlink:href="#DejaVuSans-4c" x="290.974609"/>
      <use xlink:href="#DejaVuSans-69" x="346.6875"/>
      <use xlink:href="#DejaVuSans-6e" x="374.470703"/>
      <use xlink:href="#DejaVuSans-65" x="437.849609"/>
      <use xlink:href="#DejaVuSans-61" x="499.373047"/>
      <use xlink:href="#DejaVuSans-72" x="560.652344"/>
      <use xlink:href="#DejaVuSans-69" x="601.765625"/>
      <use xlink:href="#DejaVuSans-73" x="629.548828"/>
      <use xlink:href="#DejaVuSans-61" x="681.648438"/>
      <use xlink:href="#DejaVuSans-74" x="742.927734"/>
      <use xlink:href="#DejaVuSans-69" x="782.136719"/>
      <use xlink:href="#DejaVuSans-6f" x="809.919922"/>
      <use xlink:href="#DejaVuSans-6e" x="871.101562"/>
     </g>
    </g>
    <g id="line2d_17">
     <path d="M 277.706719 45.354219 
L 288.706719 45.354219 
L 299.706719 45.354219 
" style="fill: none; stroke: #dd8452; stroke-width: 1.5; stroke-linecap: round"/>
    </g>
    <g id="text_16">
     <!-- Forward KL -->
     <g style="fill: #262626" transform="translate(308.506719 49.204219)scale(0.11 -0.11)">
      <defs>
       <path id="DejaVuSans-46" d="M 628 4666 
L 3309 4666 
L 3309 4134 
L 1259 4134 
L 1259 2759 
L 3109 2759 
L 3109 2228 
L 1259 2228 
L 1259 0 
L 628 0 
L 628 4666 
z
" transform="scale(0.015625)"/>
       <path id="DejaVuSans-77" d="M 269 3500 
L 844 3500 
L 1563 769 
L 2278 3500 
L 2956 3500 
L 3675 769 
L 4391 3500 
L 4966 3500 
L 4050 0 
L 3372 0 
L 2619 2869 
L 1863 0 
L 1184 0 
L 269 3500 
z
" transform="scale(0.015625)"/>
       <path id="DejaVuSans-64" d="M 2906 2969 
L 2906 4863 
L 3481 4863 
L 3481 0 
L 2906 0 
L 2906 525 
Q 2725 213 2448 61 
Q 2172 -91 1784 -91 
Q 1150 -91 751 415 
Q 353 922 353 1747 
Q 353 2572 751 3078 
Q 1150 3584 1784 3584 
Q 2172 3584 2448 3432 
Q 2725 3281 2906 2969 
z
M 947 1747 
Q 947 1113 1208 752 
Q 1469 391 1925 391 
Q 2381 391 2643 752 
Q 2906 1113 2906 1747 
Q 2906 2381 2643 2742 
Q 2381 3103 1925 3103 
Q 1469 3103 1208 2742 
Q 947 2381 947 1747 
z
" transform="scale(0.015625)"/>
       <path id="DejaVuSans-4b" d="M 628 4666 
L 1259 4666 
L 1259 2694 
L 3353 4666 
L 4166 4666 
L 1850 2491 
L 4331 0 
L 3500 0 
L 1259 2247 
L 1259 0 
L 628 0 
L 628 4666 
z
" transform="scale(0.015625)"/>
      </defs>
      <use xlink:href="#DejaVuSans-46"/>
      <use xlink:href="#DejaVuSans-6f" x="53.894531"/>
      <use xlink:href="#DejaVuSans-72" x="115.076172"/>
      <use xlink:href="#DejaVuSans-77" x="156.189453"/>
      <use xlink:href="#DejaVuSans-61" x="237.976562"/>
      <use xlink:href="#DejaVuSans-72" x="299.255859"/>
      <use xlink:href="#DejaVuSans-64" x="338.619141"/>
      <use xlink:href="#DejaVuSans-20" x="402.095703"/>
      <use xlink:href="#DejaVuSans-4b" x="433.882812"/>
      <use xlink:href="#DejaVuSans-4c" x="499.458984"/>
     </g>
    </g>
    <g id="line2d_18">
     <path d="M 277.706719 61.500156 
L 288.706719 61.500156 
L 299.706719 61.500156 
" style="fill: none; stroke: #55a868; stroke-width: 1.5; stroke-linecap: round"/>
    </g>
    <g id="text_17">
     <!-- Reverse KL -->
     <g style="fill: #262626" transform="translate(308.506719 65.350156)scale(0.11 -0.11)">
      <defs>
       <path id="DejaVuSans-52" d="M 2841 2188 
Q 3044 2119 3236 1894 
Q 3428 1669 3622 1275 
L 4263 0 
L 3584 0 
L 2988 1197 
Q 2756 1666 2539 1819 
Q 2322 1972 1947 1972 
L 1259 1972 
L 1259 0 
L 628 0 
L 628 4666 
L 2053 4666 
Q 2853 4666 3247 4331 
Q 3641 3997 3641 3322 
Q 3641 2881 3436 2590 
Q 3231 2300 2841 2188 
z
M 1259 4147 
L 1259 2491 
L 2053 2491 
Q 2509 2491 2742 2702 
Q 2975 2913 2975 3322 
Q 2975 3731 2742 3939 
Q 2509 4147 2053 4147 
L 1259 4147 
z
" transform="scale(0.015625)"/>
      </defs>
      <use xlink:href="#DejaVuSans-52"/>
      <use xlink:href="#DejaVuSans-65" x="64.982422"/>
      <use xlink:href="#DejaVuSans-76" x="126.505859"/>
      <use xlink:href="#DejaVuSans-65" x="185.685547"/>
      <use xlink:href="#DejaVuSans-72" x="247.208984"/>
      <use xlink:href="#DejaVuSans-73" x="288.322266"/>
      <use xlink:href="#DejaVuSans-65" x="340.421875"/>
      <use xlink:href="#DejaVuSans-20" x="401.945312"/>
      <use xlink:href="#DejaVuSans-4b" x="433.732422"/>
      <use xlink:href="#DejaVuSans-4c" x="499.308594"/>
     </g>
    </g>
   </g>
  </g>
 </g>
 <defs>
  <clipPath id="p2dde1803da">
   <rect x="63.925" y="14.8" width="357.275" height="225.9"/>
  </clipPath>
 </defs>
</svg>
