<?xml version="1.0" encoding="UTF-8" standalone="no"?>
<!-- Created with Inkscape (http://www.inkscape.org/) -->

<svg
   width="210mm"
   height="297mm"
   viewBox="0 0 210 297"
   version="1.1"
   id="svg8"
   inkscape:version="1.1.2 (b8e25be833, 2022-02-05)"
   sodipodi:docname="system.svg"
   xmlns:inkscape="http://www.inkscape.org/namespaces/inkscape"
   xmlns:sodipodi="http://sodipodi.sourceforge.net/DTD/sodipodi-0.dtd"
   xmlns="http://www.w3.org/2000/svg"
   xmlns:svg="http://www.w3.org/2000/svg"
   xmlns:rdf="http://www.w3.org/1999/02/22-rdf-syntax-ns#"
   xmlns:cc="http://creativecommons.org/ns#"
   xmlns:dc="http://purl.org/dc/elements/1.1/">
  <defs
     id="defs2">
    <rect
       x="178.21429"
       y="742.85714"
       width="75"
       height="46.071429"
       id="rect9356" />
    <inkscape:path-effect
       effect="simplify"
       id="path-effect3042"
       is_visible="true"
       steps="1"
       threshold="0.00674091"
       smooth_angles="360"
       helper_size="0"
       simplify_individual_paths="false"
       simplify_just_coalesce="false"
       simplifyindividualpaths="false"
       simplifyJustCoalesce="false" />
    <inkscape:path-effect
       effect="simplify"
       id="path-effect2888"
       is_visible="true"
       steps="1"
       threshold="0.00674091"
       smooth_angles="360"
       helper_size="0"
       simplify_individual_paths="false"
       simplify_just_coalesce="false"
       simplifyindividualpaths="false"
       simplifyJustCoalesce="false" />
    <inkscape:path-effect
       effect="simplify"
       id="path-effect2654"
       is_visible="true"
       steps="1"
       threshold="0.00674091"
       smooth_angles="360"
       helper_size="0"
       simplify_individual_paths="false"
       simplify_just_coalesce="false"
       simplifyindividualpaths="false"
       simplifyJustCoalesce="false" />
    <inkscape:path-effect
       effect="simplify"
       id="path-effect1728"
       is_visible="true"
       steps="1"
       threshold="0.00674091"
       smooth_angles="360"
       helper_size="0"
       simplify_individual_paths="false"
       simplify_just_coalesce="false"
       simplifyindividualpaths="false"
       simplifyJustCoalesce="false" />
    <marker
       inkscape:stockid="Arrow1Mend"
       orient="auto"
       refY="0.0"
       refX="0.0"
       id="Arrow1Mend"
       style="overflow:visible;"
       inkscape:isstock="true">
      <path
         id="path875"
         d="M 0.0,0.0 L 5.0,-5.0 L -12.5,0.0 L 5.0,5.0 L 0.0,0.0 z "
         style="fill-rule:evenodd;stroke:#000000;stroke-width:1pt;stroke-opacity:1;fill:#000000;fill-opacity:1"
         transform="scale(0.4) rotate(180) translate(10,0)" />
    </marker>
    <marker
       inkscape:stockid="Arrow1Lend"
       orient="auto"
       refY="0.0"
       refX="0.0"
       id="Arrow1Lend"
       style="overflow:visible;"
       inkscape:isstock="true">
      <path
         id="path869"
         d="M 0.0,0.0 L 5.0,-5.0 L -12.5,0.0 L 5.0,5.0 L 0.0,0.0 z "
         style="fill-rule:evenodd;stroke:#000000;stroke-width:1pt;stroke-opacity:1;fill:#000000;fill-opacity:1"
         transform="scale(0.8) rotate(180) translate(12.5,0)" />
    </marker>
    <inkscape:path-effect
       effect="simplify"
       id="path-effect59"
       is_visible="true"
       steps="1"
       threshold="0.00674091"
       smooth_angles="360"
       helper_size="0"
       simplify_individual_paths="false"
       simplify_just_coalesce="false"
       simplifyindividualpaths="false"
       simplifyJustCoalesce="false" />
    <marker
       inkscape:stockid="Arrow1Mend"
       orient="auto"
       refY="0"
       refX="0"
       id="Arrow1Mend-5"
       style="overflow:visible"
       inkscape:isstock="true">
      <path
         inkscape:connector-curvature="0"
         id="path875-6"
         d="M 0,0 5,-5 -12.5,0 5,5 Z"
         style="fill:#000000;fill-opacity:1;fill-rule:evenodd;stroke:#000000;stroke-width:1.00000003pt;stroke-opacity:1"
         transform="matrix(-0.4,0,0,-0.4,-4,0)" />
    </marker>
    <inkscape:path-effect
       effect="simplify"
       id="path-effect59-0"
       is_visible="true"
       steps="1"
       threshold="0.00674091"
       smooth_angles="360"
       helper_size="0"
       simplify_individual_paths="false"
       simplify_just_coalesce="false"
       simplifyindividualpaths="false"
       simplifyJustCoalesce="false" />
    <marker
       inkscape:stockid="Arrow1Mend"
       orient="auto"
       refY="0"
       refX="0"
       id="Arrow1Mend-6"
       style="overflow:visible"
       inkscape:isstock="true">
      <path
         inkscape:connector-curvature="0"
         id="path875-7"
         d="M 0,0 5,-5 -12.5,0 5,5 Z"
         style="fill:#ff0000;fill-opacity:1;fill-rule:evenodd;stroke:#ff0000;stroke-width:1.00000003pt;stroke-opacity:1"
         transform="matrix(-0.4,0,0,-0.4,-4,0)" />
    </marker>
    <inkscape:path-effect
       effect="simplify"
       id="path-effect59-7"
       is_visible="true"
       steps="1"
       threshold="0.00674091"
       smooth_angles="360"
       helper_size="0"
       simplify_individual_paths="false"
       simplify_just_coalesce="false"
       simplifyindividualpaths="false"
       simplifyJustCoalesce="false" />
    <marker
       inkscape:stockid="Arrow1Mend"
       orient="auto"
       refY="0"
       refX="0"
       id="Arrow1Mend-0"
       style="overflow:visible"
       inkscape:isstock="true">
      <path
         inkscape:connector-curvature="0"
         id="path875-1"
         d="M 0,0 5,-5 -12.5,0 5,5 Z"
         style="fill:#006680;fill-opacity:1;fill-rule:evenodd;stroke:#006680;stroke-width:1.00000003pt;stroke-opacity:1"
         transform="matrix(-0.4,0,0,-0.4,-4,0)" />
    </marker>
    <inkscape:path-effect
       effect="simplify"
       id="path-effect59-08"
       is_visible="true"
       steps="1"
       threshold="0.00674091"
       smooth_angles="360"
       helper_size="0"
       simplify_individual_paths="false"
       simplify_just_coalesce="false"
       simplifyindividualpaths="false"
       simplifyJustCoalesce="false" />
    <marker
       inkscape:stockid="Arrow1Mend"
       orient="auto"
       refY="0"
       refX="0"
       id="Arrow1Mend-0-1"
       style="overflow:visible"
       inkscape:isstock="true">
      <path
         inkscape:connector-curvature="0"
         id="path875-1-8"
         d="M 0,0 5,-5 -12.5,0 5,5 Z"
         style="fill:#006680;fill-opacity:1;fill-rule:evenodd;stroke:#006680;stroke-width:1.00000003pt;stroke-opacity:1"
         transform="matrix(-0.4,0,0,-0.4,-4,0)" />
    </marker>
    <inkscape:path-effect
       effect="simplify"
       id="path-effect59-08-2"
       is_visible="true"
       steps="1"
       threshold="0.00674091"
       smooth_angles="360"
       helper_size="0"
       simplify_individual_paths="false"
       simplify_just_coalesce="false"
       simplifyindividualpaths="false"
       simplifyJustCoalesce="false" />
    <marker
       inkscape:stockid="Arrow1Mend"
       orient="auto"
       refY="0"
       refX="0"
       id="Arrow1Mend-0-1-1"
       style="overflow:visible"
       inkscape:isstock="true">
      <path
         inkscape:connector-curvature="0"
         id="path875-1-8-6"
         d="M 0,0 5,-5 -12.5,0 5,5 Z"
         style="fill:#000000;fill-opacity:1;fill-rule:evenodd;stroke:#000000;stroke-width:1.00000003pt;stroke-opacity:1"
         transform="matrix(-0.4,0,0,-0.4,-4,0)" />
    </marker>
    <inkscape:path-effect
       effect="simplify"
       id="path-effect59-08-2-6"
       is_visible="true"
       steps="1"
       threshold="0.00674091"
       smooth_angles="360"
       helper_size="0"
       simplify_individual_paths="false"
       simplify_just_coalesce="false"
       simplifyindividualpaths="false"
       simplifyJustCoalesce="false" />
    <marker
       inkscape:stockid="Arrow1Mend"
       orient="auto"
       refY="0"
       refX="0"
       id="Arrow1Mend-0-1-6"
       style="overflow:visible"
       inkscape:isstock="true">
      <path
         inkscape:connector-curvature="0"
         id="path875-1-8-9"
         d="M 0,0 5,-5 -12.5,0 5,5 Z"
         style="fill:#ff0000;fill-opacity:1;fill-rule:evenodd;stroke:#ff0000;stroke-width:1.00000003pt;stroke-opacity:1"
         transform="matrix(-0.4,0,0,-0.4,-4,0)" />
    </marker>
    <inkscape:path-effect
       effect="simplify"
       id="path-effect59-08-2-4"
       is_visible="true"
       steps="1"
       threshold="0.00674091"
       smooth_angles="360"
       helper_size="0"
       simplify_individual_paths="false"
       simplify_just_coalesce="false"
       simplifyindividualpaths="false"
       simplifyJustCoalesce="false" />
    <marker
       inkscape:stockid="Arrow1Mend"
       orient="auto"
       refY="0"
       refX="0"
       id="Arrow1Mend-0-1-6-8"
       style="overflow:visible"
       inkscape:isstock="true">
      <path
         inkscape:connector-curvature="0"
         id="path875-1-8-9-3"
         d="M 0,0 5,-5 -12.5,0 5,5 Z"
         style="fill:#000000;fill-opacity:1;fill-rule:evenodd;stroke:#000000;stroke-width:1.00000003pt;stroke-opacity:1"
         transform="matrix(-0.4,0,0,-0.4,-4,0)" />
    </marker>
    <inkscape:path-effect
       effect="simplify"
       id="path-effect59-08-2-4-5"
       is_visible="true"
       steps="1"
       threshold="0.00674091"
       smooth_angles="360"
       helper_size="0"
       simplify_individual_paths="false"
       simplify_just_coalesce="false"
       simplifyindividualpaths="false"
       simplifyJustCoalesce="false" />
    <inkscape:path-effect
       effect="simplify"
       id="path-effect59-08-2-4-5-6"
       is_visible="true"
       steps="1"
       threshold="0.00674091"
       smooth_angles="360"
       helper_size="0"
       simplify_individual_paths="false"
       simplify_just_coalesce="false"
       simplifyindividualpaths="false"
       simplifyJustCoalesce="false" />
    <inkscape:path-effect
       effect="simplify"
       id="path-effect59-08-2-4-5-66"
       is_visible="true"
       steps="1"
       threshold="0.00674091"
       smooth_angles="360"
       helper_size="0"
       simplify_individual_paths="false"
       simplify_just_coalesce="false"
       simplifyindividualpaths="false"
       simplifyJustCoalesce="false" />
    <marker
       inkscape:stockid="Arrow1Mend"
       orient="auto"
       refY="0"
       refX="0"
       id="Arrow1Mend-0-6"
       style="overflow:visible"
       inkscape:isstock="true">
      <path
         inkscape:connector-curvature="0"
         id="path875-1-7"
         d="M 0,0 5,-5 -12.5,0 5,5 Z"
         style="fill:#ff0000;fill-opacity:1;fill-rule:evenodd;stroke:#ff0000;stroke-width:1.00000003pt;stroke-opacity:1"
         transform="matrix(-0.4,0,0,-0.4,-4,0)" />
    </marker>
    <inkscape:path-effect
       effect="simplify"
       id="path-effect59-08-9"
       is_visible="true"
       steps="1"
       threshold="0.00674091"
       smooth_angles="360"
       helper_size="0"
       simplify_individual_paths="false"
       simplify_just_coalesce="false"
       simplifyindividualpaths="false"
       simplifyJustCoalesce="false" />
    <marker
       inkscape:stockid="Arrow1Mend"
       orient="auto"
       refY="0"
       refX="0"
       id="Arrow1Mend-0-1-67"
       style="overflow:visible"
       inkscape:isstock="true">
      <path
         inkscape:connector-curvature="0"
         id="path875-1-8-0"
         d="M 0,0 5,-5 -12.5,0 5,5 Z"
         style="fill:#000000;fill-opacity:1;fill-rule:evenodd;stroke:#000000;stroke-width:1.00000003pt;stroke-opacity:1"
         transform="matrix(-0.4,0,0,-0.4,-4,0)" />
    </marker>
    <inkscape:path-effect
       effect="simplify"
       id="path-effect59-08-2-1"
       is_visible="true"
       steps="1"
       threshold="0.00674091"
       smooth_angles="360"
       helper_size="0"
       simplify_individual_paths="false"
       simplify_just_coalesce="false"
       simplifyindividualpaths="false"
       simplifyJustCoalesce="false" />
  </defs>
  <sodipodi:namedview
     id="base"
     pagecolor="#ffffff"
     bordercolor="#666666"
     borderopacity="1.0"
     inkscape:pageopacity="0.0"
     inkscape:pageshadow="2"
     inkscape:zoom="0.49497475"
     inkscape:cx="304.05592"
     inkscape:cy="629.32504"
     inkscape:document-units="mm"
     inkscape:current-layer="g5121"
     showgrid="false"
     inkscape:window-width="1920"
     inkscape:window-height="1001"
     inkscape:window-x="-9"
     inkscape:window-y="-9"
     inkscape:window-maximized="1"
     showguides="false"
     inkscape:pagecheckerboard="0">
    <inkscape:grid
       type="xygrid"
       id="grid10" />
  </sodipodi:namedview>
  <metadata
     id="metadata5">
    <rdf:RDF>
      <cc:Work
         rdf:about="">
        <dc:format>image/svg+xml</dc:format>
        <dc:type
           rdf:resource="http://purl.org/dc/dcmitype/StillImage" />
        <dc:title />
      </cc:Work>
    </rdf:RDF>
  </metadata>
  <g
     inkscape:label="Layer 1"
     inkscape:groupmode="layer"
     id="layer1">
    <flowRoot
       xml:space="preserve"
       id="flowRoot2128"
       style="font-style:normal;font-variant:normal;font-weight:normal;font-stretch:normal;font-size:40px;line-height:1.25;font-family:DIn;-inkscape-font-specification:DIn;letter-spacing:0px;word-spacing:0px;fill:#000000;fill-opacity:1;stroke:none"><flowRegion
         id="flowRegion2130"><rect
           id="rect2132"
           width="600"
           height="370"
           x="560"
           y="122.51968" /></flowRegion><flowPara
         id="flowPara2134" /></flowRoot>
    <g
       id="g4139"
       transform="translate(-21.112608,30.943152)" />
    <g
       id="g5121"
       inkscape:export-xdpi="300"
       inkscape:export-ydpi="300">
      <g
         id="g11004"
         inkscape:export-filename="C:\Users\Matthew Bilton\Documents\Software Projects\bayesian_oed_bilton_masters\chapter_2\figs\drawings\system.png"
         inkscape:export-xdpi="300"
         inkscape:export-ydpi="300">
        <rect
           ry="0"
           y="99.339661"
           x="26.331066"
           height="39.687504"
           width="95.25"
           id="rect12"
           style="opacity:1;fill:none;fill-opacity:1;stroke:#006680;stroke-width:0.86602545;stroke-miterlimit:4;stroke-dasharray:none;stroke-dashoffset:0;stroke-opacity:1" />
        <path
           inkscape:connector-curvature="0"
           id="path51"
           d="m 174.35848,149.61049 c 0,-0.18221 0.62561,-0.42857 1.39026,-0.54762 2.32216,-0.36155 6.45626,-1.6323 7.60315,-2.33709 0.59493,-0.36558 1.19542,-0.6647 1.33442,-0.6647 0.68879,0 4.49853,-3.4208 6.54256,-5.87462 3.52822,-4.23558 7.49589,-11.33037 11.80708,-21.113 6.64863,-15.08651 10.43746,-21.351703 13.86694,-22.930342 1.73017,-0.796416 3.81441,-0.543943 5.38688,0.652536 1.95953,1.490975 5.63063,6.839556 7.54241,10.988866 0.17878,0.38805 1.20467,2.56981 2.27968,4.84835 1.07504,2.27854 1.95465,4.21941 1.95465,4.31304 0,0.42609 6.12784,13.0107 7.56361,15.53316 5.2731,9.26432 10.08508,13.75384 16.80589,15.67976 1.32619,0.38002 3.03691,0.78762 3.80154,0.90574 1.39975,0.21634 1.95733,0.88108 0.73174,0.87246 -1.39234,-0.01 -6.03308,-1.37163 -8.33918,-2.44718 -2.84091,-1.32494 -6.27655,-4.18439 -8.65685,-7.205 -2.85656,-3.62493 -6.64299,-10.23216 -9.67914,-16.88984 -0.4203,-0.92164 -1.10924,-2.42977 -1.53097,-3.35141 -0.42173,-0.92164 -1.23272,-2.70758 -1.80216,-3.96877 -3.99908,-8.85718 -6.19455,-12.95632 -8.59784,-16.05289 -5.85429,-7.543203 -9.98494,-4.228224 -18.80002,15.08767 -0.37508,0.82192 -1.50854,3.32002 -2.51881,5.55135 -5.96767,13.1805 -10.90945,20.82392 -15.90646,24.60233 -3.49018,2.63904 -12.77937,5.79899 -12.77938,4.3472 z"
           style="fill:#006680;stroke-width:0.32133031" />
        <path
           inkscape:original-d="M 182.75149,104.23214 V 43.000001"
           inkscape:path-effect="#path-effect59"
           inkscape:connector-curvature="0"
           id="path57"
           d="m 182.75149,104.23214 c 0,-20.410713 0,-40.821426 0,-61.232139"
           style="fill:none;stroke:#000000;stroke-width:0.80000001;stroke-linecap:butt;stroke-linejoin:miter;stroke-miterlimit:4;stroke-dasharray:none;stroke-opacity:1;marker-end:url(#Arrow1Mend)"
           transform="translate(-10.849943,45.756323)" />
        <path
           inkscape:original-d="M 182.75149,104.23214 V 43.000001"
           inkscape:path-effect="#path-effect59-0"
           inkscape:connector-curvature="0"
           id="path57-8"
           d="m 182.75149,104.23214 c 0,-20.410713 0,-40.821426 0,-61.232139"
           style="fill:none;stroke:#000000;stroke-width:0.48721802;stroke-linecap:butt;stroke-linejoin:miter;stroke-miterlimit:4;stroke-dasharray:none;stroke-opacity:1;marker-end:url(#Arrow1Mend-5)"
           transform="matrix(0,1.6419754,-1.6419754,0,342.85926,-150.46296)" />
        <path
           inkscape:connector-curvature="0"
           id="path2112"
           d="m 179.91676,148.83333 c 2.56635,-0.93621 5.18292,-2.16928 6.58152,-3.10156 4.21585,-2.81022 8.49115,-8.66037 13.2921,-18.18838 1.34091,-2.66119 1.91769,-3.88509 4.36117,-9.25421 2.39959,-5.27266 3.40198,-7.4056 4.56885,-9.72193 3.89062,-7.72309 6.77263,-11.448389 9.37983,-12.124333 0.46781,-0.121288 1.31624,-0.134684 1.76044,-0.0278 2.19729,0.528724 4.86221,3.516074 7.71123,8.644213 1.47208,2.64971 2.91072,5.6451 6.50609,13.54635 1.30875,2.87614 2.76696,6.03914 3.24049,7.02889 2.96793,6.2037 6.63387,12.32193 9.2081,15.3678 1.96645,2.32673 4.68383,4.62935 7.03541,5.96158 1.13434,0.64264 2.75057,1.29802 4.73584,1.9204 l 0.96457,0.30239 -40.15724,1e-5 -40.15725,2e-5 z"
           style="opacity:0.37300002;fill:#006680;fill-opacity:1;stroke:#006680;stroke-width:0.20203049;stroke-miterlimit:4;stroke-dasharray:none;stroke-dashoffset:0;stroke-opacity:1" />
        <text
           id="text2122"
           y="151.67079"
           x="228.43727"
           style="font-style:normal;font-variant:normal;font-weight:normal;font-stretch:normal;font-size:7.92504px;line-height:1.25;font-family:DIn;-inkscape-font-specification:DIn;letter-spacing:0px;word-spacing:0px;fill:#ff0000;fill-opacity:1;stroke:none;stroke-width:0.198126"
           xml:space="preserve"><tspan
             style="fill:#ff0000;stroke-width:0.198126"
             y="151.67079"
             x="228.43727"
             id="tspan2120"
             sodipodi:role="line">x</tspan></text>
        <path
           d="m 159.99883,85.975715 c -0.0582,0.246616 -0.0719,0.296853 -0.39161,0.296853 -0.0879,0 -0.1667,0 -0.1667,0.13815 0,0.05823 0.0354,0.08677 0.0936,0.08677 0.19638,0 0.40646,-0.02169 0.60969,-0.02169 0.23977,0 0.48639,0.02169 0.7193,0.02169 0.0354,0 0.13016,0 0.13016,-0.145001 0,-0.07992 -0.0719,-0.07992 -0.17469,-0.07992 -0.36193,0 -0.36193,-0.05024 -0.36193,-0.115314 0,-0.08792 0.30485,-1.270764 0.35509,-1.452295 0.0948,0.21008 0.29799,0.464683 0.66791,0.464683 0.8426,0 1.74915,-1.059536 1.74915,-2.127058 0,-0.681625 -0.41331,-1.161157 -0.96477,-1.161157 -0.36308,0 -0.71131,0.261465 -0.95108,0.544616 -0.0731,-0.392758 -0.38476,-0.544616 -0.65307,-0.544616 -0.33453,0 -0.47268,0.283152 -0.53776,0.413314 -0.13016,0.246617 -0.22492,0.682758 -0.22492,0.704453 0,0.07307 0.0731,0.07307 0.0868,0.07307 0.0731,0 0.0799,-0.008 0.12331,-0.167837 0.12445,-0.51492 0.26945,-0.863157 0.53091,-0.863157 0.12331,0 0.22492,0.05823 0.22492,0.333389 0,0.166698 -0.0217,0.246616 -0.0514,0.371071 z m 1.27761,-3.151206 c 0.0514,-0.195239 0.24662,-0.398466 0.37792,-0.508073 0.25347,-0.224928 0.46469,-0.275165 0.588,-0.275165 0.28999,0 0.46354,0.25347 0.46354,0.681625 0,0.429295 -0.23862,1.263902 -0.36993,1.539067 -0.24661,0.508073 -0.59484,0.747835 -0.86315,0.747835 -0.47953,0 -0.57429,-0.602839 -0.57429,-0.646221 0,-0.0137 0,-0.02854 0.0228,-0.115314 l 0.35508,-1.423754"
           style="fill:#006680;fill-opacity:1;fill-rule:nonzero;stroke:none;stroke-width:0.07307144"
           id="path2175"
           inkscape:connector-curvature="0" />
        <path
           d="m 165.72809,86.832021 c 0,-0.02169 0,-0.03654 -0.12331,-0.159844 -0.90654,-0.914536 -1.13945,-2.286906 -1.13945,-3.396678 0,-1.263909 0.2763,-2.526679 1.16914,-3.434358 0.0936,-0.08677 0.0936,-0.10162 0.0936,-0.123308 0,-0.05024 -0.0285,-0.07193 -0.0719,-0.07193 -0.0731,0 -0.72615,0.493232 -1.1543,1.415759 -0.36992,0.798079 -0.45784,1.604144 -0.45784,2.213838 0,0.565156 0.0799,1.444301 0.47953,2.264067 0.43501,0.892846 1.05954,1.364385 1.13261,1.364385 0.0434,0 0.0719,-0.02169 0.0719,-0.07193"
           style="fill:#006680;fill-opacity:1;fill-rule:nonzero;stroke:none;stroke-width:0.07307144"
           id="path2177"
           inkscape:connector-curvature="0" />
        <path
           d="m 169.70361,82.324423 c 0.0286,-0.101613 0.0286,-0.116454 0.0286,-0.166691 0,-0.131302 -0.10165,-0.196379 -0.21008,-0.196379 -0.0731,0 -0.18838,0.04338 -0.25459,0.15185 -0.0137,0.03654 -0.072,0.261457 -0.10164,0.392759 -0.0503,0.188385 -0.10164,0.384765 -0.14497,0.580004 l -0.32656,1.307292 c -0.0286,0.108467 -0.34139,0.61654 -0.81979,0.61654 -0.37105,0 -0.44982,-0.319687 -0.44982,-0.587991 0,-0.333388 0.12327,-0.784378 0.36988,-1.422613 0.11531,-0.297993 0.14505,-0.377918 0.14505,-0.522914 0,-0.326542 -0.23295,-0.594853 -0.59487,-0.594853 -0.68962,0 -0.95907,1.05269 -0.95907,1.117767 0,0.07307 0.0731,0.07307 0.0879,0.07307 0.0719,0 0.0799,-0.01484 0.11532,-0.131302 0.19639,-0.681617 0.48641,-0.899692 0.73303,-0.899692 0.0582,0 0.18151,0 0.18151,0.231776 0,0.181538 -0.0719,0.369924 -0.12335,0.508073 -0.28995,0.769537 -0.42016,1.183991 -0.42016,1.524226 0,0.646229 0.4567,0.864296 0.8849,0.864296 0.28315,0 0.52976,-0.123308 0.73298,-0.326534 -0.0936,0.376771 -0.18151,0.732994 -0.47153,1.117766 -0.18838,0.246614 -0.46467,0.456695 -0.79809,0.456695 -0.10164,0 -0.42813,-0.02169 -0.55146,-0.304845 0.1153,0 0.21007,0 0.31171,-0.08677 0.0731,-0.06508 0.14498,-0.159844 0.14498,-0.297993 0,-0.224928 -0.19635,-0.25347 -0.26832,-0.25347 -0.16668,0 -0.40644,0.116461 -0.40644,0.471537 0,0.363078 0.3197,0.631386 0.76953,0.631386 0.74781,0 1.49453,-0.659927 1.69774,-1.480841 l 0.69761,-2.772148"
           style="fill:#006680;fill-opacity:1;fill-rule:nonzero;stroke:none;stroke-width:0.07307144"
           id="path2179"
           inkscape:connector-curvature="0" />
        <path
           d="m 171.20275,79.907359 c 0,-0.131302 0,-0.261457 -0.14498,-0.261457 -0.14504,0 -0.14504,0.130155 -0.14504,0.261457 v 6.736274 c 0,0.130159 0,0.260318 0.14504,0.260318 0.14498,0 0.14498,-0.130159 0.14498,-0.260318 v -6.736274"
           style="fill:#006680;fill-opacity:1;fill-rule:nonzero;stroke:none;stroke-width:0.07307144"
           id="path2181"
           inkscape:connector-curvature="0" />
        <path
           d="m 175.32442,81.460127 c 0,-0.478392 -0.13131,-1.487691 -0.87116,-1.487691 -1.00926,0 -2.12704,2.047148 -2.12704,3.709523 0,0.681618 0.21008,1.487683 0.87116,1.487683 1.023,0 2.12704,-2.083676 2.12704,-3.709515 z m -2.22868,0.994458 c 0.12334,-0.46469 0.26832,-1.044695 0.55834,-1.560762 0.19634,-0.355083 0.46466,-0.761543 0.79121,-0.761543 0.35623,0 0.39963,0.46469 0.39963,0.878004 0,0.356224 -0.0582,0.726148 -0.23178,1.444301 z m 1.4512,0.232915 c -0.0788,0.333389 -0.23179,0.949929 -0.50814,1.472843 -0.25341,0.494379 -0.52977,0.849455 -0.84142,0.849455 -0.23975,0 -0.39166,-0.21008 -0.39166,-0.885991 0,-0.304839 0.0434,-0.725 0.23178,-1.436307 h 1.50944"
           style="fill:#006680;fill-opacity:1;fill-rule:nonzero;stroke:none;stroke-width:0.07307144"
           id="path2183"
           inkscape:connector-curvature="0" />
        <path
           d="m 177.07587,85.08287 c 0,-0.479531 -0.18151,-0.762683 -0.46467,-0.762683 -0.23982,0 -0.38479,0.181538 -0.38479,0.384772 0,0.19638 0.14497,0.384765 0.38479,0.384765 0.0867,0 0.18151,-0.02854 0.25342,-0.09477 0.0217,-0.0137 0.0297,-0.0217 0.0365,-0.0217 0.007,0 0.0148,0.008 0.0148,0.109607 0,0.536622 -0.25459,0.972763 -0.49433,1.211391 -0.0799,0.07992 -0.0799,0.09477 -0.0799,0.116457 0,0.05138 0.0365,0.07992 0.0731,0.07992 0.0799,0 0.66108,-0.559455 0.66108,-1.40777"
           style="fill:#006680;fill-opacity:1;fill-rule:nonzero;stroke:none;stroke-width:0.07307144"
           id="path2185"
           inkscape:connector-curvature="0" />
        <path
           d="m 182.63616,80.13228 c 0,-0.008 0,-0.07992 -0.0948,-0.07992 -0.10961,0 -0.79809,0.06508 -0.92253,0.07992 -0.0571,0.0069 -0.10164,0.04339 -0.10164,0.138156 0,0.08677 0.0662,0.08677 0.17471,0.08677 0.34819,0 0.3631,0.05024 0.3631,0.123308 l -0.0217,0.144996 -0.43616,1.720606 c -0.13014,-0.268311 -0.34022,-0.464691 -0.66795,-0.464691 -0.84828,0 -1.74911,1.06753 -1.74911,2.127066 0,0.681618 0.39963,1.161149 0.96593,1.161149 0.14498,0 0.50807,-0.02854 0.94306,-0.544609 0.0582,0.304847 0.31282,0.544609 0.66108,0.544609 0.25341,0 0.42126,-0.16669 0.53657,-0.399606 0.12334,-0.261456 0.21811,-0.703312 0.21811,-0.718153 0,-0.07307 -0.0651,-0.07307 -0.0868,-0.07307 -0.0731,0 -0.0799,0.02968 -0.10157,0.131294 -0.12335,0.471545 -0.25466,0.899692 -0.55147,0.899692 -0.19642,0 -0.21812,-0.188385 -0.21812,-0.333388 0,-0.174685 0.0149,-0.224921 0.0434,-0.349369 z m -1.51053,4.093148 c -0.0365,0.131294 -0.0365,0.146143 -0.14505,0.269451 -0.31968,0.398466 -0.6165,0.514919 -0.81971,0.514919 -0.36309,0 -0.46474,-0.399605 -0.46474,-0.682757 0,-0.36193 0.23179,-1.254776 0.39846,-1.589304 0.22499,-0.428155 0.55264,-0.696466 0.84266,-0.696466 0.47153,0 0.5731,0.594853 0.5731,0.638235 0,0.04339 -0.0148,0.08791 -0.0216,0.123308 l -0.36309,1.422614"
           style="fill:#006680;fill-opacity:1;fill-rule:nonzero;stroke:none;stroke-width:0.07307144"
           id="path2187"
           inkscape:connector-curvature="0" />
        <path
           d="m 184.7141,83.275499 c 0,-0.566304 -0.0799,-1.445448 -0.4784,-2.265215 -0.43609,-0.892845 -1.05954,-1.364382 -1.13261,-1.364382 -0.0433,0 -0.0731,0.02854 -0.0731,0.07193 0,0.02169 0,0.03654 0.13818,0.167831 0.71127,0.71816 1.12574,1.872455 1.12574,3.389835 0,1.241067 -0.26942,2.518678 -1.16915,3.433214 -0.0948,0.08677 -0.0948,0.101615 -0.0948,0.123308 0,0.04339 0.0297,0.07193 0.0731,0.07193 0.0731,0 0.72618,-0.493233 1.15431,-1.414621 0.36996,-0.799219 0.4567,-1.604145 0.4567,-2.213831"
           style="fill:#006680;fill-opacity:1;fill-rule:nonzero;stroke:none;stroke-width:0.07307144"
           id="path2189"
           inkscape:connector-curvature="0" />
        <path
           d="m 279.26233,148.00038 c 0.0286,-0.10161 0.0286,-0.11645 0.0286,-0.16669 0,-0.1313 -0.10164,-0.19638 -0.21008,-0.19638 -0.0731,0 -0.18838,0.0434 -0.25458,0.15185 -0.0137,0.0365 -0.072,0.26146 -0.10165,0.39276 -0.0503,0.18838 -0.10164,0.38476 -0.14497,0.58 l -0.32656,1.30729 c -0.0286,0.10847 -0.34139,0.61655 -0.81978,0.61655 -0.37106,0 -0.44983,-0.31969 -0.44983,-0.588 0,-0.33338 0.12327,-0.78437 0.36989,-1.42261 0.1153,-0.29799 0.14504,-0.37792 0.14504,-0.52291 0,-0.32654 -0.23295,-0.59486 -0.59487,-0.59486 -0.68961,0 -0.95906,1.05269 -0.95906,1.11777 0,0.0731 0.0731,0.0731 0.0879,0.0731 0.0719,0 0.0799,-0.0148 0.11532,-0.1313 0.19639,-0.68162 0.48641,-0.89969 0.73303,-0.89969 0.0582,0 0.18151,0 0.18151,0.23177 0,0.18154 -0.0719,0.36993 -0.12335,0.50808 -0.28994,0.76953 -0.42016,1.18399 -0.42016,1.52422 0,0.64623 0.4567,0.8643 0.8849,0.8643 0.28315,0 0.52977,-0.12331 0.73298,-0.32654 -0.0936,0.37678 -0.18151,0.733 -0.47153,1.11777 -0.18838,0.24661 -0.46466,0.4567 -0.79809,0.4567 -0.10164,0 -0.42812,-0.0217 -0.55146,-0.30485 0.1153,0 0.21007,0 0.31172,-0.0868 0.0731,-0.0651 0.14497,-0.15985 0.14497,-0.29799 0,-0.22493 -0.19634,-0.25347 -0.26832,-0.25347 -0.16668,0 -0.40644,0.11646 -0.40644,0.47153 0,0.36308 0.3197,0.63139 0.76953,0.63139 0.74782,0 1.49453,-0.65993 1.69774,-1.48084 l 0.69762,-2.77215"
           style="fill:#ff0000;fill-opacity:1;fill-rule:nonzero;stroke:none;stroke-width:0.07307144"
           id="path2179-0"
           inkscape:connector-curvature="0" />
        <path
           inkscape:original-d="M 182.75149,104.23214 V 43.000001"
           inkscape:path-effect="#path-effect59-08"
           inkscape:connector-curvature="0"
           id="path57-2"
           d="m 182.75149,104.23214 c 0,-20.410713 0,-40.821426 0,-61.232139"
           style="fill:#006680;fill-opacity:1;stroke:#006680;stroke-width:0.64939225;stroke-linecap:butt;stroke-linejoin:miter;stroke-miterlimit:4;stroke-dasharray:none;stroke-opacity:1;marker-end:url(#Arrow1Mend-0)"
           transform="matrix(0,1,-0.71731714,0,199.91337,-62.245167)" />
        <path
           inkscape:original-d="M 182.75149,104.23214 V 43.000001"
           inkscape:path-effect="#path-effect59-08-2"
           inkscape:connector-curvature="0"
           id="path57-2-6"
           d="m 182.75149,104.23214 c 0,-20.410713 0,-40.821426 0,-61.232139"
           style="fill:none;stroke:#006680;stroke-width:0.50640868;stroke-linecap:butt;stroke-linejoin:miter;stroke-miterlimit:4;stroke-dasharray:none;stroke-opacity:1;marker-end:url(#Arrow1Mend-0-1)"
           transform="matrix(0,1.5807904,-0.65933256,0,51.897191,-168.38548)" />
        <text
           id="text2218-6"
           y="117.10919"
           x="73.242592"
           style="font-style:normal;font-variant:normal;font-weight:normal;font-stretch:normal;font-size:6.35px;line-height:1.25;font-family:'Palatino Linotype';-inkscape-font-specification:'Palatino Linotype';text-align:center;letter-spacing:0px;word-spacing:0px;text-anchor:middle;fill:#006680;fill-opacity:1;stroke:none;stroke-width:0.264583"
           xml:space="preserve"><tspan
             id="tspan2230-4"
             style="font-style:normal;font-variant:normal;font-weight:normal;font-stretch:normal;font-size:6.35px;font-family:'Palatino Linotype';-inkscape-font-specification:'Palatino Linotype';text-align:center;text-anchor:middle;fill:#006680;fill-opacity:1;stroke-width:0.264583"
             y="117.10919"
             x="74.036339"
             sodipodi:role="line">Mathematical model of </tspan><tspan
             style="font-style:normal;font-variant:normal;font-weight:normal;font-stretch:normal;font-size:6.35px;font-family:'Palatino Linotype';-inkscape-font-specification:'Palatino Linotype';text-align:center;text-anchor:middle;fill:#006680;fill-opacity:1;stroke-width:0.264583"
             y="125.04669"
             x="74.036339"
             sodipodi:role="line"
             id="tspan132">system with parameters  </tspan></text>
        <path
           inkscape:connector-curvature="0"
           id="path2183-8"
           style="fill:#006680;fill-opacity:1;fill-rule:nonzero;stroke:none;stroke-width:0.07307144"
           d="m 111.05198,121.99475 c 0,-0.47839 -0.13132,-1.48769 -0.87117,-1.48769 -1.00926,0 -2.12704,2.04715 -2.12704,3.70953 0,0.68161 0.21009,1.48768 0.87117,1.48768 1.023,0 2.12704,-2.08368 2.12704,-3.70952 z m -2.22868,0.99446 c 0.12334,-0.46469 0.26831,-1.04469 0.55833,-1.56076 0.19634,-0.35508 0.46467,-0.76154 0.79121,-0.76154 0.35624,0 0.39964,0.46469 0.39964,0.878 0,0.35622 -0.0582,0.72615 -0.23178,1.4443 z m 1.4512,0.23292 c -0.0788,0.33339 -0.23179,0.94993 -0.50814,1.47284 -0.25342,0.49438 -0.52978,0.84945 -0.84142,0.84945 -0.23975,0 -0.39166,-0.21008 -0.39166,-0.88599 0,-0.30484 0.0434,-0.725 0.23178,-1.4363 h 1.50944" />
        <rect
           style="opacity:1;fill:none;fill-opacity:1;stroke:#ff0000;stroke-width:0.86602545;stroke-miterlimit:4;stroke-dasharray:none;stroke-dashoffset:0;stroke-opacity:1"
           id="rect12-7"
           width="95.25"
           height="39.687504"
           x="26.420727"
           y="164.70833"
           ry="0" />
        <text
           id="text2218-6-9"
           y="122.39888"
           x="-53.039307"
           style="font-style:normal;font-variant:normal;font-weight:normal;font-stretch:normal;font-size:6.35px;line-height:1.25;font-family:'Palatino Linotype';-inkscape-font-specification:'Palatino Linotype';letter-spacing:0px;word-spacing:0px;fill:#000000;fill-opacity:1;stroke:none;stroke-width:0.264583"
           xml:space="preserve"><tspan
             id="tspan2230-4-39"
             style="font-style:normal;font-variant:normal;font-weight:normal;font-stretch:normal;font-size:6.35px;font-family:'Palatino Linotype';-inkscape-font-specification:'Palatino Linotype';fill:#000000;stroke-width:0.264583"
             y="122.39888"
             x="-53.039307"
             sodipodi:role="line">Experiment</tspan></text>
        <text
           id="text2218-6-1-0"
           y="117.64484"
           x="146.89056"
           style="font-style:normal;font-variant:normal;font-weight:normal;font-stretch:normal;font-size:6.35px;line-height:1.25;font-family:'Palatino Linotype';-inkscape-font-specification:'Palatino Linotype';text-align:center;letter-spacing:0px;word-spacing:0px;text-anchor:middle;fill:#006680;fill-opacity:1;stroke:none;stroke-width:0.264583"
           xml:space="preserve"><tspan
             style="font-style:normal;font-variant:normal;font-weight:normal;font-stretch:normal;font-size:6.35px;font-family:'Palatino Linotype';-inkscape-font-specification:'Palatino Linotype';text-align:center;text-anchor:middle;fill:#006680;fill-opacity:1;stroke-width:0.264583"
             y="117.64484"
             x="146.89056"
             sodipodi:role="line"
             id="tspan132-1-8">Prediction</tspan></text>
        <path
           inkscape:original-d="M 182.75149,104.23214 V 43.000001"
           inkscape:path-effect="#path-effect59-08-2-4"
           inkscape:connector-curvature="0"
           id="path57-2-6-1"
           d="m 182.75149,104.23214 c 0,-20.410713 0,-40.821426 0,-61.232139"
           style="fill:#ff0000;stroke:#ff0000;stroke-width:0.80000001;stroke-linecap:butt;stroke-linejoin:miter;stroke-miterlimit:4;stroke-dasharray:none;stroke-opacity:1;marker-end:url(#Arrow1Mend-0-1-6)"
           transform="matrix(0,1,-0.41709044,0,41.092979,1.8005933)" />
        <path
           inkscape:original-d="M 182.75149,104.23214 V 43.000001"
           inkscape:path-effect="#path-effect59-08-2-4-5"
           inkscape:connector-curvature="0"
           id="path57-2-6-1-5"
           d="m 182.75149,104.23214 c 0,-20.410713 0,-40.821426 0,-61.232139"
           style="fill:none;stroke:#ff0000;stroke-width:0.46831564;stroke-linecap:butt;stroke-linejoin:miter;stroke-miterlimit:4;stroke-dasharray:none;stroke-opacity:1"
           transform="matrix(0,1.7093727,-0.71296301,0,37.271994,-127.83833)" />
        <path
           inkscape:original-d="M 182.75149,104.23214 V 43.000001"
           inkscape:path-effect="#path-effect59-08-2-4-5-6"
           inkscape:connector-curvature="0"
           id="path57-2-6-1-5-1"
           d="m 182.75149,104.23214 c 0,-20.410713 0,-40.821426 0,-61.232139"
           style="fill:none;stroke:#ff0000;stroke-width:0.40217334;stroke-linecap:butt;stroke-linejoin:miter;stroke-miterlimit:4;stroke-dasharray:none;stroke-opacity:1"
           transform="matrix(-1.7093727,0,0,-0.96675798,275.74654,226.51254)" />
        <path
           inkscape:original-d="M 182.75149,104.23214 V 43.000001"
           inkscape:path-effect="#path-effect59-08-2-4-5-66"
           inkscape:connector-curvature="0"
           id="path57-2-6-1-5-14"
           d="m 182.75149,104.23214 c 0,-20.410713 0,-40.821426 0,-61.232139"
           style="fill:#ff0000;stroke:#ff0000;stroke-width:0.26330498;stroke-linecap:butt;stroke-linejoin:miter;stroke-miterlimit:4;stroke-dasharray:none;stroke-opacity:1"
           transform="matrix(0,2.2418001,-1.7152525,0,304.86391,-225.14022)" />
        <path
           inkscape:original-d="M 182.75149,104.23214 V 43.000001"
           inkscape:path-effect="#path-effect59-08-9"
           inkscape:connector-curvature="0"
           id="path57-2-1"
           d="m 182.75149,104.23214 c 0,-20.410713 0,-40.821426 0,-61.232139"
           style="fill:#ff0000;fill-opacity:1;stroke:#ff0000;stroke-width:0.71340036;stroke-linecap:butt;stroke-linejoin:miter;stroke-miterlimit:4;stroke-dasharray:none;stroke-opacity:1;marker-end:url(#Arrow1Mend-0-6)"
           transform="matrix(1,0,0,0.52110383,48.002974,130.51678)" />
        <text
           id="text2218-6-1-0-9"
           y="181.37505"
           x="178.24504"
           style="font-style:normal;font-variant:normal;font-weight:normal;font-stretch:normal;font-size:6.35px;line-height:1.25;font-family:'Palatino Linotype';-inkscape-font-specification:'Palatino Linotype';text-align:center;letter-spacing:0px;word-spacing:0px;text-anchor:middle;fill:#ff0000;fill-opacity:1;stroke:none;stroke-width:0.264583"
           xml:space="preserve"><tspan
             style="font-style:normal;font-variant:normal;font-weight:normal;font-stretch:normal;font-size:6.35px;font-family:'Palatino Linotype';-inkscape-font-specification:'Palatino Linotype';text-align:center;text-anchor:middle;fill:#ff0000;fill-opacity:1;stroke-width:0.264583"
             y="181.37505"
             x="178.24504"
             sodipodi:role="line"
             id="tspan132-1-8-3">Observe response</tspan></text>
        <text
           id="text2218-6-1-0-9-7"
           y="175.04201"
           x="-6.9195533"
           style="font-style:normal;font-variant:normal;font-weight:normal;font-stretch:normal;font-size:6.35px;line-height:0.9;font-family:'Palatino Linotype';-inkscape-font-specification:'Palatino Linotype';text-align:center;letter-spacing:0px;word-spacing:0px;text-anchor:middle;fill:#ff0000;fill-opacity:1;stroke:none;stroke-width:0.264583"
           xml:space="preserve"><tspan
             style="font-style:normal;font-variant:normal;font-weight:normal;font-stretch:normal;font-size:6.35px;line-height:0.9;font-family:'Palatino Linotype';-inkscape-font-specification:'Palatino Linotype';text-align:center;text-anchor:middle;fill:#ff0000;fill-opacity:1;stroke-width:0.264583"
             y="175.04201"
             x="-6.1258035"
             sodipodi:role="line"
             id="tspan132-1-8-3-9">Perform </tspan><tspan
             id="tspan4757"
             style="font-style:normal;font-variant:normal;font-weight:normal;font-stretch:normal;font-size:6.35px;line-height:0.9;font-family:'Palatino Linotype';-inkscape-font-specification:'Palatino Linotype';text-align:center;text-anchor:middle;fill:#ff0000;fill-opacity:1;stroke-width:0.264583"
             y="180.757"
             x="-6.9195528"
             sodipodi:role="line">experiment</tspan></text>
        <g
           transform="translate(0.94494047,0.26458326)"
           id="g4818">
          <path
             inkscape:connector-curvature="0"
             id="path2187-9"
             style="fill:#006680;fill-opacity:1;fill-rule:nonzero;stroke:none;stroke-width:0.07307144"
             d="m -4.668537,113.00208 c 0,-0.008 0,-0.0799 -0.0948,-0.0799 -0.10961,0 -0.79809,0.0651 -0.92253,0.0799 -0.0571,0.007 -0.10164,0.0434 -0.10164,0.13815 0,0.0868 0.0662,0.0868 0.17471,0.0868 0.34819,0 0.3631,0.0502 0.3631,0.1233 l -0.0217,0.145 -0.43616,1.72061 c -0.13014,-0.26832 -0.34022,-0.4647 -0.66795,-0.4647 -0.84828,0 -1.74911,1.06753 -1.74911,2.12707 0,0.68162 0.39963,1.16115 0.96593,1.16115 0.14498,0 0.50807,-0.0285 0.94306,-0.54461 0.0582,0.30485 0.31282,0.54461 0.66108,0.54461 0.25341,0 0.42126,-0.16669 0.53657,-0.39961 0.12334,-0.26145 0.21811,-0.70331 0.21811,-0.71815 0,-0.0731 -0.0651,-0.0731 -0.0868,-0.0731 -0.0731,0 -0.0799,0.0297 -0.10157,0.13129 -0.12335,0.47155 -0.25466,0.8997 -0.55147,0.8997 -0.19642,0 -0.21812,-0.18839 -0.21812,-0.33339 0,-0.17469 0.0149,-0.22492 0.0434,-0.34937 z m -1.51053,4.09315 c -0.0365,0.13129 -0.0365,0.14614 -0.14505,0.26945 -0.31968,0.39846 -0.6165,0.51492 -0.81971,0.51492 -0.36309,0 -0.46474,-0.39961 -0.46474,-0.68276 0,-0.36193 0.23179,-1.25478 0.39846,-1.5893 0.22499,-0.42816 0.55264,-0.69647 0.84266,-0.69647 0.47153,0 0.5731,0.59485 0.5731,0.63824 0,0.0434 -0.0148,0.0879 -0.0216,0.1233 l -0.36309,1.42262" />
          <text
             xml:space="preserve"
             style="font-style:normal;font-variant:normal;font-weight:normal;font-stretch:normal;font-size:6.35px;line-height:1.25;font-family:'Palatino Linotype';-inkscape-font-specification:'Palatino Linotype';text-align:center;letter-spacing:0px;word-spacing:0px;text-anchor:middle;fill:#006680;fill-opacity:1;stroke:none;stroke-width:0.264583"
             x="4.3497863"
             y="117.86985"
             id="text2218-6-1-0-9-7-4"><tspan
               sodipodi:role="line"
               x="4.3497863"
               y="117.86985"
               style="font-style:normal;font-variant:normal;font-weight:normal;font-stretch:normal;font-size:6.35px;font-family:'Palatino Linotype';-inkscape-font-specification:'Palatino Linotype';text-align:center;text-anchor:middle;fill:#006680;fill-opacity:1;stroke-width:0.264583"
               id="tspan4757-8">value</tspan></text>
        </g>
        <g
           transform="translate(7.8996987)"
           id="g5071">
          <path
             transform="matrix(-1,0,0,-0.34837803,248.42486,177.20802)"
             style="fill:none;stroke:#000000;stroke-width:0.80004084;stroke-linecap:butt;stroke-linejoin:miter;stroke-miterlimit:4;stroke-dasharray:2.40012254, 2.40012254;stroke-dashoffset:0;stroke-opacity:1;marker-end:url(#Arrow1Mend)"
             d="m 182.75149,104.23214 c 0,-20.410713 0,-40.821426 0,-61.232139"
             id="path57-2-6-6"
             inkscape:connector-curvature="0"
             inkscape:path-effect="#path-effect59-08-2-1"
             inkscape:original-d="M 182.75149,104.23214 V 43.000001" />
          <text
             xml:space="preserve"
             style="font-style:normal;font-variant:normal;font-weight:normal;font-stretch:normal;font-size:6.35px;line-height:0.9;font-family:'Palatino Linotype';-inkscape-font-specification:'Palatino Linotype';text-align:center;letter-spacing:0px;word-spacing:0px;text-anchor:middle;fill:#000000;fill-opacity:1;stroke:none;stroke-width:0.264583"
             x="92.814491"
             y="150.6877"
             id="text2218-6-1-0-9-7-2"><tspan
               sodipodi:role="line"
               x="93.608238"
               y="150.6877"
               style="font-style:normal;font-variant:normal;font-weight:normal;font-stretch:normal;font-size:6.35px;line-height:0.9;font-family:'Palatino Linotype';-inkscape-font-specification:'Palatino Linotype';text-align:center;text-anchor:middle;fill:#000000;fill-opacity:1;stroke-width:0.264583"
               id="tspan4757-9">Model describes </tspan><tspan
               sodipodi:role="line"
               x="92.814491"
               y="156.40269"
               style="font-style:normal;font-variant:normal;font-weight:normal;font-stretch:normal;font-size:6.35px;line-height:0.9;font-family:'Palatino Linotype';-inkscape-font-specification:'Palatino Linotype';text-align:center;text-anchor:middle;fill:#000000;fill-opacity:1;stroke-width:0.264583"
               id="tspan4855">real system</tspan></text>
        </g>
        <g
           id="g10947"
           transform="translate(1.6036172)">
          <text
             id="text2218-6-1"
             y="182.70711"
             x="70.276024"
             style="font-style:normal;font-variant:normal;font-weight:normal;font-stretch:normal;font-size:6.35px;line-height:1.25;font-family:'Palatino Linotype';-inkscape-font-specification:'Palatino Linotype';text-align:center;letter-spacing:0px;word-spacing:0px;text-anchor:middle;fill:#ff0000;fill-opacity:1;stroke:none;stroke-width:0.264583"
             xml:space="preserve"><tspan
               style="font-style:normal;font-variant:normal;font-weight:normal;font-stretch:normal;font-size:6.35px;font-family:'Palatino Linotype';-inkscape-font-specification:'Palatino Linotype';text-align:center;text-anchor:middle;fill:#ff0000;stroke-width:0.264583"
               y="182.70711"
               x="70.276024"
               sodipodi:role="line"
               id="tspan132-1">System of interest </tspan><tspan
               style="font-style:normal;font-variant:normal;font-weight:normal;font-stretch:normal;font-size:6.35px;font-family:'Palatino Linotype';-inkscape-font-specification:'Palatino Linotype';text-align:center;text-anchor:middle;fill:#ff0000;stroke-width:0.264583"
               y="190.64461"
               x="70.276024"
               sodipodi:role="line"
               id="tspan1099">with 'true' parameters   </tspan><tspan
               style="font-style:normal;font-variant:normal;font-weight:normal;font-stretch:normal;font-size:6.35px;font-family:'Palatino Linotype';-inkscape-font-specification:'Palatino Linotype';text-align:center;text-anchor:middle;fill:#ff0000;stroke-width:0.264583"
               y="198.58211"
               x="70.276024"
               sodipodi:role="line"
               id="tspan1097" /></text>
          <g
             id="g9787"
             style="fill:#ff0000"
             transform="translate(-2.967113,-0.48393429)">
            <path
               inkscape:connector-curvature="0"
               id="path2183-8-5"
               style="fill:#ff0000;fill-opacity:1;fill-rule:nonzero;stroke:none;stroke-width:0.0730714"
               d="m 107.04896,187.87718 c 0,-0.47839 -0.13132,-1.48769 -0.87117,-1.48769 -1.00926,0 -2.12704,2.04715 -2.12704,3.70953 0,0.68161 0.21009,1.48768 0.87117,1.48768 1.023,0 2.12704,-2.08368 2.12704,-3.70952 z m -2.22868,0.99446 c 0.12334,-0.46469 0.26831,-1.04469 0.55833,-1.56076 0.19634,-0.35508 0.46467,-0.76154 0.79121,-0.76154 0.35624,0 0.39964,0.46469 0.39964,0.878 0,0.35622 -0.0582,0.72615 -0.23178,1.4443 z m 1.4512,0.23292 c -0.0788,0.33339 -0.23179,0.94993 -0.50814,1.47284 -0.25342,0.49438 -0.52978,0.84945 -0.84142,0.84945 -0.23975,0 -0.39166,-0.21008 -0.39166,-0.88599 0,-0.30484 0.0434,-0.725 0.23178,-1.4363 h 1.50944" />
            <text
               xml:space="preserve"
               transform="matrix(0.15524754,0,0,0.15524754,79.74884,69.447591)"
               id="text9354"
               style="font-style:normal;font-variant:normal;font-weight:normal;font-stretch:normal;font-size:40px;line-height:1;font-family:CM_Roman;-inkscape-font-specification:CM_Roman;letter-spacing:0px;word-spacing:0px;white-space:pre;shape-inside:url(#rect9356);fill:#ff0000;fill-opacity:1;stroke:none"><tspan
                 x="178.21484"
                 y="774.85938"
                 id="tspan11113">*</tspan></text>
          </g>
        </g>
      </g>
    </g>
  </g>
</svg>
