<?xml version="1.0" encoding="utf-8" standalone="no"?>
<!DOCTYPE svg PUBLIC "-//W3C//DTD SVG 1.1//EN"
  "http://www.w3.org/Graphics/SVG/1.1/DTD/svg11.dtd">
<svg xmlns:xlink="http://www.w3.org/1999/xlink" width="526.007187pt" height="271.778828pt" viewBox="0 0 526.007187 271.778828" xmlns="http://www.w3.org/2000/svg" version="1.1">
 <metadata>
  <rdf:RDF xmlns:dc="http://purl.org/dc/elements/1.1/" xmlns:cc="http://creativecommons.org/ns#" xmlns:rdf="http://www.w3.org/1999/02/22-rdf-syntax-ns#">
   <cc:Work>
    <dc:type rdf:resource="http://purl.org/dc/dcmitype/StillImage"/>
    <dc:date>2022-06-25T07:42:52.082754</dc:date>
    <dc:format>image/svg+xml</dc:format>
    <dc:creator>
     <cc:Agent>
      <dc:title>Matplotlib v3.5.2, https://matplotlib.org/</dc:title>
     </cc:Agent>
    </dc:creator>
   </cc:Work>
  </rdf:RDF>
 </metadata>
 <defs>
  <style type="text/css">*{stroke-linejoin: round; stroke-linecap: butt}</style>
 </defs>
 <g id="figure_1">
  <g id="patch_1">
   <path d="M 0 271.778828 
L 526.007187 271.778828 
L 526.007187 0 
L 0 0 
L 0 271.778828 
z
" style="fill: none"/>
  </g>
  <g id="axes_1">
   <g id="patch_2">
    <path d="M 49.807188 228.819141 
L 384.607188 228.819141 
L 384.607188 11.379141 
L 49.807188 11.379141 
z
" style="fill: #eaeaf2"/>
   </g>
   <g id="matplotlib.axis_1">
    <g id="xtick_1">
     <g id="line2d_1">
      <path d="M 65.025369 228.819141 
L 65.025369 11.379141 
" clip-path="url(#p4135033d9b)" style="fill: none; stroke: #ffffff; stroke-linecap: round"/>
     </g>
     <g id="text_1">
      <!-- 0 -->
      <g style="fill: #262626" transform="translate(61.525994 246.677422)scale(0.11 -0.11)">
       <defs>
        <path id="DejaVuSans-30" d="M 2034 4250 
Q 1547 4250 1301 3770 
Q 1056 3291 1056 2328 
Q 1056 1369 1301 889 
Q 1547 409 2034 409 
Q 2525 409 2770 889 
Q 3016 1369 3016 2328 
Q 3016 3291 2770 3770 
Q 2525 4250 2034 4250 
z
M 2034 4750 
Q 2819 4750 3233 4129 
Q 3647 3509 3647 2328 
Q 3647 1150 3233 529 
Q 2819 -91 2034 -91 
Q 1250 -91 836 529 
Q 422 1150 422 2328 
Q 422 3509 836 4129 
Q 1250 4750 2034 4750 
z
" transform="scale(0.015625)"/>
       </defs>
       <use xlink:href="#DejaVuSans-30"/>
      </g>
     </g>
    </g>
    <g id="xtick_2">
     <g id="line2d_2">
      <path d="M 107.298097 228.819141 
L 107.298097 11.379141 
" clip-path="url(#p4135033d9b)" style="fill: none; stroke: #ffffff; stroke-linecap: round"/>
     </g>
     <g id="text_2">
      <!-- 25 -->
      <g style="fill: #262626" transform="translate(100.299347 246.677422)scale(0.11 -0.11)">
       <defs>
        <path id="DejaVuSans-32" d="M 1228 531 
L 3431 531 
L 3431 0 
L 469 0 
L 469 531 
Q 828 903 1448 1529 
Q 2069 2156 2228 2338 
Q 2531 2678 2651 2914 
Q 2772 3150 2772 3378 
Q 2772 3750 2511 3984 
Q 2250 4219 1831 4219 
Q 1534 4219 1204 4116 
Q 875 4013 500 3803 
L 500 4441 
Q 881 4594 1212 4672 
Q 1544 4750 1819 4750 
Q 2544 4750 2975 4387 
Q 3406 4025 3406 3419 
Q 3406 3131 3298 2873 
Q 3191 2616 2906 2266 
Q 2828 2175 2409 1742 
Q 1991 1309 1228 531 
z
" transform="scale(0.015625)"/>
        <path id="DejaVuSans-35" d="M 691 4666 
L 3169 4666 
L 3169 4134 
L 1269 4134 
L 1269 2991 
Q 1406 3038 1543 3061 
Q 1681 3084 1819 3084 
Q 2600 3084 3056 2656 
Q 3513 2228 3513 1497 
Q 3513 744 3044 326 
Q 2575 -91 1722 -91 
Q 1428 -91 1123 -41 
Q 819 9 494 109 
L 494 744 
Q 775 591 1075 516 
Q 1375 441 1709 441 
Q 2250 441 2565 725 
Q 2881 1009 2881 1497 
Q 2881 1984 2565 2268 
Q 2250 2553 1709 2553 
Q 1456 2553 1204 2497 
Q 953 2441 691 2322 
L 691 4666 
z
" transform="scale(0.015625)"/>
       </defs>
       <use xlink:href="#DejaVuSans-32"/>
       <use xlink:href="#DejaVuSans-35" x="63.623047"/>
      </g>
     </g>
    </g>
    <g id="xtick_3">
     <g id="line2d_3">
      <path d="M 149.570824 228.819141 
L 149.570824 11.379141 
" clip-path="url(#p4135033d9b)" style="fill: none; stroke: #ffffff; stroke-linecap: round"/>
     </g>
     <g id="text_3">
      <!-- 50 -->
      <g style="fill: #262626" transform="translate(142.572074 246.677422)scale(0.11 -0.11)">
       <use xlink:href="#DejaVuSans-35"/>
       <use xlink:href="#DejaVuSans-30" x="63.623047"/>
      </g>
     </g>
    </g>
    <g id="xtick_4">
     <g id="line2d_4">
      <path d="M 191.843551 228.819141 
L 191.843551 11.379141 
" clip-path="url(#p4135033d9b)" style="fill: none; stroke: #ffffff; stroke-linecap: round"/>
     </g>
     <g id="text_4">
      <!-- 75 -->
      <g style="fill: #262626" transform="translate(184.844801 246.677422)scale(0.11 -0.11)">
       <defs>
        <path id="DejaVuSans-37" d="M 525 4666 
L 3525 4666 
L 3525 4397 
L 1831 0 
L 1172 0 
L 2766 4134 
L 525 4134 
L 525 4666 
z
" transform="scale(0.015625)"/>
       </defs>
       <use xlink:href="#DejaVuSans-37"/>
       <use xlink:href="#DejaVuSans-35" x="63.623047"/>
      </g>
     </g>
    </g>
    <g id="xtick_5">
     <g id="line2d_5">
      <path d="M 234.116278 228.819141 
L 234.116278 11.379141 
" clip-path="url(#p4135033d9b)" style="fill: none; stroke: #ffffff; stroke-linecap: round"/>
     </g>
     <g id="text_5">
      <!-- 100 -->
      <g style="fill: #262626" transform="translate(223.618153 246.677422)scale(0.11 -0.11)">
       <defs>
        <path id="DejaVuSans-31" d="M 794 531 
L 1825 531 
L 1825 4091 
L 703 3866 
L 703 4441 
L 1819 4666 
L 2450 4666 
L 2450 531 
L 3481 531 
L 3481 0 
L 794 0 
L 794 531 
z
" transform="scale(0.015625)"/>
       </defs>
       <use xlink:href="#DejaVuSans-31"/>
       <use xlink:href="#DejaVuSans-30" x="63.623047"/>
       <use xlink:href="#DejaVuSans-30" x="127.246094"/>
      </g>
     </g>
    </g>
    <g id="xtick_6">
     <g id="line2d_6">
      <path d="M 276.389006 228.819141 
L 276.389006 11.379141 
" clip-path="url(#p4135033d9b)" style="fill: none; stroke: #ffffff; stroke-linecap: round"/>
     </g>
     <g id="text_6">
      <!-- 125 -->
      <g style="fill: #262626" transform="translate(265.890881 246.677422)scale(0.11 -0.11)">
       <use xlink:href="#DejaVuSans-31"/>
       <use xlink:href="#DejaVuSans-32" x="63.623047"/>
       <use xlink:href="#DejaVuSans-35" x="127.246094"/>
      </g>
     </g>
    </g>
    <g id="xtick_7">
     <g id="line2d_7">
      <path d="M 318.661733 228.819141 
L 318.661733 11.379141 
" clip-path="url(#p4135033d9b)" style="fill: none; stroke: #ffffff; stroke-linecap: round"/>
     </g>
     <g id="text_7">
      <!-- 150 -->
      <g style="fill: #262626" transform="translate(308.163608 246.677422)scale(0.11 -0.11)">
       <use xlink:href="#DejaVuSans-31"/>
       <use xlink:href="#DejaVuSans-35" x="63.623047"/>
       <use xlink:href="#DejaVuSans-30" x="127.246094"/>
      </g>
     </g>
    </g>
    <g id="xtick_8">
     <g id="line2d_8">
      <path d="M 360.93446 228.819141 
L 360.93446 11.379141 
" clip-path="url(#p4135033d9b)" style="fill: none; stroke: #ffffff; stroke-linecap: round"/>
     </g>
     <g id="text_8">
      <!-- 175 -->
      <g style="fill: #262626" transform="translate(350.436335 246.677422)scale(0.11 -0.11)">
       <use xlink:href="#DejaVuSans-31"/>
       <use xlink:href="#DejaVuSans-37" x="63.623047"/>
       <use xlink:href="#DejaVuSans-35" x="127.246094"/>
      </g>
     </g>
    </g>
    <g id="text_9">
     <!-- Beam Angle / degrees -->
     <g style="fill: #262626" transform="translate(150.91 262.083203)scale(0.12 -0.12)">
      <defs>
       <path id="DejaVuSans-42" d="M 1259 2228 
L 1259 519 
L 2272 519 
Q 2781 519 3026 730 
Q 3272 941 3272 1375 
Q 3272 1813 3026 2020 
Q 2781 2228 2272 2228 
L 1259 2228 
z
M 1259 4147 
L 1259 2741 
L 2194 2741 
Q 2656 2741 2882 2914 
Q 3109 3088 3109 3444 
Q 3109 3797 2882 3972 
Q 2656 4147 2194 4147 
L 1259 4147 
z
M 628 4666 
L 2241 4666 
Q 2963 4666 3353 4366 
Q 3744 4066 3744 3513 
Q 3744 3084 3544 2831 
Q 3344 2578 2956 2516 
Q 3422 2416 3680 2098 
Q 3938 1781 3938 1306 
Q 3938 681 3513 340 
Q 3088 0 2303 0 
L 628 0 
L 628 4666 
z
" transform="scale(0.015625)"/>
       <path id="DejaVuSans-65" d="M 3597 1894 
L 3597 1613 
L 953 1613 
Q 991 1019 1311 708 
Q 1631 397 2203 397 
Q 2534 397 2845 478 
Q 3156 559 3463 722 
L 3463 178 
Q 3153 47 2828 -22 
Q 2503 -91 2169 -91 
Q 1331 -91 842 396 
Q 353 884 353 1716 
Q 353 2575 817 3079 
Q 1281 3584 2069 3584 
Q 2775 3584 3186 3129 
Q 3597 2675 3597 1894 
z
M 3022 2063 
Q 3016 2534 2758 2815 
Q 2500 3097 2075 3097 
Q 1594 3097 1305 2825 
Q 1016 2553 972 2059 
L 3022 2063 
z
" transform="scale(0.015625)"/>
       <path id="DejaVuSans-61" d="M 2194 1759 
Q 1497 1759 1228 1600 
Q 959 1441 959 1056 
Q 959 750 1161 570 
Q 1363 391 1709 391 
Q 2188 391 2477 730 
Q 2766 1069 2766 1631 
L 2766 1759 
L 2194 1759 
z
M 3341 1997 
L 3341 0 
L 2766 0 
L 2766 531 
Q 2569 213 2275 61 
Q 1981 -91 1556 -91 
Q 1019 -91 701 211 
Q 384 513 384 1019 
Q 384 1609 779 1909 
Q 1175 2209 1959 2209 
L 2766 2209 
L 2766 2266 
Q 2766 2663 2505 2880 
Q 2244 3097 1772 3097 
Q 1472 3097 1187 3025 
Q 903 2953 641 2809 
L 641 3341 
Q 956 3463 1253 3523 
Q 1550 3584 1831 3584 
Q 2591 3584 2966 3190 
Q 3341 2797 3341 1997 
z
" transform="scale(0.015625)"/>
       <path id="DejaVuSans-6d" d="M 3328 2828 
Q 3544 3216 3844 3400 
Q 4144 3584 4550 3584 
Q 5097 3584 5394 3201 
Q 5691 2819 5691 2113 
L 5691 0 
L 5113 0 
L 5113 2094 
Q 5113 2597 4934 2840 
Q 4756 3084 4391 3084 
Q 3944 3084 3684 2787 
Q 3425 2491 3425 1978 
L 3425 0 
L 2847 0 
L 2847 2094 
Q 2847 2600 2669 2842 
Q 2491 3084 2119 3084 
Q 1678 3084 1418 2786 
Q 1159 2488 1159 1978 
L 1159 0 
L 581 0 
L 581 3500 
L 1159 3500 
L 1159 2956 
Q 1356 3278 1631 3431 
Q 1906 3584 2284 3584 
Q 2666 3584 2933 3390 
Q 3200 3197 3328 2828 
z
" transform="scale(0.015625)"/>
       <path id="DejaVuSans-20" transform="scale(0.015625)"/>
       <path id="DejaVuSans-41" d="M 2188 4044 
L 1331 1722 
L 3047 1722 
L 2188 4044 
z
M 1831 4666 
L 2547 4666 
L 4325 0 
L 3669 0 
L 3244 1197 
L 1141 1197 
L 716 0 
L 50 0 
L 1831 4666 
z
" transform="scale(0.015625)"/>
       <path id="DejaVuSans-6e" d="M 3513 2113 
L 3513 0 
L 2938 0 
L 2938 2094 
Q 2938 2591 2744 2837 
Q 2550 3084 2163 3084 
Q 1697 3084 1428 2787 
Q 1159 2491 1159 1978 
L 1159 0 
L 581 0 
L 581 3500 
L 1159 3500 
L 1159 2956 
Q 1366 3272 1645 3428 
Q 1925 3584 2291 3584 
Q 2894 3584 3203 3211 
Q 3513 2838 3513 2113 
z
" transform="scale(0.015625)"/>
       <path id="DejaVuSans-67" d="M 2906 1791 
Q 2906 2416 2648 2759 
Q 2391 3103 1925 3103 
Q 1463 3103 1205 2759 
Q 947 2416 947 1791 
Q 947 1169 1205 825 
Q 1463 481 1925 481 
Q 2391 481 2648 825 
Q 2906 1169 2906 1791 
z
M 3481 434 
Q 3481 -459 3084 -895 
Q 2688 -1331 1869 -1331 
Q 1566 -1331 1297 -1286 
Q 1028 -1241 775 -1147 
L 775 -588 
Q 1028 -725 1275 -790 
Q 1522 -856 1778 -856 
Q 2344 -856 2625 -561 
Q 2906 -266 2906 331 
L 2906 616 
Q 2728 306 2450 153 
Q 2172 0 1784 0 
Q 1141 0 747 490 
Q 353 981 353 1791 
Q 353 2603 747 3093 
Q 1141 3584 1784 3584 
Q 2172 3584 2450 3431 
Q 2728 3278 2906 2969 
L 2906 3500 
L 3481 3500 
L 3481 434 
z
" transform="scale(0.015625)"/>
       <path id="DejaVuSans-6c" d="M 603 4863 
L 1178 4863 
L 1178 0 
L 603 0 
L 603 4863 
z
" transform="scale(0.015625)"/>
       <path id="DejaVuSans-2f" d="M 1625 4666 
L 2156 4666 
L 531 -594 
L 0 -594 
L 1625 4666 
z
" transform="scale(0.015625)"/>
       <path id="DejaVuSans-64" d="M 2906 2969 
L 2906 4863 
L 3481 4863 
L 3481 0 
L 2906 0 
L 2906 525 
Q 2725 213 2448 61 
Q 2172 -91 1784 -91 
Q 1150 -91 751 415 
Q 353 922 353 1747 
Q 353 2572 751 3078 
Q 1150 3584 1784 3584 
Q 2172 3584 2448 3432 
Q 2725 3281 2906 2969 
z
M 947 1747 
Q 947 1113 1208 752 
Q 1469 391 1925 391 
Q 2381 391 2643 752 
Q 2906 1113 2906 1747 
Q 2906 2381 2643 2742 
Q 2381 3103 1925 3103 
Q 1469 3103 1208 2742 
Q 947 2381 947 1747 
z
" transform="scale(0.015625)"/>
       <path id="DejaVuSans-72" d="M 2631 2963 
Q 2534 3019 2420 3045 
Q 2306 3072 2169 3072 
Q 1681 3072 1420 2755 
Q 1159 2438 1159 1844 
L 1159 0 
L 581 0 
L 581 3500 
L 1159 3500 
L 1159 2956 
Q 1341 3275 1631 3429 
Q 1922 3584 2338 3584 
Q 2397 3584 2469 3576 
Q 2541 3569 2628 3553 
L 2631 2963 
z
" transform="scale(0.015625)"/>
       <path id="DejaVuSans-73" d="M 2834 3397 
L 2834 2853 
Q 2591 2978 2328 3040 
Q 2066 3103 1784 3103 
Q 1356 3103 1142 2972 
Q 928 2841 928 2578 
Q 928 2378 1081 2264 
Q 1234 2150 1697 2047 
L 1894 2003 
Q 2506 1872 2764 1633 
Q 3022 1394 3022 966 
Q 3022 478 2636 193 
Q 2250 -91 1575 -91 
Q 1294 -91 989 -36 
Q 684 19 347 128 
L 347 722 
Q 666 556 975 473 
Q 1284 391 1588 391 
Q 1994 391 2212 530 
Q 2431 669 2431 922 
Q 2431 1156 2273 1281 
Q 2116 1406 1581 1522 
L 1381 1569 
Q 847 1681 609 1914 
Q 372 2147 372 2553 
Q 372 3047 722 3315 
Q 1072 3584 1716 3584 
Q 2034 3584 2315 3537 
Q 2597 3491 2834 3397 
z
" transform="scale(0.015625)"/>
      </defs>
      <use xlink:href="#DejaVuSans-42"/>
      <use xlink:href="#DejaVuSans-65" x="68.603516"/>
      <use xlink:href="#DejaVuSans-61" x="130.126953"/>
      <use xlink:href="#DejaVuSans-6d" x="191.40625"/>
      <use xlink:href="#DejaVuSans-20" x="288.818359"/>
      <use xlink:href="#DejaVuSans-41" x="320.605469"/>
      <use xlink:href="#DejaVuSans-6e" x="389.013672"/>
      <use xlink:href="#DejaVuSans-67" x="452.392578"/>
      <use xlink:href="#DejaVuSans-6c" x="515.869141"/>
      <use xlink:href="#DejaVuSans-65" x="543.652344"/>
      <use xlink:href="#DejaVuSans-20" x="605.175781"/>
      <use xlink:href="#DejaVuSans-2f" x="636.962891"/>
      <use xlink:href="#DejaVuSans-20" x="670.654297"/>
      <use xlink:href="#DejaVuSans-64" x="702.441406"/>
      <use xlink:href="#DejaVuSans-65" x="765.917969"/>
      <use xlink:href="#DejaVuSans-67" x="827.441406"/>
      <use xlink:href="#DejaVuSans-72" x="890.917969"/>
      <use xlink:href="#DejaVuSans-65" x="929.78125"/>
      <use xlink:href="#DejaVuSans-65" x="991.304688"/>
      <use xlink:href="#DejaVuSans-73" x="1052.828125"/>
     </g>
    </g>
   </g>
   <g id="matplotlib.axis_2">
    <g id="ytick_1">
     <g id="line2d_9">
      <path d="M 49.807188 214.323141 
L 384.607188 214.323141 
" clip-path="url(#p4135033d9b)" style="fill: none; stroke: #ffffff; stroke-linecap: round"/>
     </g>
     <g id="text_10">
      <!-- 0.7 -->
      <g style="fill: #262626" transform="translate(22.81375 218.502281)scale(0.11 -0.11)">
       <defs>
        <path id="DejaVuSans-2e" d="M 684 794 
L 1344 794 
L 1344 0 
L 684 0 
L 684 794 
z
" transform="scale(0.015625)"/>
       </defs>
       <use xlink:href="#DejaVuSans-30"/>
       <use xlink:href="#DejaVuSans-2e" x="63.623047"/>
       <use xlink:href="#DejaVuSans-37" x="95.410156"/>
      </g>
     </g>
    </g>
    <g id="ytick_2">
     <g id="line2d_10">
      <path d="M 49.807188 185.331141 
L 384.607188 185.331141 
" clip-path="url(#p4135033d9b)" style="fill: none; stroke: #ffffff; stroke-linecap: round"/>
     </g>
     <g id="text_11">
      <!-- 0.8 -->
      <g style="fill: #262626" transform="translate(22.81375 189.510281)scale(0.11 -0.11)">
       <defs>
        <path id="DejaVuSans-38" d="M 2034 2216 
Q 1584 2216 1326 1975 
Q 1069 1734 1069 1313 
Q 1069 891 1326 650 
Q 1584 409 2034 409 
Q 2484 409 2743 651 
Q 3003 894 3003 1313 
Q 3003 1734 2745 1975 
Q 2488 2216 2034 2216 
z
M 1403 2484 
Q 997 2584 770 2862 
Q 544 3141 544 3541 
Q 544 4100 942 4425 
Q 1341 4750 2034 4750 
Q 2731 4750 3128 4425 
Q 3525 4100 3525 3541 
Q 3525 3141 3298 2862 
Q 3072 2584 2669 2484 
Q 3125 2378 3379 2068 
Q 3634 1759 3634 1313 
Q 3634 634 3220 271 
Q 2806 -91 2034 -91 
Q 1263 -91 848 271 
Q 434 634 434 1313 
Q 434 1759 690 2068 
Q 947 2378 1403 2484 
z
M 1172 3481 
Q 1172 3119 1398 2916 
Q 1625 2713 2034 2713 
Q 2441 2713 2670 2916 
Q 2900 3119 2900 3481 
Q 2900 3844 2670 4047 
Q 2441 4250 2034 4250 
Q 1625 4250 1398 4047 
Q 1172 3844 1172 3481 
z
" transform="scale(0.015625)"/>
       </defs>
       <use xlink:href="#DejaVuSans-30"/>
       <use xlink:href="#DejaVuSans-2e" x="63.623047"/>
       <use xlink:href="#DejaVuSans-38" x="95.410156"/>
      </g>
     </g>
    </g>
    <g id="ytick_3">
     <g id="line2d_11">
      <path d="M 49.807188 156.339141 
L 384.607188 156.339141 
" clip-path="url(#p4135033d9b)" style="fill: none; stroke: #ffffff; stroke-linecap: round"/>
     </g>
     <g id="text_12">
      <!-- 0.9 -->
      <g style="fill: #262626" transform="translate(22.81375 160.518281)scale(0.11 -0.11)">
       <defs>
        <path id="DejaVuSans-39" d="M 703 97 
L 703 672 
Q 941 559 1184 500 
Q 1428 441 1663 441 
Q 2288 441 2617 861 
Q 2947 1281 2994 2138 
Q 2813 1869 2534 1725 
Q 2256 1581 1919 1581 
Q 1219 1581 811 2004 
Q 403 2428 403 3163 
Q 403 3881 828 4315 
Q 1253 4750 1959 4750 
Q 2769 4750 3195 4129 
Q 3622 3509 3622 2328 
Q 3622 1225 3098 567 
Q 2575 -91 1691 -91 
Q 1453 -91 1209 -44 
Q 966 3 703 97 
z
M 1959 2075 
Q 2384 2075 2632 2365 
Q 2881 2656 2881 3163 
Q 2881 3666 2632 3958 
Q 2384 4250 1959 4250 
Q 1534 4250 1286 3958 
Q 1038 3666 1038 3163 
Q 1038 2656 1286 2365 
Q 1534 2075 1959 2075 
z
" transform="scale(0.015625)"/>
       </defs>
       <use xlink:href="#DejaVuSans-30"/>
       <use xlink:href="#DejaVuSans-2e" x="63.623047"/>
       <use xlink:href="#DejaVuSans-39" x="95.410156"/>
      </g>
     </g>
    </g>
    <g id="ytick_4">
     <g id="line2d_12">
      <path d="M 49.807188 127.347141 
L 384.607188 127.347141 
" clip-path="url(#p4135033d9b)" style="fill: none; stroke: #ffffff; stroke-linecap: round"/>
     </g>
     <g id="text_13">
      <!-- 1.0 -->
      <g style="fill: #262626" transform="translate(22.81375 131.526281)scale(0.11 -0.11)">
       <use xlink:href="#DejaVuSans-31"/>
       <use xlink:href="#DejaVuSans-2e" x="63.623047"/>
       <use xlink:href="#DejaVuSans-30" x="95.410156"/>
      </g>
     </g>
    </g>
    <g id="ytick_5">
     <g id="line2d_13">
      <path d="M 49.807188 98.355141 
L 384.607188 98.355141 
" clip-path="url(#p4135033d9b)" style="fill: none; stroke: #ffffff; stroke-linecap: round"/>
     </g>
     <g id="text_14">
      <!-- 1.1 -->
      <g style="fill: #262626" transform="translate(22.81375 102.534281)scale(0.11 -0.11)">
       <use xlink:href="#DejaVuSans-31"/>
       <use xlink:href="#DejaVuSans-2e" x="63.623047"/>
       <use xlink:href="#DejaVuSans-31" x="95.410156"/>
      </g>
     </g>
    </g>
    <g id="ytick_6">
     <g id="line2d_14">
      <path d="M 49.807188 69.363141 
L 384.607188 69.363141 
" clip-path="url(#p4135033d9b)" style="fill: none; stroke: #ffffff; stroke-linecap: round"/>
     </g>
     <g id="text_15">
      <!-- 1.2 -->
      <g style="fill: #262626" transform="translate(22.81375 73.542281)scale(0.11 -0.11)">
       <use xlink:href="#DejaVuSans-31"/>
       <use xlink:href="#DejaVuSans-2e" x="63.623047"/>
       <use xlink:href="#DejaVuSans-32" x="95.410156"/>
      </g>
     </g>
    </g>
    <g id="ytick_7">
     <g id="line2d_15">
      <path d="M 49.807188 40.371141 
L 384.607188 40.371141 
" clip-path="url(#p4135033d9b)" style="fill: none; stroke: #ffffff; stroke-linecap: round"/>
     </g>
     <g id="text_16">
      <!-- 1.3 -->
      <g style="fill: #262626" transform="translate(22.81375 44.550281)scale(0.11 -0.11)">
       <defs>
        <path id="DejaVuSans-33" d="M 2597 2516 
Q 3050 2419 3304 2112 
Q 3559 1806 3559 1356 
Q 3559 666 3084 287 
Q 2609 -91 1734 -91 
Q 1441 -91 1130 -33 
Q 819 25 488 141 
L 488 750 
Q 750 597 1062 519 
Q 1375 441 1716 441 
Q 2309 441 2620 675 
Q 2931 909 2931 1356 
Q 2931 1769 2642 2001 
Q 2353 2234 1838 2234 
L 1294 2234 
L 1294 2753 
L 1863 2753 
Q 2328 2753 2575 2939 
Q 2822 3125 2822 3475 
Q 2822 3834 2567 4026 
Q 2313 4219 1838 4219 
Q 1578 4219 1281 4162 
Q 984 4106 628 3988 
L 628 4550 
Q 988 4650 1302 4700 
Q 1616 4750 1894 4750 
Q 2613 4750 3031 4423 
Q 3450 4097 3450 3541 
Q 3450 3153 3228 2886 
Q 3006 2619 2597 2516 
z
" transform="scale(0.015625)"/>
       </defs>
       <use xlink:href="#DejaVuSans-31"/>
       <use xlink:href="#DejaVuSans-2e" x="63.623047"/>
       <use xlink:href="#DejaVuSans-33" x="95.410156"/>
      </g>
     </g>
    </g>
    <g id="ytick_8">
     <g id="line2d_16">
      <path d="M 49.807188 11.379141 
L 384.607188 11.379141 
" clip-path="url(#p4135033d9b)" style="fill: none; stroke: #ffffff; stroke-linecap: round"/>
     </g>
     <g id="text_17">
      <!-- 1.4 -->
      <g style="fill: #262626" transform="translate(22.81375 15.558281)scale(0.11 -0.11)">
       <defs>
        <path id="DejaVuSans-34" d="M 2419 4116 
L 825 1625 
L 2419 1625 
L 2419 4116 
z
M 2253 4666 
L 3047 4666 
L 3047 1625 
L 3713 1625 
L 3713 1100 
L 3047 1100 
L 3047 0 
L 2419 0 
L 2419 1100 
L 313 1100 
L 313 1709 
L 2253 4666 
z
" transform="scale(0.015625)"/>
       </defs>
       <use xlink:href="#DejaVuSans-31"/>
       <use xlink:href="#DejaVuSans-2e" x="63.623047"/>
       <use xlink:href="#DejaVuSans-34" x="95.410156"/>
      </g>
     </g>
    </g>
    <g id="text_18">
     <!-- Expected Information Gain (EIG) -->
     <g style="fill: #262626" transform="translate(16.318125 217.234453)rotate(-90)scale(0.12 -0.12)">
      <defs>
       <path id="DejaVuSans-45" d="M 628 4666 
L 3578 4666 
L 3578 4134 
L 1259 4134 
L 1259 2753 
L 3481 2753 
L 3481 2222 
L 1259 2222 
L 1259 531 
L 3634 531 
L 3634 0 
L 628 0 
L 628 4666 
z
" transform="scale(0.015625)"/>
       <path id="DejaVuSans-78" d="M 3513 3500 
L 2247 1797 
L 3578 0 
L 2900 0 
L 1881 1375 
L 863 0 
L 184 0 
L 1544 1831 
L 300 3500 
L 978 3500 
L 1906 2253 
L 2834 3500 
L 3513 3500 
z
" transform="scale(0.015625)"/>
       <path id="DejaVuSans-70" d="M 1159 525 
L 1159 -1331 
L 581 -1331 
L 581 3500 
L 1159 3500 
L 1159 2969 
Q 1341 3281 1617 3432 
Q 1894 3584 2278 3584 
Q 2916 3584 3314 3078 
Q 3713 2572 3713 1747 
Q 3713 922 3314 415 
Q 2916 -91 2278 -91 
Q 1894 -91 1617 61 
Q 1341 213 1159 525 
z
M 3116 1747 
Q 3116 2381 2855 2742 
Q 2594 3103 2138 3103 
Q 1681 3103 1420 2742 
Q 1159 2381 1159 1747 
Q 1159 1113 1420 752 
Q 1681 391 2138 391 
Q 2594 391 2855 752 
Q 3116 1113 3116 1747 
z
" transform="scale(0.015625)"/>
       <path id="DejaVuSans-63" d="M 3122 3366 
L 3122 2828 
Q 2878 2963 2633 3030 
Q 2388 3097 2138 3097 
Q 1578 3097 1268 2742 
Q 959 2388 959 1747 
Q 959 1106 1268 751 
Q 1578 397 2138 397 
Q 2388 397 2633 464 
Q 2878 531 3122 666 
L 3122 134 
Q 2881 22 2623 -34 
Q 2366 -91 2075 -91 
Q 1284 -91 818 406 
Q 353 903 353 1747 
Q 353 2603 823 3093 
Q 1294 3584 2113 3584 
Q 2378 3584 2631 3529 
Q 2884 3475 3122 3366 
z
" transform="scale(0.015625)"/>
       <path id="DejaVuSans-74" d="M 1172 4494 
L 1172 3500 
L 2356 3500 
L 2356 3053 
L 1172 3053 
L 1172 1153 
Q 1172 725 1289 603 
Q 1406 481 1766 481 
L 2356 481 
L 2356 0 
L 1766 0 
Q 1100 0 847 248 
Q 594 497 594 1153 
L 594 3053 
L 172 3053 
L 172 3500 
L 594 3500 
L 594 4494 
L 1172 4494 
z
" transform="scale(0.015625)"/>
       <path id="DejaVuSans-49" d="M 628 4666 
L 1259 4666 
L 1259 0 
L 628 0 
L 628 4666 
z
" transform="scale(0.015625)"/>
       <path id="DejaVuSans-66" d="M 2375 4863 
L 2375 4384 
L 1825 4384 
Q 1516 4384 1395 4259 
Q 1275 4134 1275 3809 
L 1275 3500 
L 2222 3500 
L 2222 3053 
L 1275 3053 
L 1275 0 
L 697 0 
L 697 3053 
L 147 3053 
L 147 3500 
L 697 3500 
L 697 3744 
Q 697 4328 969 4595 
Q 1241 4863 1831 4863 
L 2375 4863 
z
" transform="scale(0.015625)"/>
       <path id="DejaVuSans-6f" d="M 1959 3097 
Q 1497 3097 1228 2736 
Q 959 2375 959 1747 
Q 959 1119 1226 758 
Q 1494 397 1959 397 
Q 2419 397 2687 759 
Q 2956 1122 2956 1747 
Q 2956 2369 2687 2733 
Q 2419 3097 1959 3097 
z
M 1959 3584 
Q 2709 3584 3137 3096 
Q 3566 2609 3566 1747 
Q 3566 888 3137 398 
Q 2709 -91 1959 -91 
Q 1206 -91 779 398 
Q 353 888 353 1747 
Q 353 2609 779 3096 
Q 1206 3584 1959 3584 
z
" transform="scale(0.015625)"/>
       <path id="DejaVuSans-69" d="M 603 3500 
L 1178 3500 
L 1178 0 
L 603 0 
L 603 3500 
z
M 603 4863 
L 1178 4863 
L 1178 4134 
L 603 4134 
L 603 4863 
z
" transform="scale(0.015625)"/>
       <path id="DejaVuSans-47" d="M 3809 666 
L 3809 1919 
L 2778 1919 
L 2778 2438 
L 4434 2438 
L 4434 434 
Q 4069 175 3628 42 
Q 3188 -91 2688 -91 
Q 1594 -91 976 548 
Q 359 1188 359 2328 
Q 359 3472 976 4111 
Q 1594 4750 2688 4750 
Q 3144 4750 3555 4637 
Q 3966 4525 4313 4306 
L 4313 3634 
Q 3963 3931 3569 4081 
Q 3175 4231 2741 4231 
Q 1884 4231 1454 3753 
Q 1025 3275 1025 2328 
Q 1025 1384 1454 906 
Q 1884 428 2741 428 
Q 3075 428 3337 486 
Q 3600 544 3809 666 
z
" transform="scale(0.015625)"/>
       <path id="DejaVuSans-28" d="M 1984 4856 
Q 1566 4138 1362 3434 
Q 1159 2731 1159 2009 
Q 1159 1288 1364 580 
Q 1569 -128 1984 -844 
L 1484 -844 
Q 1016 -109 783 600 
Q 550 1309 550 2009 
Q 550 2706 781 3412 
Q 1013 4119 1484 4856 
L 1984 4856 
z
" transform="scale(0.015625)"/>
       <path id="DejaVuSans-29" d="M 513 4856 
L 1013 4856 
Q 1481 4119 1714 3412 
Q 1947 2706 1947 2009 
Q 1947 1309 1714 600 
Q 1481 -109 1013 -844 
L 513 -844 
Q 928 -128 1133 580 
Q 1338 1288 1338 2009 
Q 1338 2731 1133 3434 
Q 928 4138 513 4856 
z
" transform="scale(0.015625)"/>
      </defs>
      <use xlink:href="#DejaVuSans-45"/>
      <use xlink:href="#DejaVuSans-78" x="63.183594"/>
      <use xlink:href="#DejaVuSans-70" x="122.363281"/>
      <use xlink:href="#DejaVuSans-65" x="185.839844"/>
      <use xlink:href="#DejaVuSans-63" x="247.363281"/>
      <use xlink:href="#DejaVuSans-74" x="302.34375"/>
      <use xlink:href="#DejaVuSans-65" x="341.552734"/>
      <use xlink:href="#DejaVuSans-64" x="403.076172"/>
      <use xlink:href="#DejaVuSans-20" x="466.552734"/>
      <use xlink:href="#DejaVuSans-49" x="498.339844"/>
      <use xlink:href="#DejaVuSans-6e" x="527.832031"/>
      <use xlink:href="#DejaVuSans-66" x="591.210938"/>
      <use xlink:href="#DejaVuSans-6f" x="626.416016"/>
      <use xlink:href="#DejaVuSans-72" x="687.597656"/>
      <use xlink:href="#DejaVuSans-6d" x="726.960938"/>
      <use xlink:href="#DejaVuSans-61" x="824.373047"/>
      <use xlink:href="#DejaVuSans-74" x="885.652344"/>
      <use xlink:href="#DejaVuSans-69" x="924.861328"/>
      <use xlink:href="#DejaVuSans-6f" x="952.644531"/>
      <use xlink:href="#DejaVuSans-6e" x="1013.826172"/>
      <use xlink:href="#DejaVuSans-20" x="1077.205078"/>
      <use xlink:href="#DejaVuSans-47" x="1108.992188"/>
      <use xlink:href="#DejaVuSans-61" x="1186.482422"/>
      <use xlink:href="#DejaVuSans-69" x="1247.761719"/>
      <use xlink:href="#DejaVuSans-6e" x="1275.544922"/>
      <use xlink:href="#DejaVuSans-20" x="1338.923828"/>
      <use xlink:href="#DejaVuSans-28" x="1370.710938"/>
      <use xlink:href="#DejaVuSans-45" x="1409.724609"/>
      <use xlink:href="#DejaVuSans-49" x="1472.908203"/>
      <use xlink:href="#DejaVuSans-47" x="1502.400391"/>
      <use xlink:href="#DejaVuSans-29" x="1579.890625"/>
     </g>
    </g>
   </g>
   <g id="line2d_17">
    <path d="M 65.025369 57.449489 
L 71.236872 57.386449 
L 77.448375 57.235506 
L 83.659878 56.959602 
L 89.87138 56.518601 
L 96.082882 55.896481 
L 102.294386 55.099569 
L 108.505886 54.16172 
L 114.717391 53.100161 
L 120.928895 51.956552 
L 127.140395 50.750655 
L 133.351899 49.534016 
L 139.563403 48.268454 
L 145.774903 46.956075 
L 151.986403 45.600062 
L 158.197912 44.164583 
L 164.409412 42.639267 
L 170.620912 41.056477 
L 176.832421 39.376715 
L 183.04392 37.63842 
L 189.25542 35.886342 
L 195.466929 34.12588 
L 201.678429 32.468885 
L 207.889929 30.981212 
L 214.101438 29.620966 
L 220.312937 28.469962 
L 226.524437 27.600232 
L 232.735937 27.00003 
L 238.947437 26.621029 
L 245.158955 26.577525 
L 251.370455 26.661701 
L 257.581954 27.100103 
L 263.793454 27.675658 
L 270.004954 28.454417 
L 276.216454 29.369353 
L 282.427954 30.459152 
L 288.639472 31.747147 
L 294.850972 33.218839 
L 301.062471 35.063175 
L 307.273971 37.031005 
L 313.485471 39.387754 
L 319.696971 41.851178 
L 325.908489 44.500462 
L 332.119989 47.134481 
L 338.331488 49.751631 
L 344.542988 52.028521 
L 350.754488 53.949528 
L 356.965988 55.419226 
L 363.177506 56.413317 
L 369.389006 57.021086 
" clip-path="url(#p4135033d9b)" style="fill: none; stroke: #4c72b0; stroke-width: 1.5; stroke-linecap: round"/>
   </g>
   <g id="line2d_18">
    <path d="M 65.025369 86.555371 
L 71.236872 86.459709 
L 77.448375 86.265352 
L 83.659878 85.90409 
L 89.87138 85.342518 
L 96.082882 84.535338 
L 102.294386 83.534782 
L 108.505886 82.361793 
L 114.717391 81.031883 
L 120.928895 79.597843 
L 127.140395 78.118523 
L 133.351899 76.660642 
L 139.563403 75.086978 
L 145.774903 73.532872 
L 151.986403 71.902212 
L 158.197912 70.20014 
L 164.409412 68.405244 
L 170.620912 66.45436 
L 176.832421 64.485164 
L 183.04392 62.437331 
L 189.25542 60.34922 
L 195.466929 58.229945 
L 201.678429 56.294006 
L 207.889929 54.492263 
L 214.101438 52.890606 
L 220.312937 51.520711 
L 226.524437 50.433772 
L 232.735937 49.662988 
L 238.947437 49.319839 
L 245.158955 49.195898 
L 251.370455 49.349357 
L 257.581954 49.76499 
L 263.793454 50.379337 
L 270.004954 51.268633 
L 276.216454 52.360561 
L 282.427954 53.593147 
L 288.639472 55.165074 
L 294.850972 56.995843 
L 301.062471 58.981189 
L 307.273971 61.506027 
L 313.485471 64.271982 
L 319.696971 67.371291 
L 325.908489 70.637652 
L 332.119989 73.925935 
L 338.331488 77.126964 
L 344.542988 79.927518 
L 350.754488 82.300628 
L 356.965988 84.121986 
L 363.177506 85.285756 
L 369.389006 85.99698 
" clip-path="url(#p4135033d9b)" style="fill: none; stroke: #dd8452; stroke-width: 1.5; stroke-linecap: round"/>
   </g>
   <g id="line2d_19">
    <path d="M 65.025369 110.780399 
L 71.236872 110.660174 
L 77.448375 110.40842 
L 83.659878 109.953221 
L 89.87138 109.251337 
L 96.082882 108.259776 
L 102.294386 107.033859 
L 108.505886 105.586736 
L 114.717391 103.992573 
L 120.928895 102.27413 
L 127.140395 100.535827 
L 133.351899 98.757708 
L 139.563403 96.975931 
L 145.774903 95.147078 
L 151.986403 93.276339 
L 158.197912 91.296531 
L 164.409412 89.215318 
L 170.620912 87.011344 
L 176.832421 84.721225 
L 183.04392 82.358462 
L 189.25542 79.957606 
L 195.466929 77.60019 
L 201.678429 75.315092 
L 207.889929 73.212409 
L 214.101438 71.421212 
L 220.312937 69.859215 
L 226.524437 68.586315 
L 232.735937 67.79689 
L 238.947437 67.220907 
L 245.158955 67.060784 
L 251.370455 67.164542 
L 257.581954 67.635645 
L 263.793454 68.322951 
L 270.004954 69.330773 
L 276.216454 70.540309 
L 282.427954 72.036761 
L 288.639472 73.7087 
L 294.850972 75.785158 
L 301.062471 78.227187 
L 307.273971 81.031164 
L 313.485471 84.252388 
L 319.696971 87.909626 
L 325.908489 91.787299 
L 332.119989 95.719207 
L 338.331488 99.608055 
L 344.542988 102.978727 
L 350.754488 105.787993 
L 356.965988 107.905056 
L 363.177506 109.28518 
L 369.389006 110.093007 
" clip-path="url(#p4135033d9b)" style="fill: none; stroke: #55a868; stroke-width: 1.5; stroke-linecap: round"/>
   </g>
   <g id="line2d_20">
    <path d="M 65.025369 131.534313 
L 71.236872 131.390425 
L 77.448375 131.077157 
L 83.659878 130.506337 
L 89.87138 129.639133 
L 96.082882 128.440132 
L 102.294386 126.969859 
L 108.505886 125.259586 
L 114.717391 123.394057 
L 120.928895 121.382817 
L 127.140395 119.373147 
L 133.351899 117.364512 
L 139.563403 115.323793 
L 145.774903 113.252079 
L 151.986403 111.102571 
L 158.197912 108.900359 
L 164.409412 106.60329 
L 170.620912 104.110541 
L 176.832421 101.498858 
L 183.04392 98.879067 
L 189.25542 96.247984 
L 195.466929 93.523622 
L 201.678429 91.000135 
L 207.889929 88.746928 
L 214.101438 86.683166 
L 220.312937 84.815135 
L 226.524437 83.407348 
L 232.735937 82.429372 
L 238.947437 81.874549 
L 245.158955 81.561164 
L 251.370455 81.809807 
L 257.581954 82.225267 
L 263.793454 83.0057 
L 270.004954 84.030202 
L 276.216454 85.326161 
L 282.427954 86.952477 
L 288.639472 88.910773 
L 294.850972 91.233329 
L 301.062471 94.067413 
L 307.273971 97.174553 
L 313.485471 100.860823 
L 319.696971 104.909368 
L 325.908489 109.311476 
L 332.119989 113.946781 
L 338.331488 118.435249 
L 344.542988 122.49049 
L 350.754488 125.808255 
L 356.965988 128.268304 
L 363.177506 129.819928 
L 369.389006 130.748925 
" clip-path="url(#p4135033d9b)" style="fill: none; stroke: #c44e52; stroke-width: 1.5; stroke-linecap: round"/>
   </g>
   <g id="line2d_21">
    <path d="M 65.025369 149.697246 
L 71.236872 149.504933 
L 77.448375 149.130651 
L 83.659878 148.439203 
L 89.87138 147.399803 
L 96.082882 145.973845 
L 102.294386 144.254815 
L 108.505886 142.262061 
L 114.717391 140.11537 
L 120.928895 137.82934 
L 127.140395 135.564412 
L 133.351899 133.295748 
L 139.563403 131.023692 
L 145.774903 128.71229 
L 151.986403 126.332915 
L 158.197912 123.900503 
L 164.409412 121.334239 
L 170.620912 118.567696 
L 176.832421 115.763526 
L 183.04392 112.866423 
L 189.25542 109.959697 
L 195.466929 107.02605 
L 201.678429 104.172396 
L 207.889929 101.630253 
L 214.101438 99.391546 
L 220.312937 97.484445 
L 226.524437 95.839725 
L 232.735937 94.743891 
L 238.947437 94.106977 
L 245.158955 93.774629 
L 251.370455 93.840965 
L 257.581954 94.408619 
L 263.793454 95.143191 
L 270.004954 96.312934 
L 276.216454 97.706892 
L 282.427954 99.50804 
L 288.639472 101.685941 
L 294.850972 104.246249 
L 301.062471 107.245985 
L 307.273971 110.804313 
L 313.485471 114.867074 
L 319.696971 119.363747 
L 325.908489 124.340465 
L 332.119989 129.486649 
L 338.331488 134.581402 
L 344.542988 139.259521 
L 350.754488 143.140943 
L 356.965988 146.005824 
L 363.177506 147.776522 
L 369.389006 148.774778 
" clip-path="url(#p4135033d9b)" style="fill: none; stroke: #8172b3; stroke-width: 1.5; stroke-linecap: round"/>
   </g>
   <g id="line2d_22">
    <path d="M 65.025369 165.832589 
L 71.236872 165.604543 
L 77.448375 165.1354 
L 83.659878 164.319346 
L 89.87138 163.074416 
L 96.082882 161.43421 
L 102.294386 159.445349 
L 108.505886 157.168404 
L 114.717391 154.760454 
L 120.928895 152.19479 
L 127.140395 149.669015 
L 133.351899 147.151164 
L 139.563403 144.655022 
L 145.774903 142.1164 
L 151.986403 139.525341 
L 158.197912 136.853452 
L 164.409412 134.055653 
L 170.620912 131.089016 
L 176.832421 128.04611 
L 183.04392 124.859372 
L 189.25542 121.652838 
L 195.466929 118.459424 
L 201.678429 115.544974 
L 207.889929 112.770036 
L 214.101438 110.248608 
L 220.312937 108.082198 
L 226.524437 106.417485 
L 232.735937 105.116597 
L 238.947437 104.430816 
L 245.158955 104.127754 
L 251.370455 104.160994 
L 257.581954 104.676153 
L 263.793454 105.41197 
L 270.004954 106.766238 
L 276.216454 108.236172 
L 282.427954 110.222255 
L 288.639472 112.489559 
L 294.850972 115.273487 
L 301.062471 118.621928 
L 307.273971 122.479612 
L 313.485471 126.954874 
L 319.696971 131.932993 
L 325.908489 137.396185 
L 332.119989 142.967243 
L 338.331488 148.639172 
L 344.542988 153.918905 
L 350.754488 158.366458 
L 356.965988 161.679333 
L 363.177506 163.698024 
L 369.389006 164.806532 
" clip-path="url(#p4135033d9b)" style="fill: none; stroke: #937860; stroke-width: 1.5; stroke-linecap: round"/>
   </g>
   <g id="line2d_23">
    <path d="M 65.025369 180.351143 
L 71.236872 180.076199 
L 77.448375 179.513549 
L 83.659878 178.556287 
L 89.87138 177.122827 
L 96.082882 175.21896 
L 102.294386 172.961704 
L 108.505886 170.435718 
L 114.717391 167.683505 
L 120.928895 164.897704 
L 127.140395 162.100443 
L 133.351899 159.408155 
L 139.563403 156.674134 
L 145.774903 153.896365 
L 151.986403 151.130597 
L 158.197912 148.249056 
L 164.409412 145.274159 
L 170.620912 142.085422 
L 176.832421 138.796243 
L 183.04392 135.428541 
L 189.25542 132.032941 
L 195.466929 128.542635 
L 201.678429 125.400453 
L 207.889929 122.382553 
L 214.101438 119.646729 
L 220.312937 117.372624 
L 226.524437 115.458229 
L 232.735937 114.16363 
L 238.947437 113.303062 
L 245.158955 112.919167 
L 251.370455 112.925035 
L 257.581954 113.447867 
L 263.793454 114.333781 
L 270.004954 115.559404 
L 276.216454 117.284058 
L 282.427954 119.306127 
L 288.639472 121.760242 
L 294.850972 124.844934 
L 301.062471 128.42114 
L 307.273971 132.61558 
L 313.485471 137.470401 
L 319.696971 142.796042 
L 325.908489 148.869226 
L 332.119989 155.03343 
L 338.331488 161.132613 
L 344.542988 166.770433 
L 350.754488 171.884317 
L 356.965988 175.705715 
L 363.177506 178.018833 
L 369.389006 179.269347 
" clip-path="url(#p4135033d9b)" style="fill: none; stroke: #da8bc3; stroke-width: 1.5; stroke-linecap: round"/>
   </g>
   <g id="line2d_24">
    <path d="M 65.025369 193.53784 
L 71.236872 193.220148 
L 77.448375 192.563086 
L 83.659878 191.439121 
L 89.87138 189.809857 
L 96.082882 187.672081 
L 102.294386 185.108856 
L 108.505886 182.301127 
L 114.717391 179.296546 
L 120.928895 176.247034 
L 127.140395 173.275159 
L 133.351899 170.303895 
L 139.563403 167.368481 
L 145.774903 164.379803 
L 151.986403 161.397275 
L 158.197912 158.327226 
L 164.409412 155.143107 
L 170.620912 151.737218 
L 176.832421 148.241399 
L 183.04392 144.690201 
L 189.25542 141.076074 
L 195.466929 137.41404 
L 201.678429 134.073175 
L 207.889929 130.825329 
L 214.101438 127.922993 
L 220.312937 125.468681 
L 226.524437 123.477281 
L 232.735937 122.00246 
L 238.947437 121.100932 
L 245.158955 120.641005 
L 251.370455 120.611972 
L 257.581954 121.126264 
L 263.793454 121.952369 
L 270.004954 123.359573 
L 276.216454 125.129149 
L 282.427954 127.271223 
L 288.639472 129.929644 
L 294.850972 133.219474 
L 301.062471 136.964706 
L 307.273971 141.524165 
L 313.485471 146.718089 
L 319.696971 152.552162 
L 325.908489 159.009053 
L 332.119989 165.658715 
L 338.331488 172.390956 
L 344.542988 178.535242 
L 350.754488 183.770635 
L 356.965988 188.301629 
L 363.177506 191.017991 
L 369.389006 192.387491 
" clip-path="url(#p4135033d9b)" style="fill: none; stroke: #8c8c8c; stroke-width: 1.5; stroke-linecap: round"/>
   </g>
   <g id="line2d_25">
    <path d="M 65.025369 205.63501 
L 71.236872 205.25899 
L 77.448375 204.490104 
L 83.659878 203.22639 
L 89.87138 201.355564 
L 96.082882 198.962284 
L 102.294386 196.163485 
L 108.505886 193.059144 
L 114.717391 189.853155 
L 120.928895 186.512148 
L 127.140395 183.230374 
L 133.351899 180.066353 
L 139.563403 176.937472 
L 145.774903 173.767418 
L 151.986403 170.638202 
L 158.197912 167.341277 
L 164.409412 163.990557 
L 170.620912 160.403869 
L 176.832421 156.685027 
L 183.04392 152.855211 
L 189.25542 149.153882 
L 195.466929 145.256358 
L 201.678429 141.585375 
L 207.889929 138.28467 
L 214.101438 135.170422 
L 220.312937 132.664234 
L 226.524437 130.563513 
L 232.735937 128.985705 
L 238.947437 127.8734 
L 245.158955 127.331863 
L 251.370455 127.438024 
L 257.581954 127.908169 
L 263.793454 128.799241 
L 270.004954 130.152334 
L 276.216454 131.96726 
L 282.427954 134.295548 
L 288.639472 137.105512 
L 294.850972 140.521867 
L 301.062471 144.539908 
L 307.273971 149.3178 
L 313.485471 154.895555 
L 319.696971 161.110627 
L 325.908489 167.985836 
L 332.119989 175.287364 
L 338.331488 182.569701 
L 344.542988 189.293788 
L 350.754488 195.03522 
L 356.965988 199.801531 
L 363.177506 202.911628 
L 369.389006 204.444226 
" clip-path="url(#p4135033d9b)" style="fill: none; stroke: #ccb974; stroke-width: 1.5; stroke-linecap: round"/>
   </g>
   <g id="line2d_26">
    <path d="M 65.025369 216.777892 
L 71.236872 216.351318 
L 77.448375 215.478897 
L 83.659878 214.027546 
L 89.87138 211.955223 
L 96.082882 209.309121 
L 102.294386 206.213234 
L 108.505886 202.86047 
L 114.717391 199.329277 
L 120.928895 195.762425 
L 127.140395 192.288078 
L 133.351899 188.941783 
L 139.563403 185.628901 
L 145.774903 182.297474 
L 151.986403 178.92963 
L 158.197912 175.497058 
L 164.409412 171.917004 
L 170.620912 168.18316 
L 176.832421 164.274674 
L 183.04392 160.342025 
L 189.25542 156.346498 
L 195.466929 152.279669 
L 201.678429 148.517749 
L 207.889929 144.918245 
L 214.101438 141.623401 
L 220.312937 139.003733 
L 226.524437 136.748891 
L 232.735937 134.986983 
L 238.947437 133.745285 
L 245.158955 133.293917 
L 251.370455 133.338053 
L 257.581954 133.724918 
L 263.793454 134.668415 
L 270.004954 136.105014 
L 276.216454 138.040009 
L 282.427954 140.429654 
L 288.639472 143.324739 
L 294.850972 146.970366 
L 301.062471 151.213305 
L 307.273971 156.355053 
L 313.485471 162.124748 
L 319.696971 168.724372 
L 325.908489 176.104157 
L 332.119989 183.89499 
L 338.331488 191.679154 
L 344.542988 199.025417 
L 350.754488 205.277215 
L 356.965988 210.267399 
L 363.177506 213.82562 
L 369.389006 215.547032 
" clip-path="url(#p4135033d9b)" style="fill: none; stroke: #64b5cd; stroke-width: 1.5; stroke-linecap: round"/>
   </g>
   <g id="LineCollection_1">
    <path d="M 245.158955 272.778828 
L 245.158955 26.577525 
" clip-path="url(#p4135033d9b)" style="fill: none; stroke-dasharray: 5.55,2.4; stroke-dashoffset: 0; stroke: #1a1a1a; stroke-width: 1.5"/>
   </g>
   <g id="patch_3">
    <path d="M 49.807188 228.819141 
L 49.807188 11.379141 
" style="fill: none; stroke: #ffffff; stroke-width: 1.25; stroke-linejoin: miter; stroke-linecap: square"/>
   </g>
   <g id="patch_4">
    <path d="M 384.607188 228.819141 
L 384.607188 11.379141 
" style="fill: none; stroke: #ffffff; stroke-width: 1.25; stroke-linejoin: miter; stroke-linecap: square"/>
   </g>
   <g id="patch_5">
    <path d="M 49.807187 228.819141 
L 384.607188 228.819141 
" style="fill: none; stroke: #ffffff; stroke-width: 1.25; stroke-linejoin: miter; stroke-linecap: square"/>
   </g>
   <g id="patch_6">
    <path d="M 49.807187 11.379141 
L 384.607188 11.379141 
" style="fill: none; stroke: #ffffff; stroke-width: 1.25; stroke-linejoin: miter; stroke-linecap: square"/>
   </g>
   <g id="legend_1">
    <g id="patch_7">
     <path d="M 392.307187 195.079141 
L 516.607188 195.079141 
Q 518.807188 195.079141 518.807188 192.879141 
L 518.807188 19.079141 
Q 518.807188 16.879141 516.607188 16.879141 
L 392.307187 16.879141 
Q 390.107188 16.879141 390.107188 19.079141 
L 390.107188 192.879141 
Q 390.107188 195.079141 392.307187 195.079141 
z
" style="fill: #eaeaf2; opacity: 0.8; stroke: #cccccc; stroke-linejoin: miter"/>
    </g>
    <g id="line2d_27">
     <path d="M 394.507187 27.131484 
L 405.507187 27.131484 
L 416.507187 27.131484 
" style="fill: none; stroke: #4c72b0; stroke-width: 1.5; stroke-linecap: round"/>
    </g>
    <g id="text_19">
     <!-- $\Gamma_\theta$ = 0.12 (kPa)$^2$ -->
     <g style="fill: #262626" transform="translate(425.307187 30.981484)scale(0.11 -0.11)">
      <defs>
       <path id="DejaVuSans-393" d="M 628 0 
L 628 4666 
L 3531 4666 
L 3531 4134 
L 1259 4134 
L 1259 0 
L 628 0 
z
" transform="scale(0.015625)"/>
       <path id="DejaVuSans-Oblique-3b8" d="M 2913 2219 
L 925 2219 
Q 791 1284 928 888 
Q 1100 400 1566 400 
Q 2034 400 2391 891 
Q 2703 1322 2913 2219 
z
M 3009 2750 
Q 3094 3638 2984 3950 
Q 2813 4444 2353 4444 
Q 1875 4444 1525 3956 
Q 1250 3563 1034 2750 
L 3009 2750 
z
M 2444 4913 
Q 3194 4913 3494 4250 
Q 3794 3591 3566 2422 
Q 3341 1256 2781 594 
Q 2225 -72 1475 -72 
Q 722 -72 425 594 
Q 128 1256 353 2422 
Q 581 3591 1134 4250 
Q 1691 4913 2444 4913 
z
" transform="scale(0.015625)"/>
       <path id="DejaVuSans-3d" d="M 678 2906 
L 4684 2906 
L 4684 2381 
L 678 2381 
L 678 2906 
z
M 678 1631 
L 4684 1631 
L 4684 1100 
L 678 1100 
L 678 1631 
z
" transform="scale(0.015625)"/>
       <path id="DejaVuSans-6b" d="M 581 4863 
L 1159 4863 
L 1159 1991 
L 2875 3500 
L 3609 3500 
L 1753 1863 
L 3688 0 
L 2938 0 
L 1159 1709 
L 1159 0 
L 581 0 
L 581 4863 
z
" transform="scale(0.015625)"/>
       <path id="DejaVuSans-50" d="M 1259 4147 
L 1259 2394 
L 2053 2394 
Q 2494 2394 2734 2622 
Q 2975 2850 2975 3272 
Q 2975 3691 2734 3919 
Q 2494 4147 2053 4147 
L 1259 4147 
z
M 628 4666 
L 2053 4666 
Q 2838 4666 3239 4311 
Q 3641 3956 3641 3272 
Q 3641 2581 3239 2228 
Q 2838 1875 2053 1875 
L 1259 1875 
L 1259 0 
L 628 0 
L 628 4666 
z
" transform="scale(0.015625)"/>
      </defs>
      <use xlink:href="#DejaVuSans-393" transform="translate(0 0.765625)"/>
      <use xlink:href="#DejaVuSans-Oblique-3b8" transform="translate(56.669922 -15.640625)scale(0.7)"/>
      <use xlink:href="#DejaVuSans-20" transform="translate(102.231445 0.765625)"/>
      <use xlink:href="#DejaVuSans-3d" transform="translate(134.018555 0.765625)"/>
      <use xlink:href="#DejaVuSans-20" transform="translate(217.807617 0.765625)"/>
      <use xlink:href="#DejaVuSans-30" transform="translate(249.594727 0.765625)"/>
      <use xlink:href="#DejaVuSans-2e" transform="translate(313.217773 0.765625)"/>
      <use xlink:href="#DejaVuSans-31" transform="translate(345.004883 0.765625)"/>
      <use xlink:href="#DejaVuSans-32" transform="translate(408.62793 0.765625)"/>
      <use xlink:href="#DejaVuSans-20" transform="translate(472.250977 0.765625)"/>
      <use xlink:href="#DejaVuSans-28" transform="translate(504.038086 0.765625)"/>
      <use xlink:href="#DejaVuSans-6b" transform="translate(543.051758 0.765625)"/>
      <use xlink:href="#DejaVuSans-50" transform="translate(600.961914 0.765625)"/>
      <use xlink:href="#DejaVuSans-61" transform="translate(661.264648 0.765625)"/>
      <use xlink:href="#DejaVuSans-29" transform="translate(722.543945 0.765625)"/>
      <use xlink:href="#DejaVuSans-32" transform="translate(762.514648 39.046875)scale(0.7)"/>
     </g>
    </g>
    <g id="line2d_28">
     <path d="M 394.507187 44.621484 
L 405.507187 44.621484 
L 416.507187 44.621484 
" style="fill: none; stroke: #dd8452; stroke-width: 1.5; stroke-linecap: round"/>
    </g>
    <g id="text_20">
     <!-- $\Gamma_\theta$ = 0.15 (kPa)$^2$ -->
     <g style="fill: #262626" transform="translate(425.307187 48.471484)scale(0.11 -0.11)">
      <use xlink:href="#DejaVuSans-393" transform="translate(0 0.765625)"/>
      <use xlink:href="#DejaVuSans-Oblique-3b8" transform="translate(56.669922 -15.640625)scale(0.7)"/>
      <use xlink:href="#DejaVuSans-20" transform="translate(102.231445 0.765625)"/>
      <use xlink:href="#DejaVuSans-3d" transform="translate(134.018555 0.765625)"/>
      <use xlink:href="#DejaVuSans-20" transform="translate(217.807617 0.765625)"/>
      <use xlink:href="#DejaVuSans-30" transform="translate(249.594727 0.765625)"/>
      <use xlink:href="#DejaVuSans-2e" transform="translate(313.217773 0.765625)"/>
      <use xlink:href="#DejaVuSans-31" transform="translate(345.004883 0.765625)"/>
      <use xlink:href="#DejaVuSans-35" transform="translate(408.62793 0.765625)"/>
      <use xlink:href="#DejaVuSans-20" transform="translate(472.250977 0.765625)"/>
      <use xlink:href="#DejaVuSans-28" transform="translate(504.038086 0.765625)"/>
      <use xlink:href="#DejaVuSans-6b" transform="translate(543.051758 0.765625)"/>
      <use xlink:href="#DejaVuSans-50" transform="translate(600.961914 0.765625)"/>
      <use xlink:href="#DejaVuSans-61" transform="translate(661.264648 0.765625)"/>
      <use xlink:href="#DejaVuSans-29" transform="translate(722.543945 0.765625)"/>
      <use xlink:href="#DejaVuSans-32" transform="translate(762.514648 39.046875)scale(0.7)"/>
     </g>
    </g>
    <g id="line2d_29">
     <path d="M 394.507187 62.111484 
L 405.507187 62.111484 
L 416.507187 62.111484 
" style="fill: none; stroke: #55a868; stroke-width: 1.5; stroke-linecap: round"/>
    </g>
    <g id="text_21">
     <!-- $\Gamma_\theta$ = 0.18 (kPa)$^2$ -->
     <g style="fill: #262626" transform="translate(425.307187 65.961484)scale(0.11 -0.11)">
      <use xlink:href="#DejaVuSans-393" transform="translate(0 0.765625)"/>
      <use xlink:href="#DejaVuSans-Oblique-3b8" transform="translate(56.669922 -15.640625)scale(0.7)"/>
      <use xlink:href="#DejaVuSans-20" transform="translate(102.231445 0.765625)"/>
      <use xlink:href="#DejaVuSans-3d" transform="translate(134.018555 0.765625)"/>
      <use xlink:href="#DejaVuSans-20" transform="translate(217.807617 0.765625)"/>
      <use xlink:href="#DejaVuSans-30" transform="translate(249.594727 0.765625)"/>
      <use xlink:href="#DejaVuSans-2e" transform="translate(313.217773 0.765625)"/>
      <use xlink:href="#DejaVuSans-31" transform="translate(345.004883 0.765625)"/>
      <use xlink:href="#DejaVuSans-38" transform="translate(408.62793 0.765625)"/>
      <use xlink:href="#DejaVuSans-20" transform="translate(472.250977 0.765625)"/>
      <use xlink:href="#DejaVuSans-28" transform="translate(504.038086 0.765625)"/>
      <use xlink:href="#DejaVuSans-6b" transform="translate(543.051758 0.765625)"/>
      <use xlink:href="#DejaVuSans-50" transform="translate(600.961914 0.765625)"/>
      <use xlink:href="#DejaVuSans-61" transform="translate(661.264648 0.765625)"/>
      <use xlink:href="#DejaVuSans-29" transform="translate(722.543945 0.765625)"/>
      <use xlink:href="#DejaVuSans-32" transform="translate(762.514648 39.046875)scale(0.7)"/>
     </g>
    </g>
    <g id="line2d_30">
     <path d="M 394.507187 79.601484 
L 405.507187 79.601484 
L 416.507187 79.601484 
" style="fill: none; stroke: #c44e52; stroke-width: 1.5; stroke-linecap: round"/>
    </g>
    <g id="text_22">
     <!-- $\Gamma_\theta$ = 0.21 (kPa)$^2$ -->
     <g style="fill: #262626" transform="translate(425.307187 83.451484)scale(0.11 -0.11)">
      <use xlink:href="#DejaVuSans-393" transform="translate(0 0.765625)"/>
      <use xlink:href="#DejaVuSans-Oblique-3b8" transform="translate(56.669922 -15.640625)scale(0.7)"/>
      <use xlink:href="#DejaVuSans-20" transform="translate(102.231445 0.765625)"/>
      <use xlink:href="#DejaVuSans-3d" transform="translate(134.018555 0.765625)"/>
      <use xlink:href="#DejaVuSans-20" transform="translate(217.807617 0.765625)"/>
      <use xlink:href="#DejaVuSans-30" transform="translate(249.594727 0.765625)"/>
      <use xlink:href="#DejaVuSans-2e" transform="translate(313.217773 0.765625)"/>
      <use xlink:href="#DejaVuSans-32" transform="translate(339.504883 0.765625)"/>
      <use xlink:href="#DejaVuSans-31" transform="translate(403.12793 0.765625)"/>
      <use xlink:href="#DejaVuSans-20" transform="translate(466.750977 0.765625)"/>
      <use xlink:href="#DejaVuSans-28" transform="translate(498.538086 0.765625)"/>
      <use xlink:href="#DejaVuSans-6b" transform="translate(537.551758 0.765625)"/>
      <use xlink:href="#DejaVuSans-50" transform="translate(595.461914 0.765625)"/>
      <use xlink:href="#DejaVuSans-61" transform="translate(655.764648 0.765625)"/>
      <use xlink:href="#DejaVuSans-29" transform="translate(717.043945 0.765625)"/>
      <use xlink:href="#DejaVuSans-32" transform="translate(757.014648 39.046875)scale(0.7)"/>
     </g>
    </g>
    <g id="line2d_31">
     <path d="M 394.507187 97.091484 
L 405.507187 97.091484 
L 416.507187 97.091484 
" style="fill: none; stroke: #8172b3; stroke-width: 1.5; stroke-linecap: round"/>
    </g>
    <g id="text_23">
     <!-- $\Gamma_\theta$ = 0.24 (kPa)$^2$ -->
     <g style="fill: #262626" transform="translate(425.307187 100.941484)scale(0.11 -0.11)">
      <use xlink:href="#DejaVuSans-393" transform="translate(0 0.765625)"/>
      <use xlink:href="#DejaVuSans-Oblique-3b8" transform="translate(56.669922 -15.640625)scale(0.7)"/>
      <use xlink:href="#DejaVuSans-20" transform="translate(102.231445 0.765625)"/>
      <use xlink:href="#DejaVuSans-3d" transform="translate(134.018555 0.765625)"/>
      <use xlink:href="#DejaVuSans-20" transform="translate(217.807617 0.765625)"/>
      <use xlink:href="#DejaVuSans-30" transform="translate(249.594727 0.765625)"/>
      <use xlink:href="#DejaVuSans-2e" transform="translate(313.217773 0.765625)"/>
      <use xlink:href="#DejaVuSans-32" transform="translate(339.504883 0.765625)"/>
      <use xlink:href="#DejaVuSans-34" transform="translate(403.12793 0.765625)"/>
      <use xlink:href="#DejaVuSans-20" transform="translate(466.750977 0.765625)"/>
      <use xlink:href="#DejaVuSans-28" transform="translate(498.538086 0.765625)"/>
      <use xlink:href="#DejaVuSans-6b" transform="translate(537.551758 0.765625)"/>
      <use xlink:href="#DejaVuSans-50" transform="translate(595.461914 0.765625)"/>
      <use xlink:href="#DejaVuSans-61" transform="translate(655.764648 0.765625)"/>
      <use xlink:href="#DejaVuSans-29" transform="translate(717.043945 0.765625)"/>
      <use xlink:href="#DejaVuSans-32" transform="translate(757.014648 39.046875)scale(0.7)"/>
     </g>
    </g>
    <g id="line2d_32">
     <path d="M 394.507187 114.581484 
L 405.507187 114.581484 
L 416.507187 114.581484 
" style="fill: none; stroke: #937860; stroke-width: 1.5; stroke-linecap: round"/>
    </g>
    <g id="text_24">
     <!-- $\Gamma_\theta$ = 0.26 (kPa)$^2$ -->
     <g style="fill: #262626" transform="translate(425.307187 118.431484)scale(0.11 -0.11)">
      <defs>
       <path id="DejaVuSans-36" d="M 2113 2584 
Q 1688 2584 1439 2293 
Q 1191 2003 1191 1497 
Q 1191 994 1439 701 
Q 1688 409 2113 409 
Q 2538 409 2786 701 
Q 3034 994 3034 1497 
Q 3034 2003 2786 2293 
Q 2538 2584 2113 2584 
z
M 3366 4563 
L 3366 3988 
Q 3128 4100 2886 4159 
Q 2644 4219 2406 4219 
Q 1781 4219 1451 3797 
Q 1122 3375 1075 2522 
Q 1259 2794 1537 2939 
Q 1816 3084 2150 3084 
Q 2853 3084 3261 2657 
Q 3669 2231 3669 1497 
Q 3669 778 3244 343 
Q 2819 -91 2113 -91 
Q 1303 -91 875 529 
Q 447 1150 447 2328 
Q 447 3434 972 4092 
Q 1497 4750 2381 4750 
Q 2619 4750 2861 4703 
Q 3103 4656 3366 4563 
z
" transform="scale(0.015625)"/>
      </defs>
      <use xlink:href="#DejaVuSans-393" transform="translate(0 0.765625)"/>
      <use xlink:href="#DejaVuSans-Oblique-3b8" transform="translate(56.669922 -15.640625)scale(0.7)"/>
      <use xlink:href="#DejaVuSans-20" transform="translate(102.231445 0.765625)"/>
      <use xlink:href="#DejaVuSans-3d" transform="translate(134.018555 0.765625)"/>
      <use xlink:href="#DejaVuSans-20" transform="translate(217.807617 0.765625)"/>
      <use xlink:href="#DejaVuSans-30" transform="translate(249.594727 0.765625)"/>
      <use xlink:href="#DejaVuSans-2e" transform="translate(313.217773 0.765625)"/>
      <use xlink:href="#DejaVuSans-32" transform="translate(339.504883 0.765625)"/>
      <use xlink:href="#DejaVuSans-36" transform="translate(403.12793 0.765625)"/>
      <use xlink:href="#DejaVuSans-20" transform="translate(466.750977 0.765625)"/>
      <use xlink:href="#DejaVuSans-28" transform="translate(498.538086 0.765625)"/>
      <use xlink:href="#DejaVuSans-6b" transform="translate(537.551758 0.765625)"/>
      <use xlink:href="#DejaVuSans-50" transform="translate(595.461914 0.765625)"/>
      <use xlink:href="#DejaVuSans-61" transform="translate(655.764648 0.765625)"/>
      <use xlink:href="#DejaVuSans-29" transform="translate(717.043945 0.765625)"/>
      <use xlink:href="#DejaVuSans-32" transform="translate(757.014648 39.046875)scale(0.7)"/>
     </g>
    </g>
    <g id="line2d_33">
     <path d="M 394.507187 132.071484 
L 405.507187 132.071484 
L 416.507187 132.071484 
" style="fill: none; stroke: #da8bc3; stroke-width: 1.5; stroke-linecap: round"/>
    </g>
    <g id="text_25">
     <!-- $\Gamma_\theta$ = 0.29 (kPa)$^2$ -->
     <g style="fill: #262626" transform="translate(425.307187 135.921484)scale(0.11 -0.11)">
      <use xlink:href="#DejaVuSans-393" transform="translate(0 0.765625)"/>
      <use xlink:href="#DejaVuSans-Oblique-3b8" transform="translate(56.669922 -15.640625)scale(0.7)"/>
      <use xlink:href="#DejaVuSans-20" transform="translate(102.231445 0.765625)"/>
      <use xlink:href="#DejaVuSans-3d" transform="translate(134.018555 0.765625)"/>
      <use xlink:href="#DejaVuSans-20" transform="translate(217.807617 0.765625)"/>
      <use xlink:href="#DejaVuSans-30" transform="translate(249.594727 0.765625)"/>
      <use xlink:href="#DejaVuSans-2e" transform="translate(313.217773 0.765625)"/>
      <use xlink:href="#DejaVuSans-32" transform="translate(339.504883 0.765625)"/>
      <use xlink:href="#DejaVuSans-39" transform="translate(401.37793 0.765625)"/>
      <use xlink:href="#DejaVuSans-20" transform="translate(465.000977 0.765625)"/>
      <use xlink:href="#DejaVuSans-28" transform="translate(496.788086 0.765625)"/>
      <use xlink:href="#DejaVuSans-6b" transform="translate(535.801758 0.765625)"/>
      <use xlink:href="#DejaVuSans-50" transform="translate(593.711914 0.765625)"/>
      <use xlink:href="#DejaVuSans-61" transform="translate(654.014648 0.765625)"/>
      <use xlink:href="#DejaVuSans-29" transform="translate(715.293945 0.765625)"/>
      <use xlink:href="#DejaVuSans-32" transform="translate(755.264648 39.046875)scale(0.7)"/>
     </g>
    </g>
    <g id="line2d_34">
     <path d="M 394.507187 149.561484 
L 405.507187 149.561484 
L 416.507187 149.561484 
" style="fill: none; stroke: #8c8c8c; stroke-width: 1.5; stroke-linecap: round"/>
    </g>
    <g id="text_26">
     <!-- $\Gamma_\theta$ = 0.32 (kPa)$^2$ -->
     <g style="fill: #262626" transform="translate(425.307187 153.411484)scale(0.11 -0.11)">
      <use xlink:href="#DejaVuSans-393" transform="translate(0 0.765625)"/>
      <use xlink:href="#DejaVuSans-Oblique-3b8" transform="translate(56.669922 -15.640625)scale(0.7)"/>
      <use xlink:href="#DejaVuSans-20" transform="translate(102.231445 0.765625)"/>
      <use xlink:href="#DejaVuSans-3d" transform="translate(134.018555 0.765625)"/>
      <use xlink:href="#DejaVuSans-20" transform="translate(217.807617 0.765625)"/>
      <use xlink:href="#DejaVuSans-30" transform="translate(249.594727 0.765625)"/>
      <use xlink:href="#DejaVuSans-2e" transform="translate(313.217773 0.765625)"/>
      <use xlink:href="#DejaVuSans-33" transform="translate(345.004883 0.765625)"/>
      <use xlink:href="#DejaVuSans-32" transform="translate(408.62793 0.765625)"/>
      <use xlink:href="#DejaVuSans-20" transform="translate(472.250977 0.765625)"/>
      <use xlink:href="#DejaVuSans-28" transform="translate(504.038086 0.765625)"/>
      <use xlink:href="#DejaVuSans-6b" transform="translate(543.051758 0.765625)"/>
      <use xlink:href="#DejaVuSans-50" transform="translate(600.961914 0.765625)"/>
      <use xlink:href="#DejaVuSans-61" transform="translate(661.264648 0.765625)"/>
      <use xlink:href="#DejaVuSans-29" transform="translate(722.543945 0.765625)"/>
      <use xlink:href="#DejaVuSans-32" transform="translate(762.514648 39.046875)scale(0.7)"/>
     </g>
    </g>
    <g id="line2d_35">
     <path d="M 394.507187 167.051484 
L 405.507187 167.051484 
L 416.507187 167.051484 
" style="fill: none; stroke: #ccb974; stroke-width: 1.5; stroke-linecap: round"/>
    </g>
    <g id="text_27">
     <!-- $\Gamma_\theta$ = 0.35 (kPa)$^2$ -->
     <g style="fill: #262626" transform="translate(425.307187 170.901484)scale(0.11 -0.11)">
      <use xlink:href="#DejaVuSans-393" transform="translate(0 0.765625)"/>
      <use xlink:href="#DejaVuSans-Oblique-3b8" transform="translate(56.669922 -15.640625)scale(0.7)"/>
      <use xlink:href="#DejaVuSans-20" transform="translate(102.231445 0.765625)"/>
      <use xlink:href="#DejaVuSans-3d" transform="translate(134.018555 0.765625)"/>
      <use xlink:href="#DejaVuSans-20" transform="translate(217.807617 0.765625)"/>
      <use xlink:href="#DejaVuSans-30" transform="translate(249.594727 0.765625)"/>
      <use xlink:href="#DejaVuSans-2e" transform="translate(313.217773 0.765625)"/>
      <use xlink:href="#DejaVuSans-33" transform="translate(345.004883 0.765625)"/>
      <use xlink:href="#DejaVuSans-35" transform="translate(408.62793 0.765625)"/>
      <use xlink:href="#DejaVuSans-20" transform="translate(472.250977 0.765625)"/>
      <use xlink:href="#DejaVuSans-28" transform="translate(504.038086 0.765625)"/>
      <use xlink:href="#DejaVuSans-6b" transform="translate(543.051758 0.765625)"/>
      <use xlink:href="#DejaVuSans-50" transform="translate(600.961914 0.765625)"/>
      <use xlink:href="#DejaVuSans-61" transform="translate(661.264648 0.765625)"/>
      <use xlink:href="#DejaVuSans-29" transform="translate(722.543945 0.765625)"/>
      <use xlink:href="#DejaVuSans-32" transform="translate(762.514648 39.046875)scale(0.7)"/>
     </g>
    </g>
    <g id="line2d_36">
     <path d="M 394.507187 184.541484 
L 405.507187 184.541484 
L 416.507187 184.541484 
" style="fill: none; stroke: #64b5cd; stroke-width: 1.5; stroke-linecap: round"/>
    </g>
    <g id="text_28">
     <!-- $\Gamma_\theta$ = 0.37 (kPa)$^2$ -->
     <g style="fill: #262626" transform="translate(425.307187 188.391484)scale(0.11 -0.11)">
      <use xlink:href="#DejaVuSans-393" transform="translate(0 0.765625)"/>
      <use xlink:href="#DejaVuSans-Oblique-3b8" transform="translate(56.669922 -15.640625)scale(0.7)"/>
      <use xlink:href="#DejaVuSans-20" transform="translate(102.231445 0.765625)"/>
      <use xlink:href="#DejaVuSans-3d" transform="translate(134.018555 0.765625)"/>
      <use xlink:href="#DejaVuSans-20" transform="translate(217.807617 0.765625)"/>
      <use xlink:href="#DejaVuSans-30" transform="translate(249.594727 0.765625)"/>
      <use xlink:href="#DejaVuSans-2e" transform="translate(313.217773 0.765625)"/>
      <use xlink:href="#DejaVuSans-33" transform="translate(345.004883 0.765625)"/>
      <use xlink:href="#DejaVuSans-37" transform="translate(408.62793 0.765625)"/>
      <use xlink:href="#DejaVuSans-20" transform="translate(472.250977 0.765625)"/>
      <use xlink:href="#DejaVuSans-28" transform="translate(504.038086 0.765625)"/>
      <use xlink:href="#DejaVuSans-6b" transform="translate(543.051758 0.765625)"/>
      <use xlink:href="#DejaVuSans-50" transform="translate(600.961914 0.765625)"/>
      <use xlink:href="#DejaVuSans-61" transform="translate(661.264648 0.765625)"/>
      <use xlink:href="#DejaVuSans-29" transform="translate(722.543945 0.765625)"/>
      <use xlink:href="#DejaVuSans-32" transform="translate(762.514648 39.046875)scale(0.7)"/>
     </g>
    </g>
   </g>
  </g>
 </g>
 <defs>
  <clipPath id="p4135033d9b">
   <rect x="49.807188" y="11.379141" width="334.8" height="217.44"/>
  </clipPath>
 </defs>
</svg>
