<?xml version="1.0" encoding="UTF-8" standalone="no"?>
<!-- Created with Inkscape (http://www.inkscape.org/) -->

<svg
   width="106.62206mm"
   height="69.522499mm"
   viewBox="0 0 106.62206 69.522499"
   version="1.1"
   id="svg3878"
   inkscape:version="1.1.2 (0a00cf5339, 2022-02-04)"
   sodipodi:docname="deformed_beam1.svg"
   xmlns:inkscape="http://www.inkscape.org/namespaces/inkscape"
   xmlns:sodipodi="http://sodipodi.sourceforge.net/DTD/sodipodi-0.dtd"
   xmlns:xlink="http://www.w3.org/1999/xlink"
   xmlns="http://www.w3.org/2000/svg"
   xmlns:svg="http://www.w3.org/2000/svg">
  <sodipodi:namedview
     id="namedview3880"
     pagecolor="#ffffff"
     bordercolor="#666666"
     borderopacity="1.0"
     inkscape:pageshadow="2"
     inkscape:pageopacity="0.0"
     inkscape:pagecheckerboard="0"
     inkscape:document-units="mm"
     showgrid="false"
     fit-margin-top="0"
     fit-margin-left="0"
     fit-margin-right="0"
     fit-margin-bottom="0"
     inkscape:zoom="1.466344"
     inkscape:cx="195.04291"
     inkscape:cy="55.921394"
     inkscape:window-width="1920"
     inkscape:window-height="995"
     inkscape:window-x="0"
     inkscape:window-y="0"
     inkscape:window-maximized="1"
     inkscape:current-layer="layer1" />
  <defs
     id="defs3875">
    <radialGradient
       inkscape:collect="always"
       xlink:href="#linearGradient6206"
       id="radialGradient6208-7"
       cx="62.603271"
       cy="70.751701"
       fx="62.603271"
       fy="70.751701"
       r="22.327551"
       gradientTransform="matrix(1,0,0,0.86602537,0,9.478933)"
       gradientUnits="userSpaceOnUse" />
    <linearGradient
       id="linearGradient6206"
       inkscape:collect="always">
      <stop
         id="stop6202"
         offset="0"
         style="stop-color:#000000;stop-opacity:1;" />
      <stop
         id="stop6204"
         offset="1"
         style="stop-color:#000000;stop-opacity:0;" />
    </linearGradient>
    <filter
       inkscape:collect="always"
       style="color-interpolation-filters:sRGB"
       id="filter6346-4"
       x="-0.066947989"
       width="1.133896"
       y="-0.077304882"
       height="1.1546098">
      <feGaussianBlur
         inkscape:collect="always"
         stdDeviation="1.186422"
         id="feGaussianBlur6348-4" />
    </filter>
    <marker
       inkscape:collect="always"
       inkscape:isstock="true"
       style="overflow:visible"
       id="marker6855-34"
       refX="0"
       refY="0"
       orient="auto"
       inkscape:stockid="Arrow2Mend">
      <path
         transform="scale(-0.6)"
         d="M 8.7185878,4.0337352 -2.2072895,0.01601326 8.7185884,-4.0017078 c -1.7454984,2.3720609 -1.7354408,5.6174519 -6e-7,8.035443 z"
         style="fill:#000000;fill-opacity:1;fill-rule:evenodd;stroke:#000000;stroke-width:0.625;stroke-linejoin:round;stroke-opacity:1"
         id="path6853-5" />
    </marker>
    <inkscape:path-effect
       effect="simplify"
       id="path-effect6352-6"
       is_visible="true"
       steps="1"
       threshold="0.00674091"
       smooth_angles="360"
       helper_size="0"
       simplify_individual_paths="false"
       simplify_just_coalesce="false"
       simplifyindividualpaths="false"
       simplifyJustCoalesce="false"
       lpeversion="0" />
    <marker
       inkscape:collect="always"
       inkscape:stockid="Arrow2Mend"
       orient="auto"
       refY="0"
       refX="0"
       id="marker19491"
       style="overflow:visible"
       inkscape:isstock="true">
      <path
         id="path19489"
         style="fill:#000000;fill-opacity:1;fill-rule:evenodd;stroke:#000000;stroke-width:0.625;stroke-linejoin:round;stroke-opacity:1"
         d="M 8.7185878,4.0337352 -2.2072895,0.01601326 8.7185884,-4.0017078 c -1.7454984,2.3720609 -1.7354408,5.6174519 -6e-7,8.035443 z"
         transform="scale(-0.6)" />
    </marker>
    <inkscape:path-effect
       effect="simplify"
       id="path-effect6358-78"
       is_visible="true"
       steps="1"
       threshold="0.00674091"
       smooth_angles="360"
       helper_size="0"
       simplify_individual_paths="false"
       simplify_just_coalesce="false"
       simplifyindividualpaths="false"
       simplifyJustCoalesce="false"
       lpeversion="0" />
    <marker
       inkscape:stockid="Arrow2Mend"
       orient="auto"
       refY="0"
       refX="0"
       id="Arrow2Mend-87"
       style="overflow:visible"
       inkscape:isstock="true"
       inkscape:collect="always">
      <path
         id="path6398-2"
         style="fill:#000000;fill-opacity:1;fill-rule:evenodd;stroke:#000000;stroke-width:0.625;stroke-linejoin:round;stroke-opacity:1"
         d="M 8.7185878,4.0337352 -2.2072895,0.01601326 8.7185884,-4.0017078 c -1.7454984,2.3720609 -1.7354408,5.6174519 -6e-7,8.035443 z"
         transform="scale(-0.6)" />
    </marker>
    <inkscape:path-effect
       effect="simplify"
       id="path-effect6364-75"
       is_visible="true"
       steps="1"
       threshold="0.00674091"
       smooth_angles="360"
       helper_size="0"
       simplify_individual_paths="false"
       simplify_just_coalesce="false"
       simplifyindividualpaths="false"
       simplifyJustCoalesce="false"
       lpeversion="0" />
    <inkscape:path-effect
       effect="simplify"
       id="path-effect7057-9"
       is_visible="true"
       steps="1"
       threshold="0.00674091"
       smooth_angles="360"
       helper_size="0"
       simplify_individual_paths="false"
       simplify_just_coalesce="false"
       simplifyindividualpaths="false"
       simplifyJustCoalesce="false"
       lpeversion="0" />
    <inkscape:path-effect
       effect="simplify"
       id="path-effect7063-78"
       is_visible="true"
       steps="1"
       threshold="0.00674091"
       smooth_angles="360"
       helper_size="0"
       simplify_individual_paths="false"
       simplify_just_coalesce="false"
       simplifyindividualpaths="false"
       simplifyJustCoalesce="false"
       lpeversion="0" />
    <marker
       inkscape:stockid="Arrow1Mstart"
       orient="auto"
       refY="0"
       refX="0"
       id="marker7661-1"
       style="overflow:visible"
       inkscape:isstock="true">
      <path
         id="path7659-77"
         d="M 0,0 5,-5 -12.5,0 5,5 Z"
         style="fill:#ff0000;fill-opacity:1;fill-rule:evenodd;stroke:#ff0000;stroke-width:1pt;stroke-opacity:1"
         transform="matrix(0.4,0,0,0.4,4,0)" />
    </marker>
    <marker
       inkscape:stockid="Arrow2Mend"
       orient="auto"
       refY="0"
       refX="0"
       id="marker7071-0"
       style="overflow:visible"
       inkscape:isstock="true">
      <path
         id="path7069-7"
         style="fill:#ff0000;fill-opacity:1;fill-rule:evenodd;stroke:#ff0000;stroke-width:0.625;stroke-linejoin:round;stroke-opacity:1"
         d="M 8.7185878,4.0337352 -2.2072895,0.01601326 8.7185884,-4.0017078 c -1.7454984,2.3720609 -1.7354408,5.6174519 -6e-7,8.035443 z"
         transform="scale(-0.6)" />
    </marker>
    <inkscape:path-effect
       effect="spiro"
       id="path-effect7067-41"
       is_visible="true"
       lpeversion="0" />
    <marker
       inkscape:isstock="true"
       style="overflow:visible"
       id="marker6855-3"
       refX="0"
       refY="0"
       orient="auto"
       inkscape:stockid="Arrow2Mend"
       inkscape:collect="always">
      <path
         transform="scale(-0.6)"
         d="M 8.7185878,4.0337352 -2.2072895,0.01601326 8.7185884,-4.0017078 c -1.7454984,2.3720609 -1.7354408,5.6174519 -6e-7,8.035443 z"
         style="fill:#0088aa;fill-opacity:1;fill-rule:evenodd;stroke:#0088aa;stroke-width:0.625;stroke-linejoin:round;stroke-opacity:1"
         id="path6853-2"
         inkscape:connector-curvature="0" />
    </marker>
    <inkscape:path-effect
       effect="simplify"
       id="path-effect6352-6-3"
       is_visible="true"
       steps="1"
       threshold="0.00674091"
       smooth_angles="360"
       helper_size="0"
       simplify_individual_paths="false"
       simplify_just_coalesce="false"
       simplifyindividualpaths="false"
       simplifyJustCoalesce="false"
       lpeversion="0" />
    <marker
       inkscape:isstock="true"
       style="overflow:visible"
       id="marker10870"
       refX="0"
       refY="0"
       orient="auto"
       inkscape:stockid="Arrow2Mstart">
      <path
         transform="scale(0.6)"
         d="M 8.7185878,4.0337352 -2.2072895,0.01601326 8.7185884,-4.0017078 c -1.7454984,2.3720609 -1.7354408,5.6174519 -6e-7,8.035443 z"
         style="fill:#000000;fill-opacity:1;fill-rule:evenodd;stroke:#000000;stroke-width:0.625;stroke-linejoin:round;stroke-opacity:1"
         id="path10868" />
    </marker>
    <marker
       inkscape:stockid="Arrow2Mend"
       orient="auto"
       refY="0"
       refX="0"
       id="marker19491-5"
       style="overflow:visible"
       inkscape:isstock="true">
      <path
         id="path19489-1"
         style="fill:#000000;fill-opacity:1;fill-rule:evenodd;stroke:#000000;stroke-width:0.625;stroke-linejoin:round;stroke-opacity:1"
         d="M 8.7185878,4.0337352 -2.2072895,0.01601326 8.7185884,-4.0017078 c -1.7454984,2.3720609 -1.7354408,5.6174519 -6e-7,8.035443 z"
         transform="scale(-0.6)"
         inkscape:connector-curvature="0" />
    </marker>
    <inkscape:path-effect
       effect="simplify"
       id="path-effect6358-78-9"
       is_visible="true"
       steps="1"
       threshold="0.00674091"
       smooth_angles="360"
       helper_size="0"
       simplify_individual_paths="false"
       simplify_just_coalesce="false"
       simplifyindividualpaths="false"
       simplifyJustCoalesce="false"
       lpeversion="0" />
    <marker
       inkscape:collect="always"
       inkscape:stockid="Arrow2Mstart"
       orient="auto"
       refY="0"
       refX="0"
       id="marker8796"
       style="overflow:visible"
       inkscape:isstock="true">
      <path
         id="path8794"
         style="fill:#000000;fill-opacity:1;fill-rule:evenodd;stroke:#000000;stroke-width:0.625;stroke-linejoin:round;stroke-opacity:1"
         d="M 8.7185878,4.0337352 -2.2072895,0.01601326 8.7185884,-4.0017078 c -1.7454984,2.3720609 -1.7354408,5.6174519 -6e-7,8.035443 z"
         transform="scale(0.6)" />
    </marker>
    <marker
       inkscape:stockid="Arrow2Mend"
       orient="auto"
       refY="0"
       refX="0"
       id="Arrow2Mend-8"
       style="overflow:visible"
       inkscape:isstock="true"
       inkscape:collect="always">
      <path
         id="path6398-5"
         style="fill:#000000;fill-opacity:1;fill-rule:evenodd;stroke:#000000;stroke-width:0.625;stroke-linejoin:round;stroke-opacity:1"
         d="M 8.7185878,4.0337352 -2.2072895,0.01601326 8.7185884,-4.0017078 c -1.7454984,2.3720609 -1.7354408,5.6174519 -6e-7,8.035443 z"
         transform="scale(-0.6)"
         inkscape:connector-curvature="0" />
    </marker>
    <inkscape:path-effect
       effect="simplify"
       id="path-effect6364-75-2"
       is_visible="true"
       steps="1"
       threshold="0.00674091"
       smooth_angles="360"
       helper_size="0"
       simplify_individual_paths="false"
       simplify_just_coalesce="false"
       simplifyindividualpaths="false"
       simplifyJustCoalesce="false"
       lpeversion="0" />
    <marker
       inkscape:collect="always"
       inkscape:stockid="Arrow2Mstart"
       orient="auto"
       refY="0"
       refX="0"
       id="marker8796-1"
       style="overflow:visible"
       inkscape:isstock="true">
      <path
         inkscape:connector-curvature="0"
         id="path8794-9"
         style="fill:#000000;fill-opacity:1;fill-rule:evenodd;stroke:#000000;stroke-width:0.625;stroke-linejoin:round;stroke-opacity:1"
         d="M 8.7185878,4.0337352 -2.2072895,0.01601326 8.7185884,-4.0017078 c -1.7454984,2.3720609 -1.7354408,5.6174519 -6e-7,8.035443 z"
         transform="scale(0.6)" />
    </marker>
    <marker
       inkscape:stockid="Arrow2Mend"
       orient="auto"
       refY="0"
       refX="0"
       id="Arrow2Mend-8-6"
       style="overflow:visible"
       inkscape:isstock="true"
       inkscape:collect="always">
      <path
         id="path6398-5-2"
         style="fill:#000000;fill-opacity:1;fill-rule:evenodd;stroke:#000000;stroke-width:0.625;stroke-linejoin:round;stroke-opacity:1"
         d="M 8.7185878,4.0337352 -2.2072895,0.01601326 8.7185884,-4.0017078 c -1.7454984,2.3720609 -1.7354408,5.6174519 -6e-7,8.035443 z"
         transform="scale(-0.6)"
         inkscape:connector-curvature="0" />
    </marker>
    <inkscape:path-effect
       effect="simplify"
       id="path-effect6364-75-2-6"
       is_visible="true"
       steps="1"
       threshold="0.00674091"
       smooth_angles="360"
       helper_size="0"
       simplify_individual_paths="false"
       simplify_just_coalesce="false"
       simplifyindividualpaths="false"
       simplifyJustCoalesce="false"
       lpeversion="0" />
    <clipPath
       clipPathUnits="userSpaceOnUse"
       id="clipPath608">
      <rect
         id="rect610"
         width="108.85868"
         height="70.64888"
         x="28.806053"
         y="101.80757"
         style="stroke-width:0.271775" />
    </clipPath>
    <clipPath
       clipPathUnits="userSpaceOnUse"
       id="clipPath612">
      <rect
         id="rect614"
         width="108.85868"
         height="70.64888"
         x="28.806053"
         y="101.80757"
         style="stroke-width:0.271775"
         d="m 28.806053,101.80757 c 36.286227,0 108.858677,-36.28622 108.858677,0 0,23.54963 23.54963,70.64888 0,70.64888 -36.28622,0 -108.858677,36.28623 -108.858677,0 0,-23.54963 0,-47.09925 0,-70.64888 z" />
    </clipPath>
    <clipPath
       clipPathUnits="userSpaceOnUse"
       id="clipPath616">
      <rect
         id="rect618"
         width="108.85868"
         height="70.64888"
         x="28.806053"
         y="101.80757"
         style="stroke-width:0.271775" />
    </clipPath>
    <clipPath
       clipPathUnits="userSpaceOnUse"
       id="clipPath620">
      <rect
         id="rect622"
         width="108.85868"
         height="70.64888"
         x="28.806053"
         y="101.80757"
         style="stroke-width:0.271775" />
    </clipPath>
    <clipPath
       clipPathUnits="userSpaceOnUse"
       id="clipPath624">
      <rect
         id="rect626"
         width="108.85868"
         height="70.64888"
         x="28.806053"
         y="101.80757"
         style="stroke-width:0.271775" />
    </clipPath>
    <clipPath
       clipPathUnits="userSpaceOnUse"
       id="clipPath628">
      <rect
         id="rect630"
         width="108.85868"
         height="70.64888"
         x="28.806053"
         y="101.80757"
         style="stroke-width:0.271775" />
    </clipPath>
    <clipPath
       clipPathUnits="userSpaceOnUse"
       id="clipPath632">
      <rect
         id="rect634"
         width="108.85868"
         height="70.64888"
         x="28.806053"
         y="101.80757"
         style="stroke-width:0.271775" />
    </clipPath>
    <clipPath
       clipPathUnits="userSpaceOnUse"
       id="clipPath636">
      <rect
         id="rect638"
         width="108.85868"
         height="70.64888"
         x="28.806053"
         y="101.80757"
         style="stroke-width:0.271775" />
    </clipPath>
    <clipPath
       clipPathUnits="userSpaceOnUse"
       id="clipPath640">
      <rect
         id="rect642"
         width="108.85868"
         height="70.64888"
         x="28.806053"
         y="101.80757"
         style="stroke-width:0.271775" />
    </clipPath>
    <clipPath
       clipPathUnits="userSpaceOnUse"
       id="clipPath644">
      <rect
         id="rect646"
         width="108.85868"
         height="70.64888"
         x="28.806053"
         y="101.80757"
         style="stroke-width:0.271775" />
    </clipPath>
    <clipPath
       clipPathUnits="userSpaceOnUse"
       id="clipPath648">
      <rect
         id="rect650"
         width="108.85868"
         height="70.64888"
         x="28.806053"
         y="101.80757"
         style="stroke-width:0.271775"
         d="m 28.806053,101.80757 c 36.286227,0 108.858677,-36.28622 108.858677,0 0,23.54963 23.54963,70.64888 0,70.64888 -36.28622,0 -108.858677,36.28623 -108.858677,0 0,-23.54963 0,-47.09925 0,-70.64888 z" />
    </clipPath>
    <clipPath
       clipPathUnits="userSpaceOnUse"
       id="clipPath652">
      <rect
         id="rect654"
         width="108.85868"
         height="70.64888"
         x="28.806053"
         y="101.80757"
         style="stroke-width:0.271775"
         d="m 28.806053,101.80757 c 36.286227,0 108.858677,-36.28622 108.858677,0 0,23.54963 23.54963,70.64888 0,70.64888 -36.28622,0 -108.858677,36.28623 -108.858677,0 0,-23.54963 0,-47.09925 0,-70.64888 z" />
    </clipPath>
    <clipPath
       clipPathUnits="userSpaceOnUse"
       id="clipPath656">
      <rect
         id="rect658"
         width="194.75345"
         height="126.39426"
         x="52.792812"
         y="-86.409622"
         style="stroke-width:0.486218" />
    </clipPath>
    <clipPath
       clipPathUnits="userSpaceOnUse"
       id="clipPath660">
      <rect
         id="rect662"
         width="194.75345"
         height="126.39426"
         x="-97.708733"
         y="-116.50372"
         style="stroke-width:0.486218" />
    </clipPath>
    <clipPath
       clipPathUnits="userSpaceOnUse"
       id="clipPath664">
      <rect
         id="rect666"
         width="108.85868"
         height="70.64888"
         x="28.806053"
         y="101.80757"
         style="stroke-width:0.271775"
         d="m 28.806053,101.80757 c 36.286227,0 108.858677,-36.28622 108.858677,0 0,23.54963 23.54963,70.64888 0,70.64888 -36.28622,0 -108.858677,36.28623 -108.858677,0 0,-23.54963 0,-47.09925 0,-70.64888 z" />
    </clipPath>
    <clipPath
       clipPathUnits="userSpaceOnUse"
       id="clipPath668">
      <rect
         id="rect670"
         width="108.85868"
         height="70.64888"
         x="28.806053"
         y="101.80757"
         style="stroke-width:0.271775"
         d="M 28.806053,101.80757 H 137.66473 v 70.64888 H 28.806053 Z" />
    </clipPath>
    <clipPath
       clipPathUnits="userSpaceOnUse"
       id="clipPath672">
      <rect
         id="rect674"
         width="108.85868"
         height="70.64888"
         x="28.806053"
         y="101.80757"
         style="stroke-width:0.271775"
         d="m 28.806053,101.80757 c 36.286227,0 108.858677,-36.28622 108.858677,0 0,23.54963 23.54963,70.64888 0,70.64888 -36.28622,0 -108.858677,36.28623 -108.858677,0 0,-23.54963 0,-47.09925 0,-70.64888 z" />
    </clipPath>
    <clipPath
       clipPathUnits="userSpaceOnUse"
       id="clipPath676">
      <rect
         id="rect678"
         width="108.85868"
         height="70.64888"
         x="28.806053"
         y="101.80757"
         style="stroke-width:0.271775"
         d="m 28.806053,101.80757 c 36.286227,0 108.858677,-36.28622 108.858677,0 0,23.54963 23.54963,70.64888 0,70.64888 -36.28622,0 -108.858677,36.28623 -108.858677,0 0,-23.54963 0,-47.09925 0,-70.64888 z" />
    </clipPath>
    <clipPath
       clipPathUnits="userSpaceOnUse"
       id="clipPath680">
      <rect
         id="rect682"
         width="108.85868"
         height="70.64888"
         x="70.136269"
         y="-5.4917684"
         style="stroke-width:0.271775" />
    </clipPath>
    <clipPath
       clipPathUnits="userSpaceOnUse"
       id="clipPath684">
      <rect
         id="rect686"
         width="108.85868"
         height="70.64888"
         x="28.806053"
         y="101.80757"
         style="stroke-width:0.271775" />
    </clipPath>
    <clipPath
       clipPathUnits="userSpaceOnUse"
       id="clipPath688">
      <rect
         id="rect690"
         width="108.85868"
         height="70.64888"
         x="28.806053"
         y="101.80757"
         style="stroke-width:0.271775" />
    </clipPath>
    <clipPath
       clipPathUnits="userSpaceOnUse"
       id="clipPath692">
      <rect
         id="rect694"
         width="108.85868"
         height="70.64888"
         x="28.806053"
         y="101.80757"
         style="stroke-width:0.271775" />
    </clipPath>
    <clipPath
       clipPathUnits="userSpaceOnUse"
       id="clipPath696">
      <rect
         id="rect698"
         width="108.85868"
         height="70.64888"
         x="28.806053"
         y="101.80757"
         style="stroke-width:0.271775" />
    </clipPath>
    <clipPath
       clipPathUnits="userSpaceOnUse"
       id="clipPath700">
      <rect
         id="rect702"
         width="108.85868"
         height="70.64888"
         x="28.806053"
         y="101.80757"
         style="stroke-width:0.271775" />
    </clipPath>
    <clipPath
       clipPathUnits="userSpaceOnUse"
       id="clipPath704">
      <rect
         id="rect706"
         width="108.85868"
         height="70.64888"
         x="28.806053"
         y="101.80757"
         style="stroke-width:0.271775" />
    </clipPath>
    <clipPath
       clipPathUnits="userSpaceOnUse"
       id="clipPath708">
      <rect
         id="rect710"
         width="108.85868"
         height="70.64888"
         x="28.806053"
         y="101.80757"
         style="stroke-width:0.271775" />
    </clipPath>
    <clipPath
       clipPathUnits="userSpaceOnUse"
       id="clipPath712">
      <rect
         id="rect714"
         width="108.85868"
         height="70.64888"
         x="28.806053"
         y="101.80757"
         style="stroke-width:0.271775" />
    </clipPath>
    <clipPath
       clipPathUnits="userSpaceOnUse"
       id="clipPath716">
      <rect
         id="rect718"
         width="140.53595"
         height="70.64888"
         x="7.5591149"
         y="13.874166"
         style="stroke-width:0.308796"
         transform="matrix(0.89442719,0.4472136,0,1,0,0)" />
    </clipPath>
  </defs>
  <g
     inkscape:label="Layer 1"
     inkscape:groupmode="layer"
     id="layer1"
     transform="translate(-29.308011,-101.80757)">
    <ellipse
       style="fill:#cccccc;fill-opacity:1;stroke:url(#radialGradient6208-7);stroke-width:0.284313;stroke-miterlimit:4;stroke-dasharray:none;stroke-opacity:1;filter:url(#filter6346-4)"
       id="path6198-5"
       cx="62.603271"
       cy="70.751701"
       rx="22.327551"
       ry="19.336226"
       transform="matrix(0.8660254,-0.5,0,1,22.950788,87.933406)"
       inkscape:export-xdpi="300"
       inkscape:export-ydpi="300"
       clip-path="url(#clipPath716)" />
    <path
       inkscape:connector-curvature="0"
       id="path5880-2"
       d="m 113.03879,164.85619 v -15 l 12.97693,-7.5 v 15 z"
       style="fill:none;stroke:#000000;stroke-width:0.264583px;stroke-linecap:butt;stroke-linejoin:miter;stroke-miterlimit:4;stroke-dasharray:none;stroke-opacity:1"
       inkscape:export-xdpi="300"
       inkscape:export-ydpi="300"
       clip-path="url(#clipPath712)" />
    <path
       style="fill:none;stroke:#000000;stroke-width:0.264583px;stroke-linecap:butt;stroke-linejoin:miter;stroke-miterlimit:4;stroke-dasharray:none;stroke-opacity:1"
       d="m 69.782374,139.85619 v -15 l 12.976925,-7.5"
       id="path5946-3"
       inkscape:connector-curvature="0"
       inkscape:export-xdpi="300"
       inkscape:export-ydpi="300"
       clip-path="url(#clipPath708)" />
    <path
       style="fill:none;stroke:#000000;stroke-width:0.264583px;stroke-linecap:butt;stroke-linejoin:miter;stroke-miterlimit:4;stroke-dasharray:none;stroke-opacity:1"
       d="m 112.97645,164.73091 -43.269368,-25"
       id="path5948-8"
       inkscape:connector-curvature="0"
       sodipodi:nodetypes="cc"
       inkscape:export-xdpi="300"
       inkscape:export-ydpi="300"
       clip-path="url(#clipPath704)" />
    <path
       style="fill:none;stroke:#000000;stroke-width:0.264583px;stroke-linecap:butt;stroke-linejoin:miter;stroke-miterlimit:4;stroke-dasharray:none;stroke-opacity:1"
       d="m 113.02523,149.85619 -43.301261,-25"
       id="path5950-5"
       inkscape:connector-curvature="0"
       inkscape:export-xdpi="300"
       inkscape:export-ydpi="300"
       clip-path="url(#clipPath700)" />
    <path
       style="fill:none;stroke:#000000;stroke-width:0.264583px;stroke-linecap:butt;stroke-linejoin:miter;stroke-miterlimit:4;stroke-dasharray:none;stroke-opacity:1"
       d="M 126.01562,142.35619 82.580714,117.36037"
       id="path5952-2"
       inkscape:connector-curvature="0"
       sodipodi:nodetypes="cc"
       inkscape:export-xdpi="300"
       inkscape:export-ydpi="300"
       clip-path="url(#clipPath696)" />
    <path
       style="fill:#7f7fb7;fill-opacity:0.992157;stroke:none;stroke-width:0.0236235;stroke-miterlimit:4;stroke-dasharray:none;stroke-opacity:1"
       d="m 113.17384,157.26362 0.001,-7.33172 5.89605,-3.40179 c 3.24282,-1.87098 6.10202,-3.52066 6.35377,-3.66594 l 0.45773,-0.26417 -0.006,7.33675 -0.006,7.33674 -6.31929,3.64911 c -3.47561,2.00701 -6.33258,3.65443 -6.34882,3.66093 -0.0236,0.009 -0.0293,-1.46367 -0.0285,-7.31991 z"
       id="path6134-6"
       inkscape:connector-curvature="0"
       inkscape:export-xdpi="300"
       inkscape:export-ydpi="300"
       clip-path="url(#clipPath692)" />
    <path
       style="fill:#d7d7fe;fill-opacity:1;stroke:none;stroke-width:0.0668174;stroke-miterlimit:4;stroke-dasharray:none;stroke-opacity:1"
       d="m 91.384557,152.08135 -21.448379,-12.38652 -0.01701,-7.26117 c -0.01011,-4.31608 0.0075,-7.2521 0.04351,-7.2388 0.03328,0.0123 9.699011,5.58492 21.479402,12.38359 7.13963,4.1204 14.27926,8.24081 21.41889,12.36121 l 0.003,7.2664 c 0.002,3.99651 -0.005,7.26535 -0.014,7.26409 -0.009,-10e-4 -9.66848,-5.57622 -21.465083,-12.3888 -3e-6,0 -3e-6,0 -3e-6,0 z"
       id="path6154-7"
       inkscape:connector-curvature="0"
       inkscape:export-xdpi="300"
       inkscape:export-ydpi="300"
       clip-path="url(#clipPath688)" />
    <path
       sodipodi:nodetypes="scccsccs"
       style="fill:#afafde;fill-opacity:1;stroke:none;stroke-width:0.047247;stroke-miterlimit:4;stroke-dasharray:none;stroke-opacity:1"
       d="M 91.640597,137.34352 C 79.856267,130.53697 70.019899,124.896 70.012985,124.87526 c -0.0069,-0.0207 3.001366,-1.68051 6.454081,-3.67393 0,0 6.210846,-3.69123 6.277663,-3.62442 l 21.515681,12.38173 c 11.83363,6.80995 21.52019,12.38623 21.52569,12.39173 0.0185,0.0185 -12.66191,7.33584 -12.74122,7.35236 -0.0431,0.009 -9.61996,-5.55266 -21.404283,-12.35921 z"
       id="path6176-5"
       inkscape:connector-curvature="0"
       inkscape:export-xdpi="300"
       inkscape:export-ydpi="300"
       clip-path="url(#clipPath684)" />
    <g
       style="stroke-width:0.264583;stroke-miterlimit:4;stroke-dasharray:none"
       id="g23669"
       transform="translate(-41.330219,107.29934)"
       inkscape:export-xdpi="300"
       inkscape:export-ydpi="300"
       clip-path="url(#clipPath680)">
      <path
         transform="matrix(1.0393168,0,0,1.0393168,38.020965,-45.254051)"
         inkscape:original-d="M 43.483308,76.547854 V 66.926149"
         inkscape:path-effect="#path-effect6352-6"
         inkscape:connector-curvature="0"
         id="path6350-5"
         d="m 43.483308,76.547854 c 0,-3.207235 0,-6.41447 0,-9.621705"
         style="fill:none;stroke:#000000;stroke-width:0.339432;stroke-linecap:butt;stroke-linejoin:miter;stroke-miterlimit:4;stroke-dasharray:none;stroke-opacity:1;marker-end:url(#marker6855-34)" />
      <path
         inkscape:original-d="m 43.301269,76.999998 8.660254,5"
         inkscape:path-effect="#path-effect6358-78"
         inkscape:connector-curvature="0"
         id="path6356-4"
         d="m 43.301269,76.999998 c 2.886751,1.666667 5.773503,3.333333 8.660254,5"
         style="fill:none;stroke:#000000;stroke-width:0.352778;stroke-linecap:butt;stroke-linejoin:miter;stroke-miterlimit:4;stroke-dasharray:none;stroke-opacity:1;marker-end:url(#marker19491)"
         transform="translate(39.912629,-42.696578)" />
      <path
         transform="matrix(1.25,0,0,1.25,29.087309,-61.946581)"
         inkscape:original-d="m 43.301269,76.999998 -6.928202,4"
         inkscape:path-effect="#path-effect6364-75"
         inkscape:connector-curvature="0"
         id="path6362-87"
         d="m 43.301269,76.999998 c -2.309401,1.333333 -4.618801,2.666667 -6.928202,4"
         style="fill:none;stroke:#000000;stroke-width:0.282222;stroke-linecap:butt;stroke-linejoin:miter;stroke-miterlimit:4;stroke-dasharray:none;stroke-opacity:1;marker-end:url(#Arrow2Mend-87)" />
    </g>
    <path
       inkscape:original-d="M 99.123763,156.77349 V 170.7735"
       inkscape:path-effect="#path-effect7057-9"
       inkscape:connector-curvature="0"
       id="path7055-9"
       d="m 99.123763,156.77349 c 0,4.66667 0,9.33334 0,14.00001"
       style="fill:none;stroke:#ff0000;stroke-width:0.411574;stroke-linecap:butt;stroke-linejoin:miter;stroke-miterlimit:4;stroke-dasharray:1.23472, 0.411574;stroke-dashoffset:0;stroke-opacity:1"
       inkscape:export-xdpi="300"
       inkscape:export-ydpi="300"
       clip-path="url(#clipPath676)" />
    <path
       inkscape:original-d="m 99.123761,156.77349 13.856409,8"
       inkscape:path-effect="#path-effect7063-78"
       inkscape:connector-curvature="0"
       id="path7061-1"
       d="m 99.123761,156.77349 c 4.618799,2.66667 9.237609,5.33333 13.856409,8"
       style="fill:none;stroke:#ff0000;stroke-width:0.423333;stroke-linecap:butt;stroke-linejoin:miter;stroke-miterlimit:4;stroke-dasharray:1.27, 0.423333;stroke-dashoffset:0;stroke-opacity:1"
       inkscape:export-xdpi="300"
       inkscape:export-ydpi="300"
       clip-path="url(#clipPath672)" />
    <path
       inkscape:original-d="m 99.989778,170.27349 c 2.948822,-1.80574 5.897432,-3.6113 8.845832,-5.41666 2.9484,-1.80537 0.45384,-0.72242 0.68045,-1.08334"
       inkscape:path-effect="#path-effect7067-41"
       inkscape:connector-curvature="0"
       id="path7065-7"
       d="m 99.989778,170.27349 c 3.522962,-0.49014 6.807772,-2.50156 8.845832,-5.41666 0.24444,-0.34963 0.47163,-0.71133 0.68045,-1.08334"
       style="fill:none;stroke:#ff0000;stroke-width:0.19931px;stroke-linecap:butt;stroke-linejoin:miter;stroke-miterlimit:4;stroke-dasharray:none;stroke-opacity:1;marker-start:url(#marker7661-1);marker-end:url(#marker7071-0)"
       inkscape:export-xdpi="300"
       inkscape:export-ydpi="300"
       clip-path="url(#clipPath668)" />
    <path
       style="fill:none;stroke:#0088aa;stroke-width:0.694572;stroke-linecap:butt;stroke-linejoin:miter;stroke-miterlimit:4;stroke-dasharray:none;stroke-opacity:1;marker-end:url(#marker6855-3)"
       d="m 42.195257,145.50197 c 0,6.4324 0,12.86481 0,19.29721"
       id="path6350-7"
       inkscape:connector-curvature="0"
       inkscape:path-effect="#path-effect6352-6-3"
       inkscape:original-d="m 42.195257,145.50197 v 19.29721"
       inkscape:export-xdpi="300"
       inkscape:export-ydpi="300"
       clip-path="url(#clipPath664)" />
    <g
       style="fill:#ff0000;fill-opacity:1"
       id="g6659"
       transform="matrix(0.55895639,0,0,0.55895639,83.420972,166.92807)"
       inkscape:export-xdpi="300"
       inkscape:export-ydpi="300"
       clip-path="url(#clipPath660)">
      <g
         id="use6657"
         style="fill:#ff0000;fill-opacity:1"
         transform="translate(41.162136,7.7660198)">
        <path
           style="stroke:none"
           d="m 6.03125,-3.703125 c 0,-0.453125 -0.171875,-0.703125 -0.40625,-0.703125 -0.25,0 -0.515625,0.234375 -0.515625,0.46875 0,0.09375 0.046875,0.203125 0.140625,0.296875 0.171875,0.15625 0.359375,0.421875 0.359375,0.84375 0,0.390625 -0.203125,0.96875 -0.5,1.421875 C 4.8125,-0.953125 4.4375,-0.609375 3.96875,-0.609375 3.40625,-0.609375 3.09375,-0.96875 3,-1.5 c 0.109375,-0.265625 0.34375,-0.90625 0.34375,-1.1875 0,-0.109375 -0.046875,-0.21875 -0.1875,-0.21875 -0.078125,0 -0.1875,0.03125 -0.265625,0.171875 C 2.78125,-2.53125 2.65625,-1.890625 2.65625,-1.53125 2.328125,-1.0625 1.9375,-0.609375 1.3125,-0.609375 c -0.671875,0 -0.875,-0.59375 -0.875,-1.140625 0,-1.25 1.015625,-2.296875 1.015625,-2.421875 0,-0.109375 -0.078125,-0.1875 -0.1875,-0.1875 -0.125,0 -0.203125,0.125 -0.265625,0.21875 -0.5,0.734375 -0.875,1.921875 -0.875,2.828125 0,0.6875 0.21875,1.421875 1.046875,1.421875 0.703125,0 1.171875,-0.5 1.53125,-1.046875 0.09375,0.578125 0.484375,1.046875 1.09375,1.046875 0.78125,0 1.25,-0.609375 1.609375,-1.359375 0.25,-0.484375 0.625,-1.84375 0.625,-2.453125 z m 0,0"
           id="path4117" />
      </g>
    </g>
    <g
       style="fill:#0088aa;fill-opacity:1;stroke:#0088aa;stroke-opacity:1"
       id="g6675"
       transform="matrix(0.55895639,0,0,0.55895639,-0.7028259,150.10678)"
       inkscape:export-xdpi="300"
       inkscape:export-ydpi="300"
       clip-path="url(#clipPath656)">
      <g
         id="use6673"
         style="fill:#0088aa;fill-opacity:1;stroke:#0088aa;stroke-opacity:1"
         transform="translate(79.646133,7.7660198)">
        <path
           style="stroke:none"
           d="M 4.6875,-3.765625 C 4.703125,-3.8125 4.71875,-3.875 4.71875,-3.9375 c 0,-0.171875 -0.109375,-0.265625 -0.28125,-0.265625 -0.09375,0 -0.375,0.0625 -0.40625,0.421875 -0.1875,-0.359375 -0.53125,-0.625 -0.9375,-0.625 -1.125,0 -2.359375,1.390625 -2.359375,2.828125 0,0.984375 0.59375,1.578125 1.3125,1.578125 0.59375,0 1.0625,-0.46875 1.15625,-0.578125 L 3.21875,-0.5625 C 3.015625,0.3125 2.890625,0.734375 2.890625,0.75 2.84375,0.84375 2.515625,1.828125 1.453125,1.828125 1.265625,1.828125 0.9375,1.8125 0.65625,1.71875 0.953125,1.640625 1.0625,1.375 1.0625,1.203125 c 0,-0.15625 -0.109375,-0.34375 -0.375,-0.34375 -0.21875,0 -0.53125,0.171875 -0.53125,0.578125 0,0.40625 0.359375,0.609375 1.3125,0.609375 1.25,0 1.96875,-0.78125 2.125,-1.375 z M 3.40625,-1.28125 C 3.34375,-1.015625 3.109375,-0.765625 2.890625,-0.578125 2.6875,-0.40625 2.375,-0.21875 2.078125,-0.21875 c -0.5,0 -0.640625,-0.515625 -0.640625,-0.921875 0,-0.46875 0.28125,-1.65625 0.5625,-2.15625 C 2.265625,-3.78125 2.6875,-4.1875 3.109375,-4.1875 c 0.65625,0 0.796875,0.8125 0.796875,0.859375 0,0.046875 -0.015625,0.109375 -0.03125,0.140625 z m 0,0"
           id="path4121" />
      </g>
    </g>
    <path
       style="fill:none;stroke:#000000;stroke-width:0.35;stroke-linecap:butt;stroke-linejoin:miter;stroke-miterlimit:4;stroke-dasharray:none;stroke-opacity:1;marker-start:url(#marker10870);marker-end:url(#marker19491-5)"
       d="m 84.77118,116.1434 c 14.14508,8.16666 28.29016,16.33333 42.43524,24.49999"
       id="path6356-7"
       inkscape:connector-curvature="0"
       inkscape:path-effect="#path-effect6358-78-9"
       inkscape:original-d="m 84.77118,116.1434 42.43524,24.49999"
       inkscape:export-xdpi="300"
       inkscape:export-ydpi="300"
       clip-path="url(#clipPath652)" />
    <path
       style="fill:none;stroke:#000000;stroke-width:0.35;stroke-linecap:butt;stroke-linejoin:miter;stroke-miterlimit:4;stroke-dasharray:none;stroke-opacity:1;marker-start:url(#marker8796);marker-end:url(#Arrow2Mend-8)"
       d="m 127.80608,159.35619 c -4.04145,2.33333 -8.0829,4.66667 -12.12435,7"
       id="path6362-8"
       inkscape:connector-curvature="0"
       inkscape:path-effect="#path-effect6364-75-2"
       inkscape:original-d="m 127.80608,159.35619 -12.12435,7"
       inkscape:export-xdpi="300"
       inkscape:export-ydpi="300"
       clip-path="url(#clipPath648)" />
    <path
       d="m 53.271939,144.81034 -0.76506,0.77584 0.10327,0.10327 0.66179,-0.58279 0.65731,0.58279 0.10237,-0.10327 -0.75968,-0.77584"
       style="fill:#000000;fill-opacity:1;fill-rule:nonzero;stroke:none;stroke-width:0.0574696"
       id="path6789"
       inkscape:connector-curvature="0"
       clip-path="url(#clipPath644)" />
    <path
       d="m 53.349169,147.04806 c 0.035,-0.14816 0.16612,-0.67348 0.56571,-0.67348 0.0287,0 0.16523,0 0.28556,0.0737 -0.15984,0.0287 -0.27388,0.17151 -0.27388,0.30889 0,0.0907 0.062,0.19935 0.21641,0.19935 0.12571,0 0.308,-0.10237 0.308,-0.33045 0,-0.29722 -0.33674,-0.37715 -0.5307,-0.37715 -0.33134,0 -0.53069,0.30262 -0.59894,0.43372 -0.14277,-0.37625 -0.45167,-0.43372 -0.6169,-0.43372 -0.59355,0 -0.91951,0.73633 -0.91951,0.87911 0,0.0575 0.0575,0.0575 0.0691,0.0575 0.0458,0 0.0629,-0.0117 0.0736,-0.0629 0.19486,-0.60523 0.5711,-0.74801 0.76506,-0.74801 0.10866,0 0.3089,0.0512 0.3089,0.38254 0,0.1769 -0.097,0.55943 -0.3089,1.35861 -0.0907,0.3538 -0.29094,0.59355 -0.54236,0.59355 -0.0341,0 -0.16523,0 -0.28556,-0.0745 0.14278,-0.0278 0.26849,-0.14817 0.26849,-0.308 0,-0.15445 -0.12571,-0.19935 -0.21102,-0.19935 -0.17151,0 -0.31428,0.14816 -0.31428,0.33045 0,0.26311 0.28555,0.37715 0.53698,0.37715 0.37714,0 0.58188,-0.3996 0.59984,-0.43372 0.0683,0.21102 0.27388,0.43372 0.616,0.43372 0.58816,0 0.91322,-0.73634 0.91322,-0.87911 0,-0.0575 -0.0512,-0.0575 -0.0683,-0.0575 -0.0512,0 -0.0628,0.0233 -0.0745,0.0628 -0.18768,0.61061 -0.57649,0.74801 -0.75878,0.74801 -0.22269,0 -0.31428,-0.18229 -0.31428,-0.37715 0,-0.12482 0.0341,-0.25053 0.097,-0.50196 l 0.19396,-0.78213"
       style="fill:#000000;fill-opacity:1;fill-rule:nonzero;stroke:none;stroke-width:0.0574696"
       id="path6791"
       inkscape:connector-curvature="0"
       clip-path="url(#clipPath640)" />
    <path
       d="m 30.914391,144.47961 -0.76506,0.77584 0.10327,0.10327 0.66179,-0.58279 0.65733,0.58279 0.10236,-0.10327 -0.75969,-0.77584"
       style="fill:#000000;fill-opacity:1;fill-rule:nonzero;stroke:none;stroke-width:0.0574696"
       id="path6793"
       inkscape:connector-curvature="0"
       clip-path="url(#clipPath636)" />
    <path
       d="m 31.917401,146.26655 c 0.0225,-0.0799 0.0225,-0.0916 0.0225,-0.1311 0,-0.10327 -0.0799,-0.15445 -0.16522,-0.15445 -0.0575,0 -0.14816,0.0341 -0.20023,0.11943 -0.0108,0.0287 -0.0566,0.20563 -0.0799,0.3089 -0.0395,0.14816 -0.0799,0.30261 -0.11402,0.45616 l -0.25683,1.02817 c -0.0225,0.0853 -0.26849,0.4849 -0.64475,0.4849 -0.29183,0 -0.35379,-0.25143 -0.35379,-0.46245 0,-0.2622 0.097,-0.6169 0.29094,-1.11886 0.0907,-0.23437 0.11403,-0.29723 0.11403,-0.41127 0,-0.25682 -0.18318,-0.46784 -0.46783,-0.46784 -0.54237,0 -0.75429,0.82792 -0.75429,0.87911 0,0.0575 0.0575,0.0575 0.0691,0.0575 0.0566,0 0.0629,-0.0117 0.0907,-0.10327 0.15445,-0.53608 0.38253,-0.70759 0.57649,-0.70759 0.0458,0 0.14278,0 0.14278,0.18228 0,0.14278 -0.0566,0.29094 -0.097,0.3996 -0.22809,0.60523 -0.33045,0.93119 -0.33045,1.19878 0,0.50825 0.35918,0.67975 0.69592,0.67975 0.22269,0 0.41666,-0.097 0.57649,-0.25681 -0.0736,0.29632 -0.14276,0.57649 -0.37086,0.8791 -0.14816,0.19396 -0.36547,0.35919 -0.62768,0.35919 -0.0799,0 -0.33674,-0.0171 -0.43372,-0.23976 0.0907,0 0.16523,0 0.24515,-0.0682 0.0575,-0.0512 0.11404,-0.12571 0.11404,-0.23437 0,-0.1769 -0.15445,-0.19935 -0.21102,-0.19935 -0.1311,0 -0.31967,0.0916 -0.31967,0.37086 0,0.28556 0.25143,0.49658 0.60522,0.49658 0.58817,0 1.17543,-0.51903 1.33525,-1.16466 l 0.54866,-2.18025"
       style="fill:#000000;fill-opacity:1;fill-rule:nonzero;stroke:none;stroke-width:0.0574696"
       id="path6795"
       inkscape:connector-curvature="0"
       clip-path="url(#clipPath632)" />
    <path
       d="m 42.297571,126.384 -0.76503,0.77584 0.10327,0.10327 0.66176,-0.58279 0.65734,0.58279 0.10235,-0.10327 -0.75969,-0.77584"
       style="fill:#000000;fill-opacity:1;fill-rule:nonzero;stroke:none;stroke-width:0.0574696"
       id="path6797"
       inkscape:connector-curvature="0"
       clip-path="url(#clipPath628)" />
    <path
       d="m 41.285591,129.87168 c 0.30798,-0.33045 0.4732,-0.47322 0.67883,-0.65012 0,-0.006 0.35384,-0.3089 0.55947,-0.51453 0.54234,-0.5307 0.66808,-0.80458 0.66808,-0.82703 0,-0.0575 -0.0512,-0.0575 -0.0629,-0.0575 -0.0395,0 -0.0575,0.0117 -0.0853,0.0629 -0.17155,0.27388 -0.29189,0.36547 -0.42838,0.36547 -0.13735,0 -0.20563,-0.0862 -0.29091,-0.18318 -0.10868,-0.13111 -0.20563,-0.24515 -0.39418,-0.24515 -0.42838,0 -0.69056,0.5307 -0.69056,0.65103 0,0.0287 0.0171,0.0628 0.0682,0.0628 0.0512,0 0.0629,-0.0287 0.0745,-0.0628 0.10776,-0.26311 0.43913,-0.2685 0.48493,-0.2685 0.12034,0 0.2281,0.0395 0.36005,0.0853 0.22809,0.0862 0.29097,0.0862 0.43912,0.0862 -0.20562,0.24515 -0.68515,0.65641 -0.79377,0.74711 l -0.51366,0.4804 c -0.38792,0.38164 -0.58814,0.7076 -0.58814,0.74711 0,0.0575 0.0575,0.0575 0.0691,0.0575 0.0458,0 0.0565,-0.0117 0.0907,-0.0745 0.132,-0.19935 0.30263,-0.3538 0.48579,-0.3538 0.13108,0 0.18855,0.0512 0.33137,0.21731 0.0969,0.11942 0.1993,0.21101 0.36452,0.21101 0.56573,0 0.8971,-0.72465 0.8971,-0.8791 0,-0.0287 -0.0233,-0.0575 -0.0691,-0.0575 -0.0512,0 -0.0629,0.0341 -0.0799,0.0745 -0.13108,0.37087 -0.49659,0.47952 -0.68515,0.47952 -0.11402,0 -0.21637,-0.0341 -0.33671,-0.0745 -0.19396,-0.0736 -0.2793,-0.097 -0.39959,-0.097 -0.0117,0 -0.10241,0 -0.15356,0.0171"
       style="fill:#000000;fill-opacity:1;fill-rule:nonzero;stroke:none;stroke-width:0.0574696"
       id="path6799"
       inkscape:connector-curvature="0"
       clip-path="url(#clipPath624)" />
    <path
       d="m 126.67066,165.3746 c 0.14275,-0.25054 0.27925,-0.45617 0.63935,-0.4849 0.0511,-0.005 0.10862,-0.005 0.10862,-0.11405 0,-0.0233 -0.0233,-0.0629 -0.0691,-0.0629 -0.13649,0 -0.29631,0.0171 -0.43907,0.0171 -0.19396,0 -0.40498,-0.0171 -0.59354,-0.0171 -0.0341,0 -0.10868,0 -0.10868,0.10866 0,0.0628 0.0512,0.0682 0.0853,0.0682 0.13741,0.005 0.33677,0.0512 0.33677,0.2227 0,0.0628 -0.0279,0.10865 -0.0737,0.18856 l -1.54179,2.68851 -0.21102,-2.83128 c -0.005,-0.11404 -0.017,-0.2631 0.39964,-0.26849 0.097,0 0.15442,0 0.15442,-0.11404 0,-0.0575 -0.0629,-0.0629 -0.0862,-0.0629 -0.2281,0 -0.46786,0.0171 -0.6959,0.0171 -0.13201,0 -0.46878,-0.0171 -0.59987,-0.0171 -0.0341,0 -0.10861,0 -0.10861,0.11404 0,0.0629 0.0575,0.0629 0.13735,0.0629 0.25143,0 0.29097,0.0341 0.30263,0.14277 l 0.0341,0.43911 -1.44392,2.51789 -0.21735,-2.89414 c 0,-0.0691 0,-0.20024 0.43372,-0.20563 0.0575,0 0.12034,0 0.12034,-0.11404 0,-0.0629 -0.0691,-0.0629 -0.0799,-0.0629 -0.22895,0 -0.46872,0.0171 -0.70216,0.0171 -0.20028,0 -0.40591,-0.0171 -0.59987,-0.0171 -0.0287,0 -0.10235,0 -0.10235,0.10866 0,0.0683 0.0512,0.0683 0.14276,0.0683 0.28464,0 0.29096,0.0512 0.30263,0.21101 l 0.25683,3.48859 c 0.005,0.10236 0.0108,0.14816 0.0907,0.14816 0.0691,0 0.0862,-0.0341 0.13735,-0.12033 l 1.67829,-2.91119 0.21103,2.88336 c 0.0117,0.11943 0.0234,0.14816 0.0916,0.14816 0.0745,0 0.10867,-0.0575 0.1374,-0.10865 l 1.87224,-3.25421"
       style="fill:#000000;fill-opacity:1;fill-rule:nonzero;stroke:none;stroke-width:0.0574696"
       id="path6801"
       inkscape:connector-curvature="0"
       clip-path="url(#clipPath620)" />
    <path
       d="m 108.35258,122.96094 c 0.0512,-0.20563 0.0683,-0.26849 0.60527,-0.26849 0.17057,0 0.21637,0 0.21637,-0.10865 0,-0.0682 -0.0629,-0.0682 -0.0907,-0.0682 -0.18856,0 -0.65728,0.0171 -0.84498,0.0171 -0.17149,0 -0.58814,-0.0171 -0.75969,-0.0171 -0.0395,0 -0.10861,0 -0.10861,0.11404 0,0.0629 0.0511,0.0629 0.15982,0.0629 0.0117,0 0.12034,0 0.21729,0.0117 0.10235,0.0108 0.15356,0.0171 0.15356,0.0907 0,0.0233 -0.005,0.0404 -0.0225,0.10865 l -0.76504,3.06565 c -0.0566,0.22269 -0.0683,0.26849 -0.519,0.26849 -0.097,0 -0.15448,0 -0.15448,0.11404 0,0.0629 0.0512,0.0629 0.15448,0.0629 h 2.64268 c 0.13741,0 0.14275,0 0.17689,-0.097 l 0.45079,-1.2329 c 0.0233,-0.0629 0.0233,-0.0745 0.0233,-0.0799 0,-0.0233 -0.0171,-0.0629 -0.0682,-0.0629 -0.0521,0 -0.0575,0.0287 -0.097,0.11942 -0.19488,0.52531 -0.44539,1.17634 -1.43312,1.17634 h -0.537 c -0.0799,0 -0.0916,0 -0.12574,-0.005 -0.0566,-0.006 -0.0736,-0.0117 -0.0736,-0.0575 0,-0.0171 0,-0.0287 0.0278,-0.1311 l 0.77135,-3.08271"
       style="fill:#000000;fill-opacity:1;fill-rule:nonzero;stroke:none;stroke-width:0.0574696"
       id="path6803"
       inkscape:connector-curvature="0"
       clip-path="url(#clipPath616)" />
    <path
       style="fill:none;stroke:#000000;stroke-width:0.35;stroke-linecap:butt;stroke-linejoin:miter;stroke-miterlimit:4;stroke-dasharray:none;stroke-opacity:1;marker-start:url(#marker8796-1);marker-end:url(#Arrow2Mend-8-6)"
       d="m 128.82889,142.54047 c -0.0218,4.66661 -0.0435,9.33323 -0.0653,13.99984"
       id="path6362-8-4"
       inkscape:connector-curvature="0"
       inkscape:path-effect="#path-effect6364-75-2-6"
       inkscape:original-d="m 128.82889,142.54047 -0.0653,13.99984"
       inkscape:export-xdpi="300"
       inkscape:export-ydpi="300"
       clip-path="url(#clipPath612)" />
    <path
       d="m 135.18211,148.37895 c 0.14274,-0.25054 0.27924,-0.45617 0.63935,-0.4849 0.0511,-0.005 0.10861,-0.005 0.10861,-0.11405 0,-0.0233 -0.0233,-0.0629 -0.0691,-0.0629 -0.13649,0 -0.29631,0.0171 -0.43907,0.0171 -0.19396,0 -0.40498,-0.0171 -0.59354,-0.0171 -0.0341,0 -0.10868,0 -0.10868,0.10866 0,0.0628 0.0512,0.0682 0.0853,0.0682 0.13741,0.005 0.33677,0.0512 0.33677,0.2227 0,0.0628 -0.0279,0.10865 -0.0737,0.18856 l -1.54179,2.68851 -0.21102,-2.83128 c -0.005,-0.11404 -0.017,-0.2631 0.39964,-0.26849 0.097,0 0.15442,0 0.15442,-0.11404 0,-0.0575 -0.0629,-0.0629 -0.0862,-0.0629 -0.22811,0 -0.46787,0.0171 -0.69591,0.0171 -0.13201,0 -0.46878,-0.0171 -0.59987,-0.0171 -0.0341,0 -0.10861,0 -0.10861,0.11404 0,0.0629 0.0575,0.0629 0.13735,0.0629 0.25143,0 0.29097,0.0341 0.30263,0.14277 l 0.0341,0.43911 -1.44392,2.51789 -0.21735,-2.89414 c 0,-0.0691 0,-0.20024 0.43372,-0.20563 0.0575,0 0.12034,0 0.12034,-0.11404 0,-0.0629 -0.0691,-0.0629 -0.0799,-0.0629 -0.22895,0 -0.46872,0.0171 -0.70216,0.0171 -0.20028,0 -0.40591,-0.0171 -0.59987,-0.0171 -0.0287,0 -0.10235,0 -0.10235,0.10866 0,0.0683 0.0512,0.0683 0.14276,0.0683 0.28464,0 0.29096,0.0512 0.30263,0.21101 l 0.25683,3.48859 c 0.005,0.10236 0.0108,0.14816 0.0907,0.14816 0.0691,0 0.0862,-0.0341 0.13735,-0.12033 l 1.67829,-2.91119 0.21103,2.88336 c 0.0117,0.11943 0.0234,0.14816 0.0916,0.14816 0.0745,0 0.10867,-0.0575 0.1374,-0.10865 l 1.87224,-3.25421"
       style="fill:#000000;fill-opacity:1;fill-rule:nonzero;stroke:none;stroke-width:0.0574696"
       id="path6801-8"
       inkscape:connector-curvature="0"
       clip-path="url(#clipPath608)" />
  </g>
</svg>
